<svg width="692" height="615" viewBox="0 0 692 615" fill="none" xmlns="http://www.w3.org/2000/svg">
<path d="M541.384 362.413C540.011 365.52 538.477 368.533 536.771 371.453C537.837 369.2 539.331 366.253 541.384 362.413Z" fill="white"/>
<path d="M565.917 494.667C528.331 521.227 479.397 541.48 417.064 542.773C437.397 548.8 458.637 549.867 479.317 547.92C548.811 541.387 612.037 500.733 614.064 499.427C442.437 648.333 269.14 534.893 253.967 524.387H253.949C258.172 529.933 262.989 535.32 268.455 540.493C268.464 540.507 268.473 540.52 268.491 540.52C297.236 567.747 341.777 591.8 409.064 608.2C256.152 594.133 187.127 514.093 156.853 436.827C155.931 434.453 155.035 432.093 154.184 429.733V429.72L154.084 429.453L153.691 428.347V428.333H153.681V428.32L153.361 427.427C138.427 385.32 134.652 352.573 134.652 352.573C131.088 366.347 128.784 379.72 127.449 392.533C119.361 470.067 146.791 527.2 147.147 527.973C145.593 526.267 23.956 394.48 75.452 248.347C120.924 119.333 227.9 107.547 227.9 107.547C187.355 140.467 194.392 205.013 194.392 205.013C200.955 198.72 207.591 193.147 214.235 187.867C284.843 131.787 345.552 125.933 345.552 125.933C284.312 120.667 240.404 145.707 231.575 152.053C230.999 152.467 230.596 152.72 230.515 152.787C242.552 116.16 296.287 81.9199 296.287 81.9199C152.704 26.5866 26.012 147.693 24.404 149.24C71.732 60.2133 188.761 17.0932 294.421 8.17322C345.223 3.87988 393.4 7.49323 429.931 17.7199C466.997 28.0799 499.024 40.6532 525.437 53.9865C527.091 54.8132 528.677 55.6665 530.277 56.4932C542.691 63.5332 578.637 87.5198 606.131 139.307L606.957 140.933C606.957 140.933 606.957 140.947 606.971 140.973C607.264 141.786 611.691 153.853 616.837 168.667C621.184 181.147 626.037 195.56 629.371 206.84C629.384 206.907 629.411 206.96 629.411 207.013C631.597 208.173 633.637 209.373 635.571 210.6C681.477 239.813 660.664 288.653 611.811 346.333C611.811 346.333 611.744 325.427 609.917 305.92C608.731 293.333 601.051 282.293 589.704 276.733C564.011 264.16 514.357 241.493 473.637 232.893C469.384 232 465.224 231.253 461.197 230.68C448.357 229.92 439.757 230.267 434.117 230.907C431.691 231.36 429.291 231.893 426.904 232.493C424.504 233.067 421.171 234.36 415.104 237.067C414.517 237.32 413.957 237.627 413.384 237.907C410.571 239.32 407.824 240.88 405.157 242.56C402.517 244.213 399.957 246.013 397.485 247.92C388.921 254.573 381.472 262.587 375.504 271.68C365.504 286.92 359.617 305.12 359.472 324.68C359.463 324.933 359.463 325.2 359.463 325.453C359.463 325.733 359.463 326.013 359.472 326.293C359.463 326.56 359.472 326.827 359.491 327.093C359.491 327.147 359.491 327.187 359.472 327.24C359.472 327.347 359.472 327.453 359.491 327.533C359.499 328.24 359.508 328.933 359.553 329.627C359.581 330.227 359.6 330.8 359.645 331.387C359.681 332.187 359.747 332.973 359.811 333.76C359.901 334.92 360.02 336.067 360.157 337.213C360.157 337.213 360.157 337.24 360.176 337.307C360.249 337.88 360.724 341.12 361.473 345.267C361.639 346.107 361.829 346.96 362.023 347.787C362.223 348.613 362.424 349.453 362.644 350.293C362.661 350.333 362.671 350.387 362.68 350.44C362.844 351.12 363.045 351.787 363.237 352.467C363.749 354.267 364.316 356.053 364.92 357.8C365.157 358.467 365.404 359.12 365.651 359.773C366.144 361.133 366.693 362.507 367.268 363.827C367.405 364.187 367.561 364.547 367.725 364.907C367.889 365.28 368.055 365.64 368.219 366C368.411 366.44 368.612 366.88 368.831 367.32C369.535 368.84 370.293 370.32 371.089 371.8C371.409 372.387 371.729 372.96 372.057 373.56C372.177 373.747 372.277 373.947 372.387 374.147C372.716 374.72 373.053 375.293 373.392 375.853C373.968 376.827 374.563 377.76 375.156 378.693C375.613 379.387 376.08 380.08 376.536 380.76C377.085 381.56 377.651 382.347 378.228 383.133C378.592 383.627 378.968 384.133 379.333 384.627C379.717 385.133 380.083 385.613 380.476 386.107C380.513 386.147 380.549 386.187 380.568 386.24C381.517 387.453 382.523 388.627 383.537 389.787C383.821 390.133 384.095 390.453 384.415 390.787C384.891 391.333 385.384 391.867 385.887 392.4C385.941 392.453 386.005 392.533 386.079 392.6C386.536 393.107 387.02 393.6 387.496 394.08C387.861 394.467 388.236 394.84 388.611 395.2C388.776 395.373 388.94 395.533 389.113 395.693C389.607 396.187 390.109 396.653 390.612 397.12C391.316 397.787 392.056 398.453 392.779 399.093C393.4 399.64 394.031 400.173 394.661 400.693C395.237 401.187 395.795 401.64 396.389 402.107C396.819 402.467 397.267 402.813 397.705 403.133C398.163 403.507 398.624 403.853 399.104 404.2C399.237 404.307 399.397 404.413 399.557 404.533C400.251 405.053 400.944 405.547 401.664 406.04C401.731 406.093 401.824 406.16 401.904 406.2C402.717 406.76 403.531 407.32 404.344 407.84C419.664 417.747 437.917 423.493 457.504 423.493C458.491 423.493 459.491 423.48 460.464 423.44C460.731 423.44 461.011 423.427 461.277 423.413C462.077 423.387 462.851 423.347 463.637 423.307C464.664 423.24 465.664 423.16 466.677 423.067C467.557 422.987 468.411 422.893 469.277 422.787C469.651 422.747 469.997 422.707 470.384 422.653C471.051 422.56 471.717 422.467 472.357 422.373C472.971 422.28 473.584 422.173 474.157 422.08C474.784 421.987 475.384 421.867 475.984 421.76C476.571 421.64 477.184 421.52 477.771 421.387C478.251 421.293 478.744 421.173 479.237 421.067C480.104 420.88 480.984 420.667 481.851 420.44C482.517 420.267 483.184 420.093 483.851 419.893C484.757 419.667 485.651 419.387 486.517 419.12C486.944 419 487.357 418.867 487.744 418.733C489.157 418.28 490.557 417.8 491.917 417.293C492.371 417.107 492.824 416.947 493.264 416.76C494.931 416.107 496.584 415.413 498.211 414.667C498.891 414.36 499.557 414.053 500.224 413.707C503.091 412.333 505.864 410.813 508.571 409.147C509.064 408.853 509.571 408.547 510.051 408.227C511.091 407.573 512.117 406.907 513.104 406.2C513.731 405.773 514.357 405.347 514.971 404.893C515.451 404.56 515.917 404.2 516.384 403.827C516.864 403.48 517.331 403.133 517.784 402.76C518.544 402.187 519.291 401.587 520.024 400.96C520.637 400.467 521.224 399.96 521.811 399.453C522.024 399.267 522.224 399.107 522.411 398.92C523.037 398.387 523.637 397.84 524.237 397.267C524.944 396.627 525.624 395.96 526.304 395.28C526.944 394.653 527.584 394 528.224 393.373C528.237 393.32 528.277 393.28 528.317 393.253C528.891 392.653 529.437 392.04 529.997 391.44C530.197 391.227 530.384 391 530.584 390.787C531.117 390.2 531.651 389.6 532.171 388.973C533.397 387.52 534.597 386.027 535.744 384.507C536.331 383.747 536.891 382.987 537.451 382.187C541.437 376.573 544.851 370.52 547.597 364.12C545.051 372.12 542.251 379.44 539.264 386.107C499.731 474.333 406.064 441.76 403.237 440.747C549.064 521.56 670.691 362.253 671.877 360.693C671.557 361.613 641.864 441.013 565.917 494.667ZM666.811 356.813C666.011 357.853 647.037 382.627 615.144 407.573C586.184 430.227 540.611 457.213 487.917 457.213C476.691 457.213 465.491 455.987 454.397 453.56C485.197 451.533 523.131 437.827 545.131 388.72C548.237 381.787 551.131 374.16 553.717 366.067C560.864 346.667 554.691 321.52 554.691 321.52C554.691 321.52 549.611 346.507 541.797 361.613C541.664 361.867 541.531 362.12 541.411 362.36C541.397 362.387 541.397 362.4 541.384 362.413C540.011 365.52 538.477 368.533 536.771 371.453C536.771 371.48 536.757 371.493 536.757 371.507C535.357 373.893 533.851 376.227 532.251 378.48C531.771 379.173 531.264 379.867 530.677 380.64C529.557 382.12 528.424 383.52 527.317 384.84C526.851 385.387 526.397 385.893 525.904 386.453C525.784 386.573 525.664 386.707 525.544 386.84L525.451 386.947L525.384 387.027L525.277 387.133C524.811 387.653 524.331 388.173 523.851 388.693C523.691 388.827 523.557 388.973 523.424 389.133L523.064 389.507L521.877 390.693L521.837 390.72L521.797 390.76C521.304 391.24 520.651 391.893 519.984 392.493L519.797 392.667C519.304 393.147 518.797 393.6 518.277 394.04L518.091 394.213L517.931 394.36C517.891 394.4 517.851 394.44 517.811 394.467L517.637 394.627L517.344 394.88C516.877 395.267 516.451 395.64 516.037 395.987L515.904 396.093C515.251 396.64 514.597 397.173 513.944 397.667L513.877 397.72L513.811 397.76C513.424 398.08 513.037 398.373 512.637 398.667L512.557 398.733L512.464 398.8C512.064 399.107 511.664 399.413 511.277 399.68C510.571 400.187 510.051 400.547 509.571 400.88L509.491 400.933L509.411 400.987C508.477 401.653 507.491 402.293 506.637 402.84L506.597 402.867L506.557 402.893C506.171 403.133 505.784 403.387 505.371 403.627L505.291 403.653L505.224 403.707C502.757 405.227 500.144 406.653 497.464 407.96L497.411 407.987L497.357 408.013C496.837 408.267 496.277 408.533 495.651 408.8L495.611 408.827L495.557 408.853C494.157 409.493 492.637 410.133 490.931 410.813L490.877 410.84L490.824 410.867C490.597 410.96 490.357 411.04 490.131 411.133L489.691 411.293C488.504 411.733 487.237 412.187 485.784 412.653C485.437 412.773 485.051 412.893 484.677 413L484.624 413.013C483.811 413.267 483.051 413.507 482.304 413.68L482.157 413.72L482.024 413.773C481.477 413.933 480.877 414.093 480.264 414.253C479.491 414.453 478.691 414.64 477.877 414.813L477.597 414.88C477.224 414.96 476.864 415.053 476.491 415.133H476.464H476.451C475.971 415.24 475.491 415.333 474.997 415.427L474.784 415.48L474.477 415.533C474.077 415.6 473.664 415.693 473.251 415.747L473.171 415.76L473.104 415.773C472.557 415.867 472.011 415.947 471.437 416.04C470.784 416.147 470.171 416.227 469.531 416.307C469.304 416.347 469.104 416.373 468.904 416.387L468.517 416.44C467.704 416.547 466.944 416.627 466.157 416.68L466.144 416.693H466.117C465.024 416.787 464.117 416.867 463.264 416.907C462.517 416.96 461.824 417 461.144 417.013H461.077L460.744 417.027C460.664 417.027 460.571 417.04 460.477 417.04H460.344L460.184 417.053C459.291 417.08 458.331 417.093 457.517 417.093C439.824 417.093 422.651 412.027 407.837 402.467L407.824 402.44L407.797 402.427C407.131 402 406.411 401.52 405.571 400.96L405.451 400.867L405.424 400.84L405.397 400.827L405.277 400.747C404.651 400.307 404.024 399.867 403.411 399.413L403.331 399.36L403.264 399.293C403.197 399.253 403.144 399.213 403.091 399.173L402.984 399.093L402.891 399.04C402.544 398.773 402.117 398.453 401.731 398.133L401.651 398.08L401.557 398.027C401.157 397.707 400.797 397.44 400.491 397.173L400.424 397.12L400.357 397.067C399.864 396.68 399.371 396.28 398.797 395.8L398.784 395.773L398.757 395.76C398.18 395.293 397.605 394.787 397.037 394.293L396.755 394.053C396.141 393.507 395.575 392.987 395.036 392.48L395.008 392.453L394.981 392.44C394.524 392 394.067 391.573 393.619 391.133L393.573 391.093L393.537 391.053C393.409 390.933 393.291 390.813 393.172 390.693L393.144 390.667L393.099 390.627C392.769 390.307 392.459 390 392.203 389.72L392.084 389.6C391.627 389.133 391.207 388.707 390.832 388.293L390.584 388.027L390.529 387.973C390.081 387.507 389.652 387.027 389.232 386.56L389.159 386.48L389.085 386.387C388.885 386.187 388.692 385.96 388.464 385.68L388.419 385.64L388.373 385.573C387.641 384.733 386.691 383.64 385.813 382.52C385.685 382.347 385.549 382.173 385.403 382C385.147 381.667 384.891 381.347 384.644 381.013L384.469 380.787L384.279 380.533C383.995 380.147 383.701 379.76 383.419 379.36C382.963 378.747 382.387 377.947 381.847 377.16C381.427 376.52 380.979 375.867 380.54 375.2C379.863 374.16 379.361 373.347 378.913 372.587C378.601 372.067 378.292 371.547 377.999 371.027L377.972 370.987C377.861 370.773 377.743 370.56 377.615 370.347C377.313 369.813 377.029 369.293 376.747 368.76C375.943 367.293 375.265 365.933 374.653 364.627L374.617 364.533L374.572 364.453C374.425 364.16 374.269 363.827 374.105 363.44L374.087 363.4L374.077 363.373L373.904 363C373.804 362.773 373.703 362.56 373.603 362.32L373.584 362.28L373.557 362.227C373.447 361.987 373.347 361.747 373.255 361.52L373.209 361.4L373.155 361.28C372.605 360.013 372.112 358.773 371.684 357.6L371.664 357.533C371.427 356.907 371.199 356.28 370.971 355.667C370.404 354.013 369.883 352.36 369.416 350.72L369.279 350.253C369.16 349.827 369.041 349.413 368.951 349.04C368.913 348.893 368.877 348.72 368.813 348.52C368.64 347.853 368.475 347.187 368.319 346.52L368.264 346.307C368.091 345.547 367.917 344.8 367.78 344.08C367.031 339.907 366.583 336.813 366.547 336.493L366.483 336.013L366.473 336C366.364 335.04 366.281 334.133 366.208 333.253C366.153 332.52 366.089 331.787 366.061 331.093L366.052 331L366.044 330.88C366.016 330.52 365.997 330.147 365.988 329.773L365.971 329.347L365.961 329.28V329.213C365.925 328.667 365.916 328.067 365.907 327.453V326.867L365.897 326.653C365.888 326.6 365.888 326.56 365.888 326.493L365.897 326.28L365.888 326.08C365.879 325.867 365.879 325.667 365.879 325.453C365.879 325.267 365.879 325.093 365.888 324.907V324.72C366.025 307.053 371.208 289.933 380.877 275.2C386.425 266.733 393.345 259.253 401.437 252.973C403.691 251.227 406.091 249.533 408.584 247.96C411.117 246.373 413.704 244.907 416.264 243.627L416.731 243.4C417.077 243.227 417.424 243.053 417.771 242.893C423.291 240.427 426.491 239.173 428.411 238.72L428.451 238.707L428.477 238.693C430.691 238.133 432.917 237.64 435.091 237.24C438.624 236.84 442.837 236.64 447.611 236.64C451.557 236.64 455.917 236.773 460.584 237.053C464.237 237.573 468.197 238.28 472.344 239.16C512.237 247.587 561.251 269.907 586.917 282.48C596.224 287.04 602.597 296.253 603.557 306.52C605.344 325.52 605.437 346.147 605.437 346.347L605.491 363.72L616.717 350.467C655.077 305.173 671.037 271.48 666.931 244.44C664.544 228.667 655.144 215.467 639.024 205.2C637.664 204.333 636.251 203.493 634.824 202.693C631.984 193.293 627.984 181.147 622.904 166.56C618.437 153.707 614.584 143.107 613.371 139.813V139.387L612.677 138.027L611.851 136.387L611.824 136.36L611.797 136.307C599.651 113.413 584.571 93.2932 566.984 76.4932C552.317 62.4665 539.677 54.4533 533.464 50.9199L533.331 50.8532L533.224 50.7998C532.544 50.4532 531.891 50.1066 531.224 49.7599C530.277 49.2533 529.317 48.7599 528.331 48.2666C499.797 33.8666 467.277 21.5066 431.677 11.5599C404.651 3.99994 371.564 -0.00012207 335.972 -0.00012207C322.171 -0.00012207 308.023 0.599854 293.9 1.7998C236.044 6.67981 181.039 20.8932 134.808 42.8932C109.124 55.1066 86.4933 69.6266 67.536 86.0532C46.9066 103.92 30.4999 124.173 18.7733 146.24L0 181.573L28.856 153.853C29.724 153.027 50.5079 133.227 84.5093 113.4C115.476 95.3599 163.9 73.8398 218.751 73.8398C240.412 73.8398 261.764 77.1866 282.384 83.7866C265.603 96.0933 233.796 122.373 224.453 150.787L217.919 170.693L234.344 157.933L234.399 157.893C234.617 157.747 234.928 157.533 235.312 157.253C235.587 157.053 255.311 143.147 288.636 135.893C267.284 144.907 239.627 159.547 210.277 182.867C206.704 185.693 203.432 188.387 200.379 191C200.489 185.04 200.973 177.52 202.335 169.333C205.196 152.053 212.663 128.187 231.959 112.507L248.831 98.8132L227.223 101.187C226.072 101.307 198.733 104.507 165.509 124.053C146.06 135.493 128.601 150.2 113.612 167.76C94.9293 189.653 80.0773 216.053 69.4373 246.227C57.4 280.373 53.6613 316.573 58.3227 353.787C62.052 383.52 71.1186 413.973 85.296 444.32C109.015 495.093 139.076 528.613 142.421 532.267L169.943 562.293L152.988 525.307L152.969 525.28L152.932 525.2C152.201 523.627 145.612 509.267 140.136 486.56C135.027 465.36 129.789 431.96 133.829 393.2C134.068 390.973 134.323 388.747 134.616 386.533C137.504 398.627 141.599 413.32 147.303 429.427C147.303 429.427 148.197 432.04 149.221 434.72C149.743 436.107 150.3 437.573 150.912 439.147C168.845 484.92 196.476 522.627 233.045 551.253C278.372 586.72 337.399 608.027 408.491 614.56C435.024 616.267 463.811 602.76 464.651 602.36C463.771 602.48 435.197 606.107 410.597 601.987C363.585 590.533 325.188 574.587 295.984 554.453C298.928 555.747 301.989 557.053 305.161 558.333C343.86 574.04 383.273 582.013 422.304 582.013C492.877 582.013 558.824 555.853 618.277 504.267C647.931 479.88 652.037 458.853 652.037 458.853C652.037 458.853 636.824 476.907 610.611 494.04C610.557 494.08 610.464 494.147 610.331 494.227C610.237 494.293 610.144 494.36 610.051 494.413C603.211 498.733 543.437 535.467 478.744 541.547C478.224 541.587 477.731 541.64 477.224 541.68C510.451 533.827 541.384 519.853 569.624 499.893C609.757 471.547 636.944 436.093 652.677 411.333C670.331 383.573 677.864 363.04 677.931 362.84L691.771 323.973L666.811 356.813Z" fill="white"/>
<path d="M541.797 361.613C541.664 361.867 541.531 362.12 541.411 362.36C541.531 362.107 541.637 361.853 541.744 361.6L541.797 361.613Z" fill="white"/>
<path d="M627.317 300.573C624.357 284.493 613.797 270.4 598.957 263.133C576.717 252.253 539.917 235.453 504.704 224.893C501.864 224.08 499.011 223.266 496.157 222.48C508.477 219.8 527.371 216.12 548.797 213.533C570.717 210.88 586.171 209.56 595.291 208.907C608.131 214.16 619.424 219.693 625.891 224.893C628.331 226.84 629.957 228.147 631.037 229.013C631.051 229.013 631.064 229.027 631.064 229.027C631.984 229.76 632.504 230.16 632.771 230.36C632.917 230.467 632.984 230.533 633.024 230.56C633.024 230.533 633.011 230.533 632.984 230.507C642.197 237.84 644.291 244.8 645.037 249.627C646.971 262.293 641.011 279.36 627.317 300.573Z" fill="white"/>
<path d="M538.437 158.733C538.437 158.733 538.117 159.013 537.517 159.52C532.397 163.76 506.851 183.36 486.517 169.96C463.824 154.973 474.584 125.493 474.584 125.493L495.984 128.426C495.984 128.426 491.797 147.733 501.891 152.813C511.997 157.893 524.024 150.306 524.024 150.306L531.731 154.813L538.437 158.733Z" fill="white"/>
<path d="M592.611 152.733V152.746C591.744 152.986 590.864 153.186 589.944 153.373C589.277 153.506 588.584 153.626 587.864 153.72C585.731 154 583.491 154.16 581.157 154.16C580.504 154.16 579.864 154.146 579.211 154.12C578.744 154.106 578.264 154.093 577.797 154.066C577.451 154.04 577.077 154.013 576.717 153.986C576.224 153.946 575.717 153.92 575.211 153.866C574.797 153.826 574.397 153.786 573.984 153.733C573.611 153.693 573.237 153.653 572.877 153.6C572.704 153.573 572.544 153.56 572.384 153.533C571.931 153.48 571.477 153.413 571.024 153.346C570.557 153.28 570.064 153.186 569.571 153.106C569.224 153.04 568.877 152.986 568.517 152.933C565.091 152.293 561.557 151.413 557.997 150.333C556.531 149.866 555.037 149.386 553.557 148.853C550.597 147.8 547.597 146.586 544.664 145.226C543.184 144.56 541.704 143.853 540.251 143.106C539.517 142.733 538.797 142.346 538.064 141.96C537.344 141.573 536.637 141.173 535.917 140.76C535.197 140.36 534.491 139.946 533.771 139.533C532.784 138.946 531.811 138.333 530.851 137.72C530.077 137.226 529.291 136.72 528.531 136.2C527.811 135.72 527.077 135.2 526.357 134.693C526.184 134.56 525.984 134.44 525.824 134.333C525.051 133.746 524.264 133.173 523.504 132.6C522.184 131.6 520.917 130.56 519.651 129.506C518.717 128.706 517.811 127.893 516.904 127.053C516.451 126.64 515.997 126.226 515.557 125.813C515.104 125.373 514.677 124.96 514.251 124.533C513.464 123.693 512.664 122.853 511.877 122.04C511.477 121.626 511.064 121.226 510.664 120.826C510.251 120.426 509.851 120.026 509.437 119.626L509.384 119.573C509.011 119.226 508.651 118.866 508.277 118.52C507.157 117.48 506.024 116.453 504.891 115.453H504.877C503.864 114.56 502.851 113.693 501.797 112.826C501.291 112.4 500.771 111.973 500.251 111.546C499.717 111.133 499.197 110.72 498.677 110.306C498.144 109.893 497.611 109.493 497.091 109.093C496.264 108.453 495.424 107.84 494.584 107.213C493.957 106.76 493.317 106.306 492.677 105.866C492.197 105.533 491.717 105.186 491.251 104.866C489.811 103.88 488.371 102.92 486.917 101.973C485.584 101.133 484.264 100.306 482.931 99.5064C480.931 98.3064 478.931 97.1597 476.931 96.0397C475.597 95.3064 474.264 94.5998 472.931 93.8931H472.917C471.584 93.1998 470.251 92.5331 468.931 91.8664C468.211 91.5197 467.504 91.173 466.797 90.8397C461.157 88.1464 455.584 85.8131 450.251 83.7865C449.584 83.5198 448.917 83.2797 448.264 83.0397C447.597 82.7997 446.944 82.5597 446.291 82.3197C445.651 82.093 444.997 81.8663 444.357 81.6397H444.344C443.704 81.413 443.077 81.1997 442.437 80.973C440.544 80.333 438.677 79.733 436.877 79.173C433.464 78.1197 430.264 77.1864 427.277 76.3998C426.637 76.2131 425.997 76.0531 425.357 75.8931C424.744 75.7331 424.131 75.5731 423.531 75.4131C422.624 75.1998 421.744 74.9865 420.904 74.7865C420.891 74.7732 420.864 74.7731 420.851 74.7731C420.304 74.6398 419.784 74.5198 419.264 74.3998C419.077 74.3598 418.877 74.3065 418.691 74.2665C417.357 73.9731 416.117 73.693 414.984 73.4663H414.971C414.637 73.3863 414.304 73.3198 413.984 73.2665C413.664 73.1998 413.357 73.1198 413.051 73.0664C412.744 73.0131 412.451 72.9598 412.171 72.9064C411.877 72.8531 411.611 72.7998 411.344 72.7465C411.331 72.7465 411.317 72.7331 411.304 72.7331C411.091 72.6931 410.891 72.6532 410.704 72.6265C409.931 72.4798 409.237 72.3598 408.651 72.2665C408.211 72.1865 407.837 72.1331 407.517 72.0664C407.424 72.0664 407.357 72.0397 407.291 72.0397C407.211 72.0264 407.144 72.0131 407.077 72.0131C406.757 71.9597 406.517 71.9331 406.384 71.9064C406.371 71.9064 406.357 71.8931 406.331 71.8931H406.304C406.331 71.9198 406.357 71.9332 406.397 71.9598C406.411 71.9598 406.437 71.973 406.464 71.9864C406.491 72.013 406.517 72.0131 406.557 72.0397C408.477 73.0931 420.144 79.5464 432.717 87.8931C432.717 87.8931 432.717 87.9064 432.744 87.9064C432.757 87.9198 432.771 87.9331 432.784 87.9465C444.171 95.5065 456.277 104.626 462.477 112.68V112.706C462.424 112.76 462.037 113.053 461.464 113.573C461.331 113.68 461.184 113.813 461.037 113.946C460.877 114.08 460.731 114.226 460.557 114.386C460.304 114.626 460.024 114.88 459.744 115.173C459.637 115.266 459.531 115.373 459.424 115.48L459.064 115.84C458.957 115.96 458.837 116.08 458.691 116.213V116.226C458.584 116.346 458.451 116.48 458.317 116.613C458.224 116.706 458.117 116.826 458.024 116.933C457.731 117.24 457.451 117.586 457.131 117.933C456.997 118.08 456.864 118.24 456.717 118.4C456.571 118.573 456.437 118.733 456.304 118.893C456.157 119.066 456.024 119.24 455.877 119.413V119.426C455.704 119.626 455.531 119.853 455.344 120.08V120.093C455.171 120.32 454.984 120.546 454.811 120.786C454.451 121.253 454.104 121.746 453.744 122.253C453.464 122.653 453.171 123.08 452.904 123.506C452.531 124.08 452.171 124.666 451.811 125.28C450.557 127.413 449.437 129.773 448.584 132.333C446.757 137.813 446.197 144.173 448.437 151.066C448.611 151.626 448.811 152.173 449.024 152.72C449.091 152.893 449.157 153.08 449.251 153.28C449.251 153.28 446.264 153.693 441.451 154.933C441.171 155.013 440.877 155.093 440.584 155.16C439.104 155.573 437.477 156.04 435.731 156.613C435.037 156.826 434.331 157.066 433.584 157.32C432.864 157.573 432.104 157.84 431.331 158.133C431.011 158.24 430.677 158.373 430.344 158.506C430.264 158.533 430.197 158.546 430.131 158.586C429.731 158.733 429.344 158.893 428.931 159.04C428.157 159.36 427.371 159.68 426.557 160.026C426.144 160.2 425.731 160.373 425.317 160.546C425.277 160.573 425.237 160.6 425.184 160.613C424.664 160.84 424.157 161.066 423.651 161.306C423.451 161.413 423.237 161.493 423.037 161.586C422.891 161.653 422.744 161.72 422.611 161.786C421.544 162.293 420.451 162.84 419.344 163.4C419.104 163.533 418.851 163.653 418.597 163.786C418.544 163.826 418.491 163.853 418.424 163.88C418.411 163.893 418.411 163.893 418.397 163.893C417.837 164.2 417.277 164.493 416.717 164.813C415.851 165.293 414.984 165.786 414.104 166.306C414.077 166.32 414.064 166.333 414.037 166.346C413.157 166.866 412.277 167.413 411.384 167.986C411.024 168.213 410.664 168.44 410.291 168.68C409.557 169.173 408.837 169.666 408.104 170.173C407.437 170.64 406.771 171.12 406.117 171.613C406.051 171.653 405.984 171.706 405.917 171.76C405.797 171.84 405.677 171.933 405.571 172.026C404.584 172.76 403.611 173.52 402.637 174.32C401.931 174.893 401.237 175.493 400.544 176.093C400.277 176.333 400.024 176.56 399.757 176.786C399.317 177.186 398.877 177.6 398.437 178.013C397.724 178.68 397.02 179.36 396.315 180.066C396.079 180.306 395.84 180.533 395.612 180.773C395.301 181.106 395 181.413 394.689 181.746C394.287 182.186 393.884 182.626 393.483 183.066C393.016 183.586 392.568 184.106 392.111 184.64C391.444 185.426 390.776 186.226 390.119 187.066C389.909 187.333 389.689 187.626 389.469 187.906C389.149 188.333 388.829 188.76 388.52 189.2C388.199 189.626 387.888 190.066 387.579 190.506C387.167 191.093 386.755 191.693 386.353 192.306C386.152 192.613 385.951 192.92 385.749 193.226C385.557 193.533 385.357 193.84 385.164 194.173C384.973 194.48 384.78 194.786 384.589 195.106C384.397 195.426 384.205 195.746 384.023 196.08C383.839 196.4 383.648 196.72 383.465 197.053C383.264 197.4 383.063 197.76 382.871 198.12C382.588 198.653 382.304 199.2 382.02 199.746C380.567 202.586 379.241 205.6 378.081 208.786C377.807 209.546 377.543 210.32 377.277 211.093C375.22 217.28 373.759 224.106 373.036 231.64C373.036 231.64 384.096 216.893 401.224 206.706C407.757 202.813 415.171 199.6 423.211 198.093C429.557 196.933 436.291 196.826 443.251 198.36C443.357 198.373 443.451 198.4 443.557 198.413C444.064 198.533 444.571 198.653 445.077 198.786L445.931 199.013C446.464 199.16 447.011 199.306 447.531 199.493C448.171 199.693 448.797 199.893 449.424 200.106V200.12C449.664 200.2 449.904 200.293 450.144 200.373C450.851 200.64 451.584 200.906 452.291 201.226H452.304C454.451 202.12 456.624 203.173 458.811 204.44C459.544 204.866 460.277 205.293 461.011 205.76C463.504 207.146 466.051 208.813 468.171 210.266C470.264 211.733 471.931 212.986 472.664 213.546C471.437 213.306 467.504 213.04 455.637 213.133C435.877 213.293 418.971 219.08 418.437 219.253H418.424L418.357 219.28L418.291 219.306L417.744 219.52C410.331 222.306 403.051 225.973 396.324 230.293L391.544 233.52C380.777 241.72 361.831 262.173 353.056 281.893C347.48 295.28 344.509 309.666 344.381 324.36C344.363 324.8 344.363 325.173 344.363 325.453C344.363 325.706 344.363 326 344.372 326.346V327.253C344.372 327.52 344.381 327.84 344.4 328.226C344.409 328.88 344.427 329.6 344.473 330.36L344.481 330.52C344.5 331.053 344.528 331.64 344.573 332.293C344.619 333.28 344.692 334.186 344.756 334.986C344.756 334.986 344.765 335.066 344.784 335.24C344.784 335.28 344.793 335.333 344.793 335.386C344.803 335.44 344.803 335.506 344.811 335.56C344.829 335.706 344.839 335.88 344.857 336.066C344.875 336.2 344.884 336.333 344.893 336.48C344.903 336.533 344.912 336.6 344.921 336.666C344.929 336.813 344.948 336.946 344.957 337.093C344.993 337.36 345.031 337.653 345.067 337.973C345.085 338.186 345.112 338.413 345.14 338.626C345.195 339.08 345.249 339.56 345.323 340.08C345.332 340.16 345.341 340.226 345.351 340.293V340.333C345.479 341.266 345.625 342.293 345.789 343.4C345.925 344.32 346.081 345.28 346.264 346.293C347.005 350.626 348.083 355.76 349.609 360.92C350.743 364.733 352.032 368.08 353.284 370.92C350.076 386.933 348.824 409 356.821 432.826C357.224 434.04 357.653 435.253 358.101 436.466C358.439 437.373 358.796 438.266 359.161 439.173C359.28 439.493 359.408 439.8 359.536 440.093C360.039 441.32 360.56 442.546 361.108 443.76C361.455 444.533 361.821 445.306 362.177 446.066C362.543 446.826 362.927 447.6 363.311 448.36V448.373C363.621 448.986 363.941 449.6 364.261 450.213C364.591 450.826 364.919 451.453 365.257 452.066C365.423 452.373 365.596 452.693 365.769 453C366.291 453.92 366.821 454.853 367.369 455.773C368.008 456.866 368.676 457.946 369.371 459.026C370.056 460.12 370.769 461.2 371.5 462.28C379.068 473.453 389.159 484.626 402.451 495.426C404.077 496.746 405.744 498.053 407.464 499.36C408.317 500 409.184 500.653 410.064 501.306C411.184 502.12 412.291 502.92 413.451 503.72C416.864 506.133 420.477 508.52 424.251 510.866L424.264 510.893C395.503 504.013 371.948 494.24 352.681 482.653H352.672C352.672 482.653 352.499 482.546 352.169 482.346C352.105 482.306 352.04 482.266 351.977 482.24L351.795 482.12C348.824 480.306 345.953 478.466 343.193 476.573C342.883 476.346 342.563 476.133 342.252 475.92C341.905 475.68 341.557 475.44 341.219 475.2C340.972 475.026 340.735 474.853 340.496 474.68C340.012 474.346 339.528 474 339.061 473.653C338.111 472.973 337.169 472.28 336.237 471.573C335.78 471.226 335.332 470.88 334.876 470.533C334.537 470.28 334.2 470.013 333.861 469.746C333.395 469.4 332.937 469.026 332.481 468.666C332.372 468.586 332.261 468.493 332.152 468.4C331.704 468.053 331.265 467.693 330.827 467.333C330.653 467.186 330.48 467.053 330.305 466.906C330.041 466.693 329.776 466.48 329.52 466.253C329.465 466.213 329.409 466.173 329.355 466.12L329.191 465.986C328.935 465.786 328.688 465.573 328.441 465.36C328.231 465.186 328.02 465.013 327.811 464.84C327.737 464.76 327.655 464.693 327.583 464.626C327.344 464.426 327.097 464.213 326.86 464C326.824 463.973 326.787 463.946 326.76 463.906C326.549 463.733 326.348 463.56 326.137 463.386C325.699 463 325.269 462.626 324.84 462.226C324.821 462.226 324.813 462.2 324.793 462.186C324.776 462.173 324.757 462.16 324.748 462.133C324.437 461.88 324.136 461.613 323.835 461.32C323.543 461.066 323.249 460.8 322.965 460.533C322.381 460 321.815 459.466 321.248 458.933C320.819 458.533 320.389 458.12 319.968 457.706C319.721 457.48 319.484 457.24 319.237 457.013L318.524 456.293C318.076 455.866 317.637 455.413 317.199 454.973C317.108 454.893 317.025 454.8 316.943 454.72C316.532 454.306 316.12 453.88 315.719 453.466C315.563 453.306 315.416 453.146 315.271 453C315.077 452.8 314.877 452.586 314.685 452.386L314.356 452.026C314.164 451.826 313.972 451.626 313.789 451.426C313.744 451.386 313.707 451.346 313.671 451.306C313.452 451.066 313.232 450.826 313.012 450.586C312.565 450.106 312.125 449.626 311.696 449.133C311.432 448.853 311.176 448.56 310.928 448.28C310.745 448.093 310.581 447.893 310.408 447.693C310.235 447.493 310.052 447.28 309.887 447.08C309.804 447 309.74 446.92 309.668 446.84C309.384 446.52 309.1 446.186 308.827 445.853C308.781 445.813 308.744 445.76 308.699 445.706C308.461 445.426 308.224 445.16 307.995 444.88C307.904 444.773 307.812 444.666 307.729 444.56C307.647 444.466 307.556 444.36 307.473 444.253C307.392 444.16 307.309 444.053 307.236 443.96C307.163 443.88 307.089 443.8 307.025 443.706C306.953 443.626 306.88 443.533 306.815 443.453C306.724 443.36 306.651 443.24 306.569 443.146C306.295 442.826 306.029 442.493 305.773 442.16C305.673 442.04 305.581 441.933 305.491 441.813C305.389 441.693 305.299 441.573 305.197 441.453C304.997 441.2 304.796 440.946 304.595 440.68C304.549 440.626 304.504 440.56 304.467 440.506C304.42 440.453 304.375 440.4 304.329 440.333C304.22 440.2 304.111 440.066 304 439.933C303.936 439.84 303.863 439.746 303.8 439.653C303.753 439.6 303.727 439.56 303.689 439.52C303.525 439.293 303.352 439.08 303.187 438.853C303.059 438.706 302.949 438.56 302.84 438.4C302.776 438.306 302.703 438.213 302.639 438.133C302.473 437.92 302.319 437.72 302.172 437.506C302.099 437.413 302.027 437.306 301.944 437.2C301.835 437.066 301.735 436.933 301.643 436.786C301.605 436.746 301.569 436.706 301.541 436.666C301.505 436.613 301.487 436.586 301.46 436.546C301.277 436.306 301.103 436.066 300.92 435.813C300.573 435.333 300.225 434.853 299.897 434.373C299.777 434.226 299.677 434.066 299.568 433.906C299.531 433.853 299.495 433.8 299.459 433.746C299.22 433.413 298.973 433.066 298.736 432.72C298.717 432.693 298.699 432.666 298.681 432.64C298.627 432.56 298.572 432.493 298.516 432.4C298.425 432.266 298.333 432.133 298.252 432C298.096 431.786 297.949 431.573 297.812 431.36C297.667 431.16 297.529 430.946 297.392 430.746C297.183 430.44 296.981 430.12 296.771 429.813C296.735 429.746 296.688 429.68 296.652 429.613C296.569 429.493 296.487 429.373 296.415 429.266C296.213 428.96 296.012 428.653 295.82 428.333C295.692 428.16 295.573 427.96 295.455 427.773C295.417 427.72 295.391 427.666 295.355 427.613C295.171 427.32 294.979 427.026 294.797 426.733C294.705 426.586 294.604 426.426 294.523 426.28C294.329 425.973 294.148 425.693 293.965 425.4C293.937 425.346 293.901 425.293 293.881 425.253C293.781 425.093 293.691 424.933 293.599 424.786C293.388 424.44 293.179 424.093 292.977 423.746C292.74 423.36 292.521 422.986 292.301 422.6C292.164 422.386 292.045 422.173 291.917 421.96C291.88 421.906 291.853 421.84 291.816 421.786C291.616 421.44 291.415 421.093 291.223 420.746C291.204 420.72 291.177 420.68 291.168 420.653C290.957 420.28 290.748 419.906 290.547 419.533C290.18 418.893 289.824 418.24 289.485 417.6C289.423 417.493 289.367 417.386 289.304 417.28C289.101 416.906 288.911 416.533 288.709 416.16C288.645 416.04 288.581 415.906 288.508 415.773C288.307 415.4 288.105 415.013 287.915 414.64C287.895 414.6 287.877 414.56 287.859 414.533C287.813 414.44 287.768 414.36 287.731 414.266C287.585 414 287.448 413.72 287.311 413.453C287.228 413.28 287.147 413.12 287.064 412.96C286.68 412.2 286.305 411.44 285.948 410.693C285.812 410.413 285.684 410.133 285.547 409.84C285.455 409.666 285.381 409.493 285.3 409.32C285.144 409 284.997 408.68 284.852 408.36C283.216 404.853 281.744 401.333 280.409 397.84C280.264 397.48 280.127 397.106 279.98 396.733C279.897 396.506 279.807 396.28 279.724 396.053C279.449 395.32 279.176 394.573 278.92 393.826C278.673 393.146 278.436 392.48 278.208 391.8C278.033 391.306 277.86 390.8 277.695 390.293C262.267 343.986 269.789 303.093 269.889 302.533C269.871 302.573 269.853 302.6 269.825 302.64C269.771 302.733 269.697 302.853 269.607 302.986C269.579 303.066 269.533 303.133 269.479 303.213C269.433 303.306 269.368 303.386 269.304 303.493C269.223 303.653 269.121 303.813 269.012 303.986C268.948 304.093 268.884 304.213 268.811 304.32C268.775 304.4 268.737 304.466 268.692 304.533C268.537 304.813 268.363 305.093 268.18 305.4C268.18 305.4 268.18 305.413 268.171 305.413C268.016 305.68 267.851 305.96 267.668 306.266C267.613 306.36 267.559 306.466 267.495 306.573C267.421 306.706 267.34 306.853 267.248 307C267.028 307.4 266.791 307.8 266.544 308.24C266.416 308.453 266.297 308.68 266.16 308.906C266.16 308.92 266.16 308.933 266.151 308.933C265.896 309.4 265.621 309.866 265.347 310.373C265.072 310.866 264.78 311.386 264.488 311.933C264.287 312.293 264.085 312.666 263.885 313.04C263.573 313.613 263.263 314.2 262.933 314.813C262.276 316.026 261.589 317.333 260.887 318.706C260.704 319.053 260.529 319.4 260.347 319.76C259.799 320.826 259.241 321.933 258.665 323.066C257.523 325.36 256.335 327.826 255.109 330.426C255.109 330.44 255.109 330.44 255.1 330.453C254.808 331.093 254.507 331.733 254.205 332.386C254.04 332.746 253.867 333.133 253.684 333.506C253.245 334.466 252.807 335.44 252.359 336.44C252.203 336.786 252.048 337.146 251.893 337.506C251.116 339.253 250.339 341.053 249.552 342.906V342.92C249.461 343.12 249.379 343.32 249.297 343.533C249.224 343.693 249.151 343.866 249.077 344.04C249.004 344.226 248.923 344.4 248.849 344.586C248.767 344.773 248.693 344.973 248.611 345.16C248.601 345.173 248.593 345.213 248.575 345.24C248.392 345.706 248.2 346.173 248.008 346.64C247.771 347.213 247.533 347.8 247.296 348.4C246.993 349.146 246.683 349.92 246.381 350.68C246.235 351.066 246.08 351.453 245.933 351.84C245.559 352.8 245.184 353.786 244.809 354.773C244.727 354.973 244.644 355.2 244.563 355.413C244.343 356 244.115 356.6 243.895 357.2C243.667 357.8 243.447 358.413 243.228 359.026C242.36 361.426 241.5 363.866 240.668 366.36C239.088 371.066 237.589 375.933 236.189 380.946C235.916 381.946 235.641 382.946 235.368 383.946V383.973C235.103 384.973 234.837 385.986 234.572 387.013V387.026C234.051 389.066 233.557 391.133 233.073 393.2V393.226C232.607 395.306 232.151 397.4 231.72 399.52V399.533C231.611 400.053 231.509 400.586 231.4 401.12C231.089 402.706 230.797 404.32 230.513 405.92C227.983 420.493 226.757 435.72 227.689 450.973C227.689 451.053 227.699 451.146 227.699 451.226C227.744 451.866 227.789 452.52 227.836 453.173C227.983 455.12 228.156 457.066 228.376 459.013C228.403 459.293 228.439 459.573 228.476 459.866C228.549 460.453 228.621 461.04 228.695 461.64C228.924 463.4 229.179 465.16 229.472 466.92C229.673 468.093 229.884 469.266 230.103 470.426C230.331 471.6 230.568 472.773 230.825 473.933C231.08 475.16 231.364 476.346 231.665 477.56C231.739 477.866 231.812 478.173 231.903 478.48C232.168 479.573 232.46 480.64 232.763 481.72C233.567 484.613 234.472 487.48 235.495 490.32C235.971 491.666 236.473 493.013 237.003 494.36C237.405 495.373 237.817 496.36 238.237 497.373C238.557 498.12 238.887 498.866 239.224 499.626C239.563 500.373 239.901 501.106 240.248 501.866C240.596 502.586 240.961 503.346 241.327 504.08C241.692 504.826 242.067 505.56 242.451 506.293C239.444 505.666 236.255 504.826 232.973 503.733C229.691 502.64 226.328 501.293 222.973 499.626C216.52 496.426 210.104 492.04 204.419 486.066C184.045 464.666 171.149 431.826 168.169 423.733C167.731 422.546 167.511 421.906 167.511 421.906C167.511 421.906 158.051 396.666 149.313 354.16C149.204 353.586 149.085 353.013 148.967 352.44L148.956 352.373V352.36C149.067 351.226 149.185 350.093 149.323 348.986C149.349 348.786 149.368 348.573 149.395 348.36C149.505 347.44 149.615 346.533 149.733 345.626C149.816 345.04 149.899 344.453 149.972 343.866C150.027 343.466 150.081 343.093 150.145 342.693C150.483 340.36 150.857 338.026 151.269 335.733C151.324 335.413 151.379 335.093 151.443 334.773C152.028 331.6 152.687 328.466 153.399 325.386C154.596 320.266 155.976 315.24 157.529 310.36C157.648 309.96 157.777 309.573 157.905 309.173C158.627 306.933 159.395 304.706 160.189 302.52C160.327 302.12 160.473 301.733 160.628 301.333C160.765 300.933 160.912 300.533 161.059 300.146L161.068 300.133C161.36 299.346 161.671 298.56 161.972 297.773C162.283 297 162.593 296.213 162.904 295.44C163.224 294.666 163.535 293.893 163.864 293.133C164.184 292.346 164.504 291.586 164.833 290.813C165.536 289.2 166.259 287.6 167 286.013C167.245 285.493 167.493 284.96 167.748 284.426C168.251 283.373 168.753 282.333 169.265 281.293C169.531 280.773 169.796 280.253 170.052 279.733C170.308 279.213 170.573 278.693 170.839 278.186C171.551 276.826 172.273 275.466 173.004 274.12C173.561 273.106 174.111 272.106 174.677 271.093C175.527 269.6 176.395 268.12 177.281 266.653C177.573 266.16 177.867 265.666 178.16 265.186C178.452 264.706 178.753 264.213 179.055 263.733C179.356 263.253 179.659 262.76 179.96 262.293C180.563 261.333 181.175 260.373 181.807 259.426L182.739 258.013C183.049 257.546 183.369 257.066 183.689 256.6C184.521 255.36 185.371 254.12 186.248 252.88C187.107 251.653 187.985 250.453 188.872 249.24C189.539 248.346 190.207 247.44 190.883 246.546C191.559 245.653 192.244 244.76 192.939 243.893C193.963 242.573 195.004 241.266 196.065 239.973C196.412 239.533 196.768 239.106 197.116 238.68C197.828 237.826 198.532 236.973 199.255 236.133C199.968 235.293 200.699 234.453 201.421 233.613C202.773 232.066 204.144 230.533 205.533 229.026C206.923 227.52 208.321 226.026 209.739 224.56C210.872 223.373 212.015 222.213 213.167 221.066C218.905 215.32 224.865 209.88 230.961 204.746C232.168 203.72 233.393 202.706 234.617 201.693H234.627C235.852 200.693 237.085 199.706 238.32 198.733C239.563 197.746 240.805 196.786 242.048 195.826C243.292 194.866 244.544 193.933 245.787 193C247.78 191.52 249.772 190.066 251.773 188.64C252.807 187.906 253.849 187.173 254.891 186.453C271.435 174.986 288.252 165.466 304.028 157.68C305.636 156.88 307.236 156.106 308.827 155.346C349.993 135.653 382.871 127.933 382.871 127.933C381.161 126.893 379.471 125.893 377.788 124.933C376.664 124.293 375.549 123.666 374.443 123.066C373.895 122.76 373.337 122.466 372.78 122.173C371.683 121.6 370.596 121.026 369.508 120.48C368.959 120.2 368.42 119.933 367.881 119.666C366.801 119.133 365.741 118.613 364.672 118.106C363.081 117.36 361.501 116.64 359.948 115.96C358.905 115.507 357.881 115.08 356.857 114.653C356.355 114.44 355.835 114.226 355.332 114.026C354.325 113.613 353.32 113.226 352.333 112.84C351.831 112.653 351.337 112.466 350.844 112.28C350.287 112.08 349.737 111.88 349.189 111.68C348.111 111.293 347.041 110.933 345.989 110.573C344.939 110.213 343.897 109.88 342.873 109.546C342.188 109.333 341.512 109.133 340.835 108.933C339.939 108.653 339.044 108.4 338.175 108.146C337.727 108.026 337.279 107.906 336.841 107.786C335.964 107.546 335.095 107.32 334.236 107.093C332.947 106.773 331.685 106.466 330.452 106.2C328.816 105.813 327.216 105.493 325.672 105.186C324.511 104.973 323.377 104.773 322.28 104.586C321.54 104.466 320.828 104.36 320.124 104.253C313.049 103.2 307.337 102.933 303.324 102.933C302.108 102.933 301.057 102.946 300.161 102.986C299.961 103 299.768 103 299.585 103.013C299.495 103.026 299.403 103.026 299.32 103.026C299.147 103.026 298.983 103.04 298.817 103.053C298.508 103.08 298.224 103.093 297.977 103.106C297.849 103.12 297.731 103.133 297.631 103.146C297.575 103.146 297.52 103.146 297.475 103.146C297.373 103.173 297.283 103.173 297.209 103.173C296.844 103.213 296.66 103.24 296.66 103.24C299.604 100.706 302.483 98.2663 305.216 95.973C305.901 95.413 306.569 94.8398 307.236 94.2932H307.245C307.492 94.0798 307.739 93.8797 307.985 93.6797C308.469 93.2797 308.955 92.8797 309.439 92.4797C309.668 92.2797 309.913 92.0798 310.152 91.8931C311.103 91.1064 312.025 90.3598 312.912 89.6265C313.351 89.2798 313.78 88.9198 314.211 88.5731C315.271 87.7065 316.285 86.8798 317.244 86.1198C317.619 85.8131 317.995 85.5197 318.351 85.2264C318.533 85.0798 318.707 84.933 318.889 84.7997C319.941 83.9597 320.9 83.1864 321.751 82.5064C321.76 82.5064 321.76 82.5064 321.76 82.5064C321.86 82.4264 321.952 82.3465 322.043 82.2798C322.327 82.0665 322.583 81.8664 322.829 81.6664C323.167 81.3997 323.479 81.1465 323.761 80.9198C324.539 80.3065 325.141 79.8264 325.553 79.5197C325.699 79.3997 325.819 79.3064 325.919 79.2398C325.937 79.2264 325.945 79.2131 325.964 79.2131C325.983 79.1997 325.992 79.1864 326 79.173C326.019 79.1597 326.028 79.1597 326.037 79.1464C326.047 79.133 326.056 79.1198 326.064 79.1198C326.111 79.0798 326.147 79.0531 326.156 79.0531C325.689 78.6931 325.224 78.3597 324.767 77.9997C324.52 77.8397 324.283 77.6664 324.053 77.5064C323.652 77.2264 323.259 76.9464 322.856 76.6664C322.528 76.453 322.208 76.2264 321.879 76.0131C320.919 75.373 319.932 74.7465 318.953 74.1198C317.848 73.4265 316.715 72.7598 315.591 72.0798L314.457 71.4265C314.009 71.1598 313.543 70.893 313.085 70.6397C312.628 70.3864 312.163 70.1331 311.696 69.8798C310.773 69.3731 309.841 68.8798 308.9 68.3998C308.279 68.0664 307.647 67.7465 307.017 67.4532C305.764 66.8131 304.493 66.2132 303.224 65.6265C302.584 65.3332 301.944 65.0398 301.304 64.7598C298.753 63.6265 296.176 62.5731 293.589 61.5731C259.388 48.4131 224.327 47.2531 223.485 47.2398C228.301 44.3731 233.457 41.7464 238.877 39.3731C239.655 39.0264 240.431 38.6931 241.217 38.3597C242.003 38.0397 242.799 37.7064 243.593 37.3864C243.995 37.2264 244.388 37.0664 244.791 36.9064C246.4 36.2664 248.017 35.6664 249.663 35.0664C250.896 34.6131 252.14 34.1731 253.383 33.7598C254.224 33.4665 255.064 33.1865 255.905 32.9198C257.167 32.4931 258.437 32.0931 259.716 31.7064C260.576 31.4397 261.435 31.1865 262.295 30.9198C263.153 30.6664 264.021 30.4264 264.891 30.173C266.845 29.6264 268.811 29.0931 270.795 28.5731C271.461 28.3998 272.128 28.2398 272.787 28.0664C274.121 27.7464 275.456 27.4265 276.799 27.1065C278.811 26.6265 280.831 26.1865 282.869 25.7465C283.545 25.5998 284.221 25.453 284.907 25.3063C285.867 25.1197 286.827 24.9198 287.795 24.7331C288.197 24.6531 288.591 24.573 288.992 24.493C289.559 24.3864 290.116 24.293 290.684 24.173C291.159 24.093 291.625 23.9998 292.109 23.9198C292.567 23.8264 293.032 23.7464 293.499 23.653C294.559 23.4664 295.619 23.2798 296.68 23.0931C296.935 23.0531 297.191 23.0132 297.447 22.9598C298.141 22.8531 298.827 22.7332 299.521 22.6265C299.723 22.5998 299.915 22.5597 300.116 22.5197C302.035 22.213 303.964 21.9197 305.893 21.6397C306.788 21.5063 307.684 21.3731 308.58 21.2531C309.237 21.1598 309.896 21.0663 310.555 20.973C311.413 20.8663 312.272 20.7463 313.123 20.6397C314.723 20.4263 316.321 20.2264 317.912 20.0531H317.921C344.939 20.5464 391.38 22.9064 427.304 32.6664C461.024 42.173 491.744 53.8798 518.637 67.4532L518.651 67.4797L518.691 67.493C519.544 67.9197 520.397 68.373 521.304 68.8397C521.917 69.1464 522.504 69.4665 523.104 69.7731C532.664 75.2398 563.104 95.0931 588.291 138.28C590.064 143.733 591.491 148.586 592.611 152.733Z" fill="white"/>
</svg>
