<svg version="1.2" xmlns="http://www.w3.org/2000/svg" viewBox="0 0 2500 2500" width="2500" height="2500">
	<title>Eagle-svg</title>
	<defs>
		<clipPath clipPathUnits="userSpaceOnUse" id="cp1">
			<path d="m0.09 0.02h2500v2500h-2500z"/>
		</clipPath>
	</defs>
	<style>
		.s0 { fill: none } 
		.s1 { fill: #ffffff } 
	</style>
	<g id="Layer">
		<g id="BRONZE">
		</g>
		<g id="fronte">
		</g>
		<g id="Artboard73">
			<path id="Layer" class="s0" d="m0.1 0h2500v2500h-2500z"/>
			<g id="Clip-Path" clip-path="url(#cp1)">
				<g id="Layer">
					<g id="Layer">
						<g id="Layer">
							<path id="Layer" class="s1" d="m1806.7 1406.8q-5.8 13.2-13.1 25.7c3-6.4 7.3-14.8 13.1-25.7z"/>
						</g>
						<g id="Layer">
							<path id="Layer" fill-rule="evenodd" class="s1" d="m1876.6 1783.3c-107.1 75.6-246.4 133.3-423.8 137 57.9 17.1 118.3 20.2 177.2 14.6 197.9-18.6 377.9-134.3 383.6-138-488.6 424-982 101-1025.2 71.1h-0.1c12.1 15.7 25.8 31.1 41.3 45.8q0.1 0 0.2 0.1c81.8 77.5 208.6 146 400.2 192.7-435.4-40.1-631.9-268-718.1-488q-4-10.1-7.6-20.1v-0.1l-0.3-0.8-1.1-3.1v-0.1l-0.9-2.5c-42.6-119.9-53.3-213.1-53.3-213.1-10.2 39.2-16.7 77.3-20.5 113.7-23 220.8 55 383.4 56.1 385.7-4.5-4.9-350.8-380.1-204.2-796.2 129.5-367.3 434.1-400.9 434.1-400.9-115.5 93.8-95.4 277.5-95.4 277.5 18.7-17.9 37.6-33.8 56.5-48.8 201-159.7 373.9-176.3 373.9-176.3-174.4-15-299.4 56.3-324.6 74.3-1.6 1.2-2.7 2-3 2.1 34.3-104.2 187.3-201.7 187.3-201.7-408.8-157.6-769.5 187.2-774.1 191.6 134.7-253.5 467.9-376.2 768.8-401.6 144.6-12.2 281.8-1.9 385.8 27.2 105.5 29.5 196.7 65.3 271.9 103.2 4.7 2.4 9.2 4.8 13.8 7.2 35.4 20 137.7 88.3 216 235.8l2.3 4.6q0 0 0.1 0.1c0.8 2.3 13.4 36.7 28.1 78.8 12.3 35.6 26.1 76.6 35.6 108.7 0.1 0.2 0.1 0.4 0.2 0.5q9.3 5 17.5 10.2c130.7 83.2 71.4 222.3-67.7 386.5 0 0-0.2-59.5-5.4-115.1-3.3-35.8-25.2-67.2-57.5-83.1-73.2-35.8-214.5-100.3-330.5-124.8-12.1-2.5-23.9-4.7-35.4-6.3-36.5-2.1-61-1.2-77.1 0.6-6.9 1.3-13.7 2.8-20.5 4.6-6.9 1.6-16.4 5.3-33.6 13-1.7 0.7-3.3 1.6-4.9 2.4-8 4-15.8 8.5-23.4 13.2-7.5 4.8-14.9 9.9-21.9 15.3-24.4 18.9-45.6 41.8-62.6 67.7-28.4 43.3-45.2 95.1-45.6 150.8q0 1.1 0 2.3 0 1.2 0 2.3 0 1.2 0 2.3c0 0.2 0 0.3 0 0.5 0 0.2 0 0.5 0 0.8 0.1 2 0.1 4 0.2 5.9 0.1 1.7 0.2 3.4 0.3 5 0.1 2.3 0.3 4.5 0.5 6.8q0.3 4.9 0.9 9.8 0 0 0.1 0.3c0.2 1.6 1.6 10.9 3.7 22.6 0.5 2.5 1 4.9 1.5 7.2 0.6 2.4 1.2 4.8 1.8 7.2q0.1 0.2 0.1 0.4c0.5 1.9 1.1 3.8 1.6 5.8 1.5 5.1 3.1 10.2 4.8 15.1q1 2.9 2.1 5.7c1.4 3.8 2.9 7.7 4.6 11.5q0.6 1.5 1.3 3.1c0.5 1 0.9 2.1 1.4 3.1q0.8 1.9 1.7 3.7 3.1 6.5 6.5 12.8c0.9 1.7 1.8 3.3 2.7 5 0.4 0.6 0.6 1.1 1 1.7q1.4 2.4 2.8 4.8 2.5 4.2 5 8.1c1.3 2 2.7 4 4 5.9q2.3 3.4 4.8 6.8 1.6 2.1 3.1 4.2c1.1 1.5 2.2 2.8 3.3 4.2q0.2 0.2 0.3 0.4c2.7 3.5 5.5 6.8 8.4 10.1 0.8 1 1.6 1.9 2.5 2.9q2 2.3 4.2 4.5c0.2 0.2 0.3 0.4 0.5 0.6 1.3 1.5 2.7 2.9 4.1 4.2 1 1.2 2.1 2.2 3.2 3.2q0.6 0.7 1.4 1.4 2.1 2.1 4.3 4.1c2 1.9 4.1 3.8 6.1 5.6q2.7 2.3 5.4 4.6c1.6 1.4 3.2 2.7 4.9 4 1.2 1 2.5 2 3.7 2.9q2 1.6 4 3 0.6 0.5 1.3 1 3 2.2 6 4.3c0.2 0.1 0.5 0.3 0.7 0.4q3.5 2.5 7 4.7c43.6 28.2 95.5 44.6 151.3 44.6 2.8 0 5.7 0 8.4-0.2 0.8 0 1.6 0 2.3-0.1 2.3 0 4.5-0.1 6.8-0.3q4.3-0.2 8.6-0.6 3.8-0.4 7.4-0.8c1.1-0.2 2.1-0.3 3.2-0.4q2.8-0.4 5.6-0.8 2.6-0.4 5.1-0.9c1.8-0.2 3.5-0.6 5.2-0.9q2.6-0.5 5.1-1 2.1-0.4 4.2-0.9 3.7-0.8 7.4-1.8c1.9-0.5 3.8-1 5.7-1.6 2.6-0.6 5.1-1.4 7.6-2.2q1.8-0.5 3.5-1.1c4-1.3 8-2.6 11.9-4.1 1.3-0.5 2.6-1 3.8-1.5 4.8-1.8 9.5-3.8 14.1-6 2-0.8 3.9-1.7 5.8-2.7q12.2-5.9 23.7-13 2.1-1.2 4.2-2.6c3-1.9 5.9-3.8 8.7-5.8q2.7-1.8 5.3-3.7 2.1-1.4 4.1-3 2-1.5 3.9-3 3.3-2.5 6.4-5.2c1.8-1.4 3.4-2.8 5.1-4.3 0.6-0.5 1.2-1 1.7-1.5q2.7-2.3 5.2-4.7c2-1.8 3.9-3.7 5.9-5.7 1.8-1.7 3.6-3.6 5.4-5.4q0.1-0.2 0.3-0.3c1.6-1.7 3.2-3.5 4.8-5.2 0.6-0.6 1.1-1.2 1.7-1.8 1.5-1.7 3-3.4 4.5-5.2 3.5-4.1 6.9-8.4 10.2-12.7q2.4-3.2 4.8-6.6c11.4-16 21.1-33.2 28.9-51.5-7.3 22.8-15.2 43.7-23.7 62.6-112.6 251.2-379.3 158.5-387.3 155.6 415.2 230.1 761.5-223.5 764.9-227.9-1 2.6-85.5 228.7-301.7 381.4zm287.2-392.5c-2.2 3-56.3 73.5-147.1 144.6-82.4 64.4-212.2 141.3-362.2 141.3-32 0-63.8-3.5-95.4-10.4 87.7-5.8 195.6-44.8 258.3-184.6 8.9-19.8 17.1-41.5 24.4-64.5 20.4-55.3 2.8-126.8 2.8-126.8 0 0-14.4 71.1-36.7 114.1q-0.6 1.1-1.1 2.1c0 0.1 0 0.1-0.1 0.2q-5.8 13.2-13.1 25.7 0 0.1-0.1 0.2c-3.9 6.8-8.2 13.4-12.8 19.8-1.3 2-2.8 4-4.5 6.2-3.2 4.2-6.4 8.2-9.5 11.9-1.3 1.6-2.6 3-4 4.6q-0.6 0.5-1.1 1.1l-0.2 0.3-0.2 0.2-0.3 0.4q-2 2.2-4.1 4.4-0.7 0.6-1.2 1.3l-1 1-3.4 3.4-0.1 0.1-0.1 0.1c-1.4 1.4-3.3 3.2-5.2 4.9l-0.5 0.5q-2.1 2.1-4.4 3.9l-0.5 0.5-0.4 0.4q-0.2 0.2-0.4 0.4l-0.5 0.4-0.8 0.7c-1.3 1.1-2.6 2.2-3.8 3.1l-0.3 0.4q-2.8 2.3-5.6 4.4l-0.2 0.2-0.2 0.1q-1.6 1.4-3.3 2.6l-0.3 0.2-0.2 0.2c-1.1 0.8-2.3 1.7-3.4 2.5-2 1.4-3.5 2.5-4.9 3.4l-0.2 0.2-0.2 0.1c-2.7 1.9-5.5 3.7-7.9 5.3h-0.1l-0.1 0.1q-1.7 1.1-3.4 2.1l-0.2 0.1-0.2 0.1c-7.1 4.4-14.5 8.4-22.1 12.1l-0.2 0.1-0.1 0.1c-1.5 0.7-3.1 1.5-4.9 2.3h-0.1l-0.2 0.1c-4 1.8-8.3 3.7-13.1 5.6h-0.2l-0.1 0.1q-1 0.4-2 0.8l-1.3 0.5c-3.3 1.2-7 2.5-11.1 3.8q-1.5 0.5-3.1 1l-0.2 0.1c-2.3 0.7-4.5 1.3-6.6 1.9l-0.4 0.1-0.4 0.1c-1.6 0.5-3.2 0.9-5 1.4q-3.3 0.8-6.8 1.6l-0.8 0.2q-1.6 0.3-3.1 0.7h-0.1-0.1q-2 0.4-4.1 0.8l-0.6 0.2-0.9 0.1c-1.1 0.2-2.3 0.5-3.5 0.6l-0.2 0.1h-0.2q-2.3 0.4-4.7 0.8c-1.9 0.3-3.6 0.5-5.4 0.7-0.7 0.1-1.3 0.2-1.8 0.3l-1.1 0.1c-2.4 0.3-4.5 0.5-6.7 0.7h-0.1-0.1c-3.1 0.3-5.7 0.5-8.1 0.6-2.1 0.2-4.1 0.3-6 0.3h-0.2l-1 0.1q-0.3 0-0.7 0h-0.4-0.5c-2.5 0.1-5.2 0.2-7.6 0.2-50.3 0-99.2-14.5-141.4-41.7v-0.1h-0.1c-1.9-1.2-4-2.6-6.3-4.2l-0.4-0.3h-0.1v-0.1l-0.4-0.2q-2.7-1.8-5.3-3.8l-0.2-0.1-0.2-0.2q-0.3-0.2-0.5-0.4l-0.3-0.2-0.3-0.2c-1-0.7-2.2-1.6-3.3-2.5l-0.2-0.2-0.3-0.1c-1.1-0.9-2.1-1.7-3-2.4l-0.2-0.2-0.2-0.2c-1.4-1-2.8-2.2-4.4-3.6h-0.1l-0.1-0.1q-2.4-2-4.9-4.1l-0.8-0.7c-1.7-1.6-3.3-3.1-4.9-4.5v-0.1h-0.1q-2-1.9-3.9-3.8l-0.1-0.1-0.1-0.1q-0.6-0.5-1.1-1v-0.1l-0.2-0.1c-0.9-0.9-1.8-1.8-2.5-2.6l-0.4-0.3q-1.9-2-3.5-3.7l-0.7-0.8-0.2-0.1q-1.9-2-3.7-4.1l-0.2-0.2-0.2-0.2c-0.6-0.6-1.1-1.3-1.8-2.1l-0.1-0.1-0.1-0.2c-2.1-2.4-4.8-5.5-7.3-8.7q-0.6-0.7-1.2-1.5c-0.7-0.9-1.4-1.8-2.1-2.8l-0.5-0.6-0.6-0.7q-1.2-1.7-2.4-3.4c-1.3-1.7-3-4-4.5-6.3-1.2-1.8-2.5-3.6-3.7-5.5-2-3-3.4-5.3-4.7-7.5-0.8-1.5-1.7-2.9-2.6-4.4v-0.1q-0.5-0.9-1.1-1.8c-0.8-1.6-1.6-3-2.4-4.5-2.3-4.2-4.2-8.1-6-11.8l-0.1-0.3-0.1-0.2c-0.4-0.9-0.9-1.8-1.3-2.9l-0.1-0.1v-0.1l-0.5-1.1q-0.4-0.9-0.9-1.9v-0.1l-0.1-0.2q-0.5-1-0.9-2l-0.1-0.3-0.2-0.4c-1.5-3.6-2.9-7.1-4.1-10.4l-0.1-0.2q-1-2.7-2-5.3c-1.6-4.7-3.1-9.5-4.4-14.1l-0.4-1.3c-0.3-1.3-0.7-2.4-0.9-3.5-0.1-0.4-0.2-0.9-0.4-1.5q-0.8-2.8-1.4-5.7l-0.2-0.6c-0.5-2.1-1-4.3-1.4-6.3-2.1-11.9-3.4-20.7-3.5-21.6l-0.2-1.4c-0.3-2.8-0.5-5.4-0.7-7.9-0.2-2-0.4-4.1-0.4-6.1l-0.1-0.3v-0.3q-0.1-1.6-0.2-3.1v-1.3-0.2-0.2c-0.1-1.5-0.2-3.2-0.2-5v-1.6-0.6q0-0.3 0-0.5v-0.6-0.6q-0.1-0.9-0.1-1.7 0-0.8 0.1-1.6v-0.5c0.3-50.3 15.1-99.1 42.6-141.1 15.8-24.1 35.5-45.3 58.6-63.2 6.4-5 13.2-9.8 20.3-14.3 7.2-4.5 14.6-8.7 21.9-12.3l1.3-0.7q1.5-0.7 3-1.4c15.7-7 24.8-10.6 30.3-11.9h0.1l0.1-0.1c6.3-1.6 12.6-3 18.8-4.1 10.1-1.1 22-1.7 35.6-1.7 11.3 0 23.7 0.4 37 1.2 10.4 1.4 21.6 3.4 33.5 5.9 113.5 24 253.1 87.6 326.2 123.4 26.4 13 44.6 39.2 47.3 68.4 5.1 54.1 5.4 112.9 5.4 113.4l0.2 49.5 31.9-37.7c109.2-129 154.7-224.9 143-301.9-6.8-44.9-33.6-82.5-79.5-111.7-3.9-2.5-7.9-4.9-11.9-7.2-8.1-26.7-19.5-61.3-34-102.8-12.7-36.7-23.7-66.8-27.1-76.2v-1.2l-2-3.9-2.3-4.6-0.1-0.1-0.1-0.2c-34.6-65.2-77.5-122.5-127.6-170.3-41.8-39.9-77.7-62.7-95.4-72.8l-0.4-0.2-0.3-0.2c-1.9-0.9-3.8-1.9-5.7-2.9q-4.1-2.1-8.2-4.2c-81.3-41.1-173.9-76.2-275.2-104.6-77-21.5-171.2-32.9-272.5-32.9-39.3 0-79.6 1.7-119.8 5.1-164.7 14-321.3 54.4-453 117-73.1 34.8-137.5 76.2-191.5 122.9-58.7 50.9-105.4 108.6-138.8 171.4l-53.5 100.6 82.2-78.9c2.4-2.4 61.6-58.8 158.4-115.2 88.2-51.4 226.1-112.6 382.2-112.6 61.7 0 122.5 9.5 181.2 28.3-47.8 35-138.3 109.8-164.9 190.7l-18.6 56.7 46.7-36.3 0.2-0.1q0.9-0.7 2.6-1.8c0.8-0.6 56.9-40.2 151.8-60.9-60.8 25.7-139.5 67.4-223.1 133.8-10.2 8-19.5 15.7-28.2 23.1 0.3-16.9 1.7-38.4 5.6-61.7 8.1-49.1 29.4-117.1 84.3-161.7l48.1-39.1-61.5 6.8c-3.3 0.4-81.2 9.5-175.8 65.1-55.3 32.6-105 74.5-147.7 124.5-53.2 62.3-95.5 137.4-125.8 223.4-34.3 97.2-44.9 200.3-31.6 306.2 10.6 84.7 36.4 171.4 76.8 257.8 67.5 144.5 153.1 240 162.6 250.4l78.4 85.5-48.3-105.3-0.1-0.1-0.1-0.3c-2-4.4-20.8-45.3-36.4-110-14.5-60.3-29.5-155.4-18-265.8q1-9.5 2.3-19c8.2 34.5 19.9 76.3 36.1 122.2 0 0 2.6 7.4 5.5 15 1.5 4 3 8.2 4.8 12.6 51 130.4 129.7 237.7 233.8 319.2 129.1 101 297.1 161.7 499.6 180.3 75.5 4.8 157.4-33.6 159.8-34.7-2.5 0.3-83.8 10.6-153.9-1.1-133.8-32.6-243.1-78-326.3-135.4q12.6 5.6 26.2 11.1c110.1 44.7 222.4 67.4 333.5 67.4 200.9 0 388.7-74.5 557.9-221.4 84.5-69.4 96.2-129.2 96.2-129.2 0 0-43.3 51.4-118 100.2q-0.2 0.1-0.8 0.5-0.4 0.3-0.8 0.5c-19.4 12.3-189.6 116.9-373.8 134.2q-2.2 0.2-4.4 0.4c94.6-22.4 182.7-62.2 263.1-119 114.3-80.7 191.7-181.7 236.5-252.1 50.2-79.1 71.7-137.5 71.9-138.1l39.4-110.7z"/>
						</g>
						<g id="Layer">
							<path id="Layer" class="s1" d="m1807.9 1404.5q-0.6 1.1-1.1 2.1 0.5-1.1 0.9-2.2z"/>
						</g>
						<g id="Layer">
							<path id="Layer" class="s1" d="m2051.4 1230.7c-8.4-45.8-38.5-85.9-80.8-106.6-63.2-31-168-78.8-268.3-108.9q-12.1-3.5-24.3-6.8c35-7.7 88.8-18.1 149.9-25.5 62.4-7.6 106.4-11.3 132.3-13.2 36.6 15 68.7 30.7 87.1 45.5 7 5.6 11.6 9.3 14.7 11.7q0 0.1 0.1 0.1c2.6 2.1 4.1 3.2 4.8 3.8 0.4 0.3 0.7 0.5 0.8 0.5q-0.1 0-0.1-0.1c26.2 20.9 32.1 40.7 34.3 54.5 5.4 36-11.5 84.6-50.5 145z"/>
						</g>
						<g id="Layer">
							<path id="Layer" class="s1" d="m1798.3 826.9c0 0-0.9 0.8-2.6 2.2-14.6 12.1-87.3 67.9-145.2 29.7-64.6-42.6-34-126.6-34-126.6l60.9 8.4c0 0-11.8 54.9 16.9 69.4 28.7 14.5 63-7.1 63-7.1l21.9 12.8z"/>
						</g>
						<g id="Layer">
							<path id="Layer" class="s1" d="m1952.6 809.8c-2.5 0.7-5 1.3-7.6 1.8q-2.9 0.6-5.9 1c-6.1 0.8-12.5 1.2-19.1 1.2-1.9 0-3.7 0-5.6-0.1-1.3 0-2.7 0-4-0.1-1-0.1-2-0.2-3.1-0.2q-2.1-0.2-4.2-0.4c-1.2-0.1-2.4-0.2-3.6-0.4-1-0.1-2.1-0.2-3.1-0.3-0.5-0.1-0.9-0.1-1.4-0.2q-1.9-0.3-3.9-0.6c-1.3-0.2-2.7-0.4-4.1-0.7-1-0.1-2-0.3-3-0.5-9.8-1.8-19.8-4.3-30-7.4-4.2-1.3-8.4-2.7-12.6-4.2-8.5-3-17-6.4-25.3-10.3q-6.4-2.8-12.6-6c-2.1-1.1-4.1-2.2-6.2-3.3q-3.1-1.6-6.1-3.4c-2.1-1.2-4.1-2.3-6.1-3.5-2.8-1.7-5.6-3.4-8.4-5.2-2.2-1.4-4.4-2.8-6.6-4.3-2-1.4-4.1-2.8-6.2-4.3-0.5-0.3-1-0.7-1.5-1-2.2-1.7-4.4-3.3-6.6-4.9-3.7-2.9-7.3-5.8-10.9-8.9q-4-3.4-7.9-6.9c-1.3-1.2-2.6-2.4-3.8-3.6-1.3-1.2-2.5-2.4-3.7-3.6q-3.4-3.6-6.8-7.1-1.7-1.8-3.5-3.5c-1.1-1.1-2.3-2.2-3.4-3.4l-0.2-0.1q-1.6-1.5-3.1-3c-3.2-3-6.4-5.9-9.7-8.8q-4.3-3.8-8.8-7.4-2.2-1.9-4.4-3.7-2.3-1.8-4.5-3.5-2.2-1.8-4.5-3.5c-2.3-1.8-4.7-3.5-7.1-5.3q-2.7-2-5.4-3.9c-1.4-0.9-2.8-1.9-4.1-2.8q-6.2-4.2-12.4-8.2c-3.7-2.4-7.5-4.8-11.3-7q-8.5-5.2-17.1-9.9-5.7-3.2-11.4-6.2c-3.8-1.9-7.6-3.8-11.4-5.7q-3-1.5-6-2.9c-16.1-7.7-31.9-14.4-47.1-20.1q-2.9-1.1-5.7-2.1-2.8-1.1-5.6-2.1-2.8-1-5.5-1.9h-0.1q-2.7-1-5.4-1.9c-5.4-1.8-10.7-3.6-15.8-5.2-9.7-3-18.9-5.6-27.3-7.9q-2.8-0.7-5.5-1.4-2.7-0.7-5.2-1.3-3.9-1-7.5-1.8-0.1-0.1-0.2-0.1-2.3-0.5-4.5-1-0.8-0.2-1.6-0.4-5.7-1.3-10.6-2.3-1.4-0.3-2.8-0.6c-0.9-0.2-1.8-0.4-2.7-0.5-0.8-0.2-1.7-0.3-2.5-0.5-0.8-0.2-1.5-0.3-2.3-0.4-0.1-0.1-0.1-0.1-0.1-0.1q-0.9-0.2-1.7-0.3-3.4-0.6-5.9-1c-1.3-0.3-2.3-0.4-3.2-0.6-0.3 0-0.5-0.1-0.7-0.1q-0.3 0-0.6-0.1-1.4-0.2-1.9-0.2-0.1-0.1-0.2-0.1h-0.1c0.1 0.1 0.2 0.1 0.3 0.2q0.1 0 0.2 0.1c0.1 0 0.1 0.1 0.2 0.1 5.5 3 38.7 21.4 74.5 45.1 0 0.1 0 0.1 0.1 0.1q0.1 0.1 0.1 0.1c32.5 21.6 66.9 47.5 84.6 70.4v0.1c-0.2 0.2-1.3 1-2.9 2.5q-0.6 0.4-1.2 1-0.7 0.6-1.4 1.3-1.1 1-2.3 2.2-0.5 0.5-0.9 0.9l-1.1 1q-0.4 0.6-1 1.1-0.5 0.6-1.1 1.1-0.4 0.5-0.8 1c-0.8 0.8-1.7 1.8-2.6 2.8q-0.5 0.6-1.1 1.3-0.6 0.7-1.2 1.4c-0.4 0.5-0.8 1-1.2 1.5q-0.8 0.9-1.5 1.9-0.8 1-1.6 2c-1 1.4-2 2.7-3 4.2q-1.2 1.7-2.4 3.6-1.6 2.4-3.1 5c-3.6 6.1-6.8 12.8-9.2 20.1-5.2 15.6-6.8 33.7-0.4 53.3q0.8 2.4 1.6 4.7 0.3 0.8 0.7 1.6c0 0-8.5 1.2-22.2 4.8q-1.2 0.3-2.5 0.6c-4.2 1.2-8.8 2.5-13.8 4.1q-2.9 1-6.1 2-3.1 1.1-6.4 2.3c-0.9 0.4-1.9 0.7-2.8 1.1-0.2 0.1-0.4 0.1-0.6 0.2q-1.7 0.7-3.4 1.3-3.4 1.4-6.8 2.8-1.7 0.8-3.5 1.5c-0.2 0.1-0.3 0.2-0.4 0.2q-2.2 1-4.4 2c-0.6 0.3-1.2 0.5-1.7 0.8q-0.7 0.3-1.2 0.5c-3.1 1.5-6.2 3-9.3 4.7q-1.1 0.5-2.2 1-0.2 0.2-0.5 0.3 0 0.1 0 0.1-2.4 1.2-4.8 2.6-3.7 2-7.5 4.2-0.1 0.1-0.1 0.1-3.8 2.3-7.6 4.7c-1 0.6-2.1 1.3-3.1 2-2.1 1.4-4.2 2.8-6.2 4.2q-2.9 2-5.7 4.1-0.3 0.2-0.6 0.4c-0.3 0.3-0.7 0.5-1 0.8-2.8 2.1-5.5 4.3-8.3 6.5q-3 2.5-6 5.1-1.1 1-2.2 2c-1.2 1.1-2.5 2.3-3.8 3.4q-3 2.9-6 5.9c-0.7 0.7-1.4 1.3-2 2-0.9 1-1.8 1.8-2.6 2.8q-1.8 1.9-3.5 3.8c-1.3 1.4-2.6 2.9-3.9 4.4q-2.8 3.4-5.7 6.9-0.9 1.2-1.8 2.4-1.4 1.8-2.7 3.7-1.4 1.8-2.7 3.7-1.8 2.6-3.5 5.1-0.8 1.4-1.7 2.7-0.8 1.3-1.7 2.7-0.8 1.3-1.6 2.6-0.8 1.4-1.6 2.8c-0.5 0.9-1.1 1.8-1.6 2.8q-0.9 1.5-1.7 3-1.2 2.3-2.4 4.6c-4.1 8.1-7.9 16.7-11.2 25.8q-1.2 3.2-2.3 6.5c-5.9 17.7-10 37.1-12.1 58.5 0 0 31.5-41.9 80.3-70.9 18.6-11.1 39.7-20.3 62.6-24.6 18-3.3 37.2-3.6 57 0.8q0.5 0.1 0.9 0.1 2.2 0.5 4.3 1.1l2.4 0.6q2.4 0.7 4.6 1.4 2.7 0.8 5.4 1.8 1 0.4 2 0.7c2.1 0.8 4.1 1.6 6.2 2.4 6.1 2.6 12.3 5.6 18.5 9.2q3.2 1.8 6.3 3.7c7.1 4 14.4 8.7 20.4 12.9 5.9 4.2 10.7 7.7 12.8 9.3-3.5-0.7-14.7-1.4-48.5-1.2-56.3 0.5-104.4 17-105.9 17.5q0 0-0.1 0l-0.1 0.1h-0.2l-1.6 0.6c-21.1 8-41.8 18.4-61 30.7l-13.6 9.2c-30.6 23.3-84.6 81.6-109.6 137.7-15.9 38.1-24.3 79.1-24.7 120.9 0 1.3 0 2.3 0 3.2q0 1 0 2.5v2.6q0 1.1 0.1 2.7c0 1.9 0.1 3.9 0.2 6.1v0.5q0.1 2.2 0.3 5c0.1 2.8 0.3 5.4 0.5 7.7q0 0 0.1 0.7c0 0.1 0 0.3 0 0.4q0 0.3 0 0.5c0.1 0.5 0.1 0.9 0.2 1.5q0.1 0.5 0.1 1.1c0 0.2 0 0.4 0.1 0.6q0 0.6 0.1 1.2 0.1 1.1 0.3 2.5 0.1 0.9 0.2 1.9 0.2 1.9 0.5 4.1 0 0.3 0.1 0.6v0.1c0.4 2.6 0.8 5.6 1.2 8.7q0.6 4 1.4 8.3c2.1 12.3 5.2 26.9 9.5 41.6 3.2 10.9 6.9 20.4 10.5 28.5-9.2 45.6-12.7 108.4 10 176.3q1.8 5.1 3.7 10.3 1.4 3.9 3 7.7 0.5 1.4 1.1 2.7 2.1 5.2 4.4 10.4c1 2.2 2.1 4.4 3.1 6.6q1.6 3.2 3.2 6.5 1.4 2.6 2.7 5.2v0.1q1.4 2.6 2.9 5.2 0.7 1.4 1.4 2.7 2.2 3.9 4.6 7.9 2.7 4.6 5.7 9.3 2.9 4.6 6 9.2c21.6 31.8 50.3 63.7 88.2 94.4 4.6 3.7 9.3 7.5 14.2 11.2q3.7 2.7 7.5 5.5c3.1 2.3 6.3 4.6 9.6 6.9 9.7 6.9 20 13.7 30.7 20.4h0.1c-81.9-19.6-149-47.4-203.8-80.4h-0.1q0 0-1.4-0.9c-0.2-0.1-0.4-0.2-0.5-0.3l-0.6-0.3q-12.7-7.7-24.5-15.8c-0.8-0.6-1.8-1.2-2.6-1.8q-1.5-1.1-3-2.1-1-0.7-2-1.5c-1.4-0.9-2.8-1.9-4.1-2.9q-4.1-2.9-8.1-5.9-1.9-1.5-3.8-3-1.5-1.1-2.9-2.2-2-1.6-4-3.1-0.4-0.4-0.9-0.8-1.9-1.4-3.8-3-0.7-0.6-1.4-1.2-1.2-0.9-2.3-1.9-0.2-0.1-0.5-0.3l-0.4-0.4q-1.1-0.9-2.2-1.8c-0.6-0.5-1.2-1-1.8-1.5-0.2-0.2-0.4-0.4-0.6-0.6q-1-0.9-2.1-1.8-0.1-0.1-0.2-0.2-0.9-0.8-1.8-1.6-1.9-1.6-3.7-3.2-0.1-0.1-0.1-0.2-0.1 0-0.2-0.1-1.3-1.1-2.6-2.3c-0.8-0.7-1.6-1.5-2.4-2.2-1.7-1.6-3.3-3.1-4.9-4.6q-1.9-1.7-3.7-3.5c-0.7-0.7-1.4-1.3-2.1-2l-2-2c-1.3-1.2-2.5-2.5-3.8-3.8q-0.4-0.3-0.7-0.7c-1.2-1.2-2.3-2.4-3.5-3.6q-0.6-0.7-1.3-1.3c-0.5-0.6-1.1-1.2-1.6-1.8l-1-1q-0.8-0.8-1.6-1.7-0.2-0.2-0.3-0.3-0.9-1-1.9-2.1-1.9-2-3.7-4.1-1.2-1.2-2.2-2.4c-0.5-0.6-1-1.2-1.5-1.7-0.5-0.6-1-1.2-1.5-1.8-0.2-0.2-0.4-0.4-0.6-0.6q-1.2-1.4-2.4-2.8c-0.1-0.2-0.2-0.3-0.4-0.5q-1-1.2-2-2.3-0.4-0.5-0.7-0.9-0.4-0.5-0.8-0.9-0.3-0.4-0.6-0.9-0.4-0.3-0.6-0.7-0.3-0.3-0.6-0.7c-0.3-0.3-0.5-0.6-0.7-0.9q-1.2-1.3-2.3-2.8-0.4-0.4-0.8-0.9c-0.3-0.4-0.5-0.7-0.8-1.1q-0.9-1.1-1.8-2.2-0.2-0.2-0.3-0.5-0.2-0.2-0.4-0.5-0.5-0.5-0.9-1.1-0.3-0.4-0.6-0.8c-0.1-0.1-0.2-0.3-0.3-0.4q-0.7-0.9-1.5-1.9c-0.3-0.4-0.6-0.8-1-1.3q-0.2-0.4-0.5-0.8-0.7-0.8-1.3-1.7-0.4-0.4-0.7-0.9-0.5-0.6-0.9-1.2-0.1-0.1-0.2-0.3c-0.1-0.2-0.2-0.3-0.3-0.4q-0.7-1-1.5-2-1.5-2.1-2.9-4.2c-0.4-0.4-0.7-0.8-1-1.3q-0.1-0.2-0.3-0.4c-0.7-1-1.4-2-2-2.9-0.1-0.1-0.1-0.2-0.2-0.3q-0.2-0.3-0.5-0.6-0.4-0.6-0.7-1.2-0.7-0.9-1.3-1.8-0.6-0.9-1.2-1.8c-0.6-0.8-1.1-1.8-1.7-2.6q-0.2-0.3-0.4-0.6-0.3-0.5-0.6-1-0.9-1.3-1.7-2.6-0.6-0.8-1.1-1.6c-0.1-0.2-0.2-0.3-0.3-0.5q-0.8-1.2-1.5-2.5c-0.3-0.4-0.6-0.9-0.8-1.3q-0.8-1.3-1.6-2.5c-0.1-0.1-0.2-0.3-0.3-0.4q-0.4-0.7-0.8-1.3v-0.1q-0.9-1.4-1.7-2.9c-0.7-1.1-1.3-2.2-2-3.2-0.3-0.7-0.7-1.3-1-1.9-0.2-0.1-0.2-0.3-0.3-0.5q-0.9-1.5-1.7-3c-0.1 0-0.2-0.1-0.2-0.2q-0.9-1.6-1.8-3.2-1.5-2.7-3-5.5-0.2-0.4-0.5-0.9c-0.6-1.1-1.1-2.1-1.7-3.2q-0.2-0.5-0.6-1.1-0.8-1.6-1.6-3.2-0.1-0.2-0.2-0.3-0.2-0.4-0.4-0.8-0.6-1.1-1.2-2.3-0.3-0.7-0.7-1.4c-1.1-2.2-2.1-4.3-3.1-6.5q-0.6-1.2-1.2-2.4c-0.2-0.5-0.5-1-0.7-1.5q-0.6-1.4-1.3-2.7c-4.6-10-8.8-20-12.6-29.9-0.4-1.1-0.8-2.2-1.2-3.2q-0.4-1-0.8-1.9-1.1-3.2-2.3-6.4c-0.7-1.9-1.3-3.8-2-5.7q-0.7-2.2-1.4-4.3c-44-131.9-22.6-248.3-22.3-249.9q0 0.1-0.1 0.3-0.3 0.4-0.7 1-0.1 0.3-0.3 0.6-0.2 0.4-0.5 0.8-0.4 0.7-0.9 1.4-0.2 0.5-0.5 1-0.2 0.3-0.4 0.6-0.6 1.1-1.4 2.5 0 0-0.1 0-0.6 1.1-1.4 2.4-0.2 0.4-0.5 0.9-0.3 0.6-0.7 1.2-0.9 1.7-2 3.5c-0.4 0.6-0.7 1.3-1.1 1.9q0 0.1 0 0.1-1.1 2-2.3 4.1-1.2 2.1-2.4 4.4-0.9 1.6-1.8 3.2-1.3 2.5-2.7 5-2.8 5.3-5.8 11.1-0.8 1.5-1.5 3-2.4 4.6-4.8 9.5-4.9 9.8-10.1 20.9c0 0.1 0 0.1-0.1 0.1q-1.2 2.7-2.5 5.5c-0.5 1-1 2.1-1.5 3.2q-1.9 4.1-3.8 8.3-0.6 1.5-1.3 3.1c-2.2 4.9-4.4 10-6.7 15.3v0.1c-0.2 0.5-0.5 1.1-0.7 1.7q-0.3 0.7-0.6 1.5-0.3 0.7-0.7 1.5-0.3 0.8-0.6 1.7c-0.1 0-0.1 0.1-0.2 0.2q-0.7 2-1.6 3.9-1 2.5-2 5.1c-0.9 2.1-1.7 4.3-2.6 6.5q-0.6 1.6-1.3 3.3-1.6 4.1-3.2 8.3-0.3 0.9-0.7 1.8c-0.6 1.7-1.3 3.4-1.9 5.1q-0.9 2.6-1.9 5.2-3.7 10.3-7.3 20.9c-4.5 13.4-8.7 27.3-12.7 41.5q-1.2 4.3-2.4 8.6v0.1q-1.1 4.2-2.2 8.6c-1.5 5.8-2.9 11.7-4.3 17.6v0.1c-1.3 5.9-2.6 11.9-3.8 17.9q-0.5 2.3-0.9 4.6c-0.9 4.5-1.8 9.1-2.6 13.6v0.1c-7.2 41.4-10.7 84.8-8 128.2 0 0.2 0 0.5 0 0.7q0.2 2.8 0.4 5.6 0.6 8.3 1.5 16.6 0.2 1.2 0.3 2.5 0.3 2.4 0.6 5 1 7.5 2.3 15c0.5 3.3 1.1 6.7 1.8 10 0.6 3.4 1.3 6.7 2 10 0.7 3.5 1.5 6.9 2.4 10.3 0.2 0.9 0.4 1.8 0.7 2.6q1.1 4.7 2.4 9.3 3.5 12.3 7.8 24.4 2 5.8 4.3 11.5v0.1q1.7 4.2 3.5 8.5 1.4 3.2 2.8 6.4 1.5 3.2 2.9 6.4c1 2.1 2.1 4.2 3.1 6.3q1.6 3.2 3.2 6.3c-8.5-1.8-17.6-4.2-27-7.3-9.3-3.1-18.9-6.9-28.4-11.6-18.4-9.2-36.7-21.6-52.9-38.7-58-60.9-94.7-154.4-103.2-177.4-1.2-3.4-1.9-5.2-1.9-5.2 0 0-26.9-71.9-51.8-192.9q-0.4-2.5-1-4.9v-0.2-0.1c0.3-3.2 0.7-6.4 1.1-9.5q0.1-0.9 0.2-1.8 0.4-3.9 0.9-7.8c0.3-1.7 0.5-3.3 0.7-5q0.2-1.7 0.5-3.4 1.4-10 3.2-19.8 0.2-1.4 0.5-2.7 2.5-13.6 5.6-26.7c3.4-14.6 7.3-28.9 11.7-42.8q0.5-1.7 1.1-3.4c2.1-6.4 4.2-12.7 6.5-19q0.6-1.6 1.2-3.3 0.6-1.7 1.3-3.4c0.8-2.3 1.7-4.5 2.6-6.7v-0.1q1.3-3.3 2.6-6.6c0.9-2.2 1.8-4.4 2.8-6.6q1.3-3.3 2.7-6.6 3-6.8 6.2-13.6 1-2.3 2.1-4.6 2.2-4.4 4.3-8.9 1.2-2.2 2.3-4.4 1.1-2.2 2.2-4.4 3.1-5.9 6.2-11.6c1.6-2.9 3.1-5.7 4.7-8.6q3.7-6.4 7.5-12.7 1.2-2.1 2.5-4.1 1.2-2.1 2.5-4.2 1.3-2.1 2.6-4.1 2.6-4.1 5.2-8.1l2.7-4.1q1.3-2 2.7-4 3.6-5.3 7.3-10.6c2.4-3.5 4.9-6.9 7.5-10.4q2.8-3.8 5.7-7.6 2.9-3.8 5.8-7.6 4.4-5.6 8.9-11.1 1.5-1.9 3-3.7c2.1-2.4 4.1-4.9 6.1-7.3 2.1-2.4 4.1-4.8 6.2-7.1q5.8-6.7 11.7-13.1 5.9-6.4 12-12.7 4.8-5.1 9.7-10c16.4-16.3 33.3-31.8 50.7-46.4q5.2-4.4 10.4-8.7 5.3-4.3 10.6-8.5 5.3-4.1 10.6-8.2 5.3-4.1 10.6-8.1 8.5-6.3 17.1-12.4 4.4-3.1 8.8-6.2c47.1-32.7 95-59.8 139.9-81.9q6.9-3.4 13.7-6.7c117.2-56.1 210.8-78 210.8-78q-7.3-4.5-14.5-8.6c-3.2-1.8-6.3-3.6-9.5-5.3q-2.3-1.3-4.7-2.5-4.7-2.5-9.3-4.9-2.4-1.1-4.7-2.3c-3-1.5-6.1-3-9.1-4.4-4.5-2.1-9-4.2-13.5-6.1-2.9-1.3-5.8-2.5-8.8-3.8-1.4-0.6-2.9-1.2-4.3-1.7q-4.3-1.8-8.5-3.4-2.2-0.8-4.3-1.6-2.3-0.9-4.7-1.7-4.6-1.6-9.1-3.2-4.5-1.5-8.9-2.9-2.9-0.9-5.8-1.7c-2.5-0.8-5.1-1.6-7.5-2.3q-2-0.5-3.8-1-3.8-1-7.5-2-5.5-1.4-10.7-2.5c-4.7-1.1-9.2-2-13.6-2.9q-5-0.9-9.7-1.7-3.1-0.5-6.1-0.9c-20.2-3.1-36.4-3.8-47.9-3.8q-5.2 0-9 0.1-0.8 0.1-1.6 0.1-0.4 0-0.8 0.1-0.7 0-1.4 0-1.3 0.1-2.4 0.2-0.5 0-1 0.1-0.2 0-0.4 0c-0.3 0.1-0.6 0.1-0.8 0.1q-1.5 0.2-1.5 0.2c8.3-7.3 16.5-14.2 24.3-20.7 2-1.6 3.9-3.2 5.8-4.8q1-0.9 2.1-1.8 2.1-1.7 4.1-3.4c0.7-0.5 1.4-1.1 2.1-1.7q4-3.3 7.8-6.4 1.9-1.5 3.7-3 4.6-3.7 8.7-7c1-0.9 2.1-1.7 3.1-2.5q0.8-0.7 1.5-1.2c3-2.4 5.8-4.6 8.2-6.6q0 0 0 0 0.4-0.3 0.8-0.6 1.2-0.9 2.3-1.8 1.4-1.1 2.6-2.1c2.2-1.7 3.9-3.1 5.1-4q0.6-0.5 1.1-0.8 0 0 0.1 0 0.1-0.1 0.1-0.2 0.1 0 0.1 0 0-0.1 0.1-0.1 0.2-0.2 0.2-0.2-2-1.5-3.9-3-1.1-0.7-2.1-1.4-1.7-1.2-3.4-2.4-1.4-0.9-2.7-1.9c-2.8-1.8-5.6-3.6-8.4-5.3-3.1-2-6.3-3.9-9.5-5.8l-3.3-1.9c-1.2-0.8-2.6-1.5-3.9-2.3q-1.9-1.1-3.9-2.1-4-2.2-8-4.2-2.7-1.4-5.4-2.7-5.3-2.7-10.8-5.2-2.7-1.3-5.4-2.5-10.9-4.8-22-9.1c-97.4-37.4-197.2-40.7-199.6-40.8 13.7-8.1 28.4-15.6 43.8-22.4q3.3-1.5 6.7-2.8 3.4-1.5 6.8-2.8 1.7-0.7 3.4-1.4 6.8-2.7 13.8-5.2 5.3-2 10.6-3.8 3.6-1.2 7.2-2.4 5.4-1.7 10.9-3.4 3.6-1.1 7.3-2.2 3.7-1.1 7.4-2.2 8.3-2.3 16.8-4.5 2.9-0.8 5.7-1.4 5.7-1.4 11.4-2.8 8.6-2 17.3-3.9 2.9-0.6 5.8-1.2c2.7-0.6 5.5-1.1 8.2-1.6q1.7-0.4 3.4-0.7c1.6-0.3 3.2-0.6 4.8-0.9 1.4-0.3 2.7-0.6 4.1-0.8q2-0.4 4-0.7 4.5-0.8 9-1.6 1.1-0.2 2.2-0.4c2-0.3 3.9-0.6 5.9-1q0.8-0.1 1.7-0.2 8.2-1.4 16.4-2.6c2.6-0.3 5.1-0.7 7.7-1.1q2.8-0.4 5.6-0.7 3.7-0.5 7.3-1 6.9-0.9 13.7-1.7c76.9 1.4 209.1 8.1 311.4 35.9 96 27.1 183.5 60.4 260.1 99.1l0.1 0.1c2.4 1.2 4.9 2.5 7.5 3.8 1.7 0.9 3.4 1.8 5.1 2.7 27.2 15.5 113.9 72.1 185.6 195 5 15.6 9.1 29.4 12.3 41.2z"/>
						</g>
					</g>
				</g>
			</g>
		</g>
		<g id="Livello-1">
		</g>
	</g>
</svg>