<svg width="306" height="62" viewBox="0 0 306 62" fill="none" xmlns="http://www.w3.org/2000/svg">
<path d="M50.4552 47.3523L34.2677 49.1118L39.1943 58.5749L57.7457 61.3442C57.7457 61.3442 54.6704 55.446 50.4628 47.3523" fill="white"/>
<path d="M5.07679 51.0472C1.05287 49.938 2.80473 47.031 2.80473 47.031C3.66919 45.0955 15.0677 25.3584 16.6284 21.9847C17.2939 20.5389 19.0917 20.1105 19.9714 21.7705C20.9736 23.6677 28.3406 37.805 32.1732 45.1567L48.2383 43.4201C39.808 27.248 28.5624 5.66721 26.7647 2.27824C24.8904 -1.25608 21.0577 -0.345724 19.6272 2.73724C16.2994 9.94358 3.10308 40.3831 1.25178 44.5218C0.678022 45.807 -3.1011 52.8603 6.10955 53.9313L36.6638 58.5137L32.135 49.8309C21.5473 50.8866 9.33787 52.2253 5.08444 51.0549" fill="white"/>
<path d="M302.795 0.0449219C301.02 0.0449219 299.589 1.47548 299.589 3.25029C299.589 5.0251 301.02 6.45565 302.795 6.45565C304.569 6.45565 306 5.0251 306 3.25029C306 1.47548 304.569 0.0449219 302.795 0.0449219ZM302.795 6.0502C301.272 6.0502 300.033 4.81855 300.033 3.25794C300.033 1.69733 301.265 0.465674 302.795 0.465674C304.325 0.465674 305.549 1.69733 305.549 3.25794C305.549 4.81855 304.317 6.0502 302.795 6.0502Z" fill="white"/>
<path d="M304.139 2.43079C304.139 1.77288 303.78 1.41333 302.953 1.41333H301.538V5.093H301.951V3.46354H302.732L303.81 5.093H304.3L303.221 3.46354C303.718 3.37939 304.139 3.08869 304.139 2.43844M301.951 3.08869V1.80348H302.862C303.305 1.80348 303.726 1.94118 303.726 2.44609C303.726 2.95099 303.344 3.09634 302.862 3.09634H301.951V3.08869Z" fill="white"/>
<path d="M84.4238 18.1365C80.836 17.2108 76.4907 16.6294 72.7881 16.6294C63.4704 16.6294 58.9568 22.1298 58.9568 31.1568V35.6168C58.9568 44.6438 63.4704 50.1442 72.7881 50.1442C76.4907 50.1442 80.836 49.5628 84.4238 48.6372C85.7549 48.2929 85.9844 47.941 85.9844 47.0765V19.6971C85.9844 18.8326 85.7549 18.4807 84.4238 18.1365ZM78.3497 43.4963C77.2481 43.7258 74.8766 43.9018 72.7881 43.9018C67.8079 43.9018 66.5916 40.3675 66.5916 35.6244V31.1645C66.5916 26.4214 67.8079 22.8871 72.7881 22.8871C74.8766 22.8871 77.2481 23.0631 78.3497 23.2926V43.4963Z" fill="white"/>
<path d="M99.7679 49.9979H94.3822C93.7473 49.9979 93.2194 49.4165 93.2194 48.7815V7.10413C93.2194 6.46918 93.7396 5.94897 94.3822 5.94897H99.7679C100.403 5.94897 100.869 6.46918 100.869 7.10413V48.7815C100.869 49.4165 100.403 49.9979 99.7679 49.9979Z" fill="white"/>
<path d="M121.305 16.9434C117.602 16.9434 113.257 17.5248 109.669 18.4504C108.338 18.7947 108.108 19.1466 108.108 20.011V60.3038C108.108 60.9387 108.629 61.4589 109.263 61.4589H114.588C115.223 61.4589 115.743 60.9387 115.743 60.3038V50.0527C117.885 50.3434 119.912 50.4582 121.305 50.4582C130.622 50.4582 135.136 44.9578 135.136 35.9308V31.4708C135.136 22.4437 130.622 16.9434 121.305 16.9434ZM127.501 35.9308C127.501 40.6814 126.285 44.2081 121.305 44.2081C119.912 44.2081 117.365 44.0321 115.743 43.8026V23.5989C116.845 23.3694 119.216 23.1934 121.305 23.1934C126.285 23.1934 127.501 26.7278 127.501 31.4708V35.9308Z" fill="white"/>
<path d="M147.582 49.9989H142.257C141.622 49.9989 141.102 49.4175 141.102 48.7826V18.5114C141.102 17.8764 141.622 17.3562 142.257 17.3562H147.582C148.217 17.3562 148.737 17.8764 148.737 18.5114V48.7902C148.737 49.4252 148.217 50.0066 147.582 50.0066" fill="white"/>
<path d="M147.757 13.0114H142.142C141.507 13.0114 140.926 12.4912 140.926 11.8563V6.76136C140.926 6.1264 141.507 5.6062 142.142 5.6062H147.757C148.392 5.6062 148.912 6.1264 148.912 6.76136V11.8563C148.912 12.4912 148.392 13.0114 147.757 13.0114Z" fill="white"/>
<path d="M171.489 49.9989C170.096 50.2284 167.151 50.4655 164.718 50.4655C158.988 50.4655 155.569 48.4995 155.569 41.7827V12.6055C155.569 11.9705 156.089 11.5651 156.724 11.4503L162.11 10.5247H162.286C162.806 10.5247 163.272 11.1061 163.272 11.6798V17.3561H171.435C172.07 17.3561 172.59 17.8763 172.59 18.5113V21.9232C172.59 22.5582 172.07 23.0784 171.435 23.0784H163.272V41.7751C163.272 44.093 164.313 44.4985 166.807 44.4985H171.381C172.131 44.4985 172.598 44.7892 172.598 45.3706V48.9585C172.598 49.5399 172.254 49.8841 171.496 49.9989" fill="white"/>
<path d="M190.537 23.3694C188.625 23.3694 186.253 23.4841 184.861 23.7748V48.7828C184.861 49.4178 184.402 49.9992 183.759 49.9992H178.374C177.739 49.9992 177.219 49.4178 177.219 48.7828V20.3629C177.219 19.6132 177.739 18.9706 178.779 18.6264C182.482 17.41 185.557 16.9434 190.53 16.9434C191.226 16.9434 192.213 17.0581 192.213 17.9302V22.329C192.213 22.9639 191.868 23.3694 190.53 23.3694" fill="white"/>
<path d="M209.701 16.9434C200.612 16.9434 195.862 23.0787 195.862 31.356V36.0455C195.862 44.3228 200.612 50.4582 209.701 50.4582C218.789 50.4582 223.532 44.3228 223.532 36.0455V31.356C223.532 23.0787 218.789 16.9434 209.701 16.9434ZM215.897 36.0455C215.897 40.7962 213.755 43.8562 209.701 43.8562C205.646 43.8562 203.504 40.7885 203.504 36.0455V31.356C203.504 26.613 205.646 23.5377 209.701 23.5377C213.755 23.5377 215.897 26.6054 215.897 31.356V36.0455Z" fill="white"/>
<path d="M254.851 49.9992H249.411C248.776 49.9992 248.31 49.4178 248.31 48.7828V28.755C248.31 25.9169 247.728 23.3158 244.37 23.3158H240.782C237.424 23.3158 236.842 25.9245 236.842 28.755V48.7828C236.842 49.4178 236.383 49.9992 235.741 49.9992H230.302C229.667 49.9992 229.2 49.4178 229.2 48.7828V28.755C229.2 21.7476 233.255 16.9434 240.775 16.9434H244.362C251.89 16.9434 255.937 21.7476 255.937 28.755V48.7828C255.937 49.4178 255.47 49.9992 254.835 49.9992" fill="white"/>
<path d="M269.264 49.9989H263.939C263.304 49.9989 262.784 49.4175 262.784 48.7826V18.5114C262.784 17.8764 263.304 17.3562 263.939 17.3562H269.264C269.899 17.3562 270.419 17.8764 270.419 18.5114V48.7902C270.419 49.4252 269.899 50.0066 269.264 50.0066" fill="white"/>
<path d="M269.441 13.0114H263.826C263.191 13.0114 262.609 12.4912 262.609 11.8563V6.76136C262.609 6.1264 263.191 5.6062 263.826 5.6062H269.441C270.076 5.6062 270.596 6.1264 270.596 6.76136V11.8563C270.596 12.4912 270.076 13.0114 269.441 13.0114Z" fill="white"/>
<path d="M297.049 49.7093C295.718 50.0535 293.117 50.459 289.582 50.459C282.055 50.459 276.378 45.8307 276.378 36.3906V31.0049C276.378 21.5724 282.055 16.9365 289.582 16.9365C293.109 16.9365 295.718 17.342 297.049 17.6862C298.036 17.9157 298.265 18.2676 298.265 19.1933V22.9571C298.265 23.5385 297.798 23.8216 297.225 23.8216H297.049C294.731 23.5309 293.346 23.4161 289.582 23.4161C286.859 23.4161 284.021 24.9767 284.021 30.9973V36.3829C284.021 42.4035 286.859 43.9641 289.582 43.9641C293.346 43.9641 294.731 43.8494 297.049 43.5587H297.225C297.806 43.5587 298.265 43.8494 298.265 44.4231V48.1869C298.265 49.1126 298.036 49.4645 297.049 49.694" fill="white"/>
</svg>
