<svg width="170" height="65" viewBox="0 0 170 65" fill="none" xmlns="http://www.w3.org/2000/svg">
<path d="M96.2193 64.574C96.2193 64.1553 96.2249 64.1534 98.1319 64.1063L100.044 64.0573L100.097 63.5047L100.15 62.9521H98.1714C96.2117 62.9521 96.1872 62.9484 95.6954 62.4543C95.2074 61.9658 95.198 61.9262 95.198 60.095C95.198 58.4694 95.2432 58.1771 95.5503 57.7849C95.8989 57.3417 95.9291 57.336 98.0885 57.336C101.083 57.336 100.979 57.1927 100.979 61.2662C100.979 65.3396 101.092 64.9926 98.228 64.9926H96.2193V64.5721V64.574ZM100.044 60.0592V58.2733L98.1432 58.2262L96.2419 58.179L96.1891 59.9857C96.159 60.9795 96.1703 61.8263 96.2117 61.8678C96.2532 61.9092 97.1332 61.9225 98.1677 61.896L100.046 61.8489V60.063L100.044 60.0592ZM74.8096 61.2926C73.711 58.0527 63.2116 26.7529 62.341 24.1202C61.8548 22.6493 61.4139 21.4423 61.3649 21.4404C61.3159 21.4385 59.0208 28.2314 56.264 36.5368L51.2555 51.6369L49.3429 51.669C48.2915 51.6879 47.4303 51.652 47.4303 51.5898C47.4303 51.5275 49.6463 44.8139 52.356 36.6707C55.0637 28.5275 57.7621 20.4089 58.35 18.6305L59.4184 15.3981H63.2982L71.1747 39.0469C75.5068 52.0537 79.0512 62.7541 79.0512 62.8239C79.0512 62.8937 78.224 62.9521 77.2121 62.9521H75.373L74.8096 61.2926ZM89.236 62.4543C88.7479 61.9658 88.7385 61.9262 88.7385 60.095C88.7385 58.4694 88.7837 58.1771 89.0909 57.7849C89.4395 57.3417 89.4715 57.336 91.6121 57.336C93.7527 57.336 93.8017 57.3587 94.1503 57.7302C94.4838 58.0866 94.5196 58.3072 94.5196 60.014C94.5196 61.0531 94.4725 62.0262 94.4141 62.1789C94.1993 62.7409 93.4154 62.9521 91.5405 62.9521C89.7711 62.9521 89.724 62.9427 89.2378 62.4543H89.236ZM93.5473 61.9451C93.6208 61.9375 93.6585 61.1078 93.6321 60.1026L93.5831 58.2733L91.6705 58.2243L89.7579 58.1752V61.9168L91.2447 61.9658C92.5467 62.0092 92.9745 62.0054 93.5454 61.9432L93.5473 61.9451ZM101.829 60.1441V57.336H106.903L107.26 57.7905C107.589 58.2092 107.612 58.4261 107.569 60.5552L107.521 62.8654H106.672L106.625 60.5213L106.577 58.1771L104.67 58.2243L102.764 58.2714L102.716 60.6099L102.669 62.9484H101.829V60.1403V60.1441ZM108.458 60.1441V57.336H109.308V62.9502H108.458V60.1422V60.1441ZM113.968 60.2912C113.416 58.8202 112.935 57.5472 112.901 57.4624C112.867 57.3775 113.052 57.3341 113.308 57.3643C113.734 57.4152 113.84 57.585 114.475 59.2351C114.859 60.2346 115.215 61.0927 115.268 61.1455C115.321 61.1983 115.747 60.3798 116.214 59.3294C117.024 57.5133 117.092 57.4171 117.61 57.3662C118.149 57.3134 118.164 57.3304 119.029 59.1955C119.51 60.2308 119.952 61.0776 120.013 61.0776C120.073 61.0776 120.429 60.2553 120.802 59.2483C121.416 57.5925 121.524 57.4133 121.938 57.3662C122.189 57.336 122.396 57.3398 122.396 57.3737C122.396 57.4077 121.946 58.658 121.394 60.1497C120.525 62.5033 120.342 62.8654 120.016 62.8842C119.736 62.8993 119.575 62.7485 119.383 62.2883C119.242 61.9489 118.829 61.0342 118.466 60.2516C118.102 59.4708 117.804 58.7617 117.804 58.6769C117.804 58.1733 117.439 58.79 116.604 60.6985C115.287 63.714 115.249 63.7084 113.964 60.2874L113.968 60.2912ZM123.717 62.6862C123.161 62.3807 123.041 61.9847 123.11 60.6702L123.163 59.6802L125.5 59.7066L127.836 59.733V58.1847H123.077V57.3341H125.6C128.914 57.3341 128.771 57.1927 128.771 60.4571V62.8635L126.476 62.9012C124.701 62.9314 124.075 62.8824 123.715 62.6843L123.717 62.6862ZM126.434 61.9432L127.836 61.9281V60.5665H123.926V61.2322C123.926 61.9149 124.075 62.0658 124.684 61.996C124.876 61.9734 125.664 61.9489 126.434 61.9413V61.9432ZM130.154 62.5976L129.706 62.2449V55.4634H130.131C130.533 55.4634 130.557 55.5143 130.557 56.3987V57.3341H131.748C132.903 57.3341 132.939 57.3455 132.939 57.7603C132.939 58.1752 132.905 58.1866 131.748 58.1866H130.557V61.93H132.937V62.9502H131.771C130.848 62.9502 130.51 62.8767 130.156 62.5976H130.154ZM134.055 62.575C133.612 62.1902 133.606 62.1544 133.599 59.8876C133.585 55.2257 133.561 55.4634 134.041 55.4634C134.443 55.4634 134.467 55.5143 134.467 56.3987V57.3341H135.658C136.813 57.3341 136.849 57.3455 136.849 57.7603C136.849 58.1752 136.815 58.1866 135.658 58.1866H134.467V61.9149L135.615 61.9658C136.712 62.0149 136.762 62.0356 136.762 62.4411C136.762 62.8465 136.712 62.8692 135.634 62.9163C134.658 62.9597 134.443 62.9125 134.057 62.5769L134.055 62.575ZM140.39 62.4392L139.879 61.9281L139.936 59.9894C140.017 57.2662 139.93 57.336 143.163 57.336H145.687V58.1866H140.927V61.93H145.687V62.9502H140.9L140.39 62.4392ZM147.271 62.7805C146.668 62.5372 146.538 62.0582 146.538 60.0932C146.538 58.4694 146.583 58.1771 146.891 57.7849C147.239 57.3417 147.269 57.336 149.429 57.336C151.588 57.336 151.618 57.3417 151.967 57.7849C152.274 58.1771 152.319 58.4694 152.319 60.095C152.319 61.9262 152.312 61.9658 151.822 62.4543C151.332 62.9446 151.298 62.9521 149.485 62.9408C148.473 62.9352 147.479 62.8635 147.273 62.7805H147.271ZM151.298 60.0536V58.1771L149.385 58.2262L147.473 58.2752L147.424 59.8782C147.398 60.7608 147.413 61.583 147.462 61.7075C147.526 61.8753 148.023 61.9338 149.423 61.9338H151.298V60.0573V60.0536ZM152.998 60.1441V57.336H155.521C158.835 57.336 158.692 57.1946 158.692 60.459V62.8654H157.842L157.795 60.5213L157.748 58.1771L155.841 58.2243L153.934 58.2714L153.887 60.6099L153.84 62.9484H153V60.1403L152.998 60.1441ZM160.085 62.6051L159.629 62.2449V55.4634H160.055C160.456 55.4634 160.48 55.5143 160.48 56.3987V57.3341H161.671C162.826 57.3341 162.862 57.3455 162.862 57.7603C162.862 58.1752 162.828 58.1866 161.671 58.1866H160.48V61.93H162.883L162.828 62.3977C162.776 62.8484 162.736 62.8673 161.658 62.9144C160.733 62.9559 160.465 62.9031 160.085 62.6051ZM163.931 62.541C163.49 62.162 163.454 62.0356 163.454 60.9116V59.6934L165.834 59.6632L168.214 59.633V58.2714L165.79 58.2243L163.367 58.1771V57.336H165.917C169.303 57.336 169.146 57.1852 169.146 60.4835V62.9502H166.776C164.515 62.9502 164.383 62.9314 163.929 62.5391L163.931 62.541ZM168.298 61.2492V60.5684H164.388V61.93H168.298V61.2492ZM108.458 55.8896C108.458 55.5501 108.543 55.4634 108.884 55.4634C109.225 55.4634 109.31 55.5482 109.31 55.8896C109.31 56.2309 109.225 56.3158 108.884 56.3158C108.543 56.3158 108.458 56.2309 108.458 55.8896ZM0 31.6449V15.1416H20.5693V18.8851H3.74038V29.7741H16.4897V33.5175H3.74038V44.4122L12.1558 44.3669L20.5712 44.3217V46.2358V48.15H0V31.6467V31.6449ZM32.2144 47.9727C29.2654 47.522 26.5313 45.8662 24.9466 43.573C24.2852 42.6168 23.637 40.7838 23.6332 39.854L23.6294 39.1317H27.3227L27.4339 39.9408C27.6562 41.5626 29.3408 43.258 31.3439 43.8766C32.7156 44.3009 35.316 44.482 36.7198 44.2538C38.2556 44.0029 40.1022 43.0562 40.9615 42.0775C43.0757 39.6749 42.0958 36.3388 38.8435 34.8678C38.4704 34.6981 37.5131 34.3699 36.718 34.1361C28.4118 31.6995 27.9144 31.4883 26.0301 29.593C24.2908 27.8429 23.5314 25.8722 23.6671 23.4658C23.7387 22.208 23.8461 21.7912 24.3926 20.6484C25.6174 18.0892 28.0915 16.2071 31.212 15.4622C32.5027 15.1548 33.0869 15.1133 35.2708 15.1775C37.4491 15.2416 38.0087 15.317 39.1129 15.6961C42.5141 16.8634 44.8526 19.1981 45.6365 22.2061C46.117 24.0561 46.181 23.9863 44.0348 23.9863H42.1731L42.0581 23.3489C41.7039 21.3971 39.9439 19.7865 37.4528 19.1378C35.5139 18.6324 31.8828 18.9058 30.3772 19.6696C28.0124 20.8709 26.8479 23.2527 27.6261 25.2933C27.986 26.2381 29.028 27.4224 29.9928 27.9863C30.3715 28.2088 32.7477 29.0141 35.2727 29.776C40.5921 31.3827 41.7717 31.9277 43.3621 33.5081C46.7576 36.88 46.6766 41.8908 43.1774 45.1345C41.898 46.3207 40.1889 47.2693 38.5024 47.7294C37.2946 48.0594 33.6955 48.1971 32.2125 47.9708L32.2144 47.9727ZM83.2118 47.9369C82.8726 46.9977 67.3194 0.192358 67.3194 0.10938C67.3194 0.0490325 68.1918 0 69.2565 0H71.1936L78.1166 20.7992C81.9248 32.2389 85.0942 41.7003 85.1621 41.8248C85.2337 41.9549 87.3177 35.9635 90.0764 27.7034C92.7107 19.811 95.0472 12.8201 95.2677 12.1638L95.669 10.972L97.6457 10.9248C98.733 10.8984 99.6224 10.9003 99.6224 10.9267C99.6224 10.9531 97.1727 18.2873 94.1767 27.2225C91.1825 36.1577 88.3805 44.5216 87.9527 45.8077L87.1745 48.1462H85.2337C83.8355 48.1462 83.2721 48.0858 83.2155 47.9331L83.2118 47.9369ZM103.529 31.6524V15.1435H107.271L107.227 31.6052L107.184 48.067L105.356 48.116L103.529 48.1651V31.6562V31.6524ZM113.502 48.0368C113.44 47.9746 113.389 40.548 113.389 31.5336V15.1435H117.441L118.273 16.6315C118.731 17.4499 121.083 21.5649 123.501 25.776C125.918 29.9872 128.876 35.1545 130.077 37.261L132.259 41.0893V28.1164V15.1435H135.999V48.15H131.969L126.644 38.8357C123.715 33.7118 120.395 27.9203 119.266 25.9627L117.214 22.4041L117.171 35.277L117.128 48.15H115.372C114.407 48.15 113.564 48.099 113.502 48.0368ZM154.358 47.8916C152.625 47.5861 151.436 47.2033 150.024 46.4942C145.604 44.2726 142.632 40.6216 141.338 35.8164C140.876 34.104 140.876 29.3837 141.338 27.5638C142.542 22.8209 145.547 19.0548 149.86 16.8842C155.391 14.1025 162.568 14.7135 167.364 18.3778C168.634 19.3471 169.714 20.4334 169.55 20.5767C169.471 20.6465 168.849 21.216 168.17 21.844L166.936 22.9849L166.16 22.2532C164.639 20.8219 162.734 19.7846 160.695 19.2754C158.92 18.8323 155.51 18.8794 153.772 19.3716C149.546 20.5673 146.514 23.5696 145.153 27.9071C144.616 29.6194 144.577 33.4949 145.082 35.2186C146.616 40.4669 150.94 43.952 156.416 44.3481C159.783 44.5913 163.688 43.3561 165.792 41.3797L166.26 40.9403V29.7741H170V42.481L169.182 43.3353C165.606 47.0694 159.811 48.8496 154.36 47.8897L154.358 47.8916Z" fill="white"/>
</svg>
