<svg width="350" height="183" viewBox="0 0 350 183" fill="none" xmlns="http://www.w3.org/2000/svg">
<path fill-rule="evenodd" clip-rule="evenodd" d="M183.591 41.3671C219.224 52.4242 335.859 91.5457 335.859 91.5457H338.88L174.574 5.16382L10.6792 91.5457H13.3808C13.3808 91.5457 130.335 52.9827 165.968 41.2987C171.337 39.4521 177.926 39.2583 183.591 41.3671Z" fill="white"/>
<path fill-rule="evenodd" clip-rule="evenodd" d="M166.196 141.758C131.201 129.447 13.4492 91.5 13.4492 91.5L10.6792 91.5228L174.894 177.905L338.88 91.5228H335.939C335.939 91.5228 218.472 129.447 183.477 141.758C177.299 143.742 172.42 143.685 166.208 141.758H166.196Z" fill="white"/>
<path fill-rule="evenodd" clip-rule="evenodd" d="M109.634 73.7859H90.1532V110.662C90.1532 110.662 103.547 110.719 109.634 110.662C116.975 110.605 122.435 108.416 125.832 104.187C128.967 100.311 129.605 95.6264 129.605 92.3777C129.605 89.3 128.648 74.0025 109.623 73.7859H109.634ZM118.343 92.3663C118.343 96.9943 114.809 100.494 110.124 100.494H101.951V84.2844H110.124C112.313 84.2844 114.479 85.1621 116.006 86.701C117.511 88.2057 118.343 90.2119 118.343 92.3663Z" fill="white"/>
<path fill-rule="evenodd" clip-rule="evenodd" d="M155.263 73.7974H142.052L126.469 110.685H139.088L140.923 106.49H156.574L158.272 110.685H171.655L155.252 73.7974H155.263ZM144.844 97.6213L148.663 87.9322L152.653 97.6213H144.844Z" fill="white"/>
<path fill-rule="evenodd" clip-rule="evenodd" d="M244.599 73.7974H231.376L215.782 110.685H228.412L230.259 106.49H245.91L247.608 110.685H261.002L244.599 73.7974ZM234.169 97.6213L237.976 87.9322L241.977 97.6213H234.169Z" fill="white"/>
<path fill-rule="evenodd" clip-rule="evenodd" d="M201.51 73.7974V93.6545L185.734 73.7974H172.955V110.685H185.426L185.392 91.3063C187.295 93.6545 201.191 110.685 201.191 110.685H214.026V73.7974H201.499H201.51Z" fill="white"/>
</svg>
