<svg version="1.2" xmlns="http://www.w3.org/2000/svg" viewBox="0 0 3602 750" width="3602" height="750"><style>.a{fill:none}.b{fill:#fff}</style><path fill-rule="evenodd" class="a" d="m-0.2-288h3602v1325h-3602z"/><path class="b" d="m1087.7 96.2v104.5h6.9v-104.5h38.9v-5.8h-84.5v5.8z"/><path fill-rule="evenodd" class="b" d="m1141 90.4h46.5c19.1 0 34.8 7.1 34.8 28.4 0 14.8-9 25.8-23.6 28.4v0.2c16.3 1.9 20.4 12.2 21.4 23.6 1.1 11.4-0.8 23.9 3.7 29.7h-7.5c-4.3-7.5-1.7-20.2-3-31-1.5-10.7-6.7-19.3-26-19.3h-39.4v50.3h-6.9zm46.3 54.2c16.1 0 28.1-7.6 28.1-25.4 0-16.8-13.3-23-28.1-23h-39.4v48.4z"/><path class="b" d="m1245.3 194.9v-48.6h63.4v-5.8h-63.4v-44.3h67.3v-5.8h-74.2v110.3h75v-5.8z"/><path class="b" d="m1325 200.7h6.7v-102.1h0.4l70.1 102.1h8.2v-110.3h-6.9v101.3h-0.2l-69.9-101.3h-8.4z"/><path class="b" d="m1419.2 99.2h38.5v101.5h10.5v-101.5h38.5v-8.8h-87.5z"/><path class="b" d="m1517.8 90.4h10.6v110.3h-10.6z"/><path class="b" d="m1552.2 200.7h13.8v-88.6h0.4l57.6 88.6h16.2v-110.3h-14v89.4h-0.2l-58.3-89.4h-15.5z"/><path fill-rule="evenodd" class="b" d="m1710.7 87.6c35 0 52.8 27.8 52.8 57.8 0 30.1-17.8 57.9-52.8 57.9-35.1 0-52.9-28-52.9-57.9 0-29.8 17.6-57.8 52.9-57.8zm0 103.2c26.8 0 38.2-23 38.2-45.4 0-22.1-11.4-45.3-38.2-45.3-26.9 0-38.3 23-38.3 45.3 0 22.4 11.2 45.6 38.3 45.4z"/><path class="b" d="m1774.3 163.9c0.4 27.3 20.8 39.4 46 39.4 21.9 0 43.8-9.9 43.8-34.6 0-11.4-6.8-23.9-21.5-28.2-5.8-1.7-30.1-8-31.8-8.6-7.9-2.1-13.1-6.4-13.1-14.2 0-11.2 11.4-14.4 20.2-14.4 13.3 0 22.8 5.4 23.9 19.6h19.3c0-23-19.3-35.3-42.3-35.3-20 0-40.4 10.3-40.4 32.5 0 11.4 5.6 22.8 24.5 27.9 15 4.1 25.1 6.3 32.9 9.1 4.5 1.7 9 5.1 9 13.5 0 8.4-6.2 16.8-23.4 16.8-15.5 0-28-6.7-28-23.7h-19.1z"/><path class="b" d="m1905.4 200.7h21.5l37.8-110.3h-19.8l-28.1 87.3h-0.4l-27.6-87.3h-20.2z"/><path class="b" d="m1974.6 90.4h24.3v110.3h-24.3z"/><path class="b" d="m2020.2 200.7h78v-20.4h-53.7v-89.9h-24.3z"/><path class="b" d="m2206.3 90.4h-28.8v66.4c0 14.2-5.1 21.5-19.3 21.5-14.2 0-19.4-7.3-19.4-21.5v-66.4h-28.8v64.7c0 32 14.6 48 48.2 48 33.3 0 48.1-16 48.1-48z"/><path fill-rule="evenodd" class="b" d="m2224.4 90.4h56.9c29.9 0 40.5 21.9 40.5 37.6 0 26.9-17.9 39.4-43.3 39.4h-20.2v33.3h-33.9zm33.9 50.7h13.2c8.8 0 18-0.6 18-11.8 0-10.1-7.7-10.8-16.1-10.8h-15.1z"/><path fill-rule="evenodd" class="b" d="m2332.9 90.4h57c29.9 0 40.4 21.9 40.4 37.6 0 26.9-17.8 39.4-43.2 39.4h-20v33.3h-34.2zm34.4 50.7h13.1c8.8 0 18.1-0.6 18.1-11.8 0-10.1-7.7-10.8-16.1-10.8h-15.1z"/><path fill-rule="evenodd" class="b" d="m2494.6 87.6c33.5 0 55.9 24.1 55.9 57.8 0 33.8-22.4 57.9-55.9 57.9-33.6 0-55.9-24.1-55.9-57.9 0-33.5 22.6-57.8 55.9-57.8zm0.2 88.2c8.6 0 21.9-5.8 21.9-30.4 0-24.5-13.3-30.3-21.9-30.3-8.6 0-21.9 5.8-21.9 30.3 0 24.8 13.1 30.4 21.9 30.4z"/><path class="b" d="m1054.4 236.6h5.8v42.5h-5.8z"/><path class="b" d="m1110.1 279.1h-5.8v-35.6l-11.8 35.6h-5.8l-12.1-35.4v35.4h-5.3v-42.5h8.1l12.3 36.1 12-36.1h8.4z"/><path fill-rule="evenodd" class="b" d="m1124.5 260.9v18.2h-5.6v-42.5h19.1c2.6 0 4.8 0.4 6.7 1.5 1.9 1.1 3.4 2.6 4.5 4.3 1.1 1.9 1.5 3.9 1.5 6 0 3.4-1.1 6.5-3 8.8-2.1 2.6-5.1 3.7-9.4 3.7zm0-19.4v14.9h11.3c5.8 0 8.6-2.6 8.6-7.8q0-7.1-8.3-7.1z"/><path fill-rule="evenodd" class="b" d="m1157.8 279.1v-42.5h20.2c3.7 0 6.9 1.1 9.5 3.2 2.6 2.2 3.8 5 3.8 8.6 0 4.5-1.9 8-5.8 9.9 2.4 0.6 3.9 2.1 4.6 4.3 0.4 2.1 0.8 4.9 0.8 8.6 0 1.1 0 2.1 0.2 3.2 0 1.1 0.5 2 0.7 2.6 0.4 0.6 0.8 1.1 1.5 1.3v0.8h-7.1c-0.4-1.5-0.9-4-0.9-7.7 0-3.6-0.4-6.2-1.3-7.9-0.8-1.8-2.8-2.6-6-2.6h-14.4v18.2zm20.4-23c2.4 0 4.3-0.6 5.4-1.9 1.3-1.3 1.9-3 2.2-5.1 0-2.2-0.5-3.9-1.5-5.2-1.1-1.5-3.1-2.2-5.4-2.2h-15.1v14.4z"/><path class="b" d="m1231.3 274.2v4.9h-31.1v-42.5h30.9v5.4h-25.4v12.9h23.5v5.1h-23.5v14.2z"/><path class="b" d="m1269.6 249.1h-5.4c-0.2-3.1-1.3-5.2-3.4-6.7-2.2-1.3-4.5-1.9-7.3-1.9-2.6 0-4.8 0.4-6.7 1.5-1.9 1-3 3-3 6 0 2.8 1.7 4.5 5.2 5.4 4.7 1 8.8 1.9 12 2.7 6.4 1.8 9.7 5.4 9.7 11.4 0 3.3-0.9 5.6-2.6 7.6-1.7 1.9-3.7 3.2-6.3 4-2.5 0.9-5.1 1.3-7.9 1.3-5.4 0-9.7-1.3-12.7-3.6-3-2.6-4.5-6.3-4.5-11.2h5.4c0 3.4 1 6 3.4 7.7 2.4 1.5 5.2 2.4 8.4 2.4 2.8 0 5.4-0.4 7.7-1.5 2.4-1.1 3.5-3 3.5-5.6 0-2.1-0.7-3.9-2-4.7-1.3-1.1-3.6-2-7.1-2.8-0.6-0.2-2.1-0.7-4.9-1.1-2.8-0.6-5.2-1.3-6.9-2.1-1.7-0.9-3.2-2-4.3-3.3-1.1-1.5-1.7-3.2-1.7-5.5 0-3.7 1.3-6.7 3.7-9.3 2.5-2.6 6.2-3.6 10.9-3.6 10.8-0.5 16.4 4 16.8 12.9z"/><path fill-rule="evenodd" class="b" d="m1273.9 279.1l15.9-42.5h6.7l15.2 42.5h-6.2l-4.1-12.4h-17.2l-4.5 12.4zm12.2-17.4h13.2l-6.3-18.9z"/><path class="b" d="m1337.3 236.6h5.8v42.5h-5.8z"/><path class="b" d="m1380.7 271.2v-34.6h5.4v42.5h-6.5l-21.7-34.1v34.1h-5.6v-42.5h6.9z"/><path class="b" d="m1422.8 271.2v-34.6h5.6v42.5h-6.4l-21.7-34.1v34.1h-5.6v-42.5h6.9z"/><path fill-rule="evenodd" class="b" d="m1476.1 257.9q0 5.1-1.9 10.3c-1.3 3.4-3.6 6.2-6.6 8.6-3.3 2.3-7.1 3.4-12.1 3.4-4.9 0-8.8-1.1-12-3.4-3.2-2.4-5.4-5.2-6.7-8.6q-1.9-5.2-1.9-10.3 0-5.2 1.9-10.4c1.3-3.4 3.7-6.2 6.7-8.6 3-2.3 7.1-3.4 12-3.4 5 0 9 1.1 12.1 3.4 3 2.4 5.3 5.2 6.6 8.6 1.3 3.7 1.9 6.9 1.9 10.4zm-5.8 0c0-3.5-0.6-6.5-1.7-9.1q-2-3.8-5.1-6c-2.4-1.5-5-2.1-8-2.1-3 0-5.6 0.6-7.7 2.1-2.4 1.5-4.1 3.5-5.2 6-1.3 2.6-1.7 5.6-1.7 9.1 0 5.1 1.3 9.2 4.1 12.4 2.6 3.3 6.2 4.8 10.7 4.8 4.5 0 8.2-1.5 10.8-4.8 2.6-3 3.8-7.3 3.8-12.4z"/><path class="b" d="m1497.9 272.9l11.8-36.3h6.4l-15.2 42.5h-6.3l-15.4-42.5h6.4z"/><path fill-rule="evenodd" class="b" d="m1513.6 279.1l15.9-42.5h6.6l15.3 42.5h-6.3l-4-12.4h-17.2l-4.5 12.4zm12-17.4h13.1l-6.2-18.9z"/><path class="b" d="m1553.1 279.1v-4.7l26-32.4h-24.1v-5.4h31.4v4.9l-26.2 32.7h26.2v4.9z"/><path class="b" d="m1592.7 236.6h5.8v42.5h-5.8z"/><path fill-rule="evenodd" class="b" d="m1647 257.9q0 5.1-1.9 10.3c-1.3 3.4-3.7 6.2-6.7 8.6-3.2 2.3-7.1 3.4-12 3.4-4.9 0-8.8-1.1-12-3.4-3.3-2.4-5.4-5.2-6.7-8.6q-1.9-5.2-1.9-10.3 0-5.2 1.9-10.4c1.3-3.4 3.7-6.2 6.7-8.6 3-2.3 7.1-3.4 12-3.4 4.9 0 9 1.1 12 3.4 3 2.4 5.4 5.2 6.7 8.6 1.3 3.7 1.9 6.9 1.9 10.4zm-6 0c0-3.5-0.6-6.5-1.7-9.1-1.3-2.5-3-4.5-5.2-6-2.3-1.5-4.9-2.1-7.9-2.1-3 0-5.6 0.6-7.8 2.1q-3.5 2.2-5.1 6c-1.3 2.6-1.7 5.6-1.7 9.1 0 5.1 1.3 9.2 4.1 12.4 2.5 3.3 6.2 4.8 10.7 4.8 4.5 0 8.2-1.5 10.7-4.8 2.6-3 3.9-7.3 3.9-12.4z"/><path class="b" d="m1681.4 271.2v-34.6h5.6v42.5h-6.4l-21.7-34.1v34.1h-5.6v-42.5h6.8z"/><path class="b" d="m1727.4 274.2v4.9h-31.1v-42.5h30.9v5.4h-25.4v12.9h23.3v5.1h-23.3v14.2z"/><path class="b" d="m1798.4 279.1h-5.6v-35.6l-12.1 35.6h-5.6l-12.2-35.4v35.4h-5.4v-42.5h8.2l12.2 36.1 12.3-36.1h8.2z"/><path fill-rule="evenodd" class="b" d="m1802.9 279.1l15.9-42.5h6.6l15.3 42.5h-6.2l-4.1-12.4h-17.2l-4.5 12.4zm12-17.4h13.1l-6.2-18.9z"/><path fill-rule="evenodd" class="b" d="m1846.3 279.1v-42.5h20.2c3.6 0 6.9 1.1 9.5 3.2 2.5 2.2 3.8 5 3.8 8.6 0 4.5-1.9 8-5.8 9.9 2.4 0.6 3.9 2.1 4.5 4.3 0.5 2.1 0.9 4.9 0.9 8.6 0 1.1 0 2.1 0.2 3.2 0 1.1 0.4 2 0.7 2.6 0.4 0.6 0.8 1.1 1.5 1.3v0.8h-7.1c-0.5-1.5-0.9-4-0.9-7.7 0-3.6-0.4-6.2-1.3-7.9-0.8-1.8-2.8-2.6-6-2.6h-14.4v18.2zm5.6-23h14.6c2.4 0 4.3-0.6 5.4-1.9q1.9-1.9 1.9-5.1c0-2.2-0.4-3.9-1.5-5.2-1.1-1.5-3-2.2-5.4-2.2h-15z"/><path class="b" d="m1893.6 264.3v14.8h-5.8v-42.5h5.8v20.8l20.6-20.8h7.8l-17.7 17.2 18.3 25.3h-7.5l-14.9-21.2z"/><path class="b" d="m1958.7 274.2v4.9h-31.2v-42.5h31v5.4h-25.4v12.9h23.5v5.1h-23.5v14.2z"/><path class="b" d="m1962.1 242v-5.4h34.7v5.4h-14.4v37.1h-5.9v-37.1z"/><path class="b" d="m2002.3 236.6h5.8v42.5h-5.8z"/><path class="b" d="m2045.8 271.2v-34.6h5.3v42.5h-6.4l-21.7-34.1v34.1h-5.6v-42.5h6.9z"/><path class="b" d="m2078.2 261.5v-5.1h18.5v22.7h-3.7l-1.5-5.3c-1.5 1.9-3.4 3.6-5.8 4.7-2.5 1.3-5.1 1.7-8.1 1.7-6.9 0-12.1-2.1-15.1-6.2-3.2-4.1-4.7-9.7-4.7-16.6 0-5.8 1.7-10.9 5.4-15.2 3.4-4.5 8.4-6.7 14.8-6.7 2.8 0 5.6 0.4 8.2 1.5 2.5 1.1 4.7 2.6 6.6 4.7q2.6 3.3 3.3 7.8h-5.4c-0.9-3.2-2.4-5.6-4.7-6.9-2.4-1.3-5-1.9-8-1.9q-3.9 0-7.1 1.9c-2.1 1.3-3.9 3.2-5.2 6-1.2 2.6-1.9 5.8-1.9 9.3 0 5.3 1.1 9.6 3.5 12.6 2.3 3.5 6 5.2 10.7 5.4 3.4-0.2 6.4-1.1 8.8-3 1.9-1.5 3-3 3.7-4.9 0.6-1.8 1-3.9 1-6.5z"/><path class="b" d="m2124.6 242v-5.4h34.7v5.4h-14.4v37.1h-5.9v-37.1z"/><path class="b" d="m2196 274.2v4.9h-31.4v-42.5h31v5.4h-25.2v12.9h23.2v5.1h-23.2v14.2z"/><path fill-rule="evenodd" class="b" d="m2203.7 279.1v-42.5h20.3c3.6 0 6.8 1.1 9.4 3.2 2.6 2.2 3.9 5 3.9 8.6 0 4.5-2 8-5.8 9.9 2.3 0.6 3.8 2.1 4.5 4.3 0.4 2.1 0.8 4.9 0.8 8.6 0 1.1 0 2.1 0.3 3.2 0 1.1 0.4 2 0.6 2.6 0.4 0.6 0.9 1.1 1.5 1.3v0.8h-7.1c-0.4-1.5-0.8-4-0.8-7.7 0-3.6-0.5-6.2-1.3-7.9-0.9-1.8-2.8-2.6-6-2.6h-14.4v18.2zm5.8-23h14.6c2.3 0 4.3-0.6 5.3-1.9q2-1.9 2-5.1c0-2.2-0.5-3.9-1.5-5.2-1.1-1.5-3-2.2-5.4-2.2h-15z"/><path fill-rule="evenodd" class="b" d="m2246.1 279.1v-42.5h20.2c3.7 0 6.9 1.1 9.5 3.2 2.5 2.2 3.8 5 3.8 8.6 0 4.5-1.9 8-5.8 9.9 2.4 0.6 3.9 2.1 4.5 4.3 0.5 2.1 0.9 4.9 0.9 8.6 0 1.1 0 2.1 0.2 3.2 0 1.1 0.4 2 0.7 2.6 0.4 0.6 0.8 1.1 1.5 1.3v0.8h-7.1c-0.5-1.5-0.9-4-0.9-7.7 0-3.6-0.4-6.2-1.3-7.9-0.8-1.8-2.8-2.6-6-2.6h-14.4v18.2zm5.8-23h14.6c2.4 0 4.3-0.6 5.4-1.9q1.9-1.9 1.9-5.1c0-2.2-0.4-3.9-1.5-5.2-1.1-1.5-3-2.2-5.4-2.2h-15z"/><path class="b" d="m2288.7 236.6h5.8v42.5h-5.8z"/><path class="b" d="m2300 242v-5.4h34.4v5.4h-14.4v37.1h-5.8v-37.1z"/><path fill-rule="evenodd" class="b" d="m2377.4 257.9q0 5.1-1.9 10.3c-1.3 3.4-3.7 6.2-6.7 8.6-3.2 2.3-7.1 3.4-12 3.4-5 0-8.8-1.1-12-3.4-3.3-2.4-5.4-5.2-6.7-8.6q-1.9-5.2-1.9-10.3 0-5.2 1.9-10.4c1.3-3.4 3.6-6.2 6.7-8.6 3-2.3 7-3.4 12-3.4 4.9 0 9 1.1 12 3.4 3 2.4 5.4 5.2 6.7 8.6 1.3 3.7 1.9 6.9 1.9 10.4zm-5.8 0c0-3.5-0.6-6.5-1.7-9.1-1.1-2.5-3-4.5-5.2-6-2.3-1.5-4.9-2.1-7.9-2.1-3 0-5.6 0.6-7.7 2.1-2.4 1.5-4.1 3.5-5.2 6-1.3 2.6-1.7 5.6-1.7 9.1 0 5.1 1.3 9.2 4.1 12.4 2.5 3.3 6.2 4.8 10.7 4.8 4.5 0 8.2-1.5 10.8-4.8 2.5-3 3.8-7.3 3.8-12.4z"/><path fill-rule="evenodd" class="b" d="m2384.5 279.1v-42.5h20.2c3.7 0 6.9 1.1 9.5 3.2 2.6 2.2 3.8 5 3.8 8.6 0 4.5-1.9 8-5.8 9.9 2.4 0.6 3.9 2.1 4.6 4.3 0.4 2.1 0.8 4.9 0.8 8.6 0 1.1 0 2.1 0.2 3.2 0 1.1 0.5 2 0.7 2.6 0.4 0.6 0.8 1.1 1.5 1.3v0.8h-7.1c-0.4-1.5-0.9-4-0.9-7.7 0-3.6-0.4-6.2-1.3-7.9-0.8-1.8-2.8-2.6-6-2.6h-14.4v18.2zm20.2-23c2.4 0 4.3-0.6 5.4-1.9 1.3-1.3 1.9-3 2.1-5.1 0-2.2-0.4-3.9-1.5-5.2-1-1.5-3-2.2-5.3-2.2h-15.1v14.4z"/><path class="b" d="m2426.9 236.6h5.8v42.5h-5.8z"/><path fill-rule="evenodd" class="b" d="m2438.3 279.1l15.9-42.5h6.6l15.3 42.5h-6.2l-4.1-12.4h-17.2l-4.5 12.4zm12-17.4h13.1l-6.2-18.9z"/><path class="b" d="m2486.6 236.6v37.6h21.7v4.9h-27.3v-42.5z"/><path class="b" d="m2545.3 274.2v4.9h-31.2v-42.5h31v5.4h-25.4v12.9h23.2v5.1h-23.2v14.2z"/><path class="b" d="m1913.1 484.1c-0.2-6.8-2.5-26.3-20.8-24.7-21.7 1.9-41.9 22-48.5 29.2q-0.2 0-0.5-0.1l0.5 0.2h5.3 0.1c4.2-3.6 20.3-16.7 37-21 17.9-4.5 17.8 13.2 17.7 16.2l0.1 0.1z"/><path class="b" d="m1677.5 632.4h-10.8l2.6-9.7h10.8zm-7.8 29h-10.7l6.4-24.2h10.8z"/><path fill-rule="evenodd" class="b" d="m1712.7 661.4h-10.7l7.7-29h-26.8l2.6-9.7h26.8c3.4 0 5.8 0.5 7.2 1.4 1.2 0.8 1.8 2 1.9 3.6q0 1.4-0.9 4.7zm-26.9 0h-10.7l6.5-24.2h10.7z"/><path class="b" d="m1758.3 651.7q-0.9 3.3-1.6 4.7c-0.9 1.6-2.1 2.8-3.8 3.5q-2.9 1.5-7.9 1.5h-26.9l6.5-24.4h10.8l-4 14.7h16.2l5.1-19.3h-26.8l2.6-9.7h26.8c3.4 0 5.8 0.5 7.2 1.4 1.2 0.8 1.8 2 1.9 3.6q0 1.4-0.9 4.7z"/><path class="b" d="m1801.3 651.7q-0.9 3.3-1.6 4.7c-0.9 1.6-2.1 2.8-3.8 3.5q-2.9 1.5-7.9 1.5h-16.2q-5 0-7.2-1.4-1.7-1.2-1.8-3.6 0-1.4 0.9-4.7l3.9-14.5h10.7l-3.9 14.5h16.2l5.1-19.3h-26.8q0.8-3.3 1.6-4.7c0.8-1.6 2.1-2.8 3.7-3.6 2-0.9 4.7-1.4 8-1.4h16.1c3.4 0 5.8 0.5 7.2 1.4 1.2 0.8 1.8 2 1.9 3.6q0 1.4-0.9 4.7z"/><path class="b" d="m1844.3 651.7q-0.9 3.3-1.6 4.7c-0.9 1.6-2.1 2.8-3.8 3.5q-2.9 1.5-7.9 1.5h-16.2q-5 0-7.2-1.4-1.7-1.2-1.8-3.6 0-1.4 0.9-4.7l3.9-14.5h10.7l-3.9 14.5h16.2l5.1-19.3h-26.8q0.8-3.3 1.6-4.7c0.8-1.6 2.1-2.8 3.7-3.6 2-0.9 4.7-1.4 8-1.4h16.1c3.4 0 5.8 0.5 7.2 1.4 1.2 0.8 1.8 2 1.9 3.6q0 1.4-0.9 4.7z"/><path class="b" d="m1891.2 637.2c-0.6 2.2-1.1 3.7-1.5 4.6q-1.2 2.5-3.1 3.6-2.3 1.5-6.1 1.5c-0.6 0.1-1.1 0.2-1.4 0.3-1 0.4-1.6 1.1-1.9 2.1-0.3 1 0 1.7 0.8 2.1 0.2 0.1 0.7 0.2 1.2 0.3h8.1l-2.6 9.7h-10.7q-5 0-7.2-1.4c-1.2-0.8-1.8-2-1.9-3.6q0-1.4 0.9-4.7l0.6-2.4c0.1-0.5 0.1-1 0-1.2-0.2-0.8-0.9-1.2-2-1.2q-1.7 0-2.7 1.2c-0.2 0.2-0.4 0.7-0.6 1.2l-3.3 12.1h-10.7l6.5-24.2h24.1q1-0.2 1.5-0.3c1-0.4 1.6-1.1 1.9-2.1 0.3-1 0-1.7-0.8-2.1-0.2-0.1-0.7-0.2-1.3-0.3h-24.1l2.6-9.7h26.8c3.7 0 6.1 1 7.6 3q1.7 2.6 0.6 6.7z"/><path class="b" d="m1781.6 440.9c0 0-8.3 12.1-8.3 17.2 0 0-85.2 4.5-137.5 26.2 0 0 46.5-33.9 145.8-43.4z"/><path class="b" d="m1546.6 520.1c101.8-49.5 232.2-54.8 232.2-54.8 7.5-31 37.2-43 61.3-37.8 24.2 5.1 15.8 31.8 15.8 31.8l-35.3-2.6c0 0 1-8.6 2.8-13.8 1.9-5.1 26.9-0.8 26.9-0.8-8.6-18.1-38-8.6-47.3 0-9.3 8.6-9.9 24.9-9.9 24.9l57.2 0.9-11.1 12.9c-125-6.5-228.1 21-281.4 39.3z"/><path class="b" d="m1582.4 520.1c48.9-16.1 112.9-29.1 195-32.6 24.4-1 47.2-1 68.6-0.2v0.1h5.3 0.1q0 0-0.1 0.1c80.6 3.5 139.9 18.4 179.1 32.6h-8.2l-5.5 20.6q-0.2-0.1-0.3-0.1c0.2-4.5-0.7-8.3-2.5-11.5v-0.1c-3.4-5.6-9.4-8.9-18.7-8.9h-55.2c-44.2-8.3-98.4-13.5-162.6-13.5-53.1 0-99.9 5.4-140.3 13.5zm467.4 0c-29.6-13.8-79.4-29-161.9-37.1 0 0 6.7-0.4 18.2-0.3h0.1l9.2 0.2c37.5 1 121.2 11.6 178.3 37.2zm53.9 4.7c8.6 4.4 16.3 9.1 23 14.2 51.3 39.4 24.1 82.9-15.8 100.7-46.4 20.7-118 19.6-118 19.6 0 0 78.7-14.4 94.2-52.3 4.8-12-1.9-26.3-20.3-40.3l4.2-15.8h25.8z"/><path class="b" d="m1517.1 607.5h-20.6l8.3-30.9h-30.9l-8.3 30.9h-20.6l13.8-51.5h51.5l2.8-10.3h-51.5q1.8-6.9 3.3-9.9c1.8-3.4 4.2-5.9 7.4-7.6 3.8-2 9-3.1 15.4-3.1h30.9c6.5 0 10.9 1.1 13.7 3 2.2 1.8 3.3 4.2 3.3 7.7 0 2-0.7 5.3-1.9 9.9z"/><path class="b" d="m1616.1 545.7h-72.1l5.5-20.6h72.1zm-28.9 30.9h-30.9l-8.3 30.9h-20.6l13.8-51.5h51.5z"/><path class="b" d="m1698.5 545.7h-72.1l5.5-20.6h72.1zm-28.9 30.9h-30.9l-8.2 30.9h-20.7l13.8-51.5h51.6z"/><path class="b" d="m1729.4 545.7h-20.6l5.5-20.6h20.6zm-16.5 61.8h-20.6l13.8-51.5h20.6z"/><path fill-rule="evenodd" class="b" d="m1828.9 607.5h-25.7l-16.8-33.4-9 33.4h-20.6l13.8-51.5h20.6l34.1-30.9h25.7l-44.5 41.2zm-34.9-61.8h-20.6l5.5-20.6h20.6z"/><path class="b" d="m1911.3 607.5h-20.6l8.3-30.9h-30.9l-8.3 30.9h-20.6l13.8-51.5h51.5l2.8-10.3h-51.5c1.2-4.6 2.3-7.9 3.4-9.9 1.7-3.4 4.1-5.9 7.4-7.6 3.7-2 8.9-3.1 15.3-3.1h30.9c6.5 0 11 1.1 13.8 3 2.2 1.8 3.3 4.2 3.2 7.7 0 2-0.6 5.3-1.9 9.9z"/><path class="b" d="m2007.6 556c-1.3 4.7-2.3 8-3.2 9.9-1.5 3.4-3.6 6-6.1 7.7q-4.5 3-11.7 3c-1.2 0.2-2.2 0.5-2.8 0.7-2 0.9-3.2 2.3-3.7 4.5-0.6 2.2-0.2 3.6 1.3 4.5 0.5 0.2 1.4 0.4 2.4 0.6h15.5l-5.5 20.6h-20.6c-6.4 0-11-1-13.8-2.9-2.2-1.8-3.3-4.3-3.3-7.8 0.1-1.9 0.7-5.2 2-9.9l1.4-5.1c0.1-1.1 0.1-2.1 0-2.6-0.4-1.7-1.7-2.6-3.8-2.6-2.2 0-3.8 0.9-5.2 2.6-0.4 0.5-0.8 1.5-1.3 2.6l-6.9 25.7h-20.6l13.8-51.5h46.3c1.2-0.2 2.2-0.4 2.7-0.6 2-0.9 3.3-2.3 3.8-4.5 0.6-2.2 0.2-3.6-1.3-4.5-0.5-0.2-1.4-0.5-2.4-0.7h-46.4l5.5-20.6h51.5c7 0 11.7 2.2 14.3 6.4q3.1 5.6 0.8 14.2z"/><path class="b" d="m2092.7 545.7h-25.7l-16.6 61.8h-20.6l16.5-61.8h-25.7l5.5-20.6h72.2z"/><path class="b" d="m1615.9 642.3h-10.4v9.8h10.4z"/><path class="b" d="m1595.1 642.3h-10.4v9.8h10.4z"/><path class="b" d="m1635.8 642.3h-10.4v9.8h10.4z"/><path class="b" d="m1570.5 642.3h-10.4v9.8h10.4z"/><path class="b" d="m1534.7 652.1h-10.3l-5.1-9.8h10.2z"/><path class="b" d="m1493.8 651.2l-7.1 1.7-2.6-9.4 7-1.9z"/><path class="b" d="m1626 632.6h-10.3v9.8h10.3z"/><path class="b" d="m1605.4 632.6h-10.3v9.8h10.3z"/><path class="b" d="m1646.1 632.6h-10.3v9.8h10.3z"/><path class="b" d="m1584.7 632.6h-10.3v9.8h10.3z"/><path class="b" d="m1554.4 642.4h-10.3l-2.6-9.8h10.3z"/><path class="b" d="m1510.6 645.2l-10.3-2.8v-9.8l10.3 2.8z"/><path class="b" d="m1465.4 642.4h-4.6l3.1-9.8h4.6z"/><path class="b" d="m1919.7 632.6h10.3v9.8h-10.3z"/><path class="b" d="m1940.2 627.2h10.3v9.8h-10.3z"/><path class="b" d="m1960.9 632.6h10.3v9.8h-10.3z"/><path class="b" d="m1981.7 632.6h10.3v9.8h-10.3z"/><path class="b" d="m1909.6 642.3h10.3v9.8h-10.3z"/><path class="b" d="m1930 642.3h10.4v9.8h-10.4z"/><path class="b" d="m1950.7 642.3h10.3v9.8h-10.3z"/><path class="b" d="m1971.4 642.3h10.3v9.8h-10.3z"/></svg>