<svg version="1.2" xmlns="http://www.w3.org/2000/svg" viewBox="0 0 3603 750" width="3603" height="750"><style>.a{fill:none}.b{fill:#fff}.c{fill:none;stroke:#fff;stroke-miterlimit:22.926;stroke-width:2.1}.d{fill:#fff;stroke:#fff;stroke-miterlimit:22.926;stroke-width:.4}</style><path fill-rule="evenodd" class="a" d="m-0.2-288h3602v1325h-3602z"/><path fill-rule="evenodd" class="b" d="m1243.5 472.9h-14.3v-0.8c2.5-0.2 3.7-0.8 3.7-2 0-0.7-0.4-1.8-1.1-3.3l-2.2-4.6h-14l-2.5 5.1c-0.6 1.2-0.9 2.1-0.9 2.8 0 1.1 1.4 1.8 4.2 2v0.8h-11.5v-0.8c1.4-0.3 2.4-0.6 3.1-1.1 0.7-0.4 1.7-1.9 2.9-4.5l12.8-26.5h0.9l12.7 26.8c0.9 1.9 1.7 3.2 2.5 3.9 0.8 0.8 2 1.3 3.7 1.4zm-14.6-12.6l-6.2-13-6.3 13z"/><path fill-rule="evenodd" class="b" d="m1420.9 472.9h-14.3v-0.8c2.5-0.2 3.7-0.8 3.7-2 0-0.7-0.3-1.8-1.1-3.3l-2.1-4.6h-14.1l-2.5 5.1c-0.6 1.2-0.9 2.1-0.9 2.8 0 1.1 1.4 1.8 4.3 2v0.8h-11.5v-0.8c1.4-0.3 2.4-0.6 3.1-1.1 0.6-0.4 1.6-1.9 2.9-4.5l12.8-26.5h0.9l12.6 26.8c0.9 1.9 1.8 3.2 2.6 3.9 0.7 0.8 2 1.3 3.6 1.4zm-14.6-12.6l-6.1-13-6.3 13z"/><path class="b" d="m1267.6 466.5l-2.2 6.4h-19.6v-0.7h0.9q1.3 0 2-0.7c0.5-0.4 0.7-1.4 0.7-3.1v-16.8q0-2.6-0.6-3.2-0.7-0.6-2.1-0.6h-0.9v-0.7h19.6l0.2 5.7h-0.7c-0.3-1.8-0.8-2.9-1.4-3.5q-1-0.8-3.5-0.7h-7v10.1h5.6c1.3 0 2.3-0.2 2.9-0.6 0.7-0.4 1-1.5 1.1-3.1h0.7v9h-0.7c-0.2-1.7-0.6-2.9-1.3-3.3-0.7-0.3-1.6-0.6-2.7-0.6h-5.6v8.5q0 1.9 0.4 2.4 0.4 0.5 1.7 0.5h4.3q2.7 0 4.2-0.9c1-0.5 2.1-1.9 3.2-4.1z"/><path fill-rule="evenodd" class="b" d="m1295.4 472.9h-7.2l-9-12h-2.7v7.5c0 1.7 0.2 2.8 0.7 3.2q0.7 0.6 2 0.6h1.1v0.7h-11.5v-0.7h1.1c1.1 0 1.8-0.3 2.2-0.8 0.4-0.5 0.6-1.6 0.6-3v-16.7q0-2.6-0.8-3.2c-0.4-0.4-1.1-0.7-2-0.7h-1.1v-0.7h9.7c2.5 0 4.4 0.2 5.8 0.5 1.4 0.3 2.7 1 3.8 2.1 1.1 1.2 1.5 2.5 1.5 4.1 0 3.4-2.1 5.6-6.5 6.6l5.5 7.4c1.4 1.8 2.6 3 3.5 3.5q1.5 0.8 3.3 0.9zm-18.9-24v10.7h1.1c2.3 0 4.2-0.4 5.6-1.4q2.1-1.5 2.1-4.2c0-1.9-0.7-3.2-1.8-4.1-1.2-0.9-2.5-1.4-4-1.4q-1.8 0-3 0.4z"/><path class="b" d="m1326.3 447.8h-1.1c-1.3 0-2.1 0.3-2.5 0.9-0.4 0.5-0.6 1.4-0.6 2.9v21.8h-0.9l-19.7-20.8v15.9q0 2.5 0.8 3.1c0.5 0.4 1.3 0.6 2.3 0.6h1.1v0.7h-10.5v-0.7h1.1q1.4 0.1 2.3-0.6c0.6-0.4 0.9-1.4 0.9-3.1v-18c-1-1-1.9-1.7-2.8-2.1q-1.4-0.6-3.1-0.6v-0.7h8.2l18.3 19.4v-14.9q0-2.5-0.8-3.2c-0.6-0.4-1.4-0.6-2.5-0.6h-1v-0.7h10.5z"/><path fill-rule="evenodd" class="b" d="m1358.3 459.7c0 3.9-1.4 7-4.3 9.7-2.8 2.7-6.4 4-10.8 4-2.9 0-5.5-0.6-7.7-1.8q-3.4-1.7-5.3-4.8c-1.2-2-1.9-4.4-1.9-7 0-3.9 1.4-7.1 4.5-9.7 2.9-2.5 6.6-3.7 10.8-3.7 2.8 0 5.3 0.6 7.5 1.7 2.2 1.2 3.9 2.8 5.2 4.8 1.4 2 2 4.3 2 6.8zm-5.1 0.5c0-8.3-3.4-12.5-10.1-12.5q-2.7 0-4.8 1.3c-1.5 0.8-2.6 2.1-3.5 3.9-0.9 1.8-1.3 4-1.3 6.8 0 3.7 0.8 6.7 2.6 8.9q2.5 3.4 7.1 3.4 4.9 0 7.4-3.1c1.7-2.2 2.6-5.1 2.6-8.7z"/><path class="b" d="m1389.8 447.3q-3 0.2-4.7 3.7l-10.7 21.9h-0.8l-11.5-22.2c-0.6-1.3-1.3-2.1-1.8-2.6-0.6-0.5-1.7-0.7-3.1-0.8v-0.8h12.5v0.8q-3.3 0.2-3.3 1.7 0 1 1 2.9l7.8 15.2 7.2-14.9q1.1-2.2 1.1-3.1c0-0.4-0.1-0.8-0.5-1-0.3-0.3-1.3-0.5-2.7-0.8v-0.8h9.5z"/><path class="b" d="m1223.4 427.8c0 4.3 2.5 6.7 5.9 6.7 3.3 0 5.8-2.4 5.8-6.7v-43.6h14.2c3.7 0 5.3-3.1 5.3-6 0-3-2-6-5.3-6h-40.1c-3.3 0-5.3 3-5.3 6 0 2.9 1.6 6 5.3 6h14.2z"/><path fill-rule="evenodd" class="b" d="m1258.4 379.4c1.3-4 4.4-7.2 8.4-7.2 4.1 0 7 3 8.3 7.2l15.3 47.2c0.5 1.4 0.7 2.6 0.7 3.2 0 3.4-2.5 5.8-5.4 5.8-3.3 0-5-1.9-5.7-4.5l-2.4-8.2h-21.7l-2.3 8.1c-0.8 2.7-2.5 4.6-5.7 4.6-3.1 0-5.7-2.6-5.7-6.1 0-1.4 0.3-2.4 0.5-2.9zm0.9 31.5h14.8l-7.3-25.1h-0.1z"/><path class="b" d="m1292.8 427.8c-0.1 0.6-0.1 1.1-0.1 1.5 0 3.8 2.5 6.3 5.6 6.3 4 0 5.6-2 6.1-6.1l4.6-35.3h0.2l9.4 36.3c0.5 2.1 2 5.1 6.2 5.1 4.2 0 5.7-3 6.3-5.1l9.4-36.3h0.1l4.6 35.3c0.6 4.1 2.1 6.1 6.1 6.1 3.1 0 5.6-2.5 5.6-6.3q0-0.6 0-1.5l-7.3-48.4c-0.5-3.1-3.5-6.7-7.7-6.7-3.9 0-6.9 3.1-7.8 6.3l-9.2 34.3h-0.1l-9.3-34.3c-0.8-3.2-3.9-6.3-7.8-6.3-4.1 0-7.2 3.6-7.6 6.7z"/><path fill-rule="evenodd" class="b" d="m1374.7 379.4c1.3-4 4.4-7.2 8.4-7.2 4.1 0 7 3 8.3 7.2l15.3 47.2c0.5 1.4 0.7 2.6 0.7 3.2 0 3.4-2.5 5.8-5.4 5.8-3.3 0-4.9-1.9-5.7-4.5l-2.4-8.2h-21.7l-2.3 8.1c-0.8 2.7-2.5 4.6-5.7 4.6-3.1 0-5.7-2.6-5.7-6.1 0-1.4 0.3-2.4 0.5-2.9zm0.9 31.5h14.8l-7.3-25.1h-0.1z"/><path fill-rule="evenodd" class="b" d="m1419.5 383q-2 2-4.9 2-2.8 0-4.8-2-2-2-2-4.8 0-2.8 2-4.8 2-2 4.8-2 2.9 0 4.9 2 2 2 2 4.8 0 2.8-2 4.8zm-9-9q-1.7 1.7-1.7 4.2 0 2.4 1.7 4.2 1.7 1.7 4.1 1.7 2.5 0 4.2-1.7 1.7-1.8 1.7-4.2 0-2.5-1.7-4.2-1.7-1.7-4.2-1.7-2.4 0-4.1 1.7zm4 0.4q1.4 0 2 0.3 1.2 0.5 1.2 1.9 0 1-0.7 1.5-0.4 0.2-1.1 0.3 0.9 0.2 1.3 0.8 0.4 0.5 0.4 1.1c0 0.1 0 0.9 0 1.1q0 0.3 0.1 0.4v0.1h-1.2q0 0 0-0.1-0.1 0-0.1-0.1v-0.8q0-1.3-0.7-1.7-0.4-0.3-1.5-0.3h-1v3h-1.3v-7.5zm1.4 1.2q-0.5-0.3-1.6-0.3h-1.1v2.7h1.2q0.8 0 1.2-0.1 0.8-0.3 0.8-1.2 0-0.8-0.5-1.1z"/><path fill-rule="evenodd" class="b" d="m1211.7 492l-0.8-1.7h-3.5l-0.9 1.7q0 0 0 0.1 0 0-0.1 0.2-0.2 0.4-0.2 0.8 0 0.7 0.7 1v0.2q-0.1 0-0.5 0-0.5-0.1-1-0.1-0.4 0-0.9 0-0.4 0.1-0.6 0.1v-0.2q1-0.5 1.9-2.1l3-5.9q-0.3-0.7-0.9-1.1-0.7-0.4-1.5-0.4v-0.2c0.3 0 1 0 1.5 0q0.8 0.1 1.1 0.1l4.6 9.7q-0.9 0-2.1 0.1v-0.2q0.7-0.1 0.7-0.7 0-0.5-0.5-1.4zm-3.9-2.4h2.7l-1.3-2.8zm6.5 4.6l-4.6-9.7h0.9q0.2 0.5 0.5 1.2 0.4 0.8 0.5 0.9 0 0.1 0 0.2l2.2 4.5q1.1 2.3 2.4 2.8v0.2q-1.3-0.1-1.9-0.1z"/><path class="b" d="m1219.2 484.5v9.7q-0.6 0-2 0.1v-0.2q0.7-0.2 1-0.8 0.3-0.6 0.3-2.2v-4.1q0-1.2-0.3-1.7-0.3-0.6-1-0.7v-0.2q1.2 0.1 2 0.1zm0.7 9.7v-9.7q1.2 0 2-0.1v0.2q-0.5 0.1-0.8 0.5-0.4 0.6-0.4 2.1v4.4q0 1.4 0.4 1.9 0.4 0.5 0.8 0.6v0.2q-0.8-0.1-2-0.1z"/><path fill-rule="evenodd" class="b" d="m1226.4 494.2h-0.2v-9.7q0.5 0 1.1 0c0.4-0.1 0.8 0.4 1.1 0.5q-0.1 0-0.3 0-0.7 0-1 0.3-0.2 0.3-0.2 1.7v2q0.5 0.2 1.2 0.2 2 0 2-2.2c0-1.2-0.5-2.5-1.6-2.6q1.2 0 1.8 0.8 0.7 0.7 0.7 1.8 0 2-1.6 2.5 0.8 0.1 1.3 0.5 0.6 0.3 1.7 1.5 1.8 1.9 3 1.9 0.2-0.1 0.4-0.2l0.1 0.2q-0.4 0.4-1.1 0.4-0.6 0-1.4-0.5-0.7-0.5-2.1-1.9-1.8-1.8-3.4-1.8 1.1 0.3 2.7 2.1 1.2 1.3 2 1.8 0.7 0.6 1.4 0.6v0.1q-0.3 0.1-0.6 0.1-0.9 0-1.6-0.5-0.3-0.2-0.9-0.7-0.5-0.5-1.3-1.3-1.1-1.2-1.6-1.6-0.6-0.5-1.1-0.6v2.1q0 2.2 1.3 2.4v0.2q-1.1-0.1-1.8-0.1zm2-9.2q0.1 0 0.1 0 0 0-0.1 0zm-2.9-0.5v9.7c-0.1 0-0.8 0-1.1 0q-0.5 0.1-1 0.1v-0.2q0.6 0 1-0.6 0.3-0.5 0.3-1.9v-4.7q0-2.1-1.3-2.3v-0.2q0.6 0.1 2.1 0.1zm5.6 4.5q0.6-0.9 0.6-2.1-0.1-1-0.7-2.1 1.5 0.7 1.5 2.1 0 1.5-1.4 2.1z"/><path class="b" d="m1242.9 484.5v9.7q-0.8 0-1.9 0.1v-0.2q0.7-0.2 0.9-0.8 0.3-0.5 0.3-1.8v-4.6q0-1.2-0.3-1.7-0.4-0.5-0.9-0.6v-0.2q1 0.1 1.9 0.1zm1.1 9.7h-0.4v-9.7h2.3q1 0 2.6-0.1 0 0.3 0 0.6 0 0.3 0.1 0.9 0 0.6 0 0.7v0.2h-0.2q-0.3-1.7-1.6-1.7h-1.8q-0.2 0-0.5 0.1-0.1 0.7-0.1 2v1.9h1.6q1-0.1 1.5-0.3 0.5-0.3 0.6-0.9h0.2q0 1 0 1.4 0 0.2 0 0.7 0 0.6 0 0.8v0.3h-0.2q0-1.4-1.5-1.4h-2.2v2.1q0 2 1.2 2.3v0.2q-1.2-0.1-1.6-0.1z"/><path class="b" d="m1251.8 484.5v9.7q-0.6 0-2 0.1v-0.2q0.7-0.2 1-0.8 0.3-0.6 0.3-2.2v-4.1q0-1.2-0.3-1.7-0.3-0.6-1-0.7v-0.2q1.2 0.1 2 0.1zm0.7 9.7v-9.7q1.2 0 2-0.1v0.2q-0.5 0.1-0.8 0.5-0.4 0.6-0.4 2.1v4.4q0 1.4 0.4 1.9 0.4 0.5 0.8 0.6v0.2q-0.8-0.1-2-0.1z"/><path class="b" d="m1256.1 484.4l1.9 0.1v9.7h-0.5q-0.5 0-1.4 0.1v-0.2q0.7-0.2 0.9-0.8 0.3-0.6 0.3-1.9v-4.4q0-1.4-0.4-1.9-0.4-0.5-0.8-0.5zm6.8 9.7h-4.2v-9.6q0.6 0 1.4-0.1 0.7 0 0.6 0v0.1q-0.7 0.2-0.9 0.7-0.4 0.6-0.3 1.7v4q0 0.9 0 1.6 0.1 0.7 0.2 0.9 0.1 0.1 0.6 0.1h1.9q1 0 1.7-0.3 0.7-0.4 1.1-1.3h0.2q0 0.4-0.4 1.4-0.2 0.6-0.3 1-0.7-0.2-1.6-0.2z"/><path class="b" d="m1266.4 484.5h3v9.7h-0.2q-0.6 0-1.8 0.1v-0.2q0.7-0.2 1-0.8 0.3-0.5 0.3-1.9v-6.2h-2.3q-0.9 0-1.3 0.3-0.4 0.4-0.6 1.4h-0.2q0-0.1 0-0.3 0-0.1 0-0.4 0.1-1 0.1-1.8 0.5 0.1 1.2 0.1zm4 9.6h-0.3v-9.6h3.3q1 0 1.8-0.1 0 0.1 0 0.6 0 0.4 0 1.1 0 0.4-0.1 0.8h-0.2q0-0.8-0.4-1.3-0.3-0.5-1.5-0.5h-2.1v6.6q0 1.1 0.3 1.7 0.4 0.6 1 0.7v0.2q-1.6-0.2-1.8-0.2z"/><path fill-rule="evenodd" class="b" d="m1279.1 494.2h-0.3v-9.7q0.6 0 1.2 0 0.7-0.1 1.2-0.1 1.2 0 1.8 0.8 0.7 0.7 0.7 1.8 0 2-1.6 2.5 0.7 0.1 1.3 0.5 0.6 0.3 1.7 1.5 1.8 1.9 2.9 1.9 0.3-0.1 0.5-0.2l0.1 0.2q-0.4 0.4-1.1 0.4-0.7 0-1.4-0.5-0.7-0.5-2.1-1.9-1.8-1.8-3.4-1.8 1 0.3 2.7 2.1 1.2 1.3 2 1.8 0.7 0.6 1.4 0.6v0.1q-0.4 0.1-0.6 0.1-0.9 0-1.6-0.5-0.3-0.2-0.9-0.7-0.5-0.5-1.3-1.3-1.1-1.2-1.6-1.6-0.6-0.5-1.1-0.6v2.1q0 2.2 1.3 2.4v0.2q-1.1-0.1-1.8-0.1zm0.5-7.2v2q0.5 0.2 1.2 0.2 2 0 2-2.2 0-2-2-2-0.7 0-1 0.3-0.2 0.3-0.2 1.7zm-1.4-2.5v9.7c-0.2 0-0.8 0-1.1 0q-0.5 0.1-1 0.1v-0.2q0.6 0 0.9-0.6 0.4-0.5 0.4-1.9v-4.7q0-2.1-1.3-2.3v-0.2q0.6 0.1 2.1 0.1zm5.5 4.5q0.6-0.9 0.6-2.1 0-1-0.6-2.1 1.5 0.7 1.5 2.1 0 1.5-1.5 2.1z"/><path fill-rule="evenodd" class="b" d="m1296.5 492l-0.8-1.7h-3.5l-0.9 1.7q0 0 0 0.1 0 0-0.1 0.2-0.2 0.4-0.2 0.8 0 0.7 0.7 1v0.2q-0.1 0-0.5 0-0.6-0.1-1-0.1-0.4 0-1 0-0.3 0.1-0.5 0.1v-0.2q1-0.5 1.9-2.1l3-5.9q-0.3-0.7-1-1.1-0.6-0.4-1.4-0.4v-0.2c0.3 0 1 0 1.5 0q0.8 0.1 1.1 0.1l4.6 9.7q-0.9 0-2.1 0.1v-0.2q0.6-0.1 0.6-0.7 0.1-0.5-0.4-1.4zm-3.9-2.4h2.7l-1.3-2.8zm6.5 4.6l-4.6-9.7h0.9q0.2 0.5 0.5 1.2 0.4 0.8 0.4 0.9 0.1 0.1 0.1 0.2l2.2 4.5q1.1 2.3 2.4 2.8v0.2q-1.3-0.1-1.9-0.1z"/><path class="b" d="m1301.7 484.5h3v9.7h-0.3q-0.6 0-1.7 0.1v-0.2q0.7-0.2 1-0.8 0.3-0.5 0.3-1.9v-6.2h-2.4q-0.8 0-1.2 0.3-0.4 0.4-0.6 1.4h-0.2q-0.1-0.1-0.1-0.3 0.1-0.1 0.1-0.4 0.1-1 0.1-1.8 0.5 0.1 1.2 0.1zm4 9.6h-0.3v-9.6h3.3q0.9 0 1.8-0.1 0 0.1 0 0.6 0 0.4 0 1.1 0 0.4-0.1 0.8h-0.2q0-0.8-0.4-1.3-0.4-0.5-1.5-0.5h-2.1v6.6q0 1.1 0.3 1.7 0.3 0.6 1 0.7v0.2q-1.6-0.2-1.8-0.2z"/><path class="b" d="m1313.7 484.5v9.7q-0.7 0-2 0.1v-0.2q0.7-0.2 0.9-0.8 0.3-0.6 0.3-2.2v-4.1q0-1.2-0.3-1.7-0.2-0.6-0.9-0.7v-0.2q1.1 0.1 2 0.1zm0.7 9.7v-9.7q1.1 0 2-0.1v0.2q-0.6 0.1-0.9 0.5-0.4 0.6-0.4 2.1v4.4q0 1.4 0.4 1.9 0.4 0.5 0.9 0.6v0.2q-0.9-0.1-2-0.1z"/><path fill-rule="evenodd" class="b" d="m1327.3 489.3q0 1.7-0.5 2.8-0.5 1.2-1.4 1.8-0.9 0.5-2.1 0.5-1.9 0-2.9-1.3-1.1-1.4-1.1-3.8 0-2.5 1.1-3.8 1-1.3 2.9-1.3 1.9 0 3 1.3 1 1.3 1 3.8zm-0.8 0q0-4.4-3.2-4.4-3.1 0-3.1 4.5 0 4.3 3.1 4.3 3.2 0 3.2-4.4zm-6.9-3.9q-1 1.5-1 4 0 2.2 1 3.8-1.9-1.3-1.9-3.9 0-2.8 1.9-3.9zm7.4 7.8q1-1.3 1-4.1 0-2.4-1-3.7 1.9 1.1 1.9 3.8 0 2.7-1.9 4z"/><path class="b" d="m1330 484.5l10.5 9v0.8h-0.1l-8.3-7.1v4.3q0 1.4 0.3 1.9 0.4 0.6 1.1 0.7v0.2q-1.3-0.1-1.8-0.1-0.6 0-1.7 0.1v-0.2q0.8-0.2 1-0.7 0.3-0.6 0.3-2v-4.8l-0.6-0.6q-1.4-1.1-2.4-1.4v-0.2zm10.6 8.1l-9.5-8.1h1.1l7.7 6.5v-3.8q0-0.9-0.1-1.4-0.2-0.5-0.6-0.9-0.4-0.3-1-0.4v-0.1q0 0 0.3 0 1.2 0.1 1.7 0.1 0.4 0 1.9-0.1v0.1q-0.5 0.1-0.9 0.4-0.3 0.3-0.5 0.8-0.1 0.5-0.1 1.3z"/><path class="b" d="m1354.4 487.2h-0.2q0-1.1-0.8-1.6-0.8-0.5-2-0.5-0.9 0-1.5 0.4-0.6 0.4-0.6 0.9 0 0.6 0.5 1 0.4 0.3 1.9 0.8 1.4 0.5 1.9 0.8 0.6 0.3 1 0.9 0.4 0.6 0.4 1.4 0 1.1-0.9 1.8 0.3-0.5 0.3-1.3 0-0.7-0.3-1.2-0.4-0.6-0.9-1-0.5-0.3-1.7-0.7-1.8-0.6-2.4-1-0.5-0.5-0.6-1.4 0-1 0.9-1.6 0.8-0.6 2.4-0.6 1 0 2.6 0.4v0.1 0.3q0 0.3 0 0.7 0 0.4 0 0.8 0 0.2 0 0.6zm-6.5 3.8h0.3q0 1.2 0.9 1.9 0.9 0.8 2 0.8 0.8 0 1.4-0.5 0.5-0.5 0.5-1.2 0-0.7-0.5-1.1-0.5-0.4-2-0.8-1.2-0.4-1.7-0.7-0.6-0.3-0.9-0.8-0.4-0.5-0.4-1.2 0-0.7 0.5-1.4-0.1 0.4-0.1 0.6 0 0.7 0.3 1.3 0.4 0.5 0.9 0.8 0.5 0.3 1.7 0.7 1.6 0.5 2.3 1 0.7 0.6 0.7 1.5 0 1-0.7 1.7-0.7 0.8-2.1 0.8-0.6 0-1.6-0.2-0.9-0.2-1.3-0.2l-0.1-0.1q0-0.1 0-0.4 0-0.3-0.1-0.9 0-0.6 0-0.9 0-0.4 0-0.7z"/><path class="b" d="m1362.9 494.2v-4.9l-4.6-4.8h0.3q1.1 0 2.2-0.1v0.2q-0.5 0.1-0.5 0.5 0 0.4 1.1 1.6l1.9 2 1.8-2.1q0.6-0.7 0.6-1.3 0-0.6-0.6-0.7v-0.2q0.2 0 1.1 0.1 0.4 0 0.7 0 0.1 0 1.6-0.1v0.2q-0.7 0.2-1.1 0.5-0.4 0.4-1 1 0 0.1-0.1 0.2l-2.7 3.1v2.3q0 2.1 1.3 2.4v0.2q-1.6-0.1-1.7-0.1zm-5.4-9.7l4.7 5.1v4.6h-0.2q-0.8 0-1.9 0.1v-0.2q0.7-0.1 1-0.6 0.3-0.4 0.3-1.7v-2l-2.9-3.1q-1.6-1.8-3-2.1v-0.2q0.8 0.1 1.7 0.1z"/><path class="b" d="m1375.7 487.2h-0.2q0-1.1-0.9-1.6-0.8-0.5-1.9-0.5-1 0-1.6 0.4-0.6 0.4-0.6 0.9 0 0.6 0.5 1 0.5 0.3 2 0.8 1.3 0.5 1.9 0.8 0.6 0.3 0.9 0.9 0.4 0.6 0.4 1.4 0 1.1-0.8 1.8 0.3-0.5 0.3-1.3 0-0.7-0.4-1.2-0.3-0.6-0.9-1-0.5-0.3-1.7-0.7-1.8-0.6-2.3-1-0.6-0.5-0.6-1.4 0-1 0.9-1.6 0.8-0.6 2.4-0.6 1 0 2.5 0.4v0.1l0.1 0.3q-0.1 0.3 0 0.7 0 0.4 0 0.8 0 0.2 0 0.6zm-6.5 3.8h0.2q0.1 1.2 1 1.9 0.8 0.8 1.9 0.8 0.9 0 1.4-0.5 0.6-0.5 0.6-1.2 0-0.7-0.5-1.1-0.5-0.4-2-0.8-1.2-0.4-1.7-0.7-0.6-0.3-0.9-0.8-0.4-0.5-0.4-1.2 0-0.7 0.5-1.4-0.1 0.4-0.1 0.6 0 0.7 0.3 1.3 0.4 0.5 0.9 0.8 0.5 0.3 1.7 0.7 1.6 0.5 2.3 1 0.6 0.6 0.6 1.5 0 1-0.7 1.7-0.7 0.8-2.1 0.8-0.5 0-1.6-0.2-0.8-0.2-1.3-0.2l-0.1-0.1q0.1-0.1 0.1-0.4 0-0.3-0.1-0.9 0-0.6 0-0.9 0-0.4 0-0.7z"/><path class="b" d="m1379.1 484.5h3.1v9.7h-0.3q-0.6 0-1.8 0.1v-0.2q0.8-0.2 1.1-0.8 0.2-0.5 0.2-1.9v-6.2h-2.3q-0.9 0-1.3 0.3-0.3 0.4-0.6 1.4h-0.2q0-0.1 0-0.3 0-0.1 0-0.4 0.2-1 0.2-1.8 0.4 0.1 1.2 0.1zm3.9 9.6h-0.2v-9.6h3.3q0.9 0 1.8-0.1 0 0.1-0.1 0.6 0 0.4 0 1.1 0 0.4 0 0.8h-0.3q0-0.8-0.3-1.3-0.4-0.5-1.6-0.5h-2.1v6.6q0 1.1 0.4 1.7 0.3 0.6 1 0.7v0.2q-1.7-0.2-1.9-0.2z"/><path class="b" d="m1395.2 494.2h-3.7v-9.7h2.7q0.8 0 2.9-0.1-0.1 0.3-0.1 0.4 0 0.2 0.1 0.9 0 0.4 0 0.5v0.2h-0.1q-0.4-0.8-0.8-1-0.4-0.2-1.6-0.2h-1.4q-0.4 0-0.7 0-0.1 0.3-0.2 1.5v0.6 1.5h2q1.1 0 1.5-0.2 0.3-0.2 0.6-0.9h0.2q-0.1 0.8-0.1 1.4 0 0.4 0.1 1 0 0.2 0 0.7h-0.2q-0.1-0.8-0.5-1.1-0.4-0.3-1.3-0.3h-2.3v2q0 1.2 0.1 2.1 0.4 0 0.9 0h1.4q1.1 0 1.7-0.2 0.6-0.3 1.2-1.2h0.2q-0.2 0.4-0.3 1-0.3 0.7-0.4 1.2-1.1-0.1-1.9-0.1zm-4.6-9.7h0.3v9.7h-0.6q-0.3 0-1.4 0.1v-0.2q0.5-0.1 0.8-0.4 0.2-0.4 0.3-0.8 0.1-0.5 0.1-2.1v-3.8q0-1.3-0.3-1.8-0.4-0.5-0.9-0.6v-0.2q0.6 0 1.7 0.1z"/><path class="b" d="m1401 484.5l4.2 8.9-0.5 0.9-3.8-8.1-0.2 5.5q0 0.8 0 0.7 0 1.6 1.2 1.7v0.2q0 0-0.2 0-1.1-0.1-1.4-0.1-0.4 0-1.6 0.1v-0.2q1.2-0.3 1.3-2.4l0.3-6.2q-0.6-0.7-1.6-0.9v-0.2q0.8 0.1 1.6 0.1zm9.3 9.6l-0.4-9.6h0.3q0.6 0 1.9-0.1v0.1q-0.7 0.1-1 0.6-0.4 0.5-0.4 1.2v0.9l0.2 4.4q0.1 1.2 0.4 1.8 0.3 0.6 1 0.7v0.2q-1.3-0.2-2-0.2zm-4.7-3.2l2.9-6.4h0.7l0.4 9.6h-0.3q-0.4 0-1 0.1l-0.7 0.1v-0.2q1.2-0.3 1.1-2 0.1 0 0-0.6l-0.2-5.4-2.9 6.5-3.8-8.1h0.7z"/><path class="b" d="m1420.1 487.2h-0.2q0-1.1-0.8-1.6-0.9-0.5-2-0.5-0.9 0-1.6 0.4-0.6 0.4-0.6 0.9 0 0.6 0.5 1 0.5 0.3 2 0.8 1.3 0.5 1.9 0.8 0.6 0.3 0.9 0.9 0.4 0.6 0.4 1.4 0 1.1-0.8 1.8 0.3-0.5 0.3-1.3 0-0.7-0.4-1.2-0.3-0.6-0.8-1-0.6-0.3-1.8-0.7-1.8-0.6-2.3-1-0.6-0.5-0.6-1.4 0-1 0.9-1.6 0.8-0.6 2.4-0.6 1 0 2.5 0.4v0.1l0.1 0.3q0 0.3 0 0.7 0 0.4 0 0.8 0 0.2 0 0.6zm-6.5 3.8h0.2q0.1 1.2 1 1.9 0.8 0.8 1.9 0.8 0.9 0 1.5-0.5 0.5-0.5 0.5-1.2 0-0.7-0.5-1.1-0.5-0.4-2-0.8-1.2-0.4-1.7-0.7-0.6-0.3-0.9-0.8-0.4-0.5-0.4-1.2 0-0.7 0.5-1.4-0.1 0.4-0.1 0.6 0 0.7 0.3 1.3 0.4 0.5 0.9 0.8 0.5 0.3 1.7 0.7 1.6 0.5 2.3 1 0.6 0.6 0.6 1.5 0 1-0.6 1.7-0.8 0.8-2.2 0.8-0.5 0-1.5-0.2-0.9-0.2-1.4-0.2v-0.1q0-0.1 0-0.4 0-0.3-0.1-0.9 0-0.6 0-0.9 0-0.4 0-0.7z"/><path fill-rule="evenodd" class="c" d="m1204.1 478.8h216.8"/><path fill-rule="evenodd" class="b" d="m1093 378.6c14.4-8.7 35.3-8.3 49 1.2 15.8 10.5 24.1 30 20 48.6-0.8 3.2-1.9 6.8-3.2 9.9-7.9 17.2-26.1 28-45.4 26.9-16.2-0.7-33.6-12.5-39.6-28.1-6.9-16.5-4.1-35.9 8.1-49.5 3.4-3.6 6.9-6.6 11.1-9zm-19.4 41.7c3 0.9 6.7 0 9.6-0.6 1.8-0.4 3.5-1.5 5.3-1.6-0.1 4.3 1.2 9.6 3.1 13.7-2.8 4.4-7 7.4-11.2 9.9 2.8 5.6 11 12.2 16.2 15.1 3-4 4.5-9 5.2-14 4.2 2.3 8.8 3.8 13.7 4.1 1.9 3.3 2.5 6.2 2.9 10.2 0.3 1.7-0.1 3.1 0.2 4.6 7.5-0.4 14.8-2.6 20.9-6.7q-2-4.8-6.2-8.5c-1-1-2.4-2-3.4-3 3.9-2.4 7.9-5.6 10.4-9.7 5.2-0.1 9.9 2 14.4 4.8 3.6-6.7 5-14.4 4.7-21.9l-1.9-0.1c-4 0.1-11 1.6-12.9 2.8-0.2-4.9-0.8-9.4-3.2-13.5 2.7-4.3 6.8-8.2 11.3-10.2-3.5-6.2-9.7-11.7-16.3-15.2-3.2 4.2-4.2 9.2-5.1 14.1l-0.3 0.2c-4.1-2.5-8.9-3.7-13.5-4.3-2.2-4.5-3.2-9.6-2.8-14.7-7.7 0.2-15.3 2.8-21.1 6.6 1.7 4.5 5.5 8.4 9.5 11.5-4.1 2.4-7.8 5.8-10.4 9.7-5.2 0-9.9-2.2-14.3-4.8-3.1 5.6-5 16.3-4.8 21.5z"/><path class="b" d="m1131.2 397.8c0.6 3.8 2.1 7.4 4.2 10.8 1.7-0.9 4.1-3.1 3.7-1.7-4.9 6.4-12.1 10.5-20 10.9 6.8-5 10.6-12.1 12.1-20z"/><path class="b" d="m1140.8 421.9c-3.2 2.3-5.7 5.2-7.8 8.5 1.4 1.2 4.5 2.4 3.1 2.6-7.8-1.5-14.7-6.2-18.6-13.2 7.5 4 15.5 4.3 23.3 2.1z"/><path class="b" d="m1125.9 441.1c-3.6-1.5-7.3-2.2-11.3-2.3-0.3 1.9 0.3 5.1-0.6 4-2.7-7.5-2.3-15.8 1.8-22.7 0.4 8.5 4.3 15.5 10.1 21z"/><path class="b" d="m1102 438.4c-0.5-3.8-1.9-7.4-3.8-10.9-1.8 0.8-4.2 2.9-3.8 1.6 5.1-6.2 12.4-10.1 20.4-10.2-7.1 4.7-11 11.7-12.8 19.5z"/><path class="b" d="m1091.7 415.9c3-2.5 5.3-5.5 7.3-8.9-1.5-1.1-4.6-2.1-3.3-2.5 8 1.2 15.1 5.5 19.3 12.3-7.7-3.6-15.7-3.5-23.3-0.9z"/><path class="b" d="m1107.4 395.5c3.5 1.7 7.3 2.5 11.3 2.7 0.3-1.8-0.2-5.1 0.7-4 2.4 7.6 1.7 15.9-2.6 22.7-0.1-8.5-3.7-15.7-9.4-21.4z"/><path class="d" d="m1117.6 461.3c1.8-1.1 3.3-2.5 4.6-4.2q1.2-2 3.4-2.8c1.8-0.6 3.6-0.1 5.1 1.1q0.5 0.4 0.9 0.9 1.4 0.2 2.9 0.3h0.1c0.8 0.3 0.8 0.8 0 1.2v0.1h-0.1q-1.2-0.1-2.4 0.2c-0.9 0.2-1.3 0.7-1.5 1.5v0.1c-0.1 0.4 0 0.9 0.2 1.4 1.4 0.3 2.9 0.2 4.2-0.4v-0.1h0.1c4.2-1.3 8.5-2 12.9-2.2q5.7 0 10.8 2.5 5.9 3.2 11.2 7.5 4.4 3.9 9.3 7.2c1.7 1.2 3.8 2 5.8 2.5q3 0.8 6.2 0.6c1.7 0.2 1.7 0.9 0.1 1.4-3.3 0.8-7.1 0.5-10.4 0q-7.6-1.5-13.9-6c-3.7-2.5-7.9-4.1-12.2-5.1-5-1.2-10.3-1.6-15.2 0.1-4.9 2-9.5 5.4-13.5 8.8-3.9 2.7-8.3 4.2-12.9 4.9-3.4 1.1-5.9 3.5-7.6 6.6-0.5 1.9-1.8 3.4-3.4 4.6-1.4 1-3.1 0.8-4.7 0.2-1.5-0.7-1.6-2.3-1.5-3.7l0.1-0.1c0.9-1.5 2.1-2.5 3.9-2.7 1.9-1.2 3.3-3.1 4.4-5 0.9-2.8 0.1-5.2-1.9-7.3q-9.2-9.8-22.2-12.9c-5.9-1.7-11.8-1.2-17.5 1-3.7 2.7-8 4.7-12.2 6.3-3 1.3-6.2 2.3-9.5 2.8q-2.9 0.3-5.8-0.5c-0.7-0.2-1.2-0.5-1.6-1.1l-0.2-0.3h0.4c7.1-0.7 14.5-2.6 20.1-7.2 4.5-4.6 9.7-8.3 15.8-10.6 4.2-2.1 8.7-2.5 13.3-1.7 5.4 0.7 11.1 3.5 15.8 6.3 3.1 2.1 6.6 3.3 10.2 4 2.8 0.6 5.7 0.5 8.4-0.2z"/><path class="b" d="m1034 470.9q12.8-1.1 20.3-7.2 7.1-7.3 15.7-10.6 5.7-2.9 13.1-1.7 6.6 0.9 15.7 6.3 4.5 2.9 10.4 4 4.1 1 8.5-0.2 2.7-1.6 4.7-4.3 1.1-1.9 3.3-2.7 2.4-0.8 4.9 1 0.5 0.5 0.9 1 1.3 0.2 3 0.3 0.9 0.4 0 0.8-1.2 0-2.5 0.3-1.4 0.2-1.6 1.7-0.2 0.7 0.2 1.7 2.6 0.5 4.5-0.4c3.9-1.3 8-2 12.9-2.3q5.6 0 10.7 2.5 5.9 3.1 11.1 7.5 4.1 3.6 9.4 7.2 2.1 1.5 5.8 2.5 3.1 0.8 6.3 0.6 2.1 0.3 0 1-4.1 1-10.3 0-7.5-1.5-13.8-6-5.2-3.6-12.3-5.1-8.7-2.2-15.3 0.1-6.1 2.5-13.6 8.9-5.4 3.7-12.8 4.8-4.8 1.5-7.7 6.7-0.6 2.6-3.3 4.5-1.8 1.2-4.5 0.2-1.7-0.8-1.3-3.5 1.4-2.4 3.7-2.6 2.6-1.6 4.6-5.1 1.4-4.1-1.9-7.5-9.3-9.9-22.3-13-8.9-2.5-17.7 1-4.8 3.5-12.2 6.3-4.3 1.9-9.4 2.8-2.9 0.3-5.7-0.5-1-0.2-1.5-1z"/><path fill-rule="evenodd" class="b" d="m717.5 426.8c-0.3 15.5-7.7 28.3-22.5 34.1-5.7 2.3-11.7 2.6-17.7 2.1-4.8-0.5-9.3-1.7-13.6-4-8.6-4.5-13.9-11.6-15.6-21.3-1.2-6.9-1-13.7 1.7-20.2 3.9-9.3 10.5-15.9 19.8-19.3 9.6-3.6 19.4-3.7 28.9 0.2 10.2 4.2 16.3 11.9 18.4 22.8 0.4 2.1 0.5 4.3 0.6 5.6zm-52.9 3.1c0.3 1.9 0.4 3.8 0.9 5.6 3 10.2 14.3 13.8 22.7 10.6 7.4-2.7 11.9-9.9 11.6-18.3-0.2-5.8-2.4-10.5-7.2-13.9-3.7-2.6-8-3-12.4-2.5-3.6 0.5-6.8 1.7-9.5 4.2-4.1 3.9-5.8 8.7-6.1 14.3z"/><path class="b" d="m554.4 425h31.3c0 9.9-1.6 19.3-7.8 27.2-4.3 5.6-10.1 8.9-16.9 10.3-8.7 1.8-17.2 1.3-25.1-2.9-8.3-4.5-13.3-11.8-14.9-21.1-1.9-11.4 0.5-21.9 7.7-31.1 5-6.4 11.7-10.1 19.6-11.5 7.9-1.4 15.5-0.6 22.7 3.2 5.2 2.7 9.4 6.5 12.3 11.8 0.5 0.9 1 1.8 1.6 2.8-5.4 2.2-10.6 4.4-15.9 6.6-0.2-0.4-0.4-0.7-0.5-1.1-1.7-4.5-4.9-7.2-9.6-8.2-4.8-1-9.5-0.6-13.6 2.5-2.8 2.1-4.6 5-5.8 8.3-2 5.6-2.5 11.3-0.8 17.1 1.7 5.7 6.7 9.6 12.6 10 3.7 0.2 7.2-0.3 10.4-2.3 3-1.9 4.7-4.7 6-8h-15c0.5-4.6 1.1-9 1.7-13.6z"/><path fill-rule="evenodd" class="b" d="m598.3 397.8c0.4 0 0.6-0.1 0.9-0.1 8.4 0.1 16.9 0.1 25.3 0.2 4.4 0.1 8.6 1.1 12.1 4 4.1 3.4 6 7.9 6.3 13.1 0.3 5.5-0.8 10.7-4 15.3-1.9 2.7-4.5 4.7-7.5 6-0.8 0.4-1.6 0.7-2.6 1.1 4.9 8.1 9.8 16.1 14.8 24.3-5.5 0-13 0-18.4 0-1 0-1.4-0.3-1.8-1q-6.2-11.7-12.4-23.3c-0.2-0.4-0.4-0.7-0.7-1.1-1.1 8.5-2.1 16.9-3.2 25.3h-17.2c2.8-21.2 5.6-42.4 8.4-63.8zm15.4 13.2q-1 7.5-2 15.2c2.1 0 4.1 0 6.1 0 5.9 0 8.6-4.5 8-9.7-0.4-3.1-2.5-5.2-5.6-5.5-2.1-0.1-4.2 0-6.5 0z"/><path class="b" d="m784.3 397.9q-1 8.3-2 16.6c-0.9 7.1-1.7 14.1-2.7 21.2-0.5 3.6-1.1 7.2-2 10.7-1.9 6.7-6.4 11.2-12.7 13.9-5.9 2.5-12.1 2.8-18.4 2.2-4.9-0.5-9.6-1.9-13.7-4.7-5.7-4-9.1-9.6-9-16.7 0-4.6 0.6-9.1 1.2-13.7 0.9-7.9 2-15.8 3.1-23.7q0.3-2.9 0.7-5.9h17.2q-0.6 4.6-1.2 9.1c-1.1 8.4-2.2 16.7-3.3 25-0.2 2.1-0.4 4.2-0.4 6.3 0.1 4.2 2.4 7 6.5 8 2.9 0.7 5.9 0.6 8.7-0.4 3.1-1.1 4.8-3.5 5.5-6.6 0.7-3.3 1.1-6.7 1.6-10.1 1.1-8 2.1-16.1 3.1-24.2q0.4-3.1 0.8-6.2c0.1-0.6 0.1-1 0.8-1q8 0.1 15.9 0.1c0 0 0.1 0 0.3 0.1z"/><path fill-rule="evenodd" class="b" d="m370.4 461.6c-0.9-3.2-1.9-6.4-2.8-9.7-0.3-1.1-0.8-1.3-1.8-1.3q-9.3 0-18.6 0c-0.9 0-1.4 0.3-1.7 1.1q-2.1 4.6-4.2 9.1c-0.2 0.4-0.6 0.9-0.9 0.9-6.1 0-12.2 0-18.4 0q0.3-0.7 0.6-1.2 15-30.9 30.1-61.8c0.3-0.6 0.6-1 1.4-1q8.5 0.1 16.9 0c0.7 0 1.1 0.2 1.3 1q7.9 31.2 15.9 62.5c0.1 0.1 0.1 0.2 0.1 0.4zm-6.3-24.3c-1.1-7.8-2.3-15.4-3.4-23.3-2.9 7.9-5.6 15.6-8.4 23.3z"/><path fill-rule="evenodd" class="b" d="m451.5 461.6c0.3-2.3 0.6-4.5 0.9-6.7q1.4-11.2 2.8-22.3 1.5-11 2.9-22.1c0.5-3.8 1-7.7 1.4-11.5 0.1-1 0.4-1.3 1.4-1.3q12.9 0 25.8 0c4 0.1 7.8 0.6 11.3 2.9 4 2.6 6.4 6.4 7.3 11.1 1.3 6.3 0.6 12.4-2.2 18.2-3 6.1-7.9 9.6-14.4 10.3-5.2 0.5-10.4 0.4-15.6 0.5-0.5 0.1-1 0-1.6 0-0.9 7-1.9 14-2.8 20.9zm23.8-50.3q-1.1 7.9-2.1 15.6c3.1 0 6.1 0.2 9 0 1.2-0.1 2.4-0.6 3.4-1.3 2.7-1.9 3.5-4.9 3.4-8.1-0.1-3.5-2-5.9-5.5-6.2-2.6-0.2-5.4 0-8.2 0z"/><path fill-rule="evenodd" class="b" d="m796.3 397.7c8.5 0 18.3 0 26.8 0 4.1 0.1 8.1 0.6 11.6 2.9 4.3 3 6.6 7.1 7.4 12.2 0.7 5 0.3 9.9-1.4 14.6-2.7 7.5-7.9 12-15.7 12.8-5.1 0.5-10.3 0.4-15.5 0.5-0.4 0.1-0.9 0-1.4 0-0.9 7-1.9 13.9-2.8 20.9h-17.2c2.7-21.3 5.5-42.5 8.2-63.9zm15.5 13.6c-0.7 5.2-1.3 10.5-2 15.6 3.1 0 6.1 0 9.2 0 0.6 0 1.2-0.3 1.8-0.5 3.3-1.5 5.2-5.3 4.8-9.4-0.4-3.3-2.1-5.3-5.3-5.6-2.8-0.3-5.6-0.1-8.5-0.1z"/><path fill-rule="evenodd" class="b" d="m413.6 440.7c-0.9 7-1.8 14-2.8 20.9h-17.2c2.8-21.3 5.5-42.5 8.3-63.9 8.5 0 18.3 0 26.8 0 3.1 0 6.2 0.3 9.1 1.6 5.3 2.4 8.4 6.7 9.6 12.4 1.2 6.3 0.6 12.4-2.3 18.3-2.9 6-7.8 9.5-14.4 10.2-5.1 0.5-10.2 0.4-15.3 0.5-0.5 0.1-1.1 0-1.8 0zm1.8-13.8c3.1 0 6.1 0.1 9.1 0 1.1-0.1 2.2-0.6 3.1-1.2 3.1-2.4 3.8-5.7 3.3-9.4-0.4-2.7-2-4.4-4.6-4.8-2.8-0.3-5.6-0.3-8.4-0.3-0.3 0-0.7 0.5-0.7 0.8-0.6 5-1.2 10-1.8 14.9z"/><path fill-rule="evenodd" class="b" d="m231.6 458.9c-15.3 0-27.9-12.7-28-28.2 0-15.5 12.6-28.3 28-28.3 15.4 0 27.9 12.5 28 28.2 0.1 15.5-12.6 28.3-28 28.3zm8.7-7.7c4.2 0 7.7-3.5 7.8-7.9 0-4.4-3.6-8-8-8-4.2 0-7.7 3.6-7.8 7.9 0 4.3 3.6 7.9 8 8zm-17.8-15.8c-4.4 0-8 3.5-7.9 7.8 0 4.3 3.6 8 7.7 8 4.5 0 8-3.6 8-8-0.1-4.4-3.6-7.9-7.8-7.8zm-5.5-1.3c4.2 0 7.7-3.4 7.8-7.7 0-4.5-3.4-8-7.9-8.1-4.2 0-7.8 3.5-7.8 7.7-0.1 4.5 3.4 8 7.9 8.1zm28.7-15.8c-4.5 0.1-7.9 3.6-7.8 8 0 4.4 3.6 7.9 8 7.8 4.3 0 7.7-3.6 7.6-8.2-0.1-4.2-3.6-7.6-7.8-7.6zm-14.1 5c4.4 0 7.8-3.5 7.8-7.9 0-4.4-3.4-7.9-7.8-7.9-4.3 0-7.8 3.5-7.8 7.9 0 4.4 3.5 7.9 7.8 7.9z"/><path class="b" d="m305.6 397.7c-2.2 16.3-4.3 32.4-6.4 48.6h19.6c-0.2 2.2-0.5 4.2-0.7 6.2-0.4 2.8-0.8 5.5-1.1 8.3-0.1 0.7-0.3 0.9-1 0.9q-17.8 0-35.5 0c-0.1 0-0.3 0-0.6-0.1q0.5-3.3 0.9-6.6 1.4-10.8 2.9-21.6 1.5-11.7 3.1-23.4c0.5-3.7 1-7.4 1.4-11.1 0.1-0.8 0.3-1.2 1.3-1.2 5 0.1 10 0 15 0z"/><path class="b" d="m200.4 461.7h-1.4v-63.9h65.2v63.9h-1.3v-62.6h-62.5z"/><path fill-rule="evenodd" class="b" d="m200.5 464.8v4.9h3.2v0.9h-4.6v-5.8zm8 0l2.5 5.8h-1.4l-0.5-1.2h-2.5l-0.5 1.2h-1.5l2.5-5.8zm-0.6 1.3l-1 2.3h1.9zm6.3-1.3c1.1 0 1.6 0 2.2 0.2 0.7 0.2 1.3 0.9 1.3 1.6 0 0.9-0.6 1.4-1.4 1.6-0.5 0.2-0.9 0.2-1.8 0.2h-0.5v2.1h-1.4v-5.7zm0.2 2.7c0.8 0 1 0 1.2-0.1 0.5-0.1 0.7-0.4 0.7-0.8 0-0.3-0.2-0.6-0.6-0.7-0.2-0.1-0.5-0.1-1.3-0.1h-0.4v1.7zm6.5-2.7c1.1 0 1.5 0 2.1 0.2 0.8 0.2 1.3 0.9 1.3 1.6 0 0.9-0.6 1.4-1.4 1.6-0.5 0.2-0.9 0.2-1.8 0.2h-0.5v2.1h-1.4v-5.7zm0.1 2.7c0.8 0 1 0 1.3-0.1 0.3-0.1 0.6-0.4 0.6-0.8 0-0.3-0.3-0.6-0.5-0.7-0.3-0.1-0.6-0.1-1.3-0.1h-0.5v1.7zm13.8 0.1v2.4q-1.2 0.6-2.7 0.6c-2 0-3.3-1.1-3.3-2.9 0-1.8 1.3-3 3.2-3 1 0 1.7 0.3 2.3 0.7 0.3 0.4 0.4 0.7 0.4 1.2h-1.2c-0.1-0.6-0.6-0.9-1.4-0.9-1.1 0-1.8 0.7-1.8 2 0 1.3 0.7 2 1.8 2 0.6 0 1.1-0.2 1.5-0.4v-0.9h-1.4v-0.8zm3.8-2.8c1.3 0 1.8 0.1 2.3 0.3 0.7 0.2 1 0.8 1 1.4q0 1.2-1.3 1.6l1.7 2.4h-1.6l-1.5-2.1h-0.9v2.1h-1.4v-5.7zm0.1 2.6c0.7 0 0.9 0 1.2-0.1 0.4-0.1 0.6-0.3 0.6-0.8 0-0.2-0.2-0.5-0.4-0.6-0.3-0.1-0.6-0.1-1.5-0.1h-0.3v1.6zm11.1 0.3c0 1-0.4 1.7-1.1 2.3-0.5 0.4-1.4 0.6-2.2 0.6-2 0-3.2-1.2-3.2-3 0-0.9 0.3-1.7 0.9-2.3q1-0.6 2.3-0.6c2 0 3.3 1.2 3.3 3zm-5.2-0.1c0 1.3 0.7 2.2 1.9 2.2 1.1 0 1.8-0.9 1.8-2.1 0-1.3-0.7-2-1.8-2-1.1 0-1.9 0.7-1.9 1.9zm8.3-2.8v3.3c0 0.6 0 0.8 0.1 1 0.2 0.3 0.6 0.6 1.3 0.6 0.8 0 1.3-0.3 1.5-0.8v-4.1h1.4v3.3c0 0.8 0 1.1-0.3 1.4-0.4 0.8-1.3 1.1-2.6 1.1-1.2 0-2.2-0.3-2.6-1.1-0.2-0.3-0.2-0.6-0.2-1.4v-3.3zm8.2 0c1.1 0 1.5 0 2.1 0.2 0.8 0.2 1.2 0.9 1.2 1.6 0 0.9-0.5 1.4-1.3 1.6-0.5 0.2-0.9 0.2-1.9 0.2h-0.4v2.1h-1.4v-5.7zm0.1 2.7c0.8 0 1 0 1.3-0.1 0.3-0.1 0.5-0.4 0.5-0.8 0-0.3-0.2-0.6-0.5-0.7-0.2-0.1-0.5-0.1-1.2-0.1h-0.5v1.7z"/><path fill-rule="evenodd" class="b" d="m2734.1 389.9v13.6q-10.4-4-18.6-4-4.8 0-7.7 1.8-2.9 1.7-2.9 4.3 0 3.4 6.6 6.1l12.6 6.2c10.2 4.9 15.3 11.4 15.3 19.6q0 10.3-8.1 16.3c-5.4 4.1-12.7 6.1-21.7 6.1q-6.2 0-11.2-0.5c-3.4-0.4-7.2-1.1-11.4-2.2v-14.2q11.6 4 21.2 4 11.4 0 11.4-6.7c0-2.3-1.6-4.1-4.7-5.5l-14-6q-7.8-3.6-11.6-8.7c-2.5-3.4-3.7-7.3-3.7-11.8q0-9.4 7.8-15.2 7.8-5.7 20.7-5.7c2.8 0 6 0.2 9.6 0.7q5.4 0.7 10.4 1.8z"/><path fill-rule="evenodd" class="b" d="m2336.4 389.9v13.6q-10.4-4-18.5-4c-3.3 0-5.8 0.6-7.7 1.8q-2.9 1.7-2.9 4.3 0 3.4 6.5 6.1l12.7 6.2q15.2 7.3 15.2 19.6 0 10.3-8.1 16.3c-5.4 4.1-12.6 6.1-21.7 6.1q-6.2 0-11.2-0.5c-3.3-0.4-7.1-1.1-11.4-2.2v-14.2q11.7 4 21.2 4 11.4 0 11.4-6.7 0-3.4-4.6-5.5l-14.1-6q-7.8-3.6-11.5-8.7c-2.5-3.4-3.8-7.3-3.8-11.8q0-9.4 7.8-15.2c5.2-3.8 12.1-5.7 20.8-5.7 2.8 0 6 0.2 9.6 0.7q5.4 0.7 10.3 1.8z"/><path class="b" d="m2371.5 388.6h-20.6v70.1h20.6z"/><path fill-rule="evenodd" class="b" d="m2438.5 458.7h-51.1v-70.1h50.5v13h-30.6v15.5h26.5v11.7h-26.5v16.3h31.2z"/><path fill-rule="evenodd" class="b" d="m2449.9 458.7v-70.1h25.1l17.2 42.9 17.9-42.9h23.9v70.1h-19.2v-46.2l-20 46.8h-11.9l-19.1-46.8v46.2z"/><path fill-rule="evenodd" class="b" d="m2600.9 458.7h-51v-70.1h50.4v13h-30.4v15.5h26.5v11.7h-26.5v16.3h31z"/><path fill-rule="evenodd" class="b" d="m2672.5 458.7h-21.8l-24.5-44.9v44.9h-13.9v-70.1h22.5l23.8 44.2v-44.2h13.9z"/><path class="b" d="m1640.6 429.1h47.7l9.9-11.3h-47.5z"/><path fill-rule="evenodd" class="b" d="m1880.3 410.9c0.1 10.6-6.2 21.3-20.7 21.3h-16.3v-41.8h16.3c14.2 0 20.5 10.2 20.7 20.5zm-29.2 13.7h8.5c9.4 0 13.1-6.9 12.9-13.7-0.2-6.5-3.9-13.1-12.9-13.1h-8.5z"/><path fill-rule="evenodd" class="b" d="m1914.8 424.3h-21.6l-3.6 7.9h-8.4l18.5-41.8h8.5l18.6 41.8h-8.5zm-10.8-25.2l-7.7 17.8h15.4z"/><path class="b" d="m1946 432.4h-8.1l-17.2-42h8.8l12.4 32.5 12.6-32.5h8.7z"/><path class="b" d="m2003.1 426.4c-4.2 4.2-9.7 6.3-15.1 6.3-14 0-21.2-9.9-21.3-21.2-0.1-11.1 7.1-21.6 21.3-21.6 5.4 0 10.9 2.1 15.1 6.3l-2.2 1.9c-3.6-3.6-8.2-5.3-12.9-5.3-12.1 0-18.3 8.6-18.2 18.6 0.1 9.8 6.3 18.3 18.2 18.3 4.7 0 9.4-1.8 12.9-5.3z"/><path fill-rule="evenodd" class="b" d="m2050.5 411.3c-0.1 11-7 21.6-20.9 21.6-13.9 0-20.8-10.6-20.8-21.7 0-11.2 6.9-21.5 20.8-21.5 14 0 21 10.4 20.9 21.6zm-38.6 0c0 9.4 6 18.6 17.7 18.6 11.8 0 17.8-9.2 17.8-18.6 0-9.7-5.9-18.6-17.8-18.6-11.9 0-17.8 8.7-17.7 18.6z"/><path class="b" d="m2058.1 390.4h3.2v41.8h-3.2z"/><path class="b" d="m2070.4 390.4v41.8h26.4v-3.1h-23.2v-38.7z"/><path class="b" d="m1848.4 450.2c-0.7-1.2-1.9-1.3-3-1.3-1.2 0-3.1 0.4-3.1 2 0 1.3 1.4 1.6 3.1 1.9 1.9 0.4 3.9 0.8 3.9 3 0 2.3-2.3 2.8-3.9 2.8-1.6 0-3.4-0.6-4.2-2.2l0.7-0.3c0.6 1.2 2.2 1.8 3.5 1.8 1.2 0 3.2-0.3 3.2-2.1 0-1.6-1.7-1.9-3.3-2.2-1.9-0.4-3.8-0.8-3.8-2.6 0-2.2 2.2-2.9 3.9-2.9 1.4 0 2.6 0.3 3.6 1.8z"/><path class="b" d="m1863.5 457c-1 1.1-2.4 1.6-3.7 1.6-3.4 0-5.2-2.4-5.2-5.2 0-2.7 1.8-5.2 5.2-5.2 1.3 0 2.7 0.5 3.7 1.5l-0.5 0.5c-0.9-0.9-2-1.3-3.2-1.3-2.9 0-4.4 2.1-4.4 4.5 0 2.4 1.5 4.4 4.4 4.4 1.2 0 2.3-0.4 3.2-1.2z"/><path fill-rule="evenodd" class="b" d="m1877.1 458.5l-1.2-2.5h-6l-1.1 2.5h-0.8l4.5-10.2h0.9l4.5 10.2zm-1.4-3.3l-2.7-6.2-2.7 6.2z"/><path class="b" d="m1892 449.4l-3.9 6h-0.2l-3.9-6v9.1h-0.8v-10.2h0.9l3.9 5.9 3.8-5.9h1v10.2h-0.8z"/><path fill-rule="evenodd" class="b" d="m1906.6 451.1c0 1-0.6 1.8-1.6 2.1 1.2 0.4 2 1.4 2 2.6 0 2.1-2 2.7-3.7 2.7h-4.1v-10.2h4.1c1.7 0 3.3 0.8 3.3 2.8zm-6.6 1.8h3.4c1.2 0 2.5-0.4 2.5-1.8 0-1.5-1.3-2.2-2.6-2.2h-3.3zm0 4.9h3.3c1.3 0 2.9-0.3 2.9-2 0-1.5-1.4-2.1-2.8-2.1h-3.4z"/><path class="b" d="m1913 448.3h0.8v10.2h-0.8z"/><path fill-rule="evenodd" class="b" d="m1928.2 458.5l-1.1-2.5h-6l-1.1 2.5h-0.9l4.6-10.2h0.8l4.5 10.2zm-1.4-3.3l-2.7-6.2-2.7 6.2z"/><path class="b" d="m1935.7 449h-3.6v-0.7h8v0.7h-3.6v9.5h-0.8z"/><path fill-rule="evenodd" class="b" d="m1955.5 453.4c0 2.7-1.7 5.2-5.1 5.2-3.3 0-5-2.6-5-5.3 0-2.7 1.7-5.2 5-5.2 3.4 0 5.1 2.5 5.1 5.3zm-9.4 0c0 2.3 1.5 4.5 4.3 4.5 2.9 0 4.4-2.2 4.4-4.5 0-2.4-1.5-4.6-4.4-4.6-2.8 0-4.3 2.2-4.3 4.6z"/><path fill-rule="evenodd" class="b" d="m1969.6 458.5h-1l-3.5-3.9h-2.8v3.9h-0.7v-10.2h4.4c2.2 0 3.3 1.6 3.3 3.1 0 1.7-1.1 3.2-3.3 3.2zm-7.2-4.6h3.6c1.7 0 2.5-1 2.5-2.5 0-1.2-0.8-2.4-2.5-2.4h-3.6z"/><path class="b" d="m1975.1 448.3h0.8v10.2h-0.8z"/><path fill-rule="evenodd" class="b" d="m1998.9 453.3c0 2.5-1.6 5.2-5.2 5.2h-3.4v-10.2h3.4c3.5 0 5.1 2.5 5.2 5zm-7.8-4.3v8.7h2.6c3 0 4.4-2.3 4.4-4.4-0.1-2.2-1.5-4.3-4.4-4.3z"/><path class="b" d="m2005 448.3h0.7v10.2h-0.7z"/><path class="b" d="m2028.6 457c-1 1.1-2.4 1.6-3.7 1.6-3.4 0-5.1-2.4-5.2-5.2 0-2.7 1.8-5.2 5.2-5.2 1.3 0 2.7 0.5 3.7 1.5l-0.5 0.5c-0.9-0.9-2-1.3-3.2-1.3-2.9 0-4.4 2.1-4.4 4.5 0 2.4 1.5 4.4 4.4 4.4 1.2 0 2.3-0.4 3.2-1.2z"/><path fill-rule="evenodd" class="b" d="m2042.2 458.5l-1.1-2.5h-6.1l-1.1 2.5h-0.8l4.5-10.2h0.9l4.5 10.2zm-1.4-3.3l-2.7-6.2-2.7 6.2z"/><path class="b" d="m2049.4 448.3v9.4h5.7v0.8h-6.5v-10.2z"/><path fill-rule="evenodd" class="b" d="m2070.1 453.4c0 2.7-1.7 5.2-5 5.2-3.4 0-5.1-2.6-5.1-5.3 0-2.7 1.7-5.2 5.1-5.2 3.4 0 5.1 2.5 5 5.3zm-9.4 0c0.1 2.3 1.5 4.5 4.4 4.5 2.8 0 4.3-2.2 4.3-4.5 0-2.4-1.4-4.6-4.3-4.6-2.9 0-4.4 2.2-4.4 4.6z"/><path fill-rule="evenodd" class="b" d="m2084.2 458.5h-1l-3.5-3.9h-2.7v3.9h-0.8v-10.2h4.4c2.2 0 3.3 1.6 3.3 3.1 0 1.7-1 3.2-3.2 3.2zm-7.3-4.6h3.6c1.7 0 2.5-1 2.5-2.5 0-1.2-0.8-2.4-2.4-2.4h-3.7z"/><path class="b" d="m2089.7 448.3v10.2h7.1v-0.8h-6.3v-4h5.9v-0.7h-5.9v-4h6.1v-0.7z"/><path class="b" d="m1737.6 476c0 0 88.1-2.2 88.1-54.6 0-52.5-88.1-50.1-88.1-50.1v16.7c0 0 64.4-0.1 64.4 33.4 0 33.5-64.4 37.3-64.4 37.3z"/><path class="b" d="m1645.9 444.6l-9.1 14.1h-24.2v17.3h110.6v-17.3h-62.9l8.9-14.1z"/><path class="b" d="m1612.6 371.3v16.7h69.9l-10.4 16.1h22.7l10.2-16.1h18.2v-16.7z"/><path fill-rule="evenodd" class="b" d="m3040.4 456l-10.2 17.7c-1 1.8-3.2 2.7-5.3 2.2-12.5-3.1-25.6-4.8-39.1-4.8-13.5 0-26.6 1.7-39.2 4.8-2 0.5-4.2-0.4-5.3-2.2l-10.1-17.7c-1.1-1.8-0.8-4.2 0.7-5.7 18.1-19.1 31.7-42.5 39.2-68.5 0.6-2.1 2.4-3.5 4.5-3.5h20.3c2.2 0 4 1.4 4.6 3.5 7.5 26 21.1 49.4 39.1 68.5 1.5 1.5 1.8 3.9 0.8 5.7zm-22.5 8.3l-22.5-70c-0.1-0.5-0.7-0.6-1-0.2l-48.7 54.7c-0.3 0.3-0.2 0.8 0.3 0.9l71.2 15.3c0.5 0.1 0.9-0.3 0.7-0.7z"/><path fill-rule="evenodd" class="b" d="m3108.4 394.5l28.2 65.2h-13.5l-6.3-15.2h-28.4l-6.4 15.2h-13.1l28.2-65.2zm3.7 38.5l-9.5-22.1-9.4 22.1z"/><path class="b" d="m3158.9 395h-12.6v64.7h45.4v-11.8h-32.8z"/><path fill-rule="evenodd" class="b" d="m3277.9 394.5l28.2 65.2h-13.5l-6.3-15.2h-28.4l-6.4 15.2h-13.1l28.2-65.2zm3.6 38.5l-9.4-22.1-9.4 22.1z"/><path class="b" d="m3316.7 395h12.6v64.7h-12.6z"/><path fill-rule="evenodd" class="b" d="m3402.7 459.7h-15l-15.4-21.9h-12.4v21.9h-12.7v-64.7h28.7c14.8 0 24 8 24 20.9 0 9.5-5.2 16.6-14.3 19.6zm-42.8-33.5h15.2c7.4 0 12-3.7 12-9.8 0-6.2-4.3-9.6-12.1-9.6h-15.1z"/><path class="b" d="m3187.9 395v12.3h19.7v52.4h13v-52.4h19.7v-12.3z"/><path class="b" d="m1923.1 131.3c-0.1 3.5-2.5 6.1-5.8 6.1-3.5 0-6-2.7-6-6.5 0-3.3 2.7-6 6-5.9 3.4 0 5.8 2.7 5.8 6.3z"/><path class="b" d="m1674.6 93.1c1.5 0.9 3.2 0.7 4.8 1.2 5.3 1.8 9.7 4.6 10.9 10.6 0.7 3.5-0.3 6.7-1.9 9.8-3.6 6.7-9.2 11.3-15.9 14.5-6.4 3-12.9 5.7-19.3 8.8-5.7 2.8-11.2 6.2-15.9 10.7-3.4 3.3-5.8 7.3-7.5 11.7-1.3 3.3-1.1 6.5 0.2 9.7 2.4 5.9 6.4 10.6 10.5 15.3 4.8 5.5 9.4 11.3 11.9 18.4 2.4 6.8 3 13.7 1.4 20.7-2.6 11.9-12.3 18.2-24.5 15.9-16.3-3-29.3-16.3-32.2-32.7 0-0.4 0.1-0.9-0.5-1.1v-5.6c0.6-0.2 0.5-0.7 0.5-1.1 0.8-4.9 2.8-9.2 5.7-13.2 2.8-4 5.7-7.8 8.5-11.7 1.5-2 2.8-4.1 4.1-6.1 5.2-7.7 5.6-16.1 3.4-24.8-1.8-6.8-1.4-13.4 1.8-19.8 7.8-16.1 20.9-25.3 37.7-29.6 2.4-0.6 5-0.4 7.2-1.6z"/><path fill-rule="evenodd" class="b" d="m1871.3 175.5c0 7.1 0 12.8 0.1 18.5 0 1.3-0.3 1.9-1.7 1.8q-3.4-0.2-6.9 0c-1.5 0.1-1.8-0.5-1.7-1.9 0.1-1.1 0.6-2.7-0.3-3.2-1-0.6-1.5 1.2-2.4 1.7-3.7 1.8-7.1 4.1-11.6 4.1-6.4 0.1-10.9-4.9-11.5-10.6-0.3-3.4-0.4-6.8 1-10.1 1.8-4.4 5.4-6.8 9.7-8.3 4.3-1.4 8.8-2.1 13.3-2.1 1.3 0 1.8-0.3 1.6-1.7-0.1-0.8-0.1-1.6-0.2-2.4-0.2-5-2.8-7.1-7.7-6.4q-5.8 0.7-11 3.4c-1.5 0.7-2.2 0.8-2.9-1-2-5.2-2.1-5.2 2.9-7.3 6.5-2.6 13.3-4.1 20.3-2.5 5.1 1.2 8.3 4.9 8.7 10 0.5 6.5 0.2 12.9 0.3 18zm-10.6 1.5h0.1c0-1-0.1-2.1 0-3.2 0.2-1.5-0.4-1.7-1.7-1.6-2.6 0.2-5.1 0.7-7.5 1.6-4.3 1.6-6.5 4.8-6.1 9.2 0.3 3 2.6 5 5.4 4.6 3.6-0.6 6.5-2.7 9.1-5.2 1.5-1.5 0.4-3.4 0.7-5.1q0-0.1 0-0.3z"/><path fill-rule="evenodd" class="b" d="m1971.6 171.8c0.1 5.2-1 10.2-3.5 14.7-4.2 7.8-12 11.1-20.8 10-8.5-1.1-14.1-7.6-15.6-14.6-2.3-9.7-1.9-19 4.3-27.5 5.9-8 19.7-9.8 27.4-3.5 5.8 4.7 7.7 11.3 8.2 18.5 0.1 0.8 0 1.6 0 2.4zm-10.4 1.3c0-7.3-0.8-10.3-3.1-13.8-2.1-3.2-4.9-4.6-8.5-4.1-3.2 0.4-5.4 2.5-6.5 5.4-2.8 7.3-3.1 14.6-0.4 22 1.4 3.7 4.3 5.9 8 6 3.4 0.2 6.2-1.5 8-4.9 2-3.6 2.4-7.4 2.5-10.6z"/><path class="b" d="m1986.9 154.6c4.5-3.7 8.7-6.6 14-7.3 2.7-0.3 5.4-0.4 7.9 1.1 2.7 1.8 3.7 4.6 4 7.5 0.8 8.4 0.3 16.7 0.4 25 0.1 4.4 0 8.7 0.1 13.1 0.1 1.3-0.3 1.9-1.7 1.8-2.3-0.2-4.6-0.1-6.9 0-1.4 0-1.7-0.4-1.7-1.7q0.1-14.8 0.1-29.6c0-1.5-0.2-3-0.5-4.5-0.5-2.6-2.2-3.7-4.8-3.2-2.9 0.5-5 2.3-7.4 3.8-2.9 2-3.5 4.6-3.4 7.9 0.2 8.5 0.1 17 0.2 25.5 0 1.3-0.2 1.9-1.7 1.8-2.4-0.1-4.8-0.1-7.1 0-1 0-1.5-0.1-1.5-1.4q0-22.5 0-45c0-1 0.2-1.3 1.3-1.2 2.4 0.1 4.9 0.1 7.3 0.1 1 0 1.4 0.2 1.4 1.3-0.1 1.5 0 3 0 5z"/><path fill-rule="evenodd" class="b" d="m1770.3 196.6c-7.8 0.2-13.6-2.8-17.1-9.3-2.7-5-3.4-10.6-3.1-16.3 0.3-6.5 2-12.5 6.3-17.6 7.7-8.9 26.4-9.8 32.6 5.6 3.9 9.8 3.5 19.8-2.1 29.1-3.8 6.3-9.9 8.8-16.6 8.5zm10.5-25.7c-0.1-2.9-0.4-7.2-2.6-11.1-1.6-2.8-4-4.8-7.4-4.8-3.4 0-6 1.7-7.6 4.7-1.4 2.4-2.1 5-2.3 7.6-0.5 5.6-0.6 11.2 2.2 16.4 3.3 6.3 11.2 6.4 14.7 0.7 2.3-3.7 2.8-7.8 3-13.5z"/><path class="b" d="m1718.5 154.5c2.6-1.9 4.9-3.8 7.5-5.1q3.7-1.9 7.8-2.2c5.9-0.5 9.8 2.9 10.5 9.1q0.5 3.6 0.5 7.3-0.1 15.2 0 30.5c0 1.2-0.2 1.8-1.6 1.7q-3.5-0.2-6.9 0c-1.6 0.1-1.9-0.4-1.9-1.9 0.1-10.1 0.1-20.2 0.1-30.3 0-1.3 0-2.6-0.4-3.8-0.8-2.7-2.2-3.7-4.8-3.1-4.2 0.9-7.4 3.6-10.4 6.6-0.7 0.6-0.4 1.4-0.4 2.2 0 9.4-0.1 18.9 0 28.3 0.1 1.7-0.4 2.1-2 2-2.1-0.2-4.3-0.1-6.4-0.1-1.2 0.1-1.7-0.2-1.7-1.5q0.1-22.3 0-44.6c0-1 0.3-1.4 1.3-1.3q3.8 0.1 7.6 0c0.9 0 1.2 0.3 1.2 1.2-0.1 1.6 0 3.1 0 5z"/><path class="b" d="m1791.4 148.2c3.4 0 6.8 0.1 10.1 0 1.3 0 1.3 1 1.5 1.8 2.8 8.9 5.6 17.9 8.5 26.8 0.6 2 0.8 4.1 2 5.9 3.2-10.9 6.4-21.8 9.5-32.6 0.4-1.5 1-2 2.5-1.9q3.1 0.2 6.2 0c1.7-0.1 2.1 0.2 1.5 2-3.1 9.3-6 18.7-9.1 28.1-1.7 5.4-3.6 10.8-5.4 16.2-0.3 1-0.7 1.3-1.6 1.3-2.9-0.1-5.8-0.1-8.6 0-0.9 0-1.3-0.4-1.6-1.1q-7.7-22.8-15.4-45.7c-0.1-0.2-0.1-0.4-0.1-0.8z"/><path class="b" d="m1883.9 171.8c0-4.9-0.1-9.8 0-14.8 0.1-1.4-0.4-1.9-1.7-1.7q-0.1 0-0.3 0c-5.7 0-5.7 0-5.4-5.9 0.1-1.1 0.4-1.3 1.4-1.3 1.4 0.1 2.9 0 4.3 0.1 1.5 0.2 1.8-0.4 1.7-1.8-0.1-3.1 0.1-6.2 0-9.3-0.1-1.4 0.2-2 1.7-1.9q3.4 0.2 6.9 0c1.4-0.1 1.6 0.5 1.6 1.7-0.1 3.1 0.1 6.3-0.1 9.4 0 1.6 0.5 1.9 2 1.8 3-0.1 6.1 0 9.2-0.1 1.1 0 1.6 0.4 1.5 1.5-0.1 1.2-0.2 2.4 0 3.5 0.4 2.2-0.8 2.7-2.6 2.6-2.9-0.1-5.7-0.1-8.6-0.3-1.1 0-1.4 0.3-1.4 1.5 0 8.8 0 17.6 0 26.5 0 0.8 0.1 1.7 0.4 2.5 0.5 1.6 1.4 2.5 3.4 1.8 2.1-0.7 3.8-2.1 5.6-3.3 0.9-0.7 1.6-0.9 2.1 0.4 0.2 0.4 0.4 0.7 0.6 1.1 2.5 3.9 2.5 3.8-1.2 6.4-3.3 2.3-6.7 3.9-10.7 4.6-4.9 0.8-9-1.9-9.9-6.8-0.6-2.8-0.5-5.6-0.5-8.4q0-4.9 0-9.8z"/><path class="b" d="m1912.1 176.6c-0.2-6.4 0.3-12.9-0.1-19.3-0.2-2.7 0.1-5.3 0.1-8 0-0.9 0.3-1.2 1.1-1.2 2.6 0 5.2 0 7.7-0.2 1.4-0.1 1.7 0.4 1.7 1.7q-0.2 17.8-0.3 35.6c0 2.9 0.1 5.8 0.2 8.7 0.1 1.3-0.2 2-1.8 1.9-2.4-0.2-4.8-0.1-7.3 0-0.8 0-1.3-0.1-1.3-1.2 0.1-6 0-12 0-18z"/><path class="b" d="m2061.3 172.8c4.9 0 9.6 0 14.2-0.1 1.7 0 2 0.4 1.4 2-1.7 4.6-1.7 4.6-6.5 4.6q-6.5 0-13.1 0c-3.7 0-4.9-1.6-3.7-5.1 2.4-6.7 4.8-13.4 7.3-20.1 1.1-2.8 3.2-4.6 6.2-4.6 5.7-0.1 11.3 0 17 0 1.5 0 1.8 0.4 1.3 1.8-1.8 4.8-1.7 4.8-6.7 4.8-3.3 0-6.7 0-10.1-0.1-1.1 0-1.6 0.5-2 1.5-0.5 1.3-0.4 2 1.2 2 4.1-0.1 8.2 0 12.3-0.1 1.6 0 2.3 0.1 1.6 2.1-1.6 4.5-1.5 4.6-6.4 4.5-3.4 0-6.8 0.1-10.1 0-1.2 0-1.9 0.4-2.2 1.6-0.5 1.6-1.1 3.2-1.7 5.2z"/><path class="b" d="m2116.1 159.5c3.6 0 6.9 0 10.2 0 1 0.1 1.5-0.3 1.8-1.3 0.8-2.3 1.8-4.6 2.5-6.9 0.4-1.3 1-1.8 2.5-1.8 5 0.1 5.1 0 3.3 4.9-2.7 7.7-5.6 15.4-8.3 23.2-0.4 1.3-1.1 1.8-2.4 1.8-5.1-0.1-5.1 0-3.4-4.7 0.7-2.3 1.5-4.6 2.4-6.8 0.6-1.4 0.6-2-1.2-1.9-2.7 0.1-5.5 0.1-8.2 0-1.2 0-1.8 0.4-2.2 1.5-1.1 3.4-2.4 6.7-3.5 10-0.4 1.3-1 1.8-2.4 1.9-5.4 0-5.3 0.1-3.5-4.9 2.8-7.6 5.6-15.2 8.2-22.8 0.6-1.6 1.3-2.2 3.1-2.2 4.6 0.2 4.6 0.1 3.1 4.5-0.7 1.7-1.3 3.5-2 5.5z"/><path class="b" d="m2100.7 149.5c2.9 0 5.8 0.1 8.7 0 1.2 0 1.6 0.2 1.1 1.6-1.7 4.9-1.7 5-6.9 5-3.3 0-6.6 0-9.9-0.1-1 0-1.6 0.2-1.9 1.3q-2.5 7-5.1 14c-0.5 1.4 0.1 1.5 1.1 1.5 4.3-0.1 8.6 0 12.9-0.1 1.4 0 2 0.2 1.4 1.8-1.7 4.7-1.6 4.8-6.6 4.9q-6.7 0-13.5-0.1c-3.1 0-4.4-1.8-3.3-4.7 2.4-7 4.9-13.9 7.5-20.8 1-2.8 3.3-4.3 6.4-4.3 2.7 0.1 5.4 0.1 8.1 0.1z"/><path class="b" d="m2048 149.5c3.8 0 7.6 0.1 11.4 0 1.1 0 1.4 0.4 1 1.4q-0.1 0.1-0.1 0.2c-1.7 5-1.7 5-6.9 5-3.7 0-3.7 0-5 3.5-2.2 6.1-4.5 12.2-6.6 18.4-0.4 1.2-1 1.6-2.2 1.4-0.2-0.1-0.4-0.1-0.6-0.1-1.4-0.2-3.4 0.9-4.2-0.4-0.6-1 0.7-2.7 1.1-4 2-5.6 4-11.2 6.1-16.7 0.7-1.9 0.2-2.3-1.6-2.2-1.8 0.2-3.6 0-5.4 0.1-1.7 0.1-1.8-0.6-1.3-2 1.6-4.6 1.5-4.6 6.3-4.6q4 0.1 8 0z"/><path class="b" d="m1729.7 217.6c0-5.6 3.7-11.3 9.1-11.3 2 0 3.5 1.2 4.4 2.7l-1.5 1.1c-0.7-1.2-1.6-1.9-3-1.9-4.2 0-6.8 4.9-6.8 9.2 0 3.3 1.3 5.6 4.5 5.6 1.4 0 2.6-0.6 3.7-1.6l1 1.4c-1.4 1.1-3 2-5.1 2-4 0-6.3-2.9-6.3-7.2z"/><path fill-rule="evenodd" class="b" d="m1745.2 219.5c0-5 3.5-8.5 7.1-8.5 2.8 0 4.6 2 4.6 5.3 0 5-3.4 8.5-7 8.5-2.8 0-4.7-2-4.7-5.3zm9.7-3.1c0-2.4-1-3.7-2.8-3.7-2.4 0-4.8 3-4.8 6.7 0 2.4 1 3.7 2.8 3.7 2.4 0 4.8-3 4.8-6.7z"/><path class="b" d="m1762.7 211.3h1.7l-0.2 2h0.1c1.3-1.3 2.9-2.3 4.3-2.3 2 0 2.8 1.1 3 2.5 1.6-1.6 3.2-2.5 4.6-2.5 2.2 0 3.1 1.2 3.1 3.2 0 0.7-0.1 1.1-0.2 1.9l-1.7 8.4h-2.1l1.7-8.2c0.1-0.7 0.2-1 0.2-1.5 0-1.3-0.6-2-1.9-2-0.8 0-2.2 0.7-3.7 2.3l-1.9 9.4h-2l1.6-8.2c0.2-0.7 0.2-1 0.2-1.5 0-1.3-0.6-2-1.9-2-0.7 0-2.1 0.7-3.6 2.3l-1.9 9.4h-2z"/><path fill-rule="evenodd" class="b" d="m1784.5 225.7l-0.8 4.3h-2.1l3.8-18.7h1.7l-0.2 1.7h0.1c1.3-1.1 2.9-2 4.5-2 2.3 0 3.7 1.7 3.7 4.7 0 5.1-3.4 9.1-7 9.1-1.4 0-2.5-0.8-3.1-1.9h-0.1zm2.2-10.9l-1.3 6.3c0.8 1.4 1.7 1.9 2.7 1.9 2.6 0 5-3.3 5-7 0-2.2-0.9-3.3-2.4-3.3-1.2 0-2.8 0.8-4 2.1z"/><path fill-rule="evenodd" class="b" d="m1798.5 219.5c0-5 3.5-8.5 7.1-8.5 2.8 0 4.7 2 4.7 5.3 0 5-3.5 8.5-7.1 8.5-2.8 0-4.7-2-4.7-5.3zm9.7-3.1c0-2.4-1-3.7-2.8-3.7-2.4 0-4.8 3-4.8 6.7 0 2.4 1 3.7 2.8 3.7 2.4 0 4.8-3 4.8-6.7z"/><path class="b" d="m1812.5 222.3l1.2-1c0.8 1.1 2 1.9 3.4 1.9 1.5 0 2.8-1 2.8-2.2 0-0.9-0.6-1.5-2.4-2.5-2-1.1-3-2.1-3-3.6 0-2.3 2-3.9 4.5-3.9 1.6 0 2.9 0.7 3.8 1.7l-1.2 1.2c-0.7-0.7-1.5-1.3-2.7-1.3-1.4 0-2.5 0.9-2.5 2.1 0 1.1 1.2 1.6 2.4 2.3 2.3 1.3 3 2.3 3 3.7 0 2.5-2.1 4.1-4.9 4.1-1.7 0-3.6-1.1-4.4-2.5z"/><path class="b" d="m1828.4 207.3c0-0.9 0.7-1.6 1.6-1.6 0.7 0 1.3 0.5 1.3 1.3 0 0.9-0.7 1.6-1.6 1.6-0.7 0-1.3-0.5-1.3-1.3zm-0.4 4h2.1l-2.7 13.2h-2z"/><path class="b" d="m1834 221.9c0-0.6 0.1-1 0.1-1.5l1.6-7.4h-2l0.4-1.6 2-0.1 1-3.7h1.7l-0.7 3.7h3.3l-0.3 1.7h-3.4l-1.5 7.5q-0.1 0.5-0.1 1c0 1.1 0.4 1.6 1.7 1.6 0.5 0 0.9-0.2 1.3-0.4l0.5 1.5c-0.6 0.3-1.5 0.6-2.5 0.6-2.3 0-3.1-1.3-3.1-2.9z"/><path fill-rule="evenodd" class="b" d="m1849.8 211c2.9 0 4 2 4 4.7 0 1.1-0.3 2.1-0.5 2.6h-8.4c-0.5 3.4 1.2 4.9 3.5 4.9 1 0 2.1-0.6 2.9-1.2l0.8 1.4c-1 0.8-2.5 1.4-4.2 1.4-3.1 0-5.1-2-5.1-5.5 0-5 3.6-8.3 7-8.3zm2.1 5.9c0.1-0.4 0.2-0.8 0.2-1.3 0-1.6-0.7-3-2.6-3-1.9 0-3.8 1.7-4.4 4.3z"/><path class="b" d="m1869.9 208.5h-5.1l0.3-1.8h12.4l-0.4 1.8h-5.1l-3.2 16h-2z"/><path fill-rule="evenodd" class="b" d="m1883 211c3 0 4.1 2 4.1 4.7 0 1.1-0.3 2.1-0.5 2.6h-8.5c-0.5 3.4 1.3 4.9 3.6 4.9 1 0 2.1-0.6 2.9-1.2l0.8 1.4c-1.1 0.8-2.5 1.4-4.2 1.4-3.1 0-5.1-2-5.1-5.5 0-5 3.5-8.3 6.9-8.3zm2.2 5.9c0.1-0.4 0.1-0.8 0.1-1.3 0-1.6-0.6-3-2.5-3-1.9 0-3.8 1.7-4.5 4.3z"/><path class="b" d="m1890.2 219.5c0-4.9 3.5-8.5 7.3-8.5 1.5 0 2.6 0.7 3.4 1.6l-1.3 1.3c-0.6-0.8-1.2-1.2-2.3-1.2-2.6 0-5 3.1-5 6.7 0 2.4 1 3.7 3.1 3.7 1.1 0 2.1-0.6 2.9-1.2l0.9 1.4c-1 0.7-2.3 1.5-4.2 1.5-2.8 0-4.8-1.9-4.8-5.3z"/><path class="b" d="m1906.7 205.1h2.1l-1.3 6.4-0.4 1.7h0.1c1.5-1.3 2.9-2.2 4.5-2.2 2.2 0 3.1 1.2 3.1 3.2 0 0.7-0.1 1.1-0.2 1.9l-1.7 8.4h-2.1l1.7-8.2c0.1-0.7 0.2-1 0.2-1.5 0-1.3-0.6-2-2-2-1 0-2.2 0.7-3.9 2.3l-1.8 9.4h-2.1z"/><path class="b" d="m1920.7 211.3h1.7l-0.2 2h0.1c1.4-1.3 2.9-2.3 4.5-2.3 2.2 0 3.1 1.2 3.1 3.2 0 0.7 0 1.1-0.2 1.9l-1.6 8.4h-2.1l1.6-8.2c0.2-0.7 0.2-1 0.2-1.5 0-1.3-0.6-2-1.9-2-1 0-2.3 0.7-3.9 2.3l-1.9 9.4h-2z"/><path fill-rule="evenodd" class="b" d="m1933.6 219.5c0-5 3.5-8.5 7.1-8.5 2.8 0 4.6 2 4.6 5.3 0 5-3.5 8.5-7 8.5-2.9 0-4.7-2-4.7-5.3zm9.6-3.1c0-2.4-1-3.7-2.8-3.7-2.4 0-4.7 3-4.7 6.7 0 2.4 1 3.7 2.8 3.7 2.4 0 4.7-3 4.7-6.7z"/><path class="b" d="m1948.8 223.1q0-0.5 0.1-1.1l3.4-16.9h2l-3.3 17c-0.1 0.2-0.1 0.4-0.1 0.5q0 0.5 0.5 0.5c0.1 0 0.2 0 0.4-0.1v1.6c-0.3 0.1-0.7 0.2-1.3 0.2-1.1 0-1.7-0.6-1.7-1.7z"/><path fill-rule="evenodd" class="b" d="m1956.5 219.5c0-5 3.5-8.5 7.1-8.5 2.8 0 4.6 2 4.6 5.3 0 5-3.4 8.5-7 8.5-2.8 0-4.7-2-4.7-5.3zm9.7-3.1c0-2.4-1-3.7-2.8-3.7-2.4 0-4.8 3-4.8 6.7 0 2.4 1 3.7 2.8 3.7 2.4 0 4.8-3 4.8-6.7z"/><path fill-rule="evenodd" class="b" d="m1970.5 228.7l1-1.4c0.9 0.9 2.2 1.6 3.6 1.6 2.3 0 3.6-1.6 4.1-4l0.7-2.8c-1.4 1.4-2.9 2.2-4.5 2.2-2.2 0-3.8-1.5-3.8-4.6 0-4.8 3.4-8.7 6.9-8.7 1.4 0 2.5 0.7 3.1 2h0.1l0.5-1.7h1.7l-2.7 13.8c-0.7 3.5-2.9 5.5-6.1 5.5-1.8 0-3.4-0.8-4.6-1.9zm9.6-8.4l1.1-5.6c-0.8-1.4-1.7-2-2.6-2-2.6 0-4.9 3.3-4.9 6.7 0 2.1 0.9 3.2 2.3 3.2 1.3 0 2.8-0.8 4.1-2.3z"/><path class="b" d="m1984.3 229.8l0.7-1.6q0.5 0.3 1 0.3c1.3 0 2.5-1.2 3.4-3l0.5-1-2.3-13.2h2.1l1 7.4c0.2 1.2 0.3 2.7 0.4 3.9h0.2c0.6-1.2 1.2-2.6 1.9-3.9l3.8-7.4h2l-7.7 14.3c-1.4 2.6-2.9 4.6-5.5 4.6-0.3 0-0.9-0.2-1.5-0.4z"/><path class="b" d="m1103.1 108.4h-25.4l-37.9 93.5h25.4z"/><path class="b" d="m1108.9 111.3l-12.7 31.5 23.9 59.1h26.9z"/><path class="b" d="m1192.9 135.3q-6.8 0-12.3 2.8-5.4 2.8-8.8 8.1v-9.3h-19.3v65h19.8v-36.4q0-6.6 3.8-10.6 3.7-4 9.9-4 5.1 0 7.5 3.1 2.4 3 2.4 9.7v38.2h19.8v-39.2q0-13.7-5.6-20.6-5.7-6.8-17.2-6.8z"/><path class="b" d="m1263.1 163.7l-10.9-2.6q-3.9-1-5.5-2.2-1.6-1.2-1.6-3.3 0-2.9 2.7-4.5 2.6-1.6 7.2-1.6 9.9 0 20.2 7.1l5.2-13.2q-5.2-3.8-11.8-5.9-6.5-2.2-13.5-2.2-8.1 0-14.5 2.7-6.3 2.6-9.8 7.3-3.5 4.6-3.5 10.7 0 7.7 4.4 12.1 4.4 4.4 13.7 6.6l10.5 2.3q4.9 1.1 6.6 2.4 1.8 1.4 1.8 3.7 0 2.7-2.6 4.2-2.5 1.5-7.1 1.5-6.4 0-12.7-2-6.3-1.9-11.6-5.5l-5.2 13.8q5.4 3.8 12.8 5.8 7.4 2.1 16.3 2.1 13 0 20.4-5.4 7.4-5.3 7.4-14.7 0-7.8-4.5-12.4-4.6-4.6-14.4-6.8z"/><path class="b" d="m1409.3 170.5q-4.5-4.6-14.4-6.8l-10.8-2.6q-4-1-5.5-2.2-1.6-1.2-1.6-3.3 0-2.9 2.6-4.5 2.6-1.6 7.2-1.6 10 0 20.2 7.1l5.2-13.2q-5.2-3.8-11.8-5.9-6.5-2.2-13.5-2.2-8.1 0-14.4 2.7-6.4 2.6-9.9 7.3-3.4 4.6-3.4 10.7 0 7.7 4.4 12.1 4.3 4.4 13.6 6.6l10.5 2.3q4.9 1.1 6.7 2.4 1.7 1.4 1.7 3.7 0 2.7-2.5 4.2-2.6 1.5-7.2 1.5-6.4 0-12.7-2-6.3-1.9-11.5-5.5l-5.3 13.8q5.4 3.8 12.8 5.8 7.4 2.1 16.3 2.1 13 0 20.4-5.4 7.4-5.3 7.4-14.7 0-7.8-4.5-12.4z"/><path class="b" d="m1336.6 137l-15.5 38.1-15.5-38.1h-19.1l25 61.7-10.9 27.1h19.1l36-88.8z"/><path class="b" d="m2333.1 167.2c-1.6 0-2.8-1.6-2.8-3.1v-33.9c0-1.2 1.2-2.7 2.8-2.7h73.5c1.3 0 2.8 1.5 2.8 2.7v14c0 1.6-1.5 3.1-2.8 3.1h-23.9c-1.5 0-3.1-1.5-3.1-3.1v-4.9c0-1-0.9-1.9-1.8-1.9h-15.9c-0.9 0-2.1 0.9-2.1 1.9v15.8c0 0.9 1.2 2.2 2.1 2.2h54.4c2.1 0 3.1 0.9 3.1 2.8v43.7c0 1.6-1.6 2.8-3.1 2.8h-93.2c-1.5 0-2.8-1.2-2.8-2.8v-23.9c0-1.5 1.3-2.8 2.8-2.8h23.9c1.6 0 2.8 1.3 2.8 2.8v14.9c0 1 1.3 1.9 2.2 1.9h35.7c0.9 0 1.9-0.9 1.9-1.9v-25.7c0-1-1-1.9-1.9-1.9z"/><path class="b" d="m2439.2 159.1v15.9c0 0.9-0.9 1.5-2.1 2.1q-2.8 0.5-2.8 2.8v23.9c0 1.6 1.2 2.8 2.8 2.8h28.8c1.6 0 2.8-1.2 2.8-2.8v-26.4c0-0.3 0.7-0.6 1-0.3l28.2 28.9c0.6 0.6 1 0.6 1.9 0.6h35.4c1.5 0 3.1-1.2 3.1-2.8v-23.9c0-1.5-1.6-2.8-3.1-2.8h-25.8c-0.6 0-0.9 0-1.2-0.6l-19.3-18.9c0-0.3-0.3-0.3 0-0.7l9.3-9.3c0.3-0.3 0.7-0.3 1.3-0.3h26.1c1.2 0 2.8-1.5 2.8-3.1v-14c0-1.2-1.6-2.7-2.8-2.7h-25.8c-0.9 0-1.3 0.3-1.9 0.9l-27.9 28.5c-0.6 0.4-1.3 0.4-1.3-0.3v-26.4c0-1.2-1.2-2.7-2.8-2.7h-28.8c-1.6 0-2.8 1.5-2.8 2.7v24c0 1.5 0.9 2.4 2.5 2.7 1.8 0.7 2.4 1.3 2.4 2.2z"/><path class="b" d="m2553.2 203.8c0 1.6 1.5 2.8 3.1 2.8h28.6c1.5 0 3.1-1.2 3.1-2.8v-23.6c0-1.5-1-2.8-2.8-3.1-1.6-0.6-2.2-0.9-2.2-2.1v-5.9c0-1 0.9-1.9 1.9-1.9h10.8c1.3 0 2.2 0.9 2.2 1.9 0 1.5 1.5 3.1 2.8 3.1h23.9c1.5 0 3.1-1.6 3.1-3.1v-14c0-1.6-1.6-2.8-3.1-2.8h-23.9c-1.3 0-2.8 1.2-2.8 2.8 0 0.9-0.9 2.2-2.2 2.2h-10.8c-1 0-1.9-1.3-1.9-2.2v-15.8c0-1 0.9-1.9 1.9-1.9h30.7c0.9 0 2.2 0.9 2.2 1.9v4.9c0 1.6 1.2 3.1 2.8 3.1h33.8c1.6 0 2.8-1.5 2.8-3.1v-14c0-1.2-1.2-2.7-2.8-2.7h-98.1c-1.6 0-3.1 1.5-3.1 2.7v24c0 1.5 1.2 2.4 2.8 2.7 1.2 0.4 2.2 1.3 2.2 2.2v15.9c0 0.9-0.7 1.8-2.2 2.1q-2.8 0.5-2.8 2.8z"/><path fill-rule="evenodd" class="b" d="m396 128.3c0 8.4-15.6 15.2-34.9 15.2-19.3 0-35-6.8-35-15.2 0-8.3 15.7-15.1 35-15.1 19.3 0 34.9 6.8 34.9 15.1zm-15.2 0.1c0-5.6-8.9-10.1-19.7-10.1-10.9 0-19.7 4.5-19.7 10.1 0 5.6 8.8 10.1 19.7 10.1 10.8 0 19.7-4.5 19.7-10.1z"/><path class="b" d="m484.4 112.7h-17.6v30.7h17.6z"/><path class="b" d="m856.9 157.9l-33.9-0.5-32-0.1h-30.8l-30.8 0.5-30.9 0.8-31.6 1.3-50.2 2.9-50.5 4.3-50.1 5.4-37.9 4.9-37.4 5.7-36.6 6.2-36.2 6.8-36.5 7.5-37.8 8.3-35.3 7.8-3.3 1 31.5-9.1 31.2-8.4 30.1-7.7 29.8-6.9 30.3-6.1 30.8-5.4 49.6-7.2 50.4-5.6 50.7-4.5 50.6-3.3 50.1-2 49.2-0.6 28.6 0.4 28.4 0.8 29.3 1.3 28.2 1.4z"/><path fill-rule="evenodd" class="b" d="m854.4 122.6c0.1 10.3-16.2 9-16.2 9h-33.6v11.9h-16v-30.8h49.6c0 0 16.2-0.7 16.2 9.9zm-19 0.4c-0.2-4.3-4.4-3.9-4.4-3.9h-26.4v8.7h26.4c2 0 4.5-0.6 4.4-4.8z"/><path class="b" d="m757.8 112.7h19.7v30.8h-13v-22.9l-20.5 22.9h-11.9l-20.5-22.9v22.9h-12.9v-30.8h19.6l19.7 24.5 1-0.9z"/><path class="b" d="m602.3 143.4v-25.6h24.6v-5.1h-62.6v5.1h24.6v25.6z"/><path class="b" d="m497.3 136.9h40.4c0 0 6.1 0.7 6.1-3.7 0-4.3-6.1-4-6.1-4h-29.3c0 0-14.6 1.2-14.6-8.4 0-9.3 13.9-8.1 13.9-8.1h47.5v5.4h-40c0 0-4.5-0.6-4.5 3 0 3.6 4.5 3 4.5 3h28.6c0 0 18.2-0.9 18.2 8.5 0 11.3-18.2 10.8-18.2 10.8h-46.5z"/><path class="b" d="m421.8 143.4h35.5v-5.6h-26.9c-8.3 0-7.7-5.4-7.7-5.4v-19.7h-18.7v19.7c0 0-0.2 11 17.8 11z"/><path fill-rule="evenodd" class="b" d="m693.4 143.5h-12.2l-8.1-8.9h-27.3l-8.1 8.9h-12.2l26.2-30.8h15.5zm-32.5-21.7l-0.8-1-7.4 9.4h14.7z"/><path fill-rule="evenodd" class="b" d="m319.5 121.7c0 10.3-20.2 9.8-20.2 9.8h-29.4v12h-16v-30.8h46c0 0 19.6-0.9 19.6 9zm-17.8-0.8c0-4.4-4.3-4.2-4.3-4.2h-27.5v8.3h27.5c0 0 4.3 0.3 4.3-4.1z"/><path class="b" d="m593.7 215.5l-4.5 5.8h-11.1q-2.9 0-5.4-0.9-2.4-0.9-4.2-2.4-1.8-1.5-2.8-3.6-1-2-1-4.5 0-2.4 1-4.4 1-2 2.8-3.5 1.8-1.4 4.2-2.2 2.5-0.8 5.4-0.8h15.6l-4.5 5.8h-11.1q-1.4 0-2.6 0.4-1.2 0.4-2.1 1.1-0.8 0.7-1.3 1.7-0.5 1-0.5 2.2 0 1.2 0.4 2.2 0.5 1 1.4 1.7 0.9 0.7 2.1 1.1 1.2 0.3 2.6 0.3z"/><path fill-rule="evenodd" class="b" d="m614.9 198.7q8.1 0 12.2 2.7 4.1 2.8 4.1 8.7 0 6-4.1 8.8-4 2.7-12.2 2.7-8.2 0-12.2-2.7-4-2.8-4-8.8 0-5.9 4-8.7 4.1-2.7 12.2-2.7zm0 17.1q2.6 0 4.4-0.2 1.8-0.2 2.9-0.8 1.1-0.6 1.6-1.8 0.5-1.1 0.5-2.9 0-1.8-0.5-2.9-0.5-1.1-1.6-1.7-1.1-0.6-2.9-0.8-1.8-0.2-4.4-0.2-2.6 0-4.4 0.2-1.8 0.2-2.9 0.8-1.1 0.6-1.6 1.7-0.5 1.1-0.5 2.9 0 1.8 0.5 2.9 0.5 1.2 1.6 1.8 1.1 0.6 2.9 0.8 1.8 0.2 4.4 0.2z"/><path class="b" d="m652.4 207.3q0.7 1.3 1.2 2.3 0.6 1 1 1.7 0.4 0.8 0.7 1.4 0.3 0.7 0.6 1.3 0.3-0.6 0.6-1.3 0.3-0.6 0.8-1.4 0.4-0.7 0.9-1.7 0.6-1 1.3-2.3l3.6-6.3q0.6-1 1.5-1.7 0.9-0.6 2.2-0.6 1.3 0 2.4 0.7 1 0.8 1.5 2.3l5.6 19.6h-6.8l-2.1-7.8q-0.6-1.9-0.9-3.3-0.4-1.4-0.7-2.8-0.5 1.2-1.2 2.6-0.7 1.4-1.8 3.6l-3 5.5q-0.5 0.9-0.9 1.3-0.5 0.5-0.9 0.8-0.5 0.3-1 0.3-0.6 0.1-1.2 0.1-0.6 0-1.2-0.1-0.5 0-0.9-0.3-0.5-0.3-1-0.8-0.4-0.4-0.8-1.3l-3-5.6q-0.6-1.1-1.1-2-0.5-0.9-0.8-1.6-0.4-0.7-0.7-1.3-0.3-0.6-0.6-1.2-0.2 1.3-0.6 2.8-0.4 1.4-0.8 3.3l-2.1 7.8h-6.8l5.8-19.6q0.4-1.5 1.5-2.3 1.1-0.7 2.3-0.7 1.4 0 2.3 0.6 0.9 0.6 1.5 1.7z"/><path class="b" d="m711.5 207.4q0 1.8-0.7 3.3-0.8 1.6-2.2 2.6-1.4 1.1-3.4 1.7-2.1 0.6-4.6 0.6h-11.7v5.7h-6.8v-11.4h19.1q1.6 0 2.5-0.7 0.9-0.7 0.9-1.9 0-1.1-0.9-1.8-0.9-0.7-2.5-0.7h-19.1l4.5-5.8h14q2.6 0 4.6 0.7 2 0.6 3.4 1.7 1.4 1.1 2.2 2.6 0.7 1.5 0.7 3.4z"/><path fill-rule="evenodd" class="b" d="m733.8 198.7q8.1 0 12.2 2.7 4.1 2.8 4.1 8.7 0 6-4.1 8.8-4 2.7-12.2 2.7-8.1 0-12.2-2.7-4-2.8-4-8.8 0-5.9 4.1-8.7 4-2.7 12.1-2.7zm0 17.1q2.6 0 4.4-0.2 1.8-0.2 2.9-0.8 1.1-0.6 1.6-1.8 0.5-1.1 0.5-2.9 0-1.8-0.5-2.9-0.5-1.1-1.6-1.7-1.1-0.6-2.9-0.8-1.8-0.2-4.4-0.2-2.5 0-4.3 0.2-1.8 0.2-2.9 0.8-1.2 0.6-1.7 1.7-0.5 1.1-0.5 2.9 0 1.8 0.5 2.9 0.5 1.2 1.7 1.8 1.1 0.6 2.9 0.8 1.8 0.2 4.3 0.2z"/><path class="b" d="m777.5 207.9q4.1 0 6.2 1.5 2.1 1.5 2.1 4.6 0 1.7-0.5 3-0.5 1.4-1.7 2.3-1.2 1-3 1.5-1.8 0.5-4.3 0.5h-20.7l4.4-5.8h16.8q1.3 0 1.8-0.3 0.6-0.4 0.6-1.3 0-0.8-0.6-1.2-0.5-0.4-1.8-0.4h-12.1q-2.1 0-3.7-0.4-1.5-0.5-2.6-1.3-1-0.9-1.5-2-0.5-1.2-0.5-2.7 0-1.5 0.5-2.8 0.6-1.3 1.7-2.2 1.2-0.9 3-1.4 1.8-0.5 4.3-0.5h19.3l-4.4 5.8h-15.4q-1.2 0-1.8 0.3-0.6 0.4-0.6 1.2 0 0.9 0.6 1.3 0.6 0.3 1.8 0.3z"/><path class="b" d="m799.2 199h-6.9v22.3h6.9z"/><path class="b" d="m834.4 199l-4.5 5.8h-7.9v16.5h-6.9v-16.5h-10.4l4.5-5.8z"/><path class="b" d="m846.8 199h-6.9v22.3h6.9z"/><path class="b" d="m2840.1 109.1h19.4v96.8h-19.4z"/><path class="b" d="m2878.8 109.1h19.4v65.5h-19.4z"/><path class="b" d="m2917.5 109.1h19.4v96.8h-19.4z"/><path fill-rule="evenodd" class="b" d="m2879.1 197.2h1.9q0.5 0 0.9 0.2 0.3 0.2 0.6 0.5 0.3 0.4 0.5 0.9 0.2 0.4 0.2 0.9 0 0.9-0.4 1.6-0.4 0.6-1 0.8-0.3 0.1-0.7 0.2-0.3 0-0.7 0c0 0.1 0 3.5 0 3.5q-0.1 0.1-0.3 0.1h-1.1q-0.1 0-0.1-0.1-0.1 0-0.1-0.1v-8.3q0-0.1 0.1-0.2 0 0 0.2 0zm1.3 3.6h0.5q0.2 0 0.4-0.1 0.1-0.2 0.3-0.4 0.1-0.2 0.1-0.6 0-0.3-0.1-0.6-0.1-0.1-0.3-0.2-0.1-0.2-0.4-0.2c-0.1 0-0.3 0-0.4 0q-0.1 0-0.1 0z"/><path fill-rule="evenodd" class="b" d="m2886.9 197.4q0.3 0.2 0.6 0.5 0.4 0.3 0.5 0.8 0.2 0.4 0.2 0.9v3.9q0 0.4-0.2 0.9-0.1 0.4-0.4 0.7-0.3 0.4-0.7 0.6-0.4 0.2-0.9 0.2-0.4 0-0.8-0.2-0.4-0.2-0.7-0.5-0.3-0.4-0.5-0.8-0.1-0.4-0.1-0.9v-3.9q0-0.5 0.1-0.9 0.2-0.4 0.4-0.8 0.3-0.3 0.7-0.5 0.4-0.2 0.9-0.2 0.5 0 0.9 0.2zm-0.3 1.9q-0.1-0.2-0.1-0.3-0.1-0.1-0.2-0.2-0.1-0.1-0.3-0.1-0.1 0-0.2 0.1-0.2 0.1-0.2 0.2-0.1 0.1-0.2 0.3 0 0.1 0 0.2v4.1q0 0.3 0.2 0.5 0.1 0.2 0.4 0.2 0.3 0 0.5-0.2 0.1-0.2 0.1-0.5c0-0.1 0-4.2 0-4.3z"/><path class="b" d="m2889 197.2q-0.1 0-0.1 0 0 0.1 0 0.2v8.2q0 0.2 0 0.2 0 0.1 0.2 0.1h3.9q0.1 0 0.2-0.1 0 0 0-0.1v-1.2q0-0.1 0-0.2-0.1 0-0.2 0h-2.6v-6.9q0-0.2 0-0.2-0.1 0-0.2 0z"/><path fill-rule="evenodd" class="b" d="m2896.9 197.4q0.4 0.2 0.7 0.5 0.3 0.3 0.4 0.8 0.2 0.4 0.2 0.9v3.9q0 0.4-0.2 0.9-0.1 0.4-0.4 0.7-0.3 0.4-0.7 0.6-0.4 0.2-0.9 0.2-0.4 0-0.8-0.2-0.4-0.2-0.7-0.5-0.3-0.4-0.5-0.8-0.1-0.4-0.1-0.9v-3.9q0-0.5 0.1-0.9 0.2-0.4 0.5-0.8 0.2-0.3 0.6-0.5 0.4-0.2 0.9-0.2 0.5 0 0.9 0.2zm-0.3 1.9q0-0.2-0.1-0.3-0.1-0.1-0.2-0.2-0.1-0.1-0.3-0.1-0.1 0-0.2 0.1-0.2 0.1-0.2 0.2-0.1 0.1-0.1 0.3-0.1 0.1-0.1 0.2v4.1q0 0.3 0.2 0.5 0.1 0.2 0.4 0.2 0.3 0 0.5-0.2 0.1-0.2 0.1-0.5c0-0.1 0-4.2 0-4.3z"/><path fill-rule="evenodd" class="b" d="m2911 211.7h-1.9q-0.2 0-0.2 0 0 0 0 0.2v13q0 0.2 0 0.2 0 0.1 0.2 0.1h1.9q0.2 0 0.2-0.1 0 0 0-0.1v-6.2l2.3 6.1q0.1 0.2 0.1 0.3 0.1 0 0.2 0h1.9q0.2 0 0.2 0 0.1-0.1 0.1-0.2v-13.1q0-0.2-0.1-0.2 0 0-0.2 0h-1.9q-0.2 0-0.2 0-0.1 0-0.1 0.2v6.3l-2.2-6.3q-0.1-0.2-0.1-0.2-0.1 0-0.2 0z"/><path fill-rule="evenodd" class="b" d="m2905.7 211.9q0.6 0.3 1.1 0.8 0.5 0.6 0.7 1.3 0.3 0.7 0.3 1.4v6.1q0 0.6-0.2 1.3-0.3 0.7-0.7 1.2-0.5 0.5-1.1 0.8-0.6 0.4-1.4 0.4-0.7 0-1.3-0.3-0.6-0.3-1.1-0.8-0.4-0.5-0.7-1.2-0.3-0.7-0.3-1.5v-6.1q0-0.6 0.3-1.3 0.2-0.7 0.7-1.2 0.4-0.5 1-0.9 0.7-0.3 1.4-0.3 0.7 0 1.3 0.3zm-0.3 3.3q0-0.2-0.1-0.4-0.1-0.2-0.2-0.4-0.1-0.1-0.3-0.3-0.2-0.1-0.4-0.1-0.2 0-0.4 0.1-0.2 0.2-0.3 0.3-0.1 0.2-0.2 0.4-0.1 0.2-0.1 0.4v6.4q0 0.4 0.3 0.8 0.2 0.4 0.7 0.4 0.5 0 0.7-0.4 0.3-0.3 0.3-0.8z"/><path fill-rule="evenodd" class="b" d="m2893.5 211.6h3.1q0.7 0 1.3 0.3 0.6 0.3 1.1 0.9 0.4 0.5 0.7 1.3 0.3 0.7 0.3 1.5 0 1.4-0.6 2.4-0.4 0.6-0.9 0.9l1.2 6.3h-2.4l-1.1-5.6q-0.3 0-0.6 0c0 0.1 0 5.4 0 5.5q-0.1 0.1-0.4 0.1h-1.7q-0.2 0-0.3-0.1 0 0 0-0.2c0-0.2 0-13.2 0-13.2q0.1-0.1 0.3-0.1zm2.1 5.6h0.7q0.4 0 0.7-0.2 0.3-0.1 0.4-0.5 0.3-0.4 0.3-0.9 0-0.5-0.3-1-0.1-0.2-0.3-0.4-0.3-0.2-0.7-0.2c-0.1 0-0.5 0-0.6 0q-0.2 0-0.2 0z"/><path fill-rule="evenodd" class="b" d="m2885.5 211.6q-0.2 0-0.2 0.2v2q0 0 0.1 0.1 0 0.1 0.1 0.1h2v11q0 0.2 0.2 0.2h2q0.2 0 0.2-0.2v-11h2q0.1 0 0.2-0.1 0-0.1 0-0.1v-2q0-0.2-0.2-0.2z"/><path fill-rule="evenodd" class="b" d="m2880.7 211.6q-0.1 0-0.2 0.1l-2.7 13.3q-0.1 0.1 0 0.1 0 0.1 0.1 0.1h2q0.2 0 0.2-0.1l1.5-7.2 1.5 7.1q0 0.1 0.1 0.1 0 0.1 0.2 0.1h1.9q0.1 0 0.2-0.1 0-0.1 0-0.2l-2.8-13.2q0 0 0-0.1-0.1 0-0.1 0z"/><path fill-rule="evenodd" class="b" d="m2869.9 215.3v5.9q0 0.9 0.3 1.6 0.2 0.8 0.7 1.3 0.4 0.5 1 0.8 0.7 0.3 1.4 0.3 0.6 0 1.2-0.2 0.5-0.3 1-0.7 0.4-0.4 0.7-0.9 0.3-0.6 0.4-1.3 0-0.1 0-0.1 0 0-0.1 0h-2.1q-0.1 0-0.1 0-0.1 0.1-0.1 0.2-0.1 0.3-0.3 0.4-0.3 0.2-0.5 0.1-1 0-1-1.4v-5.8q0-0.7 0.2-1.1 0.3-0.4 0.7-0.4 0.3 0 0.5 0.2 0.2 0.2 0.4 0.5 0 0.1 0.1 0.1h2.2q0.1 0 0.1 0 0.1 0 0.1-0.2-0.4-1.4-1.2-2.2-0.8-0.8-2.2-0.8-0.6 0-1.2 0.3-0.6 0.2-1.1 0.7-0.5 0.5-0.8 1.2-0.3 0.7-0.3 1.5z"/><path fill-rule="evenodd" class="b" d="m2862.2 215.3v5.9q0 0.9 0.2 1.6 0.3 0.8 0.7 1.3 0.5 0.5 1.1 0.8 0.6 0.3 1.3 0.3 0.7 0 1.2-0.2 0.6-0.3 1-0.7 0.4-0.4 0.7-0.9 0.3-0.6 0.5-1.3 0-0.1-0.1-0.1 0 0-0.1 0h-2.1q-0.1 0-0.1 0 0 0.1-0.1 0.2-0.1 0.3-0.3 0.4-0.3 0.2-0.5 0.1-1 0-1-1.4v-5.8q0-0.7 0.2-1.1 0.3-0.4 0.7-0.4 0.3 0 0.5 0.2 0.3 0.2 0.4 0.5 0.1 0.1 0.1 0.1 0 0 0.1 0h2.1q0.2 0 0.2 0 0 0 0-0.2-0.3-1.4-1.2-2.2-0.8-0.8-2.2-0.8-0.6 0-1.2 0.3-0.6 0.2-1.1 0.7-0.4 0.5-0.7 1.2-0.3 0.7-0.3 1.5z"/><path fill-rule="evenodd" class="b" d="m2857.3 219.6h2.8q0.1 0 0.1-0.1 0 0 0-0.1v-2.1q0 0 0-0.1 0 0-0.1 0h-2.8z"/><path fill-rule="evenodd" class="b" d="m2860.9 211.6h-6.3q-0.2 0-0.2 0-0.1 0.1-0.1 0.3v12.9q0 0.3 0.1 0.3 0 0.1 0.2 0.1h6.2q0.2 0 0.3-0.1 0 0 0-0.2v-1.9q0-0.2 0-0.2-0.1-0.1-0.3-0.1h-4.1v-8.7h4.3q0.1 0 0.1 0 0-0.1 0-0.1v-2q0-0.2-0.1-0.3 0 0-0.1 0z"/><path fill-rule="evenodd" class="b" d="m2922.4 215.3v5.9q0 0.9 0.2 1.6 0.3 0.8 0.7 1.3 0.5 0.5 1.1 0.8 0.6 0.3 1.3 0.3 0.7 0 1.2-0.2 0.6-0.3 1-0.7 0.5-0.4 0.8-0.9 0.2-0.6 0.4-1.3 0-0.1-0.1-0.1 0 0-0.1 0h-2.1q-0.1 0-0.1 0 0 0.1-0.1 0.2 0 0.3-0.3 0.4-0.2 0.2-0.5 0.1-1 0-1-1.4v-5.8q0-0.7 0.3-1.1 0.2-0.4 0.7-0.4 0.2 0 0.5 0.2 0.2 0.2 0.3 0.5 0.1 0.1 0.1 0.1 0 0 0.1 0h2.2q0.1 0 0.1 0 0 0 0-0.2-0.3-1.4-1.2-2.2-0.8-0.8-2.1-0.8-0.6 0-1.3 0.3-0.6 0.2-1 0.7-0.5 0.5-0.8 1.2-0.3 0.7-0.3 1.5z"/><path class="b" d="m2840.1 211.7h2.5v13.5h-2.5z"/><path class="b" d="m2844.7 211.7h2.4v9.1h-2.4z"/><path class="b" d="m2849.2 211.7h2.5v13.5h-2.5z"/><path class="b" d="m2918.2 211.7h2.4v13.5h-2.4z"/><path fill-rule="evenodd" class="b" d="m2932.2 211.6q-0.2 0-0.2 0.1l-2.8 13.3q0 0.1 0 0.1 0 0.1 0.2 0.1h2q0.2 0 0.2-0.1l1.5-7.2 1.4 7.1q0.1 0.1 0.1 0.1 0.1 0.1 0.2 0.1h1.9q0.2 0 0.3-0.1 0-0.1 0-0.2l-2.8-13.2q0 0-0.1-0.1 0 0-0.1 0z"/><path class="b" d="m3244 161.7h1.3l2.2 5c0.2 0.5 0.4 1.3 0.4 1.3 0 0 0.3-0.8 0.5-1.3l2.1-5h1.4l0.7 9.3h-1.2l-0.5-5.9c0-0.5 0-1.3 0-1.3 0 0-0.3 0.8-0.5 1.3l-1.9 4.2h-1.2l-1.8-4.2c-0.2-0.5-0.5-1.4-0.5-1.4 0 0 0 0.9 0 1.4l-0.5 5.9h-1.3z"/><path class="b" d="m3255.1 161.7h5.4v1.1h-4.1v2.9h3.4v1.2h-3.4v2.9h4.3v1.2h-5.6z"/><path class="b" d="m3266.9 161.5c2.3 0 3.4 1.3 3.4 1.3l-0.6 0.9c0 0-1.1-1-2.7-1-2.1 0-3.4 1.6-3.4 3.6 0 2 1.3 3.6 3.4 3.6 1.8 0 2.9-1.2 2.9-1.2l0.7 1c0 0-1.3 1.4-3.6 1.4-2.8 0-4.8-2.1-4.8-4.8 0-2.7 2-4.8 4.7-4.8z"/><path class="b" d="m3272.6 161.7h1.3v4.1h4.8v-4.1h1.3v9.3h-1.3v-4.1h-4.8v4.1h-1.3z"/><path fill-rule="evenodd" class="b" d="m3287.4 168.3h-3.5l-0.9 2.7h-1.4l3.4-9.3h1.3l3.4 9.3h-1.4zm-1.7-5.4c0 0-0.2 0.9-0.4 1.4l-1 2.9h2.8l-1-2.9c-0.2-0.5-0.4-1.4-0.4-1.4z"/><path class="b" d="m3292.7 162.8h-3.2v-1.1h7.7v1.1h-3.2v8.2h-1.3z"/><path fill-rule="evenodd" class="b" d="m3298.8 161.7h2.8c1 0 1.4 0.1 1.8 0.2 0.9 0.4 1.5 1.3 1.5 2.5 0 1.2-0.6 2.2-1.7 2.5v0.1c0 0 0.2 0.1 0.3 0.4l2 3.6h-1.5l-1.9-3.7h-2v3.7h-1.3zm3.1 4.4c1.1 0 1.7-0.6 1.7-1.7q0-1-0.7-1.4c-0.3-0.1-0.6-0.2-1.3-0.2h-1.5v3.3z"/><path fill-rule="evenodd" class="b" d="m3311.6 161.5c2.7 0 4.8 2.1 4.8 4.8 0 2.7-2.1 4.8-4.8 4.8-2.7 0-4.8-2.1-4.8-4.8 0-2.7 2.1-4.8 4.8-4.8zm0 8.4c1.9 0 3.4-1.6 3.4-3.6 0-2.1-1.5-3.6-3.4-3.6-1.9 0-3.4 1.5-3.4 3.6 0 2 1.5 3.6 3.4 3.6z"/><path class="b" d="m3318.5 161.7h1.3l4.1 6c0.4 0.5 0.8 1.4 0.8 1.4 0 0-0.1-0.9-0.1-1.4v-6h1.3v9.3h-1.2l-4.2-6c-0.3-0.6-0.8-1.4-0.8-1.4 0 0 0.1 0.8 0.1 1.4v6h-1.3z"/><path class="b" d="m3328.7 161.7h1.3v9.3h-1.3z"/><path class="b" d="m3336.9 161.5c2.2 0 3.4 1.3 3.4 1.3l-0.7 0.9c0 0-1.1-1-2.7-1-2 0-3.4 1.6-3.4 3.6 0 2 1.4 3.6 3.4 3.6 1.8 0 2.9-1.2 2.9-1.2l0.7 1c0 0-1.3 1.4-3.6 1.4-2.8 0-4.7-2.1-4.7-4.8 0-2.7 2-4.8 4.7-4.8z"/><path class="b" d="m3342.6 168.9c0 0 0.9 1 2.3 1 0.9 0 1.6-0.5 1.6-1.3 0-2.1-4.5-1.6-4.5-4.5 0-1.4 1.3-2.6 3-2.6 1.8 0 2.7 1 2.7 1l-0.6 1.1c0 0-0.9-0.8-2.1-0.8-1 0-1.6 0.6-1.6 1.3 0 1.9 4.4 1.4 4.4 4.4 0 1.4-1.1 2.6-2.9 2.6-2 0-3.1-1.2-3.1-1.2z"/><path fill-rule="evenodd" class="b" d="m3243.5 179.1h3.4c1.7 0 2.9 1.1 2.9 2.9 0 1.7-1.2 2.9-2.9 2.9h-2.1v3.4h-1.3zm3.2 4.8c1.1 0 1.8-0.7 1.8-1.9 0-1.1-0.7-1.7-1.8-1.7h-1.9v3.6z"/><path fill-rule="evenodd" class="b" d="m3251.7 179.1h2.9c0.9 0 1.4 0 1.7 0.2 1 0.3 1.6 1.3 1.6 2.5 0 1.2-0.7 2.2-1.7 2.5 0 0 0.1 0.1 0.3 0.4l1.9 3.6h-1.4l-2-3.7h-2v3.7h-1.3zm3.2 4.5c1 0 1.6-0.7 1.6-1.7q0-1-0.7-1.4c-0.2-0.2-0.5-0.2-1.3-0.2h-1.5v3.3z"/><path fill-rule="evenodd" class="b" d="m3264.5 178.9c2.7 0 4.8 2.1 4.8 4.7 0 2.8-2.1 4.9-4.8 4.9-2.6 0-4.7-2.1-4.7-4.9 0-2.6 2.1-4.7 4.7-4.7zm0 8.4c1.9 0 3.5-1.6 3.5-3.7 0-2-1.6-3.5-3.5-3.5-1.8 0-3.4 1.5-3.4 3.5 0 2.1 1.6 3.7 3.4 3.7z"/><path class="b" d="m3273.3 180.2h-3.2v-1.1h7.7v1.1h-3.2v8.1h-1.3z"/><path fill-rule="evenodd" class="b" d="m3283.4 178.9c2.7 0 4.7 2.1 4.7 4.7 0 2.8-2 4.9-4.7 4.9-2.7 0-4.8-2.1-4.8-4.9 0-2.6 2.1-4.7 4.8-4.7zm0 8.4c1.9 0 3.4-1.6 3.4-3.7 0-2-1.5-3.5-3.4-3.5-1.9 0-3.4 1.5-3.4 3.5 0 2.1 1.5 3.7 3.4 3.7z"/><path class="b" d="m3292.1 180.2h-3.1v-1.1h7.6v1.1h-3.2v8.1h-1.3z"/><path class="b" d="m3300.5 184.4l-3.1-5.3h1.4l1.7 3c0.3 0.5 0.6 1.2 0.6 1.2 0 0 0.3-0.7 0.6-1.2l1.7-3h1.5l-3.1 5.3v3.9h-1.3z"/><path fill-rule="evenodd" class="b" d="m3306.5 179.1h3.4c1.7 0 2.9 1.1 2.9 2.9 0 1.7-1.2 2.9-2.9 2.9h-2.1v3.4h-1.3zm3.2 4.8c1.1 0 1.8-0.7 1.8-1.9 0-1.1-0.7-1.7-1.8-1.7h-1.9v3.6z"/><path class="b" d="m3314.7 179.1h1.3v9.2h-1.3z"/><path class="b" d="m3318.8 179.1h1.3l4.1 6c0.4 0.5 0.8 1.3 0.8 1.3 0 0-0.1-0.8-0.1-1.3v-6h1.3v9.2h-1.2l-4.2-6c-0.3-0.5-0.8-1.3-0.8-1.3 0 0 0.1 0.8 0.1 1.3v6h-1.3z"/><path class="b" d="m3333.1 178.9c2.2 0 3.4 1.1 3.4 1.1l-0.7 1c0 0-1-0.9-2.6-0.9-2.2 0-3.5 1.6-3.5 3.6 0 2.1 1.5 3.6 3.5 3.6 1.6 0 2.6-1.2 2.6-1.2v-1.3h-1.5v-1.1h2.7v4.6h-1.2v-0.5c0-0.2 0-0.4 0-0.4 0 0-1 1.1-2.8 1.1-2.5 0-4.6-2-4.6-4.8 0-2.7 2-4.8 4.7-4.8z"/><path class="b" d="m3243.5 196.4h5.1v1.2h-3.8v3h3.2v1.1h-3.2v4h-1.3z"/><path fill-rule="evenodd" class="b" d="m3254.9 203h-3.5l-1 2.7h-1.3l3.3-9.3h1.4l3.3 9.3h-1.3zm-1.8-5.3c0 0-0.2 0.8-0.3 1.3l-1.1 2.9h2.8l-1-2.9c-0.1-0.5-0.3-1.3-0.3-1.3z"/><path class="b" d="m3262.8 196.3c2.2 0 3.4 1.2 3.4 1.2l-0.7 1c0 0-1.1-1-2.7-1-2 0-3.4 1.5-3.4 3.5 0 2 1.4 3.7 3.5 3.7 1.7 0 2.8-1.2 2.8-1.2l0.7 0.9c0 0-1.3 1.5-3.6 1.5-2.8 0-4.7-2.2-4.7-4.9 0-2.7 2-4.7 4.7-4.7z"/><path class="b" d="m3268.5 196.4h1.3v9.3h-1.3z"/><path class="b" d="m3272.5 196.4h1.3v8.2h4.2v1.1h-5.5z"/><path class="b" d="m3279.7 196.4h1.3v9.3h-1.3z"/><path class="b" d="m3285.8 197.6h-3.2v-1.2h7.7v1.2h-3.2v8.1h-1.3z"/><path class="b" d="m3294.1 201.8l-3.1-5.4h1.5l1.7 3.1c0.3 0.5 0.6 1.2 0.6 1.2 0 0 0.3-0.7 0.6-1.2l1.7-3.1h1.4l-3.1 5.4v3.9h-1.3z"/><path class="b" d="m2985.3 128.4h15.4v6.8h-7.5v63.8h7.5v6.9h-15.4z"/><path fill-rule="evenodd" class="b" d="m3014.8 134.2h24c12.1 0 20.8 8.1 20.8 20.6 0 12.5-8.7 20.9-20.8 20.9h-14.8v24.4h-9.2zm22.6 33.5c7.9 0 12.7-5 12.7-12.9 0-7.9-4.8-12.6-12.7-12.6h-13.4v25.5z"/><path class="b" d="m3071.4 152.9h8.8v8.2c0 1.9-0.2 3.5-0.2 3.5h0.2c2.1-6.9 7.6-12.3 14.9-12.3 1.2 0 2.3 0.2 2.3 0.2v9c0 0-1.2-0.3-2.6-0.3-5.8 0-11.1 4.1-13.2 11.1-0.9 2.7-1.1 5.6-1.1 8.5v19.3h-9.1z"/><path fill-rule="evenodd" class="b" d="m3130 151.8c14.1 0 25.5 10.3 25.5 24.6 0 14.4-11.4 24.8-25.5 24.8-14.1 0-25.5-10.4-25.5-24.8 0-14.3 11.4-24.6 25.5-24.6zm0 41.6c8.9 0 16.2-7.1 16.2-17 0-9.8-7.3-16.8-16.2-16.8-8.9 0-16.3 7-16.3 16.8 0 9.9 7.4 17 16.3 17z"/><path class="b" d="m3171.8 199v-63.8h-7.6v-6.8h15.5v77.5h-15.5v-6.9z"/><path class="b" d="m3196.9 128.4h6.4l6.5 16.4c0.7 2 1.7 4.9 1.7 4.9h0.1c0 0 0.8-2.9 1.6-4.9l6.5-16.4h6.4l2.7 33.1h-6l-1.4-18.5c-0.1-2.2-0.1-5.1-0.1-5.1 0 0-1 3.2-1.8 5.1l-5.4 12.9h-5.2l-5.4-12.9c-0.8-1.9-1.8-5.1-1.8-5.1h-0.1c0 0 0.1 2.9 0 5.1l-1.4 18.5h-6z"/><path class="b" d="m423.5 691.5l2 0.4-7.1 22.5h-64v-2.3h3.1q5.2 0 7.5-3.4c0.9-1.3 1.3-4.3 1.3-9v-53.5c0-5.1-0.6-8.4-1.8-9.7q-2.3-2.6-7-2.6h-3.2v-2.3h37.6v2.3q-6.6-0.1-9.3 1.2c-1.8 0.8-3 1.9-3.6 3.2-0.7 1.3-1 4.4-1 9.4v52q0 5 1 6.9c0.5 0.9 1.2 1.5 2.3 1.9q1.5 0.6 9.5 0.6h6q9.6 0 13.4-1.4c2.5-1 4.9-2.6 7-5 2.1-2.4 4.2-6.1 6.3-11.2z"/><path fill-rule="evenodd" class="b" d="m441.9 677.9q-0.1 12.4 6.1 19.5c4 4.7 8.8 7 14.3 7q5.4 0 9.5-3c2.7-2 5-5.4 6.8-10.3l1.9 1.2c-0.9 5.6-3.3 10.7-7.4 15.2q-6.2 6.9-15.4 6.9c-6.7 0-12.5-2.6-17.2-7.8-4.8-5.3-7.2-12.3-7.2-21.1 0-9.5 2.5-17 7.4-22.3q7.3-7.9 18.3-8 9.4 0 15.4 6.2c4 4.1 6.1 9.6 6.1 16.5zm0-3.5h25.8c-0.2-3.6-0.6-6.1-1.3-7.5q-1.5-3.4-4.5-5.4c-2-1.3-4.1-1.9-6.3-1.9q-5.1 0-9 3.9c-2.7 2.6-4.2 6.3-4.7 10.9z"/><path class="b" d="m572 627.8l1.9 28.2h-1.9c-2.6-8.4-6.1-14.5-10.8-18.2-4.7-3.7-10.3-5.5-16.9-5.5-5.5 0-10.4 1.4-14.9 4.1q-6.7 4.2-10.4 13.4-3.8 9.1-3.8 22.7 0 11.3 3.6 19.5 3.6 8.3 10.8 12.6c4.9 3 10.3 4.5 16.5 4.5 5.4 0 10.2-1.2 14.3-3.5 4-2.3 8.6-6.9 13.5-13.7l1.9 1.2c-4.1 7.4-9 12.8-14.5 16.2-5.6 3.4-12.2 5.1-19.7 5.1q-20.6 0-31.9-15.2c-5.7-7.6-8.4-16.5-8.4-26.8q0-12.4 5.5-22.7 5.6-10.4 15.3-16.1 9.8-5.7 21.3-5.7 9-0.1 17.7 4.4 2.6 1.3 3.7 1.3 1.6 0 2.8-1.2 1.6-1.6 2.3-4.5h2.1z"/><path fill-rule="evenodd" class="b" d="m608.3 655.2c8.4 0 15.2 3.2 20.3 9.6 4.4 5.5 6.5 11.8 6.5 18.9 0 5-1.1 10-3.5 15.2-2.4 5.1-5.7 9-9.9 11.6q-6.4 3.9-14.1 3.9-12.6 0-20-10.1-6.3-8.4-6.3-19 0-7.7 3.8-15.3c2.6-5 5.9-8.8 10.1-11.2 4-2.4 8.4-3.6 13.1-3.6zm-1.9 3.9q-3.3 0-6.5 2c-2.2 1.2-4 3.5-5.3 6.7-1.3 3.2-2 7.3-2 12.3 0 8.2 1.6 15.1 4.9 21.1q4.8 8.8 12.7 8.8c4 0 7.2-1.6 9.8-4.9 2.5-3.2 3.8-8.8 3.8-16.7q0-14.9-6.4-23.4-4.3-5.9-11-5.9z"/><path class="b" d="m636.8 658.1h15.1l33.7 41.5v-31.9c0-3.4-0.3-5.5-1.1-6.3q-1.5-1.7-4.8-1.8h-1.9v-1.5h19.3v1.5h-2c-2.3 0-4 0.8-5 2.2-0.5 0.8-0.9 2.8-0.9 5.9v46.6h-1.4l-36.5-44.5v34q0 5.2 1.1 6.4 1.6 1.7 4.8 1.7h1.9v1.5h-19.2v-1.5h1.9q3.5 0 5-2.1 0.9-1.3 0.9-6v-38.4c-1.6-1.8-2.8-3.1-3.7-3.7-0.8-0.6-2-1.1-3.6-1.7-0.8-0.2-2-0.4-3.6-0.4z"/><path class="b" d="m746.5 658.1l0.6 13.2h-1.6c-0.3-2.3-0.7-4-1.2-4.9q-1.3-2.4-3.4-3.6c-1.4-0.7-3.3-1.1-5.6-1.1h-7.9v42.9c0 3.5 0.3 5.6 1.1 6.5 1.1 1.1 2.7 1.7 4.9 1.7h1.9v1.5h-23.8v-1.5h2q3.5 0 5-2.2c0.6-0.8 0.9-2.9 0.9-6v-42.9h-6.7q-4 0-5.6 0.6-2.2 0.8-3.7 3c-1 1.5-1.6 3.5-1.8 6.1h-1.6l0.7-13.2h45.8z"/><path class="b" d="m835.1 686.3c0.6 11.1-24.5 28.1-24.5 28.1h-42.6c0 0 22.5-18.1 22.2-28.1 0.3-10.1-22.2-28.2-22.2-28.2h42.6c-0.1 0 25.1 17 24.5 28.2z"/><path class="b" d="m889.8 686.3c0.6 11.1-24.6 28.1-24.6 28.1h-42.5c0 0 22.4-18.1 22.2-28.1 0.2-10.1-22.2-28.2-22.2-28.2h42.5c0 0 25.2 17 24.6 28.2z"/><path class="b" d="m2468.8 617.1h-147.4c-11.2 0-20.8 6.7-25 16.2l-29.1 70.1q-0.1 0.3-0.1 0.6c0 0.9 0.6 1.6 1.5 1.6h66.6c4.7 0 6.8-4.6 3.1-8.2l-24.5-22.9c-12.8-12.6-7.3-41.8 19.4-41.8h130.3c0.7 0 1.3-0.5 1.5-1.1l5.1-12.4q0.2-0.3 0.2-0.6c0-0.8-0.7-1.5-1.6-1.5z"/><path class="b" d="m2454.1 652.8h-25c-1.7 0-3.1 1-3.7 2.5l-28.1 67.7q-0.2 0.4-0.2 0.7c0 0.9 0.7 1.6 1.6 1.6h9.3c11.4 0 21.1-6.9 25.2-16.7q0 0 0.1 0.1l22.3-53.8q0.1-0.3 0.1-0.6c0-0.9-0.7-1.5-1.6-1.5z"/><path class="b" d="m2404.9 654.3c0-0.9-0.7-1.5-1.5-1.5h-71c-3.8 0-7.2 4.7-3.1 8.5l23.4 21.8c0 0 9.5 8.7 7.5 21.2-1.8 11.1-9.3 17.8-14.8 20.2-0.1 0.1-0.2 0.2-0.2 0.4 0 0.2 0.2 0.4 0.4 0.4h27.3c1.7 0 3.2-1 3.8-2.5l28.1-68q0.1-0.2 0.1-0.5z"/><path fill-rule="evenodd" class="b" d="m2542.7 689.5h2.2v15.3h-2.2v-2.5c-1.8 2.6-4.7 2.9-5.8 2.9-4.6 0-8.2-3.6-8.2-8.1 0-3.9 3-8 8.2-8 1.2 0 4 0.3 5.8 2.9zm0.1 7.6c0-3.3-2.6-6.1-5.9-6.1-3 0-6.1 2.1-6.1 6.1 0 3.5 2.6 6.1 6.1 6.1 3.3 0 5.9-2.7 5.9-6.1z"/><path class="b" d="m2560.3 697.6c0 2.7-0.7 3.6-1.5 4.4q-1.2 1.2-3.1 1.2-2.2 0-3.4-1.4c-0.8-0.8-1.1-2.1-1.1-3.9v-8.4h-2.2v8.5q0.1 3.2 1.4 4.9c0.7 0.8 2.3 2.3 5.3 2.3 3 0 4.3-1.7 4.7-2.5v2.1h2.1v-15.3h-2.2z"/><path fill-rule="evenodd" class="b" d="m2578.7 689.5h2.1v12.8c0 1.7 0 3.7-1.4 5.6-2 2.8-5.6 2.8-6.1 2.8-1.4 0-6.3-0.4-7.8-5.6v-0.1h2.3c0.4 1.2 1.9 3.8 5.5 3.8 2.5 0 5.4-1.5 5.4-5.5v-1.1c-1.3 2.2-3.9 3-5.8 3-3.8 0-8-3.1-8-8 0-5 4.2-8.1 8-8.1 1.1 0 3.9 0.3 5.8 2.9zm0.1 7.7c0-3.4-2.7-6.1-5.9-6.1-3.2 0-5.8 2.7-5.8 6.1 0 3.3 2.6 6 5.8 6 4 0 5.9-3.6 5.9-6z"/><path class="b" d="m2600.4 689.1c-1.4 0-3.9 0.6-5.1 2.8-1.2-2.2-3.7-2.8-5.1-2.8-1.4 0-3.1 0.6-4 1.9v-1.5h-2.1v15.3h2.1v-8.8c0-1.6 0.3-2.4 0.7-3.1 0.7-1.2 1.9-1.8 3.3-1.8 1.5 0 2.7 0.6 3.3 1.8 0.5 0.7 0.7 1.5 0.7 3.1v8.8h2.2v-8.8c0-1.6 0.2-2.4 0.7-3.1 0.6-1.2 1.8-1.8 3.3-1.8 1.4 0 2.6 0.6 3.3 1.8 0.4 0.7 0.7 1.5 0.7 3.1v8.8h2.1v-9c0-5.3-3.8-6.7-6.1-6.7z"/><path fill-rule="evenodd" class="b" d="m2623.8 693q1.4 2.2 1.2 4.9v0.1h-13.7c0.2 2.8 2.8 5.2 5.7 5.2 3 0 4.7-1.9 5.3-3.5h2.3v0.1c-1.2 3.2-4.2 5.4-7.6 5.4-4.4 0-7.9-3.6-7.9-8 0-4.4 3.5-8 7.9-8.1 3.4 0 5.8 2.1 6.8 3.9zm-1 3c-0.6-3.4-3.4-4.9-5.8-4.9-2.4 0-5.1 1.7-5.7 4.9z"/><path class="b" d="m2634.6 689.1c-2.2 0-3.8 1.1-4.5 2.2v-1.8h-2.2v15.3h2.2v-8.4c-0.1-1.7 0.4-3.2 1.3-4 1.2-1.2 2.8-1.3 3.2-1.3 0.5 0 2 0.1 3.2 1.3 0.9 0.8 1.4 2.3 1.4 4v8.4h2.2v-8.4c0-2.3-0.7-4.2-1.9-5.4-1.3-1.3-2.8-1.9-4.9-1.9z"/><path class="b" d="m2649.1 684.2h-2.2v5.3h-3.1v2h3.1v13.3h2.2v-13.3h3.6v-2h-3.6z"/><path fill-rule="evenodd" class="b" d="m2668.7 693q1.3 2.1 1.2 4.9v0.1h-13.7c0.2 2.8 2.8 5.2 5.7 5.2 3-0.1 4.7-1.9 5.3-3.5v-0.1h2.3l-0.1 0.2c-1.1 3.2-4.1 5.4-7.5 5.4-4.4 0-8-3.6-8-8 0-4.4 3.6-8 8-8.1 3.4 0 5.7 2.1 6.8 3.9zm-1 3c-0.7-3.4-3.4-4.9-5.8-4.9-2.4 0-5.2 1.7-5.7 4.9z"/><path fill-rule="evenodd" class="b" d="m2688.2 684.2v20.6h-2.1v-2.5c-1.5 2.1-4 2.9-5.9 2.9-4.6 0-8.2-3.6-8.2-8.1 0-3.9 3.1-8 8.2-8 0.9 0 3.9 0.2 5.9 2.8v-7.7zm-2.1 13c0-3.4-2.6-6.1-5.9-6.1-3 0-6.1 2.1-6.1 6.1 0 3.4 2.6 6 6.1 6 3.3 0 5.9-2.6 5.9-6z"/><path class="b" d="m2482 683.7h2.1v3h-2.1z"/><path class="b" d="m2475 684.2h-4.4v1.9h2.4v16.8h-2.6v1.9h7v-1.9h-2.4z"/><path class="b" d="m2484.5 689.5h-4.4v2h2.4v11.4h-2.5v1.9h7v-1.9h-2.5z"/><path class="b" d="m2493 685.2c-1.4 1.2-1.4 2.5-1.5 4.2v0.1h-2.4v2h2.5v11.4h-2.5v1.9h7v-1.9h-2.5v-11.4h2.5v-2h-2.5v-0.3c0-1.1 0.1-2.1 1-2.8q0.7-0.6 1.9-0.7h0.1v-1.8h-0.1c-1.6 0.1-2.7 0.5-3.5 1.3z"/><path fill-rule="evenodd" class="b" d="m2514.5 697.4v0.7h-13.5c0.2 2.9 2.7 5.2 5.7 5.2 2.2 0 4-1.1 5-2.8v-0.1h2.3l-0.1 0.2c-1.3 2.7-4.1 4.5-7.2 4.5-4.3 0-7.8-3.4-7.8-7.7 0-4.3 3.5-7.9 7.7-7.9 4.4 0 7.9 3.5 7.9 7.9zm-2-1.1c-0.4-2.8-2.9-4.9-5.9-4.9-2.7 0-5.2 2.2-5.6 4.9z"/><path class="b" d="m2521.5 705.2c1.5 0 2.6-1.2 2.6-2.6 0-1.5-1.1-2.7-2.6-2.7-1.5 0-2.7 1.2-2.7 2.7 0 1.4 1.2 2.6 2.7 2.6z"/><path fill-rule="evenodd" class="b" d="m1319.3 648.4l-10.6 42.7q-2 7.8 4.8 7.7 6.9 0.1 8.9-7.7l10.6-42.7h23.9l-16 64.7h-23.8l1.8-7.8h-0.2q-7.3 9.4-20.3 9.4c-5.5 0.1-9.7-1.1-12.7-3.6-3.1-2.4-3.9-7.1-2.4-13.8l12.1-48.9zm-34.7 0l-16.1 64.7h-23.9l16.1-64.7zm138.4 0.6q3.7 2.5 4.6 7.5 4.4-5.5 10-7.7 5.5-2.2 11.2-2.3 8.5 0 13.2 3.6 4.5 3.9 2.1 14.1l-9.2 37c-1.7 6.9-8.8 11.9-16.3 11.9h-10.5l10.5-42.7q2.1-7.8-4.8-7.7-7.1-0.1-9.1 7.7l-10.6 42.7h-23.9l10.7-42.7q2-7.8-4.8-7.7-7-0.1-8.9 7.7l-10.7 42.7h-23.9l16.1-64.8h24.1l-1.9 7.9h0.3q7.3-9.6 20.4-9.7 7.7 0.1 11.4 2.5zm-264.6-21.3l3.2 85.4h-27.5l0.7-14.8h-20.5l-6.5 14.8h-27.5l36.4-68.5c5.6-9.9 15.6-16.5 27.5-16.9zm88.5 0.8l-5.1 19.8h10l-3.6 14.5h-10l-7.6 30.9q-1.2 5.2 4.7 5.1h4l-3.6 14.4q-7.2 0.6-13.5 0.6-10.9 0.1-14.8-2.9-4.4-3.1-1.6-13.5l17.2-68.9zm-35.2-0.8l-21.2 85.4h-23.9l21.2-85.4zm-90.4 54.2h14.3l2-35.7z"/><path class="b" d="m1803.8 646c-0.5 2-0.9 3.9-1.3 5.7q-0.6 3-1.3 6-0.8 3.7-1.5 7.3-0.7 3-1.3 6-0.8 3.7-1.6 7.3-0.6 2.9-1.3 5.9-0.7 3.6-1.5 7.3-0.7 3-1.3 6-0.8 3.7-1.6 7.4-0.5 2.6-1.1 5.1c0 0.4-0.2 0.8-0.4 1.2-1.4 0.3-2.7 0.1-4.1 0.2q-2 0-3.9 0c-1.4-0.1-2.8 0.1-4.1-0.2-0.3-0.6-0.1-1.1 0-1.6 0.9-4 1.8-7.9 2.6-11.9 0.8-3.9 1.6-7.7 2.5-11.6q1.1-5.3 2.2-10.5c0.6-2.6 1.1-5.2 1.6-7.8 0.3-1.6 0.7-3.1 1.1-4.7 0.6-2.9 1.1-5.7 1.7-8.6 0.8-3.4 1.5-6.7 2.3-10.2q0.8-3.6 1.5-7.2 1-5 2.1-9.9 0.6-2.9 1.2-5.7c0.1-0.2 0.2-0.3 0.2-0.6 0.4 0 0.7-0.2 1.1-0.2q5.3 0 10.6 0c0.2 0 0.4 0.1 0.5 0.1 0.4 0.4 0.3 0.9 0.2 1.3q-1 4.5-2 8.9-1.5 7-2.9 14c-0.1 0.3-0.1 0.6-0.2 1z"/><path class="b" d="m1770.8 662.4c0.3-1.3 0.6-2.4 0.8-3.5q1.4-6.6 2.8-13.2 1.5-6.7 2.9-13.4 1-5 2-10 0.1-0.3 0.3-0.7c0.1-0.6 0.5-0.9 1.1-0.9q0.6 0 1.1 0 4.2 0 8.4 0 0.6 0 1.1 0c0.7 0 1 0.3 0.9 1q-0.3 1.3-0.6 2.7-1.3 6.2-2.7 12.5-0.8 3.8-1.6 7.6-0.8 3.9-1.6 7.7-1.1 5.1-2.2 10.1-1.1 5-2.2 10c-0.5 2.6-1 5.1-1.6 7.6q-1 4.9-2.1 9.8-0.8 3.9-1.6 7.9-0.9 3.8-1.7 7.7-0.6 2.6-1.1 5.2-0.1 0.3-0.2 0.7c-0.2 0-0.4 0.1-0.6 0.1q-5.7 0.1-11.3 0c-0.1 0-0.3-0.1-0.4-0.2-0.2-0.8 0.2-1.6 0.3-2.5q1.1-5.4 2.3-10.8 1.8-8.4 3.6-16.8 1.5-7.2 3-14.3c0.3-1.4 0.6-2.8 0.9-4.3z"/><path class="b" d="m1704.7 717.5c-0.2 1.2-0.4 2.2-0.6 3.2q-0.2 0.7-0.9 0.8-0.4 0-0.8 0-4.7 0-9.4 0c-0.4 0-0.9 0.1-1.4-0.3-0.1-0.9 0.2-1.7 0.4-2.6q1.3-6.6 2.8-13.2 1.8-8.3 3.6-16.7 1.4-6.6 2.8-13.3c0.9-3.9 1.7-7.9 2.5-11.9 0.7-3.5 1.5-6.9 2.2-10.4q1.6-7.2 3.1-14.4 0.6-3.2 1.3-6.5c0.1-0.4 0.3-0.7 0.4-1.2 1.4-0.3 2.8-0.1 4.2-0.1q2 0 3.9 0c1.4 0 2.8-0.1 4.1 0.1 0.3 0.6 0.2 1.1 0 1.6q-1.7 8.2-3.5 16.4-1.4 6.6-2.8 13.1-1.5 7.2-3.1 14.4-1.3 6.1-2.6 12.1-1.2 6-2.5 11.9-1.1 5.1-2.2 10.2c-0.5 2.2-1 4.5-1.5 6.8z"/><path class="b" d="m1682.4 686.1c0.6-3.2 1.3-6.3 1.9-9.4 0.6-2.4 1.1-4.8 1.6-7.3q1.1-5.2 2.2-10.3 1.3-6.1 2.6-12.1 1.5-7.4 3.1-14.7c0.1-0.4 0.2-0.8 0.4-1.2 1.3-0.4 2.6-0.2 3.9-0.2q2.1 0 4.2 0c1.3 0 2.6-0.1 3.9 0.1 0 0.4 0.1 0.7 0 1q-1.6 7.9-3.3 15.8-1.1 5.1-2.1 10.2c-0.5 2.5-1.1 4.9-1.6 7.3q-1.1 5.3-2.2 10.7c-0.5 2.5-1.1 5-1.7 7.6-0.7 3.3-1.3 6.7-2 10q-0.8 3.7-1.6 7.5-0.8 3.8-1.7 7.7-1.2 5.9-2.4 11.8c-0.2 0.7-0.4 0.8-1.1 0.9q-0.5 0-1 0-4.3 0-8.7 0c-0.5 0-1-0.1-1.6-0.1-0.1-0.3-0.2-0.6-0.1-0.8q0.7-3.6 1.5-7.1 0.8-4 1.6-8.1 0.8-3.4 1.5-6.8 0.6-2.8 1.2-5.7c0.5-2.2 1-4.4 1.5-6.8z"/><path class="b" d="m1840 630.3c-1.3 5.8-2.5 11.4-3.8 17.1 0 0.1-0.1 0.3-0.2 0.5-1.3 0.2-2.7 0.1-4.1 0.1q-1.9 0-3.9 0c-1.4 0-2.7 0-4 0-0.5-0.6-0.3-1.1-0.2-1.5q0.9-4.3 1.9-8.7 0.8-3.6 1.5-7.2 0.9-4.1 1.8-8.2c0.1-0.3 0.1-0.6 0.2-0.9 0.1-0.5 0.5-0.8 1-0.8q0.3 0 0.5 0 4.9 0 9.8 0c1 0 1.6 0.1 1.3 1.4-0.7 2.7-1.2 5.4-1.8 8.2z"/><path class="b" d="m1823.5 620.7q0.8 0 1.2 0c0.6 0.1 0.8 0.4 0.7 0.9q-0.1 1.1-0.4 2.2-1.3 6.1-2.6 12.3-1.1 5.1-2.1 10.2c-0.1 0.6-0.3 1-0.4 1.6-1.1 0.2-2.1 0.1-3.1 0.1q-1.6 0-3.1 0-1.5 0-3.1 0c-0.9 0-1.9 0.1-2.9-0.1-0.2-0.7-0.1-1.2 0-1.8q0.9-4.2 1.9-8.5 0.6-2.8 1.2-5.7 0.8-3.6 1.5-7.3 0.3-1.5 0.6-2.9c0.2-0.7 0.5-1 1.3-1q2.8 0 5.7 0 1.7 0 3.6 0z"/><path class="b" d="m1686.3 649c-0.4 2.2-0.9 4.2-1.3 6.2q-0.2 1.1-0.5 2.1-0.2 0.7-0.9 0.7-0.3 0-0.7 0-4.8 0.1-9.6 0c-0.4 0-0.8 0-1.3-0.1 0-0.5 0-0.8 0.1-1.2q0.5-2.4 1-4.8 1.1-5.4 2.3-10.8 0.7-3.5 1.5-6.9 0.2-1 0.4-1.9c0.1-0.5 0.1-0.9 0.5-1.3 0.9-0.1 10.2-0.2 11.7-0.1 0.2 0 0.4 0.1 0.6 0.2 0 1.6-0.5 3-0.8 4.5-0.3 1.5-0.6 3-1 4.5q-0.4 2.2-0.9 4.3c-0.3 1.5-0.7 3-1.1 4.6z"/><path class="b" d="m1731.1 630.9c2.9 0 5.6 0 8.3 0.1 0.1 0 0.2 0 0.4 0.1 0 0.2 0.1 0.5 0 0.7q-1.3 6.1-2.6 12.1-1.3 5.8-2.6 11.7c-0.2 0.5-0.2 1-0.3 1.5-0.2 0.7-0.4 0.9-1.1 0.9q-0.3 0.1-0.5 0-4.9 0.1-9.8 0c-0.4 0-0.7 0-1.2-0.1 0-0.4 0-0.8 0-1.1q1.4-6 2.7-12.1 1.2-6 2.5-12c0.1-0.6 0.2-1.2 0.6-1.7 1.1-0.2 2.3-0.1 3.6-0.1z"/><path class="b" d="m1757.9 624.6c-0.5 2.2-0.9 4.2-1.3 6.3q-0.8 3.7-1.6 7.4-0.9 4-1.7 8c-0.1 0.6-0.1 1.1-0.5 1.5-1.2 0.3-6.5 0.3-11.2 0.2-0.3 0-0.6-0.1-1-0.2 0-0.4 0-0.8 0.1-1.1q1-4.5 2-9 1.1-4.9 2.1-9.9 0.7-3 1.4-6.1c0.2-0.7 0.4-0.9 1.1-1q0.4 0 0.8 0 4.5 0 9 0c0.4 0 0.8 0.1 1.2 0.1 0.4 0.7 0.2 1.2 0 1.8-0.1 0.6-0.2 1.2-0.4 2z"/><path class="b" d="m1769.7 647.8q-0.9 4.4-1.8 8.4c-0.1 0.6-0.3 1.1-0.4 1.7-1.4 0.3-2.8 0.1-4.1 0.1q-2 0.1-4.1 0c-1.3 0-2.6 0.1-3.8 0-0.5-0.5-0.3-0.9-0.2-1.3q0.7-3.4 1.4-6.8 0.9-4.1 1.8-8.2 0.9-4.7 2-9.4c0-0.4 0.2-0.8 0.4-1.2 1.3-0.4 2.7-0.2 4.1-0.2q1.9-0.1 3.9 0c1.4 0 2.7-0.1 4.2 0.1-0.2 2-0.7 3.8-1.1 5.6-0.3 1.9-0.7 3.6-1.1 5.5q-0.6 2.7-1.2 5.7z"/><path class="b" d="m1672.1 630.9c0.5 0 0.8 0.1 1.3 0.1 0 0.5 0 0.8-0.1 1.2q-0.7 3.6-1.5 7.2-0.8 4.1-1.7 8.1-0.8 3.9-1.7 7.9c-0.1 0.5-0.2 1.1-0.3 1.7-0.2 0.8-0.4 0.9-1.2 0.9q-1.1 0.1-2.1 0-4 0.1-7.9 0-0.6 0-1.2 0c-0.1-0.2-0.1-0.2-0.1-0.3-0.1-0.1-0.1-0.3-0.1-0.4q2.7-12.7 5.4-25.4c0.1-0.3 0.2-0.6 0.3-0.8 0.2-0.1 0.3-0.2 0.4-0.2q5.1 0 10.5 0z"/><path class="b" d="m2029.6 683.9c-0.7 0-1.4 0-2 0-0.9 0.1-1.4-0.2-1.9-1-1.9-3.2-3.9-6.4-5.9-9.6q-1.6-2.6-3.2-5.3c-0.2-0.3-0.5-0.6-0.7-0.9-0.5 0.2-0.4 0.5-0.4 0.8q0 5.2 0 10.3 0 2.3 0 4.6c0 0.3 0 0.5 0 0.8-0.3 0.1-0.6 0.3-0.9 0.3q-1.4 0-2.7 0c-0.4 0-0.7-0.3-0.8-0.7q-0.1-0.5 0-1.1-0.1-11.1 0-22.3c0-0.6-0.1-1.3 0.4-1.8q1.8-0.2 3.8 0 0.6 0.9 1.2 1.8 4.2 7.1 8.4 14.1c0.3 0.4 0.4 0.8 0.9 0.9 0.4-0.2 0.4-0.7 0.4-1q0-4.1 0-8.2-0.1-3.2-0.1-6.4c0-0.4 0-0.8 0.4-1.2 1.1-0.2 2.2-0.1 3.4-0.1 0.3 0 0.5 0.3 0.6 0.6q0.1 0.6 0.1 1.1 0 11.3 0 22.5 0 0.6-0.2 1.3-0.1 0.5-0.8 0.5z"/><path class="b" d="m2003.8 714.1c-2.1-3.5-4.1-6.9-6.3-10.2-0.6 0.1-0.4 0.6-0.4 0.9q0 5.1 0 10.1 0 2.3 0 4.6c0 0.3 0 0.7-0.1 0.9-1 0.4-1.8 0.5-4 0.2-0.1-0.2-0.3-0.6-0.3-0.9-0.1-0.3-0.1-0.6-0.1-0.9q0-11 0-22.1c0-0.6 0-1.2 0.4-1.9 1.1-0.3 2.3-0.1 3.4-0.1 0.5 0 0.7 0.4 0.9 0.8q1.1 1.8 2.2 3.6 3.6 6 7.2 12c0.2 0.2 0.4 0.5 0.7 0.8 0.1-0.3 0.3-0.5 0.3-0.7q0-4.5-0.1-9.1 0-3.1 0-6.3c0-0.8 0.3-1.1 1.2-1.1q1.1 0 2.2 0c0.8 0 1 0.3 1.1 1.1q0 0.4 0 0.8 0 11.1 0 22.3c0 1.9 0 1.9-1.9 1.9-0.7-0.1-1.5-0.1-2.3-0.2q-0.6-0.9-1.2-1.8c-1-1.6-1.9-3.1-2.9-4.7z"/><path class="b" d="m1956.3 698.7q0 10 0 19.8 0 0.7 0 1.4c-0.1 0.6-0.3 0.8-0.8 0.8-1.1 0.1-2.2 0-3.4 0-3.5-5.6-6.8-11.3-10.4-17-0.2 0.3-0.3 0.5-0.4 0.6q0 0.7 0 1.5 0 6.5 0.1 12.9c0 0.6-0.1 1.2-0.1 1.7-1.1 0.4-1.9 0.5-4.1 0.2-0.1-0.2-0.2-0.6-0.3-0.9-0.1-0.3 0-0.6 0-0.9q0-11 0-21.9 0-0.7 0-1.4c0.1-0.5 0.4-0.8 0.9-0.8q1.3 0 2.7 0c0.4 0 0.7 0.2 1 0.6q0.9 1.6 1.9 3.1 3.7 6.4 7.5 12.7c0.2 0.3 0.3 0.7 0.8 0.6 0.3-0.1 0.3-0.4 0.3-0.7q-0.1-4.6-0.1-9.3-0.1-2.9 0-5.9c0-0.8 0.3-1.1 1.1-1.1q1.2 0 2.4 0 0.9 0 0.9 0.9c0 1 0 2 0 3.1z"/><path class="b" d="m1951.8 623.7c0.1-0.7 0.1-1.3 0.1-1.9 0.1-0.4 0.3-0.7 0.7-0.7 1.2-0.1 2.3-0.1 3.4 0 0.4 0.6 0.3 1.2 0.3 1.8q0 7.9 0 15.9 0 3.3 0 6.6c0 0.5 0.1 1.1-0.3 1.6-1.1 0.2-2.2 0-3.3 0.1-0.5 0-0.8-0.3-1-0.7q-0.9-1.5-1.8-3-3.6-5.9-7.3-11.9c-0.2-0.4-0.4-0.9-1-1.2-0.1 0.2-0.2 0.3-0.3 0.5q0 0.7 0 1.4 0 6.4 0.1 12.8c0 0.6-0.1 1.2-0.1 1.8-0.4 0.1-0.7 0.2-1 0.3q-1.2 0-2.5 0c-0.6-0.1-0.8-0.3-0.9-0.9q0-0.3 0-0.6 0-11.4 0-22.9 0-0.5 0.1-1.1c0-0.3 0.3-0.5 0.6-0.5q1.5-0.1 3 0 0.6 0 0.9 0.6 1.2 2 2.4 4 3.5 5.7 6.9 11.4c0.2 0.4 0.3 0.8 0.9 0.9 0.1-0.2 0.3-0.5 0.3-0.7q-0.1-4.5-0.1-9c-0.1-1.5-0.1-3-0.1-4.6z"/><path class="b" d="m1728.9 701c0.2-0.6 0.2-1.1 0.4-1.5 0.1-0.7 0.2-1.3 0.6-1.8 0.2-0.1 0.4-0.1 0.6-0.1q5.6 0 11.1 0c0.1 0 0.2 0.1 0.3 0.2 0.3 0.5 0.1 1.1 0 1.6-0.5 2.4-1.1 4.9-1.6 7.3q-1.1 4.8-2.1 9.7-0.5 2.4-1.1 4.8c-0.2 0.1-0.5 0.2-0.7 0.2q-5.5 0.1-10.9 0c-0.3 0-0.5-0.1-0.9-0.2 0.7-3.4 1.4-6.7 2.2-10.1 0.7-3.3 1.4-6.7 2.1-10.1z"/><path fill-rule="evenodd" class="b" d="m1910.7 701.3c0 0.6 0 1 0 1.5q-0.1 4.1-3.8 5.8c-0.3 0.2-0.6 0.4-1 0.6 0.1 0.3 0.1 0.5 0.2 0.8q2.2 4.6 4.4 9.2c0.2 0.4 0.3 0.8 0.5 1.3-0.4 0.1-0.6 0.2-0.8 0.2-0.9 0.1-1.8 0-2.7 0.1-0.7 0-1-0.3-1.2-0.9-0.3-0.6-0.6-1.1-0.8-1.7q-1.7-3.7-3.4-7.5c-0.1-0.4-0.4-0.7-0.5-1.1-1.4-0.3-3.2-0.2-4.6 0 0 0.5 0 0.9-0.1 1.4q0 4 0 8.1c0 1.6 0 1.7-1.6 1.7-0.8-0.1-1.7 0.1-2.5-0.2-0.4-0.4-0.3-0.9-0.3-1.4q0-1.8 0-3.6 0-9.3 0-18.7 0-0.7 0-1.4c0.1-0.5 0.3-0.7 0.8-0.8q0.4 0 0.8 0 4.7 0 9.4 0 1.6 0 3 0.6c2.5 1.2 3.9 3.1 4.2 6zm-9.7 4.8c0.7 0 1.4 0 2.1-0.1 1.9-0.2 3.4-1.5 3.4-3.8 0-2.1-1.6-3.6-3.6-3.7-1.7 0-3.5 0-5.2 0-0.2 0-0.5 0.1-0.7 0.2-0.3 1.3-0.2 2.5-0.1 3.7 0 1.2-0.2 2.4 0.2 3.6 1.2 0 2.4 0 3.9 0.1z"/><path class="b" d="m1918.8 676.8c0.5 2.1 1.9 3.1 3.8 3.3 1.1 0.2 2.3 0.2 3.4 0 1.5-0.2 2.4-1 2.7-2.5 0.2-0.9 0.1-1.8-0.6-2.5-0.5-0.4-1.1-0.9-1.7-1.1-1.5-0.7-3-1.3-4.5-1.9-1.5-0.7-3-1.2-4.3-2.2-4-2.7-3.5-8.9 0.8-11.2 1.4-0.7 2.8-0.9 4.3-1.1 1.4-0.1 2.8 0 4.1 0.4 2.2 0.6 4.1 1.6 5.3 3.7q1 1.8 0.9 3.9c0 0.2-0.1 0.4-0.1 0.7-1.4 0.2-2.6 0.2-4 0-0.1-0.4-0.2-0.7-0.2-1-0.3-1.9-1.6-3.4-3.5-3.7-1.1-0.1-2.3-0.1-3.3 0.1q-1.8 0.1-2.4 1.8c-0.5 1.1-0.3 2.2 0.5 3.1 0.5 0.4 1 0.8 1.6 1 1.1 0.6 2.3 1 3.5 1.5q1.9 0.8 3.8 1.6c1.1 0.5 2.1 1.2 2.9 2.1q1.8 2.2 1.4 5c-0.5 3.4-2.7 5.2-5.8 6-1.2 0.3-2.4 0.5-3.7 0.5-2-0.2-4-0.6-5.7-1.6-2.4-1.4-3.4-3.5-3.5-6.2 0-0.2 0-0.4 0.1-0.6 0.1-0.2 0.3-0.4 0.5-0.5 0.3-0.1 0.6-0.1 0.9-0.1 0.9 0.1 1.7 0 2.6 0.1 0.1 0.5 0.2 0.9 0.2 1.4z"/><path class="b" d="m1959.7 675.6c-0.6-0.8-1.3-1.3-2.2-1.7-1.5-0.6-3.1-1.2-4.7-1.9-1.3-0.6-2.6-1.2-3.8-1.9-3.2-2.2-3.9-6.4-1.6-9.5 0.8-1 1.8-1.8 3-2.2 3.8-1.3 7.4-1.2 10.8 1 2.2 1.5 3.1 3.7 3 6.3 0 0.2-0.1 0.4-0.2 0.6-1.3 0.2-2.5 0.2-3.9 0 0-0.3-0.2-0.5-0.2-0.8 0.1-2.3-2-3.7-3.8-3.9q-1.5-0.1-3 0c-1.4 0.2-2.4 1.2-2.6 2.5-0.3 1.2 0.3 2.4 1.5 3.2 1.4 0.8 2.9 1.3 4.4 1.8 1.2 0.5 2.3 1 3.5 1.5 1.4 0.6 2.5 1.5 3.4 2.7 1.9 2.4 1.5 7-1.6 9.1-0.7 0.5-1.4 0.8-2.1 1.1-1.6 0.6-3.3 0.9-5 0.7-2.1-0.1-4.1-0.6-5.8-1.7q-3.6-2.5-3-6.9c1.3-0.4 2.6-0.2 4-0.2 0.1 0.3 0.1 0.6 0.2 0.9 0.2 2 1.3 3.3 3.1 3.7 1.4 0.4 2.9 0.3 4.3 0.1 1.7-0.3 2.7-1.7 2.6-3.4-0.1-0.3-0.2-0.6-0.3-1.1z"/><path fill-rule="evenodd" class="b" d="m1970.9 647.3c-1.5 0.1-2.9-0.1-4.2-0.5-3.7-1.3-5.5-4.2-5.8-7.6q0-0.2 0-0.5 0-4.6 0-9.3 0-2.3 1.2-4.4 1.6-2.7 4.7-3.7c1.3-0.4 2.6-0.7 3.9-0.6 2.2 0.2 4.3 0.7 6.1 2.3 1.7 1.4 2.6 3.4 2.9 5.6q0 0.2 0 0.4c0 3.4 0 6.7 0 10 0 3.6-2.7 7.3-7 8.1-0.5 0.1-1.1 0.1-1.8 0.2zm4.5-12.1q0-2.9 0-5.7 0-2.4-2-4c-1-0.7-2.2-0.9-3.4-0.9-2.4 0.1-4.1 1.5-4.6 3.8q-0.2 0.8-0.2 1.6 0 4.2 0 8.4 0 0.9 0.3 1.8c0.6 1.7 1.7 2.8 3.5 3.1 0.9 0.2 1.9 0.1 2.8 0 0.4 0 0.7-0.2 1-0.4 1.6-0.9 2.5-2.3 2.6-4.1 0-1.1 0-2.2 0-3.6z"/><path class="b" d="m1901.8 668.5c1.5 0.6 2.9 1.1 4.3 1.7q1.3 0.6 2.4 1.3c4.9 3.1 3.3 9.4-0.2 11.2-2.6 1.4-5.3 1.9-8.2 1.3-1.4-0.3-2.7-0.6-3.9-1.3q-3.8-2.4-3.4-6.8c0-0.1 0.1-0.2 0.2-0.4 1.2-0.3 2.5-0.2 3.9-0.1 0 0.3 0.1 0.6 0.1 0.8 0.1 2 1.2 3.2 3 3.7 1.5 0.5 3.1 0.5 4.7 0.1 1.3-0.2 2.2-1.4 2.4-2.6 0.1-1.2-0.3-2.1-1.3-2.8-1-0.7-2.2-1.2-3.3-1.6-1.6-0.7-3.2-1.3-4.7-2q-1.6-0.7-2.9-1.9c-2.8-2.8-2.1-8 1.2-10q2-1.2 4.3-1.4c2-0.2 4-0.1 5.9 0.7 2.2 0.8 3.8 2.2 4.6 4.4 0.4 1.2 0.5 2.3 0.2 3.5-1.3 0.2-2.5 0.1-3.9 0 0-0.3-0.2-0.6-0.2-0.9 0-2.1-1.8-3.5-3.6-3.8-1.1-0.1-2.3 0-3.4 0.1-0.8 0-1.5 0.6-2 1.3-0.9 1.3-0.6 3 0.7 4 0.9 0.6 1.9 1.1 3.1 1.5z"/><path class="b" d="m1932.8 719.3c0 0.3 0 0.5 0 0.7-0.1 0.5-0.3 0.7-0.7 0.7q-0.4 0.1-0.8 0.1-7.3 0-14.6 0c-1.4 0-1.5-0.2-1.6-1.6q0-0.4 0-0.8 0-10.7 0-21.5 0-0.7 0-1.4 0.2-0.7 0.9-0.8 0.5 0 1 0 6.9 0 13.9 0 0.4 0 0.8 0c0.9 0 1.1 0.2 1.1 1.2q0 1-0.1 2 0 0.6-0.6 0.6-0.6 0.1-1.2 0.1-4.8 0-9.5 0c-0.6 0-1.1-0.1-1.6 0.1-0.3 1.1-0.3 5.1 0 6.7 0.3 0 0.6 0.1 1 0.1q3 0.1 6 0.1c0.5 0 1.1-0.1 1.6 0.1 0.4 1.1 0.3 2.2 0.1 3.3 0 0.1-0.2 0.3-0.4 0.3-0.3 0.1-0.7 0.1-1.1 0.1q-2.8 0-5.5 0-0.8 0-1.6 0.1c-0.1 0.3-0.3 0.5-0.3 0.7-0.2 2.4-0.1 5.5 0.2 6.5 0.5 0.3 1 0.2 1.6 0.2q4.7 0 9.5 0c1.9 0 1.9 0 1.9 1.9 0 0.1 0 0.2 0 0.5z"/><path class="b" d="m1993.8 666.1q0.1 1.3 0.1 2.2c0.4 0.5 0.9 0.4 1.3 0.4q2.9 0 5.8 0 0.6 0 1.1 0.1 0.7 0 0.7 0.7c0 0.9 0.1 1.9-0.1 2.8-0.4 0.4-0.8 0.3-1.2 0.3q-2.9 0-5.9 0c-0.5 0-1 0.1-1.6 0.1-0.3 0.8-0.1 1.6-0.2 2.4q0 1.2 0 2.4c0.1 0.7-0.1 1.5 0.2 2.3 0.4 0.4 1 0.3 1.5 0.3q4.8 0 9.7 0c0.5 0 1-0.1 1.6 0.2 0.3 1.1 0.2 2.2 0 3.4-0.3 0.1-0.7 0.2-1 0.2q-7.7 0-15.4 0c-0.2 0-0.4 0-0.7-0.1-0.1-0.2-0.3-0.5-0.3-0.8-0.1-0.4 0-0.7 0-1.1q0-11 0-22c0-0.6-0.2-1.3 0.3-1.9 0.1 0 0.3-0.1 0.4-0.1q8.1 0 16.2 0c0.1 0 0.3 0.1 0.5 0.2 0.3 1.1 0.2 2.2 0.1 3.3-0.6 0.4-1.1 0.3-1.6 0.3q-4.9 0-9.7 0c-0.5 0-1-0.1-1.5 0.1-0.1 0.2-0.2 0.3-0.2 0.3 0 1.3 0 2.6-0.1 4z"/><path fill-rule="evenodd" class="b" d="m1871.4 678c1.4-4.3 2.7-8.4 4-12.6q1.1-3.3 2.1-6.5c0.3-0.9 0.4-1 1.3-1 1.4 0 2.9 0 4.3 0 0.2 0.4 0.4 0.6 0.5 0.9q3.8 12.2 7.7 24.4c0 0.2 0 0.3-0.1 0.6-0.2 0-0.5 0.1-0.7 0.1q-1.4 0-2.7 0c-0.6 0-1-0.2-1.2-0.8q-0.2-1.1-0.6-2.2c-0.2-0.5-0.2-1.1-0.7-1.6-0.2 0-0.6-0.1-0.9-0.1q-3.8 0-7.6 0-0.2 0-0.4 0c-0.6 0-0.9 0.3-1.1 0.8q-0.2 1-0.5 2-0.3 0.8-0.6 1.7c-1.1 0.4-2.3 0.2-3.4 0.2-0.4 0-0.7-0.1-1-0.2 0-0.2-0.1-0.3 0-0.4 0.5-1.7 1-3.4 1.6-5.3zm8.4-12.6c-2.6 8-2.9 9.2-2.9 10.3 0.1 0 0.3 0.1 0.4 0.1q3.2 0.1 6.5 0c0.1 0 0.3 0 0.5-0.1 0-0.2 0-0.4-0.1-0.6q-1.7-5.6-3.4-11.2c0-0.1-0.1-0.1-0.3-0.2-0.6 0.3-0.4 1-0.7 1.7z"/><path fill-rule="evenodd" class="b" d="m2071 680.1c-0.2-0.6-0.4-0.9-0.9-0.9q-0.8 0-1.6 0-3.3 0-6.5 0c-1.1 0-1.2 0.1-1.5 1.2-0.3 1.1-0.7 2.2-1 3.2-1.3 0.4-2.9 0.4-4.3 0.1-0.4-0.5 0-1 0.1-1.5q1.3-4 2.5-7.9 2.3-7.2 4.6-14.3c0.2-0.7 0.4-1.3 0.7-1.9 1.2-0.3 3.7-0.3 5.3-0.1 0.1 0.3 0.3 0.5 0.4 0.8q3.9 12.2 7.8 24.4c0 0.2-0.1 0.3-0.1 0.5-0.4 0.3-0.9 0.2-1.4 0.2q-1.1 0-2.2 0-0.8 0-1-0.8c-0.3-1-0.6-1.9-0.9-3zm-6.3-13.8q-1.3 4.2-2.6 8.5c-0.1 0.3 0 0.6-0.1 1 1.3 0.1 2.5 0.1 3.7 0.1 1.3-0.1 2.5 0.1 3.8-0.2 0-0.4 0-0.8-0.1-1.2q-1.6-5.1-3.2-10.2c-0.1-0.2-0.2-0.4-0.4-0.7-0.7 0.8-0.7 1.7-1.1 2.7z"/><path fill-rule="evenodd" class="b" d="m2027.3 716q-2.3 0-4.2 0c-1.5 0-1.5 0.1-1.9 1.4q-0.4 1.6-0.9 3.2c-1.3 0.3-2.5 0.1-3.7 0.1-0.3 0-0.5-0.1-0.8-0.2 0.1-0.5 0.1-0.9 0.2-1.3q1.3-3.9 2.5-7.8 2.4-7.5 4.8-15.1 0.2-0.4 0.3-0.9c0.2-0.4 0.5-0.7 0.9-0.7 1.6 0 3.1 0 4.7 0 0.2 0.5 0.4 1 0.5 1.4q2.3 7.2 4.7 14.4 1.4 4.5 2.8 8.9c0.1 0.4 0.1 0.7 0.1 1.2-0.3 0-0.5 0.1-0.8 0.1q-1.4 0.1-2.8 0.1c-0.6 0-0.9-0.3-1-0.8q-0.3-1-0.6-1.9-0.3-0.9-0.6-1.9c-1.4-0.3-2.7-0.1-4.2-0.2zm-1.7-13.2q-0.5 1.6-1 3.2c-0.3 1.1-0.7 2.2-1 3.3-0.2 1.1-0.8 2.1-0.8 3.3 1.3 0.2 2.5 0.1 3.8 0.1 1.2 0 2.5 0.2 3.8-0.2-1.1-3.9-2.3-7.7-3.5-11.4 0-0.2-0.1-0.3-0.2-0.4 0 0-0.1 0-0.2-0.1-0.6 0.5-0.5 1.3-0.9 2.2z"/><path class="b" d="m1892.5 622.5c0-0.4 0-0.7 0.1-0.9 0.1-0.2 0.4-0.4 0.6-0.5 0.3-0.1 0.6 0 0.9 0q7.2 0 14.4 0c0.4 0 0.9 0 1.3 0.1 0.4 1.1 0.3 2.3 0.1 3.3-0.5 0.5-1 0.4-1.5 0.4q-4.9 0-9.7 0-0.8 0-1.5 0c-0.3 1.2-0.4 5-0.1 6.8 0.3 0.1 0.7 0.2 1 0.2q3 0 6 0c0.5 0 1.1 0.1 1.6 0.1 0.4 1.2 0.3 2.3 0.1 3.6-0.4 0-0.8 0.1-1.3 0.1q-2.9 0-5.8 0c-0.5 0-1.1-0.1-1.6 0.2 0 0.2-0.1 0.4-0.1 0.6q0 3.1 0 6.2c0 0.1 0.1 0.2 0.2 0.5 0.5 0 1 0.1 1.5 0.1q4.8 0 9.5 0 0.8 0 1.6 0c0.4 1.2 0.3 2.4 0.1 3.6-0.3 0-0.5 0.1-0.7 0.1q-7.8 0.1-15.6 0.1c-0.9 0-1.1-0.3-1.1-1.2q0-0.6 0-1.2c0-7.4 0-14.7 0-22.2z"/><path class="b" d="m1928.9 645.9c-2 1.2-4 1.5-6.2 1.4-1.6-0.1-3.2-0.5-4.7-1.3-2.5-1.5-3.8-3.9-3.9-6.8q-0.2-5.2 0-10.3c0.2-4.1 2.8-6.9 6.6-7.9 2.4-0.5 4.6-0.3 6.9 0.5 3.1 1.3 4.7 3.7 5.1 7q0.1 1.3-1.2 1.3-1 0.1-2 0.1c-0.9-0.1-1.1-0.3-1.3-1.1-0.1-0.6-0.2-1.1-0.4-1.6-0.7-1.6-2-2.4-3.7-2.5q-0.7 0-1.4 0c-2.1 0.1-3.7 1.5-4.1 3.6q-0.1 0.7-0.1 1.4 0 4.3 0 8.7c0 0.6 0.1 1.3 0.2 1.9 0.4 1.5 1.5 2.5 3 3q1.6 0.3 3.3 0c1.8-0.5 2.7-1.7 3.2-3.4 0.1-0.4 0.1-0.8 0.1-1.1 0.7-0.4 1.4-0.2 2.1-0.3 0.6 0 1.3 0 2 0 0.1 0.3 0.3 0.5 0.3 0.7-0.1 1.8-0.6 3.4-1.7 4.9q-0.9 1.1-2.1 1.8z"/><path class="b" d="m2052.3 658.2c0.1 1.1 0.1 2.1 0.1 3.1 0 0.5-0.3 0.9-0.5 1.3q-2.4 3.4-4.8 6.9-3.2 4.5-6.3 9.1c-0.3 0.4-0.7 0.7-0.6 1.3 0.5 0.3 1 0.2 1.4 0.2q4.4 0 8.7 0 0.7 0 1.3 0c0.5 0 0.8 0.3 0.8 0.8 0.1 0.9 0.1 1.8-0.1 2.7q-0.4 0.2-0.9 0.3-0.1 0-0.3 0-7.7 0-15.5 0c-0.2 0-0.3-0.1-0.6-0.2 0-0.2-0.1-0.5-0.1-0.8-0.1-0.7 0-1.3 0-1.9-0.1-0.8 0.2-1.5 0.6-2.1q4.2-5.9 8.4-11.9 1.4-2 2.8-4.1c0.2-0.2 0.3-0.6 0.4-0.9-0.3-0.5-0.8-0.3-1.2-0.3q-4.6 0-9.2 0c-0.5 0-1-0.1-1.6-0.1-0.4-1.2-0.3-2.3-0.1-3.5 0.3-0.1 0.6-0.2 0.9-0.2q7.7 0 15.4 0c0.3 0 0.6 0.1 1 0.3z"/><path class="b" d="m1973.8 694.7c1.5 0 2.9 0 4.3 0 0.7 0 0.9 0.2 0.9 1q0.1 0.8 0 1.6c0 1.1-0.1 1.2-1.3 1.3q-2.1 0-4.2 0c-0.5 0-1.1 0-1.5 0-0.4 0.5-0.3 1-0.3 1.5q0 3.6 0 7.3 0 5.7 0 11.5c0 0.6 0.1 1.2-0.4 1.7-1.2 0.3-2.5 0.2-3.8 0.1q-0.1-0.5-0.3-0.9c0-0.5 0-0.9 0-1.4q0-8.9 0-17.7v-1.9c-0.4-0.1-0.7-0.2-1.1-0.2q-2.1 0-4.2 0-0.5 0-1-0.1c-0.5 0-0.8-0.3-0.8-0.7q-0.1-1.2 0-2.4c0-0.4 0.3-0.7 0.7-0.7q0.6 0 1.3 0 5.7 0 11.7 0z"/><path class="b" d="m1873 694.7q7.2 0 14.1 0c1.6 0 1.6 0.1 1.6 1.6q0.1 0.6 0 1.1c0 0.9-0.3 1.1-1.1 1.2q-1.5 0-3 0-1.1 0-2.2 0c-0.3 0-0.5 0-0.8 0.1-0.3 0.6-0.2 1.2-0.2 1.7q0 9.1 0 18.1 0 0.7 0 1.4c-0.1 0.5-0.3 0.8-0.8 0.8-1.1 0.1-2.3 0.2-3.3 0-0.5-0.5-0.3-1.1-0.3-1.6q0-4 0-8.1 0-5.2 0-10.4c0-0.6-0.1-1.2-0.1-1.8-0.4-0.1-0.8-0.2-1.1-0.2-1.3-0.1-2.7 0-4 0-0.5 0-1-0.1-1.4-0.1-0.5-0.3-0.6-0.7-0.6-1.2-0.1-0.9 0-1.6 0.3-2.5 0.9-0.2 1.9 0 2.9-0.1z"/><path class="b" d="m1881.4 642.6c-0.1 1.5 0.2 2.9-0.2 4.3-1.4 0.2-2.7 0.2-3.9 0.1-0.5-0.7-0.3-1.3-0.3-2q0-8 0-16.1 0-1.3 0-2.7c-0.1-0.4-0.1-0.7-0.1-1.2-0.4 0-0.8-0.1-1.1-0.1q-2 0-4 0-0.8 0-1.6 0c-0.7-1.2-0.5-2.4-0.2-3.6 0.3-0.1 0.6-0.2 0.9-0.2q8.3 0 16.6 0c0.3 0 0.6 0 0.9 0.1q0.7 1.8 0 3.5c-1.1 0.3-2.3 0.1-3.4 0.2q-1.6 0-3.3 0c-0.4 0.5-0.3 1.1-0.3 1.6q0 5.8 0 11.6 0 2.1 0 4.5z"/><path class="b" d="m1966.7 660.5c0-0.7-0.1-1.2 0-1.8 0-0.5 0.3-0.8 0.8-0.8q0.5 0 0.9 0 7.7 0 15.4 0c1.9 0 1.9 0 1.9 1.8 0 2-0.1 2-2.1 2q-2 0-3.9 0c-0.4 0-0.9 0.1-1.2 0.1-0.4 0.7-0.3 1.3-0.3 1.8q0 9.2 0 18.4c0 0.5 0.1 1.1-0.2 1.7-1.3 0.4-2.6 0.2-3.8 0.2-0.5-0.6-0.3-1.2-0.3-1.8q-0.1-4.9 0-9.8 0-4.4-0.1-8.9c0-0.5 0.2-1-0.2-1.5-0.5-0.3-1-0.1-1.6-0.2q-2.1 0-4.2 0c-0.7 0-1.1-0.3-1.1-1.2z"/><path class="b" d="m1747.9 671.9c-0.9 3.6-1.5 7.1-2.3 10.5-0.4 0.1-0.7 0.1-0.9 0.1q-5.5 0.1-11.1 0c-0.1 0-0.3-0.1-0.4-0.1 0-0.2-0.1-0.3-0.1-0.3q1.2-5.8 2.4-11.5c0.1-0.3 0.2-0.7 0.4-1.1 1-0.2 2.1-0.1 3.1-0.1q1.5 0 3 0c1.1 0 2.1 0 3.2 0 1 0 2-0.2 3 0.2 0.1 0.8-0.2 1.5-0.3 2.3z"/><path class="b" d="m1941.9 676.2c0 2.1 0 4 0 5.9q0 0.5 0 0.9c-0.1 0.6-0.3 0.9-0.9 0.9-1.1 0-2.1 0-3.1 0-0.5-0.3-0.6-0.7-0.6-1.2q0-0.4 0-0.9 0-10.9 0-21.8c0-0.7-0.1-1.4 0.5-2 1.2-0.2 2.5-0.2 3.7 0 0.5 0.7 0.4 1.3 0.4 1.9 0 5.4 0 10.8 0 16.3z"/><path class="b" d="m1983.2 700q0-1.9 0-3.6 0-0.6 0.1-1.1c0.1-0.4 0.3-0.6 0.7-0.6 1.1 0 2.3-0.1 3.5 0.2 0 0.3 0.1 0.6 0.1 0.9q0.1 1.9 0.1 3.8 0 9.5 0 18.9 0 0.8-0.1 1.5 0 0.7-0.6 0.7c-1.2 0.1-2.3 0.2-3.5 0-0.1-0.4-0.3-0.7-0.3-1.1-0.1-0.4 0-0.8 0-1.3q0-9 0-18.3z"/><path class="b" d="m3237.2 685.3c-12.7 0-18.3-5.7-18.3-18.7v-20.6h-13.9v-11.6h14.4v-8.9l15.2-7.9v16.8h12.1v11.6h-12.1v18.7c0 5.4 1.2 8.7 6.8 8.7 1.4 0 3.3-0.1 5.1-0.6l0.5-0.2 0.5 11.5-0.4 0.1c-2.8 0.7-6.5 1.1-9.9 1.1zm-32.2-1.1h-16.2v-38.2h-10v-11.6h10v-3c0-13.8 6.3-20.2 19.8-20.2 2.1 0 4.4 0.2 6.4 0.5l0.4 0.1v11.2l-0.7-0.3c-1.2-0.6-2.3-0.7-4-0.7-4 0.2-5.7 3-5.7 9.8z"/><path class="b" d="m2959.9 684.2h-17.9v-58.7l17.9-7.9zm-62.9 0h-18.3v-66.6h18.3v26.4c2.2-2.8 23.7-26.4 23.7-26.4h20.7l-27.4 31.1 28 32.7v2.8h-20.1c0 0-21.1-24.9-24.9-29.9z"/><path fill-rule="evenodd" class="b" d="m3153 686c-15.6 0-26-10.6-26-26.3 0-16.3 9.9-26.5 26-26.5 15.6 0 26 10.7 26 26.5 0 15.7-10.4 26.3-26 26.3zm0-41.4c-6.1 0-10 5.9-10 14.9 0 9 3.9 14.9 10 14.9 6.2 0 10.1-5.7 10.1-14.9 0-9.3-3.8-14.9-10.1-14.9z"/><path class="b" d="m2964.5 664.3c0.5 5.9 2.5 10.3 6.6 14.6 3.9 4.2 11.1 7.1 21.4 7.1 5.8 0 10.7-1.5 14.6-3.3 3.8-1.8 6.7-4.6 8.8-8.1 2.1-3.4 3.2-7.2 3.2-11.3 0-3.5-0.8-6.7-2.4-9.5-1.6-2.8-4.2-5.2-7.7-7.1-3.5-1.9-9.4-3.8-17.6-5.7-3.5-0.8-5.6-1.6-6.6-2.6q-1.5-1.3-1.5-3.1 0-2.4 1.8-4 1.8-1.6 5.3-1.6 4.2 0 6.6 2.1c1.8 1.6 2.8 3.4 3.3 5.8l16.6-1.5c-0.8-6.1-2.9-10-7-13.1-4-3.1-9.8-5.4-17.5-5.4-6.3 0-10.5 0.8-14.9 3.1-3.5 1.8-6.3 4.2-8.1 7.1q-2.7 4.4-2.7 9.3c0 5 1.8 9.1 5.2 12.3 3.5 3.3 9.4 5.9 17.6 7.9 5.2 1.2 8.4 2.5 9.9 3.9q2.2 2.1 2.2 4.9 0 2.9-2.3 5c-1.6 1.5-3.8 2.2-6.6 2.2q-5.7 0-8.7-4.2c-1.4-1.9-2.2-3.9-2.6-6.4z"/><path class="b" d="m3078.6 671c0.9 4.7 3.5 7.8 6.7 10.4 3.3 2.5 8.4 4.6 16.2 4.6 5.6 0 11.8-1.6 16.3-5.2 3.9-3.1 5.9-7.3 5.9-12.3q0-4.3-2.1-7.8c-1.4-2.4-3.4-4.2-6-5.5-2.6-1.3-6.7-2.3-12.2-3-3.6-0.5-6-1.1-7.1-1.7q-1.7-1.1-1.7-3.1 0-1.7 1.3-3 1.4-1.2 4.3-1.2 2.8 0 4.8 1.6c0.8 0.6 1.9 1.7 2.3 3.4l14.8-1.7c-2-5.9-5.8-10.1-11.7-12-3-1-6.1-1.3-9.3-1.3-4.8 0-8.8 0.9-11.6 2.1-2.9 1.1-5.1 2.9-6.7 5.3-1.9 2.7-2.9 6.8-2.4 10.1 0.5 3.9 2.4 7.6 5.5 9.8 0.9 0.7 1.9 1.2 2.9 1.6 3.5 1.6 7.4 2.3 11.2 3.1 3.9 0.8 6.2 1.4 7.1 2q2 1.2 2 3.4 0 2-1.5 3.3-1.9 1.7-5.3 1.7-3.1 0-5-1.5c-0.8-0.7-2.4-2.2-3.2-4.8z"/><path class="b" d="m3021.8 664.3c0.6 5.9 2.6 10.3 6.7 14.6 3.9 4.2 11.1 7.1 21.3 7.1 5.9 0 10.8-1.5 14.6-3.3 3.8-1.8 6.7-4.6 8.8-8.1 2.2-3.4 3.2-7.2 3.2-11.3 0-3.5-0.8-6.7-2.3-9.5-1.6-2.8-4.2-5.2-7.7-7.1-3.5-1.9-9.4-3.8-17.6-5.7-3.5-0.8-5.6-1.6-6.6-2.6q-1.5-1.3-1.5-3.1 0-2.4 1.8-4 1.8-1.6 5.3-1.6 4.2 0 6.6 2.1c1.8 1.6 2.8 3.4 3.2 5.8l16.7-1.5c-0.8-6.1-2.9-10-7-13.1-4-3.1-9.8-5.4-17.5-5.4-6.3 0-10.5 0.8-14.9 3.1-3.6 1.8-6.4 4.2-8.1 7.1q-2.7 4.4-2.7 9.3c0 5 1.8 9.1 5.2 12.3 3.5 3.3 9.4 5.9 17.5 7.9 5.2 1.2 8.5 2.5 10 3.9q2.2 2.1 2.2 4.9 0 2.9-2.4 5-2.3 2.2-6.5 2.2c-3.8 0-6.7-1.4-8.8-4.2-1.4-1.9-2.2-3.9-2.5-6.4z"/><path class="b" d="m3054.3 711.7c-1.3-1-2.7-2.1-4.7-2.1-4.3 0-6.7 2.9-6.7 6.7 0 3.7 2.4 6.8 6.3 6.8 1 0 1.8-0.4 2.4-0.5v-4.4h-3.9v-2.9h8.5v8.3c-1.6 1.8-5 2.6-7 2.6-6 0-10.5-3.4-10.5-9.6 0-6.3 4.1-9.7 10.5-9.9 2.6 0 5.3 1.2 6.5 2.2z"/><path fill-rule="evenodd" class="b" d="m3074.8 724.7c-1.3 0.7-2.8 1.1-4.7 1.1-4.5 0-7.1-2.6-7.1-7.1 0-3.9 2.1-7.2 6.3-7.2 5.1 0 6.9 3.5 6.9 8.2h-8.8c0.2 2.2 1 3.1 3.3 3.3 1.7 0.1 2.8-0.5 4.1-1.2zm-2.4-7.4c-0.1-1.7-0.9-3.1-2.9-3.1-1.9 0-2.1 1.3-2.3 3.1z"/><path fill-rule="evenodd" class="b" d="m3078.1 712.6c1.4-0.7 3.2-1.3 4.7-1.3 4.2 0 6.1 1.8 6.1 5.8 0 1.4 0 4.3 0 5.3 0.1 1 0.1 2 0.2 3h-3.5c-0.2-0.7-0.2-0.6-0.2-1-0.8 1.5-3.7 1.4-4 1.4-2.4 0-4.8-1.5-4.8-4.1 0-2 1.1-3.2 2.4-3.9 1.2-0.7 2.6-1.1 4.1-1.1l2-0.1c0-2.2-0.6-2.7-2.7-2.7-1.5 0-3 0.8-4.2 1.7zm4.2 10.6q1.5 0.2 2.4-0.6c0.8-0.9 0.6-2.4 0.6-3.4h-1.4c-1.5 0-3.1 0.3-3.1 2.3 0 1 0.5 1.6 1.5 1.7z"/><path fill-rule="evenodd" class="b" d="m3108.9 711.1c3.9 0 6.9 3 6.9 7.5 0 4-2.5 7.2-6.9 7.2-4.3 0-7-3.2-7-7.2 0-4.5 3.2-7.5 7-7.5zm-0.1 11.9c2.1-0.1 2.8-2.5 2.8-4.8 0-2.1-1.1-4.1-2.7-4.1-1.9 0-2.8 2.1-2.8 4.1 0 2.3 0.5 4.8 2.7 4.8z"/><path fill-rule="evenodd" class="b" d="m3160.5 711.1c3.9 0 6.8 3 6.8 7.5 0 4-2.5 7.2-6.8 7.2-4.3 0-7-3.2-7-7.2 0-4.5 3.2-7.5 7-7.5zm-0.1 11.9c2.1-0.1 2.8-2.5 2.8-4.8 0-2.1-1.1-4.1-2.7-4.1-1.9 0-2.8 2.1-2.8 4.1 0 2.3 0.4 4.8 2.7 4.8z"/><path class="b" d="m3116.8 711.5h3.9v1.6l0.1-0.2c1.1-1.5 2.2-1.8 4-1.8 3.3 0 4.7 2.3 4.7 5.8v8.5h-4.2v-7.2c0-1.7 0.2-4.5-2.1-4.5-2.7 0-2.3 3.4-2.3 5.1v6.6h-4.1z"/><path fill-rule="evenodd" class="b" d="m3194.9 730.8h-3.8v-17.9l-0.1-1.5h3.7v1.8q0.7-0.8 1.6-1.4 1.2-0.6 2.6-0.6 2.4 0 3.9 1.5 1.8 1.9 1.8 5.4 0 2.2-0.6 3.8-0.7 1.7-2 2.6-1.4 0.9-3.2 0.9-1.4 0-2.5-0.5-0.8-0.5-1.4-1.2zm3.1-16.5q-1.3 0-2.2 1-0.9 1.1-0.9 3.1 0 1.9 0.9 3 0.8 1 2 1 1.1 0 2-1.1 0.9-1 0.9-3.1 0-2-0.9-3.1-0.6-0.8-1.8-0.8z"/><path fill-rule="evenodd" class="b" d="m3206.9 712.6c1.4-0.7 3.2-1.3 4.7-1.3 4.2 0 6.1 1.8 6.1 5.8 0 1.4 0 4.3 0 5.3 0.1 1 0.1 2 0.2 3h-3.5c-0.2-0.7-0.2-0.6-0.2-1-0.8 1.5-3.7 1.4-4 1.4-2.4 0-4.8-1.5-4.8-4.1 0-2 1.1-3.2 2.4-3.9 1.2-0.7 2.6-1.1 4.1-1.1l2-0.1c0-2.2-0.6-2.7-2.7-2.7-1.5 0-3 0.8-4.2 1.7zm4.2 10.6q1.5 0.2 2.4-0.6c0.8-0.9 0.6-2.4 0.6-3.4h-1.4c-1.5 0-3.1 0.3-3.1 2.3 0 1 0.5 1.6 1.5 1.7z"/><path class="b" d="m3219.7 711.5h4v1.6-0.2c1.1-1.5 2.2-1.8 4.1-1.8 3.2 0 4.6 2.3 4.6 5.8v8.5h-4.1v-7.2c0-1.7 0.1-4.5-2.1-4.5-2.7 0-2.3 3.4-2.3 5.1v6.6h-4.2z"/><path class="b" d="m3236.4 730.8q-0.4 0-1.3-0.1-0.6 0-1.2-0.2l-0.1-0.1 0.3-2.9 0.1 0.1q0.9 0.2 1.7 0.2 0.8 0 1.5-0.6 0.6-0.5 0.8-1.5l-5.3-14.5h4.2l3.2 9.7 3.2-9.7h4l-5.6 14.8-0.7 1.4q-0.4 1.1-1 1.8-0.6 0.7-1.6 1.2-1.1 0.4-2.2 0.4z"/><path class="b" d="m3189.4 725.4h-3.9v-7.7q0-1.4-0.2-2-0.1-0.6-0.6-0.9c-0.7-0.5-1.6-0.5-2.3 0.1q-0.7 0.4-1 1.3-0.3 1-0.3 1.9v7.3h-3.8v-8.4q0-1.3-0.5-1.9-0.6-0.7-1.4-0.7-1 0-1.8 1-0.7 0.9-0.7 3v7h-3.9v-10.4-2.3q0-0.6-0.1-1.1v-0.2h3.7v1.8q0.7-0.8 1.7-1.4 1.1-0.6 2.5-0.6 1.6 0 2.6 0.8 0.8 0.5 1.2 1.5 0.3-0.5 0.7-0.9 0.7-0.6 1.7-1 1-0.4 2-0.4 1.3 0 2.2 0.5 1 0.6 1.5 1.4 0.3 0.6 0.5 1.9 0.2 0.8 0.2 2.4z"/><path class="b" d="m3148.1 725.9q-2.5 0-4.7-0.9-2.6-1-4-3.3-1.4-2.2-1.4-5.3c0-2.9 0.9-5.3 2.7-7 1.8-1.8 4.2-2.7 7.1-2.7q2.5 0 4.8 0.8h0.1l-0.4 3.5-0.1-0.1q-0.9-0.4-2-0.6-1.2-0.3-2.2-0.3-1.6 0-2.9 0.8-1.4 0.8-2.1 2.2-0.7 1.5-0.7 3.2 0 2.8 1.7 4.6 1.7 1.7 4.5 1.7 2 0 3.9-0.8l0.1-0.1 0.2 3.6-0.1 0.1q-0.7 0.2-2 0.4-1.3 0.2-2.5 0.2z"/><path class="b" d="m3057.7 706.7h3.9v18.7h-3.9z"/><path fill-rule="evenodd" class="b" d="m3029.7 725.4h-4.4l-1.5-4.2h-7.4l-1.6 4.2h-4.2l7.4-18.7h4.3zm-12.1-7.4h5l-2.5-7z"/><path class="b" d="m3100.8 715.5c-2-1.4-3.3-1.8-4.2-1.8-0.9 0-2.2 0.4-1.9 1.6 0.5 1.5 6.8 1.4 6.8 6.2 0 3-2.1 4.3-5.9 4.3-2.3 0-4.5-1.1-5.1-1.5v-2.3c1.4 0.6 2.9 1.4 4.6 1.4 1.4 0 2.2-0.6 2.2-1.3 0-2.1-7.1-1.7-7.1-6.4 0-2.7 2.4-4.4 5.9-4.4 1.8 0 3.7 0.8 5.2 1.7z"/></svg>