<svg width="149" height="21" viewBox="0 0 149 21" fill="none" xmlns="http://www.w3.org/2000/svg">
<path d="M1.06023 9.78429L0.843445 6.91619H8.94585L9.02714 8.98219C10.0298 7.96134 11.737 6.62451 16.2082 6.62451C24.1209 6.62451 24.1209 10.3919 24.1209 12.2392V20.406H16.0456V12.6767C16.0456 11.7288 16.0456 9.8329 12.7396 9.8329C9.10844 9.8329 9.10843 12.1906 9.10843 12.6767V20.406H1.06023" fill="white"/>
<path d="M35.5247 6.11401C41.9199 6.11401 46.8789 8.32586 46.8789 13.0898C46.8789 15.0586 46.0659 17.0274 44.0064 18.4371C42.3534 19.5309 39.9417 20.3573 35.904 20.3573C31.5412 20.3573 28.723 19.6281 26.8261 18.3642C24.5498 16.8816 24.0079 14.8642 24.0079 13.2357C24.0079 9.10365 27.7203 6.11401 35.5247 6.11401ZM32.598 16.4684C33.4652 17.4892 34.793 17.5378 35.4705 17.5378C38.6952 17.5378 39.3184 15.1558 39.3184 13.26C39.3184 10.9266 38.5055 8.95781 35.5518 8.95781C32.3 8.95781 31.6767 11.2426 31.6767 13.26C31.6496 14.1593 31.758 15.4718 32.598 16.4684Z" fill="white"/>
<path d="M46.5282 9.76034L46.3114 6.89224H53.9531L54.0886 9.68742C55.8771 6.67348 59.698 6.77071 61.4865 6.79501V11.1215C60.5651 11.0729 60.3483 11.0486 59.8064 11.0486C55.01 11.0486 54.3325 13.2118 54.3325 14.6701V20.3577H46.5282" fill="white"/>
<path d="M66.7226 14.4512C66.7226 15.1803 66.7226 17.7325 70.8957 17.7325C73.0636 17.7325 74.4185 17.0276 74.6353 15.7637H82.2228C81.6266 19.1422 76.478 20.4547 70.8415 20.4547C63.2269 20.4547 59.1621 18.097 59.1621 13.6491C59.1621 9.15245 62.712 6.21143 70.7602 6.21143C76.8302 6.21143 79.6756 7.7427 81.1389 9.63857C82.0873 10.7809 82.3583 12.0692 82.3583 14.4512M74.6624 11.7046C74.5811 10.9268 74.3101 8.88508 70.7602 8.88508C67.2103 8.88508 66.8852 11.0483 66.8039 11.7046H74.6624Z" fill="white"/>
<path d="M90.3506 0.81543H82.194V20.1873H90.3506V0.81543Z" fill="white"/>
<path d="M97.5273 14.3051C97.5273 15.0343 97.5273 17.5865 101.7 17.5865C103.868 17.5865 105.223 16.8816 105.44 15.6177H113.028C112.431 18.9962 107.283 20.3087 101.646 20.3087C94.0316 20.3087 89.9668 17.951 89.9668 13.503C89.9668 9.00645 93.5167 6.06543 101.565 6.06543C107.635 6.06543 110.48 7.5967 111.944 9.49256C112.892 10.6593 113.163 11.9475 113.163 14.3051M105.467 11.5829C105.386 10.8051 105.115 8.76339 101.565 8.76339C98.015 8.76339 97.6899 10.9266 97.6086 11.5829H105.467Z" fill="white"/>
<path d="M112.865 9.85718C112.865 9.5412 112.702 7.20784 112.702 6.79464H120.317L120.398 9.03078C121.861 7.28075 124.246 6.47865 127.362 6.47865C128.555 6.47865 132.484 6.62449 133.839 8.98217C135.763 6.89186 138.96 6.45435 141.074 6.45435C144.922 6.45435 146.765 7.76687 147.55 8.54466C148.661 9.68704 148.662 11.3398 148.662 12.8954V20.2844H140.966V12.6524C140.966 11.2912 140.966 9.66274 137.903 9.66274C136.874 9.66274 135.736 9.9058 135.031 10.7808C134.787 11.0968 134.625 11.5343 134.625 12.6767V20.2358H126.929V12.5551C126.929 11.3398 126.929 9.63843 123.867 9.63843C121.238 9.63843 120.588 11.0725 120.588 12.5551V20.2358H112.892" fill="white"/>
</svg>
