<svg width="144" height="34" viewBox="0 0 144 34" fill="none" xmlns="http://www.w3.org/2000/svg">
<path d="M5.67583 16.937C5.01416 16.937 4.48489 16.2753 4.48489 15.6136V1.19095C4.48489 0.661677 5.01416 0 5.67583 0H37.0359C37.5651 0 38.2268 0.661677 38.2268 1.19095V7.14531C38.2268 7.80699 37.5651 8.46831 37.0359 8.46831H26.8473C26.1856 8.46831 25.524 7.80699 25.524 7.14531V5.02824C25.524 4.63101 25.1271 4.23415 24.7299 4.23415H17.9818C17.5846 4.23415 17.0553 4.63101 17.0553 5.02824V11.7763C17.0553 12.1736 17.5846 12.7028 17.9818 12.7028H41.138C42.0641 12.7028 42.461 13.0997 42.461 13.8938V32.551C42.461 33.2126 41.7996 33.7419 41.138 33.7419H1.44168C0.780002 33.7419 0.250732 33.2126 0.250732 32.551V22.3621C0.250732 21.7004 0.780002 21.1711 1.44168 21.1711H11.6302C12.2919 21.1711 12.8211 21.7004 12.8211 22.3621V28.7137C12.8211 29.1105 13.3504 29.5074 13.7473 29.5074H28.9644C29.3613 29.5074 29.7581 29.1105 29.7581 28.7137V17.7311C29.7581 17.3338 29.3613 16.937 28.9644 16.937H5.67583Z" fill="white"/>
<path d="M50.9318 13.497V20.2455C50.9318 20.6424 50.5349 20.9072 50.0057 21.1716C49.2116 21.304 48.8147 21.7009 48.8147 22.3626V32.5515C48.8147 33.2128 49.344 33.742 50.0057 33.742H62.3116C62.9729 33.742 63.5022 33.2128 63.5022 32.5515V21.304C63.5022 21.1716 63.767 21.0392 63.8994 21.1716L75.9406 33.4776C76.205 33.742 76.3374 33.742 76.7343 33.742H91.819C92.4807 33.742 93.1424 33.2128 93.1424 32.5515V22.3626C93.1424 21.7009 92.4807 21.1716 91.819 21.1716H80.8364C80.572 21.1716 80.4395 21.1716 80.3071 20.9072L72.1033 12.8354C72.1033 12.7029 71.9709 12.7029 72.1033 12.5709L76.073 8.6012C76.205 8.4688 76.3374 8.4688 76.6023 8.4688H87.7173C88.2465 8.4688 88.9082 7.80712 88.9082 7.1458V1.19107C88.9082 0.661804 88.2465 0.000488281 87.7173 0.000488281H76.7343C76.3374 0.000488281 76.205 0.132534 75.9406 0.39735L64.0315 12.5709C63.767 12.7029 63.5022 12.7029 63.5022 12.4385V1.19107C63.5022 0.661804 62.9729 0.000488281 62.3116 0.000488281H50.0057C49.344 0.000488281 48.8147 0.661804 48.8147 1.19107V11.38C48.8147 12.0416 49.2116 12.4385 49.8733 12.5709C50.667 12.8354 50.9318 13.1002 50.9318 13.497Z" fill="white"/>
<path d="M99.4937 32.5512C99.4937 33.2129 100.155 33.7421 100.817 33.7421H112.99C113.652 33.7421 114.314 33.2129 114.314 32.5512V22.4947C114.314 21.833 113.917 21.3038 113.123 21.1714C112.461 20.9069 112.196 20.7745 112.196 20.2452V17.7313C112.196 17.3341 112.593 16.9372 112.99 16.9372H117.622C118.151 16.9372 118.548 17.3341 118.548 17.7313C118.548 18.393 119.209 19.0543 119.739 19.0543H129.928C130.589 19.0543 131.251 18.393 131.251 17.7313V11.7769C131.251 11.1153 130.589 10.586 129.928 10.586H119.739C119.209 10.586 118.548 11.1153 118.548 11.7769C118.548 12.1738 118.151 12.7031 117.622 12.7031H112.99C112.593 12.7031 112.196 12.1738 112.196 11.7769V5.02848C112.196 4.63126 112.593 4.2344 112.99 4.2344H126.09C126.487 4.2344 127.016 4.63126 127.016 5.02848V7.14556C127.016 7.80723 127.546 8.46855 128.207 8.46855H142.63C143.292 8.46855 143.821 7.80723 143.821 7.14556V1.19119C143.821 0.661921 143.292 0.000244141 142.63 0.000244141H100.817C100.155 0.000244141 99.4937 0.661921 99.4937 1.19119V11.3797C99.4937 12.0414 100.023 12.4382 100.685 12.5707C101.214 12.7031 101.611 13.0999 101.611 13.4968V20.2452C101.611 20.6421 101.346 21.0393 100.685 21.1714C99.8905 21.3038 99.4937 21.7006 99.4937 22.3623V32.5512Z" fill="white"/>
</svg>
