<svg width="98" height="23" viewBox="0 0 98 23" fill="none" xmlns="http://www.w3.org/2000/svg">
<g clip-path="url(#clip0_2088_2480)">
<path d="M34.1062 2.95132C35.0043 2.75157 36.1512 2.62672 37.423 2.62672C38.9445 2.62672 40.3911 2.87641 41.4132 3.79865C42.2364 4.52195 42.6101 5.594 42.6101 6.7917C42.6101 8.36314 41.762 9.78475 40.1414 10.4831V10.558C42.0616 11.0815 43.1594 12.6779 43.1594 14.698C43.1594 16.0946 42.7108 17.1917 41.9376 18.0148C40.9646 19.1127 39.3191 19.6362 36.8995 19.6362C35.6526 19.6362 34.7546 19.5613 34.1062 19.4614V2.95132ZM36.7497 9.70985H37.5229C38.8946 9.70985 39.9916 8.61282 39.9916 7.09133C39.9916 5.69468 39.3432 4.6476 37.6969 4.6476C37.2982 4.6476 36.9736 4.67257 36.7489 4.74747V9.71065L36.7497 9.70985ZM36.7497 17.4913C36.9744 17.5412 37.2482 17.5662 37.5978 17.5662C39.2192 17.5662 40.4161 16.5932 40.4161 14.673C40.4161 12.7528 39.0444 11.7049 37.5229 11.7049H36.7497V17.4913ZM52.0629 11.8548H48.0727V17.1917H52.6122V19.5114H45.4042V2.70163H52.3126V5.02133H48.0727V9.63494H52.0629V11.8548ZM54.7813 19.5114V2.70163H57.2258L60.0691 9.88382C60.6683 11.4053 61.5157 13.5752 62.0392 15.1958H62.0891C61.9393 13.0509 61.7895 10.4573 61.7895 7.46425V2.70163H64.1334V19.5114H61.6896L58.8214 12.3533C58.198 10.8069 57.4498 8.7868 56.9753 7.01642H56.9254C57.0502 8.96158 57.1252 11.3312 57.1252 14.8228V19.5114H54.7805H54.7813ZM67.0773 2.95132C67.8505 2.75157 68.9234 2.62672 70.0704 2.62672C72.0155 2.62672 73.4122 3.10033 74.4101 4.02337C75.7818 5.24524 76.6299 7.44009 76.6299 10.8069C76.6299 14.4233 75.7319 16.6923 74.4601 17.9399C73.3381 19.0869 71.6925 19.6354 69.5218 19.6354C68.5996 19.6354 67.6766 19.5605 67.0781 19.4606V2.95132H67.0773ZM69.7208 17.3914C69.9455 17.4414 70.1944 17.4414 70.3692 17.4414C72.2145 17.4414 73.8858 15.8949 73.8858 10.7827C73.8858 6.96729 72.8129 4.77244 70.4932 4.77244C70.2194 4.77244 69.9447 4.79741 69.72 4.84735V17.3922L69.7208 17.3914ZM85.4585 11.8548H81.4683V17.1917H86.007V19.5114H78.799V2.70163H85.7074V5.02133H81.4675V9.63494H85.4577V11.8548H85.4585ZM88.1769 2.95132C89.0999 2.7266 90.2719 2.62672 91.3689 2.62672C93.1143 2.62672 94.5609 2.92635 95.5339 3.84859C96.4819 4.74667 96.8065 5.86866 96.8065 7.26531C96.8065 9.21047 95.8585 10.732 94.163 11.5052V11.5551C95.3599 11.9788 95.9591 13.1016 96.3079 15.0967C96.6575 17.1417 97.0562 18.9371 97.3308 19.5114H94.5625C94.3628 19.0378 93.989 17.3914 93.7144 15.4213C93.3898 13.2264 92.7672 12.5281 91.4196 12.5281H90.8204V19.5114H88.1769V2.95132ZM90.8204 10.4831H91.5187C93.1151 10.4831 94.1123 9.23624 94.1123 7.515C94.1123 5.79375 93.4389 4.74667 91.7176 4.7217C91.3681 4.7217 91.0443 4.74667 90.8196 4.82157V10.4831H90.8204ZM28.9714 10.0111L16.9461 22.0356H26.5656L28.9714 19.6306H24.1629C27.0826 17.4365 28.9714 13.9449 28.9714 10.0111ZM1.3485 17.2263L18.1832 0.391602H2.5164C1.18822 0.391602 0.111328 1.46849 0.111328 2.79667V19.6314C0.111328 20.9596 1.18822 22.0364 2.5164 22.0364H13.5446L15.9497 19.6314H5.74626L8.15134 17.2271H1.3485V17.2263ZM18.7672 10.0111L24.9853 3.79221L21.5846 0.391602L7.15499 14.8212H13.957L11.5519 17.2263H18.354L25.5692 10.0111H18.7672Z" fill="white"/>
<path d="M34.1062 2.95132C35.0043 2.75157 36.1512 2.62672 37.423 2.62672C38.9445 2.62672 40.3911 2.87641 41.4132 3.79865C42.2364 4.52195 42.6101 5.594 42.6101 6.7917C42.6101 8.36313 41.762 9.78475 40.1414 10.4831V10.558C42.0616 11.0815 43.1594 12.6779 43.1594 14.698C43.1594 16.0946 42.7108 17.1917 41.9376 18.0148C40.9646 19.1127 39.3191 19.6362 36.8995 19.6362C35.6526 19.6362 34.7546 19.5613 34.1062 19.4614V2.95132ZM36.7497 9.70985H37.5229C38.8946 9.70985 39.9916 8.61282 39.9916 7.09133C39.9916 5.69468 39.3432 4.6476 37.6969 4.6476C37.2982 4.6476 36.9736 4.67257 36.7489 4.74747V9.71065L36.7497 9.70985ZM36.7497 17.4913C36.9744 17.5412 37.2482 17.5662 37.5978 17.5662C39.2192 17.5662 40.4161 16.5932 40.4161 14.673C40.4161 12.7528 39.0444 11.7049 37.5229 11.7049H36.7497V17.4913ZM52.0629 11.8548H48.0727V17.1917H52.6122V19.5114H45.4042V2.70163H52.3126V5.02132H48.0727V9.63494H52.0629V11.8548ZM54.7813 19.5114V2.70163H57.2258L60.0691 9.88382C60.6683 11.4053 61.5157 13.5752 62.0392 15.1958H62.0891C61.9393 13.0509 61.7895 10.4573 61.7895 7.46425V2.70163H64.1334V19.5114H61.6896L58.8214 12.3533C58.198 10.8069 57.4498 8.7868 56.9753 7.01642H56.9254C57.0502 8.96158 57.1252 11.3312 57.1252 14.8228V19.5114H54.7805H54.7813ZM67.0773 2.95132C67.8505 2.75157 68.9234 2.62672 70.0704 2.62672C72.0155 2.62672 73.4122 3.10033 74.4101 4.02337C75.7818 5.24524 76.63 7.44009 76.63 10.8069C76.63 14.4233 75.7319 16.6923 74.4601 17.9399C73.3381 19.0869 71.6925 19.6354 69.5218 19.6354C68.5996 19.6354 67.6766 19.5605 67.0781 19.4606V2.95132H67.0773ZM69.7208 17.3914C69.9455 17.4414 70.1944 17.4414 70.3692 17.4414C72.2145 17.4414 73.8858 15.8949 73.8858 10.7827C73.8858 6.96729 72.8129 4.77244 70.4932 4.77244C70.2194 4.77244 69.9447 4.79741 69.72 4.84735V17.3922L69.7208 17.3914ZM85.4585 11.8548H81.4683V17.1917H86.007V19.5114H78.799V2.70163H85.7074V5.02132H81.4675V9.63494H85.4577V11.8548H85.4585ZM88.1769 2.95132C89.0999 2.7266 90.2719 2.62672 91.3689 2.62672C93.1143 2.62672 94.5609 2.92635 95.5339 3.84859C96.4819 4.74667 96.8065 5.86866 96.8065 7.26531C96.8065 9.21047 95.8585 10.732 94.163 11.5052V11.5551C95.3599 11.9788 95.9592 13.1016 96.3079 15.0967C96.6575 17.1417 97.0562 18.9371 97.3308 19.5114H94.5625C94.3628 19.0378 93.989 17.3914 93.7144 15.4213C93.3898 13.2264 92.7672 12.5281 91.4196 12.5281H90.8204V19.5114H88.1769V2.95132ZM90.8204 10.4831H91.5187C93.1151 10.4831 94.1123 9.23624 94.1123 7.515C94.1123 5.79375 93.4389 4.74667 91.7177 4.7217C91.3681 4.7217 91.0443 4.74667 90.8196 4.82157V10.4831H90.8204ZM28.9714 10.0111L16.9461 22.0356H26.5656L28.9714 19.6306H24.1629C27.0827 17.4365 28.9714 13.9449 28.9714 10.0111ZM1.3485 17.2263L18.1832 0.391602H2.5164C1.18822 0.391602 0.111328 1.46849 0.111328 2.79667V19.6314C0.111328 20.9596 1.18822 22.0364 2.5164 22.0364H13.5446L15.9497 19.6314H5.74626L8.15134 17.2271H1.3485V17.2263ZM18.7672 10.0111L24.9853 3.79221L21.5846 0.391602L7.15499 14.8212H13.957L11.5519 17.2263H18.354L25.5692 10.0111H18.7672Z" fill="white"/>
</g>
<defs>
<clipPath id="clip0_2088_2480">
<rect width="97.2179" height="21.644" fill="white" transform="translate(0.111328 0.391602)"/>
</clipPath>
</defs>
</svg>
