<svg width="250" height="54" viewBox="0 0 250 54" fill="none" xmlns="http://www.w3.org/2000/svg">
<path d="M14.4139 29.7318H38.9719L44.0387 23.9363H19.6045L14.4139 29.7318Z" fill="white"/>
<path d="M137.769 20.389C137.86 25.8297 134.575 31.3319 127.12 31.3319H118.752V9.81421H127.12C134.422 9.81421 137.679 15.0709 137.769 20.389ZM122.738 27.4281H127.12C131.958 27.4281 133.875 23.8626 133.784 20.358C133.692 17.007 131.745 13.6561 127.12 13.6561H122.738V27.4281Z" fill="white"/>
<path d="M155.546 27.274H144.41L142.584 31.3321H138.233L147.787 9.81445H152.168L161.723 31.3321H157.342L155.546 27.274ZM149.978 14.333L146.023 23.493H153.934L149.978 14.333Z" fill="white"/>
<path d="M171.617 31.4282H167.448L158.593 9.81763H163.097L169.517 26.5713L175.969 9.81763H180.472L171.617 31.4282Z" fill="white"/>
<path d="M200.983 28.352C198.853 30.5049 196.023 31.5808 193.223 31.5808C186.042 31.5808 182.3 26.5076 182.269 20.6987C182.209 14.9499 185.921 9.56934 193.223 9.56934C196.023 9.56934 198.853 10.6458 200.983 12.7987L199.858 13.7817C198.031 11.9373 195.628 11.0455 193.223 11.0455C187.017 11.0455 183.822 15.4724 183.851 20.6367C183.912 25.6784 187.077 30.0421 193.223 30.0421C195.628 30.0421 198.061 29.1205 199.886 27.3065L200.983 28.352Z" fill="white"/>
<path d="M225.389 20.6065C225.359 26.2623 221.798 31.7031 214.648 31.7031C207.498 31.7031 203.908 26.2319 203.908 20.5457C203.908 14.7666 207.466 9.47949 214.648 9.47949C221.829 9.47949 225.419 14.797 225.389 20.6065ZM205.519 20.5761C205.549 25.4331 208.592 30.1661 214.648 30.1661C220.733 30.1661 223.807 25.4331 223.807 20.5761C223.807 15.5958 220.764 11.0159 214.648 11.0159C208.531 11.0159 205.489 15.5041 205.519 20.5761Z" fill="white"/>
<path d="M230.925 9.81567H229.313V31.3334H230.925V9.81567Z" fill="white"/>
<path d="M235.62 9.81763V31.3353H249.251V29.7679H237.262V9.81763H235.62Z" fill="white"/>
<path d="M121.371 40.6268C120.991 40.0126 120.385 39.9238 119.8 39.9156C119.191 39.9156 118.229 40.14 118.229 40.9786C118.229 41.6449 118.939 41.8021 119.813 41.9669C120.815 42.1615 121.851 42.3409 121.851 43.4717C121.844 44.6545 120.666 44.9385 119.8 44.9385C118.991 44.9385 118.073 44.6013 117.674 43.8007L118.028 43.6207C118.346 44.2566 119.162 44.5715 119.8 44.5715C120.436 44.5715 121.452 44.3915 121.452 43.4635C121.459 42.6781 120.599 42.5057 119.747 42.3409C118.799 42.1545 117.828 41.9587 117.828 40.9938C117.806 39.8858 118.947 39.541 119.8 39.541C120.54 39.541 121.184 39.6608 121.696 40.4328L121.371 40.6268Z" fill="white"/>
<path d="M129.141 44.1287C128.623 44.6523 127.933 44.9147 127.251 44.9147C125.502 44.9147 124.591 43.6787 124.584 42.265C124.569 40.8654 125.473 39.5552 127.251 39.5552C127.933 39.5552 128.623 39.817 129.141 40.34L128.866 40.5802C128.423 40.1308 127.837 39.914 127.251 39.914C125.74 39.914 124.961 40.9922 124.968 42.2499C124.984 43.4765 125.753 44.5407 127.251 44.5407C127.837 44.5407 128.429 44.3157 128.874 43.8745L129.141 44.1287Z" fill="white"/>
<path d="M136.121 44.8562L135.551 43.5682H132.454L131.891 44.8562H131.461L133.787 39.6165H134.224L136.551 44.8562H136.121ZM135.395 43.1947L134.002 40.0057L132.61 43.1947H135.395Z" fill="white"/>
<path d="M143.815 40.2018L141.829 43.2705H141.696L139.694 40.2018V44.8583H139.294V39.6174H139.769L141.755 42.6721L143.719 39.6174H144.207V44.8583H143.815V40.2018Z" fill="white"/>
<path d="M151.338 41.0472C151.338 41.586 151.013 42.0051 150.494 42.1699C151.146 42.3493 151.517 42.8811 151.517 43.4877C151.517 44.5659 150.524 44.8569 149.634 44.8569H147.508V39.6172H149.634C150.509 39.6172 151.338 40.0514 151.338 41.0472ZM147.908 41.9904H149.687C150.309 41.9904 150.961 41.7958 150.961 41.0472C150.961 40.284 150.279 39.9608 149.634 39.9608H147.908V41.9904ZM147.908 44.4683H149.634C150.286 44.4683 151.124 44.3105 151.124 43.4795C151.117 42.6643 150.382 42.3715 149.687 42.3715H147.908V44.4683Z" fill="white"/>
<path d="M155.025 39.6182H154.633V44.8579H155.025V39.6182Z" fill="white"/>
<path d="M162.444 44.8562L161.873 43.5682H158.776L158.214 44.8562H157.783L160.11 39.6165H160.547L162.874 44.8562H162.444ZM161.718 43.1947L160.325 40.0057L158.932 43.1947H161.718Z" fill="white"/>
<path d="M166.324 39.9826H164.449V39.6238H168.598V39.9826H166.724V44.8553H166.324V39.9826Z" fill="white"/>
<path d="M176.513 42.2421C176.505 43.6201 175.639 44.945 173.897 44.945C172.156 44.945 171.282 43.6119 171.282 42.2269C171.282 40.8197 172.149 39.5322 173.897 39.5322C175.646 39.5322 176.521 40.8273 176.513 42.2421ZM171.674 42.2345C171.682 43.4173 172.423 44.5698 173.897 44.5698C175.38 44.5698 176.129 43.4173 176.129 42.2345C176.129 41.0213 175.387 39.9068 173.897 39.9068C172.408 39.9068 171.666 40.9991 171.674 42.2345Z" fill="white"/>
<path d="M183.751 44.8562H183.226L181.432 42.8722H180.017V44.8562H179.617V39.6165H181.899C183.025 39.6165 183.596 40.4317 183.603 41.2475C183.611 42.1013 183.055 42.8499 181.921 42.8499L183.751 44.8562ZM180.017 42.4905H181.854C182.759 42.4905 183.159 41.9739 183.166 41.2405C183.173 40.6263 182.759 39.9905 181.899 39.9905H180.017V42.4905Z" fill="white"/>
<path d="M186.969 39.6187H186.576V44.8584H186.969V39.6187Z" fill="white"/>
<path d="M198.805 42.1778C198.834 43.5109 197.99 44.8579 196.175 44.8579H194.418V39.6182H196.175C197.93 39.6182 198.775 40.8898 198.805 42.1778ZM194.818 39.9998V44.4693H196.175C197.716 44.4693 198.427 43.3005 198.405 42.1778C198.383 41.085 197.672 39.9998 196.175 39.9998H194.818Z" fill="white"/>
<path d="M202.345 39.6184H201.952V44.8582H202.345V39.6184Z" fill="white"/>
<path d="M214.122 44.1287C213.604 44.6523 212.914 44.9147 212.233 44.9147C210.484 44.9147 209.572 43.6787 209.567 42.265C209.55 40.8654 210.455 39.5552 212.233 39.5552C212.914 39.5552 213.604 39.817 214.122 40.34L213.848 40.5802C213.404 40.1308 212.818 39.914 212.233 39.914C210.721 39.914 209.943 40.9922 209.951 42.2499C209.966 43.4765 210.736 44.5407 212.233 44.5407C212.818 44.5407 213.411 44.3157 213.856 43.8745L214.122 44.1287Z" fill="white"/>
<path d="M221.099 44.8562L220.528 43.5682H217.431L216.868 44.8562H216.438L218.764 39.6165H219.202L221.529 44.8562H221.099ZM220.373 43.1947L218.98 40.0057L217.586 43.1947H220.373Z" fill="white"/>
<path d="M224.818 39.6133V44.472H227.738V44.853H224.418V39.6133H224.818Z" fill="white"/>
<path d="M235.509 42.2421C235.501 43.6201 234.634 44.945 232.893 44.945C231.152 44.945 230.277 43.6119 230.277 42.2269C230.277 40.8197 231.145 39.5322 232.893 39.5322C234.642 39.5322 235.517 40.8273 235.509 42.2421ZM230.67 42.2345C230.678 43.4173 231.419 44.5698 232.893 44.5698C234.375 44.5698 235.124 43.4173 235.124 42.2345C235.124 41.0213 234.382 39.9068 232.893 39.9068C231.403 39.9068 230.662 40.9991 230.67 42.2345Z" fill="white"/>
<path d="M242.746 44.8562H242.22L240.426 42.8722H239.012V44.8562H238.611V39.6165H240.893C242.02 39.6165 242.59 40.4317 242.597 41.2475C242.605 42.1013 242.05 42.8499 240.915 42.8499L242.746 44.8562ZM239.012 42.4905H240.849C241.753 42.4905 242.154 41.9739 242.161 41.2405C242.167 40.6263 241.753 39.9905 240.893 39.9905H239.012V42.4905Z" fill="white"/>
<path d="M245.565 39.6182V44.8579H249.232V44.4693H245.957V42.4034H248.995V42.0358H245.957V39.9998H249.144V39.6182H245.565Z" fill="white"/>
<path d="M64.3495 53.8959C64.3495 53.8959 109.683 52.7469 109.683 25.7879C109.683 -1.23305 64.3495 0.00880013 64.3495 0.00880013V8.60476C64.3495 8.60476 97.5054 8.551 97.5054 25.7879C97.5054 43.0254 64.3495 44.9697 64.3495 44.9697V53.8959Z" fill="white"/>
<path d="M17.1327 37.7163L12.4355 44.9658H0V53.8925H56.9399V44.9658H24.5435L29.1274 37.7163H17.1327Z" fill="white"/>
<path d="M0 0.010498V8.60588H35.9962L30.6262 16.8939H42.2992L47.5402 8.60588H56.9399V0.010498H0Z" fill="white"/>
</svg>
