<?xml version="1.0" encoding="UTF-8" standalone="no"?>
<svg
   xmlns:dc="http://purl.org/dc/elements/1.1/"
   xmlns:cc="http://creativecommons.org/ns#"
   xmlns:rdf="http://www.w3.org/1999/02/22-rdf-syntax-ns#"
   xmlns:svg="http://www.w3.org/2000/svg"
   xmlns="http://www.w3.org/2000/svg"
   viewBox="0 0 1122.52 793.70135"
   height="793.70135"
   width="1122.52"
   xml:space="preserve"
   id="svg2"
   version="1.1"><metadata
     id="metadata8"><rdf:RDF><cc:Work
         rdf:about=""><dc:format>image/svg+xml</dc:format><dc:type
           rdf:resource="http://purl.org/dc/dcmitype/StillImage" /></cc:Work></rdf:RDF></metadata><defs
     id="defs6"><clipPath
       id="clipPath18"
       clipPathUnits="userSpaceOnUse"><path
         id="path16"
         d="M 0,595.276 H 841.89 V 0 H 0 Z" /></clipPath></defs><g
     transform="matrix(1.3333333,0,0,-1.3333333,0,793.70133)"
     id="g10"><g
       id="g12"><g
         clip-path="url(#clipPath18)"
         id="g14"><g
           transform="translate(258.2091,245.3495)"
           id="g20"><path
             id="path22"
             style="fill:#ffffff;fill-opacity:1;fill-rule:nonzero;stroke:none"
             d="M 0,0 -4.704,6.751 H -1.01 L 3.721,0 Z m -8.719,6.618 -1.541,1.649 h 5.582 c 1.523,0 2.671,0.327 3.442,0.983 0.771,0.656 1.157,1.569 1.157,2.738 0,1.188 -0.386,2.099 -1.157,2.738 -0.771,0.638 -1.919,0.956 -3.442,0.956 h -5.582 l 1.541,1.702 z M -12.174,0 v 18.606 h 7.655 c 1.648,0 3.061,-0.265 4.24,-0.796 C 0.9,17.278 1.807,16.515 2.446,15.523 3.083,14.531 3.402,13.353 3.402,11.988 3.402,10.624 3.083,9.449 2.446,8.466 1.807,7.482 0.9,6.729 -0.279,6.207 -1.458,5.684 -2.871,5.423 -4.519,5.423 h -5.741 l 1.541,1.568 V 0 Z" /></g><path
           id="path24"
           style="fill:#ffffff;fill-opacity:1;fill-rule:nonzero;stroke:none"
           d="m 279.287,256.222 h 9.25 v -2.844 h -9.25 z m 0.265,-7.975 h 10.5 v -2.897 h -13.955 v 18.606 h 13.582 v -2.897 h -10.127 z" /><g
           transform="translate(305.761,249.6549)"
           id="g26"><path
             id="path28"
             style="fill:#ffffff;fill-opacity:1;fill-rule:nonzero;stroke:none"
             d="M 0,0 0.931,2.713 H 10.978 L 11.909,0 Z m -3.854,-4.305 8.373,18.606 h 3.402 l 8.4,-18.606 H 12.706 L 5.503,12.467 H 6.885 L -0.292,-4.305 Z" /></g><g
           transform="translate(335.0794,245.3495)"
           id="g30"><path
             id="path32"
             style="fill:#ffffff;fill-opacity:1;fill-rule:nonzero;stroke:none"
             d="M 0,0 V 18.606 H 3.455 V 2.924 h 9.729 V 0 Z" /></g><path
           id="path34"
           style="fill:#ffffff;fill-opacity:1;fill-rule:nonzero;stroke:none"
           d="m 361.633,263.956 h 3.455 V 245.35 h -3.455 z" /><g
           transform="translate(379.3351,245.3495)"
           id="g36"><path
             id="path38"
             style="fill:#ffffff;fill-opacity:1;fill-rule:nonzero;stroke:none"
             d="m 0,0 v 2.313 l 12.015,14.673 0.398,-1.304 H 0.186 v 2.924 H 15.524 V 16.294 L 3.509,1.622 3.083,2.924 H 15.869 V 0 Z" /></g><path
           id="path40"
           style="fill:#ffffff;fill-opacity:1;fill-rule:nonzero;stroke:none"
           d="m 409,263.956 h 3.455 V 245.35 H 409 Z" /><g
           transform="translate(428.1108,245.3495)"
           id="g42"><path
             id="path44"
             style="fill:#ffffff;fill-opacity:1;fill-rule:nonzero;stroke:none"
             d="M 0,0 V 18.606 H 2.844 L 14.513,4.28 h -1.409 v 14.326 h 3.429 V 0 H 13.689 L 2.02,14.326 H 3.429 L 3.429,0 Z" /></g><g
           transform="translate(472.9785,247.9013)"
           id="g46"><path
             id="path48"
             style="fill:#ffffff;fill-opacity:1;fill-rule:nonzero;stroke:none"
             d="m 0,0 v 6.963 h 3.27 v -7.414 z m -4.014,-2.818 c -1.453,0 -2.787,0.235 -4,0.705 -1.214,0.469 -2.273,1.134 -3.176,1.992 -0.904,0.861 -1.605,1.875 -2.101,3.045 -0.496,1.169 -0.743,2.444 -0.743,3.827 0,1.383 0.247,2.658 0.743,3.829 0.496,1.169 1.201,2.183 2.114,3.043 0.912,0.859 1.98,1.523 3.203,1.993 1.223,0.469 2.561,0.705 4.014,0.705 1.576,0 2.998,-0.258 4.266,-0.771 1.267,-0.515 2.334,-1.268 3.203,-2.259 l -2.18,-2.127 c -0.727,0.726 -1.511,1.263 -2.352,1.608 -0.842,0.345 -1.768,0.519 -2.778,0.519 -0.975,0 -1.878,-0.161 -2.711,-0.479 -0.833,-0.32 -1.551,-0.771 -2.154,-1.355 -0.601,-0.585 -1.067,-1.277 -1.395,-2.074 -0.328,-0.798 -0.491,-1.675 -0.491,-2.632 0,-0.939 0.163,-1.806 0.491,-2.605 0.328,-0.798 0.794,-1.492 1.395,-2.086 0.603,-0.593 1.312,-1.05 2.128,-1.37 0.814,-0.317 1.718,-0.478 2.71,-0.478 0.922,0 1.812,0.146 2.672,0.438 0.859,0.294 1.678,0.786 2.458,1.476 L 3.27,-0.451 c -0.975,-0.78 -2.105,-1.37 -3.39,-1.768 -1.285,-0.399 -2.583,-0.599 -3.894,-0.599" /></g><g
           transform="translate(513.7261,245.3495)"
           id="g50"><path
             id="path52"
             style="fill:#ffffff;fill-opacity:1;fill-rule:nonzero;stroke:none"
             d="M 0,0 V 7.602 L 0.983,4.998 -7.203,18.606 h 4.571 L 3.641,8.16 H 1.009 l 6.3,10.446 h 4.226 L 3.349,4.998 4.305,7.602 V 0 Z" /></g><g
           transform="translate(545.9151,248.6996)"
           id="g54"><path
             id="path56"
             style="fill:#ffffff;fill-opacity:1;fill-rule:nonzero;stroke:none"
             d="M 0,0 C 0.832,0 1.598,0.141 2.299,0.424 2.998,0.707 3.615,1.116 4.146,1.648 4.678,2.179 5.09,2.808 5.382,3.535 5.674,4.262 5.821,5.067 5.821,5.953 5.821,6.839 5.674,7.644 5.382,8.371 5.09,9.098 4.682,9.727 4.159,10.258 3.637,10.79 3.02,11.199 2.313,11.482 1.603,11.765 0.832,11.908 0,11.908 c -0.834,0 -1.6,-0.143 -2.3,-0.426 C -3,11.199 -3.615,10.79 -4.147,10.258 -4.679,9.727 -5.091,9.098 -5.383,8.371 -5.675,7.644 -5.821,6.839 -5.821,5.953 c 0,-0.868 0.146,-1.67 0.438,-2.406 0.292,-0.736 0.7,-1.368 1.223,-1.899 C -3.638,1.116 -3.022,0.707 -2.313,0.424 -1.605,0.141 -0.834,0 0,0 m 0.026,-3.67 c -1.471,0 -2.831,0.24 -4.08,0.718 -1.25,0.479 -2.33,1.153 -3.243,2.02 -0.913,0.868 -1.622,1.887 -2.127,3.058 -0.504,1.169 -0.757,2.444 -0.757,3.827 0,1.383 0.253,2.658 0.757,3.829 0.505,1.169 1.219,2.188 2.14,3.056 0.922,0.867 2.003,1.541 3.243,2.02 1.241,0.478 2.587,0.718 4.041,0.718 1.47,0 2.821,-0.24 4.053,-0.718 1.231,-0.479 2.304,-1.153 3.216,-2.02 C 8.182,11.97 8.895,10.954 9.409,9.794 9.923,8.633 10.18,7.352 10.18,5.953 10.18,4.57 9.923,3.29 9.409,2.112 8.895,0.933 8.182,-0.086 7.269,-0.944 6.357,-1.805 5.284,-2.473 4.053,-2.952 2.821,-3.43 1.479,-3.67 0.026,-3.67" /></g><g
           transform="translate(578.2365,245.0298)"
           id="g58"><path
             id="path60"
             style="fill:#ffffff;fill-opacity:1;fill-rule:nonzero;stroke:none"
             d="m 0,0 c -2.641,0 -4.705,0.736 -6.193,2.207 -1.489,1.47 -2.233,3.571 -2.233,6.3 V 18.926 H -4.12 V 8.666 c 0,-1.772 0.363,-3.047 1.09,-3.827 0.726,-0.78 1.745,-1.169 3.056,-1.169 1.311,0 2.33,0.389 3.057,1.169 0.726,0.78 1.09,2.055 1.09,3.827 v 10.26 H 8.425 V 8.507 C 8.425,5.778 7.682,3.677 6.193,2.207 4.704,0.736 2.639,0 0,0" /></g><g
           transform="translate(613.3755,245.3495)"
           id="g62"><path
             id="path64"
             style="fill:#ffffff;fill-opacity:1;fill-rule:nonzero;stroke:none"
             d="m 0,0 -4.652,6.751 h 4.598 L 4.652,0 Z m -7.523,6.592 -1.913,2.021 h 5.422 c 1.329,0 2.321,0.286 2.977,0.864 0.655,0.575 0.983,1.368 0.983,2.378 0,1.028 -0.328,1.825 -0.983,2.393 -0.656,0.566 -1.648,0.849 -2.977,0.849 h -5.422 l 1.913,2.048 z M -11.828,0 v 18.606 h 8.053 c 1.665,0 3.101,-0.27 4.307,-0.811 C 1.736,17.254 2.666,16.48 3.322,15.47 3.977,14.46 4.305,13.254 4.305,11.855 4.305,10.472 3.977,9.281 3.322,8.28 2.666,7.279 1.736,6.512 0.532,5.98 -0.674,5.449 -2.11,5.184 -3.775,5.184 h -5.661 l 1.913,1.887 V 0 Z" /></g><path
           id="path66"
           style="fill:#ffffff;fill-opacity:1;fill-rule:nonzero;stroke:none"
           d="m 649.87,263.956 h 4.305 V 245.35 h -4.305 z" /><g
           transform="translate(673.5256,248.884)"
           id="g68"><path
             id="path70"
             style="fill:#ffffff;fill-opacity:1;fill-rule:nonzero;stroke:none"
             d="m 0,0 h 3.935 c 1.239,0 2.316,0.236 3.229,0.705 0.912,0.47 1.621,1.138 2.126,2.008 0.505,0.867 0.757,1.886 0.757,3.056 0,1.187 -0.252,2.21 -0.757,3.07 -0.505,0.859 -1.214,1.524 -2.126,1.993 -0.913,0.469 -1.99,0.705 -3.229,0.705 H 0 Z m -4.305,-3.535 v 18.607 h 8.451 c 2.021,0 3.802,-0.386 5.343,-1.157 1.542,-0.771 2.747,-1.846 3.615,-3.229 0.869,-1.383 1.303,-3.021 1.303,-4.917 0,-1.878 -0.434,-3.513 -1.303,-4.905 C 12.236,-0.526 11.031,-1.607 9.489,-2.378 7.948,-3.149 6.167,-3.535 4.146,-3.535 Z" /></g><path
           id="path72"
           style="fill:#ffffff;fill-opacity:1;fill-rule:nonzero;stroke:none"
           d="m 705.768,256.461 h 8.958 v -3.35 h -8.958 z m 0.318,-7.656 h 10.128 v -3.455 h -14.407 v 18.606 h 14.061 V 260.5 h -9.782 z" /><g
           transform="translate(731.9761,249.3371)"
           id="g74"><path
             id="path76"
             style="fill:#ffffff;fill-opacity:1;fill-rule:nonzero;stroke:none"
             d="m 0,0 1.143,3.27 h 9.569 L 11.881,0 Z M -4.146,-3.988 4.146,14.619 H 8.4 L 16.719,-3.988 H 12.201 L 5.396,12.439 H 7.097 L 0.266,-3.988 Z" /></g><g
           transform="translate(767.3809,245.0298)"
           id="g78"><path
             id="path80"
             style="fill:#ffffff;fill-opacity:1;fill-rule:nonzero;stroke:none"
             d="m 0,0 c -1.488,0 -2.914,0.201 -4.279,0.599 -1.365,0.398 -2.463,0.917 -3.296,1.555 l 1.462,3.242 C -5.315,4.83 -4.372,4.364 -3.282,4 -2.193,3.637 -1.09,3.456 0.026,3.456 0.878,3.456 1.564,3.54 2.087,3.708 2.609,3.876 2.995,4.112 3.243,4.413 3.491,4.715 3.615,5.06 3.615,5.449 3.615,5.946 3.42,6.34 3.03,6.633 2.64,6.925 2.127,7.164 1.489,7.35 0.851,7.537 0.146,7.714 -0.625,7.882 -1.396,8.05 -2.166,8.258 -2.937,8.507 -3.708,8.755 -4.412,9.073 -5.05,9.464 c -0.638,0.389 -1.156,0.904 -1.555,1.541 -0.398,0.638 -0.598,1.453 -0.598,2.446 0,1.063 0.287,2.033 0.864,2.91 0.575,0.877 1.444,1.577 2.604,2.099 1.161,0.524 2.619,0.785 4.373,0.785 1.169,0 2.321,-0.137 3.456,-0.412 1.134,-0.274 2.135,-0.687 3.003,-1.235 l -1.329,-3.27 c -0.868,0.495 -1.737,0.864 -2.604,1.103 -0.869,0.24 -1.72,0.358 -2.552,0.358 -0.834,0 -1.515,-0.096 -2.047,-0.292 -0.531,-0.195 -0.913,-0.447 -1.143,-0.758 -0.23,-0.31 -0.346,-0.668 -0.346,-1.076 0,-0.478 0.195,-0.864 0.585,-1.156 0.39,-0.292 0.904,-0.528 1.542,-0.705 C -0.159,11.625 0.545,11.448 1.316,11.27 2.087,11.093 2.858,10.89 3.629,10.66 4.399,10.428 5.104,10.12 5.742,9.729 6.38,9.34 6.898,8.826 7.297,8.187 7.696,7.549 7.895,6.742 7.895,5.769 7.895,4.724 7.602,3.767 7.018,2.899 6.432,2.029 5.559,1.33 4.399,0.798 3.239,0.267 1.772,0 0,0" /></g><path
           id="path82"
           style="fill:#ffffff;fill-opacity:1;fill-rule:evenodd;stroke:none"
           d="M 246.036,349.757 H 328.7 v -7.662 h -82.664 z m 0,-21.268 H 328.7 v -7.663 H 253.699 V 307.221 H 328.7 v -7.663 h -75.001 -7.663 v 7.663 13.605 z" /><path
           id="path84"
           style="fill:#ffffff;fill-opacity:1;fill-rule:evenodd;stroke:none"
           d="m 559.701,349.757 h -7.663 v -50.199 h 7.663 z" /><g
           transform="translate(355.6996,340.181)"
           id="g86"><path
             id="path88"
             style="fill:#ffffff;fill-opacity:1;fill-rule:evenodd;stroke:none"
             d="m 0,0 67.338,-39.957 1.123,-0.666 h 6.541 v 5.029 16.239 7.663 21.268 h -7.664 v -21.268 -7.663 -11.692 L 0,8.91 -1.123,9.576 h -6.54 V 4.547 -11.692 -19.355 -40.623 H 0 v 21.268 7.663 z" /></g><g
           transform="translate(457.6994,342.0953)"
           id="g90"><path
             id="path92"
             style="fill:#ffffff;fill-opacity:1;fill-rule:evenodd;stroke:none"
             d="m 0,0 h 29.838 v -42.537 h 7.663 V 0 H 75.002 V 7.662 H 37.501 29.838 0 -7.662 l 0,-7.662 z" /></g><g
           transform="translate(760.8787,349.7574)"
           id="g94"><path
             id="path96"
             style="fill:#ffffff;fill-opacity:1;fill-rule:evenodd;stroke:none"
             d="M 0,0 -32.722,-20.574 -65.445,0 h -14.396 l 39.921,-25.1 3.366,-2.116 v -22.983 h 7.663 v 22.983 L -25.525,-25.1 14.397,0 Z" /></g><g
           transform="translate(586.6991,342.0953)"
           id="g98"><path
             id="path100"
             style="fill:#ffffff;fill-opacity:1;fill-rule:evenodd;stroke:none"
             d="m 0,0 h 29.838 v -42.537 h 7.663 V 0 H 75.002 V 7.662 H 37.501 29.838 0 -7.662 l 0,-7.662 z" /></g><g
           transform="translate(768.5823,311.9611)"
           id="g102"><path
             id="path104"
             style="fill:#ffffff;fill-opacity:1;fill-rule:nonzero;stroke:none"
             d="m 0,0 c -3.147,0 -5.709,-2.561 -5.709,-5.71 0,-3.148 2.562,-5.709 5.709,-5.709 3.147,0 5.709,2.561 5.709,5.709 C 5.709,-2.561 3.147,0 0,0 m 0,-12.403 c -3.691,0 -6.693,3.002 -6.693,6.693 0,3.691 3.002,6.694 6.693,6.694 3.691,0 6.693,-3.003 6.693,-6.694 0,-3.691 -3.002,-6.693 -6.693,-6.693" /></g><g
           transform="translate(770.4776,303.2967)"
           id="g106"><path
             id="path108"
             style="fill:#ffffff;fill-opacity:1;fill-rule:nonzero;stroke:none"
             d="m 0,0 -1.566,2.235 h 0.942 L 0.959,0 Z m -3.238,2.191 -0.396,0.431 h 1.892 c 0.563,0 0.989,0.122 1.28,0.365 0.29,0.243 0.436,0.585 0.436,1.025 0,0.44 -0.146,0.78 -0.436,1.021 -0.291,0.24 -0.717,0.361 -1.28,0.361 h -1.892 l 0.396,0.44 z M -4.118,0 v 6.159 h 2.402 c 0.54,0 1,-0.085 1.382,-0.255 C 0.047,5.734 0.34,5.487 0.546,5.165 0.751,4.842 0.854,4.458 0.854,4.012 0.854,3.566 0.751,3.184 0.546,2.864 0.34,2.544 0.047,2.299 -0.334,2.129 -0.716,1.959 -1.176,1.874 -1.716,1.874 h -1.918 l 0.396,0.405 V 0 Z" /></g><g
           transform="translate(70.268,249.5367)"
           id="g110"><path
             id="path112"
             style="fill:#ffffff;fill-opacity:1;fill-rule:nonzero;stroke:none"
             d="M 0,0 133.86,-0.002 66.93,115.924 Z M 134.582,-0.419 -0.721,-0.417 66.93,116.757 Z" /></g><g
           transform="translate(103.9133,307.3925)"
           id="g114"><path
             id="path116"
             style="fill:#ffffff;fill-opacity:1;fill-rule:nonzero;stroke:none"
             d="M 0,0 33.285,-57.65 66.57,0.001 Z M 33.285,-58.482 -0.721,0.417 67.291,0.418 Z" /></g><path
           id="path118"
           style="fill:#ffffff;fill-opacity:1;fill-rule:nonzero;stroke:none"
           d="m 137.407,249.326 h -0.416 v 116.551 h 0.416 z" /><g
           transform="translate(204.3848,249.146)"
           id="g120"><path
             id="path122"
             style="fill:#ffffff;fill-opacity:1;fill-rule:nonzero;stroke:none"
             d="m 0,0 -100.936,58.275 0.208,0.36 L 0.209,0.361 Z" /></g><g
           transform="translate(70.0116,249.1477)"
           id="g124"><path
             id="path126"
             style="fill:#ffffff;fill-opacity:1;fill-rule:nonzero;stroke:none"
             d="m 0,0 -0.209,0.361 100.937,58.274 0.208,-0.361 z" /></g><g
           transform="translate(108.7234,275.8214)"
           id="g128"><path
             id="path130"
             style="fill:#ffffff;fill-opacity:1;fill-rule:nonzero;stroke:none"
             d="m 0,0 0.549,1.928 0.454,1.965 0.359,1.999 0.259,2.029 0.157,2.061 0.052,2.066 -0.051,1.99 -0.4,3.967 -0.787,3.934 -1.163,3.84 -1.245,3.098 -2.395,4.57 -1.54,3.266 -1.224,3.442 -0.891,3.551 -0.543,3.603 -0.183,3.573 0.048,1.909 0.141,1.874 0.237,1.844 0.325,1.815 0.413,1.784 0.498,1.751 0.583,1.715 0.663,1.676 0.742,1.637 0.817,1.592 0.892,1.547 0.963,1.501 1.034,1.45 1.099,1.397 1.164,1.344 1.227,1.286 1.285,1.226 1.345,1.164 1.397,1.1 1.452,1.033 1.501,0.964 1.55,0.891 1.594,0.819 1.638,0.742 1.678,0.664 1.718,0.581 1.754,0.501 1.787,0.414 1.82,0.327 1.848,0.236 0.674,0.051 -1.175,-2.69 -0.69,-1.913 -0.589,-1.933 -0.489,-1.947 -0.389,-1.956 -0.292,-1.965 -0.194,-1.971 -0.096,-1.968 -0.003,-1.965 0.092,-1.96 0.186,-1.95 0.278,-1.935 0.368,-1.919 0.461,-1.897 0.55,-1.873 0.638,-1.847 0.726,-1.814 0.813,-1.781 0.899,-1.741 0.984,-1.701 1.068,-1.658 1.151,-1.605 1.233,-1.556 1.314,-1.498 1.395,-1.438 1.473,-1.376 1.553,-1.311 1.629,-1.24 1.706,-1.166 1.762,-1.077 0.584,-0.331 3.57,-1.75 3.75,-1.402 3.877,-1.04 3.292,-0.578 7.675,-0.423 3.606,-0.424 3.574,-0.777 3.485,-1.117 3.335,-1.432 3.724,-2.113 1.55,-1.059 1.48,-1.128 1.41,-1.188 1.339,-1.249 1.267,-1.309 1.194,-1.361 1.12,-1.411 1.046,-1.461 0.971,-1.505 L 94.4,10.464 95.218,8.876 95.957,7.26 96.618,5.605 97.199,3.927 97.7,2.22 l 0.418,-1.724 0.337,-1.747 0.252,-1.762 0.169,-1.772 0.085,-1.783 -0.003,-1.786 -0.089,-1.792 -0.176,-1.789 -0.263,-1.785 -0.356,-1.779 -0.443,-1.769 -0.535,-1.755 -0.627,-1.737 -0.72,-1.72 -0.292,-0.609 -1.742,2.362 -1.314,1.556 -1.376,1.474 -1.443,1.397 -1.5,1.316 -1.556,1.235 -1.609,1.153 -1.656,1.07 -1.702,0.984 -1.743,0.899 -1.781,0.815 -1.815,0.726 -1.846,0.641 -1.874,0.547 -1.897,0.462 -1.918,0.37 -1.934,0.279 -1.948,0.188 -1.958,0.091 -1.965,-0.002 -1.968,-0.096 -1.966,-0.195 -1.964,-0.289 -1.955,-0.39 -1.945,-0.489 -1.928,-0.587 -1.911,-0.689 -1.887,-0.791 -1.864,-0.893 -1.815,-0.989 -1.14,-0.686 -2.738,-1.871 -3.091,-2.547 -2.839,-2.838 -2.145,-2.559 -4.206,-6.438 -2.168,-2.911 -2.46,-2.706 -2.708,-2.46 -2.911,-2.169 -3.69,-2.169 -1.694,-0.816 -1.713,-0.721 -1.736,-0.624 -1.752,-0.535 -1.764,-0.444 -1.777,-0.352 -1.784,-0.263 -1.788,-0.174 -1.788,-0.091 -1.785,-0.003 -1.781,0.086 -1.773,0.17 -1.761,0.254 -1.745,0.335 -1.727,0.421 -1.705,0.499 -1.679,0.581 -1.653,0.664 -1.618,0.736 -1.586,0.822 -1.548,0.896 -1.505,0.971 -1.463,1.048 -1.413,1.119 -1.363,1.198 -1.309,1.267 -1.254,1.344 -1.192,1.41 -1.129,1.485 -0.381,0.556 2.918,0.328 2.001,0.36 1.968,0.456 1.93,0.55 1.889,0.642 1.85,0.729 1.8,0.818 1.756,0.898 1.702,0.982 1.651,1.058 1.596,1.136 1.536,1.209 1.478,1.278 1.412,1.349 1.348,1.412 1.28,1.474 1.209,1.538 1.134,1.594 1.059,1.65 0.982,1.703 0.9,1.751 0.815,1.802 0.73,1.845 z m 102.561,-4.525 -0.185,1.951 -0.279,1.934 -0.369,1.92 -0.46,1.896 -0.55,1.873 -0.638,1.848 -0.726,1.815 -0.814,1.78 -0.898,1.741 -0.983,1.702 -1.069,1.656 -1.15,1.605 -1.234,1.557 -1.314,1.498 -1.395,1.437 -1.473,1.377 -1.553,1.311 -1.629,1.24 -1.706,1.166 -1.761,1.076 -0.584,0.331 -2.962,1.483 -3.725,1.462 -3.861,1.103 -3.944,0.724 -7.677,0.425 -3.604,0.422 -3.573,0.776 -3.486,1.116 -3.334,1.434 -3.724,2.111 -1.548,1.06 -1.482,1.127 -1.409,1.189 -1.339,1.25 -1.268,1.307 -1.193,1.362 -1.12,1.41 -1.045,1.462 -0.973,1.505 -0.893,1.545 -0.818,1.586 -0.739,1.619 -0.662,1.651 -0.58,1.679 -0.5,1.707 -0.419,1.724 -0.336,1.746 -0.253,1.762 -0.169,1.774 -0.084,1.784 0.002,1.784 0.089,1.793 0.176,1.789 0.264,1.785 0.354,1.778 0.445,1.769 0.535,1.755 0.627,1.739 0.719,1.718 0.813,1.697 2.465,4.532 -5.251,-0.134 -2.063,-0.158 -2.033,-0.26 -2.003,-0.358 -1.967,-0.457 -1.931,-0.549 -1.889,-0.642 -1.847,-0.73 -1.802,-0.817 -1.755,-0.9 L 7.315,85.647 5.664,84.587 4.068,83.452 2.533,82.243 1.057,80.965 -0.358,79.617 -1.706,78.204 -2.985,76.73 l -1.208,-1.538 -1.136,-1.594 -1.059,-1.65 -0.981,-1.702 -0.9,-1.752 -0.816,-1.802 -0.73,-1.844 -0.641,-1.889 -0.549,-1.927 -0.454,-1.963 -0.359,-1.999 -0.259,-2.032 -0.157,-2.058 -0.051,-2.067 0.089,-2.653 0.362,-3.305 0.788,-3.934 0.942,-3.21 1.464,-3.728 2.396,-4.569 1.54,-3.267 1.224,-3.44 0.89,-3.552 0.543,-3.603 0.184,-3.574 -0.049,-1.909 -0.142,-1.87 -0.235,-1.847 -0.326,-1.816 -0.414,-1.784 -0.498,-1.751 -0.581,-1.715 -0.664,-1.677 -0.741,-1.636 -0.818,-1.591 -0.891,-1.548 -0.963,-1.502 -1.034,-1.449 -1.099,-1.397 -1.164,-1.344 -1.226,-1.285 -1.287,-1.226 -1.343,-1.165 -1.398,-1.099 -1.453,-1.031 -1.5,-0.965 -1.549,-0.891 -1.595,-0.822 -1.638,-0.741 -1.679,-0.663 -1.717,-0.582 -1.754,-0.5 -1.786,-0.415 -1.82,-0.325 -1.849,-0.236 -1.876,-0.146 -5.157,-0.128 2.741,-4.483 1.168,-1.707 1.242,-1.631 1.313,-1.557 1.379,-1.474 1.441,-1.395 1.499,-1.318 1.557,-1.234 1.609,-1.153 1.656,-1.069 1.702,-0.985 1.742,-0.9 1.782,-0.816 1.815,-0.722 1.846,-0.641 1.874,-0.553 1.896,-0.457 1.919,-0.371 1.934,-0.279 1.949,-0.187 1.958,-0.091 1.965,0.003 1.967,0.096 1.967,0.193 1.963,0.29 1.956,0.39 1.943,0.488 1.929,0.587 1.91,0.691 1.888,0.791 1.862,0.892 1.816,0.989 0.577,0.341 2.764,1.82 3.13,2.495 2.883,2.794 2.601,3.052 4.204,6.437 2.168,2.91 2.461,2.707 2.708,2.459 2.912,2.17 3.688,2.17 1.693,0.811 1.715,0.72 1.735,0.628 1.752,0.535 1.766,0.442 1.776,0.353 1.782,0.266 1.789,0.174 1.788,0.089 h 1.787 l 1.781,-0.083 1.772,-0.169 1.761,-0.254 1.745,-0.336 1.725,-0.419 1.706,-0.501 1.679,-0.583 1.652,-0.662 1.621,-0.74 1.584,-0.817 1.549,-0.898 1.504,-0.97 1.463,-1.049 1.414,-1.121 1.362,-1.196 1.311,-1.269 1.252,-1.339 1.193,-1.413 1.129,-1.483 1.062,-1.551 2.692,-4.402 2.51,4.612 0.895,1.869 0.792,1.892 0.689,1.911 0.59,1.932 0.487,1.947 0.39,1.958 0.292,1.964 0.194,1.971 0.097,1.968 0.002,1.966 z" /></g></g></g></g></svg>