<svg width="196" height="41" viewBox="0 0 196 41" fill="none" xmlns="http://www.w3.org/2000/svg">
<g clip-path="url(#clip0_2088_2600)">
<path d="M16.3808 32.2278L16.3818 23.4626L18.3103 22.4776C19.371 21.9359 20.3091 21.4927 20.395 21.4927C20.4809 21.4927 20.5512 25.3788 20.5512 30.1284V38.764L18.4654 39.8785L16.3797 40.993L16.3808 32.2278ZM26.1131 27.1893V18.5176L28.0607 17.4559C29.1318 16.872 30.1238 16.3943 30.2651 16.3943C30.4495 16.3943 30.5048 18.8256 30.4612 25.0192L30.4004 33.6441L28.4305 34.7423C27.3471 35.3463 26.3825 35.8451 26.2869 35.8508C26.1913 35.856 26.1131 31.9587 26.1131 27.1893ZM35.6147 22.1906V13.3868L37.5266 12.4007C38.5782 11.8583 39.5689 11.3802 39.7282 11.3382C39.9548 11.2786 40.0179 12.6473 40.0179 17.6203C40.0179 24.513 39.8898 25.7036 38.9396 27.6442C38.3472 28.8539 36.3774 30.9943 35.8564 30.9943C35.6929 30.9943 35.6147 28.1464 35.6147 22.1906ZM112.67 26.9614C110.123 26.1538 108.376 24.7007 107.236 22.4427C104.721 17.4608 106.704 11.2546 111.51 9.06255C112.666 8.53562 113.31 8.41211 115.337 8.32858C118.237 8.20912 120.186 8.62226 121.894 9.71808L123.021 10.4416L121.738 11.725C120.499 12.9636 120.439 12.9943 120.007 12.6033C119.221 11.8922 117.271 11.2957 115.739 11.2981C112.152 11.3034 109.79 13.7897 109.779 17.5697C109.77 20.6943 110.955 22.8007 113.286 23.8035C114.318 24.2476 114.798 24.311 116.482 24.2262C117.73 24.1634 118.743 23.9799 119.217 23.7306L119.971 23.3348V21.255V19.1753H118.117H116.263V17.6689V16.1625H119.739H123.215V20.9216V25.6806L122.116 26.1516C121.512 26.4107 120.391 26.7704 119.625 26.9511C117.916 27.3541 113.928 27.3601 112.67 26.9614ZM148.591 26.9737C145.548 25.9685 143.437 23.8743 142.577 21.0068C142.108 19.4462 142.086 16.1985 142.534 14.7164C143.283 12.2421 145.142 10.1132 147.494 9.03605C148.516 8.56826 149.279 8.41678 151.042 8.33191C154.61 8.1601 156.714 8.85198 158.718 10.8564C163.349 15.4868 161.645 24.3015 155.67 26.6308C154.069 27.2549 150.034 27.4504 148.591 26.9737ZM154.516 23.6363C156.741 22.5078 157.821 20.5149 157.816 17.5471C157.81 13.8722 155.298 11.3034 151.707 11.2981C150.537 11.2963 149.914 11.4327 148.99 11.8932C146.721 13.024 145.707 14.8091 145.699 17.6898C145.695 19.3193 145.786 19.7486 146.397 20.97C147.515 23.2083 149.203 24.2495 151.736 24.2646C152.95 24.2716 153.514 24.1444 154.516 23.6363ZM168.701 26.9159C167.377 26.4296 165.511 24.7053 164.881 23.3851C164.39 22.3574 164.361 21.9675 164.284 15.5252L164.203 8.7466H165.841H167.479V14.4377C167.479 17.9222 167.581 20.5346 167.742 21.1756C168.475 24.0867 172.016 25.1757 174.234 23.1721C174.738 22.7163 175.218 22.011 175.352 21.5278C175.483 21.0571 175.588 18.0331 175.588 14.7141L175.589 8.7466H177.224H178.859L178.789 15.6411C178.721 22.232 178.695 22.5775 178.208 23.4895C177.421 24.9598 176.667 25.7401 175.319 26.4774C174.235 27.0702 173.812 27.161 171.881 27.2145C170.336 27.2575 169.389 27.1685 168.701 26.9159ZM47.202 17.7848V8.51491H53.4592H59.7164V11.18V13.8451H56.5878H53.4592V14.6562V15.4673H56.2402H59.0211V18.1324V20.7975H56.2402H53.4592V23.9261V27.0546H50.3306H47.202V17.7848ZM58.7894 26.9218C58.7894 26.8487 60.0065 23.6941 61.4941 19.9114C62.9817 16.1288 64.5864 12.0432 65.0602 10.8324L65.9216 8.63078H69.3503H72.7791L76.3234 17.6689C78.2728 22.6399 79.8701 26.788 79.873 26.887C79.8759 26.986 78.3464 27.0382 76.474 27.0029L73.0698 26.9388L72.5577 25.6642L72.0456 24.3896H69.2027H66.3598L65.9156 25.7221L65.4714 27.0547H62.1304C60.2928 27.0547 58.7894 26.9949 58.7894 26.9218ZM70.4864 18.924C69.7525 16.6117 69.2508 15.4046 69.1459 15.6991C69.0778 15.8902 68.8055 16.6502 68.5407 17.3879C67.8316 19.3634 67.8491 19.407 69.3495 19.407C70.5516 19.407 70.6292 19.3741 70.4864 18.924ZM82.582 26.9001C82.4971 26.8152 82.4275 23.843 82.4275 20.2954V13.8451H80.2259H78.0243V11.1769V8.50865L85.7299 8.5697L93.4355 8.63076V11.18V13.7292L91.176 13.7955L88.9164 13.8618V20.4582V27.0546H85.8265C84.127 27.0546 82.667 26.9851 82.582 26.9001ZM95.6371 17.7848V8.51491H98.7657H101.894V17.7848V27.0546H98.7657H95.6371V17.7848ZM127.087 26.9096C126.997 26.8194 126.923 22.6882 126.923 17.7291V8.7125L131.616 8.78746C136.127 8.85955 136.353 8.88553 137.467 9.45823C138.171 9.81979 138.899 10.4426 139.321 11.0425C139.949 11.9347 140.016 12.204 140.012 13.8071C140.008 15.0139 139.884 15.8105 139.623 16.2925C139.025 17.397 137.809 18.4601 136.963 18.6189C136.539 18.6983 136.193 18.8626 136.193 18.9839C136.193 19.1052 137.192 20.8791 138.413 22.9258C139.774 25.2084 140.55 26.7301 140.418 26.8618C140.3 26.9798 139.435 27.0454 138.497 27.0075L136.79 26.9387L136.135 25.78C135.774 25.1427 134.832 23.4219 134.04 21.9561L132.601 19.2911L131.506 19.2206L130.41 19.1502L130.347 23.0444L130.283 26.9387L128.767 27.0061C127.933 27.0432 127.177 27.0001 127.087 26.9096ZM135.847 15.6407C136.704 14.9034 136.873 13.4844 136.204 12.6364C135.575 11.8379 134.462 11.5305 132.195 11.5289L130.399 11.528V13.8455V16.163H132.82C134.996 16.163 135.301 16.11 135.847 15.6407ZM182.938 26.9096C182.848 26.8194 182.774 22.688 182.774 17.7287V8.71185L187.351 8.78719C191.736 8.85937 191.971 8.8868 192.95 9.44188C193.512 9.76053 194.294 10.4219 194.688 10.9116C195.336 11.7177 195.412 11.9835 195.484 13.7186C195.572 15.8067 195.31 16.6304 194.17 17.8485C193.271 18.8088 191.069 19.407 188.433 19.407H186.262L186.198 23.1729L186.134 26.9388L184.618 27.0062C183.784 27.0433 183.028 27.0001 182.938 26.9096ZM190.89 16.0443C191.743 15.6032 192.044 15.0438 192.044 13.9007C192.044 12.2807 190.702 11.5276 187.816 11.5276H186.25V13.961V16.3943H188.231C189.545 16.3943 190.441 16.2764 190.89 16.0443ZM12.3093 19.6935C10.3892 18.325 8.28005 16.8404 7.62236 16.3943C6.96467 15.9482 6.42387 15.5297 6.42058 15.4642C6.41113 15.2761 10.4875 13.1491 10.8444 13.156C11.0209 13.1595 11.7594 13.6026 12.4854 14.1409C13.2114 14.6792 15.1156 16.0487 16.7168 17.1841C19.4906 19.151 20.2657 19.7926 20.0628 19.9541C19.9548 20.04 15.8783 22.1894 15.8321 22.1848C15.8147 22.183 14.2294 21.0619 12.3093 19.6935ZM19.9571 13.3465C17.0336 11.4154 14.5373 9.83515 14.4099 9.83496C14.2824 9.83477 12.1748 10.9022 9.72638 12.2069C7.02066 13.6488 5.15734 14.5114 4.97557 14.4062C3.22755 13.3946 0.414703 11.4421 0.501984 11.3009C0.563191 11.2018 2.93536 9.89252 5.77347 8.39131C8.61158 6.8901 11.4551 5.38073 12.0924 5.03718C12.7297 4.69362 14.1376 3.94088 15.221 3.36442C16.3044 2.78796 18.086 1.83973 19.1801 1.25726C22.72 -0.627364 24.2535 -0.455904 28.4305 2.29162C29.8963 3.25576 32.9467 5.25565 35.2091 6.7358C37.4716 8.21596 39.3222 9.50856 39.3216 9.60825C39.3204 9.82612 35.3715 11.8858 35.0225 11.8506C34.888 11.837 32.3381 10.229 29.356 8.2772L23.934 4.72848L21.5474 5.95679C20.2347 6.63238 19.1643 7.24968 19.1688 7.32858C19.1733 7.4075 21.5706 9.03634 24.4962 10.9482C27.4218 12.8602 29.8167 14.4932 29.8183 14.5772C29.822 14.7834 25.9661 16.8578 25.5792 16.8578C25.4106 16.8578 22.8807 15.2777 19.9571 13.3465Z" fill="white"/>
</g>
<defs>
<clipPath id="clip0_2088_2600">
<rect width="195" height="40.9852" fill="white" transform="translate(0.5 0.0078125)"/>
</clipPath>
</defs>
</svg>
