<svg width="530" height="95" viewBox="0 0 530 95" fill="none" xmlns="http://www.w3.org/2000/svg">
<g clip-path="url(#clip0_68_8)">
<path d="M79.8381 1.59082L59.1521 62.5138H58.8761L39.1281 1.59082H-0.00292969V93.2138H24.2971L23.7701 22.8598H24.0301L46.7291 93.2138H69.5581L93.3161 22.8598H93.5761L93.1761 93.2138H117.476V1.59082H79.8381Z" fill="white"/>
<path d="M143.389 9.46277H156.875C177.695 9.46277 194.655 18.7808 194.655 46.7408C194.655 74.8358 177.435 85.3338 151.007 85.3338H143.397L143.389 9.46277ZM134.18 93.2108H150.471C181.311 93.2108 203.871 80.4778 203.871 47.2678C203.871 20.4958 190.653 1.59277 157.271 1.59277H134.171L134.18 93.2108Z" fill="white"/>
<path d="M216.547 93.2109H263.803V85.3339H225.755V50.0249H260.338V42.1549H225.755V9.46491H262.205V1.58691H216.547V93.2109Z" fill="white"/>
<path d="M276.101 90.8512C282.792 93.5651 289.961 94.9034 297.18 94.7862C311.596 94.7862 327.761 87.4442 327.761 68.9262C327.761 42.1542 285.033 42.0262 285.033 23.6532C285.033 11.8322 295.581 7.88924 305.2 7.88924C311.037 7.7303 316.834 8.90153 322.152 11.3142L323.609 3.03524C317.724 1.02527 311.546 0.00412029 305.326 0.0132442C288.91 0.0132442 275.826 9.20525 275.826 23.9052C275.826 47.9312 318.545 50.1582 318.545 68.1402C318.545 81.1332 309.069 86.9172 297.583 86.9172C290.352 87.1617 283.207 85.291 277.023 81.5342L276.101 90.8512Z" fill="white"/>
<path d="M350.199 1.59424H340.982V93.2122H350.199V1.59424Z" fill="white"/>
<path d="M432.96 83.6341C428.56 86.2631 418.948 86.9131 413.205 86.9131C388.635 86.9131 375.417 70.4881 375.417 47.4001C375.417 24.7001 389.037 7.88708 413.205 7.88708C421.449 7.50458 429.659 9.17597 437.097 12.7511L438.16 4.33808C430.191 1.31897 421.718 -0.149034 413.197 0.0130775C384.36 0.0130775 366.208 19.5671 366.208 47.4021C366.208 75.7561 383.83 94.7931 413.197 94.7931C423.145 94.9688 433.017 93.0432 442.17 89.1421V43.6021H411.338V51.4711H432.96V83.6341Z" fill="white"/>
<path d="M461.14 93.2109H470.352V14.1949H470.62L517.228 93.2109H529.643V1.58691H520.426V82.1959H520.158L472.752 1.58691H461.14V93.2109Z" fill="white"/>
</g>
<defs>
<clipPath id="clip0_68_8">
<rect width="529.642" height="94.805" fill="white"/>
</clipPath>
</defs>
</svg>
