<svg version="1.2" xmlns="http://www.w3.org/2000/svg" viewBox="0 0 2500 1000" width="2500" height="1000"><defs><clipPath clipPathUnits="userSpaceOnUse" id="cp1"><path d="m0.09-1419.98h2500v2500h-2500z"/></clipPath></defs><style>.a{fill:none}.b{fill:#fff}</style><path class="a" d="m0.1-1420h2500v2500h-2500z"/><g clip-path="url(#cp1)"><path class="b" d="m22.2 703.5h97.3v18.2h-38.2v102h-21v-102h-38.1z"/><path fill-rule="evenodd" class="b" d="m167.7 703.5h57.4q19.9 0 29.8 8.6c6.5 5.8 9.9 13.7 9.9 23.9q0 8.6-2.5 14.2c-1.7 3.8-3.7 6.9-5.9 9.1-2.2 2.3-4.6 4-6.6 5-2.2 1-3.9 1.7-4.9 2v0.4c1.9 0.1 3.7 0.8 5.9 1.7 2 0.8 3.9 2.3 5.7 4.2 1.9 2 3.4 4.5 4.6 7.7 1.2 3.2 1.7 7.1 1.7 11.8 0 7.1 0.5 13.5 1.7 19.2 1 5.9 2.6 9.9 4.8 12.4h-22.5c-1.5-2.5-2.5-5.3-2.7-8.5q-0.5-4.8-0.5-9.1c0-5.6-0.4-10.3-1-14.3-0.7-3.9-1.9-7.3-3.7-10-1.9-2.5-4.2-4.5-7.3-5.7-3.2-1.2-7-1.8-11.9-1.8h-31v49.4h-21zm21 54.8h34.5c6.7 0 11.8-1.7 15.3-4.9 3.6-3.1 5.2-7.9 5.2-14.3 0-3.9-0.5-6.9-1.6-9.5q-1.8-3.5-4.6-5.5c-2-1.4-4.2-2.2-6.7-2.7-2.5-0.5-5.2-0.7-7.9-0.7h-34.2z"/><path class="b" d="m320.7 703.5h86.5v18.2h-65.4v31.5h60.6v17.2h-60.6v35.2h66.6v18.1h-87.7z"/><path class="b" d="m460.6 703.5h22.2l54.9 88.6h0.3v-88.6h20.1v120.2h-22.3l-54.7-88.3h-0.5v88.3h-20z"/><path class="b" d="m605.9 703.5h97.3v18.2h-38.3v102h-21v-102h-38z"/><path fill-rule="evenodd" class="b" d="m803 700.7q13.4 0 24.3 5c7 3.4 13.1 7.9 18 13.7 4.9 5.7 8.7 12.4 11.4 20 2.6 7.6 3.9 15.7 3.9 24.2 0 8.6-1.3 16.9-3.9 24.5-2.7 7.5-6.5 14.3-11.4 20-4.9 5.7-11 10.3-18 13.5q-10.9 5-24.3 5c-8.9 0-17-1.7-24-5-7.3-3.2-13.3-7.8-18.2-13.5-4.9-5.7-8.8-12.5-11.3-20-2.7-7.6-4-15.9-4-24.5q0-12.8 4-24.2c2.5-7.6 6.4-14.3 11.3-20q7.3-8.6 18.2-13.7c7-3.3 15.1-5 24-5zm0 17.2c-6.4 0-11.9 1.3-16.5 3.8-4.7 2.6-8.5 6.1-11.4 10.3-2.9 4.4-5.1 9.3-6.4 14.8-1.5 5.6-2.2 11.1-2.2 16.8 0 5.8 0.7 11.3 2.2 16.9 1.3 5.5 3.5 10.4 6.4 14.6 2.9 4.4 6.7 7.9 11.4 10.5 4.6 2.5 10.1 3.8 16.5 3.8 6.4 0 12-1.3 16.7-3.8 4.5-2.6 8.4-6.1 11.3-10.5q4.3-6.3 6.5-14.6c1.4-5.6 2.1-11.1 2.1-16.9 0-5.7-0.7-11.2-2.1-16.8-1.5-5.5-3.7-10.4-6.5-14.8-2.9-4.2-6.8-7.7-11.3-10.3-4.7-2.5-10.3-3.8-16.7-3.8z"/><path fill-rule="evenodd" class="b" d="m995.7 703.5h57.4q20 0 29.8 8.6c6.6 5.8 10 13.7 10 23.9q0 8.6-2.5 14.2c-1.7 3.8-3.7 6.9-5.9 9.1-2.2 2.3-4.6 4-6.6 5-2.2 1-3.9 1.7-4.9 2v0.4c1.9 0.1 3.7 0.8 5.9 1.7 2 0.8 3.9 2.3 5.7 4.2 1.9 2 3.4 4.5 4.6 7.7 1.2 3.2 1.7 7.1 1.7 11.8 0 7.1 0.5 13.5 1.6 19.2 1.1 5.9 2.7 9.9 4.9 12.4h-22.5c-1.5-2.5-2.6-5.3-2.7-8.5q-0.5-4.8-0.5-9.1c0-5.6-0.4-10.3-1-14.3-0.7-3.9-1.9-7.3-3.7-10-1.9-2.5-4.3-4.5-7.3-5.7-3.2-1.2-7.1-1.8-11.9-1.8h-31v49.4h-21.1zm21.1 54.8h34.5c6.7 0 11.8-1.7 15.3-4.9 3.6-3.1 5.2-7.9 5.2-14.3 0-3.9-0.5-6.9-1.6-9.5q-1.8-3.5-4.6-5.5c-2-1.4-4.2-2.2-6.7-2.7-2.6-0.5-5.2-0.7-7.9-0.7h-34.2z"/><path fill-rule="evenodd" class="b" d="m1181 703.5h22.3l46.3 120.2h-22.5l-11.3-31.8h-48l-11.3 31.8h-21.7zm-7.4 72.4h36.7l-18-51.6h-0.5z"/><path class="b" d="m1376.3 741.8c-0.9-3.6-2.2-6.8-3.7-9.6q-2.3-4.3-6.1-7.6-3.8-3.3-8.6-5.1c-3.3-1.1-7.2-1.6-11.6-1.6-6.4 0-11.9 1.3-16.5 3.8-4.7 2.6-8.6 6.1-11.4 10.3-2.9 4.4-5.1 9.3-6.4 14.8-1.5 5.6-2.2 11.1-2.2 16.8 0 5.8 0.7 11.3 2.2 16.9 1.3 5.5 3.5 10.4 6.4 14.6 2.8 4.4 6.7 7.9 11.4 10.5 4.6 2.5 10.1 3.8 16.5 3.8 4.7 0 8.9-0.8 12.5-2.5 3.5-1.5 6.7-3.9 9.2-6.7 2.6-2.9 4.6-6.1 6.1-10 1.5-3.8 2.3-7.9 2.9-12.2h20.5q-0.8 10.8-4.6 19.7c-2.7 5.8-6.2 11.1-10.7 15.3-4.6 4.3-9.8 7.7-15.9 10.1-6 2.3-12.7 3.5-20 3.5-8.9 0-17-1.7-24.1-5-7.2-3.2-13.3-7.8-18.1-13.5-4.9-5.7-8.8-12.5-11.3-20-2.7-7.6-4.1-15.9-4.1-24.5q0-12.8 4.1-24.2c2.5-7.6 6.4-14.3 11.3-20q7.3-8.6 18.1-13.7c7.1-3.3 15.2-5 24.1-5 6.7 0 13.1 1 19 2.7 5.9 1.8 11.3 4.5 15.9 8.1 4.5 3.5 8 7.9 10.9 12.9 2.9 5.1 4.5 10.8 5.2 17.4z"/><path class="b" d="m1451.6 703.5h21v120.2h-21z"/><path class="b" d="m1532 703.5h22.2l54.9 88.6h0.3v-88.6h20.1v120.2h-22.2l-54.8-88.3h-0.5v88.3h-20z"/><path class="b" d="m1793.6 823.7h-13.5l-3.2-14.1c-5.5 6.4-11.3 10.8-16.8 13.3-5.6 2.5-12.1 3.7-19.4 3.7-8.9 0-17-1.7-24-5-7.3-3.2-13.3-7.8-18.2-13.5-4.9-5.7-8.8-12.5-11.3-20-2.7-7.6-4-15.9-4-24.5q0-12.8 4-24.2c2.5-7.6 6.4-14.3 11.3-20q7.3-8.6 18.2-13.7c7-3.3 15.1-5 24-5 6.6 0 12.7 0.8 18.7 2.5 5.9 1.9 11.1 4.4 15.7 7.8 4.5 3.5 8.4 7.7 11.4 12.9 3.1 5.2 4.9 11.1 5.7 17.9h-20.5c-0.5-3.9-1.7-7.4-3.5-10.5-1.9-2.8-4.2-5.4-7.1-7.4-2.9-2-5.9-3.5-9.4-4.5-3.6-1-7.1-1.5-11-1.5-6.4 0-11.9 1.3-16.5 3.8-4.7 2.6-8.6 6.1-11.4 10.3-2.9 4.4-5.1 9.3-6.4 14.8-1.5 5.6-2.2 11.1-2.2 16.8 0 5.8 0.7 11.3 2.2 16.9 1.3 5.5 3.5 10.4 6.4 14.6 2.8 4.4 6.7 7.9 11.4 10.5 4.6 2.5 10.1 3.8 16.5 3.8 5.4 0.2 10.1-0.6 14.3-2.2q6.4-2.2 10.6-6.5c2.9-2.9 4.9-6.2 6.4-10.5 1.6-4.2 2.2-8.7 2.4-13.8h-32v-16h51.2z"/><path class="b" d="m1921.2 703.5h97.3v18.2h-38.3v102h-21v-102h-38z"/><path class="b" d="m2066.6 703.5h86.5v18.2h-65.5v31.5h60.6v17.2h-60.6v35.2h66.7v18.1h-87.7z"/><path fill-rule="evenodd" class="b" d="m2239.5 703.5h22.4l46.3 120.2h-22.6l-11.3-31.8h-48l-11.2 31.8h-21.8zm-7.4 72.4h36.7l-18-51.6h-0.5z"/><path class="b" d="m2353.9 703.5h29.6l33.2 94.2h0.3l32.3-94.2h29.3v120.2h-20v-92.7h-0.3l-33.4 92.7h-17.3l-33.4-92.7h-0.3v92.7h-20z"/><path class="b" d="m393.7 332.4h-164.6l18.6-56.5-37.3-23.5h153.8c5.4 0 10.1 0.8 12.4 3.1 2.3 2.4 3.1 4.8 3.9 7.1 0.7 3.1 0 6.3-0.8 10.2l69.9-1.6q10.5-1.1 16.3-4.7c3.9-1.5 6.2-3.9 8.5-6.2q3.5-3.6 4.7-9.5l24.8-76.8h-441l88.5 56.5-86.9 265c-3.9 0-7 0.8-10.9 3.1q-4.6 2.4-9.3 7.1c-3.1 3.9-5.4 8.6-7.8 14.9l-15.5 48.6h355.6l24.8-76.9c1.6-3.9 2.4-7.8 1.6-10.9-0.8-2.4-3.1-5.5-5.4-7.9-3.2-2.3-8.6-3.1-16.4-3.1h-65.2c-0.7 3.9-3.1 7.8-5.4 10.2-3.1 2.3-6.2 4.7-8.5 5.5-3.1 2.3-7 3.1-10.9 3.1h-113.4l26.4-78.4h49.7c5.5 0 10.1 0.8 12.4 3.1 2.4 2.4 3.1 4.7 3.9 7.1 0.8 3.1 0 6.3-0.8 10.2l69.9-1.6q10.5-1.2 16.3-4.7c3.9-1.6 6.2-3.9 8.6-6.3q3.5-3.5 4.6-9.4z"/><path class="b" d="m507.8 410.8h223.6l25.6-78.4h-224.4z"/><path fill-rule="evenodd" class="b" d="m911.5 473.5l-15.5 23.5c5.4 0.8 9.3 1.6 11.7 4 2.3 2.3 3.1 5.5 3.8 7.8 0.8 3.1 0 6.3-1.5 10.2l-15.5 50.2h-155.3l17.1-53.3c2.3-5.5 4.6-10.2 7.7-12.6 3.1-2.3 6.2-4.7 9.3-5.5 3.9-1.5 7-2.3 10.9-2.3l170.8-265-88.5-54.9h232.9c7.8 0 14 1.5 17.9 4.7 3.9 3.9 6.2 7.8 8.5 11.7 2.4 5.5 3.1 11 3.1 16.5l1.6 287c5.4 0.8 9.3 1.5 11.6 3.9 2.4 2.4 3.1 4.7 3.9 7.1 0.8 2.3 0 5.4-1.5 9.4l-17.1 53.3h-153.7l17-50.2c0.8-3.1 1.6-6.3 3.9-9.4 1.6-2.4 3.9-5.5 7.8-7.8 3.9-2.4 8.5-4 14.7-4.8v-23.5zm107.2-169.3l-51.3 79.9h51.3z"/><path class="b" d="m1571.5 174h-161.5c-25.7 0-45.8 3.9-62.1 12.5-16.4 8.7-28.8 18.1-38.1 28.3-10.9 11.7-18.6 25.8-24.1 40.7l-74.5 232.1c-3.9 14.9-4.7 29.1-1.5 40.8 1.5 5.5 3.8 10.2 6.9 14.9 3.1 4.7 7.8 8.6 13.2 12.6q8.2 5.8 21 9.4c8.5 2.3 18.6 3.9 30.3 3.9h239.1l68.3-214.9h-204.9l77.6 47.1-27.9 89.4h-91.7q-8.1 0-11.6-2.4c-2.3-1.5-3.1-3.9-3.9-6.2-0.8-2.4 0-4.8 1.6-8.7l63.6-197.6-40.3-21.9h158.3c3.9 0 6.3 0.8 8.6 2.3 2.3 0.8 3.9 3.2 4.6 5.5 0.8 2.4 0.8 6.3-0.7 11h65.2c5.4 0 10.1-0.8 14.7-2.4 3.9-0.7 7.8-3.1 11.7-5.4 3.9-2.4 6.2-6.3 7.7-11l14-39.2z"/><path class="b" d="m1815.3 268.1l-38.8-22h45c5.4 0 10.1-1.5 14-3.9q5.8-3.5 9.3-7c2.3-3.2 4.6-7.1 6.2-11l15.5-50.2h-239.1l90.1 54.9-85.4 266.6c-3.9 0-7.8 0.8-11.7 3.1q-4.6 2.4-9.3 7.1c-3.9 3.1-6.2 7.8-8.5 13.3l-15.6 50.2h354.1l24.8-80c0.8-3.1 0.8-6.3 0-8.6-0.8-2.4-3.1-4.7-5.4-7.1-2.4-1.5-7-2.3-13.2-3.1h-68.4c-1.5 3.9-3.1 7-5.4 9.4-2.3 2.4-4.6 4.7-8.5 7.1-3.9 2.3-8.6 3.1-14 3.9h-107.1z"/><path class="b" d="m2367.3 332.4h-164.6l18.6-56.5-37.3-23.5h153.8c5.4 0 10 0.8 12.4 3.1 2.3 2.4 3.1 4.8 3.9 7.1 0.7 3.1 0 6.3-0.8 10.2l69.9-1.6q10.4-1.1 16.3-4.7c3.8-1.5 6.2-3.9 8.5-6.2q3.5-3.6 4.7-9.5l24.8-76.8h-441l88.5 56.5-86.9 265c-3.9 0-7 0.8-10.9 3.1q-4.7 2.4-9.3 7.1c-3.1 3.9-5.5 8.6-7.8 14.9l-15.5 48.6h355.6l24.8-76.9c1.6-3.9 2.3-7.8 1.6-10.9-0.8-2.4-3.1-5.5-5.5-7.9-3.1-2.3-8.5-3.1-16.3-3.1h-65.2c-0.8 3.9-3.1 7.8-5.4 10.2-3.1 2.3-6.2 4.7-8.6 5.5-3.1 2.3-6.9 3.1-10.8 3.1h-113.4l26.4-78.4h49.7c5.4 0 10.1 0.8 12.4 3.1 2.4 2.4 3.1 4.7 3.9 7.1 0.8 3.1 0 6.3-0.8 10.2l69.9-1.6q10.5-1.2 16.3-4.7c3.9-1.6 6.2-3.9 8.6-6.3q3.4-3.5 4.6-9.4z"/></g></svg>