<svg width="589" height="76" viewBox="0 0 589 76" fill="none" xmlns="http://www.w3.org/2000/svg">
<path d="M15.7619 3.54376V44.4439H18.4546V3.54376H33.6877V1.27148H0.613892V3.54376H15.7619Z" fill="white"/>
<path d="M36.6361 44.4437H39.3288V24.7512H54.7299C62.3039 24.7512 64.3238 28.1174 64.913 32.3252C65.4177 36.5329 64.4082 41.4979 66.0913 44.4437H69.0364C67.2696 42.1714 68.0268 37.2901 67.6056 32.8299C67.1852 28.3698 65.5865 24.33 59.1901 23.5728V23.4885C64.913 22.4789 68.4472 18.1867 68.4472 12.3795C68.4472 4.0483 62.3039 1.27124 54.8143 1.27124H36.6361V44.4437ZM39.3288 22.4789V3.54351H54.7299C60.5364 3.54351 65.7545 5.98381 65.7545 12.5482C65.7545 19.5331 61.0419 22.4789 54.7299 22.4789H39.3288Z" fill="white"/>
<path d="M77.4493 42.1719V23.1522H102.276V20.8799H77.4493V3.544H103.791V1.27173H74.7567V44.4442H104.127V42.1719H77.4493Z" fill="white"/>
<path d="M108.67 44.4439H111.279V4.46896H111.447L138.883 44.4439H142.081V1.27148H139.387V40.9097H139.304L111.952 1.27148H108.67V44.4439Z" fill="white"/>
<path d="M145.533 4.72135H160.597V44.4432H164.72V4.72135H179.785V1.27075H145.533V4.72135Z" fill="white"/>
<path d="M188.285 1.27026H184.161V44.4427H188.285V1.27026Z" fill="white"/>
<path d="M197.624 44.4437H203.01V9.77117H203.178L225.733 44.4437H232.044V1.27124H226.574V36.2805H226.49L203.684 1.27124H197.624V44.4437Z" fill="white"/>
<path d="M244.672 22.8153C244.672 14.063 249.132 5.05831 259.651 5.05831C270.171 5.05831 274.631 14.1474 274.631 22.8153C274.631 31.5677 270.171 40.5724 259.651 40.5724C249.048 40.6568 244.672 31.5677 244.672 22.8153ZM238.949 22.8153C238.949 34.5135 245.934 45.4537 259.651 45.4537C273.369 45.4537 280.354 34.5971 280.354 22.8153C280.354 11.0336 273.369 0.177002 259.651 0.177002C245.85 0.177002 238.949 11.1172 238.949 22.8153Z" fill="white"/>
<path d="M284.563 30.0528C284.731 40.7407 292.726 45.4539 302.572 45.4539C311.157 45.4539 319.741 41.5822 319.741 31.9047C319.741 27.4438 317.047 22.5632 311.325 20.8801C309.052 20.2066 299.543 17.7663 298.869 17.5131C295.755 16.6716 293.736 14.9885 293.736 11.959C293.736 7.58322 298.196 6.32053 301.647 6.32053C306.864 6.32053 310.567 8.42478 310.988 13.9789H318.562C318.562 4.97418 310.988 0.177246 301.983 0.177246C294.157 0.177246 286.162 4.21628 286.162 12.885C286.162 17.3451 288.35 21.8053 295.755 23.8252C301.647 25.4239 305.602 26.2655 308.632 27.3601C310.399 28.0329 312.166 29.3793 312.166 32.6619C312.166 35.9437 309.726 39.2263 302.993 39.2263C296.934 39.2263 292.053 36.6172 292.053 29.9685H284.563V30.0528Z" fill="white"/>
<path d="M335.894 44.4439H344.31L359.122 1.27148H351.379L340.355 35.4392H340.187L329.414 1.27148H321.504L335.894 44.4439Z" fill="white"/>
<path d="M372.504 1.27026H362.995V44.4427H372.504V1.27026Z" fill="white"/>
<path d="M380.836 44.4437H411.386V36.4486H390.346V1.27124H380.836V44.4437Z" fill="white"/>
<path d="M453.718 1.27075H442.441V27.2753C442.441 32.8295 440.421 35.6909 434.867 35.6909C429.312 35.6909 427.292 32.8295 427.292 27.2753V1.27075H416.015V26.6018C416.015 39.1415 421.738 45.3691 434.867 45.3691C447.911 45.3691 453.718 39.1415 453.718 26.6018V1.27075Z" fill="white"/>
<path d="M474.082 12.2961H479.973C483.256 12.2961 486.285 12.5485 486.285 16.5039C486.285 20.8804 482.667 21.1328 479.216 21.1328H474.082V12.2961ZM460.786 44.4439H474.082V31.3995H481.993C491.924 31.3995 498.909 26.5189 498.909 15.9991C498.909 9.85579 494.785 1.27148 483.087 1.27148H460.786V44.4439Z" fill="white"/>
<path d="M516.751 12.2961H522.642C525.924 12.2961 528.954 12.5485 528.954 16.5039C528.954 20.8804 525.335 21.1328 521.884 21.1328H516.751V12.2961ZM503.286 44.4439H516.666V31.3995H524.493C534.423 31.3995 541.409 26.5189 541.409 15.9991C541.409 9.85579 537.285 1.27148 525.587 1.27148H503.286V44.4439Z" fill="white"/>
<path d="M558.071 22.8153C558.071 13.2215 563.289 10.9492 566.655 10.9492C570.021 10.9492 575.239 13.2215 575.239 22.8153C575.239 32.4092 570.021 34.6815 566.655 34.6815C563.205 34.6815 558.071 32.4936 558.071 22.8153ZM544.69 22.8153C544.69 36.0278 553.442 45.4537 566.571 45.4537C579.699 45.4537 588.452 36.0278 588.452 22.8153C588.452 9.60286 579.699 0.177002 566.571 0.177002C553.526 0.177002 544.69 9.68651 544.69 22.8153Z" fill="white"/>
<path d="M4.98919 58.4956H2.71692V75.1586H4.98919V58.4956Z" fill="white"/>
<path d="M24.5136 75.1611H22.2414V61.1907L17.6124 75.1611H15.3402L10.6276 61.2751V75.1611H8.52408V58.498H11.7216L16.5185 72.6365L21.2318 58.498H24.5136V75.1611Z" fill="white"/>
<path d="M30.1494 60.4343V66.2408H34.6096C36.8819 66.2408 37.9758 65.2312 37.9758 63.2113C37.9758 61.3602 36.8819 60.4343 34.694 60.4343H30.1494ZM30.1494 68.0083V75.1619H27.9615V58.4988H35.4512C36.4615 58.4988 37.303 58.6668 38.0602 59.0879C38.8174 59.5084 39.4066 60.0975 39.8277 60.7711C40.2481 61.5282 40.4169 62.2861 40.4169 63.127C40.4169 64.474 39.9957 65.6524 39.2385 66.5776C38.397 67.5879 37.2187 68.0083 35.5355 68.0083H30.1494Z" fill="white"/>
<path d="M43.1975 75.1609V58.4978H51.1083C52.539 58.4978 53.801 58.9182 54.8113 59.7598C55.8209 60.6013 56.3264 61.696 56.3264 63.1267C56.3264 64.8935 55.5685 66.2405 54.0541 66.9977C54.9793 67.2501 55.5685 67.8393 55.8209 68.6808C55.9896 69.5224 56.1576 70.6163 56.1576 72.0471C56.1576 72.4682 56.1576 72.8886 56.242 73.309C56.242 73.7302 56.41 74.0669 56.4944 74.3193C56.6624 74.5717 56.8312 74.7405 57.0836 74.8241V75.1609H54.3065C54.1378 74.5717 53.9697 73.5622 53.9697 72.1314C53.9697 70.7007 53.801 69.6904 53.465 69.0176C53.1282 68.3441 52.371 68.0073 51.1083 68.0073H45.4698V75.1609H43.1975ZM45.4698 66.1562H51.1927C52.1179 66.1562 52.8758 65.9038 53.2962 65.399C53.801 64.8935 54.0541 64.2207 54.1378 63.3791C54.1378 62.5376 53.9697 61.864 53.5486 61.3592C53.1282 60.7701 52.371 60.5177 51.4451 60.5177H45.5542V66.1562H45.4698Z" fill="white"/>
<path d="M71.9812 73.2259V75.1614H59.7783V58.4983H71.8969V60.6025H61.9662V65.6519H71.1397V67.6718H61.9662V73.2259H71.9812Z" fill="white"/>
<path d="M86.957 63.3799H84.8527C84.7691 62.2016 84.348 61.36 83.5064 60.7708C82.6648 60.2661 81.7389 60.0137 80.645 60.0137C79.6354 60.0137 78.7938 60.1817 78.0367 60.6028C77.2787 61.0232 76.8583 61.7811 76.8583 62.9595C76.8583 64.0534 77.5311 64.7262 78.8782 65.063C80.7293 65.4841 82.3281 65.8202 83.5908 66.1569C86.1154 66.8305 87.3781 68.2612 87.3781 70.6171C87.3781 71.8798 87.0414 72.8057 86.3678 73.5629C85.6943 74.3201 84.9371 74.8256 83.9275 75.1617C82.9172 75.4984 81.9077 75.6672 80.8137 75.6672C78.7095 75.6672 77.0264 75.1617 75.848 74.2365C74.6697 73.2262 74.0813 71.7954 74.0813 69.8599H76.1848C76.1848 71.2063 76.6059 72.2166 77.5311 72.8894C78.4571 73.4785 79.551 73.8153 80.8137 73.8153C81.9077 73.8153 82.9172 73.6473 83.8432 73.2262C84.7691 72.8057 85.1895 72.0478 85.1895 71.0383C85.1895 70.1967 84.9371 69.5232 84.4323 69.1864C83.9275 68.766 83.0016 68.4292 81.6553 68.0924C81.4029 68.0088 80.8137 67.8401 79.7198 67.672C78.6251 67.4196 77.6999 67.1672 77.0264 66.8305C76.3535 66.4937 75.7644 66.0726 75.3432 65.5678C74.9228 64.9786 74.6697 64.3058 74.6697 63.3799C74.6697 61.9492 75.1752 60.7708 76.1004 59.7613C77.1107 58.751 78.5414 58.3305 80.3926 58.3305C84.6004 58.1625 86.789 59.9293 86.957 63.3799Z" fill="white"/>
<path d="M88.6444 75.1609L94.872 58.4978H97.4811L103.456 75.1609H101.015L99.4166 70.2796H92.6841L90.9167 75.1609H88.6444ZM93.4413 68.3441H98.575L96.134 60.9381L93.4413 68.3441Z" fill="white"/>
<path d="M115.742 58.4956H113.469V75.1586H115.742V58.4956Z" fill="white"/>
<path d="M130.467 72.0471V58.4978H132.571V75.1609H130.046L121.546 61.7797V75.1609H119.358V58.4978H122.051L130.467 72.0471Z" fill="white"/>
<path d="M146.961 72.0471V58.4978H149.149V75.1609H146.625L138.125 61.7797V75.1609H135.937V58.4978H138.629L146.961 72.0471Z" fill="white"/>
<path d="M165.563 66.8292C165.563 65.4829 165.31 64.3046 164.889 63.295C164.384 62.2847 163.712 61.5275 162.87 60.9383C161.944 60.3492 160.934 60.0968 159.756 60.0968C158.578 60.0968 157.568 60.3492 156.726 60.9383C155.801 61.5275 155.127 62.2847 154.706 63.295C154.201 64.3046 154.033 65.4829 154.033 66.8292C154.033 68.8491 154.538 70.4478 155.632 71.7105C156.642 72.9725 158.072 73.5617 159.84 73.5617C161.607 73.5617 163.038 72.9725 164.048 71.7105C165.058 70.5322 165.563 68.8491 165.563 66.8292ZM167.835 66.8292C167.835 68.1756 167.583 69.5219 167.078 70.869C166.572 72.2153 165.647 73.3093 164.469 74.2352C163.206 75.1611 161.692 75.5815 159.756 75.5815C157.82 75.5815 156.306 75.1611 155.043 74.2352C153.781 73.3093 152.939 72.2153 152.434 70.869C151.929 69.5219 151.677 68.1756 151.677 66.8292C151.677 65.4829 151.929 64.1365 152.434 62.7895C152.939 61.4431 153.865 60.3492 155.043 59.4232C156.221 58.498 157.82 58.0769 159.756 58.0769C161.692 58.0769 163.291 58.498 164.469 59.4232C165.647 60.3492 166.572 61.4431 167.078 62.7895C167.583 64.2202 167.835 65.4829 167.835 66.8292Z" fill="white"/>
<path d="M176.333 72.7204L180.962 58.4976H183.487L177.511 75.1606H175.07L169.012 58.4976H171.536L176.333 72.7204Z" fill="white"/>
<path d="M182.474 75.1609L188.702 58.4978H191.311L197.286 75.1609H194.845L193.247 70.2796H186.514L184.747 75.1609H182.474ZM187.187 68.3441H192.321L189.88 60.9381L187.187 68.3441Z" fill="white"/>
<path d="M197.963 75.1609V73.309L208.146 60.6013H198.72V58.4978H211.007V60.4333L200.74 73.2254H211.007V75.1609H197.963Z" fill="white"/>
<path d="M215.719 58.4956H213.446V75.1586H215.719V58.4956Z" fill="white"/>
<path d="M232.379 66.8292C232.379 65.4829 232.126 64.3046 231.705 63.295C231.2 62.2847 230.528 61.5275 229.686 60.9383C228.76 60.3492 227.75 60.0968 226.572 60.0968C225.394 60.0968 224.384 60.3492 223.542 60.9383C222.617 61.5275 221.943 62.2847 221.522 63.295C221.017 64.3046 220.849 65.4829 220.849 66.8292C220.849 68.8491 221.354 70.4478 222.448 71.7105C223.458 72.9725 224.888 73.5617 226.656 73.5617C228.423 73.5617 229.854 72.9725 230.864 71.7105C231.874 70.5322 232.379 68.8491 232.379 66.8292ZM234.735 66.8292C234.735 68.1756 234.483 69.5219 233.977 70.869C233.473 72.2153 232.547 73.3093 231.369 74.2352C230.106 75.1611 228.591 75.5815 226.656 75.5815C224.72 75.5815 223.205 75.1611 221.943 74.2352C220.681 73.3093 219.839 72.2153 219.334 70.869C218.829 69.5219 218.577 68.1756 218.577 66.8292C218.577 65.4829 218.829 64.1365 219.334 62.7895C219.839 61.4431 220.765 60.3492 221.943 59.4232C223.122 58.498 224.72 58.0769 226.656 58.0769C228.591 58.0769 230.191 58.498 231.369 59.4232C232.547 60.3492 233.473 61.4431 233.977 62.7895C234.483 64.2202 234.735 65.4829 234.735 66.8292Z" fill="white"/>
<path d="M248.202 72.0473V58.498H250.39V75.1611H247.865L239.365 61.7799V75.1611H237.178V58.498H239.871L248.202 72.0473Z" fill="white"/>
<path d="M266.212 73.2256V75.1611H254.009V58.498H266.128V60.6023H256.197V65.6516H265.286V67.6715H256.197V73.2256H266.212Z" fill="white"/>
<path d="M293.986 75.1611H291.798V61.1907L287.084 75.1611H284.896L280.099 61.2751V75.1611H277.996V58.498H281.193L285.99 72.6365L290.787 58.498H293.986V75.1611Z" fill="white"/>
<path d="M295.756 75.1611L301.983 58.498H304.592L310.568 75.1611H308.127L306.528 70.2798H299.795L298.028 75.1611H295.756ZM300.468 68.3443H305.602L303.162 60.9383L300.468 68.3443Z" fill="white"/>
<path d="M312.752 75.1611V58.498H320.662C322.093 58.498 323.355 58.9185 324.365 59.76C325.375 60.6016 325.88 61.6962 325.88 63.127C325.88 64.8937 325.123 66.2408 323.608 66.998C324.533 67.2504 325.123 67.8395 325.375 68.6811C325.544 69.5226 325.712 70.6166 325.712 72.0473C325.712 72.4684 325.712 72.8889 325.796 73.3093C325.796 73.7304 325.964 74.0672 326.048 74.3196C326.217 74.572 326.385 74.7407 326.638 74.8244V75.1611H323.861C323.692 74.572 323.524 73.5624 323.524 72.1317C323.524 70.701 323.355 69.6907 323.019 69.0179C322.682 68.3443 321.925 68.0076 320.662 68.0076H315.024V75.1611H312.752ZM314.94 66.1564H320.662C321.588 66.1564 322.345 65.904 322.767 65.3992C323.271 64.8937 323.524 64.2209 323.524 63.3794C323.524 62.5378 323.355 61.8643 322.935 61.3595C322.514 60.7703 321.756 60.5179 320.83 60.5179H314.94V66.1564Z" fill="white"/>
<path d="M331.267 69.3541V75.1606H328.995V58.4976H331.267V66.6614L339.346 58.4976H342.376L335.475 65.2307L342.628 75.1606H339.683L333.876 66.8295L331.267 69.3541Z" fill="white"/>
<path d="M356.766 73.2256V75.1611H344.563V58.498H356.682V60.6023H346.751V65.6516H355.925V67.6715H346.751V73.2256H356.766Z" fill="white"/>
<path d="M358.114 60.6018V58.4983H371.663V60.6018H366.024V75.1614H363.752V60.6018H358.114Z" fill="white"/>
<path d="M376.125 58.4956H373.852V75.1586H376.125V58.4956Z" fill="white"/>
<path d="M390.851 72.0471V58.4978H392.955V75.1609H390.431L381.931 61.7797V75.1609H379.742V58.4978H382.436L390.851 72.0471Z" fill="white"/>
<path d="M403.558 68.2609V66.241H410.795V75.1614H409.365L408.776 73.0579C408.187 73.815 407.429 74.4886 406.504 74.909C405.494 75.4138 404.484 75.5825 403.306 75.5825C400.612 75.5825 398.593 74.741 397.415 73.1415C396.152 71.5428 395.563 69.3549 395.563 66.6615C395.563 64.3892 396.237 62.37 397.667 60.6862C399.014 58.9194 400.949 58.0779 403.474 58.0779C404.568 58.0779 405.662 58.2459 406.672 58.667C407.682 59.0875 408.523 59.6766 409.281 60.5182C409.954 61.3597 410.375 62.37 410.543 63.5476H408.439C408.103 62.2857 407.514 61.3597 406.588 60.8549C405.662 60.3502 404.652 60.0978 403.474 60.0978C402.464 60.0978 401.538 60.3502 400.697 60.8549C399.855 61.3597 399.182 62.1169 398.677 63.2116C398.172 64.2212 397.92 65.4839 397.92 66.8302C397.92 68.9337 398.34 70.6168 399.266 71.7952C400.192 73.1415 401.623 73.815 403.474 73.8994C404.821 73.815 405.998 73.4783 406.924 72.7211C407.682 72.1319 408.103 71.5428 408.355 70.7856C408.607 70.1121 408.776 69.2705 408.776 68.2609H403.558Z" fill="white"/>
<path d="M421.735 60.6016V58.498H435.284V60.6016H429.646V75.1611H427.374V60.6016H421.735Z" fill="white"/>
<path d="M449.675 73.2256V75.1611H437.388V58.498H449.507V60.6023H439.66V65.6516H448.749V67.6715H439.66V73.2256H449.675Z" fill="white"/>
<path d="M452.707 75.1609V58.4978H460.618C462.049 58.4978 463.311 58.9182 464.321 59.7598C465.33 60.6013 465.836 61.696 465.836 63.1267C465.836 64.8935 465.078 66.2405 463.564 66.9977C464.489 67.2501 465.078 67.8393 465.33 68.6808C465.499 69.5224 465.667 70.6163 465.667 72.0471C465.667 72.4682 465.667 72.8886 465.752 73.309C465.752 73.7302 465.92 74.0669 466.004 74.3193C466.172 74.5717 466.341 74.7405 466.593 74.8241V75.1609H463.816C463.647 74.5717 463.479 73.5622 463.479 72.1314C463.479 70.7007 463.31 69.6904 462.974 69.0176C462.638 68.3441 461.88 68.0073 460.618 68.0073H454.979V75.1609H452.707ZM454.979 66.1562H460.702C461.627 66.1562 462.385 65.9038 462.806 65.399C463.31 64.8935 463.564 64.2207 463.564 63.3791C463.564 62.5376 463.395 61.864 462.974 61.3592C462.553 60.7701 461.796 60.5177 460.87 60.5177H454.979V66.1562Z" fill="white"/>
<path d="M469.286 75.1609V58.4978H477.197C478.627 58.4978 479.89 58.9182 480.9 59.7598C481.909 60.6013 482.415 61.696 482.415 63.1267C482.415 64.8935 481.657 66.2405 480.143 66.9977C481.068 67.2501 481.657 67.8393 481.909 68.6808C482.078 69.5224 482.246 70.6163 482.246 72.0471C482.246 72.4682 482.246 72.8886 482.33 73.309C482.33 73.7302 482.498 74.0669 482.583 74.3193C482.751 74.5717 482.92 74.7405 483.172 74.8241V75.1609H480.395C480.226 74.5717 480.058 73.5622 480.058 72.1314C480.058 70.7007 479.889 69.6904 479.553 69.0176C479.217 68.3441 478.459 68.0073 477.197 68.0073H471.558V75.1609H469.286ZM471.558 66.1562H477.281C478.206 66.1562 478.964 65.9038 479.385 65.399C479.889 64.8935 480.143 64.2207 480.143 63.3791C480.143 62.5376 479.974 61.864 479.553 61.3592C479.132 60.7701 478.375 60.5177 477.449 60.5177H471.558V66.1562Z" fill="white"/>
<path d="M488.218 58.4956H485.946V75.1586H488.218V58.4956Z" fill="white"/>
<path d="M490.407 60.6016V58.498H503.872V60.6016H498.234V75.1611H495.961V60.6016H490.407Z" fill="white"/>
<path d="M518.433 66.8292C518.433 65.4829 518.18 64.3046 517.759 63.295C517.339 62.2847 516.581 61.5275 515.74 60.9383C514.814 60.3492 513.804 60.0968 512.626 60.0968C511.448 60.0968 510.438 60.3492 509.596 60.9383C508.671 61.5275 507.997 62.2847 507.576 63.295C507.071 64.3046 506.903 65.4829 506.903 66.8292C506.903 68.8491 507.408 70.4478 508.502 71.7105C509.512 72.9725 510.943 73.5617 512.71 73.5617C514.477 73.5617 515.908 72.9725 516.918 71.7105C517.928 70.5322 518.433 68.8491 518.433 66.8292ZM520.705 66.8292C520.705 68.1756 520.453 69.5219 519.948 70.869C519.442 72.2153 518.517 73.3093 517.339 74.2352C516.076 75.1611 514.562 75.5815 512.626 75.5815C510.69 75.5815 509.176 75.1611 507.913 74.2352C506.651 73.3093 505.809 72.2153 505.304 70.869C504.799 69.5219 504.547 68.1756 504.547 66.8292C504.547 65.4829 504.799 64.1365 505.304 62.7895C505.809 61.4431 506.735 60.3492 507.913 59.4232C509.091 58.498 510.69 58.0769 512.626 58.0769C514.562 58.0769 516.16 58.498 517.339 59.4232C518.517 60.3492 519.442 61.4431 519.948 62.7895C520.453 64.2202 520.705 65.4829 520.705 66.8292Z" fill="white"/>
<path d="M523.48 75.1611V58.498H531.391C532.822 58.498 534.084 58.9185 535.094 59.76C536.103 60.6016 536.609 61.6962 536.609 63.127C536.609 64.8937 535.851 66.2408 534.337 66.998C535.262 67.2504 535.851 67.8395 536.103 68.6811C536.272 69.5226 536.44 70.6166 536.44 72.0473C536.44 72.4684 536.44 72.8889 536.525 73.3093C536.525 73.7304 536.693 74.0672 536.777 74.3196C536.945 74.572 537.114 74.7407 537.366 74.8244V75.1611H534.589C534.42 74.572 534.252 73.5624 534.252 72.1317C534.252 70.701 534.084 69.6907 533.748 69.0179C533.411 68.3443 532.654 68.0076 531.391 68.0076H525.752V75.1611H523.48ZM525.668 66.1564H531.391C532.317 66.1564 533.074 65.904 533.495 65.3992C534 64.8937 534.252 64.2209 534.337 63.3794C534.337 62.5378 534.168 61.8643 533.748 61.3595C533.326 60.7703 532.569 60.5179 531.643 60.5179H525.752V66.1564H525.668Z" fill="white"/>
<path d="M542.333 58.4956H540.061V75.1586H542.333V58.4956Z" fill="white"/>
<path d="M544.52 75.1611L550.748 58.498H553.357L559.332 75.1611H556.891L555.292 70.2798H548.56L546.793 75.1611H544.52ZM549.233 68.3443H554.367L551.926 60.9383L549.233 68.3443Z" fill="white"/>
<path d="M563.459 58.4985V73.2261H571.959V75.1616H561.272V58.4985H563.459Z" fill="white"/>
<path d="M586.43 73.2254V75.1609H574.227V58.4978H586.346V60.6021H576.415V65.6514H585.504V67.6713H576.415V73.2254H586.43Z" fill="white"/>
</svg>
