<svg width="100" height="55" viewBox="0 0 100 55" fill="none" xmlns="http://www.w3.org/2000/svg">
<path d="M61.5064 38.5817H62.4096C62.7827 38.5817 63.0183 38.8173 63.0183 39.1903C63.0183 39.5634 62.7827 39.8088 62.4096 39.8088H61.5064V38.5817ZM62.4096 37.4527H60.3774V42.813H61.4966V40.928H62.3998C63.4307 40.928 64.1277 40.2212 64.1277 39.1903C64.1277 38.1595 63.4208 37.4527 62.3998 37.4527M38.2096 38.5817H39.1128C39.4859 38.5817 39.7215 38.8173 39.7215 39.1903C39.7215 39.5634 39.4859 39.8088 39.1128 39.8088H38.2096V38.5817ZM39.1128 37.4527H37.0806V42.813H38.2096V40.928H38.7594L39.8 42.813H41.1058L39.908 40.7513C40.4774 40.4764 40.8505 39.8972 40.8505 39.1903C40.8505 38.1988 40.1044 37.4527 39.1128 37.4527ZM8.19764 29.8343H5.35057L6.77411 26.4178L8.19764 29.8343ZM10.1415 34.4583H13.558L6.78392 19.6929L6.10352e-05 34.4583H3.41654L4.23139 32.5047H9.31683L10.1317 34.4583H10.1415ZM18.2311 26.7811L26.4679 34.8216V20.0561H23.4441V27.7726L15.2073 19.7027V34.4681H18.2311V26.7811ZM28.8045 40.1328C28.8045 41.6545 30.0317 42.8817 31.573 42.8817C32.2995 42.8817 32.9573 42.6068 33.5267 42.1159V39.5732H31.4356V40.6924H32.4664V41.468C32.2013 41.6447 31.897 41.7429 31.5632 41.7429C30.66 41.7429 29.9433 41.036 29.9433 40.1328C29.9433 39.2296 30.66 38.5228 31.573 38.5228C32.0442 38.5228 32.4468 38.7093 32.7707 39.0627L33.5758 38.2675C33.026 37.6981 32.3289 37.3937 31.5828 37.3937C30.0513 37.3937 28.8143 38.6209 28.8143 40.1328M39.5644 24.3758L41.7144 22.2258C40.2418 20.6943 38.3667 19.8794 36.3443 19.8794C32.221 19.8794 28.9125 23.1683 28.9125 27.2621C28.9125 31.356 32.221 34.6449 36.3639 34.6449C38.3176 34.6449 40.0847 33.8987 41.6064 32.5832V25.7502H35.9712V28.774H38.7496V30.8553C38.0427 31.3364 37.218 31.5818 36.3345 31.5818C33.8997 31.5818 31.9755 29.6772 31.9755 27.2621C31.9755 24.847 33.8997 22.9425 36.3541 22.9425C37.6107 22.9425 38.7005 23.4431 39.5742 24.3856M45.18 40.1328C45.18 39.2296 45.8967 38.5129 46.7999 38.5129C47.7031 38.5129 48.4198 39.2394 48.4198 40.1328C48.4198 41.0262 47.6933 41.7527 46.7999 41.7527C45.9065 41.7527 45.18 41.036 45.18 40.1328ZM44.051 40.1328C44.051 41.6447 45.2782 42.8817 46.7999 42.8817C48.3216 42.8817 49.5389 41.6545 49.5389 40.1328C49.5389 38.6111 48.3118 37.3937 46.7999 37.3937C45.288 37.3937 44.051 38.6209 44.051 40.1328ZM44.4142 34.4583H53.6623V31.4346H47.438V28.7642H52.9554V25.7404H47.438V23.0701H53.6623V20.0463H44.4142V34.4485V34.4583ZM55.7141 37.4527V40.9182C55.7141 41.3895 55.3509 41.7527 54.8797 41.7527C54.4084 41.7527 54.0452 41.3895 54.0452 40.9182V37.4527H52.9162V40.9182C52.9162 41.9981 53.7899 42.8719 54.8698 42.8719C55.9497 42.8719 56.8235 41.9981 56.8235 40.9182V37.4527H55.6945H55.7141ZM56.1363 34.4583H64.3142V31.4346H59.1601V20.0561H56.1363V34.4583ZM76.8904 27.2621C76.8904 29.6772 74.9563 31.6211 72.5314 31.6211C70.1065 31.6211 68.1725 29.687 68.1725 27.2621C68.1725 24.8372 70.1065 22.9032 72.5314 22.9032C74.9563 22.9032 76.8904 24.8372 76.8904 27.2621ZM79.9142 27.2621C79.9142 23.1879 76.6253 19.8794 72.5314 19.8794C68.4376 19.8794 65.1487 23.1683 65.1487 27.2621C65.1487 31.356 68.4376 34.6449 72.5314 34.6449C76.6253 34.6449 79.9142 31.356 79.9142 27.2621ZM85.3825 26.7811L93.6193 34.8216V20.0561H90.5956V27.7726L82.3587 19.7027V34.4681H85.3825V26.7811ZM99.5589 20.0561H96.5351V34.4583H99.5589V20.0561Z" fill="white"/>
<path d="M21.9516 50.7556C19.998 49.9309 18.1425 48.8804 16.66 47.4667C15.8844 46.7893 15.2659 45.9941 14.7063 45.1694C14.1664 44.335 13.7737 43.4317 13.4595 42.5089C13.2043 41.5664 13.0374 40.6141 13.0276 39.652C13.0079 39.4164 13.0472 39.171 13.0472 38.9255L13.0668 38.5623C13.0668 38.4445 13.0963 38.3169 13.1061 38.199L13.1846 37.5609H9.93506V38.0322C9.90561 38.3365 9.92525 38.6408 9.94488 38.955C9.97433 39.2593 9.97433 39.5637 10.0234 39.868C10.1707 41.0952 10.5045 42.2831 10.9463 43.4219C11.4371 44.5411 12.0458 45.6014 12.7919 46.5439C12.9687 46.7893 13.1846 46.9955 13.381 47.2213L13.6755 47.5551C13.7737 47.6631 13.8915 47.7612 13.9897 47.8692L14.6278 48.4779L15.3052 49.0375L15.6488 49.3124L16.0023 49.5578L16.7189 50.0487L17.4651 50.4905L17.8381 50.7065L18.221 50.9028L18.9868 51.2955C19.242 51.4232 19.5071 51.5312 19.7722 51.649C20.2925 51.8846 20.8226 52.0809 21.3528 52.2773L21.7455 52.4245L22.148 52.5522L22.953 52.8074C23.493 52.9645 24.0329 53.1019 24.5729 53.259L26.2124 53.6223C26.7622 53.7204 27.312 53.8383 27.8617 53.9266C30.0707 54.28 32.2894 54.4764 34.5082 54.5648C38.9555 54.7218 43.4126 54.496 47.8403 53.9266C50.059 53.6321 52.2581 53.2492 54.4572 52.778C56.6465 52.2871 58.8162 51.7079 60.9466 51.0206C62.0069 50.6574 63.077 50.304 64.1176 49.8916C65.1779 49.5088 66.1989 49.0473 67.2396 48.6055C69.2914 47.6827 71.304 46.6519 73.2479 45.5229C77.0374 43.3041 80.5717 40.6338 83.7034 37.5511H78.186C75.8887 39.0532 73.5227 40.4374 71.1175 41.7431C69.2423 42.7543 67.3377 43.7066 65.4135 44.6197C64.4416 45.0614 63.4795 45.5131 62.4977 45.9352C61.5258 46.3672 60.5342 46.7697 59.5427 47.182C57.5596 47.9772 55.547 48.7332 53.5246 49.44C51.4924 50.1273 49.4307 50.7458 47.3396 51.2759C43.1573 52.3264 38.8573 52.9743 34.5376 52.9841C32.3778 52.9841 30.2179 52.8271 28.0974 52.4638C25.9768 52.1104 23.8955 51.5606 21.932 50.7359M94.0609 17.602C94.0609 17.2879 94.0412 16.9835 94.0216 16.6694C93.9332 15.5502 93.678 14.4604 93.3147 13.4001C92.9122 12.3595 92.4115 11.3483 91.7636 10.4353C91.6163 10.1997 91.4298 9.99349 91.2629 9.76769C91.096 9.54189 90.9193 9.3259 90.7229 9.11974L90.1535 8.50124L89.535 7.93182L89.2307 7.64712L88.9067 7.38205L88.2489 6.8519L87.5617 6.37085L87.2181 6.12541C87.1003 6.04687 86.9825 5.97815 86.8647 5.89961L86.148 5.45782C85.9026 5.31056 85.6571 5.19275 85.4117 5.05531C84.9208 4.7706 84.4103 4.5448 83.8998 4.30918C79.7961 2.43405 75.3095 1.46212 70.8131 1.03015C66.3069 0.627635 61.7418 0.794532 57.2748 1.50139C55.0463 1.85482 52.8275 2.33587 50.6382 2.88565C48.449 3.44525 46.2891 4.13247 44.1587 4.86878C42.0382 5.63454 39.9372 6.48866 37.8854 7.43113C35.8335 8.39324 33.8209 9.42408 31.8673 10.5629C28.3722 12.5951 25.0441 14.9317 21.9516 17.5922H30.0314C31.4549 16.689 32.9079 15.8349 34.3805 15.02C36.2458 14.0186 38.1406 13.0762 40.0747 12.1926C42.0087 11.3287 43.9722 10.5236 45.9553 9.76769C47.9483 9.02156 49.9608 8.36379 51.993 7.73547C54.0253 7.13661 56.0869 6.61628 58.1584 6.14505C58.6787 6.03705 59.1991 5.91925 59.7096 5.80144L61.2705 5.49709C61.7909 5.3891 62.3112 5.31056 62.8413 5.21239L63.6267 5.07494L64.4121 4.95713C66.5131 4.64298 68.6238 4.3779 70.7542 4.26009C72.8748 4.14229 75.015 4.13247 77.1454 4.319C77.6755 4.36809 78.2057 4.43681 78.7358 4.4859C79.266 4.56444 79.7863 4.64298 80.3164 4.73133C80.8367 4.84914 81.3669 4.94732 81.8872 5.07494L82.6628 5.28111L83.0457 5.3891L83.4286 5.51673C83.9391 5.68363 84.4496 5.85052 84.9404 6.05669C85.1859 6.15486 85.4411 6.25304 85.6768 6.37085L86.3934 6.72428C86.5112 6.78318 86.6389 6.84209 86.7567 6.90099L87.1003 7.09734L87.7973 7.49986L88.4551 7.96128L88.7889 8.18708L89.1031 8.44233C89.3092 8.60923 89.5252 8.77612 89.7215 8.95284L90.291 9.51243C90.4873 9.69897 90.664 9.90513 90.8309 10.1015C90.9978 10.3076 91.1843 10.504 91.3414 10.72C91.9894 11.5839 92.4803 12.5362 92.8828 13.5278C93.2166 14.5488 93.462 15.5993 93.5307 16.6694C93.5602 16.9344 93.5307 17.2093 93.5405 17.4744V17.5627H94.0903L94.0609 17.602Z" fill="white"/>
</svg>
