<svg width="155" height="24" viewBox="0 0 155 24" fill="none" xmlns="http://www.w3.org/2000/svg">
<path d="M79.2921 1.41089H86.491V2.57836C85.7158 2.75172 84.935 2.92621 84.1389 3.1042V10.7427H94.0338V3.11696C93.2455 2.93829 92.4466 2.75714 91.6331 2.57283V1.44994H98.8699V2.57453C98.0682 2.75003 97.2518 2.9287 96.4282 3.10894V21.1556C97.2295 21.3419 98.0443 21.5313 98.8825 21.7261V22.8265H91.6287V21.7216C92.3005 21.5663 92.9725 21.4023 93.649 21.2589C93.9219 21.2011 94.0605 21.1103 94.0588 20.7853C94.0447 17.9455 94.0507 15.1056 94.0507 12.2151H84.1545V21.1654C84.925 21.348 85.7065 21.5334 86.5049 21.7226V22.8296H79.2824V21.7223C80.0799 21.5364 80.9106 21.3426 81.7399 21.1493V3.11515C80.9389 2.94122 80.1351 2.76673 79.2921 2.58367V1.41089Z" fill="white"/>
<path d="M128.32 16.9335C125.347 12.786 122.399 8.66965 119.379 4.45211V21.1033C120.188 21.3114 120.998 21.52 121.81 21.729V22.8199H115.399V21.7198C116.233 21.5171 117.069 21.3141 117.943 21.102V3.11274C117.126 2.9404 116.274 2.76071 115.404 2.5772V1.41153C116.908 1.41153 118.39 1.39742 119.872 1.42959C120.055 1.43354 120.279 1.65024 120.405 1.82541C124.107 6.98458 127.798 12.1511 131.492 17.3161C131.783 17.7221 132.076 18.1256 132.428 18.6127V3.10609C131.656 2.93385 130.875 2.75936 130.073 2.58036V1.43444H136.358V2.57279C135.549 2.74582 134.711 2.92494 133.829 3.11376V22.9987C133.058 23.2247 132.599 22.965 132.171 22.3364C130.934 20.5195 129.626 18.7519 128.32 16.9335Z" fill="white"/>
<path d="M114.083 18.7264C113.817 20.1186 113.556 21.4635 113.291 22.8347H100.6V21.7244C101.418 21.5345 102.235 21.3448 103.064 21.1525V3.11563C102.269 2.9416 101.452 2.76259 100.61 2.57817V1.43677H112.117C112.24 2.9311 112.362 4.40421 112.484 5.88229C111.889 6.05475 111.668 5.80397 111.576 5.25612C111.467 4.60997 111.29 3.97386 111.112 3.34204C111.071 3.2013 110.904 2.99295 110.792 2.99149C109.029 2.96936 107.268 2.97591 105.475 2.97591V10.7421H110.187C110.36 10.0111 110.53 9.28698 110.705 8.54636H111.36V14.7474C111.16 14.7372 110.948 14.7263 110.709 14.7139C110.534 13.8884 110.363 13.0856 110.188 12.2613H105.479V20.9844C105.988 20.9844 106.489 20.9844 106.99 20.9844C108.57 20.9844 110.15 20.9603 111.729 20.9983C112.238 21.0105 112.468 20.8331 112.612 20.371C112.89 19.4761 113.213 18.5947 113.534 17.661C113.737 17.649 113.975 17.6349 114.287 17.6165C114.216 17.9983 114.152 18.3386 114.083 18.7264Z" fill="white"/>
<path d="M47.6364 15.549C49.2119 10.6683 50.7685 5.829 52.3201 1.00527C53.5613 0.900866 53.5629 0.900298 53.9533 2.02793C56.0833 8.18077 58.2181 14.3319 60.3304 20.4908C60.4897 20.9556 60.7201 21.1961 61.1962 21.293C61.6897 21.3933 62.1667 21.5749 62.6649 21.7251V22.8292H55.5439V21.7233C56.3545 21.5208 57.1844 21.3135 58.0592 21.0951C57.3432 18.952 56.6374 16.8394 55.9309 14.7248H49.3046C48.6672 16.8287 48.0283 18.938 47.3754 21.0935C48.3403 21.3105 49.2642 21.5182 50.1769 21.7234V22.838H43.838V21.7147C44.3712 21.5531 44.9184 21.4182 45.4386 21.2146C45.6467 21.1333 45.8893 20.9323 45.9567 20.732C46.5311 19.0252 47.0689 17.3059 47.6364 15.549ZM53.0174 6.05845C52.8534 5.56535 52.6894 5.07224 52.4867 4.46288C51.5781 7.45673 50.7065 10.3293 49.8305 13.2156H55.4027C54.6095 10.8302 53.8299 8.48584 53.0174 6.05845Z" fill="white"/>
<path d="M136.749 22.8634C136.506 22.8634 136.32 22.8634 136.099 22.8634V21.715C136.566 21.5697 137.042 21.3858 137.535 21.2802C137.978 21.185 138.167 20.9394 138.301 20.5212C140.328 14.1794 142.374 7.8431 144.41 1.50426C144.511 1.19309 144.568 0.90269 145.022 0.961492C145.443 1.01601 145.827 0.867024 146.043 1.50528C148.214 7.87729 150.437 14.2308 152.626 20.5965C152.76 20.9875 152.954 21.1737 153.337 21.2648C153.865 21.3904 154.381 21.564 154.903 21.7173V22.8333H147.822V21.714C148.619 21.5161 149.435 21.3138 150.303 21.0983C150.096 20.464 149.9 19.8437 149.695 19.226C149.244 17.8733 148.783 16.5242 148.344 15.1683C148.239 14.8447 148.104 14.6955 147.723 14.7003C145.805 14.7248 143.888 14.7043 141.97 14.7242C141.803 14.7259 141.53 14.8727 141.487 15.009C140.855 17.0104 140.253 19.0216 139.627 21.0923C140.582 21.3075 141.504 21.5151 142.442 21.7262V22.8634C140.55 22.8634 138.678 22.8634 136.749 22.8634ZM145.487 6.70542C145.253 6.00769 145.021 5.30984 144.738 4.462C143.82 7.48498 142.954 10.3399 142.082 13.2175H147.651C146.932 11.0456 146.226 8.91678 145.487 6.70542Z" fill="white"/>
<path d="M70.1523 3.09876V21.0912C71.083 21.3003 72.0097 21.5083 72.9567 21.721V22.8258H64.9979V21.716C65.8882 21.518 66.8007 21.3152 67.7497 21.1042V3.04154C66.0934 3.04154 64.444 3.02664 62.7952 3.05147C62.3572 3.05801 62.0314 3.29571 61.8988 3.77031C61.6419 4.68993 61.3513 5.60019 61.0565 6.57399C60.8301 6.55333 60.5563 6.5285 60.2263 6.49848C60.4155 4.82864 60.6024 3.18036 60.7962 1.47192H77.1481C77.3244 3.11704 77.5056 4.80856 77.6951 6.57681C77.4163 6.55232 77.145 6.5285 76.8383 6.50164C76.6092 5.67649 76.3873 4.84648 76.1477 4.02177C75.9121 3.2114 75.7541 3.09989 74.9141 3.0991C73.3537 3.09774 71.7934 3.09876 70.1523 3.09876Z" fill="white"/>
<path d="M35.4915 6.25326V4.23852C34.9657 3.89157 34.1733 4.3042 33.6832 3.61211C34.9194 3.29891 36.0201 3.02002 37.1564 2.7321V4.83805C37.1887 4.85543 37.221 4.87282 37.2533 4.8902C37.367 4.72056 37.4784 4.54946 37.5949 4.38174C37.7877 4.10443 37.9721 3.82024 38.1805 3.555C38.907 2.63098 39.6166 2.50163 40.7191 3.1032C40.6361 3.34135 40.5448 3.58401 40.4676 3.83107C40.3959 4.06075 40.3392 4.29506 40.2647 4.56819C40.1577 4.52462 40.0768 4.49415 39.9978 4.45916C38.7852 3.92181 37.9706 4.23185 37.4684 5.46231C37.3214 5.82223 37.2031 6.22088 37.1936 6.60484C37.1605 7.9371 37.1808 9.27071 37.1808 10.6608C37.7962 10.7411 38.4022 10.8203 39.0267 10.9018V11.533H35.8902V21.6584C36.3706 21.7146 36.832 21.7686 37.4873 21.8451C37.2861 22.0807 37.1869 22.3141 37.0382 22.3515C36.1125 22.5853 35.1756 22.7751 34.195 22.9898V21.6409C33.9724 21.7974 33.8279 21.8894 33.6937 21.9947C32.913 22.6076 32.0376 22.9485 31.0356 22.899C29.1978 22.8085 27.823 21.3487 27.6158 19.2814C27.3696 16.8272 28.9022 15.0344 31.4832 14.8651C32.3461 14.8084 33.2228 14.965 34.1674 15.029C34.1674 14.0276 34.1865 12.894 34.1572 11.7618C34.1468 11.3591 33.3093 11.1111 32.9579 11.3579C32.025 12.0131 31.0186 11.8125 30.0575 11.4936C29.2041 11.2103 28.9872 10.4266 28.9706 9.62285C28.9382 8.04376 28.9521 6.46365 28.9469 4.88399C28.9464 4.67982 28.9469 4.47553 28.9469 4.24202H27.4737C27.5984 4.01109 27.6417 3.78423 27.7648 3.72599C28.9306 3.17465 29.6486 2.20887 30.2669 1.13326C30.3474 0.993197 30.544 0.919717 30.6867 0.81543C30.7293 0.85482 30.7718 0.894099 30.8144 0.933489C30.7488 1.74871 30.6832 2.56393 30.6152 3.41076H33.4236V4.23242H30.6459C30.6459 5.95429 30.5936 7.62807 30.6635 9.29667C30.7138 10.4995 31.8506 11.0297 32.9181 10.4231C33.1435 10.2948 33.3557 10.125 33.5335 9.93617C33.7618 9.69407 33.9289 9.697 34.1151 10.0138C34.0018 10.1553 33.8798 10.3076 33.6662 10.5743C34.3507 10.4424 34.9034 10.3358 35.4915 10.2224V6.25326ZM29.2085 18.0882C29.1723 18.9724 29.3982 19.7866 29.8073 20.5697C30.5257 21.9448 32.4849 22.4358 34.0243 21.1487C34.1077 21.079 34.1622 20.9268 34.1624 20.813C34.165 19.6122 34.1866 18.4098 34.1338 17.2111C34.1036 16.528 33.8193 15.9079 33.1211 15.6485C31.3763 15.0003 29.9383 15.3717 29.3363 17.3871C29.2776 17.5836 29.2509 17.7896 29.2085 18.0882Z" fill="white"/>
<path d="M18.1455 10.6631V4.17392C17.6652 4.11027 17.2044 4.06219 16.7499 3.97957C16.6394 3.95948 16.5494 3.82607 16.45 3.74481C16.526 3.66084 16.5885 3.52405 16.6799 3.5008C17.6959 3.24234 18.7165 3.00137 19.7772 2.74573V4.21027C20.4857 3.81253 21.1119 3.46288 21.7362 3.11006C23.5188 2.10252 25.723 3.14381 25.9231 5.15947C26.0472 6.40787 25.9826 7.67511 25.9977 8.93389C26.0045 9.49517 25.9989 10.0567 25.9989 10.66C26.5782 10.7414 27.1283 10.8187 27.6991 10.899V11.5043H22.7457V10.8954C23.2542 10.8208 23.7542 10.7474 24.3173 10.6647C24.3173 9.59257 24.3261 8.52803 24.3142 7.4636C24.3064 6.77005 24.3353 6.06633 24.229 5.38564C24.0642 4.33137 23.5068 3.8193 22.454 3.92291C21.6159 4.00542 20.8025 4.35903 19.9865 4.61839C19.8958 4.64728 19.807 4.84761 19.8062 4.96894C19.7949 6.84747 19.7983 8.726 19.7983 10.6571C20.3436 10.7396 20.8726 10.8195 21.4119 10.901V11.5104H16.4855V10.8996C17.0281 10.8222 17.5624 10.7462 18.1455 10.6631Z" fill="#F6F6F6"/>
<path d="M23.1061 17.0876V14.9662C22.5707 14.8941 22.0572 14.8249 21.5078 14.751C21.4962 14.5594 21.4852 14.3792 21.472 14.1618H24.7953V21.4682C25.3697 21.5291 25.8911 21.5844 26.4374 21.6424C26.57 21.9331 26.5679 22.1542 26.1701 22.2408C25.1646 22.4599 24.1619 22.6915 23.1062 22.9299V21.4447C22.3694 21.8514 21.702 22.2207 21.0336 22.5886C19.1741 23.612 16.976 22.4496 16.8914 20.3505C16.8248 18.6981 16.8653 17.0414 16.8584 15.3867C16.858 15.258 16.8584 15.1293 16.8584 14.9689C16.2503 14.8906 15.6809 14.8174 15.1105 14.744V14.1436H18.5669C18.5669 14.8674 18.5661 15.5749 18.567 16.2826C18.5685 17.505 18.5437 18.7281 18.581 19.9494C18.6211 21.2727 19.2822 21.9298 20.5877 21.7828C21.3854 21.6931 22.1559 21.3285 22.9245 21.0485C23.0275 21.0111 23.0962 20.7462 23.0983 20.5854C23.1128 19.4385 23.1061 18.2912 23.1061 17.0876Z" fill="#FAFAFA"/>
<path d="M49.2764 5.34579C49.8909 7.10773 49.7845 8.74676 48.6936 10.2551C48.2162 10.9153 47.564 11.3586 46.7747 11.5594C45.0296 12.0034 43.3526 11.9344 41.8416 10.807C41.5406 11.6262 41.1217 11.8985 40.4649 11.7124C40.0043 11.582 39.7571 11.2866 39.8127 10.8018C39.8737 10.2717 40.3777 10.0317 41.2722 10.1208C40.5119 8.87339 40.3635 7.53831 40.6071 6.16937C40.8607 4.74343 41.658 3.69052 43.0184 3.13568C45.6764 2.05172 48.1134 2.90791 49.2764 5.34579ZM47.1289 10.3602C48.1372 8.45952 48.0332 6.5425 47.1859 4.62831C46.7089 3.55068 45.8119 3.22653 44.6966 3.30362C43.6084 3.3789 42.9237 3.9483 42.6029 4.96352C42.0286 6.78043 42.2399 8.53322 43.1977 10.1598C44.0205 11.5573 46.0058 11.6654 47.1289 10.3602Z" fill="white"/>
<path d="M8.19406 8.62097C8.20761 8.50268 8.23255 8.3844 8.23266 8.266C8.23311 7.61037 8.14858 6.9439 8.23752 6.30114C8.64993 3.31812 10.8868 2.57738 12.976 2.79758C13.5934 2.86259 14.2247 3.08607 14.7822 3.36925C15.8972 3.9356 16.2648 4.94258 15.9035 6.20554C14.8852 6.20554 13.8559 6.20543 12.8268 6.20543C11.794 6.20543 10.7612 6.20554 9.72587 6.20554C9.3901 7.50507 10.1971 9.60548 11.3096 10.1739C12.6593 10.8635 14.4369 11.0846 16.1686 9.08145C16.2932 9.17389 16.4202 9.26824 16.5322 9.35131C16.4895 9.97613 14.3124 11.6536 13.421 11.7504C10.8488 12.0297 8.9076 11.0169 8.3295 8.9546C8.24655 8.86442 8.21382 8.81554 8.22296 8.75832C8.2374 8.70686 8.20998 8.66363 8.18549 8.61871C8.18853 8.61701 8.19406 8.62097 8.19406 8.62097ZM10.0839 5.65905H14.4484C14.3242 4.18458 13.6044 3.39599 12.3968 3.32839C11.0164 3.25119 10.0005 4.02668 9.77937 5.34912C9.76436 5.43874 9.90894 5.55498 10.0839 5.65905Z" fill="#F6F6F6"/>
<path d="M5.7808 16.6551C5.65224 16.4206 5.54965 16.1947 5.48881 15.9579C5.29232 15.1947 4.82246 14.6939 4.05543 14.5344C3.2665 14.3706 2.50624 14.4792 1.90896 15.0747C1.44328 15.539 1.46844 16.2766 2.01798 16.7198C2.38333 17.0145 2.8577 17.1935 3.30724 17.3598C3.99211 17.6129 4.70497 17.7901 5.39277 18.0364C6.25133 18.344 6.84071 18.9207 6.92976 19.8676C7.02276 20.8565 6.68564 21.6984 5.85405 22.2646C4.74977 23.0163 3.4911 23.0353 2.21911 22.9174C2.126 22.9087 2.03503 22.8798 1.94259 22.863C0.338326 22.5706 0.340131 22.5705 0.189569 20.9668C0.158079 20.6317 0.107178 20.2984 0.0585327 19.9112C0.271735 19.8971 0.464734 19.8845 0.66586 19.8711C0.731322 20.1282 0.797461 20.3418 0.839672 20.5601C1.2312 22.5837 3.74324 22.8124 4.86546 22.0561C5.62606 21.5436 5.77831 20.6271 5.1246 19.982C4.79311 19.6549 4.33048 19.4275 3.8885 19.2529C3.14065 18.9574 2.35037 18.77 1.59982 18.4805C0.821952 18.1807 0.34758 17.5866 0.26801 16.7443C0.177492 15.7875 0.522183 15.0053 1.34757 14.4827C2.28988 13.8862 3.31955 13.8219 4.3894 14.0317C6.03553 14.3545 6.20201 14.5387 6.26002 16.1692C6.26533 16.3177 6.2607 16.4667 6.2607 16.6587C6.1116 16.6587 5.96872 16.6587 5.7808 16.6551Z" fill="#F7F7F7"/>
<path d="M8.18338 8.76668C8.21623 8.81555 8.24896 8.86442 8.29275 8.94072C7.85991 9.68495 7.4282 10.41 6.96297 11.1127C6.86094 11.2668 6.65361 11.3796 6.47088 11.447C5.17293 11.926 3.84654 11.959 2.54802 11.5081C0.930215 10.9463 0.286657 9.61961 0.0832744 8.03972C0.0120565 7.48702 0.0172475 6.90317 0.109797 6.35408C0.600309 3.44194 3.81313 1.80529 6.50722 3.06892C7.48509 3.52761 7.74185 4.02263 7.52165 5.07205C6.9983 5.19203 6.46061 5.31539 5.8903 5.44609C5.8763 5.3269 5.85057 5.23818 5.85791 5.15241C5.98522 3.66282 4.96492 2.87389 3.55218 3.42027C2.40705 3.86315 1.8337 4.80738 1.69239 5.97328C1.54431 7.19481 1.77241 8.36861 2.46834 9.41949C3.33153 10.7231 5.58635 11.0575 6.76738 10.0236C7.14378 9.6941 7.42549 9.25798 7.76838 8.88722C7.85754 8.79084 8.01386 8.75653 8.16792 8.65732C8.19647 8.62098 8.19094 8.61703 8.15754 8.65495C8.14399 8.71748 8.16374 8.74208 8.18338 8.76668Z" fill="#FAFAFA"/>
<path d="M14.218 21.3272C14.4913 21.1768 14.6525 20.6284 15.0503 21.1925C14.6376 21.6602 14.2259 22.1394 13.7969 22.6025C13.7025 22.7043 13.5458 22.8095 13.418 22.8093C12.6559 22.808 11.8858 22.8365 11.1342 22.7365C10.4913 22.6509 10.0667 22.1914 9.92702 21.5464C9.83627 21.1277 9.78097 20.6934 9.77634 20.2654C9.75919 18.6688 9.76946 17.0719 9.76946 15.4306H8.25909C8.39702 15.1834 8.44307 14.9588 8.56643 14.9021C9.7549 14.354 10.4951 13.3839 11.1268 12.2931C11.2066 12.1554 11.412 12.0906 11.5592 11.9919C11.599 12.0313 11.6387 12.0708 11.6785 12.1102C11.6107 12.9277 11.543 13.7451 11.473 14.5892H14.3374V15.3992H11.4939C11.4939 17.1152 11.4068 18.7875 11.5201 20.4461C11.6191 21.8939 12.8851 22.2798 14.218 21.3272Z" fill="#FAFAFA"/>
<path d="M41.8065 13.9453V21.8541C42.3536 21.9322 42.869 22.0057 43.4084 22.0825V22.7057H38.4509V22.0882C38.9732 22.01 39.5181 21.9283 40.072 21.8452V15.295C39.5717 15.2156 39.0759 15.1368 38.5815 15.0584C38.4819 14.7469 38.5019 14.5679 38.8861 14.5048C39.8474 14.3469 40.8009 14.1414 41.8065 13.9453Z" fill="white"/>
<path d="M8.22389 8.7587C8.1621 8.74241 8.1423 8.71774 8.15294 8.65674C8.21088 8.66375 8.23838 8.7071 8.22389 8.7587Z" fill="black"/>
</svg>
