<svg width="107" height="38" viewBox="0 0 107 38" fill="none" xmlns="http://www.w3.org/2000/svg">
<path d="M0.558838 37.5173L4.33573 27.1913H5.77137L2.43992 36.2803H8.00725L7.56296 37.5173H0.558838ZM12.8566 37.7206C11.8142 37.7206 11.0234 37.4922 10.4819 37.058C9.93827 36.625 9.67268 35.9879 9.66402 35.2659C9.65565 34.7979 9.75438 34.2884 9.94 33.7503L12.3315 27.1896H13.768L11.3332 33.8727C11.2065 34.265 11.151 34.6155 11.1554 34.9177C11.1866 35.9281 11.7908 36.4619 13.1473 36.4861C14.8869 36.4861 16.3506 35.4601 17.0466 33.7352L19.4329 27.1896H20.8694L18.4251 33.896C17.6072 36.0904 15.6283 37.7206 12.8653 37.7206H12.8566ZM23.0568 31.5565H25.1688C26.4197 31.5565 27.771 31.1148 28.2035 29.8917C28.284 29.6671 28.3164 29.4812 28.3135 29.3319C28.3005 28.9699 28.1313 28.7877 27.784 28.6324C27.4379 28.4855 26.9301 28.43 26.4038 28.4257H24.2147L23.0568 31.5565ZM21.3581 36.2803H23.6584C25.4405 36.2665 26.5115 35.8447 27.0167 34.4619C27.1105 34.2023 27.1486 33.9887 27.146 33.8178C27.1301 33.3891 26.9197 33.1798 26.4197 33.0028C25.9205 32.8386 25.1757 32.7892 24.3103 32.7892H22.6134L21.3581 36.2797V36.2803ZM23.9996 37.5153H19.4762L23.2228 27.1893H27.3042C28.6824 27.1893 29.8343 27.8429 29.8545 29.0721C29.8545 29.3463 29.8051 29.6396 29.6928 29.9532C29.336 30.9321 28.416 31.7257 27.3666 32.1224C28.1201 32.4122 28.6053 32.9832 28.6114 33.7742C28.6114 34.0701 28.5551 34.3885 28.4333 34.7298C27.9414 36.1091 26.4838 37.5153 23.9996 37.5153ZM36.289 37.5153L33.9732 31.5571H35.0338C36.4565 31.5571 38.0953 31.4627 38.6407 29.92C38.7333 29.6622 38.7691 29.454 38.7674 29.2889C38.7527 28.8827 38.5572 28.7144 38.1883 28.5738C37.8228 28.4454 37.3124 28.4228 36.8647 28.4228H34.3248L31.0228 37.5153H29.5886L33.3343 27.1893H37.0971C38.0676 27.1893 38.8973 27.2412 39.6343 27.749C40.072 28.0371 40.3009 28.4938 40.3026 29.0164C40.3026 29.3359 40.2374 29.6867 40.1006 30.0631C39.6719 31.2283 38.3367 32.202 37.0451 32.4105C36.4426 32.5034 36.0659 32.5346 35.8315 32.5407L37.886 37.5153H36.289ZM45.4502 36.8646C44.8226 36.3126 44.5406 35.528 44.5302 34.6573C44.5198 33.9186 44.6959 33.1102 45.0172 32.2771C46.0813 29.5011 48.6108 26.9866 52.2736 26.9849C53.3224 26.9849 54.1582 27.2043 54.9307 27.5559L55.0756 27.622L54.6313 28.8293L54.4315 28.7286C53.7321 28.3795 53.2277 28.2242 51.9639 28.2199C49.0594 28.2199 47.3145 30.4387 46.5446 32.4289C46.2868 33.0975 46.1272 33.7875 46.1367 34.3935C46.1797 35.573 46.7184 36.4183 48.6515 36.4472C49.7713 36.4472 50.8094 36.2924 51.7606 35.8785L52.1957 35.6885L51.6391 37.2751L51.5369 37.3043C50.469 37.5881 49.3354 37.7209 48.3094 37.7209C47.0195 37.7209 46.0778 37.4166 45.4502 36.8646ZM49.7877 9.9082L53.1131 0.81543H51.6766L48.3512 9.9082H49.7877ZM53.3013 9.9082L56.6267 0.81543H55.1902L51.8648 9.9082H53.3013ZM61.8586 32.3752L61.6259 28.7739L58.7858 32.3752H61.8586ZM62.2596 37.5191L61.9383 33.5756H57.8395L54.698 37.5191H53.1382L61.4253 27.193H62.8794L63.7636 37.5191H62.2596ZM66.0281 37.5191L69.3145 28.4283H65.7391L66.1869 27.193H74.7127L74.2675 28.4283H70.7585L67.4473 37.5191H66.0281ZM80.0317 32.4255C79.7964 33.0765 79.6671 33.7251 79.6755 34.2979C79.7243 35.5774 80.3109 36.4619 82.1385 36.4887C84.7803 36.4887 86.6094 34.4021 87.3747 32.2814C87.608 31.6296 87.7391 30.982 87.7301 30.4084C87.6886 29.1278 87.0956 28.2467 85.2685 28.2199H85.2546C82.6198 28.2199 80.7936 30.3077 80.0282 32.4255M85.5566 26.9849C86.7489 26.9849 87.6747 27.2687 88.3112 27.8146C88.949 28.3605 89.2711 29.159 89.2815 30.1018C89.2885 30.7961 89.1392 31.5776 88.8329 32.4255C87.7024 35.5765 85.1169 37.7223 81.847 37.7223C80.6561 37.7223 79.7297 37.4377 79.0938 36.8915C78.4555 36.3456 78.1339 35.547 78.1235 34.6042C78.1166 33.909 78.2658 33.1287 78.5707 32.2814C79.702 29.1298 82.2892 26.9837 85.5586 26.9849M96.1889 37.5173L93.4196 29.3224L90.4392 37.5173H89.0029L92.7515 27.1913H94.175L97.0146 35.5401L100.049 27.1913H101.484L97.738 37.5173H96.1889ZM43.6684 27.1922L39.8924 37.5173H41.3292L45.1058 27.1922H43.6684ZM76.7499 27.1922L72.9736 37.5173H74.4104L78.1873 27.1922H76.7499Z" fill="white"/>
<path d="M28.4968 10.9555H33.2301L29.1235 22.2192H37.0589L36.0529 24.9776H23.3867L28.4968 10.9555ZM77.9936 10.9555H91.0777L90.0985 13.6464H81.6434L80.5773 16.5664H88.5667L87.5875 19.2521H79.5984L78.5066 22.2521H87.1487L86.1556 24.9776H72.8853L77.9936 10.9555ZM69.2022 15.0719C68.9828 15.6741 68.449 16.1784 67.8205 16.4284C67.3612 16.6057 66.8716 16.6057 66.1268 16.6057H63.5532L64.6851 13.498H67.6069C68.0965 13.498 68.6087 13.498 69.0018 13.828C69.3561 14.1377 69.3569 14.6449 69.2022 15.0719ZM67.4245 20.7798C66.8301 22.4118 64.9654 22.4118 64.4299 22.4118H61.4622L62.6712 19.0907H65.5009C66.1311 19.0907 68.0382 19.0907 67.4245 20.7798ZM73.6165 12.099C72.4958 10.9532 70.3284 10.9532 68.2062 10.9532H61.0918L55.98 24.9765H63.8C65.3139 24.9765 67.0154 24.9765 68.5552 24.393C70.6938 23.5769 71.6485 22.2949 72.0458 21.2082C73.0943 18.3341 70.2522 17.8863 69.2591 17.7307L69.2709 17.6941C70.1742 17.5171 73.1139 16.9951 74.0215 14.5093C74.4733 13.2662 74.0074 12.5069 73.6165 12.099ZM46.9802 10.9541L43.9127 19.3748C43.6306 20.1415 43.4152 20.9279 43.6713 21.5171C44.0238 22.3012 44.9935 22.6736 46.148 22.6736C49.1434 22.6736 50.2788 20.6525 50.7961 19.2388L53.8126 10.9541H58.4088L55.4174 19.1614C54.8446 20.7299 53.9636 22.4383 52.5236 23.4799C50.2606 25.1673 47.0983 25.4999 44.9525 25.4999C36.9163 25.4999 38.412 21.3384 39.2559 19.0235L42.2201 10.9541H46.9802ZM10.242 10.9541H14.9727L9.8635 24.9765H5.13019L10.242 10.9541ZM13.9536 17.1294L21.5204 10.9541H26.5733L18.9918 17.1311L21.6618 24.9765H16.6193L13.9536 17.1294ZM106.379 12.1556C105.201 10.9526 102.983 10.9526 100.753 10.9526H93.4464L88.334 24.9756H92.9395L97.0561 13.4879H100.125C100.638 13.4879 101.175 13.515 101.589 13.862C101.959 14.1877 101.961 14.8291 101.798 15.2769C101.568 15.9097 101.007 16.4394 100.347 16.7015C99.8656 16.8872 99.3518 16.8872 98.5697 16.8872H97.2553L98.1817 24.9756H102.461L101.653 18.0312C102.602 17.8456 105.824 17.2968 106.777 14.6868C107.251 13.3819 106.783 12.5834 106.379 12.1556Z" fill="white"/>
</svg>
