<svg width="169" height="20" viewBox="0 0 169 20" fill="none" xmlns="http://www.w3.org/2000/svg">
<path d="M135.82 8.25394C135.735 12.3243 133.809 15.6705 129.922 17.202C128.43 17.7902 126.861 17.8835 125.281 17.7365C124.034 17.6211 122.839 17.3032 121.723 16.7094C119.465 15.5088 118.071 13.6545 117.624 11.1163C117.307 9.31689 117.379 7.52432 118.085 5.81694C119.088 3.38672 120.828 1.67254 123.271 0.760827C125.789 -0.178668 128.346 -0.203359 130.845 0.829344C133.499 1.92563 135.099 3.94535 135.649 6.78976C135.758 7.34902 135.783 7.92494 135.821 8.25333L135.82 8.25394ZM121.955 9.08603C122.033 9.56936 122.061 10.0681 122.198 10.5335C122.986 13.2076 125.928 14.1483 128.143 13.3249C130.082 12.6039 131.246 10.7187 131.18 8.53542C131.133 7.01013 130.555 5.76694 129.299 4.89287C128.312 4.20708 127.189 4.09844 126.036 4.23794C125.11 4.35029 124.261 4.67559 123.564 5.32929C122.485 6.34039 122.025 7.61568 121.955 9.08541V9.08603Z" fill="white"/>
<path d="M93.083 7.798H101.291C101.299 10.3856 100.882 12.8405 99.2561 14.9269C98.1233 16.38 96.6055 17.2405 94.8195 17.6096C92.5526 18.0775 90.323 17.9645 88.2541 16.8541C86.0642 15.6788 84.753 13.7664 84.343 11.3159C83.8444 8.33441 84.4725 5.57765 86.3539 3.18139C87.6694 1.5061 89.4205 0.521541 91.498 0.164756C93.559 -0.188944 95.5655 -5.72198e-05 97.4462 0.994375C98.807 1.71412 99.9099 2.71719 100.658 4.09002C100.792 4.33384 100.925 4.57766 101.068 4.84124C99.6746 5.41778 98.298 5.98629 96.9049 6.56283C96.8597 6.45974 96.8151 6.3727 96.7821 6.28135C96.3483 5.08321 95.4879 4.3789 94.2714 4.1215C93.006 3.85298 91.7925 3.97026 90.7177 4.77211C89.9735 5.32704 89.5067 6.09431 89.1957 6.9585C88.6684 8.42083 88.5413 9.90908 88.9788 11.4202C89.4126 12.9183 90.7251 13.943 92.2746 14.0387C93.2418 14.0985 94.1559 13.9658 94.9955 13.4455C95.7788 12.9597 96.2352 12.2282 96.5645 11.356H92.6363C92.7866 10.1578 92.9327 8.9881 93.0818 7.79861L93.083 7.798Z" fill="white"/>
<path d="M104.597 0.663387C104.689 0.657832 104.757 0.649807 104.825 0.650424C107.036 0.663387 109.247 0.662152 111.457 0.69672C112.612 0.714621 113.705 0.982519 114.629 1.74239C115.702 2.62509 116.183 3.80471 116.264 5.16395C116.35 6.60467 116.074 7.96145 115.237 9.16637C114.731 9.89414 114.056 10.4052 113.256 10.7589C113.047 10.8515 112.834 10.9342 112.586 11.0367C113.87 13.1527 115.147 15.2577 116.45 17.4045H115.926C114.492 17.4045 113.058 17.3971 111.623 17.4113C111.386 17.4138 111.276 17.3311 111.169 17.1305C110.089 15.0978 108.998 13.07 107.909 11.0417C107.858 10.9466 107.802 10.854 107.737 10.7423C107.458 12.9719 107.181 15.1749 106.903 17.3903H102.387C103.123 11.8188 103.858 6.25776 104.597 0.664004L104.597 0.663387ZM108.628 4.12384C108.456 5.42814 108.281 6.75837 108.102 8.11021C108.644 8.11021 109.17 8.11515 109.694 8.10897C111.25 8.09107 111.96 6.92319 111.796 5.55592C111.698 4.74173 111.15 4.201 110.339 4.13248C109.787 4.08557 109.229 4.12322 108.629 4.12322L108.628 4.12384Z" fill="white"/>
<path d="M153.317 0.688096C153.138 2.14487 152.963 3.58929 152.783 5.03372C152.553 6.8874 152.338 8.74355 152.081 10.5935C151.949 11.5361 151.805 12.4861 151.551 13.3997C151.063 15.1608 149.88 16.3311 148.232 17.0286C146.689 17.6823 145.066 17.7799 143.424 17.6163C142.132 17.4879 140.905 17.128 139.824 16.3737C138.317 15.3231 137.447 13.8805 137.465 12.0151C137.477 10.8145 137.633 9.61268 137.776 8.41763C138.023 6.34358 138.31 4.27447 138.58 2.20289C138.646 1.69611 138.712 1.18932 138.781 0.667726H143.289C143.182 1.47142 143.077 2.264 142.971 3.0572C142.681 5.23742 142.385 7.41641 142.107 9.59786C142.037 10.1442 141.987 10.6985 141.996 11.2485C142.014 12.3571 142.626 13.0898 143.695 13.3503C144.469 13.5386 145.238 13.5095 145.986 13.2373C146.786 12.946 147.246 12.3219 147.417 11.5164C147.602 10.6448 147.719 9.7565 147.837 8.87195C148.119 6.76148 148.384 4.64916 148.655 2.53746C148.726 1.98931 148.795 1.44179 148.861 0.893032C148.877 0.754762 148.886 0.645504 149.077 0.646739C150.461 0.654146 151.845 0.652294 153.229 0.654146C153.247 0.654146 153.265 0.667726 153.316 0.688096H153.317Z" fill="white"/>
<path d="M44.8866 17.3825C44.6452 16.5443 44.3856 15.7023 44.1656 14.8492C44.0898 14.5554 43.9591 14.485 43.6762 14.4875C42.0527 14.5011 40.4292 14.5005 38.8064 14.4875C38.5669 14.4856 38.4581 14.5659 38.364 14.7776C38.0072 15.5844 37.635 16.3838 37.2574 17.1807C37.2147 17.2714 37.1047 17.3936 37.0246 17.3942C35.4329 17.4066 33.8406 17.4035 32.2129 17.4035C32.2685 17.2794 32.3088 17.1801 32.3559 17.0844C34.9906 11.6906 37.6259 6.29747 40.2569 0.902477C40.3394 0.733344 40.4188 0.640135 40.6296 0.64137C42.1034 0.651863 43.5778 0.649394 45.0516 0.643839C45.2385 0.643221 45.3241 0.686431 45.376 0.890749C46.7667 6.35303 48.1665 11.8128 49.5651 17.2733C49.5725 17.3017 49.5755 17.3313 49.5841 17.3825H44.8866ZM43.2362 11.0209C42.9338 8.98015 42.6344 6.96475 42.3295 4.90798C41.5902 6.97401 40.8685 8.98941 40.1408 11.0209H43.2362Z" fill="white"/>
<path d="M66.1344 17.3875C66.2114 16.7819 66.2859 16.1961 66.3611 15.6109C66.6104 13.669 66.8597 11.7276 67.1102 9.78569C67.3595 7.85423 67.6106 5.92278 67.8599 3.99132C67.9894 2.98578 68.1251 1.98085 68.2394 0.973456C68.2675 0.724693 68.3402 0.640744 68.6017 0.641361C70.8521 0.651237 73.1024 0.635188 75.3522 0.646916C76.3958 0.652472 77.4095 0.797532 78.3187 1.39382C79.3757 2.08702 79.9923 3.07466 80.2342 4.2944C80.5623 5.94809 80.3821 7.55362 79.644 9.07891C78.8747 10.669 77.5946 11.5949 75.8746 11.7721C74.523 11.911 73.1532 11.8739 71.7912 11.9141C71.6629 11.9178 71.534 11.9141 71.3727 11.9141C71.1289 13.7412 70.8869 15.5572 70.6425 17.3875H66.1338H66.1344ZM72.3735 4.19811C72.189 5.58204 72.0057 6.95486 71.826 8.29806C72.6405 8.29806 73.4153 8.32954 74.1858 8.28201C74.4846 8.26349 74.8084 8.12028 75.0595 7.94374C75.7817 7.43696 75.9724 6.66906 75.9541 5.82895C75.9339 4.90551 75.4225 4.28699 74.5206 4.20922C73.8216 4.14934 73.1134 4.19749 72.3735 4.19749V4.19811Z" fill="white"/>
<path d="M156.462 0.649712H156.794C159.024 0.64786 161.255 0.637367 163.486 0.647243C164.55 0.652181 165.59 0.784896 166.507 1.40834C167.633 2.17377 168.25 3.25832 168.444 4.59102C168.634 5.89286 168.538 7.17864 168.092 8.42369C167.392 10.3786 166.03 11.565 163.975 11.7767C162.633 11.9156 161.273 11.8749 159.92 11.9138C159.802 11.9175 159.683 11.9138 159.544 11.9138C159.301 13.7397 159.06 15.5501 158.817 17.3816H154.305C155.023 11.8095 155.74 6.24409 156.461 0.649095L156.462 0.649712ZM160.519 4.20399C160.346 5.5657 160.171 6.94593 160 8.29221C160.81 8.29221 161.603 8.29962 162.397 8.28604C162.559 8.28295 162.728 8.21875 162.881 8.15147C163.736 7.77493 164.237 6.77371 164.121 5.69471C164.027 4.82867 163.59 4.30275 162.738 4.2188C162.01 4.1472 161.27 4.20399 160.518 4.20399H160.519Z" fill="white"/>
<path d="M56.2114 11.9143C55.9676 13.7445 55.7256 15.5612 55.4818 17.3889H50.9707C51.6899 11.8093 52.4066 6.24583 53.1282 0.647139H53.4893C55.7097 0.645287 57.9302 0.638497 60.1506 0.645287C60.9694 0.647757 61.7845 0.721212 62.5446 1.0638C63.9444 1.69466 64.7491 2.81687 65.0455 4.30388C65.3748 5.95572 65.2074 7.56495 64.4613 9.08839C63.686 10.6729 62.3998 11.5927 60.681 11.7723C59.3587 11.91 58.0188 11.8735 56.6868 11.9137C56.5383 11.918 56.3898 11.9137 56.2102 11.9137L56.2114 11.9143ZM56.6745 8.29087C57.486 8.29087 58.2809 8.31741 59.0728 8.27606C59.3428 8.26186 59.641 8.12791 59.8634 7.96248C60.684 7.35199 60.8557 6.47423 60.7341 5.51683C60.6437 4.80635 60.2013 4.35265 59.5213 4.26191C58.7966 4.16561 58.0561 4.18845 57.3216 4.17796C57.2617 4.17734 57.1566 4.31129 57.1462 4.39215C56.9813 5.69646 56.8285 7.002 56.6745 8.29087Z" fill="white"/>
<path d="M8.52863 16.6701C4.5167 16.6769 1.21354 13.3461 1.20499 9.28504C1.19643 5.20978 4.49287 1.87341 8.52619 1.87402C12.5736 1.87402 15.8254 5.15114 15.8633 9.26776C15.9005 13.3041 12.5723 16.6633 8.52802 16.6701H8.52863ZM10.8059 14.6455C11.9082 14.6572 12.8229 13.735 12.8394 12.5936C12.8565 11.4412 11.9155 10.4986 10.7485 10.498C9.65412 10.498 8.74249 11.4301 8.72293 12.5696C8.70338 13.6924 9.6474 14.6325 10.8059 14.6449V14.6455ZM6.15117 10.5097C4.98962 10.5208 4.06027 11.4307 4.06882 12.5473C4.07738 13.6844 5.01162 14.6553 6.10045 14.659C7.26505 14.6634 8.1999 13.7208 8.18402 12.5591C8.16813 11.4159 7.25833 10.4986 6.15178 10.5091L6.15117 10.5097ZM4.69145 10.1696C5.81266 10.1801 6.72919 9.27578 6.74263 8.14555C6.75668 6.97581 5.85116 6.05977 4.66884 6.04743C3.57207 6.03632 2.64454 6.9505 2.63232 8.05605C2.61888 9.23566 3.51768 10.1579 4.69145 10.169V10.1696ZM12.2179 6.04805C11.0552 6.06409 10.16 6.97952 10.1698 8.14246C10.1796 9.28442 11.12 10.1955 12.2754 10.1832C13.4064 10.1715 14.2893 9.2227 14.2704 8.03938C14.2526 6.93631 13.3214 6.032 12.2173 6.04743L12.2179 6.04805ZM8.52435 7.34618C9.67551 7.34618 10.5847 6.42705 10.5835 5.26534C10.5823 4.12461 9.67367 3.21598 8.52985 3.21166C7.39642 3.20734 6.48356 4.12955 6.48784 5.27398C6.49211 6.42952 7.39336 7.34618 8.52374 7.34618H8.52435Z" fill="white"/>
<path d="M27.9135 0.647579C27.3507 4.91111 26.7941 9.12649 26.2332 13.3783H31.3828C31.3113 13.9412 31.2472 14.4672 31.1781 14.9925C31.0828 15.719 30.9795 16.4443 30.8916 17.1721C30.8708 17.3461 30.8146 17.4085 30.6337 17.4079C27.5371 17.4023 24.4411 17.4035 21.3444 17.4029C21.3065 17.4029 21.2681 17.3937 21.1941 17.3838C21.2687 16.7998 21.3408 16.2264 21.4165 15.6529C21.6664 13.7622 21.9176 11.8715 22.1681 9.9808C22.4388 7.9407 22.7094 5.90122 22.9801 3.86112C23.1078 2.8957 23.2435 1.93151 23.3553 0.964242C23.3822 0.730294 23.4396 0.638937 23.692 0.641406C25.0063 0.654369 26.3206 0.647579 27.6348 0.647579H27.9147H27.9135Z" fill="white"/>
<path d="M0.359102 17.3992H-0.000175476V0.664795H17.0625V17.3917H16.7374V1.01047H0.359102V17.3992Z" fill="white"/>
<path fill-rule="evenodd" clip-rule="evenodd" d="M0.00878906 18.2213V19.7221H1.21349V19.4951H0.372619V18.2213H0.00878906ZM2.10967 18.2213L1.46497 19.7221H1.85732L1.96967 19.4104H2.64202L2.7535 19.7221H3.1182L2.4735 18.2213H2.10967ZM2.55819 19.1555H2.0535L2.30584 18.5618L2.55819 19.1555ZM3.5382 18.2213V19.7221H3.90289V19.1555H4.01438C4.26673 19.1555 4.37907 19.1555 4.49055 19.1275C4.71525 19.0708 4.85525 18.9293 4.85525 18.7032C4.85525 18.505 4.71525 18.3348 4.51907 18.278C4.37907 18.2213 4.23821 18.2213 3.9582 18.2213H3.5382ZM3.90289 18.9293V18.4762H4.01438C4.21055 18.4762 4.29438 18.4762 4.35055 18.505C4.43438 18.533 4.49055 18.6185 4.49055 18.7032C4.49055 18.7879 4.43438 18.8726 4.3229 18.9014C4.26673 18.9293 4.21055 18.9293 4.01438 18.9293H3.90289ZM5.27525 18.2213V19.7221H5.63908V19.1555H5.75143C6.00378 19.1555 6.11526 19.1555 6.2276 19.1275C6.4523 19.0708 6.5923 18.9293 6.5923 18.7032C6.5923 18.505 6.47995 18.3348 6.25526 18.278C6.11526 18.2213 6.00378 18.2213 5.72377 18.2213H5.27525ZM5.63908 18.9293V18.4762H5.77908C5.9476 18.4762 6.03143 18.4762 6.11526 18.505C6.17143 18.533 6.2276 18.6185 6.2276 18.7032C6.2276 18.7879 6.17143 18.8726 6.0876 18.9014C6.00378 18.9293 5.9476 18.9293 5.75143 18.9293H5.63908ZM8.69318 18.9573V19.1555H9.05701V19.4104C8.94466 19.4671 8.80553 19.4951 8.66466 19.4951C8.357 19.4951 8.18849 19.3257 8.18849 18.9861C8.18849 18.6465 8.357 18.4483 8.66466 18.4483C8.86084 18.4483 9.00084 18.533 9.02936 18.7032H9.33701C9.33701 18.5618 9.30936 18.4762 9.22553 18.3915C9.08553 18.278 8.88935 18.1934 8.63701 18.1934C8.13231 18.1934 7.79614 18.505 7.79614 18.9861C7.79614 19.4671 8.13231 19.75 8.66466 19.75C8.91701 19.75 9.14084 19.6933 9.36553 19.5798V18.9573H8.69318ZM9.89788 18.2213V19.7221H10.2617V19.1555H10.5141L10.9064 19.7221H11.3264L10.8779 19.0987C11.1026 19.014 11.2141 18.8726 11.2141 18.6744C11.2141 18.505 11.1302 18.3636 10.9617 18.3069C10.8217 18.2501 10.6817 18.2213 10.3455 18.2213H9.89788ZM10.2617 18.9014V18.4762H10.3455C10.5979 18.4762 10.6541 18.4762 10.7379 18.505C10.7941 18.533 10.8502 18.6185 10.8502 18.6744C10.8502 18.7879 10.7941 18.8447 10.6817 18.8726C10.6255 18.9014 10.5702 18.9014 10.3741 18.9014H10.2617ZM12.4188 18.1934C12.1949 18.1934 11.9988 18.2501 11.8302 18.3636C11.6626 18.505 11.5788 18.7312 11.5788 18.9573C11.5788 19.4392 11.9149 19.75 12.4188 19.75C12.6435 19.75 12.8673 19.6933 13.0073 19.5798C13.1758 19.4392 13.2873 19.2402 13.2873 18.9861C13.2873 18.505 12.9511 18.1934 12.4188 18.1934ZM12.4188 18.4483C12.7273 18.4483 12.8949 18.6465 12.8949 18.9861C12.8949 19.2969 12.7273 19.5239 12.4188 19.5239C12.1111 19.5239 11.9426 19.2969 11.9426 18.9573C11.9426 18.6465 12.1388 18.4483 12.4188 18.4483ZM13.7358 18.2213V19.0987C13.7358 19.2969 13.7358 19.3825 13.7911 19.4671C13.9035 19.6653 14.1558 19.75 14.4643 19.75C14.7997 19.75 15.052 19.6653 15.1643 19.4671C15.2205 19.3825 15.2205 19.2969 15.2205 19.0987V18.2213H14.8558V19.2969C14.7997 19.4392 14.6882 19.4951 14.4643 19.4951C14.2958 19.4951 14.1835 19.4392 14.1282 19.3537C14.0996 19.2969 14.0996 19.2402 14.0996 19.0987V18.2213H13.7358ZM15.8082 18.2213V19.7221H16.1729V19.1555H16.2852C16.5367 19.1555 16.649 19.1555 16.7614 19.1275C16.9852 19.0708 17.1252 18.9293 17.1252 18.7032C17.1252 18.505 17.0129 18.3348 16.789 18.278C16.649 18.2213 16.5367 18.2213 16.2567 18.2213H15.8082ZM16.1729 18.9293V18.4762H16.3129C16.4814 18.4762 16.5652 18.4762 16.6205 18.505C16.7052 18.533 16.7614 18.6185 16.7614 18.7032C16.7614 18.7879 16.7052 18.8726 16.6205 18.9014C16.5367 18.9293 16.4814 18.9293 16.2852 18.9293H16.1729Z" fill="white"/>
</svg>
