<svg width="114" height="24" viewBox="0 0 114 24" fill="none" xmlns="http://www.w3.org/2000/svg">
<path fill-rule="evenodd" clip-rule="evenodd" d="M56.7465 0.907471H72.729L70.8297 6.43121H66.1045L60.7305 22.0896H54.3374L59.7115 6.43121H54.847L56.7465 0.907471Z" fill="white"/>
<path fill-rule="evenodd" clip-rule="evenodd" d="M75.0427 0.956299H81.2967L73.9309 22.0904H67.6769L75.0427 0.956299Z" fill="white"/>
<path fill-rule="evenodd" clip-rule="evenodd" d="M101.128 0.956299H113.08L111.088 6.81624H105.483L104.324 10.0825H109.976L108.911 13.1564H103.259L102.101 16.3747H107.753L105.761 22.0904H93.7621L101.128 0.956299Z" fill="white"/>
<path fill-rule="evenodd" clip-rule="evenodd" d="M83.5263 0.907471H99.4625L97.563 6.43121H92.8379L87.464 22.0896H81.1172L86.4448 6.43121H81.5806L83.5263 0.907471Z" fill="white"/>
<path fill-rule="evenodd" clip-rule="evenodd" d="M51.4647 5.71191L52.0205 3.98263L51.3257 3.79058L50.7234 5.37569L51.4647 5.71191Z" fill="white"/>
<path fill-rule="evenodd" clip-rule="evenodd" d="M47.5756 20.4109L48.1315 18.6337L47.4369 18.4897L46.8346 20.0746L47.5756 20.4109Z" fill="white"/>
<path fill-rule="evenodd" clip-rule="evenodd" d="M7.13424 0.860107H15.612L10.7477 15.2217H16.9092L14.4538 22.0422H0C0.41693 20.6974 6.30038 3.30977 7.13424 0.860107ZM9.86761 4.27039H10.7477C9.21889 8.8335 5.97613 18.2957 5.97613 18.2957H12.925L12.6932 19.0644H4.77158L9.86761 4.27039Z" fill="white"/>
<path fill-rule="evenodd" clip-rule="evenodd" d="M27.7474 0.0921469C39.7921 -1.01268 40.9967 19.353 28.2108 22.6673C26.682 23.0515 25.1531 22.9555 23.6243 22.4271C13.1082 18.5846 17.2775 1.10077 27.7474 0.0921469ZM28.0717 3.21422C31.824 3.21422 34.4647 7.44113 33.7698 11.86C33.1213 16.3751 29.6467 19.6412 26.1724 19.6412C22.4198 19.6412 20.15 15.6545 20.6594 11.1876C21.169 6.72051 24.3655 3.21422 28.0717 3.21422ZM28.0717 4.03065C24.8751 4.03065 21.9102 7.10492 21.4468 11.2838C20.9372 15.5105 23.1147 18.8248 26.1724 18.8248C29.1833 18.8248 32.3799 15.9427 33.0286 11.7638C33.6309 7.58513 31.1755 4.03065 28.0717 4.03065ZM27.8863 7.53713C30.7584 7.53713 28.998 15.5105 26.1259 15.5105C23.2536 15.5105 25.1067 7.53713 27.8863 7.53713Z" fill="white"/>
<path fill-rule="evenodd" clip-rule="evenodd" d="M50.7712 0.0908862C52.6241 0.379093 54.1067 0.955505 55.0794 2.20434L52.4389 9.40911C51.6515 8.54449 50.447 8.25629 49.5204 8.25629C47.4356 8.25629 45.6752 9.98553 45.6752 12.195C45.6752 14.3564 47.3431 15.8935 49.3813 15.8935C49.8447 15.8935 50.4932 15.7975 50.9566 15.7013C51.0492 15.6533 51.1881 15.6053 51.3735 15.5573H51.4662C50.6323 17.7667 49.8447 20.2164 49.0108 22.4258C48.5475 22.618 48.177 22.762 47.5747 22.9062C47.1113 23.0022 46.7871 23.0983 46.2775 23.1463C45.7216 23.1945 45.3974 23.1945 44.8413 23.1463C44.1466 23.0502 43.7761 22.9062 43.1274 22.666C40.3478 21.7054 38.4483 18.8235 37.8924 15.3171C37.8462 14.8848 37.7998 14.6446 37.7998 14.1642C37.7535 13.5878 37.7535 13.2516 37.7998 12.6752C37.7998 12.195 37.7998 12.0988 37.8924 11.4746C37.9389 11.1384 37.9851 10.8501 38.0778 10.4659C38.4483 8.9289 38.819 7.82408 39.4212 6.67125C40.2089 5.18221 41.2281 3.83738 42.6178 2.63674C43.637 1.77212 45.9068 0.379093 48.3159 0.0908862C49.2888 -0.00511743 49.8447 -0.0531192 50.7712 0.0908862ZM51.0028 4.94201L50.8639 4.89401C48.9644 4.4136 47.3893 4.75 45.7679 6.04683C42.6178 8.40049 41.1816 13.0596 43.1738 16.6621C43.915 17.9589 45.7679 19.1117 47.2504 18.8715L47.3893 19.688C45.5825 19.9282 43.4054 18.6793 42.5251 17.0943C40.3015 13.1076 41.8303 8.01628 45.3047 5.37441C46.6017 4.36559 47.8989 3.93338 49.1497 3.88538C50.1227 3.88538 51.1881 4.12559 51.3271 4.22159L51.0028 4.94201Z" fill="white"/>
</svg>
