<svg xmlns:dc="http://purl.org/dc/elements/1.1/" xmlns:cc="http://creativecommons.org/ns#" xmlns:rdf="http://www.w3.org/1999/02/22-rdf-syntax-ns#" xmlns:svg="http://www.w3.org/2000/svg" xmlns="http://www.w3.org/2000/svg" viewBox="0 0 537.33331 233.56" height="233.56px" width="537.333px" xml:space="preserve" id="svg2" version="1.1"><metadata id="metadata8"><rdf:RDF><cc:Work rdf:about=""><dc:format>image/svg+xml</dc:format><dc:type rdf:resource="http://purl.org/dc/dcmitype/StillImage"/></cc:Work></rdf:RDF></metadata><defs id="defs6"/><g transform="matrix(1.3333333,0,0,-1.3333333,0,233.56)" id="g10"><g transform="scale(0.1)" id="g12"><path id="path14" style="fill: none; stroke: rgb(222, 197, 203); stroke-width: 10px; stroke-linecap: butt; stroke-linejoin: miter; stroke-miterlimit: 10; stroke-dasharray: none; stroke-opacity: 1;" d="M 4025.01,170.289 C 4025.01,79 3951,5 3859.71,5 H 170.313 C 79.0156,5 5,79 5,170.289 V 1581.43 c 0,91.29 74.0156,165.3 165.313,165.3 H 3859.71 c 91.29,0 165.3,-74.01 165.3,-165.3 z"/><path id="path16" style="fill: none; stroke: rgb(222, 197, 203); stroke-width: 15px; stroke-linecap: butt; stroke-linejoin: miter; stroke-miterlimit: 10; stroke-dasharray: none; stroke-opacity: 1;" d="m 1856.63,1577.74 71.35,21.45 15.95,-21.45 h 24.5 v 21.45 h 41.36 v -21.45 h 37.57 v 21.45 h 42.07 v -21.45 h 32.17 l 18.38,10.72 55.14,-10.72"/><path id="path18" style="fill: none; stroke: rgb(222, 197, 203); stroke-width: 15px; stroke-linecap: butt; stroke-linejoin: miter; stroke-miterlimit: 10; stroke-dasharray: none; stroke-opacity: 1;" d="m 1879.73,1411.62 h 294.08"/><path id="path20" style="fill: none; stroke: rgb(222, 197, 203); stroke-width: 15px; stroke-linecap: butt; stroke-linejoin: miter; stroke-miterlimit: 10; stroke-dasharray: none; stroke-opacity: 1;" d="m 1901.95,1390.17 c 0,0 68.15,78.11 -22.22,203.71"/><path id="path22" style="fill: none; stroke: rgb(222, 197, 203); stroke-width: 15px; stroke-linecap: butt; stroke-linejoin: miter; stroke-miterlimit: 10; stroke-dasharray: none; stroke-opacity: 1;" d="m 2164.61,1593.88 c 0,0 -67.38,-102.62 -13.77,-203.72"/><path id="path24" style="fill: none; stroke: rgb(222, 197, 203); stroke-width: 15px; stroke-linecap: butt; stroke-linejoin: miter; stroke-miterlimit: 10; stroke-dasharray: none; stroke-opacity: 1;" d="m 1271.51,1230.25 -1.48,190.87 12.94,12.17 v 36.46 h -17.46 v -17.21 l -14.49,0.07 -12.35,12.36 v 12.23 h -5.5 v -11.75 l -13.26,-13 -18.99,0.14 v 17.16 h -18.84 v -36.14 l 12.96,-12.58 v -327.51 c 0,-12.3 -10.05,-22.25 -22.36,-22.13 l -42.94,0.42 c -13.72,0 -24.85,11.14 -24.85,24.85 v 220.17 l -5.86,0.21 -0.22,56.42 6.08,-0.11 v 25.17 l -31.01,37.53 v 19.02 h -19.1 v -18.69 l -31.23,-37.71 -0.17,-24.98 h 6.41 v -56.55 l -6.24,-0.19 v -62.43 l -282.667,-0.1 v 56.16 l -43.934,37.77 -18.605,0.1 -43.781,-37.47 v -69.48 l -31.356,-13.31 v -139.31 c 0,-9.44 -7.637,-17.07 -17.059,-17.07 h -0.367 c -11.918,0 -21.59,9.66 -21.59,21.6 v 144.54 h -28.894 v -30.08 h -25.68 v 30.08 H 479.98 v -30.08 h -27.523 v 30.08 h -24.359"/><path id="path26" style="fill: none; stroke: rgb(222, 197, 203); stroke-width: 15px; stroke-linecap: butt; stroke-linejoin: miter; stroke-miterlimit: 10; stroke-dasharray: none; stroke-opacity: 1;" d="m 2374.96,1327.21 h 5.8 v 5.32 h 9.63 v -25.08 l 20.25,-0.49 v 4.83 h 29.42 v -4.34 h 8.2 v 44.84 l -40.51,35.2 3.85,3.39 170.06,-144.09 v -19.56 l 186.62,71.68 3.73,-7.83 -8.94,-2.98 6.71,-13.05 109.91,187.65 h 12.07 l -49.32,-86.6 43.28,-31.24 48.23,-0.54 -13.17,77.81 4.94,0.53 30.69,-178.05 56.42,7.66 -12.07,64.65 h 4.94 l 11.84,-63.08 206.31,33.34 -27.78,31.04 82.43,-0.93 26.87,-27.32 h 14.36 v -6.03 l -6.51,-0.47 143.58,-135.21 h 43.06 l 163.01,104.67 44.43,0.46 -55.07,-44.47 H 3730 l -4.16,10.21 47.69,-0.48 49.56,-105.12 -11.14,0.46 v -5.56 h 19.55 v -14.8 l -60.64,1.37"/><path id="path28" style="fill: none; stroke: rgb(222, 197, 203); stroke-width: 15px; stroke-linecap: butt; stroke-linejoin: miter; stroke-miterlimit: 10; stroke-dasharray: none; stroke-opacity: 1;" d="m 2374.96,1327.21 v -268.48 c 0,-16.88 -13.71,-30.55 -30.58,-30.51 l -117.82,0.34 c -25,1.08 -43.3,6.24 -50.47,21.26 -67.71,142.21 -63.55,397.02 -63.55,397.02"/><path id="path30" style="fill: none; stroke: rgb(222, 197, 203); stroke-width: 15px; stroke-linecap: butt; stroke-linejoin: miter; stroke-miterlimit: 10; stroke-dasharray: none; stroke-opacity: 1;" d="m 1974.45,1435.69 c 0,-22.28 -18.06,-40.32 -40.32,-40.32 -22.28,0 -40.32,18.04 -40.32,40.32 0,22.26 18.04,40.31 40.32,40.31 22.26,0 40.32,-18.05 40.32,-40.31 z"/><path id="path32" style="fill: none; stroke: rgb(222, 197, 203); stroke-width: 15px; stroke-linecap: butt; stroke-linejoin: miter; stroke-miterlimit: 10; stroke-dasharray: none; stroke-opacity: 1;" d="m 2069.04,1435.69 c 0,-22.28 -18.06,-40.32 -40.32,-40.32 -22.27,0 -40.33,18.04 -40.33,40.32 0,22.26 18.06,40.31 40.33,40.31 22.26,0 40.32,-18.05 40.32,-40.31 z"/><path id="path34" style="fill: none; stroke: rgb(222, 197, 203); stroke-width: 15px; stroke-linecap: butt; stroke-linejoin: miter; stroke-miterlimit: 10; stroke-dasharray: none; stroke-opacity: 1;" d="m 2163.71,1435.69 c 0,-22.28 -18.07,-40.32 -40.31,-40.32 -22.29,0 -40.33,18.04 -40.33,40.32 0,22.26 18.04,40.31 40.33,40.31 22.24,0 40.31,-18.05 40.31,-40.31 z"/><path id="path36" style="fill: none; stroke: rgb(222, 197, 203); stroke-width: 15px; stroke-linecap: butt; stroke-linejoin: miter; stroke-miterlimit: 10; stroke-dasharray: none; stroke-opacity: 1;" d="m 1996.24,1243.13 h 67.18 v 86.17 c 0,0 -8.13,30.15 -34.71,28.51 -26.57,-1.63 -32.47,-28.51 -32.47,-28.51 z"/><path id="path38" style="fill: none; stroke: rgb(222, 197, 203); stroke-width: 15px; stroke-linecap: butt; stroke-linejoin: miter; stroke-miterlimit: 10; stroke-dasharray: none; stroke-opacity: 1;" d="m 1944.55,1214.17 162.66,-1.11"/><path id="path40" style="fill: none; stroke: rgb(222, 197, 203); stroke-width: 15px; stroke-linecap: butt; stroke-linejoin: miter; stroke-miterlimit: 10; stroke-dasharray: none; stroke-opacity: 1;" d="m 421.477,1230.48 v 219.4 h -43.301 v -26.15 h -29.039 v 26.43 l -45.606,-0.28 v -223.8 h -17.027 v -102.19 c 0,-11.39 -9.246,-20.64 -20.652,-20.64 v -21.15 c 0,-10.78 -8.727,-19.51 -19.504,-19.51 h -98.7"/><path id="path42" style="fill: none; stroke: rgb(222, 197, 203); stroke-width: 15px; stroke-linecap: butt; stroke-linejoin: miter; stroke-miterlimit: 10; stroke-dasharray: none; stroke-opacity: 1;" d="m 1818.88,1029.64 c 22.84,0.37 43.33,14.11 52.22,35.16 26.37,62.36 76.42,203.97 77.56,382.04"/><path id="path44" style="fill: none; stroke: rgb(222, 197, 203); stroke-width: 15px; stroke-linecap: butt; stroke-linejoin: miter; stroke-miterlimit: 10; stroke-dasharray: none; stroke-opacity: 1;" d="m 1818.88,1029.64 -100.68,-1.14 c -17.52,-0.2 -31.83,13.96 -31.83,31.49 l 0.01,161.26 -0.02,16.69 h -59.1 v -30.06 h -36.58 v 30.06 h -56.1 v -30.06 h -34.04 v 30.06 h -56.1 v -30.06 h -37.19 v 30.06 h -49.8 v -30.06 h -33.42 v 30.06 h -47.91"/><path id="path46" style="fill: none; stroke: rgb(222, 197, 203); stroke-width: 15px; stroke-linecap: butt; stroke-linejoin: miter; stroke-miterlimit: 10; stroke-dasharray: none; stroke-opacity: 1;" d="m 3772.93,1100.78 0.1,-53.23 c 0.02,-10.88 8.88,-19.7 19.8,-19.66 l 95.24,0.33"/><path id="path48" style="fill: rgb(222, 197, 203); fill-opacity: 1; fill-rule: nonzero; stroke: none;" d="m 292.648,917.004 c -7.867,10.484 -20.972,17.695 -39.328,17.695 H 203.516 V 569 h 49.804 c 18.356,0 31.461,7.219 39.328,17.699 17.036,22.281 19,58.332 19,165.153 0,106.828 -1.964,142.871 -19,165.152 z m 42.594,-365.695 c -17.691,-19.008 -42.594,-32.77 -79.953,-32.77 H 147.152 v 466.625 h 108.137 c 37.359,0 62.262,-13.766 79.953,-32.769 32.117,-34.739 32.77,-85.856 32.77,-200.543 0,-114.68 -0.653,-165.813 -32.77,-200.543"/><path id="path50" style="fill: rgb(222, 197, 203); fill-opacity: 1; fill-rule: nonzero; stroke: none;" d="m 638.715,544.102 c -20.317,-20.313 -47.84,-30.801 -77.988,-30.801 -30.145,0 -57.016,10.488 -77.332,30.801 -19.008,19 -30.149,46.527 -30.149,80.609 v 360.453 h 56.359 V 621.43 c 0,-36.7 22.938,-57.66 51.122,-57.66 28.179,0 51.773,20.96 51.773,57.66 v 363.734 h 56.363 V 624.711 c 0,-34.082 -11.144,-61.609 -30.148,-80.609"/><path id="path52" style="fill: rgb(222, 197, 203); fill-opacity: 1; fill-rule: nonzero; stroke: none;" d="m 906.133,922.25 c -7.867,10.48 -19.664,17.691 -38.012,17.691 -18.351,0 -30.148,-7.211 -38.008,-17.691 -16.386,-22.285 -19.664,-59.645 -19.664,-170.398 0,-110.762 3.278,-148.114 19.664,-170.391 7.86,-10.492 19.657,-17.691 38.008,-17.691 18.348,0 30.145,7.199 38.012,17.691 16.383,22.277 19.664,59.629 19.664,170.391 0,110.753 -3.281,148.113 -19.664,170.398 z M 948.73,546.719 c -17.695,-19.66 -43.25,-33.418 -80.609,-33.418 -37.355,0 -62.258,13.758 -79.953,33.418 -32.113,35.402 -34.082,88.472 -34.082,205.133 0,116.652 1.969,169.742 34.082,205.128 17.695,19.661 42.598,33.426 79.953,33.426 37.359,0 62.914,-13.765 80.609,-33.426 32.114,-35.386 33.422,-88.476 33.422,-205.128 0,-116.661 -1.308,-169.731 -33.422,-205.133"/><path id="path54" style="fill: rgb(222, 197, 203); fill-opacity: 1; fill-rule: nonzero; stroke: none;" d="m 1309.21,518.539 v 332.27 l -74.05,-218.231 h -34.74 l -72.74,212.996 V 518.539 h -56.37 v 466.625 h 53.09 l 94.37,-259.523 93.71,259.523 h 53.09 V 518.539 h -56.36"/><path id="path56" style="fill: rgb(222, 197, 203); fill-opacity: 1; fill-rule: nonzero; stroke: none;" d="m 1607.44,922.25 c -7.87,10.48 -19.67,17.691 -38.02,17.691 -18.35,0 -30.14,-7.211 -38,-17.691 -16.39,-22.285 -19.67,-59.645 -19.67,-170.398 0,-110.762 3.28,-148.114 19.67,-170.391 7.86,-10.492 19.65,-17.691 38,-17.691 18.35,0 30.15,7.199 38.02,17.691 16.38,22.277 19.66,59.629 19.66,170.391 0,110.753 -3.28,148.113 -19.66,170.398 z m 42.59,-375.531 c -17.69,-19.66 -43.25,-33.418 -80.61,-33.418 -37.35,0 -62.25,13.758 -79.95,33.418 -32.11,35.402 -34.08,88.472 -34.08,205.133 0,116.652 1.97,169.742 34.08,205.128 17.7,19.661 42.6,33.426 79.95,33.426 37.36,0 62.92,-13.765 80.61,-33.426 32.12,-35.386 33.43,-88.476 33.43,-205.128 0,-116.661 -1.31,-169.731 -33.43,-205.133"/><path id="path58" style="fill: rgb(222, 197, 203); fill-opacity: 1; fill-rule: nonzero; stroke: none;" d="m 2551.31,543.852 c -18.34,-17.032 -40.63,-25.551 -72.09,-25.551 -37.34,0 -62.25,13.758 -79.94,33.418 -32.12,35.402 -34.08,88.472 -34.08,205.133 0,116.652 1.96,169.742 34.08,205.128 17.69,19.661 42.6,33.426 79.94,33.426 32.12,0 55.71,-9.832 74.06,-27.527 21.62,-20.973 32.77,-54.395 33.42,-93.059 h -56.36 c 0,20.313 -3.93,40.629 -14.41,53.739 -7.86,9.828 -19.02,16.382 -36.71,16.382 -18.34,0 -30.14,-7.211 -38.01,-17.691 -16.39,-22.285 -19.66,-59.645 -19.66,-170.398 0,-110.762 3.27,-148.114 19.66,-170.391 7.87,-10.492 19.67,-17.691 38.01,-17.691 17.69,0 28.85,7.199 36.71,17.031 10.48,13.109 15.07,32.769 15.07,53.078 h 56.36 c -0.66,-39.309 -13.1,-74.051 -36.05,-95.027"/><path id="path60" style="fill: rgb(222, 197, 203); fill-opacity: 1; fill-rule: nonzero; stroke: none;" d="m 2646.37,523.539 v 466.625 h 180.22 V 939.699 H 2702.73 V 783.063 h 106.82 V 732.602 H 2702.73 V 574 h 123.86 v -50.461 h -180.22"/><path id="path62" style="fill: rgb(222, 197, 203); fill-opacity: 1; fill-rule: nonzero; stroke: none;" d="M 3065.18,523.539 2944.59,842.703 V 523.539 h -56.37 v 466.625 h 52.42 L 3060.59,671 l -0.67,319.164 h 56.37 V 523.539 h -51.11"/><path id="path64" style="fill: rgb(222, 197, 203); fill-opacity: 1; fill-rule: nonzero; stroke: none;" d="m 3300.47,939.699 v -416.16 h -56.36 v 416.16 h -78.64 v 50.465 h 212.99 v -50.465 h -77.99"/><path id="path66" style="fill: rgb(222, 197, 203); fill-opacity: 1; fill-rule: nonzero; stroke: none;" d="m 3426.98,523.539 v 466.625 h 180.23 V 939.699 H 3483.34 V 783.063 h 106.83 V 732.602 H 3483.34 V 574 h 123.87 v -50.461 h -180.23"/><path id="path68" style="fill: rgb(222, 197, 203); fill-opacity: 1; fill-rule: nonzero; stroke: none;" d="m 3775,939.699 h -49.8 V 773.895 h 49.8 c 43.26,0 53.09,33.418 53.09,83.23 0,49.152 -9.83,82.574 -53.09,82.574 z m 65.54,-416.16 -64.23,200.539 H 3725.2 V 523.539 h -56.37 v 466.625 h 105.52 c 70.78,0 110.1,-30.809 110.1,-133.039 0,-64.883 -15.73,-102.891 -56.36,-121.906 l 71.43,-211.68 h -58.98"/><path id="path70" style="fill: rgb(222, 197, 203); fill-opacity: 1; fill-rule: nonzero; stroke: none;" d="m 219.68,223.648 c -6.516,-5.898 -15.508,-9.308 -27.285,-9.308 -12.098,0 -22.637,3.719 -29.461,10.851 -13.024,13.34 -15.5,25.739 -15.5,102.008 0,76.27 2.476,88.68 15.5,102.02 6.824,7.133 17.363,10.84 29.461,10.84 13.015,0 22.324,-4.028 29.136,-10.84 8.996,-9.309 12.715,-23.571 12.715,-39.379 h -12.398 c 0,12.09 -2.485,24.488 -9.922,31.93 -4.344,4.339 -10.852,7.128 -19.531,7.128 -8.997,0 -16.125,-2.789 -20.778,-7.75 -9.922,-10.847 -11.781,-20.457 -11.781,-93.949 0,-73.48 1.859,-83.09 11.781,-93.937 4.653,-4.961 11.781,-7.75 20.778,-7.75 8.679,0 15.187,2.789 19.531,7.117 7.437,7.453 9.922,19.851 9.922,31.941 h 12.398 c 0,-16.742 -4.34,-31.941 -14.566,-40.922"/><path id="path72" style="fill: rgb(222, 197, 203); fill-opacity: 1; fill-rule: nonzero; stroke: none;" d="m 192.395,435.07 c -10.926,0 -20.106,-3.308 -25.848,-9.308 -11.449,-11.731 -14.113,-22.223 -14.113,-98.563 0,-76.328 2.664,-86.82 14.082,-98.508 5.773,-6.05 14.953,-9.351 25.879,-9.351 10.003,0 18.054,2.699 23.929,8.019 l 0.055,0.051 c 7.449,6.539 11.898,17.852 12.726,32.16 h -2.402 c -0.586,-10.242 -3.195,-22.422 -11.242,-30.468 -5.633,-5.633 -13.606,-8.602 -23.066,-8.602 -10.25,0 -18.7,3.23 -24.426,9.34 -11.543,12.621 -13.133,24.441 -13.133,97.359 0,72.922 1.59,84.75 13.09,97.332 5.769,6.149 14.219,9.367 24.469,9.367 9.46,0 17.433,-2.968 23.066,-8.589 8.047,-8.047 10.656,-20.227 11.242,-30.469 h 2.406 c -0.746,13.449 -4.57,24.07 -11.168,30.898 -6.257,6.262 -14.636,9.332 -25.546,9.332 z m 0,-225.73 c -13.68,0 -25.426,4.41 -33.075,12.398 -14.515,14.871 -16.886,29.653 -16.886,105.461 0,75.813 2.371,90.602 16.921,105.512 7.614,7.949 19.36,12.359 33.04,12.359 13.507,0 24.503,-4.148 32.671,-12.32 9.297,-9.621 14.18,-24.43 14.18,-42.91 v -5 h -22.398 v 5 c 0,9.101 -1.465,21.41 -8.457,28.398 -3.711,3.703 -9.246,5.66 -15.996,5.66 -7.418,0 -13.34,-2.136 -17.129,-6.168 -8.582,-9.378 -10.43,-18.218 -10.43,-90.531 0,-72.301 1.848,-81.14 10.473,-90.558 3.746,-4 9.668,-6.141 17.086,-6.141 6.75,0 12.285,1.969 15.996,5.672 6.992,6.988 8.457,19.297 8.457,28.398 v 5 h 22.398 v -5 c 0,-19.871 -5.613,-35.308 -16.242,-44.648 -7.766,-7.024 -18.063,-10.582 -30.609,-10.582"/><path id="path74" style="fill: rgb(222, 197, 203); fill-opacity: 1; fill-rule: nonzero; stroke: none;" d="m 323.52,294.648 h -19.844 c -8.371,0 -14.262,-2.168 -19.844,-7.449 -5.891,-5.57 -9.301,-16.121 -9.301,-28.211 0,-20.457 7.129,-34.109 23.875,-34.109 15.5,0 25.114,13.652 25.114,31.019 z m 0,-77.828 v 14.571 c -1.86,-4.332 -5.891,-8.68 -8.059,-10.532 -4.965,-4.039 -10.543,-6.519 -19.227,-6.519 -8.679,0 -16.742,3.101 -22.945,9.308 -5.578,5.891 -10.539,17.981 -10.539,35.34 0,14.883 4.34,27.602 12.711,35.34 7.754,7.141 16.121,10.242 28.836,10.242 h 19.223 v 30.391 c 0,19.219 -7.747,29.758 -23.872,29.758 -6.511,0 -11.789,-2.481 -15.507,-6.199 -5.887,-5.891 -7.75,-12.711 -7.75,-24.5 h -11.782 c 0,11.468 2.168,22.949 10.543,31.32 6.2,6.199 13.641,9.621 24.496,9.621 11.778,0 20.153,-3.422 25.735,-9 6.82,-6.82 9.922,-16.121 9.922,-30.691 V 216.82 H 323.52"/><path id="path76" style="fill: rgb(222, 197, 203); fill-opacity: 1; fill-rule: nonzero; stroke: none;" d="m 303.676,289.648 c -7.184,0 -11.781,-1.699 -16.41,-6.078 -4.77,-4.511 -7.735,-13.929 -7.735,-24.582 0,-19.316 6.352,-29.109 18.875,-29.109 13.895,0 20.114,13.07 20.114,26.019 v 33.75 z M 328.52,221.82 h 1.785 v 113.45 c 0,13.109 -2.532,21.23 -8.457,27.16 -5,5 -12.473,7.531 -22.2,7.531 -8.859,0 -15.324,-2.52 -20.96,-8.16 -5.352,-5.352 -8.235,-12.66 -8.918,-22.781 h 1.746 c 0.492,9.031 2.605,16.55 9.089,23.039 4.942,4.941 11.704,7.66 19.043,7.66 10.782,0 28.872,-4.52 28.872,-34.758 v -79.063 c 0,-0.058 0,-0.117 0,-0.168 z m -31.641,77.309 c -7.305,-0.969 -12.719,-3.59 -18.031,-8.481 -7.153,-6.609 -11.098,-17.859 -11.098,-31.66 0,-16.386 4.734,-27.226 9.168,-31.898 5.031,-5.031 11.742,-7.75 19.316,-7.75 3.371,0 6.227,0.39 8.829,1.281 -2.118,-0.492 -4.34,-0.742 -6.657,-0.742 -10.785,0 -28.875,5.082 -28.875,39.109 0,13.703 3.961,25.313 10.864,31.852 4.839,4.57 10.089,7.238 16.484,8.289 z m -0.645,-89.789 c -10.289,0 -19.441,3.719 -26.484,10.769 -7.66,8.09 -12,22.219 -12,38.879 0,16.614 5.082,30.473 14.316,39.012 8.801,8.109 18.442,11.57 32.231,11.57 h 14.223 v 25.391 c 0,22.199 -10.77,24.758 -18.872,24.758 -5.98,0 -9.808,-2.571 -11.972,-4.731 -4.641,-4.636 -6.285,-10.129 -6.285,-20.968 v -5 h -21.782 v 5 c 0,15.378 3.926,26.781 12.008,34.851 7.563,7.559 16.469,11.09 28.031,11.09 12.477,0 22.321,-3.52 29.27,-10.461 7.875,-7.879 11.387,-18.441 11.387,-34.23 V 211.82 H 318.52 v 5.078 c -6.532,-5.25 -13.387,-7.558 -22.286,-7.558"/><path id="path78" style="fill: rgb(222, 197, 203); fill-opacity: 1; fill-rule: nonzero; stroke: none;" d="m 420.547,364.41 c -19.844,0 -31.625,-12.09 -31.625,-31.621 V 216.82 h -11.781 v 155.66 h 11.781 v -16.441 c 0.933,2.793 3.719,7.133 5.269,8.68 6.825,7.453 16.434,10.242 27.594,10.242 V 364.41 h -1.238"/><path id="path80" style="fill: rgb(222, 197, 203); fill-opacity: 1; fill-rule: nonzero; stroke: none;" d="m 416.785,369.73 c -4.047,-0.371 -7.605,-1.23 -10.707,-2.582 3.262,1.133 6.844,1.84 10.707,2.122 z M 382.141,221.82 h 1.781 v 145.66 h -1.781 z m 11.781,-10 h -21.781 v 165.66 h 21.781 v -6.109 c 6.902,5.75 16.098,8.59 27.863,8.59 h 5 V 359.41 h -6.238 c -16.918,0 -26.625,-9.711 -26.625,-26.621 V 211.82"/><path id="path82" style="fill: rgb(222, 197, 203); fill-opacity: 1; fill-rule: nonzero; stroke: none;" d="m 463.938,226.738 c -6.821,6.832 -10.231,16.75 -10.231,29.461 v 106.66 h -20.152 v 9.621 h 20.152 v 47.739 h 11.781 V 372.48 h 28.528 v -9.621 H 465.488 V 255.578 c 0,-20.148 10.852,-28.219 30.078,-28.219 V 216.82 c -11.789,0 -22.949,1.239 -31.628,9.918"/><path id="path84" style="fill: rgb(222, 197, 203); fill-opacity: 1; fill-rule: nonzero; stroke: none;" d="m 467.477,230.281 c 6.035,-6.043 13.457,-7.941 23.089,-8.359 v 0.629 c -19.964,1.527 -30.078,12.621 -30.078,33.027 v 159.641 h -1.781 v -159.02 c 0,-11.379 2.949,-20.097 8.77,-25.918 z m 33.089,-18.461 h -5 c -12.347,0 -25.16,1.379 -35.168,11.391 h -0.003 c -7.754,7.769 -11.688,18.871 -11.688,32.988 v 101.66 h -20.152 v 19.621 h 20.152 v 47.739 h 21.781 V 377.48 h 28.528 V 357.859 H 470.488 V 255.578 c 0,-16.277 7.5,-23.219 25.078,-23.219 h 5 V 211.82"/><path id="path86" style="fill: rgb(222, 197, 203); fill-opacity: 1; fill-rule: nonzero; stroke: none;" d="m 573.367,357.281 c -3.719,4.028 -9.297,7.129 -16.734,7.129 -7.442,0 -13.028,-3.101 -16.75,-7.129 -8.059,-8.992 -8.988,-25.429 -8.988,-62.633 0,-37.207 0.929,-53.636 8.988,-62.628 3.722,-4.032 9.308,-7.141 16.75,-7.141 7.437,0 13.015,3.109 16.734,7.141 8.071,8.992 8.996,25.421 8.996,62.628 0,37.204 -0.925,53.641 -8.996,62.633 z m 8.996,-132.09 c -5.886,-6.5 -14.261,-10.851 -25.73,-10.851 -11.477,0 -19.848,4.351 -25.738,10.851 -9.301,10.239 -11.786,28.84 -11.786,69.457 0,40.622 2.485,59.211 11.786,69.454 5.89,6.507 14.261,10.859 25.738,10.859 11.469,0 19.844,-4.352 25.73,-10.859 9.301,-10.243 11.782,-28.832 11.782,-69.454 0,-40.617 -2.481,-59.218 -11.782,-69.457"/><path id="path88" style="fill: rgb(222, 197, 203); fill-opacity: 1; fill-rule: nonzero; stroke: none;" d="m 556.633,359.41 c -6.59,0 -10.75,-3.012 -13.078,-5.531 -6.899,-7.688 -7.66,-24.777 -7.66,-59.231 0,-34.457 0.761,-51.539 7.714,-59.289 2.274,-2.468 6.434,-5.48 13.024,-5.48 6.582,0 10.734,3.012 13.058,5.531 6.911,7.699 7.672,24.781 7.672,59.238 0,34.411 -0.761,51.5 -7.691,59.262 -2.332,2.52 -6.484,5.5 -13.039,5.5 z m 0,-139.531 c -7.965,0 -15.223,3.109 -20.426,8.75 -9.387,10.48 -10.312,27.281 -10.312,66.019 0,38.743 0.925,55.543 10.261,65.973 10.524,11.359 30.461,11.32 40.887,0.059 l 0.047,-0.059 c 9.348,-10.422 10.273,-27.23 10.273,-65.973 0,-38.738 -0.925,-55.546 -10.273,-65.968 -5.25,-5.692 -12.5,-8.801 -20.457,-8.801 z m 0,150.082 c -9.09,0 -16.5,-3.102 -22.031,-9.223 -7.844,-8.617 -10.493,-25.297 -10.493,-66.09 0,-40.796 2.649,-57.476 10.485,-66.097 5.543,-6.11 12.957,-9.211 22.039,-9.211 9.086,0 16.492,3.101 22.023,9.211 h 0.004 c 7.84,8.621 10.485,25.301 10.485,66.097 0,40.793 -2.645,57.473 -10.485,66.09 -5.531,6.121 -12.941,9.223 -22.027,9.223 z m 0,-160.621 c -11.86,0 -22.039,4.32 -29.445,12.488 -11.055,12.172 -13.079,34.07 -13.079,72.82 0,38.75 2.024,60.641 13.082,72.813 7.399,8.168 17.579,12.5 29.442,12.5 11.863,0 22.043,-4.332 29.441,-12.512 11.051,-12.16 13.071,-34.051 13.071,-72.801 0,-38.738 -2.02,-60.648 -13.075,-72.82 v 0 C 578.672,213.66 568.492,209.34 556.633,209.34"/><path id="path90" style="fill: rgb(222, 197, 203); fill-opacity: 1; fill-rule: nonzero; stroke: none;" d="m 640.32,226.738 c -6.199,6.211 -10.226,14.891 -10.226,29.461 v 181.383 h 11.781 V 255.578 c 0,-18.297 8.684,-28.219 26.973,-28.219 V 216.82 c -10.535,0 -20.774,2.168 -28.528,9.918"/><path id="path92" style="fill: rgb(222, 197, 203); fill-opacity: 1; fill-rule: nonzero; stroke: none;" d="M 635.094,432.582 V 256.199 c 0,-11.871 2.703,-19.859 8.761,-25.918 4.879,-4.871 11.305,-7.551 19.993,-8.261 v 0.582 c -17.446,1.808 -26.973,13.359 -26.973,32.976 V 432.582 Z M 673.848,211.82 h -5 c -13.91,0 -24.399,3.719 -32.063,11.391 -7.976,7.98 -11.691,18.461 -11.691,32.988 v 186.383 h 21.781 V 255.578 c 0,-16.058 6.777,-23.219 21.973,-23.219 h 5 V 211.82"/><path id="path94" style="fill: rgb(222, 197, 203); fill-opacity: 1; fill-rule: nonzero; stroke: none;" d="m 745.109,357.281 c -3.722,4.028 -9.308,7.129 -16.75,7.129 -7.441,0 -13.015,-3.101 -16.738,-7.129 -7.441,-8.062 -8.68,-22.32 -8.992,-52.711 h 51.469 c -0.309,30.391 -1.547,44.649 -8.989,52.711 z m -42.48,-62.633 c 0,-37.207 1.238,-53.636 9.301,-62.628 3.718,-4.032 9.613,-7.141 17.054,-7.141 6.204,0 12.711,1.859 17.051,6.211 5.582,5.262 8.063,13.629 8.063,25.109 h 11.468 c 0,-15.5 -3.41,-24.179 -10.847,-31.937 -6.516,-6.512 -15.813,-9.922 -25.735,-9.922 -11.472,0 -20.156,4.351 -26.043,10.851 -9.308,10.239 -12.097,28.84 -12.097,69.457 0,40.622 2.48,59.211 11.785,69.454 5.887,6.507 14.262,10.859 25.73,10.859 11.477,0 19.844,-4.352 25.739,-10.859 9.3,-10.243 11.781,-28.832 11.781,-69.454 h -63.25"/><path id="path96" style="fill: rgb(222, 197, 203); fill-opacity: 1; fill-rule: nonzero; stroke: none;" d="m 707.691,309.57 h 41.34 c -0.383,25.321 -1.773,38.012 -7.601,44.321 -2.328,2.519 -6.489,5.519 -13.071,5.519 -6.578,0 -10.738,-3.012 -13.066,-5.531 -5.82,-6.297 -7.211,-18.988 -7.602,-44.309 z m 20.668,60.391 c -9.086,0 -16.5,-3.102 -22.019,-9.211 -7.848,-8.629 -10.496,-25.309 -10.496,-66.102 0,-40.027 2.824,-57.328 10.797,-66.097 5.461,-6.02 13.183,-9.211 22.343,-9.211 8.864,0 16.743,3.012 22.2,8.461 5.105,5.32 8.523,11.328 9.242,23.398 h -1.488 c -0.723,-10.64 -3.84,-18.437 -9.469,-23.738 -4.774,-4.781 -12.274,-7.582 -20.485,-7.582 -8.046,0 -15.601,3.191 -20.73,8.75 -9.582,10.691 -10.625,29.199 -10.625,66.019 v 9.973 c 0.316,30.848 1.437,46.418 10.316,56.051 10.434,11.277 30.418,11.25 40.832,0.008 l 0.008,-0.008 c 8.883,-9.633 10,-25.211 10.313,-56.051 l 0.047,-4.973 h 1.718 c -0.215,37.172 -2.957,52.832 -10.468,61.09 -5.536,6.121 -12.95,9.223 -22.036,9.223 z m 0.625,-160.621 c -12.066,0 -22.351,4.32 -29.75,12.488 -10.011,11.012 -13.39,29.391 -13.39,72.82 0,38.75 2.023,60.641 13.082,72.813 7.387,8.168 17.566,12.5 29.433,12.5 11.86,0 22.039,-4.332 29.446,-12.5 11.05,-12.172 13.074,-34.063 13.074,-72.813 v -5 h -63.242 c 0.113,-32.039 1.441,-46.957 8.015,-54.289 1.86,-2.007 6.129,-5.48 13.332,-5.48 5.579,0 10.504,1.73 13.516,4.75 4.473,4.211 6.598,11.25 6.598,21.57 v 5 h 21.468 v -5 c 0,-16.09 -3.543,-26.34 -12.242,-35.398 -7.418,-7.41 -17.804,-11.461 -29.34,-11.461"/><path id="path98" style="fill: rgb(222, 197, 203); fill-opacity: 1; fill-rule: nonzero; stroke: none;" d="m 845.543,364.41 c -19.844,0 -31.625,-12.09 -31.625,-31.621 V 216.82 h -11.785 v 155.66 h 11.785 v -16.441 c 0.926,2.793 3.719,7.133 5.273,8.68 6.817,7.453 16.43,10.242 27.59,10.242 V 364.41 h -1.238"/><path id="path100" style="fill: rgb(222, 197, 203); fill-opacity: 1; fill-rule: nonzero; stroke: none;" d="m 841.781,369.73 c -4.051,-0.371 -7.617,-1.242 -10.722,-2.582 3.265,1.122 6.851,1.84 10.722,2.122 z M 807.133,221.82 h 1.785 v 145.66 h -1.785 z m 11.785,-10 h -21.785 v 165.66 h 21.785 v -6.109 c 6.895,5.738 16.094,8.59 27.863,8.59 h 5 V 359.41 h -6.238 c -16.922,0 -26.625,-9.711 -26.625,-26.621 V 211.82"/><path id="path102" style="fill: rgb(222, 197, 203); fill-opacity: 1; fill-rule: nonzero; stroke: none;" d="m 874.359,216.82 v 155.66 h 11.786 V 216.82 Z m -2.789,197.508 v 17.371 h 17.368 V 414.328 H 871.57"/><path id="path104" style="fill: rgb(222, 197, 203); fill-opacity: 1; fill-rule: nonzero; stroke: none;" d="m 876.57,419.328 h 7.368 v 7.371 h -7.368 z m 17.368,-10 H 866.57 v 27.371 h 27.368 z M 879.359,221.82 h 1.786 v 145.66 h -1.786 z m 11.786,-10 h -21.786 v 165.66 h 21.786 V 211.82"/><path id="path106" style="fill: rgb(222, 197, 203); fill-opacity: 1; fill-rule: nonzero; stroke: none;" d="m 982.25,294.648 h -19.844 c -8.375,0 -14.261,-2.168 -19.843,-7.449 -5.891,-5.57 -9.301,-16.121 -9.301,-28.211 0,-20.457 7.129,-34.109 23.879,-34.109 15.496,0 25.109,13.652 25.109,31.019 z m 0,-77.828 v 14.571 c -1.859,-4.332 -5.891,-8.68 -8.059,-10.532 -4.961,-4.039 -10.543,-6.519 -19.226,-6.519 -8.68,0 -16.742,3.101 -22.942,9.308 -5.582,5.891 -10.543,17.981 -10.543,35.34 0,14.883 4.34,27.602 12.711,35.34 7.75,7.141 16.122,10.242 28.836,10.242 h 19.223 v 30.391 c 0,19.219 -7.746,29.758 -23.871,29.758 -6.516,0 -11.785,-2.481 -15.508,-6.199 -5.887,-5.891 -7.75,-12.711 -7.75,-24.5 H 923.34 c 0,11.468 2.168,22.949 10.543,31.32 6.199,6.199 13.64,9.621 24.496,9.621 11.777,0 20.152,-3.422 25.73,-9 6.825,-6.82 9.922,-16.121 9.922,-30.691 V 216.82 H 982.25"/><path id="path108" style="fill: rgb(222, 197, 203); fill-opacity: 1; fill-rule: nonzero; stroke: none;" d="m 962.406,289.648 c -7.179,0 -11.781,-1.699 -16.41,-6.078 -4.769,-4.511 -7.734,-13.929 -7.734,-24.582 0,-19.316 6.351,-29.109 18.879,-29.109 13.89,0 20.109,13.07 20.109,26.019 v 33.75 z M 987.25,221.82 h 1.781 v 113.45 c 0,13.109 -2.527,21.23 -8.457,27.16 -5,5 -12.469,7.531 -22.195,7.531 -8.856,0 -15.32,-2.52 -20.961,-8.16 -5.352,-5.352 -8.234,-12.66 -8.918,-22.781 h 1.742 c 0.496,9.031 2.61,16.55 9.094,23.039 4.941,4.941 11.703,7.66 19.043,7.66 10.781,0 28.871,-4.52 28.871,-34.758 v -79.063 c 0,-0.058 0,-0.117 0,-0.168 z m -31.641,77.309 c -7.304,-0.969 -12.718,-3.59 -18.031,-8.481 -7.152,-6.609 -11.098,-17.859 -11.098,-31.66 0,-16.386 4.735,-27.226 9.168,-31.898 5.032,-5.031 11.747,-7.75 19.317,-7.75 3.371,0 6.226,0.39 8.828,1.281 -2.117,-0.492 -4.34,-0.742 -6.652,-0.742 -10.789,0 -28.879,5.082 -28.879,39.109 0,13.703 3.961,25.313 10.863,31.852 4.84,4.57 10.09,7.238 16.484,8.289 z m -0.644,-89.789 c -10.285,0 -19.442,3.719 -26.485,10.769 -7.66,8.09 -12,22.219 -12,38.879 0,16.614 5.083,30.473 14.317,39.012 8.805,8.109 18.441,11.57 32.23,11.57 h 14.223 v 25.391 c 0,22.199 -10.77,24.758 -18.871,24.758 -5.981,0 -9.809,-2.571 -11.973,-4.731 -4.636,-4.636 -6.285,-10.129 -6.285,-20.968 v -5 H 918.34 v 5 c 0,15.378 3.926,26.781 12.008,34.851 7.562,7.559 16.468,11.09 28.031,11.09 12.476,0 22.32,-3.52 29.269,-10.461 7.875,-7.879 11.383,-18.441 11.383,-34.23 V 211.82 H 977.25 v 5.078 c -6.531,-5.25 -13.387,-7.558 -22.285,-7.558"/><path id="path110" style="fill: rgb(222, 197, 203); fill-opacity: 1; fill-rule: nonzero; stroke: none;" d="m 1162.34,295.891 v 11.16 h 57.98 v -11.16 h -57.98"/><path id="path112" style="fill: rgb(222, 197, 203); fill-opacity: 1; fill-rule: nonzero; stroke: none;" d="m 1167.34,300.891 h 47.98 v 1.16 h -47.98 z m 57.98,-10 h -67.98 v 21.16 h 67.98 v -21.16"/><path id="path114" style="fill: rgb(222, 197, 203); fill-opacity: 1; fill-rule: nonzero; stroke: none;" d="m 1459.95,223.648 c -6.51,-5.898 -15.51,-9.308 -27.28,-9.308 -12.1,0 -22.64,3.719 -29.46,10.851 -13.02,13.34 -15.51,25.739 -15.51,102.008 0,76.27 2.49,88.68 15.51,102.02 6.82,7.133 17.36,10.84 29.46,10.84 13.01,0 22.32,-4.028 29.14,-10.84 8.99,-9.309 12.71,-23.571 12.71,-39.379 h -12.4 c 0,12.09 -2.48,24.488 -9.92,31.93 -4.34,4.339 -10.85,7.128 -19.53,7.128 -9,0 -16.13,-2.789 -20.78,-7.75 -9.92,-10.847 -11.78,-20.457 -11.78,-93.949 0,-73.48 1.86,-83.09 11.78,-93.937 4.65,-4.961 11.78,-7.75 20.78,-7.75 8.68,0 15.19,2.789 19.53,7.117 7.44,7.453 9.92,19.851 9.92,31.941 h 12.4 c 0,-16.742 -4.34,-31.941 -14.57,-40.922"/><path id="path116" style="fill: rgb(222, 197, 203); fill-opacity: 1; fill-rule: nonzero; stroke: none;" d="m 1432.67,435.07 c -10.93,0 -20.11,-3.308 -25.85,-9.308 -11.45,-11.731 -14.11,-22.223 -14.11,-98.563 0,-76.328 2.66,-86.82 14.08,-98.508 5.77,-6.05 14.95,-9.351 25.88,-9.351 10,0 18.05,2.699 23.93,8.019 l 0.05,0.051 c 7.45,6.539 11.9,17.852 12.73,32.16 h -2.4 c -0.59,-10.242 -3.2,-22.422 -11.25,-30.468 -5.63,-5.633 -13.6,-8.602 -23.06,-8.602 -10.25,0 -18.7,3.23 -24.43,9.34 -11.54,12.621 -13.13,24.441 -13.13,97.359 0,72.922 1.59,84.75 13.09,97.332 5.77,6.149 14.22,9.367 24.47,9.367 9.46,0 17.43,-2.968 23.06,-8.589 8.05,-8.047 10.66,-20.227 11.25,-30.469 h 2.4 c -0.74,13.449 -4.57,24.07 -11.17,30.898 -6.25,6.262 -14.63,9.332 -25.54,9.332 z m 0,-225.73 c -13.68,0 -25.43,4.41 -33.08,12.398 -14.51,14.871 -16.88,29.653 -16.88,105.461 0,75.813 2.37,90.602 16.92,105.512 7.61,7.949 19.36,12.359 33.04,12.359 13.51,0 24.5,-4.148 32.67,-12.32 9.3,-9.621 14.18,-24.43 14.18,-42.91 v -5 h -22.4 v 5 c 0,9.101 -1.47,21.41 -8.46,28.398 -3.71,3.703 -9.24,5.66 -15.99,5.66 -7.42,0 -13.34,-2.136 -17.13,-6.168 -8.58,-9.378 -10.43,-18.218 -10.43,-90.531 0,-72.301 1.85,-81.14 10.47,-90.558 3.75,-4 9.67,-6.141 17.09,-6.141 6.75,0 12.28,1.969 15.99,5.672 6.99,6.988 8.46,19.297 8.46,28.398 v 5 h 22.4 v -5 c 0,-19.871 -5.61,-35.308 -16.24,-44.648 -7.77,-7.024 -18.07,-10.582 -30.61,-10.582"/><path id="path118" style="fill: rgb(222, 197, 203); fill-opacity: 1; fill-rule: nonzero; stroke: none;" d="m 1559.76,357.281 c -3.72,4.028 -9.3,7.129 -16.74,7.129 -7.44,0 -13.03,-3.101 -16.75,-7.129 -8.06,-8.992 -8.99,-25.429 -8.99,-62.633 0,-37.207 0.93,-53.636 8.99,-62.628 3.72,-4.032 9.31,-7.141 16.75,-7.141 7.44,0 13.02,3.109 16.74,7.141 8.06,8.992 8.99,25.421 8.99,62.628 0,37.204 -0.93,53.641 -8.99,62.633 z m 8.99,-132.09 c -5.89,-6.5 -14.26,-10.851 -25.73,-10.851 -11.48,0 -19.85,4.351 -25.74,10.851 -9.3,10.239 -11.78,28.84 -11.78,69.457 0,40.622 2.48,59.211 11.78,69.454 5.89,6.507 14.26,10.859 25.74,10.859 11.47,0 19.84,-4.352 25.73,-10.859 9.3,-10.243 11.78,-28.832 11.78,-69.454 0,-40.617 -2.48,-59.218 -11.78,-69.457"/><path id="path120" style="fill: rgb(222, 197, 203); fill-opacity: 1; fill-rule: nonzero; stroke: none;" d="m 1543.02,359.41 c -6.59,0 -10.75,-3.012 -13.08,-5.531 -6.9,-7.688 -7.66,-24.777 -7.66,-59.231 0,-34.457 0.76,-51.539 7.72,-59.289 2.27,-2.468 6.43,-5.48 13.02,-5.48 6.58,0 10.74,3.012 13.06,5.531 6.91,7.699 7.67,24.781 7.67,59.238 0,34.411 -0.76,51.5 -7.69,59.262 -2.33,2.52 -6.48,5.5 -13.04,5.5 z m 0,-139.531 c -7.97,0 -15.22,3.109 -20.43,8.75 -9.38,10.48 -10.31,27.281 -10.31,66.019 0,38.743 0.93,55.543 10.26,65.973 10.53,11.359 30.46,11.32 40.89,0.059 l 0.05,-0.059 c 9.34,-10.422 10.27,-27.23 10.27,-65.973 0,-38.738 -0.93,-55.546 -10.27,-65.968 -5.25,-5.692 -12.5,-8.801 -20.46,-8.801 z m 0,150.082 c -9.09,0 -16.5,-3.102 -22.03,-9.223 -7.85,-8.617 -10.49,-25.297 -10.49,-66.09 0,-40.796 2.64,-57.476 10.48,-66.097 5.54,-6.11 12.96,-9.211 22.04,-9.211 9.08,0 16.49,3.101 22.02,9.211 h 0.01 c 7.84,8.621 10.48,25.301 10.48,66.097 0,40.793 -2.64,57.473 -10.48,66.09 -5.53,6.121 -12.95,9.223 -22.03,9.223 z m 0,-160.621 c -11.86,0 -22.04,4.32 -29.45,12.488 -11.05,12.172 -13.07,34.07 -13.07,72.82 0,38.75 2.02,60.641 13.08,72.813 7.4,8.168 17.58,12.5 29.44,12.5 11.86,0 22.04,-4.332 29.44,-12.512 11.05,-12.16 13.07,-34.051 13.07,-72.801 0,-38.738 -2.02,-60.648 -13.07,-72.82 v 0 c -7.4,-8.168 -17.58,-12.488 -29.44,-12.488"/><path id="path122" style="fill: rgb(222, 197, 203); fill-opacity: 1; fill-rule: nonzero; stroke: none;" d="m 1670.74,357.281 c -3.72,4.028 -9.3,7.129 -16.12,7.129 -6.51,0 -12.09,-2.172 -16.44,-6.199 -5.27,-5.27 -8.06,-12.723 -8.06,-24.191 v -78.75 c 0,-11.469 2.79,-18.918 8.06,-24.18 4.35,-4.031 9.93,-6.211 16.44,-6.211 6.82,0 12.4,3.109 16.12,7.141 8.06,8.992 8.99,25.421 8.99,62.628 0,37.204 -0.93,53.641 -8.99,62.633 z m 8.99,-132.402 c -5.27,-5.891 -12.71,-10.539 -22.94,-10.539 -7.76,0 -13.33,1.558 -18.61,5.281 -2.79,1.848 -6.2,5.891 -8.06,9.289 v -77.191 h -11.78 V 372.48 h 11.78 v -12.718 c 1.55,3.41 5.58,7.437 8.06,9.297 5.28,4.031 11.17,5.902 18.61,5.902 8.68,0 16.74,-3.731 22.94,-10.551 9.3,-10.23 11.78,-29.14 11.78,-69.762 0,-40.617 -2.48,-59.539 -11.78,-69.769"/><path id="path124" style="fill: rgb(222, 197, 203); fill-opacity: 1; fill-rule: nonzero; stroke: none;" d="m 1654.62,359.41 c -5.18,0 -9.56,-1.64 -13.03,-4.859 -4.37,-4.379 -6.47,-10.942 -6.47,-20.531 v -78.75 c 0,-9.59 2.1,-16.149 6.59,-20.641 3.36,-3.109 7.74,-4.75 12.91,-4.75 6.39,0 10.54,3.473 12.45,5.531 6.9,7.699 7.66,24.781 7.66,59.238 0,34.411 -0.76,51.493 -7.69,59.274 -1.92,2.058 -6.06,5.488 -12.42,5.488 z m -8.95,-138.238 c 3.16,-1.281 6.65,-1.832 11.12,-1.832 7.48,0 13.95,2.988 19.22,8.871 l 0.02,0.027 c 7.84,8.621 10.48,25.383 10.48,66.41 0,41.024 -2.64,57.782 -10.48,66.403 -5.3,5.82 -11.96,8.91 -19.24,8.91 -3.21,0 -6.02,-0.379 -8.59,-1.191 9.1,1.89 19.48,-0.809 26.21,-8.09 l 0.06,-0.059 c 9.33,-10.43 10.26,-27.23 10.26,-65.973 0,-38.738 -0.93,-55.539 -10.26,-65.968 -7.43,-8.059 -19.2,-10.418 -28.8,-7.508 z m -22.33,-64.453 h 1.78 v 91.793 l 0.43,-0.793 c -0.29,2.363 -0.43,4.871 -0.43,7.551 v 78.75 c 0,0.941 0.02,1.859 0.06,2.75 l -0.06,-0.11 v 30.82 h -1.78 z m 11.78,-10 h -21.78 V 377.48 h 21.78 v -4.468 c 0.03,0.019 0.05,0.027 0.07,0.047 6.13,4.703 13.01,6.902 21.6,6.902 10.03,0 19.49,-4.332 26.64,-12.18 11.06,-12.179 13.08,-34.179 13.08,-73.133 0,-38.949 -2.02,-60.949 -13.07,-73.117 -7.14,-7.98 -16.35,-12.191 -26.65,-12.191 -8.8,0 -15.42,1.91 -21.49,6.191 -0.06,0.039 -0.12,0.078 -0.18,0.117 v -68.929"/><path id="path126" style="fill: rgb(222, 197, 203); fill-opacity: 1; fill-rule: nonzero; stroke: none;" d="m 1729.32,216.82 v 155.66 h 11.78 V 216.82 Z m -2.8,197.508 v 17.371 h 17.37 v -17.371 h -17.37"/><path id="path128" style="fill: rgb(222, 197, 203); fill-opacity: 1; fill-rule: nonzero; stroke: none;" d="m 1731.52,419.328 h 7.37 v 7.371 h -7.37 z m 17.37,-10 h -27.37 v 27.371 h 27.37 z M 1734.32,221.82 h 1.78 v 145.66 h -1.78 z m 11.78,-10 h -21.78 v 165.66 h 21.78 V 211.82"/><path id="path130" style="fill: rgb(222, 197, 203); fill-opacity: 1; fill-rule: nonzero; stroke: none;" d="m 1840.93,225.82 c -7.13,-7.129 -16.75,-11.48 -28.22,-11.48 -11.16,0 -19.84,4.039 -26.35,10.539 -9,8.992 -11.48,20.473 -11.48,33.18 h 11.79 c 0,-11.161 2.17,-19.528 8.99,-26.348 4.65,-4.652 10.85,-6.832 17.05,-6.832 8.06,0 14.89,2.793 19.85,7.75 4.96,5.281 8.05,12.723 8.05,22.019 0,7.133 -1.23,13.34 -4.64,18.911 -3.41,5.89 -9.31,10.242 -17.05,14.882 L 1800,299.922 c -9.61,5.887 -16.44,13.027 -19.22,18.289 -3.1,5.59 -4.03,11.789 -4.03,19.23 0,10.848 4.33,20.77 11.47,27.598 6.51,6.191 15.5,9.922 25.73,9.922 11.17,0 19.22,-3.109 26.05,-9.922 7.75,-7.758 10.54,-18.301 10.54,-33.187 h -11.78 c 0,13.339 -2.17,19.847 -7.75,25.75 -4.65,4.957 -10.85,6.808 -17.06,6.808 -7.44,0 -13.33,-2.172 -17.67,-6.512 -5.58,-5.269 -7.76,-13.328 -7.76,-20.457 0,-5.902 0.94,-10.863 3.42,-15.203 2.48,-4.027 7.75,-8.367 15.19,-13.019 l 18.91,-11.469 c 9.61,-5.898 16.44,-11.789 20.47,-18.918 4.34,-7.121 5.89,-15.812 5.89,-24.184 0,-11.16 -4.34,-21.699 -11.47,-28.828"/><path id="path132" style="fill: rgb(222, 197, 203); fill-opacity: 1; fill-rule: nonzero; stroke: none;" d="m 1780.03,253.059 c 0.71,-10.887 3.83,-18.61 9.86,-24.649 6.03,-6.012 13.71,-9.07 22.82,-9.07 9.6,0 18.13,3.461 24.68,10.012 6.27,6.269 10.01,15.73 10.01,25.296 0,8.571 -1.78,16.043 -5.16,21.59 -3.45,6.082 -9.22,11.364 -18.81,17.25 l -18.89,11.453 c -8.7,5.45 -14.04,10.098 -16.86,14.688 -2.86,4.992 -4.15,10.601 -4.15,17.812 0,9.719 3.39,18.5 9.32,24.09 5.18,5.199 12.32,7.879 21.11,7.879 8.39,0 15.55,-2.898 20.69,-8.398 5.82,-6.141 8.44,-12.981 8.99,-24.16 h 1.78 c -0.6,11.539 -3.36,19.058 -8.96,24.648 -5.93,5.93 -12.67,8.461 -22.5,8.461 -8.59,0 -16.5,-3.039 -22.29,-8.551 -6.3,-6.019 -9.92,-14.762 -9.92,-23.969 0,-7.48 1.01,-12.511 3.4,-16.812 2.11,-3.969 7.9,-10.59 17.46,-16.438 l 18.9,-11.472 c 8.4,-5.039 14.82,-9.809 18.78,-16.66 3.62,-5.899 5.33,-12.739 5.33,-21.411 0,-10.097 -3.26,-18.886 -9.42,-25.437 -6.14,-6.152 -14.22,-9.332 -23.49,-9.332 -7.92,0 -15.23,2.941 -20.59,8.293 -6.29,6.297 -9.55,14.098 -10.29,24.887 z m 32.68,-43.719 c -11.86,0 -21.91,4.039 -29.89,12 -11.59,11.609 -12.94,26.519 -12.94,36.719 v 5 h 21.79 v -5 c 0,-10.86 2.18,-17.469 7.52,-22.821 3.47,-3.457 8.27,-5.359 13.52,-5.359 6.56,0 12.2,2.18 16.31,6.293 4.28,4.547 6.6,10.976 6.6,18.476 0,6.75 -1.25,11.942 -3.92,16.301 -2.95,5.09 -8.26,8.949 -15.36,13.211 l -18.93,11.481 c -9.45,5.789 -17.51,13.539 -21.05,20.23 -3.18,5.719 -4.61,12.399 -4.61,21.57 0,11.918 4.74,23.297 13.01,31.207 7.67,7.293 18.04,11.313 29.2,11.313 12.4,0 21.8,-3.621 29.58,-11.391 8.3,-8.3 12,-19.629 12,-36.718 v -5 h -21.78 v 5 c 0,13.078 -2.25,17.929 -6.39,22.308 -3.27,3.488 -7.78,5.25 -13.41,5.25 -6.13,0 -10.75,-1.648 -14.15,-5.051 -3.97,-3.75 -6.28,-10.039 -6.28,-16.918 0,-5.39 0.87,-9.441 2.75,-12.722 1.85,-2.989 6.42,-6.828 13.5,-11.27 l 18.86,-11.418 c 11.13,-6.84 17.98,-13.222 22.22,-20.73 4.32,-7.082 6.54,-16.102 6.54,-26.653 0,-12.347 -4.71,-24.148 -12.94,-32.367 -8.46,-8.461 -19.44,-12.941 -31.75,-12.941"/><path id="path134" style="fill: rgb(222, 197, 203); fill-opacity: 1; fill-rule: nonzero; stroke: none;" d="m 1900.75,226.738 c -6.82,6.832 -10.23,16.75 -10.23,29.461 v 106.66 h -20.16 v 9.621 h 20.16 v 47.739 h 11.78 V 372.48 h 28.52 v -9.621 H 1902.3 V 255.578 c 0,-20.148 10.85,-28.219 30.07,-28.219 V 216.82 c -11.77,0 -22.94,1.239 -31.62,9.918"/><path id="path136" style="fill: rgb(222, 197, 203); fill-opacity: 1; fill-rule: nonzero; stroke: none;" d="m 1895.52,367.859 v -111.66 c 0,-11.379 2.95,-20.097 8.77,-25.918 6.03,-6.043 13.45,-7.941 23.08,-8.359 v 0.629 c -19.96,1.527 -30.07,12.621 -30.07,33.027 v 159.641 h -1.78 z m 41.85,-156.039 h -5 c -12.34,0 -25.15,1.379 -35.15,11.391 -7.77,7.758 -11.7,18.859 -11.7,32.988 v 101.66 h -20.16 v 19.621 h 20.16 v 47.739 h 21.78 V 377.48 h 28.53 V 357.859 H 1907.3 V 255.578 c 0,-16.277 7.5,-23.219 25.07,-23.219 h 5 V 211.82"/><path id="path138" style="fill: rgb(222, 197, 203); fill-opacity: 1; fill-rule: nonzero; stroke: none;" d="m 2010.19,357.281 c -3.73,4.028 -9.31,7.129 -16.75,7.129 -7.44,0 -13.02,-3.101 -16.74,-7.129 -7.44,-8.062 -8.68,-22.32 -9,-52.711 h 51.47 c -0.3,30.391 -1.54,44.649 -8.98,52.711 z m -42.49,-62.633 c 0,-37.207 1.25,-53.636 9.31,-62.628 3.72,-4.032 9.61,-7.141 17.05,-7.141 6.2,0 12.71,1.859 17.05,6.211 5.58,5.262 8.06,13.629 8.06,25.109 h 11.47 c 0,-15.5 -3.4,-24.179 -10.85,-31.937 -6.51,-6.512 -15.81,-9.922 -25.73,-9.922 -11.47,0 -20.15,4.351 -26.04,10.851 -9.31,10.239 -12.1,28.84 -12.1,69.457 0,40.622 2.48,59.211 11.78,69.454 5.89,6.507 14.27,10.859 25.74,10.859 11.47,0 19.84,-4.352 25.73,-10.859 9.31,-10.243 11.79,-28.832 11.79,-69.454 h -63.26"/><path id="path140" style="fill: rgb(222, 197, 203); fill-opacity: 1; fill-rule: nonzero; stroke: none;" d="m 1972.77,309.57 h 41.34 c -0.38,25.321 -1.78,38.012 -7.6,44.321 -2.33,2.519 -6.49,5.519 -13.07,5.519 -6.58,0 -10.74,-3.012 -13.07,-5.531 -5.82,-6.297 -7.21,-18.988 -7.6,-44.309 z m 20.67,60.391 c -9.09,0 -16.5,-3.102 -22.02,-9.211 -7.85,-8.629 -10.5,-25.309 -10.5,-66.102 0,-40.027 2.83,-57.328 10.8,-66.097 5.46,-6.02 13.18,-9.211 22.34,-9.211 8.86,0 16.75,3.012 22.2,8.461 5.11,5.32 8.53,11.328 9.24,23.398 h -1.49 c -0.72,-10.64 -3.83,-18.437 -9.46,-23.738 -4.77,-4.781 -12.27,-7.582 -20.49,-7.582 -8.04,0 -15.6,3.191 -20.73,8.75 -9.58,10.691 -10.62,29.199 -10.62,66.019 v 9.973 c 0.31,30.848 1.44,46.418 10.31,56.051 10.44,11.277 30.42,11.25 40.84,0.008 v -0.008 c 8.88,-9.633 10,-25.211 10.31,-56.051 l 0.05,-4.973 h 1.72 c -0.21,37.172 -2.96,52.832 -10.47,61.09 -5.53,6.121 -12.95,9.223 -22.03,9.223 z m 0.62,-160.621 c -12.06,0 -22.35,4.32 -29.75,12.488 -10.01,11.012 -13.39,29.391 -13.39,72.82 0,38.75 2.02,60.641 13.08,72.813 7.39,8.168 17.57,12.5 29.44,12.5 11.86,0 22.04,-4.332 29.44,-12.5 11.06,-12.172 13.08,-34.063 13.08,-72.813 v -5 h -63.25 c 0.12,-32.039 1.45,-46.957 8.02,-54.289 1.86,-2.007 6.13,-5.48 13.33,-5.48 5.58,0 10.51,1.73 13.52,4.75 4.47,4.211 6.59,11.25 6.59,21.57 v 5 h 21.47 v -5 c 0,-16.09 -3.54,-26.34 -12.24,-35.398 -7.41,-7.41 -17.8,-11.461 -29.34,-11.461"/><path id="path142" style="fill: rgb(222, 197, 203); fill-opacity: 1; fill-rule: nonzero; stroke: none;" d="m 2110.63,364.41 c -19.85,0 -31.64,-12.09 -31.64,-31.621 V 216.82 h -11.78 v 155.66 h 11.78 v -16.441 c 0.93,2.793 3.72,7.133 5.28,8.68 6.81,7.453 16.43,10.242 27.59,10.242 V 364.41 h -1.23"/><path id="path144" style="fill: rgb(222, 197, 203); fill-opacity: 1; fill-rule: nonzero; stroke: none;" d="m 2106.86,369.73 c -4.07,-0.371 -7.63,-1.242 -10.74,-2.589 3.27,1.129 6.86,1.847 10.74,2.129 z m -34.65,-147.91 h 1.78 v 145.66 h -1.78 z m 11.78,-10 h -21.78 v 165.66 h 21.78 v -6.128 c 6.89,5.687 16.27,8.609 27.87,8.609 h 5 V 359.41 h -6.23 c -16.93,0 -26.64,-9.711 -26.64,-26.621 V 211.82"/><path id="path146" style="fill: rgb(222, 197, 203); fill-opacity: 1; fill-rule: nonzero; stroke: none;" d="m 2139.43,216.82 v 155.66 h 11.79 V 216.82 Z m -2.78,197.508 v 17.371 h 17.36 v -17.371 h -17.36"/><path id="path148" style="fill: rgb(222, 197, 203); fill-opacity: 1; fill-rule: nonzero; stroke: none;" d="m 2141.65,419.328 h 7.36 v 7.371 h -7.36 z m 17.36,-10 h -27.36 v 27.371 h 27.36 z M 2144.43,221.82 h 1.79 v 145.66 h -1.79 z m 11.79,-10 h -21.79 v 165.66 h 21.79 V 211.82"/><path id="path150" style="fill: rgb(222, 197, 203); fill-opacity: 1; fill-rule: nonzero; stroke: none;" d="m 2247.32,294.648 h -19.84 c -8.37,0 -14.26,-2.168 -19.84,-7.449 -5.89,-5.57 -9.3,-16.121 -9.3,-28.211 0,-20.457 7.13,-34.109 23.88,-34.109 15.49,0 25.1,13.652 25.1,31.019 z m 0,-77.828 v 14.571 c -1.85,-4.332 -5.88,-8.68 -8.05,-10.532 -4.96,-4.039 -10.54,-6.519 -19.23,-6.519 -8.67,0 -16.74,3.101 -22.94,9.308 -5.58,5.891 -10.54,17.981 -10.54,35.34 0,14.883 4.34,27.602 12.71,35.34 7.75,7.141 16.12,10.242 28.84,10.242 h 19.21 v 30.391 c 0,19.219 -7.74,29.758 -23.86,29.758 -6.52,0 -11.79,-2.481 -15.51,-6.199 -5.89,-5.891 -7.75,-12.711 -7.75,-24.5 h -11.78 c 0,11.468 2.17,22.949 10.54,31.32 6.2,6.199 13.64,9.621 24.5,9.621 11.77,0 20.15,-3.422 25.73,-9 6.83,-6.82 9.92,-16.121 9.92,-30.691 V 216.82 h -11.79"/><path id="path152" style="fill: rgb(222, 197, 203); fill-opacity: 1; fill-rule: nonzero; stroke: none;" d="m 2227.48,289.648 c -7.18,0 -11.78,-1.699 -16.42,-6.078 -4.76,-4.511 -7.72,-13.929 -7.72,-24.582 0,-19.316 6.35,-29.109 18.88,-29.109 13.88,0 20.1,13.07 20.1,26.019 v 33.75 z m 24.84,-67.828 h 1.79 v 113.45 c 0,13.109 -2.53,21.23 -8.46,27.16 -5,5 -12.46,7.531 -22.19,7.531 -8.87,0 -15.33,-2.512 -20.96,-8.16 -5.35,-5.352 -8.23,-12.66 -8.92,-22.781 h 1.74 c 0.49,9.019 2.61,16.55 9.09,23.039 4.95,4.941 11.71,7.66 19.05,7.66 10.78,0 28.86,-4.52 28.86,-34.758 v -79.063 c 0,-0.039 0,-0.066 0,-0.109 z m -31.64,77.309 c -7.3,-0.969 -12.71,-3.59 -18.02,-8.481 -7.15,-6.609 -11.1,-17.859 -11.1,-31.66 0,-16.386 4.74,-27.226 9.17,-31.898 5.03,-5.031 11.74,-7.75 19.31,-7.75 3.37,0 6.23,0.39 8.83,1.281 -2.11,-0.492 -4.34,-0.742 -6.65,-0.742 -10.78,0 -28.88,5.082 -28.88,39.109 0,13.703 3.96,25.313 10.86,31.852 4.84,4.57 10.09,7.23 16.48,8.289 z m -0.64,-89.789 c -10.28,0 -19.44,3.719 -26.48,10.769 -7.66,8.09 -12,22.231 -12,38.879 0,16.621 5.08,30.473 14.31,39.012 8.81,8.109 18.45,11.57 32.24,11.57 h 14.21 v 25.391 c 0,22.199 -10.77,24.758 -18.86,24.758 -5.98,0 -9.82,-2.571 -11.98,-4.731 -4.63,-4.648 -6.28,-10.129 -6.28,-20.968 v -5 h -21.78 v 5 c 0,15.378 3.92,26.781 12.01,34.851 7.55,7.559 16.45,11.09 28.03,11.09 12.48,0 22.32,-3.52 29.26,-10.461 7.88,-7.871 11.39,-18.43 11.39,-34.23 V 211.82 h -21.79 v 5.078 c -6.53,-5.25 -13.38,-7.558 -22.28,-7.558"/><path id="path154" style="fill: rgb(222, 197, 203); fill-opacity: 1; fill-rule: nonzero; stroke: none;" d="m 2427.42,295.891 v 11.16 h 57.98 v -11.16 h -57.98"/><path id="path156" style="fill: rgb(222, 197, 203); fill-opacity: 1; fill-rule: nonzero; stroke: none;" d="m 2432.42,300.891 h 47.98 v 1.16 h -47.98 z m 57.98,-10 h -67.98 v 21.16 h 67.98 v -21.16"/><path id="path158" style="fill: rgb(222, 197, 203); fill-opacity: 1; fill-rule: nonzero; stroke: none;" d="M 2688.44,412.172 2665.18,294.328 H 2712 Z m 39.06,-195.352 -13.33,66.36 h -51.47 l -13.02,-66.36 h -13.65 l 47.45,220.762 h 11.16 l 46.5,-220.762 h -13.64"/><path id="path160" style="fill: rgb(222, 197, 203); fill-opacity: 1; fill-rule: nonzero; stroke: none;" d="m 2671.26,299.328 h 34.64 l -17.43,87.184 z m 60.33,-77.508 h 3.39 l -44.39,210.762 h -1.14 l 28.66,-143.254 h -59.02 l 26.65,135.012 -43.51,-202.52 h 3.34 l 13.01,66.36 h 59.68 z m 15.71,-10 h -23.89 l -13.33,66.36 h -43.27 l -13.02,-66.36 h -23.95 l 49.59,230.762 h 19.26 L 2747.3,211.82"/><path id="path162" style="fill: rgb(222, 197, 203); fill-opacity: 1; fill-rule: nonzero; stroke: none;" d="m 2808.71,364.41 c -19.84,0 -31.62,-12.09 -31.62,-31.621 V 216.82 h -11.79 v 155.66 h 11.79 v -16.441 c 0.93,2.793 3.71,7.133 5.26,8.68 6.83,7.453 16.44,10.242 27.6,10.242 V 364.41 h -1.24"/><path id="path164" style="fill: rgb(222, 197, 203); fill-opacity: 1; fill-rule: nonzero; stroke: none;" d="m 2804.95,369.73 c -4.05,-0.371 -7.62,-1.23 -10.71,-2.582 3.26,1.122 6.84,1.84 10.71,2.122 z M 2770.3,221.82 h 1.79 v 145.66 h -1.79 z m 11.79,-10 h -21.79 v 165.66 h 21.79 v -6.101 c 6.9,5.742 16.09,8.582 27.86,8.582 h 5 V 359.41 h -6.24 c -16.91,0 -26.62,-9.711 -26.62,-26.621 V 211.82"/><path id="path166" style="fill: rgb(222, 197, 203); fill-opacity: 1; fill-rule: nonzero; stroke: none;" d="m 2852.1,226.738 c -6.82,6.832 -10.22,16.75 -10.22,29.461 v 106.66 h -20.16 v 9.621 h 20.16 v 47.739 h 11.77 V 372.48 h 28.53 v -9.621 h -28.53 V 255.578 c 0,-20.148 10.85,-28.219 30.08,-28.219 V 216.82 c -11.79,0 -22.95,1.239 -31.63,9.918"/><path id="path168" style="fill: rgb(222, 197, 203); fill-opacity: 1; fill-rule: nonzero; stroke: none;" d="m 2855.63,230.281 c 6.04,-6.043 13.47,-7.941 23.1,-8.359 v 0.629 c -19.96,1.527 -30.08,12.621 -30.08,33.027 v 159.641 h -1.77 v -159.02 c 0,-11.379 2.94,-20.097 8.75,-25.918 z m 33.1,-18.461 h -5 c -12.35,0 -25.16,1.379 -35.17,11.391 v 0 c -7.75,7.758 -11.68,18.871 -11.68,32.988 v 101.66 h -20.16 v 19.621 h 20.16 v 47.739 h 21.77 V 377.48 h 28.53 v -19.621 h -28.53 V 255.578 c 0,-16.277 7.5,-23.219 25.08,-23.219 h 5 V 211.82"/><path id="path170" style="fill: rgb(222, 197, 203); fill-opacity: 1; fill-rule: nonzero; stroke: none;" d="m 2912.85,216.82 v 155.66 h 11.79 V 216.82 Z m -2.78,197.508 v 17.371 h 17.36 v -17.371 h -17.36"/><path id="path172" style="fill: rgb(222, 197, 203); fill-opacity: 1; fill-rule: nonzero; stroke: none;" d="m 2915.07,419.328 h 7.36 v 7.371 h -7.36 z m 17.36,-10 h -27.36 v 27.371 h 27.36 z M 2917.85,221.82 h 1.79 v 145.66 h -1.79 z m 11.79,-10 h -21.79 v 165.66 h 21.79 V 211.82"/><path id="path174" style="fill: rgb(222, 197, 203); fill-opacity: 1; fill-rule: nonzero; stroke: none;" d="m 3025.7,223.949 c -6.5,-6.508 -15.18,-9.609 -25.73,-9.609 -10.54,0 -19.84,4.351 -25.73,10.851 -9.3,10.239 -11.78,28.84 -11.78,69.457 0,40.622 2.48,59.211 11.78,69.454 5.89,6.507 15.19,10.859 25.73,10.859 11.16,0 19.54,-2.789 25.73,-9 9,-8.992 9.93,-20.77 9.93,-32.871 h -11.47 c 0,9 -0.31,17.988 -6.83,24.808 -4.33,4.661 -9.92,6.512 -17.05,6.512 -7.44,0 -13.33,-3.101 -17.05,-7.129 -8.06,-8.992 -8.99,-25.429 -8.99,-62.633 0,-37.207 0.93,-53.636 8.99,-62.628 3.72,-4.032 9.61,-7.141 17.05,-7.141 6.2,0 12.09,1.859 16.44,6.211 6.2,6.191 7.44,14.57 7.44,25.109 h 11.47 c 0,-14.89 -2.49,-24.488 -9.93,-32.25"/><path id="path176" style="fill: rgb(222, 197, 203); fill-opacity: 1; fill-rule: nonzero; stroke: none;" d="m 2999.97,369.961 c -8.57,0 -16.81,-3.449 -22.02,-9.211 -7.84,-8.629 -10.49,-25.309 -10.49,-66.102 0,-40.796 2.65,-57.476 10.48,-66.097 5.22,-5.77 13.46,-9.211 22.03,-9.211 9.44,0 16.69,2.66 22.16,8.109 5.36,5.602 7.85,12.5 8.39,23.75 h -1.47 c -0.42,-8.617 -2.23,-17.097 -8.8,-23.64 -5.02,-5.02 -11.92,-7.68 -19.97,-7.68 -8.04,0 -15.59,3.191 -20.72,8.75 -9.39,10.473 -10.32,27.281 -10.32,66.019 0,38.743 0.93,55.551 10.27,65.973 5.19,5.609 12.74,8.789 20.77,8.789 8.86,0 15.64,-2.66 20.72,-8.101 6.62,-6.938 7.87,-15.719 8.1,-23.219 h 1.46 c -0.3,9.148 -1.77,17.719 -8.39,24.34 -5.13,5.14 -12.18,7.531 -22.2,7.531 z m 0,-160.621 c -11.52,0 -22.25,4.551 -29.44,12.488 -11.05,12.172 -13.07,34.07 -13.07,72.82 0,38.75 2.02,60.641 13.08,72.813 7.17,7.937 17.91,12.5 29.43,12.5 12.67,0 22.25,-3.422 29.27,-10.461 10.51,-10.512 11.39,-24.301 11.39,-36.41 v -5 h -21.47 v 5 c 0,8.871 -0.4,16.082 -5.44,21.351 -3.21,3.457 -7.34,4.969 -13.44,4.969 -7.19,0 -11.47,-3.461 -13.38,-5.531 -6.9,-7.688 -7.66,-24.77 -7.66,-59.231 0,-34.457 0.76,-51.539 7.71,-59.289 1.86,-2.007 6.14,-5.48 13.33,-5.48 3.72,0 8.98,0.82 12.9,4.75 4.98,4.973 5.98,11.941 5.98,21.57 v 5 h 21.47 v -5 c 0,-16.988 -3.29,-27.34 -11.32,-35.711 l -0.07,-0.066 c -7.34,-7.352 -17.19,-11.082 -29.27,-11.082"/><path id="path178" style="fill: rgb(222, 197, 203); fill-opacity: 1; fill-rule: nonzero; stroke: none;" d="m 3119.63,357.281 c -3.72,4.028 -9.3,7.129 -16.74,7.129 -7.44,0 -13.03,-3.101 -16.75,-7.129 -8.05,-8.992 -8.99,-25.429 -8.99,-62.633 0,-37.207 0.94,-53.636 8.99,-62.628 3.72,-4.032 9.31,-7.141 16.75,-7.141 7.44,0 13.02,3.109 16.74,7.141 8.07,8.992 8.99,25.421 8.99,62.628 0,37.204 -0.92,53.641 -8.99,62.633 z m 8.99,-132.09 c -5.89,-6.5 -14.26,-10.851 -25.73,-10.851 -11.47,0 -19.84,4.351 -25.74,10.851 -9.3,10.239 -11.78,28.84 -11.78,69.457 0,40.622 2.48,59.211 11.78,69.454 5.9,6.507 14.27,10.859 25.74,10.859 11.47,0 19.84,-4.352 25.73,-10.859 9.31,-10.243 11.79,-28.832 11.79,-69.454 0,-40.617 -2.48,-59.218 -11.79,-69.457"/><path id="path180" style="fill: rgb(222, 197, 203); fill-opacity: 1; fill-rule: nonzero; stroke: none;" d="m 3102.89,359.41 c -6.58,0 -10.74,-3.012 -13.08,-5.531 -6.9,-7.699 -7.66,-24.777 -7.66,-59.231 0,-34.449 0.76,-51.527 7.71,-59.289 2.29,-2.468 6.44,-5.48 13.03,-5.48 6.58,0 10.73,3.012 13.07,5.531 6.9,7.699 7.66,24.781 7.66,59.238 0,34.411 -0.76,51.5 -7.68,59.262 -2.35,2.52 -6.5,5.5 -13.05,5.5 z m 0,-139.531 c -7.97,0 -15.21,3.109 -20.42,8.75 -9.39,10.48 -10.32,27.281 -10.32,66.019 0,38.731 0.93,55.543 10.27,65.973 10.51,11.359 30.47,11.32 40.88,0.059 l 0.05,-0.059 c 9.35,-10.422 10.27,-27.23 10.27,-65.973 0,-38.738 -0.92,-55.546 -10.27,-65.968 -5.25,-5.692 -12.5,-8.801 -20.46,-8.801 z m 0,150.082 c -9.08,0 -16.49,-3.109 -22.03,-9.223 -7.84,-8.617 -10.49,-25.297 -10.49,-66.09 0,-40.796 2.65,-57.476 10.48,-66.097 5.55,-6.11 12.96,-9.211 22.04,-9.211 9.08,0 16.49,3.101 22.02,9.211 h 0.01 c 7.84,8.621 10.49,25.301 10.49,66.097 0,40.793 -2.65,57.473 -10.49,66.09 -5.54,6.121 -12.94,9.223 -22.03,9.223 z m 0,-160.621 c -11.85,0 -22.03,4.32 -29.44,12.488 -11.06,12.172 -13.08,34.07 -13.08,72.82 0,38.75 2.02,60.641 13.08,72.813 7.51,8.289 17.41,12.5 29.44,12.5 11.87,0 22.04,-4.332 29.44,-12.512 11.06,-12.148 13.08,-34.051 13.08,-72.801 0,-38.738 -2.02,-60.648 -13.08,-72.82 v 0 c -7.4,-8.168 -17.58,-12.488 -29.44,-12.488"/><path id="path182" style="fill: rgb(222, 197, 203); fill-opacity: 1; fill-rule: nonzero; stroke: none;" d="m 3186.58,226.738 c -6.2,6.211 -10.23,14.891 -10.23,29.461 v 181.383 h 11.78 V 255.578 c 0,-18.297 8.69,-28.219 26.98,-28.219 V 216.82 c -10.55,0 -20.77,2.168 -28.53,9.918"/><path id="path184" style="fill: rgb(222, 197, 203); fill-opacity: 1; fill-rule: nonzero; stroke: none;" d="M 3181.35,432.582 V 256.199 c 0,-11.859 2.7,-19.859 8.77,-25.918 4.87,-4.871 11.31,-7.551 19.99,-8.261 v 0.582 c -17.45,1.808 -26.98,13.347 -26.98,32.976 v 177.004 z m 38.76,-220.762 h -5 c -13.92,0 -24.4,3.719 -32.06,11.391 -7.98,7.98 -11.7,18.469 -11.7,32.988 v 186.383 h 21.78 V 255.578 c 0,-16.058 6.77,-23.219 21.98,-23.219 h 5 V 211.82"/><path id="path186" style="fill: rgb(222, 197, 203); fill-opacity: 1; fill-rule: nonzero; stroke: none;" d="m 3242.7,216.82 v 155.66 h 11.77 V 216.82 Z m -2.8,197.508 v 17.371 h 17.37 v -17.371 h -17.37"/><path id="path188" style="fill: rgb(222, 197, 203); fill-opacity: 1; fill-rule: nonzero; stroke: none;" d="m 3244.9,419.328 h 7.37 v 7.371 h -7.37 z m 17.37,-10 h -27.37 v 27.371 h 27.37 z M 3247.7,221.82 h 1.77 v 145.66 h -1.77 z m 11.77,-10 h -21.77 v 165.66 h 21.77 V 211.82"/><path id="path190" style="fill: rgb(222, 197, 203); fill-opacity: 1; fill-rule: nonzero; stroke: none;" d="m 3405.76,364.41 c -19.84,0 -31.63,-12.09 -31.63,-31.621 V 216.82 h -11.79 v 155.66 h 11.79 v -16.441 c 0.93,2.793 3.72,7.133 5.27,8.68 6.82,7.453 16.44,10.242 27.59,10.242 V 364.41 h -1.23"/><path id="path192" style="fill: rgb(222, 197, 203); fill-opacity: 1; fill-rule: nonzero; stroke: none;" d="m 3401.99,369.73 c -4.06,-0.371 -7.62,-1.242 -10.73,-2.589 3.27,1.129 6.86,1.847 10.73,2.129 z m -34.65,-147.91 h 1.79 v 145.66 h -1.79 z m 11.79,-10 h -21.79 v 165.66 h 21.79 v -6.128 c 6.89,5.687 16.27,8.609 27.86,8.609 h 5 V 359.41 h -6.23 c -16.92,0 -26.63,-9.711 -26.63,-26.621 V 211.82"/><path id="path194" style="fill: rgb(222, 197, 203); fill-opacity: 1; fill-rule: nonzero; stroke: none;" d="m 3481.71,357.281 c -3.72,4.028 -9.3,7.129 -16.74,7.129 -7.44,0 -13.03,-3.101 -16.75,-7.129 -7.44,-8.062 -8.68,-22.32 -8.98,-52.711 h 51.46 c -0.31,30.391 -1.55,44.649 -8.99,52.711 z m -42.47,-62.633 c 0,-37.207 1.23,-53.636 9.29,-62.628 3.73,-4.032 9.61,-7.141 17.06,-7.141 6.2,0 12.71,1.859 17.05,6.211 5.58,5.262 8.06,13.629 8.06,25.109 h 11.48 c 0,-15.5 -3.41,-24.179 -10.85,-31.937 -6.52,-6.512 -15.82,-9.922 -25.74,-9.922 -11.47,0 -20.16,4.351 -26.05,10.851 -9.3,10.239 -12.09,28.84 -12.09,69.457 0,40.622 2.48,59.211 11.79,69.454 5.89,6.507 14.26,10.859 25.73,10.859 11.48,0 19.84,-4.352 25.73,-10.859 9.3,-10.243 11.78,-28.832 11.78,-69.454 h -63.24"/><path id="path196" style="fill: rgb(222, 197, 203); fill-opacity: 1; fill-rule: nonzero; stroke: none;" d="m 3444.3,309.57 h 41.33 c -0.39,25.321 -1.77,38.012 -7.59,44.321 -2.34,2.519 -6.5,5.519 -13.07,5.519 -6.58,0 -10.74,-3.012 -13.08,-5.531 -5.82,-6.297 -7.2,-18.988 -7.59,-44.309 z m 20.67,60.391 c -9.09,0 -16.49,-3.102 -22.02,-9.211 -7.85,-8.629 -10.5,-25.309 -10.5,-66.102 0,-40.027 2.82,-57.328 10.79,-66.097 5.46,-6.02 13.19,-9.211 22.35,-9.211 8.86,0 16.74,3.012 22.2,8.461 5.11,5.32 8.53,11.328 9.25,23.398 h -1.5 c -0.72,-10.64 -3.84,-18.437 -9.48,-23.75 -4.75,-4.769 -12.26,-7.57 -20.47,-7.57 -8.05,0 -15.6,3.191 -20.73,8.75 -9.58,10.672 -10.62,29.191 -10.62,66.019 v 9.973 c 0.3,30.84 1.42,46.418 10.31,56.051 10.4,11.258 30.41,11.269 40.83,0.008 v -0.008 c 8.89,-9.633 10,-25.203 10.32,-56.051 l 0.05,-4.973 h 1.72 c -0.22,37.172 -2.96,52.832 -10.47,61.09 -5.54,6.121 -12.94,9.223 -22.03,9.223 z m 0.62,-160.621 c -12.06,0 -22.36,4.32 -29.76,12.488 -10,11.024 -13.38,29.402 -13.38,72.82 0,38.75 2.02,60.653 13.09,72.813 7.39,8.168 17.57,12.5 29.43,12.5 11.87,0 22.04,-4.332 29.44,-12.512 11.05,-12.16 13.07,-34.051 13.07,-72.801 v -5 h -63.23 c 0.11,-32.039 1.43,-46.968 8.01,-54.289 1.85,-2.007 6.13,-5.48 13.33,-5.48 5.57,0 10.5,1.73 13.51,4.75 4.47,4.211 6.6,11.242 6.6,21.57 v 5 h 21.48 v -5 c 0,-16.09 -3.55,-26.34 -12.25,-35.398 -7.41,-7.41 -17.81,-11.461 -29.34,-11.461"/><path id="path198" style="fill: rgb(222, 197, 203); fill-opacity: 1; fill-rule: nonzero; stroke: none;" d="m 3594.55,334.02 c 0,11.468 -2.78,18.921 -8.06,24.191 -4.34,4.027 -9.92,6.199 -16.43,6.199 -6.82,0 -12.4,-3.101 -16.12,-7.129 -8.06,-8.992 -9,-25.429 -9,-62.633 0,-37.207 0.94,-53.636 9,-62.628 3.72,-4.032 9.3,-7.141 16.12,-7.141 6.51,0 12.09,2.18 16.43,6.211 5.28,5.262 8.06,12.711 8.06,24.18 z m 0.63,-171.461 c -5.89,-6.508 -14.89,-10.84 -25.43,-10.84 -10.54,0 -19.54,3.09 -26.04,9.613 -7.44,7.746 -9.92,17.359 -9.92,32.238 h 11.46 c 0,-10.55 1.24,-18.922 7.45,-25.121 4.34,-4.328 10.54,-6.199 16.74,-6.199 7.44,0 13.02,3.102 16.74,7.129 6.52,7.141 8.37,19.23 8.37,42.48 v 17.051 c -1.23,-3.09 -5.26,-7.441 -8.06,-9.289 -5.27,-3.723 -10.85,-5.281 -18.6,-5.281 -8.68,0 -16.74,3.719 -22.95,10.539 -9.3,10.23 -11.78,29.152 -11.78,69.769 0,40.622 2.48,59.532 11.78,69.762 5.27,5.891 12.72,10.551 22.95,10.551 7.44,0 13.33,-1.871 18.6,-5.902 2.48,-1.86 6.52,-5.887 8.06,-9.297 v 12.718 h 11.79 V 211.551 c 0,-28.211 -2.17,-39.063 -11.16,-48.992"/><path id="path200" style="fill: rgb(222, 197, 203); fill-opacity: 1; fill-rule: nonzero; stroke: none;" d="m 3570.06,359.41 c -6.39,0 -10.55,-3.461 -12.45,-5.531 -6.91,-7.699 -7.67,-24.777 -7.67,-59.231 0,-34.449 0.76,-51.527 7.72,-59.289 1.85,-2.007 6,-5.48 12.4,-5.48 5.16,0 9.55,1.641 13.04,4.871 4.36,4.371 6.45,10.922 6.45,20.52 v 78.75 c 0,9.589 -2.09,16.152 -6.59,20.652 -3.35,3.098 -7.74,4.738 -12.9,4.738 z m -2.17,10.551 c -7.48,0 -13.94,-2.992 -19.23,-8.891 -7.85,-8.64 -10.5,-25.398 -10.5,-66.422 0,-41.027 2.65,-57.789 10.48,-66.41 5.31,-5.816 11.97,-8.898 19.25,-8.898 4.55,0 8.11,0.57 11.28,1.89 -9.66,-3.019 -21.5,-0.628 -28.91,7.399 -9.39,10.48 -10.32,27.281 -10.32,66.019 0,38.731 0.93,55.543 10.27,65.973 6.78,7.348 17.1,10.027 26.23,8.16 -2.56,0.801 -5.36,1.18 -8.55,1.18 z M 3538.9,188.57 c 0.53,-11.269 3.03,-18.172 8.41,-23.781 5.34,-5.328 12.9,-8.07 22.44,-8.07 8.51,0 16.43,3.351 21.71,9.191 l 0.01,0.012 c 7.84,8.648 9.87,18.027 9.87,45.629 V 367.48 h -1.79 v -30.878 l -0.05,0.109 c 0.03,-0.879 0.05,-1.77 0.05,-2.691 v -78.75 c 0,-0.079 0,-0.168 0,-0.239 v -43.172 c 0,-22.32 -1.58,-36.98 -9.68,-45.847 -5.21,-5.653 -12.46,-8.762 -20.43,-8.762 -8.12,0 -15.33,2.73 -20.28,7.672 -6.56,6.547 -8.38,15.039 -8.8,23.648 z m 30.85,-41.851 c -12.11,0 -22.34,3.82 -29.57,11.07 -8.11,8.449 -11.39,18.789 -11.39,35.781 v 5 h 21.46 v -5 c 0,-9.64 1,-16.601 5.98,-21.582 3.06,-3.058 7.75,-4.738 13.21,-4.738 6.6,0 10.75,3 13.07,5.52 5.13,5.628 7.04,16.218 7.04,39.089 v 3.789 c -0.1,-0.07 -0.19,-0.136 -0.29,-0.187 -5.95,-4.211 -12.57,-6.121 -21.37,-6.121 -10.03,0 -19.49,4.332 -26.64,12.172 -11.06,12.179 -13.09,34.179 -13.09,73.136 0,38.954 2.03,60.954 13.08,73.122 7.13,7.968 16.36,12.191 26.65,12.191 8.58,0 15.46,-2.199 21.64,-6.93 0.01,-0.011 0.01,-0.011 0.02,-0.019 v 4.468 h 21.79 V 211.551 c 0,-27.223 -1.73,-40.512 -12.46,-52.34 -7.18,-7.941 -17.8,-12.492 -29.13,-12.492"/><path id="path202" style="fill: rgb(222, 197, 203); fill-opacity: 1; fill-rule: nonzero; stroke: none;" d="m 3702.73,294.648 h -19.84 c -8.37,0 -14.26,-2.168 -19.84,-7.449 -5.89,-5.57 -9.3,-16.121 -9.3,-28.211 0,-20.457 7.13,-34.109 23.87,-34.109 15.51,0 25.11,13.652 25.11,31.019 z m 0,-77.828 v 14.571 c -1.85,-4.332 -5.88,-8.68 -8.06,-10.532 -4.96,-4.039 -10.54,-6.519 -19.22,-6.519 -8.68,0 -16.74,3.101 -22.95,9.308 -5.58,5.891 -10.54,17.981 -10.54,35.34 0,14.883 4.35,27.602 12.72,35.34 7.74,7.141 16.12,10.242 28.84,10.242 h 19.21 v 30.391 c 0,19.219 -7.75,29.758 -23.87,29.758 -6.52,0 -11.78,-2.481 -15.5,-6.199 -5.9,-5.891 -7.75,-12.711 -7.75,-24.5 h -11.78 c 0,11.468 2.17,22.949 10.53,31.32 6.21,6.199 13.65,9.621 24.5,9.621 11.78,0 20.15,-3.422 25.73,-9 6.83,-6.82 9.92,-16.121 9.92,-30.691 V 216.82 h -11.78"/><path id="path204" style="fill: rgb(222, 197, 203); fill-opacity: 1; fill-rule: nonzero; stroke: none;" d="m 3682.89,289.648 c -7.18,0 -11.78,-1.699 -16.42,-6.078 -4.76,-4.511 -7.72,-13.929 -7.72,-24.582 0,-19.316 6.35,-29.109 18.87,-29.109 13.89,0 20.11,13.07 20.11,26.019 v 33.75 z m 24.84,-67.828 h 1.78 v 113.45 c 0,13.109 -2.53,21.23 -8.46,27.16 -5,5 -12.46,7.531 -22.19,7.531 -8.86,0 -15.32,-2.52 -20.96,-8.16 -5.34,-5.352 -8.22,-12.66 -8.91,-22.781 h 1.74 c 0.49,9.031 2.61,16.558 9.09,23.039 4.95,4.941 11.7,7.66 19.04,7.66 10.78,0 28.87,-4.52 28.87,-34.758 v -79.063 c 0,-0.039 0,-0.066 0,-0.109 z m -31.62,77.309 c -7.32,-0.957 -12.73,-3.578 -18.04,-8.469 -7.16,-6.629 -11.11,-17.871 -11.11,-31.672 0,-16.386 4.74,-27.226 9.17,-31.898 5.03,-5.031 11.75,-7.75 19.32,-7.75 3.37,0 6.22,0.39 8.82,1.281 -2.11,-0.492 -4.34,-0.742 -6.65,-0.742 -10.78,0 -28.87,5.082 -28.87,39.109 0,13.703 3.96,25.313 10.86,31.852 4.84,4.57 10.11,7.238 16.5,8.289 z m -0.66,-89.789 c -10.28,0 -19.43,3.719 -26.49,10.769 -7.66,8.09 -12,22.231 -12,38.879 0,16.614 5.09,30.473 14.32,39.012 8.8,8.109 18.44,11.57 32.24,11.57 h 14.21 v 25.391 c 0,22.199 -10.77,24.758 -18.87,24.758 -5.98,0 -9.81,-2.571 -11.97,-4.731 -4.64,-4.636 -6.28,-10.129 -6.28,-20.968 v -5 h -21.78 v 5 c 0,15.378 3.92,26.781 12,34.851 7.56,7.559 16.46,11.09 28.03,11.09 12.48,0 22.32,-3.52 29.27,-10.461 7.87,-7.871 11.38,-18.43 11.38,-34.23 V 211.82 h -21.78 v 5.09 c -6.53,-5.25 -13.38,-7.57 -22.28,-7.57"/><path id="path206" style="fill: rgb(222, 197, 203); fill-opacity: 1; fill-rule: nonzero; stroke: none;" d="m 3764.73,226.738 c -6.21,6.211 -10.24,14.891 -10.24,29.461 v 181.383 h 11.78 V 255.578 c 0,-18.297 8.69,-28.219 26.98,-28.219 V 216.82 c -10.55,0 -20.77,2.168 -28.52,9.918"/><path id="path208" style="fill: rgb(222, 197, 203); fill-opacity: 1; fill-rule: nonzero; stroke: none;" d="M 3759.49,432.582 V 256.199 c 0,-11.859 2.71,-19.859 8.77,-25.918 4.87,-4.871 11.31,-7.551 19.99,-8.261 v 0.582 c -17.45,1.808 -26.98,13.347 -26.98,32.976 v 177.004 z m 38.76,-220.762 h -5 c -13.91,0 -24.39,3.719 -32.06,11.391 -7.98,7.98 -11.7,18.469 -11.7,32.988 v 186.383 h 21.78 V 255.578 c 0,-16.058 6.78,-23.219 21.98,-23.219 h 5 V 211.82"/><path id="path210" style="fill: rgb(222, 197, 203); fill-opacity: 1; fill-rule: nonzero; stroke: none;" d="m 3869.51,357.281 c -3.72,4.028 -9.3,7.129 -16.74,7.129 -7.44,0 -13.02,-3.101 -16.75,-7.129 -8.05,-8.992 -8.99,-25.429 -8.99,-62.633 0,-37.207 0.94,-53.636 8.99,-62.628 3.73,-4.032 9.31,-7.141 16.75,-7.141 7.44,0 13.02,3.109 16.74,7.141 8.07,8.992 9,25.421 9,62.628 0,37.204 -0.93,53.641 -9,62.633 z m 9,-132.09 c -5.89,-6.5 -14.27,-10.851 -25.74,-10.851 -11.47,0 -19.84,4.351 -25.74,10.851 -9.3,10.239 -11.78,28.84 -11.78,69.457 0,40.622 2.48,59.211 11.78,69.454 5.9,6.507 14.27,10.859 25.74,10.859 11.47,0 19.85,-4.352 25.74,-10.859 9.3,-10.243 11.78,-28.832 11.78,-69.454 0,-40.617 -2.48,-59.218 -11.78,-69.457"/><path id="path212" style="fill: rgb(222, 197, 203); fill-opacity: 1; fill-rule: nonzero; stroke: none;" d="m 3852.77,359.41 c -6.58,0 -10.74,-3.012 -13.07,-5.531 -6.91,-7.699 -7.67,-24.777 -7.67,-59.231 0,-34.449 0.76,-51.527 7.72,-59.289 2.28,-2.468 6.43,-5.48 13.02,-5.48 6.59,0 10.74,3.012 13.07,5.531 6.9,7.699 7.67,24.781 7.67,59.238 0,34.411 -0.77,51.5 -7.69,59.262 -2.34,2.52 -6.49,5.5 -13.05,5.5 z m 0,-139.531 c -7.97,0 -15.21,3.109 -20.42,8.75 -9.39,10.48 -10.32,27.281 -10.32,66.019 0,38.731 0.93,55.543 10.27,65.973 10.51,11.359 30.47,11.32 40.88,0.059 l 0.05,-0.059 c 9.35,-10.422 10.28,-27.23 10.28,-65.973 0,-38.738 -0.93,-55.546 -10.28,-65.968 -5.25,-5.692 -12.5,-8.801 -20.46,-8.801 z m 0,150.082 c -9.08,0 -16.49,-3.109 -22.03,-9.223 -7.84,-8.617 -10.49,-25.297 -10.49,-66.09 0,-40.796 2.65,-57.476 10.48,-66.097 5.55,-6.11 12.96,-9.211 22.04,-9.211 9.09,0 16.5,3.101 22.02,9.211 h 0.01 c 7.85,8.621 10.49,25.301 10.49,66.097 0,40.793 -2.64,57.473 -10.49,66.09 -5.53,6.121 -12.93,9.223 -22.03,9.223 z m 0,-160.621 c -11.85,0 -22.03,4.32 -29.44,12.488 -11.05,12.172 -13.08,34.07 -13.08,72.82 0,38.75 2.03,60.641 13.08,72.813 7.51,8.289 17.41,12.5 29.44,12.5 11.87,0 22.04,-4.332 29.45,-12.512 11.05,-12.148 13.07,-34.051 13.07,-72.801 0,-38.738 -2.02,-60.648 -13.07,-72.82 v 0 c -7.41,-8.168 -17.59,-12.488 -29.45,-12.488"/></g></g></svg>