<svg width="95" height="42" viewBox="0 0 95 42" fill="none" xmlns="http://www.w3.org/2000/svg">
<path d="M4.12794 28.5013H0.66156V16.554L4.75433 16.5582C4.54553 16.5833 4.33674 16.6125 4.12794 16.6376V28.5013ZM9.05427 16.5623L15.235 16.5707L11.2679 28.5056L6.75749 28.5013V24.1794H6.92551C7.59366 24.1794 8.22006 24.0791 8.80469 23.8786C9.38933 23.6782 9.89012 23.39 10.3495 23.01C10.8088 22.63 11.1429 22.1664 11.3935 21.6193C11.6858 21.0723 11.8111 20.4586 11.8111 19.7779C11.8111 18.6713 11.4349 17.8318 10.6415 17.2597C10.2239 16.9381 9.68067 16.7043 9.05427 16.5623ZM17.9918 16.575L23.7958 16.5833C23.6287 16.6042 23.5044 16.6209 23.3374 16.6376V28.5056H20.7894L21.8334 28.2426L17.9918 16.575ZM28.4317 16.5917L33.6925 16.5998V28.5056H30.6029L32.1477 27.8625L29.1837 22.8012C29.6848 22.4671 30.1432 22.0453 30.4773 21.54C30.8114 21.0306 31.0205 20.4251 31.0205 19.7194C31.0205 18.5835 30.6026 17.7484 29.8509 17.2097C29.4751 16.9299 28.9746 16.7253 28.4317 16.5917ZM36.4068 16.5998L40.6252 16.6082L36.4493 22.5006L41.2092 28.5056H36.4068V16.5998ZM43.506 16.6125L59.8347 16.6333L76.6641 16.6584L82.3849 22.5424L76.6641 28.5056H42.5044L43.966 27.6202L39.4556 22.0787L43.506 16.6125ZM29.5165 28.5056H25.9669V23.7785H26.5101C26.6354 23.7785 26.7617 23.7658 26.8869 23.7408L29.5165 28.5056ZM19.119 28.5056H13.9415L14.8598 25.2191H18.2414L19.119 28.5056ZM16.571 19.0763L17.783 23.482H15.3606L16.571 19.0763ZM9.26307 20.0784C9.26307 20.425 9.1802 20.7341 9.09668 20.9972C8.9714 21.2645 8.80404 21.4899 8.55348 21.6695C8.34468 21.8491 8.09445 21.9869 7.84389 22.0787C7.55158 22.1706 7.25958 22.2209 6.92551 22.2209H6.75749V18.4374C6.84101 18.4374 6.88277 18.4331 6.96629 18.4164C7.00805 18.4164 7.09157 18.4164 7.17509 18.4081C7.21685 18.3997 7.30037 18.3997 7.38389 18.3997C7.96852 18.3997 8.38644 18.521 8.76228 18.7673C9.09636 19.0137 9.26307 19.452 9.26307 20.0784ZM28.4725 19.9991C28.4725 20.3583 28.389 20.6673 28.2637 20.9304C28.1384 21.1893 27.9717 21.4023 27.7629 21.5694C27.5541 21.7364 27.3032 21.8574 27.0109 21.9409C26.7186 22.0202 26.4273 22.0579 26.1349 22.0579H25.9669V18.3997C26.0504 18.3997 26.0922 18.3914 26.1757 18.3789C26.2175 18.3789 26.2602 18.3748 26.3437 18.3665C26.4273 18.3623 26.468 18.3581 26.5933 18.3581C27.0944 18.3581 27.5544 18.4791 27.8885 18.7172C28.2644 18.9594 28.4725 19.3853 28.4725 19.9991Z" fill="white"/>
<path d="M84.7599 22.4543L79.1108 16.6421L82.5221 16.6654L88.1042 22.4543L82.2313 28.4316H79.1108L84.7599 22.4543Z" fill="white"/>
<path d="M90.6906 22.3803L85.0415 28.3586H88.1629L94.0344 22.3803L88.4528 16.5919L85.0415 16.5681L90.6906 22.3803Z" fill="white"/>
<path d="M4.81761 16.9331C3.49747 16.9331 2.31618 16.7248 1.31989 16.2606L2.0841 13.8529C2.91823 14.1996 3.70624 14.5472 4.65593 14.5472C5.65223 14.5472 6.13872 14.1996 6.13872 13.6198C6.13872 13.0867 5.88382 12.8784 5.28177 12.6235L3.56641 11.9045C2.54778 11.4889 1.43544 10.7251 1.43544 8.91656C1.43544 6.64624 3.35861 5.44165 5.65223 5.44165C6.94907 5.44165 7.83029 5.65043 8.87223 6.09128L7.96867 8.45482C7.22727 8.15331 6.50918 7.84986 5.67505 7.84986C4.77148 7.84986 4.26265 8.1067 4.26265 8.70827C4.26265 9.28653 4.72536 9.49628 5.14291 9.65796L6.92625 10.3751C8.31679 10.9339 9.05819 11.8132 9.05819 13.1576C9.05819 15.2643 7.36613 16.9331 4.81761 16.9331Z" fill="white"/>
<path d="M16.6528 16.8921L16.5139 15.6885H16.4911C15.8415 16.2662 14.9841 16.9605 13.7333 16.9605C12.0194 16.9605 10.8843 15.8958 10.8843 14.0663C10.8843 11.981 12.436 11.0308 14.6835 10.7992L16.2124 10.6375V9.89662C16.2124 8.78282 15.7492 8.01909 14.3592 8.01909C13.5017 8.01909 12.9458 8.27399 12.2972 8.62066L11.2319 6.62952C12.3205 5.91045 13.3624 5.44678 15.0307 5.44678C17.6962 5.44678 19.1081 6.88442 19.1081 9.22368V13.8114L19.479 16.5231L16.6528 16.8921ZM16.2124 12.3043L15.2166 12.4218C14.3131 12.5369 13.7333 12.9079 13.7333 13.6716C13.7333 14.3445 14.1271 14.8543 14.8229 14.8543C15.4943 14.8543 15.8881 14.5989 16.2124 14.3198V12.3043Z" fill="white"/>
<path d="M28.0033 3.61789C27.7023 3.52515 27.4484 3.43241 27.0298 3.43241C26.104 3.43241 25.5004 3.94319 25.5004 5.03125V5.72847H28.281V8.04345H25.5004V16.6858H22.582V8.04345H20.8904V6.09844L22.582 5.70419V4.89433C22.582 2.41524 24.3663 0.81543 26.7987 0.81543C27.5863 0.81543 28.1194 0.95429 28.6981 1.11646L28.0033 3.61789Z" fill="white"/>
<path d="M34.405 16.9616C30.7437 16.9616 29.1225 14.7379 29.1225 11.0319C29.1225 7.71917 31.0918 5.4707 34.0113 5.4707C37.0691 5.4707 38.0654 7.58031 38.0654 10.2196V11.5194H31.9949C32.0881 13.4644 33.015 14.3898 34.775 14.3898C35.8184 14.3898 36.3971 14.1344 37.2313 13.7882L38.1348 16.0362C36.9064 16.6606 35.8878 16.9616 34.405 16.9616ZM33.918 7.83424C32.7601 7.83424 32.1803 8.71499 32.042 9.73362H35.4931C35.4931 8.59992 35.0071 7.83424 33.918 7.83424Z" fill="white"/>
<path d="M44.0615 16.9462C41.8834 16.9462 40.8177 15.4857 40.8177 13.3101V8.04892H39.1256V6.10439L40.8177 5.70966V3.80979L43.7366 3.46216V5.73393H46.7484V8.04892H43.7366V12.5226C43.7366 13.9811 44.1076 14.3525 45.0573 14.3525C45.636 14.3525 45.937 14.1879 46.4017 13.9811L47.1873 16.1587C46.2381 16.667 45.5205 16.9462 44.0615 16.9462Z" fill="white"/>
<path d="M54.933 15.2504C53.7634 18.5811 51.6237 19.4822 48.5896 19.1016L49.0407 16.7667C49.9918 16.9109 50.8997 16.6958 51.5023 15.969L47.7749 6.05257L50.6478 5.33545L53.1259 12.7936H53.1482L55.4661 5.72872H58.3166L54.933 15.2504Z" fill="white"/>
<path d="M3.47117 35.1987C3.12887 35.0846 2.75356 35.0312 2.35106 35.0312C1.52567 35.0312 0.714355 35.4133 0.714355 36.4596C0.714355 38.0094 2.76667 37.6404 2.76667 38.5328C2.76667 38.9552 2.29037 39.1358 1.93497 39.1358C1.56597 39.1358 1.19697 39.0222 0.875064 38.8479L0.788155 39.6932C1.25086 39.8068 1.47857 39.8743 1.98886 39.8743C2.93466 39.8743 3.74646 39.4849 3.74646 38.459C3.74646 36.8888 1.69366 37.2311 1.69366 36.4193C1.69366 35.91 2.10927 35.7692 2.43117 35.7692C2.75987 35.7692 3.08857 35.8425 3.38377 35.9697L3.47117 35.1987ZM7.69038 36.3392H6.79168V38.0293C6.79168 38.4721 6.65087 39.1766 5.99978 39.1766C5.42298 39.1766 5.41667 38.6061 5.41667 38.1837V36.3392H4.51747V38.5192C4.51747 39.297 4.87288 39.8743 5.69147 39.8743C6.16098 39.8743 6.54988 39.6597 6.82518 39.3237H6.83877V39.7932H7.69038V36.3392ZM6.40908 35.7085H7.18738V34.9302H6.40908V35.7085ZM5.80557 34.9302H5.02728V35.7085H5.80557V34.9302ZM9.33389 38.056C9.33389 37.5933 9.49459 36.9563 10.0782 36.9563C10.655 36.9563 10.8832 37.5734 10.8832 38.056C10.8832 38.5459 10.6885 39.1766 10.0918 39.1766C9.50139 39.1766 9.33389 38.5328 9.33389 38.056ZM10.9167 39.7932H11.7887V34.7627H10.89V36.7412H10.8764C10.6079 36.4125 10.2928 36.2586 9.84369 36.2586C8.78378 36.2586 8.39439 37.1034 8.39439 38.056C8.39439 39.0023 8.78378 39.8743 9.84369 39.8743C10.2661 39.8743 10.6351 39.7398 10.9036 39.4043H10.9167V39.7932ZM13.0098 38.7537C13.0098 39.4383 13.3987 39.8743 14.1027 39.8743C14.3712 39.8743 14.579 39.8471 14.7674 39.7932L14.7402 39.0824C14.646 39.1431 14.4921 39.1766 14.3309 39.1766C13.9891 39.1766 13.908 38.9013 13.908 38.6061V36.9966H14.7067V36.3392H13.908V35.3599L13.0098 35.6483V36.3392H12.3456V36.9966H13.0098V38.7537ZM15.3437 39.7932H16.2429V36.3387H15.3437V39.7932ZM15.3437 35.7085H16.2429V34.8501H15.3437V35.7085ZM17.2086 39.7932H18.1073V38.5255C18.1073 38.0293 18.1073 37.117 18.8385 37.117C18.9997 37.117 19.1604 37.1442 19.241 37.1913V36.2853C19.1468 36.2586 19.0531 36.2586 18.9657 36.2586C18.4292 36.2586 18.0602 36.8019 18.0204 37.1238H18.0068V36.3392H17.2086V39.7932ZM19.4556 38.0895C19.4556 39.0824 20.1198 39.8743 21.2598 39.8743C22.4071 39.8743 23.0713 39.0824 23.0713 38.0895C23.0713 36.9495 22.2862 36.2586 21.2598 36.2586C20.2402 36.2586 19.4556 36.9495 19.4556 38.0895ZM20.3946 37.9822C20.3946 37.4661 20.6762 36.9563 21.2598 36.9563C21.8502 36.9563 22.1318 37.4525 22.1318 37.9822C22.1318 38.559 21.9512 39.1766 21.2598 39.1766C20.5762 39.1766 20.3946 38.5527 20.3946 37.9822ZM23.7957 39.7932H24.6949V34.7627H23.7957V39.7932ZM29.0409 37.62H27.277V38.358H29.0409V37.62ZM34.2195 37.9822H32.8513L33.5286 36.0508H33.5417L34.2195 37.9822ZM31.201 39.7932H32.1735L32.5828 38.7202H34.4812L34.8837 39.7932H35.9232L34.0855 35.1113H33.0256L31.201 39.7932ZM36.4665 39.7932H37.3657V34.7627H36.4665V39.7932ZM38.6062 38.7537C38.6062 39.4383 38.9951 39.8743 39.6996 39.8743C39.9681 39.8743 40.1759 39.8471 40.3638 39.7932L40.3366 39.0824C40.2429 39.1431 40.0885 39.1766 39.9278 39.1766C39.5855 39.1766 39.5054 38.9013 39.5054 38.6061V36.9966H40.3031V36.3392H39.5054V35.3599L38.6062 35.6483V36.3392H37.9425V36.9966H38.6062V38.7537ZM40.6988 38.0895C40.6988 39.0824 41.363 39.8743 42.5035 39.8743C43.6503 39.8743 44.3145 39.0824 44.3145 38.0895C44.3145 36.9495 43.5299 36.2586 42.5035 36.2586C41.4839 36.2586 40.6988 36.9495 40.6988 38.0895ZM41.6378 37.9822C41.6378 37.4661 41.9199 36.9563 42.5035 36.9563C43.0939 36.9563 43.3755 37.4525 43.3755 37.9822C43.3755 38.559 43.1944 39.1766 42.5035 39.1766C41.8194 39.1766 41.6378 38.5527 41.6378 37.9822ZM49.4995 37.9822H48.1312L48.809 36.0508H48.8221L49.4995 37.9822ZM46.4814 39.7932H47.4539L47.8627 38.7202H49.7611L50.1636 39.7932H51.2032L49.3654 35.1113H48.3055L46.4814 39.7932ZM52.4442 38.056C52.4442 37.5933 52.6054 36.9563 53.189 36.9563C53.7658 36.9563 53.994 37.5734 53.994 38.056C53.994 38.5459 53.7993 39.1766 53.2021 39.1766C52.6117 39.1766 52.4442 38.5328 52.4442 38.056ZM54.0275 39.7932H54.8995V34.7627H54.0003V36.7412H53.9872C53.7187 36.4125 53.4036 36.2586 52.954 36.2586C51.8941 36.2586 51.5052 37.1034 51.5052 38.056C51.5052 39.0023 51.8941 39.8743 52.954 39.8743C53.3764 39.8743 53.7458 39.7398 54.0139 39.4043H54.0275V39.7932ZM55.8448 39.7932H56.744V36.3387H55.8448V39.7932ZM55.8448 35.7085H56.744V34.8501H55.8448V35.7085ZM59.1721 39.096C58.6555 39.096 58.4074 38.5192 58.4074 38.0497C58.4074 37.5195 58.6021 36.9563 59.2124 36.9563C59.7353 36.9563 59.9635 37.4394 59.9635 38.0293C59.9635 38.6061 59.7353 39.096 59.1721 39.096ZM60.0038 36.3392V36.8087H59.9907C59.7421 36.4125 59.3867 36.2586 58.9308 36.2586C57.8976 36.2586 57.4684 37.2175 57.4684 38.0497C57.4684 38.9751 57.8573 39.7932 58.8769 39.7932C59.3799 39.7932 59.7824 39.5383 59.9499 39.2436H59.9635C59.9635 39.8403 59.9169 40.5851 58.924 40.5851C58.6419 40.5851 58.1928 40.4307 57.918 40.2831L57.8437 41.0478C58.2734 41.2289 58.6827 41.2828 59.0381 41.2828C60.4869 41.2828 60.8627 40.3972 60.8627 39.4582V36.3392H60.0038ZM62.4256 37.7273C62.4654 37.2646 62.7203 36.916 63.2238 36.916C63.7268 36.916 63.9278 37.2913 63.955 37.7273H62.4256ZM64.5585 38.8678C64.223 39.0557 63.8472 39.2164 63.4112 39.2164C62.8548 39.2164 62.4654 38.9013 62.4256 38.3449H64.8134C64.8134 37.1374 64.4507 36.2586 63.1699 36.2586C62.0964 36.2586 61.5667 37.0835 61.5667 38.0832C61.5667 39.2164 62.2309 39.8743 63.3709 39.8743C63.854 39.8743 64.2298 39.7801 64.5585 39.599V38.8678Z" fill="white"/>
</svg>
