<svg width="57" height="78" viewBox="0 0 57 78" fill="none" xmlns="http://www.w3.org/2000/svg">
<g clip-path="url(#clip0_391_8140)">
<path d="M28.2931 20.2318C27.7942 20.2318 27.3895 19.8253 27.3895 19.3275C27.3895 18.8266 27.7942 18.4223 28.2931 18.4223C28.7918 18.4223 29.198 18.8266 29.198 19.3275C29.198 19.8253 28.7918 20.2318 28.2931 20.2318ZM35.1371 11.7062C33.9471 11.8887 32.5433 11.9752 31.1995 12.0099C32.2178 12.1543 33.016 13.5905 33.016 15.34C33.016 16.8303 32.4328 18.0781 31.631 18.5082C31.7726 18.1791 31.8606 17.7377 31.8606 17.2489C31.8606 16.2356 31.4895 15.415 31.0304 15.415C30.5722 15.415 30.202 16.2356 30.202 17.2489C30.202 17.7377 30.2901 18.1791 30.4307 18.5082C29.6304 18.0781 29.0473 16.8303 29.0473 15.34C29.0473 13.6193 29.8194 12.2018 30.8119 12.0185C30.4076 12.0264 30.0115 12.0296 29.631 12.0296C28.5493 12.0296 27.5943 12.0033 26.9441 11.9796C26.6597 11.9697 26.3704 11.9571 26.0789 11.9428C27.0206 12.2018 27.7402 13.5791 27.7402 15.2389C27.7402 16.7676 27.126 18.0427 26.2937 18.4391C26.4425 18.1085 26.5349 17.6516 26.5349 17.1479C26.5349 16.1353 26.1632 15.3146 25.7057 15.3146C25.2473 15.3146 24.8762 16.1353 24.8762 17.1479C24.8762 17.6219 24.9594 18.0486 25.093 18.3741C24.3242 17.9137 23.7714 16.6903 23.7714 15.2389C23.7714 13.5082 24.5529 12.085 25.5556 11.916C24.1921 11.8396 22.8158 11.7269 21.7022 11.5825C20.4218 13.0997 19.6511 15.0591 19.6511 17.1985C19.6511 22.0122 23.5542 25.9155 28.3688 25.9155C33.1834 25.9155 37.0849 22.0122 37.0849 17.1985C37.0849 15.1161 36.3554 13.2052 35.1371 11.7062Z" fill="white"/>
<path d="M4.52252 74.353C4.3307 74.0981 4.23539 73.8942 4.23539 73.7375C4.23539 73.5353 4.31545 73.3736 4.47438 73.251C4.63331 73.1289 4.83372 73.0668 5.07626 73.0668C5.20543 73.0668 5.3448 73.0821 5.49052 73.1109L4.54853 71.303C2.99122 71.409 1.98723 71.8709 1.53611 72.6901C1.4149 72.911 1.35504 73.1124 1.35504 73.2942C1.35504 73.6232 1.43929 73.9141 1.60832 74.1661C1.67538 74.2663 1.83141 74.4389 2.07663 74.6844C2.24631 74.8503 2.33077 74.9939 2.33077 75.1158C2.33077 75.2031 2.29338 75.2738 2.22095 75.3286C2.15035 75.3843 2.06234 75.4118 1.95907 75.4118C1.77865 75.4118 1.57662 75.3453 1.35504 75.2132L1.4683 77.2767C1.96767 77.5813 2.48444 77.7342 3.02292 77.7342C3.61105 77.7342 4.12352 77.5921 4.56088 77.3091C5.03736 76.9967 5.27388 76.5985 5.27388 76.1096C5.27388 75.6825 5.17372 75.2978 4.9702 74.954L4.52252 74.353Z" fill="white"/>
<path d="M8.3959 74.9253C8.3728 73.5806 8.35829 72.7595 8.35324 72.4619C8.0227 72.467 7.77511 72.4692 7.61005 72.4692L5.92401 72.4765C6.00482 73.5467 6.04598 74.4909 6.04598 75.3065C6.04598 76.0316 6.02792 76.8235 5.99117 77.6822L8.4247 77.6295V77.388C8.4247 76.7519 8.4146 75.9312 8.3959 74.9253Z" fill="white"/>
<path d="M12.1548 75.0662C12.0313 75.1607 11.9101 75.2069 11.7919 75.2069C11.646 75.2069 11.5284 75.1486 11.441 75.0309C11.366 74.9307 11.3268 74.8136 11.3268 74.6815C11.3268 74.5517 11.3746 74.4384 11.4706 74.3415C11.5666 74.2449 11.69 74.1952 11.8394 74.1952C12.0472 74.1952 12.1989 74.2825 12.2948 74.4549L14.3566 73.612C14.1344 73.2352 13.8386 72.9385 13.4698 72.7191C13.078 72.4889 12.6427 72.3743 12.1643 72.3743C11.7723 72.3743 11.3717 72.4572 10.9639 72.6254C10.3564 72.8721 9.88428 73.2403 9.54933 73.7273C9.2276 74.1952 9.06641 74.7256 9.06641 75.3154C9.06641 76.0406 9.30174 76.633 9.77317 77.0936C10.2652 77.5807 10.9294 77.8247 11.7673 77.8247C12.4175 77.8247 12.9826 77.6867 13.4627 77.409C13.9425 77.1319 14.2946 76.7363 14.5169 76.2226L12.1548 75.0662Z" fill="white"/>
<path d="M19.754 72.4562L17.7052 72.6105C17.7752 73.2846 17.8097 73.8247 17.8097 74.2302C17.8097 74.3123 17.7773 74.3838 17.713 74.4459C17.6488 74.5087 17.5674 74.5406 17.4728 74.5406C17.3739 74.5406 17.2916 74.5102 17.2296 74.4518C17.166 74.393 17.1343 74.3218 17.1343 74.2373C17.1343 73.7905 17.1767 73.2745 17.2615 72.6901L15.3098 72.2542C15.0139 73.2376 14.8659 74.1498 14.8659 74.9902C14.8659 75.6691 15.0866 76.2273 15.5293 76.6603C15.9906 77.1135 16.6147 77.3415 17.4006 77.3415C18.2514 77.3415 18.935 77.0961 19.4541 76.6068C19.9556 76.1361 20.2059 75.5364 20.2059 74.8075C20.2059 73.9763 20.0551 73.1916 19.754 72.4562Z" fill="white"/>
<path d="M23.216 74.0097C23.1185 74.0942 23.001 74.1367 22.8616 74.1367H22.8608C22.8566 74.1353 22.837 74.1332 22.8034 74.1296L22.7144 73.2938C22.7707 73.2802 22.8196 73.2729 22.8608 73.2729C23.0002 73.2729 23.1185 73.3149 23.216 73.4007C23.3163 73.486 23.3641 73.5883 23.3641 73.7088C23.3641 73.8258 23.3163 73.9261 23.216 74.0097ZM25.9586 76.4442L24.7295 75.1154C25.0224 74.9675 25.2548 74.7373 25.4303 74.4247C25.5941 74.1341 25.6749 73.8343 25.6749 73.5246C25.6749 73.3327 25.6151 73.1265 25.4937 72.9056C25.0413 72.0719 24.0315 71.6562 22.4653 71.6562C21.9444 71.6562 21.377 71.7025 20.7679 71.7962L20.8891 77.3124L23.1201 77.2618L22.9851 75.8898L24.3397 77.5289C24.7519 77.1379 25.2909 76.7761 25.9586 76.4442Z" fill="white"/>
<path d="M31.2444 75.7637L29.1441 75.9334L29.1365 75.6028L30.4318 75.4614L30.3537 74.2376L29.0309 74.2848L28.9884 73.99L31.1009 73.8491L31.0288 72.2678C29.6964 72.3708 28.4796 72.423 27.3783 72.423H26.3895C26.4998 73.2414 26.5842 74.036 26.6419 74.8075C26.6998 75.5335 26.7359 76.4768 26.7531 77.6362L31.4005 77.5293L31.2444 75.7637Z" fill="white"/>
<path d="M36.9026 75.7L34.8031 75.8696C34.78 75.3636 34.7611 74.9827 34.7474 74.7323C34.6456 73.6706 34.5576 72.8752 34.4818 72.344C34.154 72.3541 33.6727 72.3583 33.0362 72.3583H32.0475C32.1573 73.1776 32.2422 73.9715 32.3014 74.7417C32.3577 75.469 32.3947 76.4132 32.4106 77.5723L37.0577 77.4676L36.9026 75.7Z" fill="white"/>
<path d="M42.3846 75.7L40.2842 75.8696C40.262 75.3636 40.2437 74.9827 40.23 74.7323C40.1277 73.6706 40.0397 72.8752 39.9631 72.344C39.6361 72.3541 39.1555 72.3583 38.519 72.3583H37.5295C37.6407 73.1776 37.7252 73.9715 37.7835 74.7417C37.8398 75.469 37.8768 76.4132 37.8927 77.5723L42.5413 77.4676L42.3846 75.7Z" fill="white"/>
<path d="M45.8619 74.5403C45.7862 74.6145 45.6908 74.6521 45.5782 74.6521C45.4629 74.6521 45.3667 74.6145 45.291 74.5416C45.2151 74.4688 45.1761 74.3823 45.1761 74.2848C45.1761 74.1829 45.2151 74.095 45.291 74.0192C45.3667 73.9442 45.4629 73.9058 45.5782 73.9058C45.6908 73.9058 45.7862 73.9442 45.8619 74.0192C45.9376 74.095 45.9759 74.1829 45.9759 74.2848C45.9759 74.3799 45.9376 74.4652 45.8619 74.5403ZM47.8351 72.8579C47.3536 72.2748 46.707 71.9839 45.8949 71.9839C45.4915 71.9839 45.0902 72.0668 44.6868 72.2328C44.0812 72.482 43.6123 72.8499 43.2804 73.3371C42.9591 73.8083 42.7989 74.3367 42.7989 74.9257C42.7989 75.6482 43.0341 76.2406 43.5039 76.7032C43.9982 77.1883 44.6625 77.4314 45.4988 77.4314C46.4052 77.4314 47.1335 77.1689 47.6828 76.6462C48.2118 76.1425 48.4766 75.4994 48.4766 74.7164C48.4766 73.9996 48.2622 73.3789 47.8351 72.8579Z" fill="white"/>
<path d="M50.7212 72.6936C50.5644 72.5809 50.4034 72.5239 50.2368 72.5239C50.068 72.5239 49.9056 72.5809 49.7488 72.6936C49.539 72.8428 49.4335 73.0529 49.4335 73.3228C49.4335 73.5899 49.539 73.798 49.7488 73.9471C49.9056 74.0605 50.068 74.1174 50.2368 74.1174C50.4034 74.1174 50.5644 74.0605 50.7212 73.9471C50.9317 73.798 51.0363 73.5899 51.0363 73.3228C51.0363 73.0529 50.9317 72.8428 50.7212 72.6936Z" fill="white"/>
<path d="M53.811 71.9761C53.6898 71.8159 53.6299 71.6874 53.6299 71.5893C53.6299 71.4637 53.681 71.3612 53.7807 71.2847C53.8811 71.2077 54.0065 71.1691 54.1581 71.1691C54.2389 71.1691 54.3271 71.1786 54.4181 71.196L53.8276 70.0615C52.8498 70.1286 52.2188 70.4187 51.9351 70.9326C51.8594 71.0712 51.8227 71.1966 51.8227 71.3122C51.8227 71.5187 51.8746 71.7004 51.9807 71.8593C52.0234 71.9221 52.1222 72.0309 52.2751 72.1848C52.3805 72.2878 52.4347 72.3782 52.4347 72.4562C52.4347 72.5097 52.4122 72.5543 52.367 72.5882C52.3229 72.6235 52.2666 72.6401 52.201 72.6401C52.0883 72.6401 51.962 72.599 51.8227 72.516L51.8933 73.811C52.2068 74.0028 52.532 74.0981 52.8706 74.0981C53.2395 74.0981 53.5613 74.0093 53.8342 73.8323C54.1337 73.6369 54.2831 73.3858 54.2831 73.079C54.2831 72.8112 54.2186 72.5695 54.0911 72.3543L53.811 71.9761Z" fill="white"/>
<path d="M56.3244 72.2337C56.3101 71.387 56.3005 70.8702 56.2977 70.6833C56.09 70.6863 55.9346 70.6875 55.8307 70.6875L54.7684 70.6913C54.8196 71.366 54.8454 71.9609 54.8454 72.4739C54.8454 72.9299 54.8333 73.428 54.8109 73.9694L56.3433 73.9362V73.7847C56.3433 73.3842 56.336 72.8666 56.3244 72.2337Z" fill="white"/>
<path d="M25.9977 2.63869C25.913 2.47385 25.7123 2.40841 25.5474 2.49341C25.4592 2.53897 23.388 3.64065 22.6928 7.55626C22.66 7.73743 22.7824 7.91034 22.9638 7.9429C22.9833 7.94623 23.0029 7.94806 23.0224 7.94806C23.1822 7.94806 23.3227 7.83533 23.3521 7.67199C23.9821 4.11884 25.8265 3.10217 25.8542 3.08895C26.0173 3.00244 26.0811 2.80171 25.9977 2.63869ZM27.736 3.10539C27.5598 3.04973 27.3721 3.14612 27.3166 3.32396L26.7519 5.11123C26.6965 5.28596 26.7944 5.47369 26.9706 5.53064C27.0048 5.54053 27.0376 5.54547 27.0716 5.54547C27.2138 5.54547 27.3459 5.45413 27.3901 5.31196L27.9548 3.52491C28.0103 3.34857 27.9124 3.16084 27.736 3.10539ZM30.2119 7.31641L29.7648 5.72826C29.7142 5.55031 29.5298 5.44747 29.3519 5.49808C29.1739 5.54698 29.0695 5.73138 29.1201 5.91094L29.5674 7.49748C29.6098 7.64609 29.7436 7.74227 29.8904 7.74227C29.9199 7.74227 29.9509 7.73743 29.9802 7.72927C30.1581 7.67865 30.2625 7.49425 30.2119 7.31641ZM33.0861 7.68016C31.8148 2.98127 30.4177 2.18156 30.2625 2.10645L29.9706 2.70865C30.0766 2.77882 31.3007 3.63581 32.4398 7.85489C32.4807 8.0035 32.6145 8.1029 32.7631 8.1029C32.7908 8.1029 32.8201 8.09807 32.8496 8.0899C33.0292 8.04262 33.1335 7.85822 33.0861 7.68016ZM33.0861 7.68016C31.8148 2.98127 30.4177 2.18156 30.2625 2.10645L29.9706 2.70865C30.0766 2.77882 31.3007 3.63581 32.4398 7.85489C32.4807 8.0035 32.6145 8.1029 32.7631 8.1029C32.7908 8.1029 32.8201 8.09807 32.8496 8.0899C33.0292 8.04262 33.1335 7.85822 33.0861 7.68016ZM30.2119 7.31641L29.7648 5.72826C29.7142 5.55031 29.5298 5.44747 29.3519 5.49808C29.1739 5.54698 29.0695 5.73138 29.1201 5.91094L29.5674 7.49748C29.6098 7.64609 29.7436 7.74227 29.8904 7.74227C29.9199 7.74227 29.9509 7.73743 29.9802 7.72927C30.1581 7.67865 30.2625 7.49425 30.2119 7.31641ZM27.736 3.10539C27.5598 3.04973 27.3721 3.14612 27.3166 3.32396L26.7519 5.11123C26.6965 5.28596 26.7944 5.47369 26.9706 5.53064C27.0048 5.54053 27.0376 5.54547 27.0716 5.54547C27.2138 5.54547 27.3459 5.45413 27.3901 5.31196L27.9548 3.52491C28.0103 3.34857 27.9124 3.16084 27.736 3.10539ZM25.9977 2.63869C25.913 2.47385 25.7123 2.40841 25.5474 2.49341C25.4592 2.53897 23.388 3.64065 22.6928 7.55626C22.66 7.73743 22.7824 7.91034 22.9638 7.9429C22.9833 7.94623 23.0029 7.94806 23.0224 7.94806C23.1822 7.94806 23.3227 7.83533 23.3521 7.67199C23.9821 4.11884 25.8265 3.10217 25.8542 3.08895C26.0173 3.00244 26.0811 2.80171 25.9977 2.63869ZM33.0861 7.68016C31.8148 2.98127 30.4177 2.18156 30.2625 2.10645L29.9706 2.70865C30.0766 2.77882 31.3007 3.63581 32.4398 7.85489C32.4807 8.0035 32.6145 8.1029 32.7631 8.1029C32.7908 8.1029 32.8201 8.09807 32.8496 8.0899C33.0292 8.04262 33.1335 7.85822 33.0861 7.68016ZM30.2119 7.31641L29.7648 5.72826C29.7142 5.55031 29.5298 5.44747 29.3519 5.49808C29.1739 5.54698 29.0695 5.73138 29.1201 5.91094L29.5674 7.49748C29.6098 7.64609 29.7436 7.74227 29.8904 7.74227C29.9199 7.74227 29.9509 7.73743 29.9802 7.72927C30.1581 7.67865 30.2625 7.49425 30.2119 7.31641ZM27.736 3.10539C27.5598 3.04973 27.3721 3.14612 27.3166 3.32396L26.7519 5.11123C26.6965 5.28596 26.7944 5.47369 26.9706 5.53064C27.0048 5.54053 27.0376 5.54547 27.0716 5.54547C27.2138 5.54547 27.3459 5.45413 27.3901 5.31196L27.9548 3.52491C28.0103 3.34857 27.9124 3.16084 27.736 3.10539ZM25.9977 2.63869C25.913 2.47385 25.7123 2.40841 25.5474 2.49341C25.4592 2.53897 23.388 3.64065 22.6928 7.55626C22.66 7.73743 22.7824 7.91034 22.9638 7.9429C22.9833 7.94623 23.0029 7.94806 23.0224 7.94806C23.1822 7.94806 23.3227 7.83533 23.3521 7.67199C23.9821 4.11884 25.8265 3.10217 25.8542 3.08895C26.0173 3.00244 26.0811 2.80171 25.9977 2.63869Z" fill="white"/>
<path d="M36.348 10.7704C35.8583 10.9125 35.2659 11.0234 34.6047 11.1115C31.0679 11.5782 25.5008 11.3417 22.269 10.9744C20.9665 10.826 20.0428 10.6561 19.7849 10.5045C19.4617 10.3117 19.3101 10.111 19.3378 9.90875C19.3736 9.63935 19.6934 9.38811 19.8193 9.35372C19.9254 9.3245 20.2664 9.30977 20.88 9.36522C21.107 9.38478 21.2751 9.40434 21.2767 9.40434C21.2817 9.40434 21.2847 9.40595 21.2898 9.40595L24.0466 9.62947L26.4097 9.82053C26.5959 9.83686 26.7559 9.69974 26.7704 9.51524C26.7852 9.33084 26.648 9.16932 26.4636 9.1546L25.2574 9.0566L21.3502 8.74013C21.3387 8.73841 21.3125 8.73508 21.2767 8.73024C21.3567 8.08871 21.6228 6.45844 22.3849 4.86374C23.6644 2.18864 25.6738 0.892679 28.3554 1.01346C31.0418 1.13425 33.0085 2.54122 34.2 5.19493C34.9018 6.75524 35.1189 8.31738 35.1809 8.95559C34.6147 9.0192 34.1086 9.12204 34.0825 9.12688C33.9029 9.16449 33.7854 9.34233 33.823 9.5234C33.8606 9.70479 34.0367 9.82053 34.218 9.78313C34.2245 9.78131 34.9198 9.63935 35.5645 9.59207C36.1733 9.54812 36.369 9.61324 36.4148 9.6328C36.6221 9.73069 36.9681 9.92509 36.9501 10.1502C36.9305 10.4148 36.5177 10.7231 36.348 10.7704ZM36.6957 9.02737C36.5062 8.93915 36.2338 8.89992 35.8501 8.90809C35.7865 8.23421 35.5662 6.60845 34.8201 4.93875C33.5358 2.06635 31.3095 0.476488 28.3847 0.344206C25.4517 0.21375 23.1684 1.67617 21.7811 4.5765C20.9632 6.28694 20.689 8.0007 20.6091 8.67308C20.1538 8.64535 19.829 8.65674 19.643 8.70735C19.2872 8.80536 18.7517 9.24433 18.6751 9.81902C18.6293 10.1584 18.724 10.6528 19.4438 11.0805C19.7687 11.2733 20.6091 11.443 21.7009 11.5849C22.8158 11.7286 24.1917 11.8411 25.5545 11.9178C25.6214 11.9064 25.6883 11.8998 25.757 11.8998C25.8664 11.8998 25.9739 11.9163 26.0785 11.944C26.3706 11.9585 26.6595 11.9718 26.9433 11.9814C27.5949 12.0043 28.5495 12.0305 29.63 12.0305C30.0103 12.0305 30.407 12.0288 30.8117 12.0207C30.8835 12.0059 30.957 11.9995 31.0305 11.9995C31.0859 11.9995 31.1414 12.0043 31.1968 12.011H31.1986C32.5435 11.9766 33.9471 11.8901 35.1369 11.7072C35.6494 11.6289 36.1226 11.5327 36.5339 11.4152C36.8964 11.3092 37.5704 10.8146 37.6178 10.2025C37.6437 9.87265 37.5036 9.40101 36.6957 9.02737Z" fill="white"/>
<path d="M25.8547 3.08767C25.8279 3.10153 23.9832 4.11917 23.3524 7.67211C23.3236 7.83459 23.1827 7.94785 23.0235 7.94785C23.0038 7.94785 22.9843 7.94656 22.9649 7.9428C22.7829 7.91024 22.6609 7.73702 22.6936 7.5553C23.3892 3.6399 25.4599 2.53769 25.5479 2.4931C25.7126 2.40852 25.9139 2.47375 25.9982 2.63806C26.0821 2.80204 26.0178 3.00256 25.8547 3.08767Z" fill="white"/>
<path d="M32.851 8.09012C32.8216 8.09807 32.7918 8.10247 32.7632 8.10247C32.6158 8.10247 32.4808 8.0035 32.4403 7.85489C31.271 3.52814 30.0152 2.73573 29.964 2.70467L29.9707 2.70747L30.2636 2.10645C30.419 2.18156 31.8162 2.98041 33.0864 7.68016C33.1347 7.85865 33.0293 8.04262 32.851 8.09012Z" fill="white"/>
<path d="M27.9542 3.52594L27.3904 5.3132C27.3457 5.45516 27.2136 5.54693 27.0714 5.54693C27.0382 5.54693 27.0044 5.54188 26.9704 5.53102C26.7944 5.47536 26.6961 5.28784 26.7524 5.11161L27.3162 3.32456C27.3717 3.14778 27.5594 3.05032 27.7363 3.10598C27.9122 3.16143 28.0097 3.34916 27.9542 3.52594Z" fill="white"/>
<path d="M29.9811 7.7292C29.9507 7.7378 29.9206 7.7422 29.8902 7.7422C29.7436 7.7422 29.6096 7.6456 29.5684 7.49827L29.1208 5.91045C29.0704 5.73217 29.1743 5.54734 29.3519 5.49759C29.5302 5.44719 29.7148 5.5511 29.7645 5.72841L30.2121 7.31655C30.2627 7.49461 30.1587 7.67945 29.9811 7.7292Z" fill="white"/>
<path d="M13.0769 59.4759C13.0769 59.0302 12.7149 58.6682 12.2701 58.6682C11.8236 58.6682 11.4608 59.0302 11.4608 59.4759C11.4608 59.9226 11.8236 60.2844 12.2701 60.2844C12.7149 60.2844 13.0769 59.9226 13.0769 59.4759Z" fill="white"/>
<path d="M44.0308 43.9781C44.0308 46.9206 43.0971 49.6609 41.494 51.953L30.7734 29.5738C38.26 30.5921 44.0308 36.6634 44.0308 43.9781ZM39.1607 54.5665C39.0662 54.6504 38.9702 54.7333 38.8736 54.8147C38.6525 54.9318 38.335 54.9908 37.8889 54.9562L28.6959 51.5151V54.5335C28.6959 54.5709 31.8106 55.8434 35.1197 57.1555C33.1227 58.0396 30.8946 58.5347 28.5455 58.5347C26.1306 58.5347 23.8435 58.0123 21.8046 57.0818C25.0554 55.7905 28.0649 54.5608 28.0418 54.5328V51.5145L18.8498 54.9571C18.6766 54.9707 18.5236 54.9694 18.3872 54.9571C18.0503 54.6807 17.7254 54.3904 17.4142 54.088C17.3594 53.4595 17.7422 52.7249 17.7422 52.7249L27.6406 32.1952L28.1436 31.8301V29.4273C28.277 29.4237 28.4113 29.4222 28.5455 29.4222C28.5621 29.4222 28.5787 29.4231 28.5953 29.4231V31.8323L29.0968 32.1939L38.9954 52.7218C38.9954 52.7218 39.6183 53.9215 39.1607 54.5665ZM13.0587 43.9781C13.0587 42.1585 13.4167 40.4164 14.0684 38.8091C15.0341 38.3118 15.8071 38.0088 15.8071 38.0088C15.8671 37.1868 15.7718 36.5292 15.5958 36.0052C17.9103 32.6946 21.6221 30.321 25.9372 29.6301L15.39 51.65C13.9133 49.4213 13.0587 46.7921 13.0587 43.9781ZM52.2276 27.5604C51.3414 27.8758 49.0896 29.04 48.6975 28.8529C48.3065 28.6673 51.6308 27.4138 52.6194 26.962C53.1621 26.7137 53.3376 25.8779 52.1604 26.1292C51.2011 26.3332 48.3996 27.8802 48.2777 27.839C48.1533 27.7985 50.0163 26.5808 51.3673 25.2926C51.5722 25.0971 51.7765 24.3827 50.7876 24.7111C49.8178 25.0335 46.212 27.9039 46.0582 28.0265C46.1557 27.9314 47.7169 26.3976 47.8987 25.78C48.0842 25.1404 47.7147 24.6034 46.7844 25.2414C45.8561 25.8787 43.4688 28.5181 43.1908 28.8241C42.1998 29.9176 39.6601 31.2737 39.6601 31.2737C39.6601 31.2737 39.6429 31.3357 39.6284 31.4453C36.8612 29.2477 33.4757 27.9422 29.8684 27.6851L29.5993 27.1221C29.5315 27.3321 29.4521 27.5082 29.3691 27.6563C29.2152 27.649 29.0616 27.6446 28.9071 27.6418C29.0653 27.4946 29.164 27.2853 29.164 27.0522C29.164 26.6055 28.8032 26.2439 28.3565 26.2439C27.9097 26.2439 27.5488 26.6055 27.5488 27.0522C27.5488 27.291 27.6529 27.5047 27.8179 27.6528C27.6716 27.6585 27.525 27.6656 27.3794 27.675C27.292 27.5234 27.2081 27.3416 27.1381 27.1229L26.8544 27.7149C22.8886 28.0771 19.2085 29.7103 16.3512 32.4052C15.6721 33.0463 15.0579 33.7311 14.5079 34.4521C14.1153 34.1541 13.7878 34.0595 13.7878 34.0595C13.7878 34.0595 11.3084 35.5239 9.85917 35.8025C9.45448 35.8811 5.9599 36.5495 4.93076 37.0107C3.90301 37.4733 4.17005 38.0695 4.81148 38.2412C5.42421 38.4055 7.48786 37.8884 7.68043 37.8406C7.40469 37.9416 3.16885 39.502 2.39879 40.1552C1.6037 40.8308 2.32024 41.0271 2.59512 40.954C4.39668 40.4668 6.40381 39.5086 6.37405 39.6362C6.34675 39.7633 3.56871 41.3519 2.89601 42.0648C2.06911 42.9402 2.87527 43.2245 3.36808 42.8905C4.27031 42.2797 7.0678 40.0909 7.02353 40.5225C6.97969 40.954 4.81459 42.2734 4.08333 42.866C3.22011 43.5674 3.83499 44.0718 4.33532 43.8243C5.17533 43.4095 7.7808 41.3742 7.78015 41.6145C7.78015 41.8555 6.0349 43.0334 5.6733 43.4671C4.966 44.3122 5.97225 44.4242 6.50106 44.025C6.90973 43.7163 9.92505 41.8231 11.5382 40.4374C11.5952 40.3882 11.6544 40.3391 11.7134 40.2916C11.4232 41.4866 11.2739 42.7215 11.2739 43.9781C11.2739 47.4439 12.4062 50.742 14.5043 53.4991L12.4178 57.8548C12.4178 57.8548 14.7794 57.309 13.8736 60.0286C13.8268 60.1708 16.5302 59.1532 19.5875 57.9558C22.2608 59.496 25.3368 60.3195 28.5455 60.3195C31.6972 60.3195 34.7201 59.5257 37.36 58.0382C40.3298 59.1994 42.9102 60.1679 42.8631 60.0286C41.9595 57.3107 44.3211 57.8548 44.3211 57.8548L42.3688 53.7793C44.6055 50.9667 45.8157 47.5614 45.8157 43.9781C45.8157 40.5586 44.7137 37.3007 42.6689 34.5661C43.4945 34.004 44.9411 33.1003 46.2792 32.6658C48.3014 32.009 51.4863 30.4155 51.9619 30.2264C52.5768 29.9825 53.0062 29.0644 51.9151 29.2296C51.3572 29.3142 49.4445 30.1931 49.2374 30.069C49.0325 29.9434 52.1235 28.7756 52.916 28.2725C53.3868 27.9732 53.2756 27.1858 52.2276 27.5604Z" fill="white"/>
<path d="M43.5115 59.8787C43.5115 60.3243 43.8733 60.6862 44.3198 60.6862C44.7666 60.6862 45.1268 60.3243 45.1268 59.8787C45.1268 59.4321 44.7666 59.071 44.3198 59.071C43.8733 59.071 43.5115 59.4321 43.5115 59.8787Z" fill="white"/>
<path d="M50.6486 62.7926C50.7265 62.654 50.9504 62.7875 50.9994 62.8432C50.9143 62.9889 50.8177 62.7283 50.6486 62.7926ZM50.6486 61.9887C50.6675 61.8934 50.7129 62.0204 50.6984 62.089C50.6789 62.1841 50.635 62.0571 50.6486 61.9887ZM49.2925 62.1892C49.3742 62.0796 49.6398 62.2066 49.6432 62.34C49.5315 62.2851 49.3916 62.2562 49.2925 62.1892ZM48.9403 61.2345C48.7238 61.4185 49.3387 61.0034 48.9403 61.2345V61.2345ZM48.4388 62.6418C48.3479 62.6353 48.3328 62.7031 48.2372 62.6916C48.3435 62.4729 48.8242 62.6916 48.7894 62.9418C48.8406 62.9095 48.8414 62.8272 48.9403 62.8432C48.9324 63.1491 48.4012 62.8619 48.4388 62.6418ZM48.1868 61.7871C48.0491 61.7864 48.0678 61.5496 48.1371 61.4862C48.2308 61.5584 48.3977 61.559 48.4388 61.6869C48.4531 61.819 48.3681 61.8516 48.2372 61.837C48.4525 61.7902 48.2093 61.546 48.1868 61.7871ZM48.0361 62.4403C48.0988 62.462 48.1392 62.5048 48.1371 62.5905C48.075 62.5688 48.0332 62.5263 48.0361 62.4403ZM47.4838 60.833H47.3836V60.7327H47.4838V60.833ZM46.9304 60.9334C47.0963 60.9515 47.1822 61.0502 47.2826 61.1348C47.2398 61.453 46.7224 61.1535 46.9304 60.9334ZM56.3748 63.696C56.3389 63.4905 56.1633 63.5149 56.0739 63.3952C55.7902 63.0171 55.7925 62.5118 55.1191 62.3899C54.5185 62.2816 53.6819 62.5124 53.0094 62.4403C52.5619 62.3921 52.214 62.2961 52.0047 62.089C51.9328 62.2382 51.7428 61.9568 51.7536 62.1892C51.7054 61.9488 51.493 62.1856 51.602 61.9381C51.14 61.9704 51.006 61.7512 50.749 61.4862C50.5115 61.5059 50.3295 61.4697 50.1464 61.4349C49.9796 61.2503 49.8158 61.0619 49.7436 60.7826C49.4145 60.8274 49.2326 60.7247 49.0911 60.5819C49.0198 60.5149 49.0198 60.2976 49.0911 60.2305C48.9049 60.2558 48.9651 60.3156 48.991 60.1295C48.8032 60.1865 48.7764 59.9987 48.4388 59.9792C48.2454 59.736 48.018 59.5282 47.7849 59.3259H47.584C47.2002 59.8125 46.6308 60.1143 46.3282 60.6823C46.1942 60.6974 46.4619 60.4874 46.2282 60.5307C46.1009 60.5733 46.1572 60.7954 46.0772 60.883C45.3771 61.1499 44.4924 61.8839 43.6652 61.4862C43.1889 61.2567 43.1752 60.6476 42.761 60.2802C42.3055 60.2434 42.1835 60.5395 41.8067 60.5819C41.7447 60.9328 41.5247 61.1934 41.405 61.5368C41.2777 61.8998 41.2979 62.3012 41.1543 62.6418C41.0506 62.8857 40.7777 63.0798 40.7017 63.3448C40.566 63.8232 40.7632 64.3234 40.7017 64.802C40.6736 65.0156 40.4781 65.1243 40.501 65.3539C41.1226 66.3816 43.1173 66.1378 44.8712 66.2077C45.1757 66.2192 45.4248 66.293 45.6253 66.2584C45.8802 66.2142 45.946 66.0223 46.1776 65.9566C46.4966 65.8665 46.9687 65.8867 47.2826 65.9566C47.4874 66.002 47.6615 66.2065 47.9357 66.2584C48.8002 66.4215 49.9189 66.2186 50.9496 66.2077C51.9882 66.197 53.0252 66.2005 53.8639 66.0576C55.0072 65.8623 55.9122 65.3323 56.6772 64.952V64.7016C56.5574 64.3862 56.4939 64.013 56.3748 63.696Z" fill="white"/>
<path d="M9.4501 61.1353C9.55111 61.0511 9.63697 60.952 9.80289 60.9339C10.0108 61.154 9.4933 61.4535 9.4501 61.1353ZM9.34973 60.8338H9.24937V60.7332H9.34973V60.8338ZM8.59687 62.5911C8.59418 62.5051 8.63448 62.4625 8.69745 62.4408C8.70035 62.5266 8.65823 62.5694 8.59687 62.5911ZM8.49586 61.8376C8.3654 61.8519 8.28019 61.8195 8.29448 61.6874C8.33585 61.5596 8.50241 61.5589 8.59687 61.4868C8.66554 61.5503 8.68424 61.7869 8.54647 61.7876C8.52423 61.5467 8.28083 61.7907 8.49586 61.8376ZM8.29448 62.6422C8.33209 62.8625 7.80103 63.1496 7.79297 62.8438C7.89194 62.8277 7.89333 62.91 7.94459 62.9426C7.90913 62.6921 8.3898 62.4734 8.49586 62.6921C8.40054 62.7036 8.38561 62.6358 8.29448 62.6422ZM7.79297 61.2348C7.39461 61.0039 8.0095 61.419 7.79297 61.2348V61.2348ZM7.08997 62.3407C7.09351 62.2071 7.35937 62.0801 7.44082 62.1897C7.34196 62.2569 7.20205 62.2859 7.08997 62.3407ZM6.03471 62.0896C6.02107 62.0209 6.06598 61.8937 6.08468 61.989C6.09854 62.0576 6.05427 62.1849 6.03471 62.0896ZM5.73393 62.8438C5.78293 62.788 6.00677 62.6545 6.08468 62.7932C5.91586 62.7288 5.81904 62.9894 5.73393 62.8438ZM16.0316 64.8025C15.9695 64.3237 16.1673 63.8237 16.0316 63.3453C15.9556 63.0803 15.683 62.8863 15.5791 62.6422C15.4354 62.3017 15.4556 61.9003 15.3286 61.5374C15.2089 61.1939 14.9886 60.9333 14.9258 60.5824C14.5497 60.54 14.4278 60.244 13.9724 60.2808C13.5583 60.6481 13.5444 61.2573 13.0675 61.4868C12.2411 61.8844 11.3562 61.1505 10.6561 60.8835C10.5761 60.7962 10.6324 60.5738 10.5054 60.5312C10.2714 60.4881 10.5393 60.6977 10.4048 60.6826C10.1024 60.1148 9.53306 59.8131 9.149 59.3267H8.94859C8.71465 59.5288 8.48812 59.7365 8.29448 59.9797C7.95684 59.9992 7.93008 60.187 7.74257 60.13C7.76847 60.3161 7.82832 60.2563 7.6422 60.231C7.71366 60.2981 7.71366 60.5154 7.6422 60.5824C7.50068 60.7252 7.31885 60.8279 6.98992 60.7832C6.91749 61.0625 6.75372 61.2508 6.58695 61.4357C6.40384 61.4703 6.2218 61.5064 5.98431 61.4868C5.72813 61.7515 5.59262 61.9711 5.1313 61.9386C5.24026 62.1862 5.02814 61.9493 4.97989 62.1897C4.99063 61.9575 4.80075 62.2388 4.72854 62.0896C4.51932 62.2966 4.17136 62.3926 3.7239 62.4408C3.05067 62.5129 2.21485 62.2821 1.61426 62.3904C0.940161 62.5123 0.943278 63.0174 0.659584 63.3959C0.569963 63.5156 0.394589 63.491 0.358482 63.6966C0.239417 64.0137 0.175801 64.3867 0.0560913 64.7021V64.9525C0.820451 65.3328 1.72601 65.8626 2.86938 66.0582C3.70811 66.2013 4.74509 66.1975 5.78358 66.2083C6.81422 66.2191 7.93309 66.422 8.79782 66.2587C9.07206 66.207 9.24593 66.0028 9.4501 65.9572C9.76485 65.8872 10.2369 65.867 10.5558 65.9572C10.7875 66.0228 10.854 66.2149 11.108 66.2587C11.3084 66.2935 11.5576 66.22 11.8621 66.2083C13.6158 66.1383 15.6108 66.3823 16.2322 65.3546C16.2553 65.1249 16.0597 65.0161 16.0316 64.8025Z" fill="white"/>
<path d="M54.7156 59.4844L54.2017 58.4962C54.2017 58.4703 54.2232 58.4443 54.266 58.4168C54.5877 58.2084 54.7486 57.9094 54.7486 57.5204C54.7486 57.1452 54.5364 56.8722 54.1106 56.7028C53.8075 56.5857 53.4323 56.5274 52.9848 56.5274C52.8737 56.5274 52.7076 56.5303 52.4862 56.5353C52.2652 56.5419 52.1006 56.5446 51.9923 56.5446C51.9701 56.5446 51.9565 56.5347 51.9508 56.515C51.9508 56.4926 51.965 56.4719 51.9923 56.453C52.3172 56.2136 52.6923 56.0936 53.1182 56.0936C53.716 56.0936 54.2074 56.2972 54.5905 56.7028C54.966 57.1026 55.1535 57.6042 55.1535 58.204C55.1535 58.696 55.0069 59.1234 54.7156 59.4844ZM52.8933 57.607C52.8933 57.4909 52.9321 57.4323 53.0096 57.4323C53.283 57.4323 53.4178 57.5133 53.4178 57.6742C53.4178 57.8546 53.283 57.9455 53.0096 57.9455C52.9732 57.9455 52.9393 57.9341 52.9054 57.9123C52.9054 57.8813 52.9039 57.8315 52.8995 57.7616C52.8945 57.6929 52.8933 57.641 52.8933 57.607ZM54.3481 59.8431C54.0119 60.1041 53.6013 60.2349 53.1182 60.2349C52.6255 60.2349 52.1801 60.0587 51.7802 59.7051C51.926 59.6943 52.0797 59.6883 52.2379 59.6883C52.3187 59.6883 52.4399 59.695 52.6009 59.7073C52.7633 59.7202 52.8823 59.7269 52.964 59.7269C52.9884 59.7269 53.0014 59.7168 53.0014 59.6971C53.0014 59.5968 52.9899 59.4468 52.9653 59.2447C52.9422 59.0433 52.9298 58.8926 52.9298 58.792C52.9298 58.7676 52.9358 58.7264 52.9466 58.6716C52.9833 58.6767 53.1293 59.0015 53.3848 59.6474C53.3983 59.6864 53.4358 59.7051 53.4937 59.7051C53.5688 59.7051 53.679 59.7029 53.825 59.6971C53.9714 59.6914 54.081 59.6883 54.1561 59.6883C54.3344 59.6883 54.4239 59.7044 54.4239 59.7345C54.4239 59.7681 54.3987 59.8042 54.3481 59.8431ZM51.6041 59.5174C51.259 59.106 51.0881 58.6687 51.0881 58.204C51.0881 57.6568 51.2584 57.1891 51.6005 56.8023C51.6387 57.2252 51.6582 57.6663 51.6582 58.1245C51.6582 58.3331 51.6411 58.7971 51.6041 59.5174ZM55.0069 56.2979C54.4911 55.7754 53.8603 55.5142 53.1182 55.5142C52.3815 55.5142 51.7536 55.776 51.233 56.3C50.7135 56.8247 50.4537 57.4562 50.4537 58.196C50.4537 58.9271 50.7143 59.5543 51.2374 60.0768C51.7608 60.5993 52.3865 60.8607 53.1182 60.8607C53.8553 60.8607 54.4838 60.6008 55.0035 60.0803C55.523 59.561 55.783 58.9321 55.783 58.196C55.783 57.4535 55.5254 56.8212 55.0069 56.2979Z" fill="white"/>
</g>
<defs>
<clipPath id="clip0_391_8140">
<rect width="57" height="77.9073" fill="white"/>
</clipPath>
</defs>
</svg>
