<svg width="139" height="37" viewBox="0 0 139 37" fill="none" xmlns="http://www.w3.org/2000/svg">
<path d="M66.8628 0.81543L18.4868 0.819134C18.4877 0.819134 18.4905 0.823146 18.4905 0.823146C14.8198 0.823146 11.6664 3.0173 10.2948 6.14634L0.745633 29.1487C0.719707 29.2089 0.7052 29.2734 0.7052 29.3419C0.7052 29.6175 0.932053 29.8407 1.21169 29.8407L23.0557 29.8397C24.6079 29.8397 25.2844 28.3443 24.0733 27.1521L16.0507 19.6461C11.8343 15.5131 13.6426 5.92936 22.3986 5.92936H65.1603C65.3816 5.92936 65.572 5.78862 65.6396 5.59294L67.3316 1.50432C67.3557 1.44661 67.3678 1.38148 67.3678 1.3142C67.3678 1.03889 67.1437 0.81543 66.8628 0.81543Z" fill="white"/>
<path d="M62.0412 12.5239L53.8297 12.5326C53.2757 12.5326 52.8001 12.8668 52.601 13.3458L43.4003 35.5784C43.3642 35.6466 43.3429 35.7269 43.3429 35.8087C43.3429 36.0831 43.5697 36.3062 43.8475 36.3062L46.9136 36.3074L46.9124 36.3043C50.6346 36.3043 53.8473 34.0497 55.1871 30.8509C55.1871 30.8509 55.1927 30.8543 55.1976 30.858L62.5103 13.207C62.5325 13.1495 62.5464 13.0875 62.5464 13.0227C62.5464 12.7458 62.3199 12.5239 62.0412 12.5239Z" fill="white"/>
<path d="M45.8996 13.0227C45.8996 12.7458 45.6721 12.5239 45.3931 12.5239H22.1102C20.8485 12.5239 19.7429 14.0764 21.0799 15.3076L28.7723 22.4654C28.7723 22.4654 31.8877 25.3358 31.2195 29.4429C30.6303 33.059 28.1627 35.2729 26.3778 36.0695L26.3729 36.0707C26.33 36.0923 26.3016 36.1355 26.3016 36.1821C26.3016 36.2513 26.3571 36.3074 26.4284 36.3074L35.4014 36.3087C35.9566 36.3087 36.4328 35.9747 36.6304 35.4954L45.8656 13.2002C45.8872 13.1437 45.8996 13.0847 45.8996 13.0227Z" fill="white"/>
<path d="M91.1034 25.3822C90.5161 24.5381 89.5778 24.4446 89.1938 24.4446C87.5055 24.4446 86.4972 25.7785 86.4972 27.0687C86.4972 28.5511 87.6818 29.7116 89.1938 29.7116C89.5741 29.7116 90.5096 29.6181 91.1034 28.7792V29.5989H91.8099V24.5804H91.1034V25.3822ZM89.1938 29.069C88.0595 29.069 87.2037 28.2205 87.2037 27.0958C87.2037 25.7776 88.2052 25.0872 89.1938 25.0872C90.2667 25.0872 91.1392 25.985 91.1392 27.0869C91.1392 28.1977 90.2846 29.069 89.1938 29.069Z" fill="white"/>
<path d="M96.8847 27.2326C96.8847 28.1125 96.6461 28.4239 96.3794 28.69C96.1189 28.9508 95.7841 29.0783 95.356 29.0783C94.8797 29.0783 94.5029 28.9239 94.235 28.6215C94.0029 28.331 93.8899 27.9122 93.8899 27.3409V24.5801H93.1837V27.3498C93.1837 28.0607 93.3322 28.6045 93.6257 28.9659C93.8519 29.2477 94.3769 29.7209 95.356 29.7209C96.3371 29.7209 96.7779 29.1579 96.9208 28.9051V29.5986H97.5912V24.5801H96.8847V27.2326Z" fill="white"/>
<path d="M102.895 25.4005C102.29 24.5384 101.377 24.4434 101.005 24.4434C99.7427 24.4434 98.38 25.46 98.38 27.1042C98.38 28.7144 99.7427 29.7107 101.005 29.7107C101.628 29.7107 102.488 29.4539 102.895 28.7545V29.086C102.895 30.4212 101.95 30.8956 101.141 30.8956C99.939 30.8956 99.4664 30.0378 99.3192 29.6693L99.3103 29.6459H98.567L98.5806 29.6931C99.0809 31.4055 100.673 31.5382 101.149 31.5382C101.285 31.5382 102.494 31.5122 103.142 30.6101C103.602 29.994 103.602 29.3196 103.602 28.7786V24.5792H102.895V25.4005ZM101.005 29.0681C99.9473 29.0681 99.0868 28.1783 99.0868 27.0857C99.0868 25.9838 99.9473 25.086 101.005 25.086C102.067 25.086 102.932 25.9838 102.932 27.0857C102.932 27.8851 102.32 29.0681 101.005 29.0681Z" fill="white"/>
<path d="M110.023 24.4512C109.582 24.4512 108.748 24.6444 108.359 25.3583C107.969 24.6444 107.135 24.4512 106.693 24.4512C106.241 24.4512 105.674 24.6456 105.382 25.0614V24.5777H104.675V29.6012H105.382V26.6966C105.382 26.183 105.471 25.9197 105.603 25.683C105.827 25.304 106.214 25.0947 106.693 25.0947C107.173 25.0947 107.561 25.304 107.784 25.6824C107.917 25.9197 108.005 26.183 108.005 26.6966V29.6012H108.712V26.6966C108.712 26.1833 108.8 25.9203 108.933 25.683C109.157 25.304 109.545 25.0947 110.023 25.0947C110.503 25.0947 110.89 25.304 111.114 25.6824C111.247 25.9203 111.336 26.1833 111.336 26.6966V29.6012H112.042V26.624C112.042 24.9086 110.773 24.4512 110.023 24.4512Z" fill="white"/>
<path d="M115.476 24.4468C114.039 24.4739 112.87 25.6594 112.87 27.0894C112.87 28.5363 114.044 29.7138 115.486 29.7138C116.595 29.7138 117.587 29.0058 117.955 27.9524L117.972 27.9033H117.225L117.216 27.9274C117.027 28.4425 116.457 29.0514 115.477 29.0703C114.531 29.0703 113.663 28.2724 113.597 27.3517H118.099L118.101 27.3178C118.135 26.7261 118.005 26.1925 117.717 25.7314C117.364 25.1168 116.59 24.456 115.476 24.4468ZM113.602 26.7088C113.788 25.6462 114.685 25.09 115.486 25.09C116.255 25.09 117.169 25.5971 117.378 26.7088H113.602Z" fill="white"/>
<path d="M121.258 24.4512C120.517 24.4512 120 24.8132 119.755 25.1567V24.5777H119.049V29.6012H119.755V26.8404C119.747 26.2706 119.908 25.7984 120.206 25.5095C120.602 25.1243 121.111 25.0947 121.258 25.0947C121.404 25.0947 121.913 25.1243 122.309 25.5095C122.605 25.7959 122.768 26.2688 122.768 26.841V29.6012H123.475V26.841C123.475 26.0811 123.258 25.4675 122.849 25.0682C122.422 24.6416 121.932 24.4512 121.258 24.4512Z" fill="white"/>
<path d="M126 22.8276H125.293V24.5783H124.253V25.2224H125.293V29.6024H126V25.2224H127.186V24.5783H126V22.8276Z" fill="white"/>
<path d="M130.198 24.4453C128.76 24.4722 127.592 25.6574 127.592 27.0873C127.592 28.5345 128.765 29.7126 130.207 29.7126C131.317 29.7126 132.309 29.0043 132.676 27.9506L132.693 27.9015H131.947L131.937 27.9253C131.748 28.4407 131.179 29.0491 130.198 29.0685C129.253 29.0685 128.384 28.271 128.319 27.3503H132.821L132.823 27.3157C132.856 26.7247 132.727 26.1907 132.438 25.7299C132.085 25.1148 131.312 24.4543 130.198 24.4453ZM128.323 26.7071C128.509 25.6441 129.406 25.0879 130.207 25.0879C130.977 25.0879 131.889 25.595 132.1 26.7071H128.323Z" fill="white"/>
<path d="M138.129 22.8293V25.3738C137.494 24.5167 136.512 24.4494 136.22 24.4494C134.532 24.4494 133.523 25.7834 133.523 27.0741C133.523 28.5556 134.707 29.7167 136.22 29.7167C136.828 29.7167 137.644 29.4661 138.129 28.7834V29.5985H138.836V22.8293H138.129ZM136.22 29.0726C135.085 29.0726 134.23 28.2254 134.23 27.101C134.23 25.7821 135.231 25.0923 136.22 25.0923C137.293 25.0923 138.165 25.9889 138.165 27.0917C138.165 28.2032 137.311 29.0726 136.22 29.0726Z" fill="white"/>
<path d="M71.8638 22.6555H71.1907V23.6654H71.8638V22.6555Z" fill="white"/>
<path d="M68.9 22.8296H67.4333V23.4639H68.2293V28.9661H67.379V29.6H69.6877V28.9661H68.9V22.8296Z" fill="white"/>
<path d="M72.0218 24.5781H70.5554V25.2133H71.3517V28.9658H70.5372V29.5998H72.8184V28.9658H72.0218V24.5781Z" fill="white"/>
<path d="M74.7887 23.1506C74.3492 23.5441 74.3335 23.9966 74.315 24.5444V24.5799H73.5187V25.2324H74.3245V28.9645H73.5187V29.5991H75.8094V28.9645H74.9946V25.2324H75.8094V24.5799H74.9946L74.9955 24.4722C75.0039 24.1095 75.0119 23.7972 75.3162 23.5685C75.4792 23.4358 75.6888 23.3614 75.9564 23.341L75.9903 23.3382V22.7314L75.9514 22.7345C75.4249 22.7676 75.0662 22.8966 74.7887 23.1506Z" fill="white"/>
<path d="M79.2686 24.5771C77.8748 24.5771 76.7405 25.7395 76.7405 27.1691C76.7405 28.5685 77.8915 29.7065 79.3057 29.7065C80.3159 29.7065 81.2341 29.1145 81.6458 28.1988L81.669 28.1463H80.9443L80.9329 28.1651C80.5958 28.7519 79.9958 29.0874 79.2869 29.0874C78.3097 29.0874 77.5007 28.3411 77.4267 27.3818H81.8514V27.1602C81.8514 25.7117 80.7168 24.5771 79.2686 24.5771ZM77.4294 26.809C77.5597 25.9213 78.3714 25.2049 79.26 25.2049C80.2384 25.2049 81.0474 25.8781 81.1986 26.809H77.4294Z" fill="white"/>
<path d="M84.1416 29.7332C84.6216 29.7332 85.0114 29.344 85.0114 28.864C85.0114 28.3835 84.6216 27.9937 84.1416 27.9937C83.6611 27.9937 83.2715 28.3835 83.2715 28.864C83.2715 29.344 83.6611 29.7332 84.1416 29.7332Z" fill="white"/>
</svg>
