<svg width="148" height="36" viewBox="0 0 148 36" fill="none" xmlns="http://www.w3.org/2000/svg">
<path d="M52.4218 9.65632C52.2677 10.348 52.1235 10.9936 51.9815 11.64C51.8279 12.3399 51.6741 13.0399 51.5244 13.741C51.3437 14.5854 51.1694 15.4313 50.9882 16.2757C50.8382 16.9765 50.6796 17.6754 50.5296 18.3762C50.3493 19.2209 50.1761 20.067 49.996 20.9117C49.8501 21.5946 49.6965 22.2758 49.5498 22.9583C49.3686 23.8028 49.1924 24.6481 49.0115 25.4925C48.8612 26.193 48.7046 26.8925 48.5554 27.5933C48.3717 28.4559 48.1938 29.3197 48.0123 30.183C47.8875 30.7763 47.7643 31.3702 47.6325 31.9622C47.6013 32.1031 47.5394 32.237 47.4869 32.3876C47.0032 32.492 46.5259 32.424 46.053 32.4365C45.5934 32.4484 45.1326 32.4495 44.6729 32.4362C44.2009 32.4224 43.7233 32.4986 43.2661 32.3876C43.168 32.1796 43.2293 31.9975 43.2669 31.8227C43.5655 30.4393 43.876 29.0584 44.1727 27.6745C44.4613 26.3267 44.7351 24.9757 45.0204 23.6274C45.2793 22.4045 45.5475 21.1838 45.8061 19.9609C45.9958 19.0621 46.1734 18.1604 46.3624 17.2616C46.4798 16.7039 46.6118 16.1495 46.7301 15.592C46.94 14.6037 47.1394 13.6128 47.3519 12.625C47.6065 11.4389 47.8745 10.2557 48.1292 9.0696C48.3109 8.22515 48.4772 7.37739 48.656 6.53212C48.899 5.38133 49.1465 4.23109 49.3941 3.08086C49.5371 2.41596 49.6827 1.7519 49.8291 1.08756C49.8407 1.03535 49.8675 0.986454 49.8987 0.906623C50.0076 0.880104 50.1288 0.825411 50.2501 0.824859C51.4832 0.819058 52.7163 0.821267 53.9494 0.824859C54.0199 0.824859 54.0903 0.855242 54.1422 0.867396C54.2704 1.0149 54.232 1.16269 54.2016 1.30523C53.9781 2.34773 53.7519 3.38996 53.5271 4.43219C53.1782 6.04926 52.8296 7.66633 52.4823 9.28368C52.4594 9.39114 52.4489 9.50163 52.4218 9.65632Z" fill="white"/>
<path d="M40.9336 15.3652C41.033 14.9249 41.1281 14.5315 41.2126 14.1359C41.5405 12.6078 41.8645 11.0789 42.1905 9.55046C42.5242 7.98587 42.8614 6.42211 43.191 4.85669C43.4335 3.7048 43.6656 2.55097 43.9037 1.39825C43.9222 1.30848 43.9479 1.21953 43.976 1.13224C44.0387 0.937218 44.1639 0.820648 44.3796 0.822306C44.5086 0.823134 44.6373 0.819817 44.7663 0.819817C45.7423 0.819541 46.7182 0.819541 47.6944 0.819817C47.8231 0.819817 47.9524 0.815675 48.0809 0.824514C48.327 0.841365 48.4085 0.930865 48.369 1.18472C48.3209 1.49328 48.2477 1.79824 48.1822 2.10403C47.8709 3.56006 47.5571 5.0158 47.2469 6.47211C47.0594 7.35329 46.8787 8.23613 46.6911 9.11732C46.4994 10.017 46.3014 10.915 46.1091 11.8145C45.8588 12.9835 45.6144 14.1539 45.3625 15.3224C45.1105 16.4911 44.8489 17.6579 44.5978 18.8267C44.4086 19.7081 44.2329 20.5923 44.0448 21.4741C43.8034 22.6072 43.554 23.7389 43.3109 24.8717C43.1139 25.7886 42.9247 26.7073 42.7261 27.6239C42.5316 28.5222 42.3264 29.4186 42.1311 30.3169C41.9979 30.9276 41.8739 31.5406 41.7446 32.1522C41.7297 32.222 41.7057 32.29 41.6827 32.3698C41.6068 32.3925 41.538 32.4306 41.4692 32.4306C40.1624 32.432 38.8552 32.4298 37.5481 32.424C37.4992 32.424 37.4503 32.382 37.3923 32.3555C37.3321 32.0519 37.4572 31.7721 37.513 31.4903C37.7635 30.2282 38.032 28.9699 38.3019 27.7117C38.7226 25.7527 39.1544 23.7958 39.5723 21.8359C39.9251 20.181 40.2643 18.5231 40.611 16.8668C40.7129 16.3809 40.8195 15.8961 40.9336 15.3652Z" fill="white"/>
<path d="M17.8883 34.5763C17.804 34.9816 17.7319 35.3421 17.6526 35.7009C17.6165 35.8641 17.5056 35.95 17.3373 35.9564C17.2453 35.96 17.1533 35.9605 17.0612 35.9605C15.9749 35.9608 14.8885 35.9625 13.8022 35.9589C13.6415 35.9583 13.4686 36.0006 13.3056 35.8561C13.2868 35.56 13.379 35.2589 13.4404 34.9597C13.7548 33.4286 14.0833 31.8999 14.4119 30.3715C14.8294 28.4296 15.2537 26.4893 15.6714 24.5477C16.004 23.0016 16.3336 21.4547 16.6599 19.9075C16.9521 18.5219 17.2339 17.1344 17.5278 15.7494C17.7835 14.5442 18.0547 13.3423 18.3099 12.1371C18.6642 10.4639 19.0093 8.78856 19.3593 7.11458C19.5173 6.35908 19.6759 5.60359 19.8402 4.84974C19.8712 4.70887 19.9314 4.57434 19.9817 4.426C20.4703 4.32794 20.9482 4.3912 21.4217 4.37987C21.8819 4.36882 22.3424 4.3738 22.8026 4.37849C23.2769 4.38346 23.7528 4.35501 24.2185 4.40086C24.3359 4.61356 24.2749 4.7945 24.2371 4.96853C23.8257 6.87454 23.4083 8.77889 22.9973 10.6849C22.6678 12.213 22.3435 13.7423 22.0192 15.2715C21.6645 16.9446 21.3156 18.6186 20.9582 20.2912C20.6584 21.6939 20.3477 23.0941 20.0471 24.4969C19.7507 25.8813 19.4635 27.268 19.1679 28.6528C18.9143 29.8398 18.6546 31.0256 18.398 32.2121C18.2308 32.9847 18.0643 33.7576 17.8883 34.5763Z" fill="white"/>
<path d="M10.0899 23.6332C10.3229 22.5073 10.5463 21.4267 10.7762 20.3474C10.9562 19.5024 11.1479 18.6599 11.3277 17.8149C11.584 16.6105 11.8312 15.404 12.0878 14.1996C12.3867 12.7963 12.6952 11.395 12.9932 9.99143C13.3561 8.28238 13.7116 6.57166 14.0735 4.86233C14.1033 4.72145 14.1573 4.58554 14.2036 4.43583C14.675 4.32257 15.1346 4.39218 15.5889 4.3803C16.0673 4.36787 16.5464 4.37312 17.0251 4.37892C17.4802 4.38445 17.9381 4.34826 18.4087 4.41455C18.4087 4.55847 18.427 4.66703 18.406 4.76758C18.0224 6.60453 17.6318 8.43983 17.2477 10.2765C16.9993 11.464 16.7618 12.6538 16.5141 13.8413C16.3377 14.6874 16.1494 15.531 15.9715 16.3768C15.7106 17.618 15.4587 18.861 15.1945 20.1016C15.0068 20.9825 14.798 21.859 14.6114 22.7404C14.3637 23.9095 14.1308 25.0821 13.8872 26.2522C13.7073 27.1168 13.5199 27.9798 13.3368 28.8438C13.1462 29.7435 12.9567 30.6435 12.767 31.5432C12.4787 32.9114 12.1914 34.2798 11.9016 35.6474C11.8508 35.8875 11.7789 35.9436 11.5215 35.9582C11.4114 35.9646 11.3006 35.961 11.1901 35.961C10.1773 35.9613 9.16453 35.9621 8.15175 35.9601C7.97068 35.9596 7.78961 35.9461 7.58006 35.9372C7.56285 35.827 7.52429 35.7372 7.54042 35.6588C7.71077 34.8304 7.89218 34.0044 8.06596 33.1765C8.26241 32.2409 8.45177 31.304 8.64881 30.3684C8.81554 29.5767 8.98816 28.7861 9.15937 27.9952C9.30337 27.3301 9.45115 26.6657 9.5935 26.0003C9.75885 25.2271 9.92009 24.4531 10.0899 23.6332Z" fill="white"/>
<path d="M65.0404 4.17176C64.6009 6.18937 64.1727 8.16195 63.7415 10.134C63.7305 10.1843 63.6868 10.2273 63.6435 10.2978C63.1858 10.3884 62.7087 10.3262 62.2361 10.3376C61.7767 10.3483 61.317 10.342 60.8577 10.3392C60.3831 10.3367 59.9082 10.3517 59.4585 10.3293C59.3107 10.1395 59.3776 9.97294 59.4099 9.8188C59.6193 8.81276 59.8361 7.80837 60.0527 6.80371C60.2347 5.96037 60.4207 5.11813 60.6024 4.27479C60.8074 3.324 61.0096 2.37265 61.2126 1.42158C61.2358 1.31385 61.2494 1.20363 61.2795 1.09783C61.3303 0.919937 61.4458 0.817177 61.6399 0.820492C61.6952 0.821321 61.7502 0.81856 61.8054 0.81856C62.9449 0.81856 64.0846 0.823809 65.2241 0.815522C65.5879 0.812759 65.7721 0.869663 65.6616 1.32932C65.4384 2.25718 65.2525 3.19389 65.0404 4.17176Z" fill="white"/>
<path d="M59.2955 0.818502C59.4748 0.820712 59.6046 0.813528 59.7322 0.82734C59.9098 0.846676 59.9993 0.958553 59.972 1.12982C59.9317 1.38368 59.8847 1.63698 59.8308 1.88835C59.5237 3.32587 59.2088 4.76173 58.906 6.20008C58.6563 7.38706 58.4212 8.57707 58.1759 9.76488C58.1395 9.9425 58.0823 10.1154 58.0287 10.3124C57.6643 10.3654 57.3163 10.3331 56.971 10.3386C56.6031 10.3444 56.2348 10.3397 55.8666 10.3397C55.5169 10.3397 55.1672 10.3447 54.8175 10.3383C54.473 10.3323 54.1252 10.3679 53.7811 10.3104C53.7045 10.0734 53.7659 9.87786 53.8065 9.68449C54.0139 8.69558 54.2233 7.70694 54.4377 6.7194C54.5819 6.05479 54.7407 5.39376 54.8827 4.72886C55.0628 3.88414 55.2327 3.03721 55.4064 2.1911C55.4766 1.84885 55.542 1.50577 55.6166 1.16462C55.6697 0.920982 55.779 0.825131 56.042 0.822093C56.7047 0.814082 57.3674 0.818778 58.0298 0.818502C58.4348 0.818226 58.8397 0.818502 59.2955 0.818502Z" fill="white"/>
<path d="M11.475 10.7022C11.3108 11.4469 11.1573 12.1466 11.0037 12.846C10.9486 13.0968 10.8994 13.3493 10.836 13.5979C10.7954 13.757 10.6841 13.8441 10.5132 13.8432C10.4397 13.8427 10.3662 13.8463 10.2927 13.8463C9.17103 13.8465 8.04938 13.8482 6.92776 13.8446C6.78683 13.844 6.64598 13.8167 6.47571 13.7985C6.48825 13.636 6.48496 13.5098 6.50955 13.3891C6.62305 12.8314 6.74534 12.2756 6.86263 11.7184C7.12754 10.4607 7.38885 9.20194 7.65652 7.94481C7.82859 7.13627 8.01041 6.33022 8.18557 5.52251C8.23225 5.30733 8.27183 5.09021 8.31225 4.87364C8.34263 4.71094 8.36655 4.54631 8.49967 4.43084C8.82356 4.37891 12.0655 4.33913 12.5752 4.38471C12.644 4.39106 12.7101 4.42807 12.7916 4.45542C12.8021 5.00872 12.6036 5.51146 12.5076 6.03078C12.4109 6.55424 12.2823 7.07191 12.1689 7.59233C12.0593 8.09452 11.9537 8.59755 11.8419 9.09919C11.726 9.61906 11.6046 10.1378 11.475 10.7022Z" fill="white"/>
<path d="M27.0687 4.37702C28.0791 4.38365 29.0349 4.39001 29.9904 4.3994C30.0224 4.39967 30.0542 4.43089 30.1199 4.46541C30.1199 4.53337 30.1351 4.62259 30.1177 4.70463C29.8177 6.10486 29.5186 7.50564 29.2095 8.90394C28.9081 10.2666 28.5948 11.6268 28.2891 12.9883C28.249 13.1676 28.2321 13.3521 28.1866 13.5295C28.1241 13.7712 28.0451 13.8281 27.8021 13.8444C27.7471 13.848 27.6918 13.846 27.6366 13.846C26.4966 13.846 25.3563 13.8474 24.2163 13.8441C24.0917 13.8435 23.9674 13.8159 23.8168 13.7977C23.8168 13.6516 23.795 13.5239 23.8201 13.4063C24.1201 12.0052 24.4306 10.6064 24.7309 9.20503C25.0309 7.80425 25.3215 6.40154 25.6173 5.00021C25.6588 4.80436 25.6739 4.59856 25.8322 4.40824C26.2093 4.33973 26.6134 4.39415 27.0687 4.37702Z" fill="white"/>
<path d="M36.4209 2.17018C36.2629 2.93534 36.1148 3.65521 35.9629 4.37397C35.7806 5.23747 35.5941 6.09987 35.4107 6.9631C35.2121 7.8976 35.0162 8.83265 34.8165 9.76715C34.7787 9.94449 34.7762 10.1362 34.6411 10.2796C34.2124 10.3616 32.3658 10.3906 30.7316 10.3378C30.626 10.3345 30.5214 10.305 30.3948 10.284C30.4037 10.1356 30.3951 10.0064 30.4219 9.88483C30.6492 8.84343 30.8854 7.80368 31.1147 6.76283C31.3683 5.61426 31.6152 4.4643 31.8691 3.31572C32.0279 2.59779 32.192 1.88069 32.3583 1.16441C32.4149 0.920221 32.4948 0.851716 32.7254 0.826302C32.8166 0.816358 32.9091 0.81912 33.0011 0.81912C34.0502 0.818568 35.0991 0.817184 36.1482 0.820499C36.2908 0.821052 36.4333 0.845086 36.5576 0.856687C36.6869 1.08734 36.6195 1.28374 36.5764 1.47932C36.5289 1.6945 36.4783 1.90914 36.4209 2.17018Z" fill="white"/>
<path d="M40.5324 10.2565C40.3181 11.2731 40.1148 12.2446 39.9073 13.2153C39.8659 13.4097 39.8079 13.6006 39.7568 13.7951C39.2667 13.8918 38.8076 13.8343 38.3521 13.8442C37.8743 13.8547 37.3955 13.85 36.9174 13.8456C36.4602 13.8412 36.0022 13.8663 35.581 13.8304C35.4202 13.6686 35.4749 13.5188 35.5039 13.3804C35.6705 12.5893 35.845 11.7998 36.0138 11.009C36.2169 10.0568 36.4168 9.10407 36.6182 8.15134C36.8497 7.05553 37.0798 5.95888 37.3152 4.86361C37.3455 4.72273 37.4044 4.58766 37.4544 4.43683C37.9378 4.31584 38.4154 4.39457 38.8869 4.38048C39.3466 4.36667 39.8071 4.36915 40.2667 4.37965C40.7393 4.3907 41.2161 4.32965 41.7225 4.42827C41.6711 5.10918 41.4656 5.73789 41.3551 6.38234C41.2465 7.01575 41.0852 7.64004 40.9507 8.26902C40.8123 8.91568 40.6783 9.56372 40.5324 10.2565Z" fill="white"/>
<path d="M6.49033 4.3772C6.66685 4.39184 6.79087 4.40648 6.94333 4.42443C6.94333 4.57387 6.9644 4.70177 6.93996 4.82055C6.7656 5.66693 6.57972 6.51082 6.40185 7.35665C6.20512 8.29198 6.0154 9.22869 5.81826 10.164C5.62475 11.0819 5.42531 11.9985 5.22955 12.9159C5.18731 13.1136 5.15963 13.315 5.10729 13.51C5.03378 13.7838 4.964 13.8354 4.68161 13.844C4.44242 13.8512 4.20287 13.8462 3.96346 13.8462C3.04272 13.8465 2.12198 13.8479 1.20123 13.8448C1.05817 13.8443 0.915167 13.8233 0.797823 13.8136C0.76531 13.7658 0.749344 13.752 0.746139 13.7357C0.735753 13.683 0.714207 13.6258 0.724759 13.5763C1.35302 10.6267 1.98361 7.67791 2.6166 4.7294C2.63911 4.6247 2.6877 4.52526 2.71508 4.44874C2.78223 4.41891 2.81502 4.39184 2.84795 4.39156C4.04456 4.38521 5.2412 4.38134 6.49033 4.3772Z" fill="white"/>
<path d="M131.171 22.8695C130.905 22.8717 130.683 22.8615 130.463 22.875C130.156 22.8938 129.959 22.7836 129.794 22.5054C129.13 21.382 128.439 20.274 127.758 19.1602C127.384 18.5486 127.011 17.9365 126.634 17.3271C126.56 17.2081 126.466 17.1015 126.389 16.999C126.209 17.0611 126.246 17.1879 126.246 17.2871C126.245 18.4826 126.248 19.6784 126.251 20.874C126.252 21.4074 126.256 21.9408 126.256 22.4745C126.256 22.5645 126.241 22.6543 126.231 22.7695C126.122 22.8046 126.023 22.8606 125.922 22.8642C125.61 22.8758 125.297 22.8706 124.984 22.8656C124.835 22.8631 124.744 22.7703 124.719 22.6311C124.696 22.5057 124.693 22.3756 124.693 22.2474C124.692 19.6536 124.692 17.0597 124.693 14.4659C124.693 14.2488 124.665 14.0214 124.858 13.8148C125.274 13.7673 125.709 13.7726 126.179 13.8206C126.311 14.0295 126.452 14.2424 126.583 14.4612C127.569 16.0996 128.552 17.739 129.537 19.3776C129.61 19.4997 129.654 19.653 129.829 19.6713C129.988 19.6027 129.962 19.4599 129.962 19.3378C129.964 18.3812 129.961 17.4246 129.958 16.468C129.956 15.7324 129.95 14.9968 129.947 14.2609C129.946 14.1148 129.936 13.964 130.076 13.8284C130.453 13.7491 130.856 13.7889 131.257 13.8013C131.383 13.8052 131.451 13.9065 131.473 14.0195C131.496 14.1446 131.505 14.2745 131.505 14.4024C131.507 17.0144 131.507 19.6268 131.505 22.2388C131.504 22.3841 131.484 22.5316 131.454 22.6739C131.429 22.791 131.34 22.8576 131.171 22.8695Z" fill="white"/>
<path d="M122.174 33.3803C121.431 32.1729 120.736 30.9828 119.989 29.8337C119.771 29.8812 119.832 30.0379 119.831 30.1492C119.828 31.327 119.831 32.5052 119.834 33.683C119.835 34.217 119.841 34.7507 119.839 35.2844C119.839 35.3924 119.818 35.5004 119.807 35.5993C119.455 35.7374 119.181 35.752 118.401 35.6741C118.366 35.5766 118.311 35.4647 118.287 35.3465C118.266 35.2402 118.278 35.1266 118.278 35.0161C118.278 32.4577 118.278 29.8992 118.279 27.3407C118.28 27.1225 118.248 26.8957 118.41 26.6778C118.785 26.57 119.189 26.6336 119.588 26.6366C119.754 26.638 119.839 26.77 119.917 26.9001C120.171 27.3266 120.427 27.7523 120.683 28.1777C121.518 29.5647 122.352 30.9519 123.189 32.3372C123.243 32.4278 123.32 32.5052 123.42 32.6317C123.476 32.514 123.54 32.4411 123.54 32.3684C123.534 31.3201 123.518 30.2718 123.509 29.2235C123.503 28.4874 123.496 27.7512 123.505 27.0153C123.509 26.7137 123.606 26.6355 123.918 26.6269C124.176 26.6197 124.434 26.6192 124.691 26.6278C124.964 26.6371 125.034 26.7153 125.052 27.0015C125.058 27.0935 125.055 27.1857 125.055 27.2777C125.055 29.8729 125.056 32.4684 125.055 35.0636C125.054 35.7106 125.051 35.7167 124.416 35.7109C124.143 35.7084 123.87 35.6752 123.598 35.6559C123.456 35.4426 123.308 35.233 123.173 35.0156C122.844 34.4841 122.52 33.9488 122.174 33.3803Z" fill="white"/>
<path d="M105.607 28.0363C105.607 30.3719 105.607 32.653 105.607 34.9341C105.607 35.0996 105.611 35.2656 105.598 35.4302C105.583 35.6139 105.5 35.7012 105.318 35.7054C104.934 35.7142 104.55 35.7081 104.156 35.7081C102.931 33.7361 101.767 31.7594 100.501 29.7666C100.443 29.8779 100.394 29.931 100.389 29.9873C100.376 30.152 100.378 30.318 100.379 30.4834C100.383 31.992 100.389 33.5002 100.392 35.0084C100.393 35.2081 100.383 35.4079 100.378 35.5913C100.006 35.7371 99.7273 35.7518 98.9533 35.6733C98.9177 35.5761 98.8616 35.4642 98.8378 35.3463C98.8166 35.2399 98.8293 35.1264 98.8293 35.0159C98.829 32.4773 98.8287 29.9387 98.8301 27.4001C98.8301 27.2352 98.8334 27.0687 98.8558 26.9057C98.8815 26.7178 98.966 26.6361 99.1417 26.6311C99.4541 26.622 99.7671 26.6267 100.079 26.6275C100.242 26.6281 100.355 26.7129 100.436 26.8482C100.655 27.2104 100.875 27.5711 101.093 27.9335C101.974 29.399 102.853 30.8649 103.735 32.3298C103.797 32.4323 103.833 32.5745 103.996 32.5613C104.106 32.5085 104.098 32.4074 104.097 32.321C104.084 31.2367 104.065 30.1522 104.054 29.068C104.047 28.3874 104.044 27.7068 104.055 27.0264C104.06 26.7217 104.158 26.6352 104.458 26.627C104.733 26.6195 105.01 26.6195 105.285 26.6289C105.496 26.6363 105.591 26.7245 105.599 26.933C105.612 27.2822 105.605 27.6322 105.607 28.0363Z" fill="white"/>
<path d="M104.048 1.8728C104.056 1.61949 104.053 1.41646 104.075 1.21619C104.089 1.08222 104.166 0.965371 104.316 0.952388C104.717 0.917859 105.118 0.911783 105.481 0.967582C105.653 1.18857 105.603 1.39851 105.604 1.59546C105.608 3.43656 105.606 5.27738 105.606 7.11847C105.606 7.89165 105.608 8.6651 105.605 9.43828C105.604 9.61866 105.64 9.80954 105.491 9.97832C105.12 10.0573 104.734 10.0059 104.35 10.0123C104.184 10.0151 104.084 9.91534 104.004 9.77943C103.797 9.43165 103.582 9.0883 103.372 8.74273C102.529 7.36018 101.689 5.97597 100.839 4.59729C100.747 4.44812 100.686 4.26139 100.465 4.16554C100.436 4.22796 100.392 4.28459 100.388 4.34398C100.375 4.5089 100.377 4.67519 100.378 4.84065C100.382 6.33176 100.388 7.82287 100.391 9.31398C100.392 9.51342 100.382 9.71286 100.376 9.93688C100.244 9.96782 100.143 10.0093 100.04 10.0123C99.7456 10.0217 99.4509 10.0217 99.1564 10.0128C98.9448 10.0065 98.8633 9.92169 98.8376 9.7112C98.8288 9.63855 98.8291 9.56452 98.8291 9.49104C98.8285 6.83975 98.8282 4.18874 98.8302 1.53773C98.8304 1.40983 98.8426 1.28028 98.8663 1.15487C98.8887 1.03774 98.9691 0.949351 99.092 0.946588C99.4412 0.938301 99.7909 0.93692 100.14 0.946312C100.278 0.949903 100.367 1.04714 100.437 1.16536C100.719 1.63993 101.006 2.11119 101.291 2.5841C102.088 3.90836 102.884 5.2329 103.682 6.55661C103.755 6.67761 103.794 6.83561 104.015 6.84583C104.04 6.77484 104.093 6.69501 104.092 6.61545C104.085 5.56715 104.068 4.51884 104.056 3.47053C104.05 2.95508 104.05 2.43963 104.048 1.8728Z" fill="white"/>
<path d="M26.3297 28.8124C26.3761 28.6069 26.4037 28.4436 26.4429 28.2834C26.4946 28.0718 26.5216 27.8497 26.6703 27.6627C26.7435 27.6528 26.815 27.6345 26.8863 27.6345C28.1732 27.6367 29.4599 27.6409 30.7466 27.647C30.7795 27.647 30.8121 27.6748 30.8665 27.6997C30.9591 27.8826 30.8903 28.0823 30.8497 28.2721C30.6696 29.1162 30.4737 29.9568 30.2897 30.7999C30.0436 31.9297 29.8044 33.0611 29.5594 34.1912C29.4392 34.7464 29.3124 35.3003 29.1854 35.8693C29.0901 35.9003 29.0061 35.9511 28.9221 35.9514C27.6534 35.9569 26.3849 35.9572 25.1162 35.953C25.0325 35.9527 24.9493 35.9063 24.8303 35.8707C25.0477 34.6782 25.3228 33.5213 25.5714 32.3592C25.8214 31.1919 26.0683 30.0239 26.3297 28.8124Z" fill="white"/>
<path d="M89.7101 28.9433C89.7126 29.141 89.7175 29.2883 89.7128 29.4352C89.683 30.3871 89.2438 31.0733 88.3795 31.4838C88.2662 31.5374 88.1601 31.6056 88.0267 31.6805C88.0576 31.7824 88.0728 31.8708 88.1099 31.949C88.6214 33.0279 89.1377 34.1047 89.6476 35.1845C89.7079 35.3121 89.738 35.4538 89.7924 35.6212C89.6764 35.6574 89.5941 35.7027 89.5106 35.7052C89.1982 35.7146 88.8852 35.7041 88.5725 35.7124C88.3568 35.7182 88.2331 35.6168 88.1549 35.4245C88.0717 35.2204 87.9728 35.0226 87.8828 34.8215C87.4922 33.9497 87.1033 33.0771 86.7113 32.2059C86.6513 32.073 86.5781 31.9459 86.5182 31.8299C86.0569 31.7335 85.4213 31.7346 84.9417 31.836C84.9301 31.9838 84.9072 32.1434 84.9066 32.3031C84.9031 33.2412 84.9066 34.1793 84.9042 35.1174C84.9025 35.6999 84.8937 35.7121 84.3257 35.7093C84.0357 35.7079 83.7404 35.7527 83.4755 35.6709C83.3249 35.5162 83.347 35.3452 83.3457 35.182C83.3429 34.7588 83.3445 34.3359 83.3445 33.9127C83.3445 31.7423 83.3443 29.5717 83.3451 27.401C83.3451 27.2359 83.3432 27.0696 83.3592 26.9055C83.3769 26.7232 83.4642 26.6447 83.6423 26.6295C83.7338 26.6218 83.826 26.6254 83.918 26.6254C85.0033 26.6251 86.0887 26.6304 87.174 26.6226C87.5508 26.6201 87.9079 26.6991 88.2444 26.8511C89.1223 27.2472 89.6137 27.93 89.7101 28.9433ZM86.3345 30.5863C86.5732 30.5852 86.8146 30.6078 87.0499 30.5791C87.7126 30.4982 88.2482 30.0336 88.2331 29.2358C88.2195 28.5259 87.6933 27.9704 86.9878 27.9527C86.382 27.9372 85.776 27.948 85.1702 27.9546C85.0854 27.9554 85.0014 27.9991 84.9138 28.0239C84.8274 28.464 84.8696 28.8864 84.8746 29.3048C84.8796 29.7184 84.8039 30.141 84.9484 30.5783C85.3854 30.5808 85.8061 30.5835 86.3345 30.5863Z" fill="white"/>
<path d="M92.5438 20.3926C92.7164 21.1163 93.2009 21.4517 93.8462 21.5429C94.2415 21.5989 94.6572 21.5901 95.0536 21.5362C95.5478 21.4694 95.8903 21.1744 95.9986 20.6611C96.0679 20.3332 96.0028 20.0294 95.7566 19.8001C95.5843 19.6396 95.3868 19.4896 95.1746 19.3918C94.6578 19.1534 94.1255 18.9487 93.6001 18.7297C93.0915 18.5178 92.5824 18.3109 92.1242 17.9933C90.7272 17.0245 90.8996 14.8765 92.4081 14.0876C92.8777 13.8423 93.3774 13.747 93.8904 13.7025C94.3686 13.6608 94.8498 13.6975 95.313 13.821C96.0801 14.0252 96.7436 14.3898 97.1676 15.1036C97.4218 15.5312 97.5077 15.9922 97.493 16.4789C97.4908 16.5488 97.4566 16.6179 97.4312 16.7093C96.9751 16.801 96.527 16.7798 96.0632 16.7259C96.0287 16.5974 95.99 16.4955 95.9751 16.3905C95.8762 15.6955 95.4409 15.2014 94.7478 15.0994C94.3713 15.0442 93.976 15.0605 93.5957 15.1027C93.2095 15.1456 92.9158 15.3688 92.7645 15.745C92.6048 16.1428 92.6603 16.5118 92.9603 16.8148C93.1125 16.9684 93.3006 17.1024 93.4962 17.1938C93.8954 17.3797 94.3111 17.53 94.7194 17.6969C95.1613 17.8778 95.6055 18.0546 96.0436 18.2452C96.4375 18.4162 96.7746 18.6753 97.0516 19.0004C97.4792 19.5023 97.6483 20.078 97.5491 20.7429C97.3731 21.9218 96.6259 22.5389 95.5401 22.8188C95.1149 22.9282 94.6801 23.0055 94.2321 22.9826C93.5247 22.9461 92.8518 22.7914 92.2347 22.4376C91.4054 21.9625 91.0538 21.2114 91.0209 20.2846C91.0184 20.2125 91.0176 20.1274 91.0518 20.0694C91.0935 19.9984 91.1645 19.9216 91.2388 19.8979C91.3402 19.8653 91.4571 19.875 91.567 19.8763C91.8584 19.8799 92.1518 19.8564 92.475 19.9045C92.4982 20.0661 92.5186 20.207 92.5438 20.3926Z" fill="white"/>
<path d="M106.784 19.9782C106.576 19.6749 106.318 19.5001 106.026 19.3771C105.485 19.1487 104.933 18.944 104.397 18.7042C103.944 18.5017 103.48 18.3062 103.071 18.0333C101.936 17.2766 101.699 15.8035 102.502 14.7381C102.777 14.3732 103.138 14.1083 103.557 13.9663C104.857 13.5268 106.131 13.5478 107.309 14.3331C108.076 14.845 108.408 15.5936 108.354 16.512C108.35 16.5805 108.31 16.6471 108.282 16.7283C107.835 16.785 107.401 16.7902 106.945 16.7231C106.917 16.6281 106.87 16.543 106.871 16.4579C106.879 15.6369 106.15 15.1596 105.53 15.0817C105.187 15.0386 104.83 15.0541 104.486 15.0963C104.011 15.1543 103.663 15.5041 103.578 15.9405C103.492 16.3797 103.688 16.7966 104.116 17.0557C104.591 17.3435 105.12 17.5092 105.632 17.7134C106.042 17.8769 106.454 18.0363 106.856 18.2186C107.33 18.4338 107.732 18.7354 108.058 19.1595C108.715 20.0133 108.562 21.6072 107.48 22.3455C107.256 22.4986 106.998 22.6102 106.742 22.708C106.187 22.9207 105.607 23.0223 105.012 22.9765C104.292 22.9209 103.591 22.7734 102.982 22.3555C102.144 21.7806 101.812 20.979 101.928 19.9547C102.397 19.8114 102.848 19.8846 103.327 19.9C103.354 20.0183 103.387 20.1194 103.398 20.223C103.472 20.8937 103.847 21.3458 104.5 21.508C104.988 21.6293 105.489 21.6221 105.98 21.5337C106.579 21.4257 106.933 20.939 106.884 20.3376C106.875 20.2296 106.832 20.1241 106.784 19.9782Z" fill="white"/>
<path d="M110.69 10.1064C110.158 10.1323 109.682 10.0743 109.229 9.91824C107.958 9.48069 107.321 8.4473 107.212 7.27911C107.207 7.22414 107.206 7.16889 107.206 7.11365C107.206 6.02943 107.202 4.94522 107.207 3.86072C107.21 3.31765 107.353 2.8091 107.63 2.3395C108.01 1.69422 108.556 1.25556 109.272 1.0343C109.711 0.898393 110.157 0.791216 110.623 0.825193C111.407 0.882097 112.14 1.08513 112.752 1.60914C113.353 2.1246 113.658 2.79557 113.76 3.56957C113.767 3.62399 113.769 3.67951 113.769 3.73448C113.769 4.89245 113.778 6.05042 113.767 7.20812C113.755 8.44813 112.826 9.75969 111.337 10.0155C111.139 10.0495 110.939 10.0763 110.69 10.1064ZM112.267 5.87888C112.265 5.2173 112.271 4.556 112.26 3.8947C112.251 3.32953 112.027 2.8638 111.576 2.51353C111.223 2.23923 110.815 2.16934 110.382 2.18371C109.562 2.2105 108.954 2.71242 108.787 3.51405C108.75 3.6925 108.723 3.87702 108.721 4.05906C108.716 5.03278 108.713 6.0065 108.725 6.98023C108.727 7.19734 108.761 7.42275 108.827 7.62937C109.014 8.21775 109.415 8.61 110.027 8.71304C110.346 8.76663 110.684 8.72519 111.012 8.70392C111.134 8.69591 111.259 8.63652 111.369 8.57603C111.932 8.26747 112.216 7.77329 112.258 7.14597C112.284 6.76172 112.265 6.37472 112.267 5.87888Z" fill="white"/>
<path d="M86.5929 17.4828C87.1277 17.6958 87.6274 17.883 88.1166 18.0946C88.4025 18.2184 88.6851 18.3596 88.9456 18.5294C90.6342 19.6299 90.0781 21.8103 88.8732 22.4456C87.9663 22.924 87.0194 23.1014 85.9993 22.8959C85.5252 22.8006 85.0689 22.6859 84.6546 22.4304C83.7678 21.8837 83.3756 21.0918 83.4714 20.0567C83.4745 20.0239 83.5038 19.9932 83.5388 19.9275C83.9665 19.8355 84.4153 19.8667 84.8888 19.9103C84.9114 20.017 84.9443 20.1029 84.946 20.1893C84.9581 20.8791 85.3595 21.2793 85.9636 21.4802C86.4965 21.657 87.0583 21.6293 87.6028 21.5177C88.0575 21.4246 88.3859 21.0263 88.4345 20.5929C88.4793 20.1924 88.3472 19.8675 88.0149 19.6335C87.6514 19.3775 87.242 19.2117 86.8338 19.0443C86.2899 18.8211 85.7413 18.609 85.2023 18.3742C84.8294 18.2118 84.4988 17.9808 84.2068 17.6913C83.2165 16.7091 83.4778 14.9191 84.6046 14.2249C85.0728 13.9362 85.573 13.7746 86.1062 13.7183C86.8078 13.6442 87.5047 13.6992 88.1696 13.9578C88.9229 14.2509 89.5016 14.7356 89.7798 15.5204C89.9165 15.9058 89.9671 16.2994 89.8455 16.7182C89.3953 16.7988 88.9613 16.7754 88.503 16.7312C88.4718 16.6201 88.4193 16.5182 88.4177 16.416C88.4064 15.6751 87.7754 15.192 87.1459 15.0964C86.7702 15.0395 86.376 15.0732 85.9932 15.1033C85.6835 15.1276 85.4473 15.3168 85.2802 15.5746C84.9794 16.0386 85.0772 16.6173 85.5194 16.9555C85.8288 17.1919 86.1846 17.3447 86.5929 17.4828Z" fill="white"/>
<path d="M97.4087 35.1908C97.4059 35.3121 97.4059 35.3859 97.4001 35.4591C97.3885 35.6113 97.2988 35.69 97.1521 35.7038C97.0606 35.7124 96.9684 35.7129 96.8764 35.7129C95.1831 35.7135 93.4895 35.7149 91.7962 35.7124C91.3211 35.7118 91.2595 35.6477 91.2371 35.1773C91.2327 35.0853 91.2357 34.9931 91.2357 34.9011C91.2357 32.3979 91.2354 29.8943 91.2365 27.3911C91.2365 27.2259 91.2371 27.0591 91.2581 26.8958C91.2802 26.7265 91.3838 26.642 91.5556 26.6295C91.6655 26.6218 91.7763 26.6251 91.8868 26.6251C93.5066 26.6248 95.1262 26.6251 96.746 26.6251C96.8383 26.6251 96.9303 26.6224 97.0222 26.6268C97.338 26.6425 97.3985 26.7014 97.4062 27.0304C97.412 27.2693 97.4065 27.5088 97.3943 27.7475C97.3882 27.8723 97.3012 27.9488 97.18 27.9607C97.0338 27.9745 96.8861 27.9737 96.7388 27.974C95.6344 27.9748 94.5301 27.9726 93.4257 27.9762C93.245 27.9767 93.0572 27.9378 92.887 28.0345C92.7796 28.4107 92.7658 29.7833 92.8702 30.3565C92.9798 30.3733 93.1011 30.4073 93.2229 30.4081C93.9223 30.4137 94.6218 30.4092 95.3212 30.4123C95.5027 30.4131 95.6886 30.386 95.8905 30.4736C96.0143 30.8382 95.9761 31.2186 95.9289 31.5965C95.9223 31.6495 95.838 31.7208 95.7789 31.7335C95.6546 31.7603 95.5237 31.7592 95.3952 31.7597C94.751 31.762 94.1069 31.7597 93.4627 31.7614C93.2804 31.7617 93.0981 31.7689 92.903 31.7733C92.8658 31.8816 92.818 31.9631 92.8119 32.0479C92.7519 32.8608 92.792 33.9497 92.8892 34.2964C93.0528 34.4036 93.2417 34.361 93.421 34.3619C94.5254 34.3655 95.6297 34.3627 96.7341 34.3641C97.4032 34.3646 97.4032 34.366 97.409 35.0328C97.4092 35.0696 97.4087 35.1063 97.4087 35.1908Z" fill="white"/>
<path d="M118.693 16.6513C118.695 16.962 118.698 17.2178 118.7 17.433C118.858 17.5938 119.012 17.565 119.155 17.5656C119.836 17.5689 120.517 17.5667 121.198 17.5681C121.326 17.5684 121.456 17.5673 121.583 17.5811C121.733 17.5968 121.817 17.6789 121.82 17.8363C121.826 18.1642 121.869 18.4954 121.791 18.8012C121.656 18.9399 121.503 18.9155 121.358 18.9161C120.677 18.9186 119.996 18.9156 119.316 18.9191C119.136 18.92 118.956 18.9379 118.762 18.949C118.65 19.2429 118.703 19.5199 118.695 19.789C118.686 20.0647 118.687 20.3412 118.695 20.6169C118.703 20.8903 118.654 21.168 118.737 21.4326C118.904 21.5707 119.095 21.5221 119.274 21.5229C120.396 21.5271 121.518 21.5232 122.641 21.5268C122.822 21.5276 123.01 21.4881 123.21 21.6055C123.316 21.9793 123.285 22.3729 123.226 22.7952C123.093 22.822 122.971 22.8676 122.849 22.8679C121.064 22.8718 119.279 22.8701 117.494 22.8676C117.422 22.8676 117.35 22.8486 117.25 22.8342C117.215 22.7403 117.161 22.6447 117.145 22.5428C117.126 22.4168 117.136 22.2859 117.136 22.1572C117.135 19.5992 117.134 17.0413 117.138 14.4834C117.138 14.2679 117.084 14.0386 117.244 13.8378C117.29 13.824 117.342 13.7953 117.393 13.7953C119.27 13.7936 121.147 13.7945 123.024 13.7972C123.076 13.7975 123.128 13.8268 123.203 13.8497C123.32 14.237 123.284 14.6292 123.233 15.0055C123.047 15.1593 122.855 15.1124 122.677 15.1129C121.555 15.1171 120.432 15.114 119.309 15.1165C119.129 15.1171 118.942 15.0864 118.78 15.1673C118.752 15.2121 118.717 15.2425 118.716 15.2737C118.706 15.7146 118.7 16.1557 118.693 16.6513Z" fill="white"/>
<path d="M76.0088 20.811C76.482 19.3144 76.9427 17.86 77.4054 16.4062C77.6449 15.6529 77.885 14.8999 78.1305 14.1485C78.2377 13.8209 78.27 13.7941 78.5932 13.7902C79.0874 13.7844 79.5824 13.7786 80.0794 13.798C80.1454 13.9206 80.2133 14.011 80.2457 14.1126C81.147 16.9506 82.0453 19.7895 82.9403 22.6294C82.9544 22.6747 82.924 22.7341 82.9094 22.8151C82.826 22.833 82.7412 22.8653 82.6555 22.867C82.3428 22.8734 82.0299 22.8673 81.7172 22.87C81.505 22.8722 81.3719 22.7839 81.3166 22.5712C81.252 22.322 81.1813 22.0739 81.0995 21.83C81.0362 21.6414 81.0224 21.4298 80.852 21.2596C80.7619 21.2488 80.6542 21.2251 80.5462 21.2248C79.6631 21.2215 78.7797 21.2226 77.8963 21.2226C77.8411 21.2226 77.7858 21.2251 77.7306 21.2253C77.5383 21.2262 77.4212 21.3264 77.3704 21.5057C77.3049 21.7355 77.2488 21.9679 77.1817 22.1969C77.1251 22.3902 77.0582 22.5808 76.9947 22.7756C76.5928 22.9446 76.1845 22.8518 75.7867 22.8651C75.6693 22.8689 75.55 22.812 75.4458 22.7866C75.4356 22.7107 75.4182 22.6709 75.4279 22.6397C75.616 22.0435 75.8071 21.4485 76.0088 20.811ZM78.9173 16.4059C78.0245 19.1923 77.9082 19.6091 77.9184 19.9956C77.9637 20.0135 78.0129 20.0497 78.062 20.05C78.8148 20.0547 79.5675 20.0558 80.3203 20.0536C80.3703 20.0533 80.42 20.0207 80.4901 19.9961C80.4835 19.9223 80.489 19.8489 80.4691 19.7834C80.0769 18.484 79.6819 17.1857 79.2847 15.8882C79.2766 15.8617 79.2319 15.8468 79.1871 15.8134C78.9711 15.9161 79.0242 16.1542 78.9173 16.4059Z" fill="white"/>
<path d="M145.595 21.5344C145.541 21.3294 145.454 21.2264 145.277 21.2261C145.093 21.2258 144.909 21.2228 144.726 21.2225C143.972 21.2222 143.218 21.2186 142.465 21.2244C142.08 21.2275 142.053 21.2581 141.939 21.6429C141.824 22.028 141.705 22.4119 141.595 22.7733C141.15 22.8981 140.572 22.9047 140.092 22.8012C139.953 22.6188 140.082 22.4462 140.133 22.2824C140.419 21.352 140.72 20.4256 141.014 19.4977C141.543 17.835 142.069 16.1721 142.599 14.51C142.671 14.2854 142.758 14.0658 142.83 13.8653C143.273 13.7694 144.147 13.7598 144.692 13.8396C144.735 13.9241 144.798 14.0158 144.831 14.1175C145.735 16.9519 146.637 19.7872 147.536 22.6233C147.551 22.6697 147.525 22.7285 147.519 22.7777C147.372 22.9081 147.2 22.8658 147.041 22.8691C146.784 22.8749 146.526 22.8683 146.269 22.8644C146.08 22.8614 145.961 22.7661 145.908 22.5843C145.81 22.2492 145.709 21.9153 145.595 21.5344ZM143.418 16.708C143.112 17.7058 142.805 18.703 142.504 19.7018C142.475 19.7979 142.482 19.9049 142.469 20.0504C142.923 20.0546 143.342 20.07 143.76 20.0587C144.191 20.0471 144.629 20.1234 145.084 19.9921C145.065 19.8455 145.068 19.7167 145.032 19.5996C144.666 18.4096 144.295 17.2212 143.923 16.0334C143.899 15.9569 143.847 15.8895 143.789 15.7818C143.546 16.0484 143.56 16.3646 143.418 16.708Z" fill="white"/>
<path d="M130.375 34.0656C129.842 34.0656 129.364 34.0633 128.886 34.0664C128.377 34.0697 128.381 34.073 128.243 34.5445C128.135 34.9125 128.016 35.2771 127.903 35.6404C127.455 35.7691 127.032 35.694 126.615 35.7047C126.533 35.7069 126.449 35.6583 126.335 35.6241C126.372 35.4572 126.391 35.3155 126.434 35.1807C126.72 34.2694 127.011 33.3595 127.301 32.4496C127.859 30.6994 128.418 28.9497 128.976 27.1995C129.01 27.0945 129.044 26.9898 129.077 26.8846C129.126 26.7271 129.229 26.6316 129.396 26.6305C129.927 26.6271 130.458 26.61 131.009 26.6429C131.082 26.8133 131.158 26.9586 131.208 27.1128C131.747 28.7914 132.283 30.4718 132.82 32.1515C133.15 33.1835 133.483 34.2147 133.809 35.2481C133.845 35.3644 133.844 35.4926 133.863 35.6412C133.75 35.6691 133.666 35.7056 133.581 35.7072C133.251 35.7141 132.92 35.7094 132.589 35.7097C132.396 35.7097 132.279 35.61 132.227 35.4313C132.165 35.2197 132.113 35.0053 132.049 34.7943C131.981 34.5675 131.904 34.3432 131.831 34.1156C131.345 34.0219 130.886 34.0857 130.375 34.0656ZM129.756 29.4544C129.643 29.8237 129.53 30.1925 129.418 30.5621C129.301 30.9491 129.171 31.3328 129.075 31.7253C128.986 32.0952 128.793 32.441 128.783 32.8515C129.237 32.9391 129.678 32.8979 130.115 32.8929C130.544 32.8882 130.982 32.9598 131.45 32.8253C131.06 31.4701 130.634 30.1621 130.237 28.8456C130.222 28.7975 130.18 28.7569 130.147 28.716C130.138 28.7039 130.115 28.7025 130.078 28.6889C129.861 28.8599 129.898 29.1503 129.756 29.4544Z" fill="white"/>
<path d="M83.346 1.4488C83.3599 1.30792 83.3527 1.20626 83.3936 1.1303C83.4314 1.05986 83.5132 0.9908 83.5894 0.968702C83.6919 0.938868 83.8079 0.951299 83.9181 0.951299C85.594 0.95047 87.2697 0.950195 88.9456 0.952128C89.0903 0.952404 89.2348 0.971187 89.3942 0.982237C89.532 1.39438 89.4881 1.78773 89.4384 2.1659C89.2602 2.32666 89.0674 2.27529 88.8895 2.27612C87.7661 2.28026 86.6429 2.27722 85.5194 2.27943C85.3393 2.27971 85.1592 2.29573 84.9927 2.30346C84.8866 2.71257 84.8678 4.03407 84.9545 4.67078C85.0656 4.68929 85.1866 4.72575 85.3081 4.72686C86.0081 4.73266 86.7078 4.72824 87.4075 4.73128C87.5879 4.73211 87.768 4.74675 87.9641 4.75586C88.0846 5.18292 88.0497 5.57517 87.9984 6.00333C87.8387 6.02267 87.6981 6.05305 87.5572 6.05416C86.8758 6.05941 86.1943 6.05388 85.5131 6.05886C85.333 6.06024 85.1446 6.01742 84.957 6.13372C84.9427 6.19062 84.9106 6.25968 84.9103 6.32874C84.9087 7.04667 84.9109 7.76488 84.9167 8.48281C84.9173 8.53198 84.9562 8.58059 84.9927 8.6654C85.1631 8.67285 85.3432 8.68722 85.523 8.68777C86.628 8.68998 87.7329 8.68805 88.8378 8.68971C89.0188 8.68998 89.1997 8.70048 89.3911 8.70655C89.5298 9.13527 89.49 9.5278 89.4309 9.94823C89.3337 9.97198 89.2483 10.0112 89.1627 10.0115C87.3581 10.0153 85.5534 10.017 83.7485 10.014C83.4372 10.0134 83.3673 9.93662 83.3491 9.62061C83.3405 9.47393 83.3455 9.32615 83.3455 9.17891C83.3455 6.61906 83.3455 4.0592 83.346 1.4488Z" fill="white"/>
<path d="M96.0481 9.61958C95.3556 10.0254 94.6362 10.1353 93.889 10.1033C93.312 10.0787 92.7642 9.93725 92.2631 9.64057C91.359 9.10551 90.9292 8.26852 90.8878 7.26082C90.8389 6.06638 90.8353 4.86642 90.8891 3.67254C90.9532 2.25491 91.848 1.26655 93.2015 0.940869C94.0203 0.743639 94.8081 0.813527 95.5788 1.11131C96.6884 1.53974 97.242 2.39303 97.3677 3.54879C97.4 3.84464 97.2649 3.99684 96.961 4.01314C96.7224 4.02612 96.4823 4.02391 96.2434 4.01563C95.9321 4.00458 95.868 3.93607 95.8116 3.63221C95.7788 3.45349 95.7506 3.26759 95.6782 3.1035C95.4318 2.54496 94.9804 2.26845 94.3813 2.2248C94.2164 2.21292 94.0495 2.21596 93.8843 2.22453C93.1512 2.26347 92.6029 2.7397 92.4656 3.46344C92.4349 3.62476 92.4272 3.79243 92.4267 3.95734C92.4231 4.96974 92.4206 5.98213 92.4283 6.99453C92.43 7.21303 92.4504 7.43761 92.504 7.64893C92.6424 8.19587 93.0106 8.54061 93.5443 8.68729C93.92 8.7906 94.3097 8.78342 94.6909 8.69088C95.3155 8.53923 95.6448 8.10554 95.7923 7.50832C95.8227 7.38512 95.8329 7.25695 95.8522 7.13182C96.0815 6.97933 96.3274 7.05005 96.5602 7.04094C96.797 7.03154 97.0345 7.04425 97.2737 7.04701C97.3124 7.14756 97.3632 7.21524 97.3596 7.27988C97.324 7.89809 97.1522 8.4674 96.7732 8.97181C96.5804 9.2287 96.3414 9.42124 96.0481 9.61958Z" fill="white"/>
<path d="M139.065 13.9016C139.097 14.2875 139.104 14.6353 139.108 14.9831C139.111 15.159 139.017 15.2963 138.922 15.4336C138.367 16.2344 137.813 17.0366 137.258 17.8374C136.524 18.8945 135.787 19.9497 135.055 21.0088C134.966 21.1373 134.839 21.2594 134.87 21.4522C135.032 21.5585 135.2 21.5229 135.359 21.5234C136.371 21.527 137.383 21.5251 138.395 21.5257C138.542 21.5257 138.69 21.5221 138.836 21.5334C139.016 21.5472 139.105 21.629 139.121 21.8096C139.148 22.1209 139.15 22.4325 139.08 22.7637C138.973 22.795 138.873 22.8264 138.771 22.853C138.736 22.8621 138.698 22.8604 138.661 22.8604C136.858 22.8568 135.055 22.853 133.252 22.8469C133.2 22.8469 133.147 22.8217 133.061 22.7997C133.04 22.7063 133.003 22.6046 132.998 22.5013C132.988 22.2809 132.996 22.0599 132.994 21.8392C132.991 21.5712 133.081 21.3425 133.236 21.1224C134.209 19.7384 135.175 18.3495 136.142 16.9615C136.468 16.4938 136.793 16.0259 137.113 15.5543C137.182 15.4538 137.226 15.3369 137.275 15.24C137.144 15.0659 136.985 15.1176 136.847 15.117C135.78 15.1126 134.712 15.1157 133.645 15.1132C133.464 15.1129 133.283 15.098 133.095 15.0894C132.935 14.6673 132.978 14.2751 133.051 13.8541C133.164 13.8306 133.267 13.7908 133.37 13.7906C135.155 13.787 136.939 13.7867 138.724 13.7911C138.829 13.7914 138.934 13.8384 139.065 13.9016Z" fill="white"/>
<path d="M111.702 26.6241C112.236 26.6246 112.714 26.6194 113.192 26.6285C113.444 26.6332 113.514 26.7102 113.527 26.966C113.536 27.1497 113.536 27.3343 113.53 27.5179C113.517 27.916 113.469 27.9679 113.082 27.9726C112.585 27.9787 112.089 27.9721 111.592 27.9759C111.412 27.977 111.231 27.9928 111.078 28.0005C110.923 28.174 110.964 28.3464 110.963 28.5058C110.959 29.3519 110.961 30.1982 110.961 31.0446C110.961 32.3877 110.962 33.7307 110.959 35.074C110.959 35.2713 111.002 35.4812 110.841 35.6721C110.415 35.7483 109.978 35.7182 109.516 35.6878C109.482 35.5829 109.43 35.4851 109.42 35.3831C109.403 35.2191 109.413 35.0525 109.413 34.8868C109.412 32.8263 109.413 30.7656 109.413 28.7049V28.0693C109.269 28.034 109.151 27.9826 109.032 27.9801C108.536 27.9701 108.039 27.9754 107.542 27.9743C107.432 27.974 107.321 27.9776 107.211 27.9671C107.04 27.9511 106.929 27.8613 106.919 27.6917C106.903 27.4171 106.905 27.1406 106.918 26.866C106.925 26.7188 107.02 26.642 107.177 26.631C107.323 26.6205 107.471 26.6243 107.618 26.6241C108.961 26.6238 110.304 26.6241 111.702 26.6241Z" fill="white"/>
<path d="M76.5732 26.6261C78.2464 26.6261 79.8654 26.6247 81.4846 26.6269C82.0247 26.6277 82.0424 26.649 82.0487 27.1827C82.0504 27.3114 82.0548 27.4407 82.0462 27.5691C82.0255 27.8738 81.9418 27.9614 81.6415 27.9688C81.2921 27.9777 80.9424 27.9716 80.5927 27.9721C80.3352 27.9727 80.0775 27.9702 79.8201 27.976C79.7319 27.9779 79.6444 28.0003 79.5499 28.0141C79.4563 28.2279 79.4836 28.4315 79.4833 28.6288C79.4811 30.7265 79.4822 32.8242 79.4817 34.9216C79.4817 35.0874 79.485 35.2534 79.4717 35.418C79.4576 35.594 79.3668 35.6954 79.1914 35.6998C78.8082 35.7094 78.4229 35.7478 78.0585 35.6749C77.8942 35.5045 77.9408 35.3114 77.94 35.1332C77.9356 34.1949 77.9378 33.2565 77.9378 32.3178C77.9378 31.1035 77.9386 29.8892 77.937 28.6746C77.9367 28.4754 77.9248 28.276 77.9176 28.0506C77.769 28.021 77.6486 27.9785 77.5276 27.9763C77.0677 27.968 76.6075 27.9738 76.1475 27.9713C75.9658 27.9702 75.7837 27.9611 75.6398 27.9567C75.4605 27.8401 75.4423 27.6926 75.4277 27.5456C75.3945 27.2084 75.426 26.9807 75.5489 26.6694C75.8605 26.5791 76.1928 26.6457 76.5732 26.6261Z" fill="white"/>
<path d="M79.4816 8.4728C79.4562 8.99848 79.5405 9.47746 79.4109 9.96944C78.9325 10.0404 78.483 10.0321 78.0546 9.9827C77.8894 9.75204 77.9408 9.52415 77.9402 9.30841C77.9366 7.43306 77.938 5.55744 77.938 3.68209C77.938 3.36967 77.9413 3.05697 77.9364 2.74455C77.9344 2.61831 77.9154 2.49262 77.9016 2.33931C77.7665 2.31777 77.6444 2.28296 77.5217 2.28103C77.0621 2.27412 76.6024 2.27772 76.1428 2.27772C75.9607 2.27772 75.7784 2.27772 75.5909 2.27772C75.3431 1.85563 75.4005 1.44984 75.503 1.01643C75.6171 0.993505 75.721 0.954832 75.8248 0.954556C77.7554 0.950965 79.686 0.950967 81.6166 0.953177C81.7241 0.953453 81.8318 0.977207 81.9293 0.989085C82.0962 1.41448 82.0937 1.82331 81.923 2.23352C81.5338 2.32661 81.1288 2.26252 80.728 2.27578C80.3451 2.28821 79.9617 2.28407 79.6001 2.28683C79.4352 2.47964 79.4841 2.6708 79.4838 2.84731C79.48 4.18925 79.4816 5.53147 79.4816 6.87369C79.4816 7.38859 79.4816 7.90321 79.4816 8.4728Z" fill="white"/>
<path d="M109.213 14.7181C109.215 14.4698 109.209 14.267 109.225 14.0659C109.239 13.8822 109.327 13.8043 109.506 13.7911C109.616 13.7828 109.727 13.7869 109.837 13.7869C111.621 13.7866 113.404 13.7861 115.188 13.7872C115.84 13.7875 115.841 13.79 115.842 14.4209C115.844 15.109 115.828 15.1269 115.132 15.133C114.672 15.1369 114.212 15.1311 113.753 15.1352C113.609 15.1366 113.466 15.1562 113.345 15.1656C113.202 15.3836 113.252 15.5918 113.252 15.7893C113.248 17.9224 113.25 20.0552 113.248 22.188C113.247 22.3866 113.284 22.5927 113.169 22.8018C112.728 22.9427 112.276 22.8485 111.839 22.8587C111.684 22.6408 111.726 22.4328 111.725 22.2369C111.721 21.0969 111.723 19.9569 111.723 18.8169C111.723 17.7873 111.725 16.7575 111.721 15.728C111.721 15.5487 111.765 15.3579 111.634 15.1993C111.463 15.0977 111.275 15.1383 111.094 15.1355C110.597 15.1272 110.101 15.1236 109.605 15.1239C109.359 15.1239 109.228 15.0101 109.213 14.7181Z" fill="white"/>
<path d="M32.9385 18.6927C32.644 19.9313 32.4128 21.1379 32.1313 22.3307C32.0023 22.3564 31.9136 22.3892 31.825 22.3895C30.5369 22.3903 29.2488 22.3879 27.9605 22.3821C27.9107 22.3818 27.861 22.3434 27.8193 22.326C27.8 22.2821 27.7674 22.2453 27.7734 22.2166C28.0508 20.886 28.3301 19.5556 28.6143 18.2264C28.6405 18.1032 28.6999 17.9875 28.7521 17.846C29.1173 17.7532 29.485 17.8101 29.8469 17.7999C30.1963 17.7899 30.5463 17.7977 30.896 17.7977C31.2639 17.7977 31.6324 17.7877 32.0001 17.8007C32.3412 17.8129 32.6923 17.7333 33.0363 17.8753C33.07 18.1504 32.9876 18.3979 32.9385 18.6927Z" fill="white"/>
<path d="M100.57 20.1884C100.57 20.9055 100.57 21.5673 100.57 22.2292C100.569 22.3394 100.573 22.4502 100.564 22.5598C100.547 22.772 100.468 22.8612 100.254 22.8673C99.8885 22.8775 99.5219 22.87 99.1968 22.87C99.0189 22.7501 98.9879 22.6062 98.9747 22.4584C98.9647 22.3491 98.9691 22.238 98.9691 22.1278C98.9689 19.5906 98.9683 17.0537 98.9703 14.5165C98.9705 14.2819 98.9283 14.0333 99.1437 13.817C99.5741 13.7742 100.024 13.7513 100.452 13.8333C100.612 14.0643 100.568 14.291 100.568 14.5073C100.571 16.3827 100.57 18.258 100.57 20.1884Z" fill="white"/>
<path d="M114.969 28.476C114.969 28.0166 114.966 27.6122 114.972 27.2081C114.974 27.081 114.99 26.952 115.018 26.828C115.044 26.7109 115.13 26.6311 115.253 26.6316C115.652 26.6333 116.055 26.5755 116.478 26.6819C116.498 26.794 116.532 26.8979 116.534 27.0023C116.541 27.4435 116.538 27.8846 116.538 28.3255C116.538 30.5309 116.538 32.7361 116.538 34.9413C116.538 35.1067 116.541 35.2725 116.531 35.4374C116.522 35.6026 116.451 35.6937 116.306 35.7001C115.904 35.718 115.502 35.7445 115.077 35.6788C115.04 35.5506 114.99 35.4332 114.975 35.3117C114.957 35.1667 114.969 35.0183 114.969 34.8711C114.969 32.7579 114.969 30.6444 114.969 28.476Z" fill="white"/>
</svg>
