<svg width="94" height="30" viewBox="0 0 94 30" fill="none" xmlns="http://www.w3.org/2000/svg">
<path d="M6.24485 0.54981C7.34461 7.10893 8.64073 13.5893 9.81902 20.109H9.89755L13.668 4.63449C13.668 4.63449 13.4717 3.61326 12.9218 1.25683L18.4204 -3.62396e-05C21.7588 15.7103 21.7588 15.8281 22.5051 19.952H22.5836C23.0157 17.2422 24.2332 11.7435 26.04 3.80972C26.4719 1.92456 26.5112 1.414 26.6291 0.54981H31.5777C30.5928 4.27326 29.0684 8.98899 27.8135 13.7328C26.1166 20.1476 24.7358 26.4252 24.1939 28.5928H19.4415L15.6711 12.4111H15.5925L11.3115 28.5928H6.63768C6.33025 27.2811 5.12643 21.516 3.68081 15.3811C2.35619 9.75954 0.807624 3.83644 6.10352e-05 0.54981H6.24485Z" fill="white"/>
<path d="M37.1717 16.6137C38.5522 16.1032 38.7761 15.6319 38.7761 14.8463C38.7761 13.2752 38.0672 11.6257 36.6122 11.6257C34.8212 11.6257 34.0002 14.2571 34.0002 16.8886C34.0002 17.2423 34.0002 17.5564 34.0377 17.792L37.1717 16.6137ZM34.5481 21.2874C34.9206 23.4085 36.1308 25.2937 38.1053 25.2937C39.4094 25.2937 40.6199 24.6391 41.812 23.5788L43.4695 25.6995C41.9047 27.624 39.7267 29.0642 36.8207 29.0642C32.4246 29.0642 28.9821 24.9402 28.9821 19.0097C28.9821 13.3931 32.3825 8.32657 36.9698 8.32657C39.2796 8.32657 41.0679 9.38697 42.1112 11.0365C43.0051 12.4506 43.3768 15.2391 43.5257 17.792L34.5481 21.2874Z" fill="white"/>
<path d="M68.0256 16.6137C69.406 16.1032 69.6298 15.6319 69.6298 14.8463C69.6298 13.2752 68.921 11.6257 67.4658 11.6257C65.6749 11.6257 64.854 14.2571 64.854 16.8886C64.854 17.2423 64.854 17.5564 64.8913 17.792L68.0256 16.6137ZM65.3561 21.2874C65.7289 23.4085 66.9389 25.2937 68.9134 25.2937C70.2174 25.2937 71.4279 24.6391 72.6201 23.5788L74.2776 25.6995C72.7128 27.624 70.5349 29.0642 67.6289 29.0642C63.2327 29.0642 59.7901 24.9402 59.7901 19.0097C59.7901 13.3931 63.1906 8.32657 67.7779 8.32657C70.0876 8.32657 71.8758 9.38697 72.9191 11.0365C73.8131 12.4506 74.1849 15.2391 74.3338 17.792L65.3561 21.2874Z" fill="white"/>
<path d="M44.8758 28.5928C45.0723 27.4145 45.1901 24.351 45.1901 21.3659V8.40496C45.1901 6.79472 45.0723 1.80668 44.8758 0.549814H50.4531V21.3659C50.4531 24.351 50.5707 27.4145 50.7672 28.5928H44.8758Z" fill="white"/>
<path d="M52.3754 28.5928C52.5716 27.4145 52.6896 24.351 52.6896 21.3659V8.40496C52.6896 6.79472 52.5716 1.80668 52.3754 0.549814H57.9524V21.3659C57.9524 24.351 58.0704 27.4145 58.2666 28.5928H52.3754Z" fill="white"/>
<path d="M81.174 8.79777C81.449 9.66183 81.6455 11.115 81.6455 11.6256H81.7239C83.1379 9.54395 84.9053 8.32651 87.7725 8.32651V12.961C87.576 12.9217 87.1048 12.8039 86.4764 12.8039C85.2195 12.8039 84.2377 13.3144 83.4915 14.2571C82.0776 16.0638 82.0382 19.1666 82.0382 21.3659C82.0382 24.351 82.156 27.4145 82.3522 28.5928H76.2252C76.4217 27.4145 76.5396 24.351 76.5396 21.3659V16.0245C76.5396 13.0395 76.2646 9.97605 75.9111 8.79777H81.174Z" fill="white"/>
<path d="M91.5144 5.26658C91.8243 5.26658 92.0772 5.22873 92.0772 4.88085C92.0772 4.57096 91.7736 4.52053 91.5207 4.52053H91.0402V5.26658H91.5144ZM91.0402 6.75266H90.5722V4.15379H91.5651C92.2038 4.15379 92.5451 4.36873 92.5451 4.91883C92.5451 5.38682 92.2542 5.57648 91.8559 5.61446L92.5641 6.75266H92.071L91.4132 5.63345H91.0402V6.75266ZM93.266 5.46894C93.266 4.39401 92.463 3.60997 91.4702 3.60997C90.4646 3.60997 89.6743 4.39401 89.6743 5.46894C89.6743 6.54401 90.4646 7.32805 91.4702 7.32805C92.463 7.32805 93.266 6.54401 93.266 5.46894ZM89.1178 5.46894C89.1178 4.09682 90.218 3.16726 91.4702 3.16726C92.7223 3.16726 93.8225 4.09682 93.8225 5.46894C93.8225 6.8412 92.7223 7.77075 91.4702 7.77075C90.218 7.77075 89.1178 6.8412 89.1178 5.46894Z" fill="white"/>
</svg>
