<svg version="1.2" xmlns="http://www.w3.org/2000/svg" viewBox="0 0 3602 3602" width="3602" height="3602"><style>.a{fill:none}.b{fill:#fff}</style><path class="a" d="m-0.2 1263h3602v1076h-3602z"/><path class="b" d="m2069.5 1640.5c-0.7-18.4-6.9-70.8-56.1-66.5-58.1 5-112.6 59.3-130.2 78.4q-0.7-0.1-1.5-0.1l1.4 0.4h14.3 0.3c11.3-9.7 54.4-44.9 99.4-56.4 48.1-12.2 47.9 35.6 47.5 43.6l0.2 0.1z"/><path class="b" d="m1436.2 2038.9h-28.9l6.9-26h28.9zm-20.9 78h-28.9l17.4-65h28.9z"/><path fill-rule="evenodd" class="b" d="m1530.8 2116.9h-28.9l20.9-78h-72.2l7-26h72.2c9.1 0 15.4 1.3 19.4 3.7 3.1 2.2 4.7 5.4 4.8 9.8 0.1 2.5-0.7 6.6-2.3 12.5zm-72.2 0h-28.9l17.4-65h28.9z"/><path class="b" d="m1653.3 2090.9c-1.5 5.8-2.9 10-4.3 12.5-2.3 4.2-5.6 7.5-10.1 9.6q-7.8 3.9-21.4 3.9h-72.2l17.6-65.7h28.8l-10.6 39.7h43.4l13.9-52h-72.2l6.9-26h72.3c9.1 0 15.4 1.3 19.3 3.7 3.2 2.2 4.8 5.4 4.9 9.8 0.1 2.5-0.8 6.6-2.3 12.5z"/><path class="b" d="m1768.9 2090.9c-1.6 5.8-3 10-4.3 12.5-2.4 4.2-5.7 7.5-10.1 9.6q-7.8 3.9-21.5 3.9h-43.3c-8.9 0-15.4-1.3-19.3-3.8-3.2-2.2-4.8-5.3-4.9-9.7-0.1-2.5 0.7-6.7 2.3-12.5l10.4-39h28.9l-10.4 39h43.3l14-52h-72.3c1.6-5.9 3-10 4.4-12.5 2.3-4.3 5.6-7.6 10.1-9.6 5.1-2.6 12.4-3.9 21.4-3.9h43.3c9.1 0 15.4 1.3 19.4 3.7 3.1 2.2 4.8 5.4 4.9 9.8 0 2.5-0.8 6.6-2.4 12.5z"/><path class="b" d="m1884.5 2090.9c-1.6 5.8-3 10-4.4 12.5-2.3 4.2-5.6 7.5-10.1 9.6q-7.7 3.9-21.4 3.9h-43.3c-9 0-15.4-1.3-19.4-3.8-3.1-2.2-4.8-5.3-4.9-9.7 0-2.5 0.8-6.7 2.4-12.5l10.4-39h28.9l-10.5 39h43.4l13.9-52h-72.2c1.6-5.9 3-10 4.3-12.5 2.3-4.3 5.7-7.6 10.1-9.6 5.2-2.6 12.5-3.9 21.4-3.9h43.4c9.1 0 15.4 1.3 19.3 3.7 3.2 2.2 4.8 5.4 4.9 9.8 0.1 2.5-0.7 6.6-2.3 12.5z"/><path class="b" d="m2010.5 2051.9c-1.6 5.8-2.8 10-4.1 12.5-2 4.2-4.7 7.5-8.2 9.6-4.2 2.6-9.6 3.9-16.4 3.9-1.6 0.2-3 0.5-3.8 0.8-2.7 1.1-4.4 2.9-5.1 5.7-0.7 2.7-0.1 4.5 2.1 5.7 0.6 0.3 1.8 0.5 3.4 0.8h21.6l-6.9 26h-28.9c-9 0-15.4-1.3-19.4-3.8-3.1-2.2-4.8-5.3-4.9-9.7 0-2.5 0.8-6.7 2.4-12.5l1.7-6.5c0.1-1.5 0.1-2.6 0-3.3-0.7-2.2-2.5-3.2-5.5-3.2-3 0-5.3 1-7.2 3.2-0.5 0.7-1.1 1.8-1.8 3.3l-8.7 32.5h-28.9l17.5-65h65c1.6-0.3 3-0.5 3.8-0.8 2.8-1.2 4.4-3 5.1-5.7 0.8-2.8 0.1-4.6-2-5.7-0.7-0.3-1.9-0.6-3.4-0.8h-65.1l7-26h72.2c9.9 0 16.5 2.7 20.3 8q4.6 7 1.7 18z"/><path class="b" d="m1716 1524.4c0 0-22.5 32.3-22.5 46.2 0 0-229 12-369.4 70.3 0 0 124.8-91.1 391.9-116.5z"/><path class="b" d="m1084.4 1737.1c273.6-133 624.1-147.3 624.1-147.3 20-83.1 99.9-115.5 164.8-101.6 64.9 13.8 42.4 85.4 42.4 85.4l-94.9-6.9c0 0 2.5-23.1 7.5-37 5-13.8 72.4-2.3 72.4-2.3-23.1-48.5-102.3-23.1-127.3 0-24.9 23.1-26.4 67-26.4 67l153.7 2.3-29.9 34.7c-336-17.3-613.2 56.6-756.2 105.7z"/><path class="b" d="m1180.5 1737.1c131.6-43.2 303.5-78.3 524.1-87.6 65.6-2.8 126.9-2.7 184.5-0.5l-0.1 0.3h14.4 0.2c0 0-0.1 0.1-0.2 0.2 216.6 9.4 375.8 49.5 481.4 87.6h-22.1l-14.8 55.4q-0.5-0.2-1-0.4c0.7-12-1.7-22.3-6.7-30.9-8.9-15.3-25.2-24.1-50-24.1h-148.5c-118.9-22.2-264.6-36.1-437.1-36.1-142.7 0-268.3 14.3-377 36.1zm1256.1 0c-79.4-37-213.3-78-435-99.6 0 0 18.1-1 49-0.8 0 0 0-0.1 0-0.2l0.2 0.1 24.6 0.5c100.7 2.7 325.8 31.3 479.4 100zm144.9 12.7c22.9 11.7 43.7 24.4 61.6 38.1 137.8 105.9 64.8 222.9-42.4 270.7-124.8 55.7-317 52.7-317 52.7 0 0 211.3-38.6 252.9-140.7 13.1-32.1-5-70.6-54.5-108.3l11.4-42.5h69.2zm-1551.8 77.9q-15.9 6.7-30.6 13.3l8.9-33q14.8-7.6 30.9-15.1-1 4.3-2.5 9.7zm-44.5 19.8c-20.5 9.5-39.2 18.9-56.2 28h-33.7c12.6-9 26.7-18.4 42.3-28 18.7 0 36.4 0 47.6 0zm-145.6 72.1c9.4-8.4 21-18.1 34.8-28.7l-5.1 18.7c-12.8 8-23.8 15.2-32.7 21.4zm262.8-154.2q1.2-0.4 2.3-0.9h107.8c-32.1 8.9-62.4 18.3-90.7 28-15.9 0-26.7 0-26.7 0z"/><path class="b" d="m1005.1 1972.2h-55.4l22.3-83.1h-83.1l-22.2 83.1h-55.4l37.1-138.5h138.4l7.4-27.7h-138.4c3.3-12.4 6.3-21.3 9.1-26.5 4.6-9.2 11.2-16.1 19.8-20.5 10.1-5.6 24.1-8.3 41.3-8.3h83.1c17.4 0 29.4 2.7 36.9 8 5.9 4.7 8.8 11.3 8.8 20.8 0 5.2-1.9 14.1-5.2 26.5z"/><path class="b" d="m1271.1 1806h-193.8l14.8-55.3h193.8zm-77.6 83h-83l-22.3 83.1h-55.4l37.1-138.4h138.5z"/><path class="b" d="m1492.6 1806h-193.8l14.8-55.3h193.8zm-77.6 83h-83.1l-22.2 83.1h-55.4l37.1-138.4h138.4z"/><path class="b" d="m1575.7 1806h-55.4l14.8-55.3h55.4zm-44.5 166.1h-55.4l37.1-138.4h55.4z"/><path fill-rule="evenodd" class="b" d="m1843.2 1972.2h-69.2l-45.1-90-24.2 90h-55.3l37.1-138.5h55.3l91.5-83h69.2l-119.6 110.7zm-94-166.1h-55.3l14.8-55.4h55.4z"/><path class="b" d="m2064.7 1972.2h-55.4l22.3-83.1h-83.1l-22.3 83.1h-55.3l37.1-138.5h138.4l7.4-27.7h-138.4c3.3-12.4 6.2-21.3 9-26.5 4.7-9.2 11.3-16.1 19.9-20.5 10.1-5.6 24.1-8.3 41.3-8.3h83c17.5 0 29.5 2.7 36.9 8 6 4.7 8.9 11.3 8.9 20.8-0.1 5.2-1.9 14.1-5.2 26.5z"/><path class="b" d="m2323.3 1833.7c-3.4 12.5-6 21.3-8.5 26.6-4.2 9.1-9.6 16.1-16.3 20.5-8.2 5.5-18.6 8.3-31.6 8.3-3.2 0.6-5.8 1.1-7.4 1.7-5.3 2.5-8.6 6.3-10.2 12.1-1.5 5.9-0.3 9.7 3.7 12.2 1.2 0.6 3.6 1.1 6.5 1.7h41.5l-14.8 55.4h-55.4c-17.2 0-29.4-2.8-36.9-8.1-5.9-4.7-8.9-11.3-8.8-20.7 0-5.3 1.8-14.2 5.2-26.6l3.7-13.9c0.2-3 0.3-5.5 0.2-6.9-1.3-4.7-4.6-6.9-10.4-6.9-5.8 0-10.2 2.2-14 6.9-0.9 1.4-2.1 3.9-3.5 6.9l-18.6 69.3h-55.3l37.1-138.5h124.5c3.2-0.5 5.9-1.1 7.4-1.6 5.4-2.5 8.6-6.4 10.2-12.2 1.6-5.8 0.4-9.7-3.7-12.2-1.2-0.6-3.5-1.1-6.4-1.7h-124.6l14.8-55.3h138.4c18.9 0 31.4 5.8 38.4 17.1q8.4 15 2.2 38.2z"/><path class="b" d="m2552.2 1806h-69.2l-44.6 166.2h-55.3l44.2-166.2h-68.9l14.8-55.3h193.8z"/><path class="b" d="m1270.5 2065.5h-27.7v26.4h27.7z"/><path class="b" d="m1214.6 2065.5h-27.7v26.4h27.7z"/><path class="b" d="m1324 2065.5h-27.7v26.4h27.7z"/><path class="b" d="m1148.5 2065.5h-27.7v26.5h27.7z"/><path class="b" d="m1052.5 2092h-27.8l-13.6-26.5h27.2z"/><path class="b" d="m942.3 2089.4l-18.9 4.6-7.1-25.1 19-5.1z"/><path class="b" d="m1297.8 2039.5h-27.8v26.4h27.8z"/><path class="b" d="m1242.3 2039.5h-27.7v26.4h27.7z"/><path class="b" d="m1351.7 2039.5h-27.7v26.4h27.7z"/><path class="b" d="m1186.8 2039.5h-27.7v26.4h27.7z"/><path class="b" d="m1105.3 2065.9h-27.7l-7.1-26.4h27.8z"/><path class="b" d="m987.7 2073.5l-27.7-7.6v-26.4l27.7 7.6z"/><path class="b" d="m866.1 2065.9h-12.3l8.4-26.4h12.3z"/><path class="b" d="m2087.2 2039.5h27.7v26.4h-27.7z"/><path class="b" d="m2142.3 2039.5h27.7v26.4h-27.7z"/><path class="b" d="m2197.7 2039.5h27.8v26.4h-27.8z"/><path class="b" d="m2253.7 2039.5h27.8v26.4h-27.8z"/><path class="b" d="m2059.8 2065.5h27.8v26.4h-27.8z"/><path class="b" d="m2114.9 2065.5h27.8v26.4h-27.8z"/><path class="b" d="m2170.4 2065.5h27.8v26.4h-27.8z"/><path class="b" d="m2226 2065.5h27.7v26.4h-27.7z"/></svg>