<svg version="1.2" xmlns="http://www.w3.org/2000/svg" viewBox="0 0 3602 783" width="3602" height="783"><style>.a{fill:none}.b{fill:#fff}</style><path class="a" d="m-0.2-115h3602v1076h-3602z"/><path class="b" d="m261.3 233.1v225.9h14.9v-225.9h84.1v-12.5h-182.7v12.5z"/><path fill-rule="evenodd" class="b" d="m376.6 220.6h100.3c41.4 0 75.3 15.3 75.3 61.3 0 32.1-19.5 55.8-51.1 61.4v0.5c35.3 4.1 44.2 26.5 46.5 51.1 2.3 24.6-1.9 51.6 7.9 64.1h-16.3c-9.3-16.2-3.7-43.7-6.5-66.9-3.2-23.2-14.4-41.8-56.2-41.8h-85.1v108.7h-14.8zm99.9 117.2c34.8 0 60.9-16.3 60.9-54.9 0-36.2-28.9-49.7-60.9-49.7h-85.1v104.6z"/><path class="b" d="m602 446.5v-105.1h137.1v-12.5h-137.1v-95.7h145.4v-12.6h-160.3v238.4h162.2v-12.5z"/><path class="b" d="m774.4 459h14.4v-220.7h0.9l151.5 220.7h17.7v-238.4h-14.9v218.9h-0.4l-151.1-218.9h-18.1z"/><path class="b" d="m978 239.7h83.2v219.3h22.7v-219.3h83.2v-19.1h-189.1z"/><path class="b" d="m1191.3 220.6h22.8v238.4h-22.8z"/><path class="b" d="m1265.7 459h29.7v-191.5h0.9l124.6 191.5h34.8v-238.4h-30.2v193.3h-0.4l-126-193.3h-33.4z"/><path fill-rule="evenodd" class="b" d="m1608.2 214.6c75.7 0 114.3 59.9 114.3 125 0 65-38.6 125-114.3 125-75.8 0-114.3-60.4-114.3-125 0-64.6 38.1-125 114.3-125zm0 223c58.1 0 82.7-49.7 82.7-98 0-47.9-24.6-98.1-82.7-98.1-58.1 0-82.7 49.7-82.7 98.1 0 48.3 24.1 98.5 82.7 98z"/><path class="b" d="m1745.8 379.5c0.9 59.1 45 85.1 99.4 85.1 47.4 0 94.8-21.4 94.8-74.8 0-24.7-14.8-51.6-46.5-60.9-12.5-3.7-65-17.2-68.7-18.6-17.2-4.7-28.4-13.9-28.4-30.7 0-24.1 24.6-31.1 43.7-31.1 28.8 0 49.3 11.6 51.6 42.3h41.8c0-49.8-41.8-76.2-91.5-76.2-43.3 0-87.4 22.3-87.4 70.1 0 24.7 12.1 49.3 53 60.5 32.5 8.8 54.3 13.4 71.1 19.5 9.7 3.7 19.5 11.1 19.5 29.3 0 18.1-13.5 36.2-50.7 36.2-33.4 0-60.4-14.4-60.4-51.1h-41.3z"/><path class="b" d="m2029.3 459h46.4l81.8-238.4h-42.7l-60.9 188.7h-0.9l-59.5-188.7h-43.7z"/><path class="b" d="m2178.9 220.6h52.5v238.4h-52.5z"/><path class="b" d="m2277.5 459h168.7v-44.1h-116.2v-194.3h-52.5z"/><path class="b" d="m2679.9 220.6h-62.2v143.6c0 30.7-11.2 46.5-41.9 46.5-30.6 0-41.8-15.8-41.8-46.5v-143.6h-62.3v139.9c0 69.2 31.6 103.6 104.1 103.6 72.1 0 104.1-34.4 104.1-103.6z"/><path fill-rule="evenodd" class="b" d="m2719 220.6h123.1c64.6 0 87.4 47.4 87.4 81.3 0 58.1-38.6 85.1-93.4 85.1h-43.7v72h-73.4zm73.4 109.7h28.4c19 0 39-1.4 39-25.6 0-21.8-16.7-23.2-34.9-23.2h-32.5z"/><path fill-rule="evenodd" class="b" d="m2953.7 220.6h123.2c64.6 0 87.3 47.4 87.3 81.3 0 58.1-38.5 85.1-93.4 85.1h-43.2v72h-73.9zm74.4 109.7h28.3c19.1 0 39-1.4 39-25.6 0-21.8-16.7-23.2-34.8-23.2h-32.5z"/><path fill-rule="evenodd" class="b" d="m3303.2 214.6c72.5 0 120.8 52 120.8 125 0 72.9-48.3 125-120.8 125-72.5 0-120.8-52.1-120.8-125 0-72.5 48.8-125 120.8-125zm0.5 190.5c18.6 0 47.4-12.5 47.4-65.5 0-53-28.8-65.6-47.4-65.6-18.6 0-47.4 12.6-47.4 65.6 0 53.4 28.3 65.5 47.4 65.5z"/><path class="b" d="m189.2 536.6h12.6v92.1h-12.6z"/><path class="b" d="m309.6 628.7h-12.5v-77.2l-25.6 77.2h-12.5l-26.1-76.7v76.7h-11.6v-92.1h17.7l26.5 78.1 26-78.1h18.1z"/><path fill-rule="evenodd" class="b" d="m340.8 589.2v39.5h-12.1v-92.1h41.3c5.6 0 10.3 1 14.5 3.3 4.1 2.3 7.4 5.6 9.7 9.3 2.3 4.2 3.3 8.4 3.3 13 0 7.4-2.4 14-6.5 19.1-4.7 5.5-11.2 7.9-20.5 7.9zm0-41.9v32.1h24.6c12.6 0 18.6-5.6 18.6-16.7q0-15.4-18.1-15.4z"/><path fill-rule="evenodd" class="b" d="m412.8 628.7v-92.1h43.7c7.9 0 14.9 2.4 20.4 7 5.6 4.7 8.4 10.7 8.4 18.6 0 9.8-4.2 17.2-12.5 21.4 5.1 1.4 8.3 4.6 9.7 9.3 0.9 4.6 1.9 10.7 1.9 18.6 0 2.3 0 4.6 0.4 6.9 0 2.4 1 4.2 1.4 5.6 1 1.4 1.9 2.3 3.3 2.8v1.9h-15.3c-1-3.3-1.9-8.9-1.9-16.8 0-7.9-0.9-13.4-2.8-17.2-1.9-3.7-6-5.5-13-5.5h-31.2v39.5zm44.2-49.8c5.1 0 9.3-1.4 11.6-4.1 2.8-2.8 4.2-6.6 4.7-11.2 0-4.6-1-8.4-3.3-11.2-2.3-3.2-6.5-4.6-11.6-4.6h-32.5v31.1z"/><path class="b" d="m571.8 618v10.7h-67.4v-92.1h66.9v11.7h-54.9v27.9h50.7v11.1h-50.7v30.7z"/><path class="b" d="m654.5 563.6h-11.6c-0.5-6.5-2.8-11.2-7.5-14.4-4.6-2.8-9.7-4.2-15.8-4.2-5.6 0-10.2 0.9-14.4 3.3-4.2 2.3-6.5 6.5-6.5 13 0 6 3.7 9.7 11.2 11.6 10.2 2.3 19 4.2 26 6 13.9 3.8 20.9 11.7 20.9 24.7 0 6.9-1.9 12.1-5.6 16.2-3.7 4.2-7.9 7-13.4 8.9-5.6 1.8-11.2 2.8-17.2 2.8-11.7 0-21-2.8-27.5-7.9-6.5-5.6-9.7-13.5-9.7-24.2h11.6c0 7.4 2.3 13 7.4 16.7 5.1 3.3 11.2 5.1 18.2 5.1 6 0 11.6-0.9 16.7-3.2 5.1-2.3 7.4-6.5 7.4-12.1 0-4.7-1.4-8.4-4.2-10.2-2.7-2.4-7.9-4.2-15.3-6.1-1.4-0.4-4.6-1.4-10.7-2.3-6-1.4-11.1-2.8-14.9-4.6-3.7-1.9-6.9-4.2-9.3-7-2.3-3.3-3.7-7-3.7-12.1 0-7.9 2.8-14.4 7.9-20 5.6-5.6 13.5-7.9 23.7-7.9 23.3-0.9 35.4 8.8 36.3 27.9z"/><path fill-rule="evenodd" class="b" d="m663.8 628.7l34.4-92.1h14.4l33 92.1h-13.5l-8.8-27h-37.2l-9.8 27zm26.5-37.7h28.4l-13.5-40.9z"/><path class="b" d="m800.9 536.6h12.5v92.1h-12.5z"/><path class="b" d="m894.8 611.5v-74.9h11.6v92.1h-14l-46.9-73.9v73.9h-12.1v-92.1h14.9z"/><path class="b" d="m985.9 611.5v-74.9h12v92.1h-13.9l-46.9-73.9v73.9h-12.1v-92.1h14.8z"/><path fill-rule="evenodd" class="b" d="m1101.1 582.7q0 11.1-4.2 22.3c-2.8 7.4-7.9 13.4-14.4 18.6-6.9 5.1-15.3 7.4-26 7.4-10.7 0-19.1-2.3-26-7.4-7-5.2-11.6-11.2-14.4-18.6q-4.2-11.2-4.2-22.3 0-11.2 4.2-22.4c2.8-7.4 7.9-13.4 14.4-18.5 6.5-5.2 15.3-7.5 26-7.5 10.7 0 19.5 2.3 26 7.5 6.5 5.1 11.6 11.1 14.4 18.5 2.8 7.9 4.2 14.9 4.2 22.4zm-12.5 0c0-7.5-1.4-14-3.7-19.6-2.8-5.5-6.6-9.7-11.2-13-5.1-3.2-10.7-4.6-17.2-4.6-6.5 0-12.1 1.4-16.7 4.6-5.1 3.3-8.9 7.5-11.2 13-2.8 5.6-3.7 12.1-3.7 19.6 0 11.1 2.8 19.9 8.8 26.9 5.6 7 13.5 10.2 23.3 10.2 9.7 0 17.6-3.2 23.2-10.2 5.6-6.5 8.4-15.8 8.4-26.9z"/><path class="b" d="m1148.1 615.2l25.5-78.6h14l-33 92.1h-13.5l-33.5-92.1h14z"/><path fill-rule="evenodd" class="b" d="m1182 628.7l34.4-92.1h14.4l33 92.1h-13.5l-8.8-27h-37.2l-9.8 27zm26.1-37.7h28.3l-13.5-40.9z"/><path class="b" d="m1267.5 628.7v-10.3l56.2-70.1h-52v-11.7h67.8v10.7l-56.7 70.7h56.7v10.7z"/><path class="b" d="m1353 536.6h12.6v92.1h-12.6z"/><path fill-rule="evenodd" class="b" d="m1470.6 582.7q0 11.1-4.2 22.3c-2.8 7.4-7.9 13.4-14.4 18.6-6.9 5.1-15.3 7.4-26 7.4-10.7 0-19.1-2.3-26-7.4-7-5.2-11.7-11.2-14.4-18.6q-4.2-11.2-4.2-22.3 0-11.2 4.2-22.4c2.7-7.4 7.9-13.4 14.4-18.5 6.5-5.2 15.3-7.5 26-7.5 10.7 0 19.5 2.3 26 7.5 6.5 5.1 11.6 11.1 14.4 18.5 2.8 7.9 4.2 14.9 4.2 22.4zm-13 0c0-7.5-1.4-14-3.7-19.6-2.8-5.5-6.5-9.7-11.2-13-5.1-3.2-10.7-4.6-17.2-4.6-6.5 0-12.1 1.4-16.7 4.6-5.1 3.3-8.8 7.5-11.2 13-2.7 5.6-3.7 12.1-3.7 19.6 0 11.1 2.8 19.9 8.9 26.9 5.5 7 13.4 10.2 23.2 10.2 9.8 0 17.7-3.2 23.2-10.2 5.6-6.5 8.4-15.8 8.4-26.9z"/><path class="b" d="m1545 611.5v-74.9h12.1v92.1h-14l-46.9-73.9v73.9h-12.1v-92.1h14.9z"/><path class="b" d="m1644.4 618v10.7h-67.4v-92.1h67v11.7h-54.9v27.9h50.2v11.1h-50.2v30.7z"/><path class="b" d="m1797.8 628.7h-12.1v-77.2l-26 77.2h-12.1l-26.5-76.7v76.7h-11.6v-92.1h17.7l26.5 78.1 26.4-78.1h17.7z"/><path fill-rule="evenodd" class="b" d="m1807.6 628.7l34.4-92.1h14.4l33 92.1h-13.5l-8.8-27h-37.2l-9.8 27zm26-37.7h28.4l-13.5-40.9z"/><path fill-rule="evenodd" class="b" d="m1901.5 628.7v-92.1h43.6c7.9 0 14.9 2.4 20.5 7 5.6 4.7 8.4 10.7 8.4 18.6 0 9.8-4.2 17.2-12.6 21.4 5.1 1.4 8.4 4.6 9.8 9.3 0.9 4.6 1.8 10.7 1.8 18.6 0 2.3 0 4.6 0.5 6.9 0 2.4 0.9 4.2 1.4 5.6 0.9 1.4 1.8 2.3 3.2 2.8v1.9h-15.3c-0.9-3.3-1.9-8.9-1.9-16.8 0-7.9-0.9-13.4-2.7-17.2-1.9-3.7-6.1-5.5-13.1-5.5h-31.1v39.5zm12.1-49.8h31.6c5.1 0 9.3-1.4 11.6-4.1q4.2-4.2 4.2-11.2c0-4.6-0.9-8.4-3.3-11.2-2.3-3.2-6.5-4.6-11.6-4.6h-32.5z"/><path class="b" d="m2003.7 596.6v32.1h-12.5v-92.1h12.5v45.1l44.6-45.1h16.8l-38.2 37.2 39.5 54.9h-16.2l-32.1-46z"/><path class="b" d="m2144.5 618v10.7h-67.4v-92.1h67v11.7h-54.9v27.9h50.7v11.1h-50.7v30.7z"/><path class="b" d="m2152 548.3v-11.7h74.8v11.7h-31.1v80.4h-12.6v-80.4z"/><path class="b" d="m2238.9 536.6h12.5v92.1h-12.5z"/><path class="b" d="m2332.8 611.5v-74.9h11.6v92.1h-14l-46.9-73.9v73.9h-12.1v-92.1h14.9z"/><path class="b" d="m2402.9 590.6v-11.2h40v49.3h-7.9l-3.2-11.6c-3.3 4.1-7.5 7.9-12.6 10.2-5.6 2.8-11.1 3.7-17.7 3.7-14.8 0-26-4.7-32.5-13.5-7-8.8-10.2-20.9-10.2-35.8 0-12.5 3.7-23.7 11.6-33 7.4-9.7 18.1-14.4 32.1-14.4 6 0 12.1 1 17.6 3.3 5.6 2.3 10.3 5.6 14.4 10.2q5.6 7 7 16.7h-11.6c-1.9-6.9-5.1-12.1-10.2-14.8-5.1-2.8-10.7-4.2-17.2-4.2q-8.4 0-15.4 4.2c-4.6 2.7-8.3 6.9-11.1 13-2.8 5.5-4.2 12.5-4.2 20 0 11.6 2.3 20.9 7.4 27.4 5.1 7.4 13 11.1 23.3 11.6 7.4-0.5 13.9-2.3 19-6.5 4.2-3.3 6.5-6.5 7.9-10.7 1.4-3.7 2.4-8.4 2.4-13.9z"/><path class="b" d="m2503.3 548.3v-11.7h74.9v11.7h-31.2v80.4h-12.5v-80.4z"/><path class="b" d="m2657.6 618v10.7h-67.8v-92.1h66.9v11.7h-54.4v27.9h50.2v11.1h-50.2v30.7z"/><path fill-rule="evenodd" class="b" d="m2674.4 628.7v-92.1h43.7c7.9 0 14.8 2.4 20.4 7 5.6 4.7 8.4 10.7 8.4 18.6 0 9.8-4.2 17.2-12.6 21.4 5.1 1.4 8.4 4.6 9.8 9.3 0.9 4.6 1.8 10.7 1.8 18.6 0 2.3 0 4.6 0.5 6.9 0 2.4 0.9 4.2 1.4 5.6 0.9 1.4 1.9 2.3 3.3 2.8v1.9h-15.4c-0.9-3.3-1.8-8.9-1.8-16.8 0-7.9-1-13.4-2.8-17.2-1.9-3.7-6.1-5.5-13-5.5h-31.2v39.5zm12.6-49.8h31.6c5.1 0 9.3-1.4 11.6-4.1q4.2-4.2 4.2-11.2c0-4.6-1-8.4-3.3-11.2-2.3-3.2-6.5-4.6-11.6-4.6h-32.5z"/><path fill-rule="evenodd" class="b" d="m2765.9 628.7v-92.1h43.7c7.9 0 14.9 2.4 20.5 7 5.5 4.7 8.3 10.7 8.3 18.6 0 9.8-4.2 17.2-12.5 21.4 5.1 1.4 8.3 4.6 9.7 9.3 1 4.6 1.9 10.7 1.9 18.6 0 2.3 0 4.6 0.5 6.9 0 2.4 0.9 4.2 1.4 5.6 0.9 1.4 1.8 2.3 3.2 2.8v1.9h-15.3c-1-3.3-1.9-8.9-1.9-16.8 0-7.9-0.9-13.4-2.8-17.2-1.8-3.7-6-5.5-13-5.5h-31.1v39.5zm12.5-49.8h31.6c5.1 0 9.3-1.4 11.6-4.1q4.2-4.2 4.2-11.2c0-4.6-0.9-8.4-3.2-11.2-2.4-3.2-6.5-4.6-11.6-4.6h-32.6z"/><path class="b" d="m2857.9 536.6h12.6v92.1h-12.6z"/><path class="b" d="m2882.6 548.3v-11.7h74.3v11.7h-31.1v80.4h-12.5v-80.4z"/><path fill-rule="evenodd" class="b" d="m3049.9 582.7q0 11.1-4.2 22.3c-2.8 7.4-7.9 13.4-14.4 18.6-7 5.1-15.3 7.4-26 7.4-10.7 0-19.1-2.3-26.1-7.4-6.9-5.2-11.6-11.2-14.4-18.6q-4.1-11.2-4.1-22.3 0-11.2 4.1-22.4c2.8-7.4 7.9-13.4 14.4-18.5 6.6-5.2 15.4-7.5 26.1-7.5 10.7 0 19.5 2.3 26 7.5 6.5 5.1 11.6 11.1 14.4 18.5 2.8 7.9 4.2 14.9 4.2 22.4zm-12.6 0c0-7.5-1.3-14-3.7-19.6-2.3-5.5-6.5-9.7-11.1-13-5.1-3.2-10.7-4.6-17.2-4.6-6.5 0-12.1 1.4-16.8 4.6-5.1 3.3-8.8 7.5-11.1 13-2.8 5.6-3.7 12.1-3.7 19.6 0 11.1 2.8 19.9 8.8 26.9 5.6 7 13.5 10.2 23.2 10.2 9.8 0 17.7-3.2 23.3-10.2 5.6-6.5 8.3-15.8 8.3-26.9z"/><path fill-rule="evenodd" class="b" d="m3065.2 628.7v-92.1h43.7c7.9 0 14.9 2.4 20.5 7 5.5 4.7 8.3 10.7 8.3 18.6 0 9.8-4.1 17.2-12.5 21.4 5.1 1.4 8.4 4.6 9.7 9.3 1 4.6 1.9 10.7 1.9 18.6 0 2.3 0 4.6 0.5 6.9 0 2.4 0.9 4.2 1.4 5.6 0.9 1.4 1.8 2.3 3.2 2.8v1.9h-15.3c-0.9-3.3-1.9-8.9-1.9-16.8 0-7.9-0.9-13.4-2.8-17.2-1.8-3.7-6-5.5-13-5.5h-31.1v39.5zm43.7-49.8c5.1 0 9.3-1.4 11.6-4.1 2.8-2.8 4.2-6.6 4.6-11.2 0-4.6-0.9-8.4-3.2-11.2-2.3-3.2-6.5-4.6-11.6-4.6h-32.6v31.1z"/><path class="b" d="m3156.8 536.6h12.5v92.1h-12.5z"/><path fill-rule="evenodd" class="b" d="m3181.4 628.7l34.4-92.1h14.4l33 92.1h-13.5l-8.8-27h-37.2l-9.7 27zm26-37.7h28.4l-13.5-40.9z"/><path class="b" d="m3286 536.6v81.4h46.9v10.7h-59v-92.1z"/><path class="b" d="m3412.9 618v10.7h-67.4v-92.1h66.9v11.7h-54.8v27.9h50.2v11.1h-50.2v30.7z"/></svg>