<svg version="1.2" xmlns="http://www.w3.org/2000/svg" viewBox="0 0 3602 790" width="3602" height="790"><style>.a{fill:none}.b{fill:#fff}</style><path class="a" d="m-0.2-91h3602v1076h-3602z"/><path class="b" d="m463.7 229.8v196.2h12.9v-196.2h73.1v-10.9h-158.6v10.9z"/><path fill-rule="evenodd" class="b" d="m563.8 218.9h87.2c35.9 0 65.4 13.4 65.4 53.3 0 27.9-16.9 48.5-44.4 53.3v0.4c30.7 3.6 38.3 23 40.4 44.4 2 21.4-1.6 44.8 6.8 55.7h-14.1c-8.1-14.1-3.2-37.9-5.6-58.1-2.9-20.2-12.6-36.3-48.9-36.3h-73.9v94.4h-12.9zm86.8 101.7c30.3 0 52.9-14.1 52.9-47.6 0-31.5-25-43.2-52.9-43.2h-73.9v90.8z"/><path class="b" d="m759.6 415.1v-91.2h119.1v-10.9h-119.1v-83.2h126.3v-10.9h-139.2v207.1h140.8v-10.9z"/><path class="b" d="m909.3 426h12.6v-191.7h0.8l131.5 191.7h15.4v-207.1h-12.9v190.2h-0.4l-131.2-190.2h-15.8z"/><path class="b" d="m1086.1 235.5h72.3v190.5h19.8v-190.5h72.2v-16.6h-164.3z"/><path class="b" d="m1271.4 218.9h19.8v207.1h-19.8z"/><path class="b" d="m1336 426h25.8v-166.3h0.8l108.2 166.3h30.3v-207.1h-26.3v168h-0.4l-109.4-168h-29z"/><path fill-rule="evenodd" class="b" d="m1633.5 213.7c65.8 0 99.3 52.1 99.3 108.6 0 56.5-33.5 108.6-99.3 108.6-65.8 0-99.3-52.5-99.3-108.6 0-56.1 33.1-108.6 99.3-108.6zm0 193.7c50.4 0 71.8-43.1 71.8-85.1 0-41.6-21.4-85.2-71.8-85.2-50.5 0-71.9 43.2-71.9 85.2 0 42 21 85.5 71.9 85.1z"/><path class="b" d="m1752.9 357c0.8 51.3 39.2 73.9 86.4 73.9 41.2 0 82.4-18.6 82.4-65 0-21.4-13-44.8-40.4-52.9-10.9-3.2-56.5-14.9-59.7-16.2-15-4-24.7-12.1-24.7-26.6 0-21 21.4-27 38-27 25 0 42.8 10.1 44.8 36.7h36.3c0-43.2-36.3-66.2-79.5-66.2-37.5 0-75.9 19.4-75.9 60.9 0 21.4 10.5 42.8 46 52.5 28.3 7.7 47.3 11.7 61.8 17 8.5 3.2 16.9 9.7 16.9 25.4 0 15.7-11.7 31.5-44 31.5-29 0-52.4-12.5-52.4-44.4h-36z"/><path class="b" d="m1999.2 426h40.3l71.1-207.1h-37.2l-52.8 163.9h-0.9l-51.6-163.9h-38z"/><path class="b" d="m2129.1 218.9h45.6v207.1h-45.6z"/><path class="b" d="m2214.7 426h146.5v-38.3h-100.9v-168.8h-45.6z"/><path class="b" d="m2564.3 218.9h-54.1v124.8c0 26.6-9.7 40.3-36.4 40.3-26.6 0-36.3-13.7-36.3-40.3v-124.8h-54.1v121.5c0 60.2 27.5 90.1 90.4 90.1 62.6 0 90.5-29.9 90.5-90.1z"/><path fill-rule="evenodd" class="b" d="m2598.2 218.9h106.9c56.1 0 75.9 41.2 75.9 70.7 0 50.4-33.5 73.8-81.1 73.8h-38v62.6h-63.7zm63.7 95.3h24.7c16.5 0 33.9-1.2 33.9-22.2 0-19-14.6-20.2-30.3-20.2h-28.3z"/><path fill-rule="evenodd" class="b" d="m2802 218.9h107c56.1 0 75.8 41.2 75.8 70.7 0 50.4-33.5 73.8-81.1 73.8h-37.5v62.6h-64.2zm64.6 95.3h24.6c16.6 0 33.9-1.2 33.9-22.2 0-19-14.5-20.2-30.3-20.2h-28.2z"/><path fill-rule="evenodd" class="b" d="m3105.5 213.7c63 0 105 45.2 105 108.6 0 63.3-42 108.6-105 108.6-62.9 0-104.9-45.3-104.9-108.6 0-63 42.4-108.6 104.9-108.6zm0.4 165.5c16.2 0 41.2-10.9 41.2-56.9 0-46-25-56.9-41.2-56.9-16.1 0-41.1 10.9-41.1 56.9 0 46.4 24.6 56.9 41.1 56.9z"/><path class="b" d="m401.2 493.4h10.9v79.9h-10.9z"/><path class="b" d="m505.7 573.3h-10.9v-67l-22.2 67h-10.9l-22.6-66.6v66.6h-10.1v-79.9h15.3l23.1 67.8 22.6-67.8h15.7z"/><path fill-rule="evenodd" class="b" d="m532.7 539v34.3h-10.4v-79.9h35.9c4.8 0 8.9 0.8 12.5 2.8 3.6 2.1 6.4 4.9 8.5 8.1 2 3.7 2.8 7.3 2.8 11.3 0 6.5-2 12.1-5.7 16.6-4 4.8-9.6 6.8-17.7 6.8zm0-36.3v27.9h21.4c10.9 0 16.1-4.9 16.1-14.6q0-13.3-15.7-13.3z"/><path fill-rule="evenodd" class="b" d="m595.3 573.3v-79.9h38c6.8 0 12.9 2 17.7 6.1 4.9 4 7.3 9.3 7.3 16.1 0 8.5-3.7 15-10.9 18.6 4.4 1.2 7.2 4 8.5 8.1 0.8 4 1.6 9.2 1.6 16.1 0 2 0 4 0.4 6.1 0 2 0.8 3.6 1.2 4.8 0.8 1.2 1.6 2 2.8 2.4v1.6h-13.3c-0.8-2.8-1.6-7.6-1.6-14.5 0-6.9-0.8-11.7-2.4-14.9-1.7-3.3-5.3-4.9-11.3-4.9h-27.1v34.3zm38.4-43.1c4.4 0 8-1.3 10-3.7 2.5-2.4 3.7-5.6 4.1-9.7 0-4-0.8-7.2-2.8-9.7-2.1-2.8-5.7-4-10.1-4h-28.3v27.1z"/><path class="b" d="m733.4 564.1v9.2h-58.6v-79.9h58.2v10.1h-47.7v24.2h44v9.7h-44v26.7z"/><path class="b" d="m805.2 516.8h-10.1c-0.4-5.6-2.4-9.7-6.4-12.5-4.1-2.4-8.5-3.6-13.8-3.6-4.8 0-8.8 0.8-12.5 2.8-3.6 2-5.6 5.7-5.6 11.3 0 5.3 3.2 8.5 9.7 10.1 8.8 2 16.5 3.6 22.6 5.3 12.1 3.2 18.1 10 18.1 21.3 0 6.1-1.6 10.5-4.8 14.2-3.3 3.6-6.9 6-11.7 7.6-4.9 1.7-9.7 2.5-15 2.5-10.1 0-18.1-2.5-23.8-6.9-5.6-4.8-8.5-11.7-8.5-21h10.1c0 6.5 2.1 11.3 6.5 14.5 4.4 2.9 9.7 4.5 15.7 4.5 5.3 0 10.1-0.8 14.6-2.8 4.4-2.1 6.4-5.7 6.4-10.5 0-4.1-1.2-7.3-3.6-8.9-2.4-2-6.9-3.6-13.3-5.3-1.2-0.4-4.1-1.2-9.3-2-5.3-1.2-9.7-2.4-12.9-4-3.3-1.6-6.1-3.7-8.1-6.1-2-2.8-3.2-6-3.2-10.5 0-6.8 2.4-12.5 6.8-17.3 4.9-4.9 11.7-6.9 20.6-6.9 20.2-0.8 30.7 7.7 31.5 24.2z"/><path fill-rule="evenodd" class="b" d="m813.3 573.3l29.8-79.9h12.6l28.6 79.9h-11.7l-7.7-23.4h-32.2l-8.5 23.4zm23-32.7h24.6l-11.7-35.5z"/><path class="b" d="m932.3 493.4h10.9v79.9h-10.9z"/><path class="b" d="m1013.9 558.4v-65h10.1v79.9h-12.1l-40.8-64.1v64.1h-10.5v-79.9h12.9z"/><path class="b" d="m1093 558.4v-65h10.5v79.9h-12.1l-40.8-64.1v64.1h-10.5v-79.9h12.9z"/><path fill-rule="evenodd" class="b" d="m1193.1 533.4q0 9.7-3.6 19.4c-2.5 6.4-6.9 11.7-12.5 16.1-6.1 4.4-13.4 6.5-22.7 6.5-9.2 0-16.5-2.1-22.6-6.5-6-4.4-10-9.7-12.5-16.1q-3.6-9.7-3.6-19.4 0-9.7 3.6-19.4c2.5-6.5 6.9-11.7 12.5-16.1 5.7-4.5 13.4-6.5 22.6-6.5 9.3 0 17 2 22.7 6.5 5.6 4.4 10 9.6 12.5 16.1 2.4 6.9 3.6 12.9 3.6 19.4zm-10.9 0c0-6.5-1.2-12.1-3.2-17-2.5-4.8-5.7-8.4-9.7-11.3-4.5-2.8-9.3-4-15-4-5.6 0-10.4 1.2-14.5 4-4.4 2.9-7.7 6.5-9.7 11.3-2.4 4.9-3.2 10.5-3.2 17 0 9.7 2.4 17.3 7.7 23.4 4.8 6 11.7 8.9 20.1 8.9 8.5 0 15.4-2.9 20.2-8.9 4.9-5.7 7.3-13.7 7.3-23.4z"/><path class="b" d="m1233.9 561.6l22.2-68.2h12.1l-28.7 79.9h-11.7l-29.1-79.9h12.2z"/><path fill-rule="evenodd" class="b" d="m1263.3 573.3l29.9-79.9h12.5l28.7 79.9h-11.7l-7.7-23.4h-32.3l-8.5 23.4zm22.6-32.7h24.7l-11.7-35.5z"/><path class="b" d="m1337.6 573.3v-8.8l48.8-61h-45.2v-10.1h59v9.3l-49.3 61.4h49.3v9.2z"/><path class="b" d="m1411.9 493.4h10.9v79.9h-10.9z"/><path fill-rule="evenodd" class="b" d="m1514 533.4q0 9.7-3.6 19.4c-2.5 6.4-6.9 11.7-12.6 16.1-6 4.4-13.3 6.5-22.6 6.5-9.2 0-16.5-2.1-22.6-6.5-6-4.4-10.1-9.7-12.5-16.1q-3.6-9.7-3.6-19.4 0-9.7 3.6-19.4c2.4-6.5 6.9-11.7 12.5-16.1 5.7-4.5 13.4-6.5 22.6-6.5 9.3 0 17 2 22.6 6.5 5.7 4.4 10.1 9.6 12.6 16.1 2.4 6.9 3.6 12.9 3.6 19.4zm-11.3 0c0-6.5-1.2-12.1-3.2-17-2.5-4.8-5.7-8.4-9.7-11.3-4.5-2.8-9.3-4-15-4-5.6 0-10.5 1.2-14.5 4-4.4 2.9-7.7 6.5-9.7 11.3-2.4 4.9-3.2 10.5-3.2 17 0 9.7 2.4 17.3 7.7 23.4 4.8 6 11.7 8.9 20.1 8.9 8.5 0 15.4-2.9 20.2-8.9 4.9-5.7 7.3-13.7 7.3-23.4z"/><path class="b" d="m1578.6 558.4v-65h10.5v79.9h-12.1l-40.8-64.1v64.1h-10.5v-79.9h12.9z"/><path class="b" d="m1664.9 564.1v9.2h-58.5v-79.9h58.1v10.1h-47.6v24.2h43.6v9.7h-43.6v26.7z"/><path class="b" d="m1798.2 573.3h-10.5v-67l-22.6 67h-10.5l-23.1-66.6v66.6h-10v-79.9h15.3l23 67.8 23-67.8h15.4z"/><path fill-rule="evenodd" class="b" d="m1806.6 573.3l29.9-79.9h12.5l28.7 79.9h-11.7l-7.7-23.4h-32.3l-8.5 23.4zm22.6-32.7h24.7l-11.8-35.5z"/><path fill-rule="evenodd" class="b" d="m1888.2 573.3v-79.9h37.9c6.9 0 12.9 2 17.8 6.1 4.8 4 7.2 9.3 7.2 16.1 0 8.5-3.6 15-10.9 18.6 4.5 1.2 7.3 4 8.5 8.1 0.8 4 1.6 9.2 1.6 16.1 0 2 0 4 0.4 6.1 0 2 0.8 3.6 1.2 4.8 0.8 1.2 1.7 2 2.9 2.4v1.6h-13.4c-0.8-2.8-1.6-7.6-1.6-14.5 0-6.9-0.8-11.7-2.4-14.9-1.6-3.3-5.2-4.9-11.3-4.9h-27v34.3zm10.5-43.1h27.4c4.4 0 8.1-1.3 10.1-3.7q3.6-3.6 3.6-9.7c0-4-0.8-7.2-2.8-9.7-2-2.8-5.6-4-10.1-4h-28.2z"/><path class="b" d="m1977 545.5v27.8h-10.9v-79.9h10.9v39.2l38.7-39.2h14.5l-33.1 32.3 34.4 47.6h-14.2l-27.8-39.9z"/><path class="b" d="m2099.3 564.1v9.2h-58.6v-79.9h58.2v10.1h-47.7v24.2h44v9.7h-44v26.7z"/><path class="b" d="m2105.7 503.5v-10.1h65v10.1h-27v69.8h-10.9v-69.8z"/><path class="b" d="m2181.2 493.4h10.9v79.9h-10.9z"/><path class="b" d="m2262.7 558.4v-65h10.1v79.9h-12.1l-40.7-64.1v64.1h-10.5v-79.9h12.9z"/><path class="b" d="m2323.7 540.2v-9.6h34.7v42.7h-6.9l-2.8-10c-2.8 3.6-6.4 6.8-10.9 8.8-4.8 2.5-9.7 3.3-15.3 3.3-12.9 0-22.6-4.1-28.3-11.7-6-7.7-8.9-18.2-8.9-31.1 0-10.9 3.3-20.6 10.1-28.7 6.5-8.5 15.8-12.5 27.9-12.5 5.2 0 10.5 0.8 15.3 2.8 4.9 2 8.9 4.9 12.5 8.9q4.9 6.1 6.1 14.5h-10.1c-1.6-6-4.4-10.5-8.9-12.9-4.4-2.4-9.3-3.6-14.9-3.6q-7.3 0-13.3 3.6c-4.1 2.4-7.3 6.1-9.7 11.3-2.4 4.9-3.7 10.9-3.7 17.4 0 10.1 2.1 18.1 6.5 23.8 4.4 6.5 11.3 9.7 20.2 10.1 6.4-0.4 12.1-2 16.5-5.7 3.7-2.8 5.7-5.6 6.9-9.2 1.2-3.3 2-7.3 2-12.2z"/><path class="b" d="m2410.9 503.5v-10.1h65v10.1h-27.1v69.8h-10.9v-69.8z"/><path class="b" d="m2544.9 564.1v9.2h-59v-79.9h58.2v10.1h-47.3v24.2h43.6v9.7h-43.6v26.7z"/><path fill-rule="evenodd" class="b" d="m2559.4 573.3v-79.9h38c6.8 0 12.9 2 17.7 6.1 4.9 4 7.3 9.3 7.3 16.1 0 8.5-3.7 15-10.9 18.6 4.4 1.2 7.2 4 8.5 8.1 0.8 4 1.6 9.2 1.6 16.1 0 2 0 4 0.4 6.1 0 2 0.8 3.6 1.2 4.8 0.8 1.2 1.6 2 2.8 2.4v1.6h-13.3c-0.8-2.8-1.6-7.6-1.6-14.5 0-6.9-0.8-11.7-2.4-14.9-1.7-3.3-5.3-4.9-11.3-4.9h-27.1v34.3zm10.9-43.1h27.5c4.4 0 8-1.3 10-3.7q3.7-3.6 3.7-9.7c0-4-0.8-7.2-2.8-9.7-2.1-2.8-5.7-4-10.1-4h-28.3z"/><path fill-rule="evenodd" class="b" d="m2638.9 573.3v-79.9h38c6.8 0 12.9 2 17.7 6.1 4.9 4 7.3 9.3 7.3 16.1 0 8.5-3.6 15-10.9 18.6 4.4 1.2 7.3 4 8.5 8.1 0.8 4 1.6 9.2 1.6 16.1 0 2 0 4 0.4 6.1 0 2 0.8 3.6 1.2 4.8 0.8 1.2 1.6 2 2.8 2.4v1.6h-13.3c-0.8-2.8-1.6-7.6-1.6-14.5 0-6.9-0.8-11.7-2.4-14.9-1.6-3.3-5.3-4.9-11.3-4.9h-27.1v34.3zm10.9-43.1h27.5c4.4 0 8-1.3 10.1-3.7q3.6-3.6 3.6-9.7c0-4-0.8-7.2-2.8-9.7-2-2.8-5.7-4-10.1-4h-28.3z"/><path class="b" d="m2718.8 493.4h10.9v79.9h-10.9z"/><path class="b" d="m2740.2 503.5v-10.1h64.6v10.1h-27v69.8h-10.9v-69.8z"/><path fill-rule="evenodd" class="b" d="m2885.6 533.4q0 9.7-3.7 19.4c-2.4 6.4-6.8 11.7-12.5 16.1-6.1 4.4-13.3 6.5-22.6 6.5-9.3 0-16.5-2.1-22.6-6.5-6.1-4.4-10.1-9.7-12.5-16.1q-3.6-9.7-3.6-19.4 0-9.7 3.6-19.4c2.4-6.5 6.8-11.7 12.5-16.1 5.6-4.5 13.3-6.5 22.6-6.5 9.3 0 17 2 22.6 6.5 5.7 4.4 10.1 9.6 12.5 16.1 2.4 6.9 3.7 12.9 3.7 19.4zm-10.9 0c0-6.5-1.3-12.1-3.3-17-2-4.8-5.6-8.4-9.7-11.3-4.4-2.8-9.2-4-14.9-4-5.6 0-10.5 1.2-14.5 4-4.5 2.9-7.7 6.5-9.7 11.3-2.4 4.9-3.2 10.5-3.2 17 0 9.7 2.4 17.3 7.6 23.4 4.9 6 11.7 8.9 20.2 8.9 8.5 0 15.3-2.9 20.2-8.9 4.8-5.7 7.3-13.7 7.3-23.4z"/><path fill-rule="evenodd" class="b" d="m2898.9 573.3v-79.9h37.9c6.9 0 12.9 2 17.8 6.1 4.8 4 7.2 9.3 7.2 16.1 0 8.5-3.6 15-10.9 18.6 4.5 1.2 7.3 4 8.5 8.1 0.8 4 1.6 9.2 1.6 16.1 0 2 0 4 0.4 6.1 0 2 0.8 3.6 1.2 4.8 0.9 1.2 1.7 2 2.9 2.4v1.6h-13.3c-0.9-2.8-1.7-7.6-1.7-14.5 0-6.9-0.8-11.7-2.4-14.9-1.6-3.3-5.2-4.9-11.3-4.9h-27v34.3zm37.9-43.1c4.5 0 8.1-1.3 10.1-3.7 2.4-2.4 3.6-5.6 4-9.7 0-4-0.8-7.2-2.8-9.7-2-2.8-5.6-4-10.1-4h-28.2v27.1z"/><path class="b" d="m2978.4 493.4h10.9v79.9h-10.9z"/><path fill-rule="evenodd" class="b" d="m2999.8 573.3l29.9-79.9h12.5l28.6 79.9h-11.7l-7.7-23.4h-32.2l-8.5 23.4zm22.6-32.7h24.6l-11.7-35.5z"/><path class="b" d="m3090.6 493.4v70.7h40.8v9.2h-51.3v-79.9z"/><path class="b" d="m3200.8 564.1v9.2h-58.5v-79.9h58.1v10.1h-47.6v24.2h43.5v9.7h-43.5v26.7z"/></svg>