<svg height="450" viewBox="0 0 2000 450" width="2000" xmlns="http://www.w3.org/2000/svg"><path d="m.1-125h2000v700h-2000z" fill="none"/><path d="m423.8 342.1q.6-1.8 1.2-3.6c-.8-.2-1.1 0-1.4 1-.3 1.7-.7 3.3-1.1 4.9q-1.1 3.6-2.2 7.2c-.5 1.5-.6 3.1-.7 4.7 0 .5.2.7.7.5.6-.1 1.2-.2 1.4-1q0 .1.1.2c0 .5-.1.9-.1 1.4-.1 1-.2 2-.2 3 .1.6.3 1.3.6 1.8.3.7 1.5 1 2.4.6 1.4-.5 2.6-1.2 3.9-1.9 1.7-1 3.4-2.1 5.1-3 2.1-1.2 4.2-2.3 6.3-3.4q2-1.1 4-2.2c.1 0 .2-.1.4 0q-1.1.7-2.2 1.3c-.1.1-.3.2-.5.3q-1.5 1.2-3 2.4c-2.1 1.7-4.1 3.6-5.6 5.9-.6.9-1.3 1.6-1.6 2.7 0 .3-.1.6 0 .9.1.1.4.3.5.3.2 0 .4-.2.5-.4.5-1.5 1-3.2 2.2-4.3q2.5-2.3 4.9-4.6 1.3-1.2 2.7-2.3.5-.5 1.1-.8 2.6-1.5 5.3-3c.5-.2 1-.5 1.6-.7.7-.1 1-.5 1.3-1.1.3-.5.7-.7 1.4-.7 0 .5.1 1 .2 1.5.3 1.8.9 3.6 1.1 5.4.4 3 1.6 5.7 2.6 8.5.5 1.3 1.3 2.4 2 3.5.9 1.2 1.8 2.4 2.6 3.6q.3.4.5.7c.6-.5.6-.9.2-1.4q-1.1-1.7-2.3-3.4-.5-.9-1.1-1.8c-1.3-1.8-2.1-3.8-2.8-5.8-.4-1.4-.6-2.8-.9-4.2-.2-1.2-.5-2.4-.7-3.6-.2-1.1-.2-2.1-.3-3.2 0-.1.2-.4.4-.4 1.5-.5 3.1-.9 4.7-1.3.2.7.2 1.4.4 2 .4 1.6.9 3.1 1.4 4.6.8 2.2 1.5 4.4 2.5 6.5 1.2 2.7 2.5 5.3 3.9 8 .6 1.2 1.5 2.4 2.3 3.6.1.2.5.2.7.3 0-.3.1-.7-.1-.9-1.1-2-2.2-4-3.4-6-1.4-2.5-2.3-5.3-3.2-8q-1.5-4.6-3-9.3c-.3-1.1-.1-1.2.9-1.2q1.4 0 2.8.2c.2.1.5.3.5.5 1.1 2.8 2.2 5.7 3.2 8.5.8 2.4 1.8 4.7 3.1 6.8q1.3 2.2 2.7 4.4c.4.6.8 1.2 1.2 1.7.2.2.7.3.9.2s.4-.5.3-.8q-.5-1.7-1.1-3.3c-1.2-3.1-1.7-6.3-1.8-9.6 0-.3.1-.6.2-.8.3-1.6.6-3.2 1.1-4.8.4-1 1-2 1.6-3 .7-1.1 1.4-2.1 2.2-3.2 1-1.6 2.3-2.9 3.8-4.1.4-.4.9-.7 1.4-1 1.4-1.3 3.3-1.7 5.1-2.2.1 0 .5.2.6.3.5.9 1 1.9 1.3 2.8.6 1.8 1.2 3.7 1.5 5.6.2 1.8.1 3.7 0 5.6 0 2.2-.6 4.2-1.4 6.3-1.1 2.7-2.7 5.2-4.6 7.5-2.7 3.4-6.1 6-9.8 8.2-3.9 2.3-8 3.8-12.3 4.8-2.8.7-5.7 1.1-8.5 1.2-2.1.1-4.1.3-6.1.1-2.5-.1-4.9-.5-7.4-.8-3.3-.5-6.4-1.5-9.5-2.8q-3.8-1.5-7.2-3.8c-2.4-1.5-4.6-3.3-6.5-5.3-3.4-3.6-5.9-7.8-6.9-12.6-.4-2-.6-4.1-.6-6.2.2-4.3 1.5-8.4 3.9-12.1 1.4-2.2 3-4.2 4.9-5.9 2.2-2.1 4.6-3.8 7.2-5.3 4.2-2.5 8.8-4.1 13.6-5.2 2-.4 4.1-.6 6.2-.8 1.9-.2 3.8-.3 5.6-.3 2.7.2 5.3.5 7.9.8 3.3.4 6.4 1.3 9.4 2.5q4.1 1.6 7.8 3.9 4.2 2.6 7.5 6.2c.1.1.2.3.5.5-.5.3-.9.5-1.4.7-1.3.8-2.8 1.5-4.1 2.5-1.3.9-2.4 2.1-3.5 3.3-1.6 1.8-3.1 3.7-4.7 5.6-.5.5-1 1-1.6 1.5-.4.3-.7 0-.8-.4-.3-.9-.5-1.9-.8-2.8-1.1-2.5-2.2-5.1-3.3-7.6-.2-.6-.4-1.2-.7-1.8-.6-1.3-1.3-2.5-1.9-3.7-.3-.7-.5-1.5-.9-2.2q-1.1-2.3-2.3-4.5-.6-1.2-1.3-2.2c-.7-1-1.7-1.3-2.8-1.3-.2 0-.4.1-.6.2q-.1-.1-.2-.3c-.2-.4-.4-.7-1-.6-.4.1-.7.8-.6 1.3q.4 1.1 1 2.1c.8 1.5 1.7 3 2.4 4.5 1.3 2.5 2.6 4.9 3.6 7.4 1.5 3.9 2.6 7.9 3.9 11.8.1.1.1.3.1.4q-.4 0-.8 0-1.4.1-2.8.2c-.4 0-.7 0-.8-.5-.4-2.1-.9-4.2-1.3-6.3-.4-1.6-.6-3.2-.8-4.8-.1-.8-.1-1.6-.3-2.4 0-.3-.3-.5-.5-.7-.2.2-.5.3-.6.5-.6 1.3-1.3 2.7-1.7 4-.5 2-.9 4.1-1.3 6.1-.5 1.9-.6 3.7-.6 5.6 0 1 0 1.1-.9 1.4q-1 .4-2.1.8-.2.1-.5.1c-2.3-.1-4.5.4-6.7 1.1-2.4.7-4.9 1.5-7.3 2.3-1.1.4-2 1-3 1.4q-1.1.6-2.3.9c-.8.2-1.3-.3-1.5-1.3-.1-.4-.1-.8 0-1.2q.6-1.9 1.3-3.8c.4-.8.8-1.7 1.1-2.6q.1-.2.1-.5c.1-1.2-.4-1.5-1.5-1.1-1.1.3-2 .9-2.6 1.9-.7.8-1.5 1.6-2.3 2.3q0-.1.1-.3.8-2.6 1.6-5.1c0-.2.2-.4.4-.5 1.5-.9 3.1-1.8 4.6-2.7 1-.5 1.9-1.2 2.8-1.8 2.9-1.6 5.8-3.2 8.9-4.4 1.7-.7 3.4-1.5 5.2-2 1.1-.4 2.4-.5 3.7-.7q.4-.1.9-.3c.2-.1.4-.3.4-.4-.1-.1-.2-.3-.4-.4-.4-.1-.8-.2-1.2-.3-1.6-.1-3.2-.2-4.7.6-3.9 2-7.8 3.8-11.7 5.9-2.2 1.2-4.3 2.8-6.4 4.2-.6.4-1.3.8-2 1.3.3-1.2.7-2.2 1-3.2.3-1.1.5-2.2.8-3.3.1-.4.3-.7.6-1 .3-.5.7-1 1.2-1.4 2.3-2 5-3.3 7.7-4.6 3-1.5 6.2-2.6 9.3-3.7 1.9-.7 3.8-1.2 5.9-1.3.2 0 .5-.2.7-.3v-.3c-.7-.2-1.5-.5-2.2-.8-1.8-.5-3.5.2-5 1-2 .9-4 1.7-6 2.7-2 1.1-4.1 2.2-6.1 3.4-1.8 1-3.6 2.2-5.4 3.3.1-.6.3-1.2.3-1.9.1-1 .3-2.1-.2-3.1-.1-.2-.3-.4-.5-.4s-.4.2-.5.4c-.1.4-.1.7-.1 1.1-.1 1.4-.3 2.8-.3 4.2 0 .7-.4 1-.8 1.4q-1.9 1.7-3.7 3.3c-.4.3-.5.7-.3 1.2.2.3.6.2 1 .2 1-.1 1.6-.7 2.1-1.4.3-.4.7-.8 1-1.1q.1 0 .2.1-.3 1.2-.7 2.3-.5 1.6-1 3.2c-.1.4-.3.7-.8.8-.3.1-.7.2-1.1.3zm4.9-7.7c.5.3.9.4 1.3.1.4-.4.9-.7 1.4-1.1 2.3-1.4 4.5-2.8 6.9-4.2 1.6-.9 3.3-1.9 5.1-2.6s3.6-1.2 5.4-1.8c.2-.1.4-.2.7-.3q-.1-.1-.1-.2c-.1 0-.3-.1-.4-.1-1.2.3-2.5.5-3.6 1q-4.6 1.7-9 3.8c-1.7.8-3.3 1.9-5 2.8-1.1.6-1.9 1.6-2.7 2.6zm32.6 37.7q.1-.1.3-.2c-.2-.2-.3-.5-.5-.7-.2-.3-.5-.5-.7-.8-1-1.5-2-3-2.8-4.6-2-3.5-3.7-7.1-4.5-11.1q-.3-1.7-.6-3.3c-.1-.2-.3-.3-.4-.4-.1.1-.3.3-.3.5.1.7.1 1.4.3 2 .6 2.2 1 4.4 1.8 6.5.9 2.2 2 4.3 3.1 6.3.9 1.7 1.9 3.2 3 4.8.3.4.9.7 1.3 1z" fill="#fff" fill-rule="evenodd"/><path d="m365.8 383.2c.7 3.6 1.4 7.1 2.1 10.7q.1 0 .2 0c.1-.3.4-.7.5-1q1.6-3.5 3.1-6.9c.4-.8.7-1.6 1.1-2.4.1-.2.4-.4.6-.4.5-.1 1.1 0 1.8 0-.1 5.8-.2 11.5-.2 17.3h-3q.1-4.9.3-9.8-.1 0-.2 0c-.1.1-.2.3-.3.5q-1.5 3.3-3 6.6c-.4.8-.8 1.7-1.2 2.6-.2.6-.7.4-1.2.4q-.9-5-1.7-10.1-.1 0-.2 0c-.2.4-.3.9-.5 1.3q-1.1 4.1-2.2 8.2c0 .1-.3.4-.4.4-.9 0-1.7 0-2.6 0 .1-.3.1-.5.2-.8q1.7-6.1 3.5-12.1c.3-1.4.7-2.7 1.1-4.1.1-.2.4-.4.6-.4.5-.1 1 0 1.6 0z" fill="#fff"/><path d="m488.3 334.2c-1.5 0-2.6.5-3.7 1.2-1.2.7-2.5 1.4-3.5 2.3-1.3 1.2-2.5 2.7-3.7 4.1-1 1.2-1.8 2.5-2.7 3.8-1.1 1.8-1.7 3.8-2.2 5.9-.3 1.3-.5 2.6-.7 4q0 .3 0 .6.3 2 .5 3.9.1.5.2 1.1c-.2-.1-.3-.1-.3-.1-.7-1.5-1.5-3-2.1-4.5-.3-.6-.4-1.4-.6-2.1s-.5-1.3-.8-1.9q-.9-2-1.7-4c-.2-.6-.4-1.2-.6-1.8-.1-.3 0-.4.3-.6.5-.2.6-.6.1-.8-.9-.2-.9-1-1.2-1.7-.6-2-1.3-4-2-6-.6-1.7-1-3.4-1.6-5.1-.4-1-.9-1.9-1.4-2.9 0-.2-.2-.4-.3-.6-1.1-2.2-2.2-4.4-3.3-6.6-.6-1.2-1.1-2.4-1.6-3.6q.1-.1.2-.2c.4.3.9.6 1.3 1 .7.7 1.4 1.4 1.9 2.2.9 1.5 1.8 3.1 2.6 4.7.4.7.7 1.4 1.1 2.1 2.1 4.2 3.9 8.5 5.4 12.9.7 2 1 4.1 1.5 6.1.3 1.7.6 3.3.5 5 0 .1.1.3.1.5.4 1 .4 2 .4 3 .1.3.3.6.4 1q.1 0 .3-.1 0-.4.1-.8c.1-1.8.1-3.6.3-5.3.2-1.2.5-2.4.8-3.5.6-2.6 1.9-5 3.2-7.2 1.4-2.4 3.3-4.3 5.4-5.8 1.7-1.2 3.5-2.1 5.3-3.2.7 1 1.3 1.9 2.1 3z" fill="#fff"/><path d="m395 390.3c.1-.8.2-1.4.3-2q.3-2.2.6-4.4.1-1 .3-2c0-.1.2-.4.3-.4h2.5c-.1 1-.2 1.8-.3 2.6-.2 1.5-.4 3-.6 4.4q-.3 2.1-.6 4.2-.4 2.6-.8 5.2c-.1.7-.1 1.4-.3 2.2 0 .3-.1.5-.6.5-.7 0-1.4 0-2.2 0q-.1-.3-.1-.6-.1 0-.2 0c-.7.3-1.4.7-2.1.9-1.2.3-2.7-.5-3.3-1.6-1-1.7-1-3.5-.5-5.3.3-1.2.8-2.4 1.7-3.3 1.1-1.1 2.8-2.1 4.6-1.3.4.2.8.5 1.3.9zm-.3 4c-.1-.2-.2-.7-.4-1.1-.4-.9-1.3-1.5-2.4-1-1.3.6-2.6 3.1-1.6 4.8.6 1.1 1.4 1.4 2.5.8 1.2-.7 1.7-1.9 1.9-3.5z" fill="#fff" fill-rule="evenodd"/><path d="m489.1 400.6q0-.4 0-.5c-.8.2-1.5.6-2.3.8-1.2.2-2.4-.2-3.1-1.2-.5-.8-.9-1.7-1-2.6-.3-2.4.3-4.7 2-6.5 1.2-1.2 2.7-1.9 4.5-1.2.4.2.8.5 1.3.8.1-.6.2-1.2.3-1.7q.4-3.1.8-6.1c.1-.8.1-.9.9-.9h2c-.1.9-.2 1.8-.3 2.6q-.3 2.1-.6 4.2-.3 2.2-.6 4.5-.4 2.6-.8 5.3c-.1.7-.1 1.4-.3 2.1 0 .1-.2.4-.4.4-.8 0-1.6 0-2.4 0zm1.1-6c-.1-.4-.1-.8-.2-1.2-.3-1.1-1.4-1.7-2.4-1.3-1.7.7-2.8 3.5-1.6 5.2.5.8 1.3 1 2.1.6 1.4-.6 2-1.8 2.1-3.3z" fill="#fff" fill-rule="evenodd"/><path d="m449.4 400.6h-2.7c-.1-.2-.1-.4-.2-.5-.8.3-1.5.6-2.3.8-1.2.3-2.6-.4-3.3-1.6-1.1-2-1-4.1-.2-6.2.5-1.3 1.3-2.5 2.5-3.3 1.4-.8 3.3-1 4.5.3 0 0 .1.1.2.1.1-.8.7-.6 1.3-.6.5-.1 1 0 1.7 0-.5 3.7-1 7.3-1.5 11zm-1.7-6.2c-.1-.3-.1-.9-.4-1.3-.5-.9-1.2-1.5-2.4-.9-1.5.8-2.4 3.1-1.6 4.8.5 1.1 1.4 1.4 2.5.8 1.3-.7 1.7-1.9 1.9-3.4z" fill="#fff" fill-rule="evenodd"/><path d="m470.6 400.6c0-.3 0-.4-.1-.7-.1.1-.2.2-.4.2-2.3 1.7-5.2.8-5.9-2.4-.4-2.3.1-4.4 1.4-6.3.8-1.3 2-2.1 3.6-2.3.7 0 1.5.2 2.1.7q.3.2.6.4c.2-.9.8-.7 1.4-.7h1.6c-.2 1.2-.3 2.2-.5 3.3q-.4 2.6-.7 5.2c-.1.7-.2 1.5-.3 2.2 0 .1-.3.4-.5.4-.7 0-1.5 0-2.3 0zm-3.7-5c.1.4.2.9.4 1.3.4 1.1 1.7 1.6 2.6.9 1.2-.9 2-2.4 1.7-4.1-.3-1.4-1.8-2.2-2.9-1.4-1 .8-1.7 1.8-1.8 3.3z" fill="#fff" fill-rule="evenodd"/><path d="m386.6 394c.1 2-.6 3.7-1.9 5.2q-1.3 1.5-3.4 1.7c-1.1.1-2.1 0-3-.5-1.4-.8-2-2.2-2.1-3.7-.1-2.3.5-4.4 2.2-6 1.7-1.7 4.5-2 6.5-.7 1.1.7 1.5 1.8 1.7 3.1zm-7.5 1.6q0 .2 0 .4c.1.8.4 1.5 1.2 1.9.7.4 1.3.2 2-.3 1.2-.8 2-3.3.9-4.9-.6-.8-1.7-1-2.5-.4-1 .9-1.6 1.9-1.6 3.3z" fill="#fff" fill-rule="evenodd"/><path d="m508.6 396.1c.1-1.8.5-3.4 1.6-4.8 1.6-2 4.9-2.9 7.1-1.4 1 .7 1.5 1.7 1.7 2.9.3 2.3-.2 4.3-1.6 6.1-.9 1.1-2.1 1.8-3.5 1.9-.8.1-1.6.1-2.3-.1-1.7-.4-2.5-1.7-2.9-3.3-.1-.5-.1-.9-.1-1.3zm7.6-1.8c-.1-.4-.2-.9-.4-1.4-.5-.8-1.3-1.4-2.4-.7-.6.5-1.1 1.1-1.5 1.7-.5 1-.6 2.1 0 3.2.5.9 1.4 1.2 2.4.8 1.3-.7 1.8-2 1.9-3.6z" fill="#fff" fill-rule="evenodd"/><path d="m407.3 397.5c-.5 1.8-2.4 3.2-4.1 3.4-1.1.1-2.2 0-3.1-.6-1.1-.7-1.6-1.8-1.7-3-.3-2.1.2-4.1 1.4-6 .7-1.1 1.7-1.7 2.9-2s2.3-.2 3.4.4c1.2.7 1.6 1.8 1.7 3.1.1.7 0 1.4 0 2.1 0 .5-.1.7-.7.7-1.7 0-3.5 0-5.2 0-.5 0-.7.1-.7.6.1.5.1.9.3 1.4.3.9 1.6 1.2 2.4.5.3-.3.8-.5 1.2-.8q-.2-.2-.3-.3c.9.2 1.7.3 2.5.5zm-2.1-4c.2-.7-.1-1.4-.6-1.8-.4-.4-1-.4-1.5-.1-.7.4-1.2 1-1.4 2 1.2-.1 2.3-.1 3.5-.1z" fill="#fff" fill-rule="evenodd"/><path d="m427.3 395.6c-2.1 0-4 0-5.9 0-.6 0-.7.3-.7.8q0 .1 0 .1c0 .9.3 1.6 1.1 1.9s1.6-.1 2.1-.8c.4-.6.8-.6 1.3-.4.4 0 .8.1 1.2.2.4 0 .5.2.3.5-1 1.7-2.2 2.8-4.1 3-1.5.2-2.8-.1-3.8-1.2-.6-.8-.9-1.7-1-2.7-.2-2.1.3-4 1.5-5.7 1.3-2.1 4.4-2.8 6.5-1.5 1 .7 1.3 1.7 1.4 2.8.2 1 .1 2 .1 3zm-6.1-2h3.3c.1 0 .3-.3.3-.4 0-.9-.9-2.2-2.1-1.7-.8.4-1.2 1.1-1.5 2.1z" fill="#fff" fill-rule="evenodd"/><path d="m467.5 383.6c-.2 1-.3 1.9-.4 2.9-.8 0-1.6.1-2.4 0-.5 0-.7.2-.7.7-.4 2.4-.7 4.9-1.1 7.3q-.3 2.6-.7 5.2c0 .3-.1.6-.2.9-.9 0-1.7 0-2.5 0-.1 0-.4-.3-.4-.5.3-1.7.6-3.4.8-5.1.3-1.7.5-3.4.7-5.2q.2-1.2.4-2.5c.1-.6 0-.8-.7-.8h-2.2c.1-1 .3-1.9.4-3h4.4c1.5.1 2.9.1 4.6.1z" fill="#fff"/><path d="m445.9 350.1q-2.1 1.1-4.2 2.1-2.6 1.4-5.2 2.7c-2.3 1.3-4.8 2-7.3 2.6-2.2.5-3.9-.6-4.6-2.7-.3-.9-.4-1.9-.7-2.8-.2-1.1.4-2 1-2.7.9-1.1 1.9-1.9 2.9-2.8.4-.3 1-.4 1.5-.6q.1.1.2.2-.3.8-.6 1.7c-.5 1.3-1 2.7-1.5 4.1-.6 2 .9 4.1 3.5 3.2 1.3-.5 2.5-1.1 3.7-1.7 2.8-1.4 5.7-2.5 8.7-3.2.8-.1 1.7-.2 2.5-.3q0 .1.1.2z" fill="#fff"/><path d="m509.5 389.6c-.5 1-1 2-1.5 2.9-1.4 2.6-2.9 5.2-4.3 7.9-.3.7-.8.4-1.3.5-.5 0-.5-.4-.6-.7q-1.3-5-2.5-10c-.1-.2-.1-.4-.1-.6.9 0 1.8-.1 2.8 0 .1 0 .3.2.3.4q.6 2.3 1.1 4.6c0 .2.1.4.2.8.3-.5.5-.8.7-1.1q1-2.2 2-4.5c.1-.1.3-.2.4-.2.9-.1 1.8 0 2.8 0z" fill="#fff"/><path d="m413.8 381.6c-.9 6.3-1.8 12.6-2.7 18.9h-2.8q1.3-9.4 2.6-18.9z" fill="#fff"/><path d="m413.1 400.6c.1-.9.2-1.7.3-2.6q.3-2.1.6-4.2.4-2.6.7-5.2.4-2.7.8-5.3 0-.3.1-.5c.2-1.3.2-1.3 1.4-1.3h.2c1.4 0 1.4 0 1.2 1.4-.4 2.5-.7 5-1.1 7.5q-.6 4-1.2 8.1-.1.7-.1 1.5c-.1.4-.2.6-.7.6-.7 0-1.4 0-2.2 0z" fill="#fff"/><path d="m427.8 400.6q.1-1.2.2-2.2.3-2.2.7-4.4.2-2 .6-4c0-.2.2-.4.4-.4.8-.1 1.6-.1 2.4-.1v.8c.3-.2.6-.5.9-.6.7-.5 1.5-.7 2.4-.4.3.1.4.2.3.6-.3.8-.4 1.6-.6 2.4-1.8-.7-2.9-.2-3.4 1.7-.4 1.3-.5 2.6-.7 3.9-.1.8-.2 1.5-.3 2.2 0 .2-.3.5-.4.5-.9 0-1.7 0-2.5 0z" fill="#fff"/><path d="m479.7 389.5c0 .3-.1.5-.1.9 1.2-1 2.3-1.6 3.7-.9q-.4 1.4-.7 2.7c-.5-.1-1-.2-1.5-.2-1.1.1-1.7 1-1.9 2-.4 1.6-.6 3.2-.8 4.8-.1.3-.1.5-.1.8-.2 1-.2 1-1.2 1h-1.8c.2-1.5.4-2.8.6-4.2q.3-2.2.6-4.4c.1-.7.2-1.4.3-2.1 0-.1.3-.3.4-.3.8-.1 1.6-.1 2.5-.1z" fill="#fff"/><path d="m438 400.6h-2.8c.5-3.7 1-7.3 1.6-11h2.7q-.7 5.5-1.5 11z" fill="#fff"/><path d="m498.4 389.6c-.6 3.7-1.1 7.3-1.6 11h-2.8c.5-3.7 1-7.3 1.6-11z" fill="#fff"/><path d="m457.3 337.6c.3 1.3.7 2.5.9 3.8.3 1.2.4 2.5.6 3.8-1 .3-2 .5-2.9.8-.5.1-.9.3-1.4.5-.2.1-.5.2-.6.1s-.2-.4-.1-.6q.1-1.2.4-2.4c.2-1.4.5-2.9 1.4-4.1q.7-1 1.4-1.9.2 0 .3 0z" fill="#fff"/><path d="m545.3 386.8c.6 0 1.2 0 1.7.1.1 0 .3.2.3.3q-.4 2.6-.7 5.1-.4 2.7-.7 5.3-.2 1-.3 2c0 .1-.1.3-.2.3q-.8 0-1.7 0s-.1-.3-.1-.5q.3-1.9.5-3.8c.2-1.5.5-2.9.7-4.3.2-1.5.3-2.9.5-4.5z" fill="#fff"/><path d="m526.1 398.9c.3-.4.6-.8.9-1.1.1-.1.2-.1.2 0 .4.2.8.5 1.3.6.2.1.6-.2.7-.4 0-.3-.1-.7-.2-.9-.2-.2-.5-.4-.7-.5-1.2-.5-1.4-1.3-1.1-2.5.5-2.1 2.7-2.7 4.5-1.2-.3.4-.6.8-1 1.3-.2-.2-.4-.3-.6-.4-.3-.2-.7-.2-1 .3-.2.4 0 .6.4.8q.1.1.3.2c1.5.7 1.8 1.4 1.4 2.9-.4 1.9-2.9 3-4.5 1.7-.2-.3-.4-.5-.6-.8z" fill="#fff"/><path d="m538.9 392.6c.8-.2 1.4-.4 2-.5.4 0 .6.2.5.6-.2.5-.3 1-.4 1.3-.6.1-1.2.1-1.7.4-.8.4-.8 1.4-.9 2.2-.2 1-.3 2-.4 3-.1.2-.4.3-.6.3-.5 0-1 0-1.4-.2-.1-.1 0-.7.1-1.1q.4-2.9.8-5.8c.1-.1.1-.3.2-.4.3-.2 1.7 0 1.8.2z" fill="#fff"/><path d="m423.8 342.1c.1.1.1.2.1.3 0 .5.2.7.7.5h.5c-.1.5-.2 1-.3 1.5-.5 1.6-.9 3.2-1.5 4.8-.5 1.4-1 2.8-1.6 4.2-.3.5-.9.8-1.3 1.2.1-.6.1-1.3.3-1.9.7-2 1.3-4 1.9-5.9.5-1.6.8-3.1 1.2-4.7z" fill="#fff"/><path d="m495.9 385.2c0-1.5 1.4-2.6 2.6-2 .5.2.7.7.8 1.2 0 .7-.2 1.4-.7 1.9-.5.4-1.1.7-1.8.4-.6-.3-.9-.8-.9-1.5z" fill="#fff"/><path d="m439.1 383c.7.1 1.2.5 1.3 1.2.3 1.2-.4 2.3-1.6 2.6-.6.1-1.3-.2-1.5-.8-.6-1.3.4-3 1.8-3z" fill="#fff"/><path d="m486.1 330.8c.1-.1.3-.2.4-.3 1.6-.4 3.3-1 4.9-1.3 1.8-.4 3.6-.1 5.3.2q.1 0 .1.1c.5.2 1.1.5 1 1-.2.5-.8.1-1.2.1-1.2-.3-2.3-.7-3.4-.8-1-.1-2 0-3 .2-1.2.3-2.5.6-3.7.9-.1.1-.2 0-.3 0q-.1 0-.1-.1z" fill="#fff"/><path d="m547.1 399c0-.9.5-1.5 1.3-1.5.7-.1 1.2.6 1.2 1.2 0 .7-.8 1.6-1.5 1.6-.6 0-1.1-.5-1-1.3z" fill="#fff"/><path d="m541.2 397.5c.7 0 1.1.5 1.1 1.1 0 .9-.7 1.7-1.5 1.7-.5 0-1-.6-1-1.2 0-1 .6-1.6 1.4-1.6z" fill="#fff"/><path d="m533.7 397.5c.5 0 1 .5 1 1.1 0 .8-.7 1.7-1.4 1.7-.6 0-1.1-.6-1.1-1.3.1-.9.6-1.5 1.5-1.5z" fill="#fff"/><path d="m488.7 334.4c1.8-.7 3.6-.4 5.5.2-.2.1-.3.2-.4.2-1.4-.3-2.8-.1-4.2.2-.6.1-.8-.2-.9-.6z" fill="#fff"/><path d="m710.4 366.7h369.1v2.1h-369.1z" fill="#fff"/><path d="m706.9 364.7v-28.8h2v28.8z" fill="#fff"/><path d="m706.9 382.1v-11.3h2v11.3z" fill="#fff"/><path d="m705.3 368.8h-53.5v-2.1h53.5z" fill="#fff"/><path d="m743.4 339.2h-17.9v18.8h17.9v-6.5l4.3.9v3.1c0 2.3-.4 4-1.2 4.8-.8.9-2.4 1.3-4.8 1.3h-14.5q-3.5 0-4.8-1.3-1.2-1.3-1.2-4.8v-13.7q0-3.5 1.2-4.8c.9-.9 2.5-1.3 4.8-1.3h14.5c2.4 0 4 .4 4.8 1.3.8.8 1.2 2.4 1.2 4.8v2.5l-4.3.8z" fill="#fff"/><path d="m759.1 361.6v-25.9h4.3v22.3h19.6v3.6z" fill="#fff"/><path d="m812 344.2q.1.7.2 1.3 0 .7 0 1.8v14.3h-3v-21.1h2.9l10.2 13.7 9.6-13.7h3.2v21.1h-3.2v-14.3c0-.2 0-.6.1-1.4q.1-1.1.1-1.7c-.3.6-.5 1.1-.7 1.4-.3.4-.4.7-.6.9l-8.1 11.8h-.9l-8.3-11.4c-.1-.1-.1-.1-.2-.2-.6-.8-1-1.6-1.3-2.5z" fill="#fff"/><path d="m846.1 361.6v-21.1h20.4v2.8h-16.8v5.9h10.2v2.8h-10.2v6.7h16.9v2.9z" fill="#fff"/><path d="m892.9 343.3h-14.7v15.3h14.7v-5.2l3.5.7v2.5c0 1.9-.3 3.3-1 3.9q-1 1.1-3.9 1.1h-11.8q-2.9 0-4-1.1-1-1-1-3.9v-11.1q0-2.9 1-4c.7-.7 2-1 4-1h11.8q2.9 0 3.9 1 1 1 1 4v2l-3.5.6z" fill="#fff"/><path d="m923.5 343.3h-14.6v15.3h14.6v-5.2l3.5.7v2.5c0 1.9-.3 3.3-1 3.9q-1 1.1-3.9 1.1h-11.8q-2.9 0-3.9-1.1-1.1-1-1.1-3.9v-11.1q0-2.9 1.1-4c.7-.7 2-1 3.9-1h11.8q2.9 0 3.9 1 1 1 1 4v2l-3.5.6z" fill="#fff"/><path d="m932.2 361.6 11.5-21.1h3.8l11.7 21.1h-3.9l-2.7-5.2h-14.2l-2.7 5.2zm7.6-7.9h11.4l-5.7-10.8z" fill="#fff" fill-rule="evenodd"/><path d="m966 361.6v-21.1h2.2l15.8 14.1q.6.5 1.2 1.1l1.2 1.5q-.2-1-.2-2.1-.1-1.1-.1-3.1v-11.5h3.2v21.1h-1.9l-16.3-14.7c0-.1-.2-.2-.3-.3-.8-.7-1.4-1.4-1.8-2.1.1.7.1 1.3.2 2.1q0 1.1.1 2.5v12.5z" fill="#fff"/><path d="m1000.3 340.5h3.5v21.1h-3.5z" fill="#fff"/><path d="m1032.6 343.3h-14.6v15.3h14.6v-5.2l3.5.7v2.5c0 1.9-.3 3.3-1 3.9q-1 1.1-3.9 1.1h-11.8q-2.9 0-3.9-1.1-1.1-1-1-3.9v-11.1q-.1-2.9 1-4c.7-.7 2-1 3.9-1h11.8q2.9 0 3.9 1 1 1 1 4v2l-3.5.6z" fill="#fff"/><path d="m1041.2 361.6 11.6-21.1h3.7l11.8 21.1h-3.9l-2.7-5.2h-14.3l-2.7 5.2zm7.7-7.9h11.3l-5.7-10.8z" fill="#fff" fill-rule="evenodd"/><path d="m728.2 375.9h-5.1v5.1h5.1v-1.7l1.4.2v.9q0 1-.4 1.4-.3.3-1.4.3h-4.3q-1 0-1.4-.3-.4-.4-.4-1.4v-3.9q0-1 .4-1.3.4-.4 1.4-.4h4.3q1.1 0 1.4.4.4.3.4 1.3v.7l-1.4.3z" fill="#fff"/><path d="m732.4 376.5q0-1 .4-1.3.4-.4 1.4-.4h5.3q1 0 1.4.4.4.3.4 1.3v3.9q0 1-.4 1.4-.4.3-1.4.3h-5.3q-1.1 0-1.5-.3-.3-.4-.3-1.4zm1.4 4.5h6.1v-5.2h-6.1z" fill="#fff" fill-rule="evenodd"/><path d="m750.9 375.9h-5.1v1.9h4.7q1 0 1.4.4.4.3.4 1.3v.9q0 1-.4 1.4-.4.3-1.4.3h-4.5q-1 0-1.4-.3-.4-.4-.3-1.4v-.2l1.2-.3v1.1h5.5v-2h-4.7q-1 0-1.4-.4-.4-.4-.4-1.4v-.7q0-1 .4-1.3.4-.4 1.4-.4h4.1q1 0 1.4.4.4.3.4 1.2v.2l-1.3.3z" fill="#fff"/><path d="m759 375.9v6.2h-1.4v-6.2h-3.4v-1.1h8.3v1.1z" fill="#fff"/><path d="m764.6 382.1v-7.3h5.8q.9 0 1.2.3.4.4.4 1.1v1.7q0 .7-.4 1-.3.4-1.2.4h-.9l3.2 2.8h-1.8l-3-2.8h-2v2.8zm5.3-6.2h-3.9v2.3h3.9q.5 0 .6-.1.2-.2.2-.6v-.9q0-.4-.2-.6-.1-.1-.6-.1z" fill="#fff" fill-rule="evenodd"/><path d="m776.5 374.8v6.2h5.4v-6.2h1.4v5.6q0 1-.4 1.4-.4.3-1.4.3h-4.6q-1 0-1.4-.3-.4-.4-.4-1.4v-5.6z" fill="#fff"/><path d="m786.2 382.1v-.6l5.6-5.6h-5.1v-1.1h7.2v.6l-5.5 5.6h5.5v1.1z" fill="#fff"/><path d="m797.3 374.8h1.4v7.3h-1.4z" fill="#fff"/><path d="m801.9 376.5q0-1 .3-1.3.4-.4 1.5-.4h5.2q1.1 0 1.5.4.3.3.3 1.3v3.9q0 1-.3 1.4-.4.3-1.5.3h-5.2q-1.1 0-1.5-.3-.3-.4-.3-1.4zm1.3 4.5h6.2v-5.2h-6.2z" fill="#fff" fill-rule="evenodd"/><path d="m815.1 376.3q.1.3.1.6 0 .3 0 .7v4.5h-1.2v-7.3h1l5.4 4.8q.2.2.4.4.3.3.5.6-.1-.3-.1-.7 0-.3 0-.7v-4.4h1.2v7.3h-.9l-5.5-4.8q-.3-.3-.5-.5-.2-.3-.4-.5z" fill="#fff"/><path d="m825.8 374.8h1.4v7.3h-1.4z" fill="#fff"/><path d="m837 382.1v-7.3h7.3v1.1h-6v1.9h3.7v1.1h-3.7v2.2h6.1v1z" fill="#fff"/><path d="m853.5 382.1v-7.3h1.4v6.2h5.7v1.1z" fill="#fff"/><path d="m862.2 382.1 4.2-7.3h1.3l4.3 7.3h-1.5l-1-1.7h-5l-1 1.7zm3-2.7h3.8l-1.9-3.5z" fill="#fff" fill-rule="evenodd"/><path d="m876.5 382.1-4.2-7.3h1.5l3.2 5.9 3.2-5.9h1.3l-4 7.3z" fill="#fff"/><path d="m883.4 376.5q0-1 .4-1.3.4-.4 1.4-.4h5.3q1.1 0 1.4.4.4.3.4 1.3v3.9q0 1-.4 1.4-.3.3-1.4.3h-5.3q-1 0-1.4-.3-.4-.4-.4-1.4zm1.4 4.5h6.1v-5.2h-6.1z" fill="#fff" fill-rule="evenodd"/><path d="m895.5 382.1v-7.3h5.9q.9 0 1.2.3.4.4.4 1.1v1.7q0 .7-.4 1-.3.4-1.2.4h-.9l3.2 2.8h-1.8l-3-2.8h-2v2.8zm5.3-6.2h-3.9v2.3h3.9q.5 0 .6-.1.2-.2.2-.6v-.9q0-.4-.2-.6-.1-.1-.6-.1z" fill="#fff" fill-rule="evenodd"/><path d="m905.3 382.1 4.2-7.3h1.3l4.3 7.3h-1.5l-1-1.7h-5l-1 1.7zm3-2.7h3.8l-1.9-3.5z" fill="#fff" fill-rule="evenodd"/><path d="m916.8 382.1v-.6l5.6-5.6h-5.1v-1.1h7.3v.6l-5.6 5.6h5.6v1.1z" fill="#fff"/><path d="m927.9 374.8h1.4v7.3h-1.4z" fill="#fff"/><path d="m932.5 376.5q0-1 .4-1.3.3-.4 1.4-.4h5.3q1 0 1.4.4.4.3.4 1.3v3.9q0 1-.4 1.4-.4.3-1.4.3h-5.3q-1.1 0-1.5-.3-.3-.4-.3-1.4zm1.4 4.5h6.1v-5.2h-6.1z" fill="#fff" fill-rule="evenodd"/><path d="m945.8 376.3q0 .3 0 .6.1.3.1.7v4.5h-1.3v-7.3h1l5.4 4.8q.2.2.5.4.2.3.4.6-.1-.3-.1-.7 0-.3 0-.7v-4.4h1.2v7.3h-.9l-5.5-4.8q-.3-.3-.5-.5-.2-.3-.3-.5z" fill="#fff"/><path d="m956.4 374.8h1.4v7.3h-1.4z" fill="#fff"/><path d="m968.7 376.2q0 .1 0 .4 0 .5 0 .6v4.9h-1.1v-7.3h1.1l3.7 4.8 3.3-4.8h1.3v7.3h-1.3v-4.9q0-.3.1-.5 0-.3 0-.5-.1.3-.2.6-.2.2-.3.4l-2.8 3.8h-.3l-3-3.8q-.1-.2-.3-.4-.1-.3-.2-.6z" fill="#fff"/><path d="m980.4 382.1v-7.3h7.4v1.1h-6v1.9h3.6v1.1h-3.6v2.2h6.1v1z" fill="#fff"/><path d="m996.8 375.9h-5.1v5.1h5.1v-1.7l1.4.2v.9q0 1-.4 1.4-.4.3-1.4.3h-4.3q-1.1 0-1.4-.3-.4-.4-.4-1.4v-3.9q0-1 .4-1.3.3-.4 1.4-.4h4.3q1 0 1.4.4.4.3.4 1.3v.7l-1.4.3z" fill="#fff"/><path d="m1007.4 375.9h-5.1v5.1h5.1v-1.7l1.4.2v.9q0 1-.4 1.4-.3.3-1.4.3h-4.3q-1 0-1.4-.3-.4-.4-.4-1.4v-3.9q0-1 .4-1.3.4-.4 1.4-.4h4.3q1.1 0 1.4.4.4.3.4 1.3v.7l-1.4.3z" fill="#fff"/><path d="m1010.6 382.1 4.2-7.3h1.3l4.3 7.3h-1.5l-1-1.7h-5l-1 1.7zm2.9-2.7h3.9l-1.9-3.5z" fill="#fff" fill-rule="evenodd"/><path d="m1023.8 376.3q0 .3 0 .6.1.3.1.7v4.5h-1.3v-7.3h1l5.4 4.8q.3.2.5.4.2.3.4.6-.1-.3-.1-.7 0-.3 0-.7v-4.4h1.3v7.3h-1l-5.5-4.8q-.3-.3-.5-.5-.2-.3-.3-.5z" fill="#fff"/><path d="m1034.4 374.8h1.4v7.3h-1.4z" fill="#fff"/><path d="m1045.5 375.9h-5.1v5.1h5.1v-1.7l1.4.2v.9q0 1-.4 1.4-.4.3-1.4.3h-4.3q-1.1 0-1.5-.3-.3-.4-.3-1.4v-3.9q0-1 .3-1.3.4-.4 1.5-.4h4.3q1 0 1.4.4.4.3.4 1.3v.7l-1.4.3z" fill="#fff"/><path d="m1049.8 382.1v-7.3h1.4v3h5.8v-3h1.4v7.3h-1.4v-3.2h-5.8v3.2z" fill="#fff"/><path d="m1061.8 382.1v-7.3h7.4v1.1h-6v1.9h3.6v1.1h-3.6v2.2h6v1z" fill="#fff"/><path d="m704.8 364.7h6.1v6.1h-6.1z" fill="#fff"/><path d="m710.9 364.7v6.1h-6.1v-6.1zm-1 .9h-4.2v4.2h4.2z" fill="#bbb" fill-rule="evenodd"/><g fill="#fff"><path d="m698.2 352.5-16.1 16.1 5.9 5.9s9.5-9.4 13.9-13.9c.6-.6.9-1.4.9-2.2s-.3-1.6-.9-2.2c-1.7-1.7-3.7-3.7-3.7-3.7z" fill-rule="evenodd"/><path d="m694 368.4-17-17.1-5.9 6 17 17z"/><path d="m659.8 350.2 26.5 26.6-4.3 4.5h-7.5s-15-14.9-20.7-20.7c-1.2-1.2-1.2-3.2 0-4.4 2.4-2.4 6-6 6-6z" fill-rule="evenodd"/><path d="m688.3 358.7-18.4-18.7 4.3-4.5 7.5.1 14.8 14.9z" fill-rule="evenodd"/><path d="m664.3 361.7 18.7-18.7-4.2-4.4h-7.4l-15.1 15.1z" fill-rule="evenodd"/><path d="m1876.7 355.5c-.2 8.4-4.1 15.3-12.2 18.5-3.1 1.2-6.4 1.4-9.6 1.1-2.6-.2-5.1-.9-7.4-2.1-4.7-2.5-7.6-6.3-8.5-11.6-.7-3.7-.5-7.5.9-11 2.1-5 5.7-8.6 10.8-10.5 5.2-1.9 10.5-2 15.7.2 5.5 2.2 8.8 6.4 10 12.3.2 1.2.2 2.4.3 3.1zm-28.7 1.7c.1 1 .2 2 .5 3 1.6 5.5 7.7 7.5 12.3 5.8 4-1.5 6.4-5.4 6.3-10-.1-3.1-1.3-5.7-3.9-7.5-2-1.4-4.4-1.7-6.8-1.4-1.9.3-3.6.9-5.1 2.3-2.2 2.1-3.2 4.7-3.3 7.8z" fill-rule="evenodd"/><path d="m1788.1 354.5h17c0 5.4-.8 10.5-4.2 14.8-2.4 3-5.5 4.8-9.2 5.6-4.7.9-9.3.7-13.6-1.6-4.6-2.4-7.3-6.4-8.1-11.5-1.1-6.2.2-11.9 4.1-16.9 2.8-3.4 6.4-5.5 10.7-6.2s8.4-.4 12.3 1.7c2.9 1.5 5.1 3.6 6.7 6.4q.4.8.8 1.6c-2.8 1.2-5.7 2.4-8.6 3.6q-.1-.4-.2-.6c-.9-2.5-2.7-4-5.3-4.5-2.6-.6-5.1-.3-7.3 1.3-1.6 1.2-2.5 2.8-3.2 4.6-1.1 3-1.3 6.1-.4 9.2s3.6 5.3 6.8 5.5c2 .1 3.9-.2 5.7-1.3 1.6-1 2.5-2.5 3.2-4.3h-8.1c.3-2.5.6-4.9.9-7.4z"/><path d="m1812 339.7q.2 0 .4 0c4.6 0 9.2 0 13.8.1 2.4 0 4.7.6 6.6 2.2 2.2 1.8 3.2 4.2 3.4 7.1.1 2.9-.4 5.8-2.2 8.3-1 1.5-2.4 2.5-4.1 3.3-.4.1-.9.3-1.4.5 2.7 4.4 5.3 8.8 8 13.2h-1q-4.5 0-9 .1c-.5 0-.7-.2-.9-.6q-3.4-6.3-6.8-12.7-.1-.2-.3-.6c-.6 4.6-1.2 9.2-1.7 13.8h-9.4c1.5-11.5 3-23.1 4.6-34.7zm8.3 7.2q-.5 4.1-1.1 8.3 1.7 0 3.3 0c3.3-.1 4.7-2.5 4.4-5.3-.2-1.7-1.3-2.8-3-3-1.2-.1-2.3 0-3.6 0z" fill-rule="evenodd"/><path d="m1913 339.8q-.5 4.5-1.1 9c-.5 3.8-.9 7.7-1.5 11.5-.2 2-.5 3.9-1 5.8-1.1 3.7-3.5 6.1-6.9 7.6-3.2 1.3-6.6 1.5-10 1.2-2.7-.3-5.2-1-7.5-2.6-3.1-2.2-4.9-5.2-4.9-9 .1-2.5.4-5 .7-7.5.5-4.3 1.1-8.6 1.6-12.9q.3-1.6.5-3.2h9.3q-.3 2.5-.6 5-1 6.8-1.8 13.5c-.2 1.2-.3 2.3-.3 3.5.1 2.3 1.3 3.8 3.6 4.3 1.6.4 3.2.4 4.7-.2 1.7-.6 2.6-1.9 3-3.6.4-1.8.6-3.6.8-5.5q.9-6.5 1.7-13.1.3-1.7.5-3.4c0-.3 0-.5.4-.5q4.3 0 8.6 0c.1 0 .1 0 .2.1z"/><path d="m1688.1 374.4c-.5-1.7-1-3.5-1.5-5.3-.1-.6-.4-.7-1-.7q-5 0-10.1 0c-.5 0-.7.2-.9.6q-1.1 2.5-2.3 5c-.1.2-.3.4-.5.4-3.3 0-6.6 0-10 0q.2-.3.3-.6 8.2-16.8 16.4-33.6c.2-.3.4-.5.8-.5q4.6 0 9.2 0c.4 0 .5.1.6.5q4.4 17 8.7 34 0 0 .1.2zm-3.5-13.2c-.6-4.2-1.2-8.4-1.8-12.7-1.6 4.3-3.1 8.5-4.6 12.7z" fill-rule="evenodd"/><path d="m1732.2 374.4q.2-1.9.5-3.7.7-6 1.5-12.1.8-6 1.6-12 .4-3.1.8-6.2c0-.6.2-.7.7-.7h14c2.2 0 4.3.3 6.2 1.5 2.2 1.5 3.4 3.5 3.9 6.1.7 3.4.3 6.7-1.2 9.9-1.6 3.3-4.2 5.2-7.8 5.6-2.8.2-5.6.2-8.5.3-.2 0-.5 0-.8 0q-.8 5.6-1.6 11.3zm13-27.3q-.6 4.3-1.2 8.5c1.7 0 3.3 0 4.9-.1.7 0 1.3-.3 1.9-.7 1.5-1 1.8-2.6 1.8-4.4 0-1.9-1.1-3.2-3-3.3-1.4-.1-2.9 0-4.4 0z" fill-rule="evenodd"/><path d="m1919.5 339.7h.7q7 0 13.9 0c2.2 0 4.4.3 6.3 1.6 2.3 1.6 3.6 3.8 4 6.6.4 2.7.2 5.3-.7 7.9-1.5 4.1-4.3 6.5-8.6 7-2.8.3-5.6.2-8.4.3q-.4 0-.8 0c-.5 3.7-1 7.5-1.5 11.3h-9.3c1.5-11.6 2.9-23.1 4.4-34.7zm8.4 7.4c-.3 2.8-.7 5.6-1 8.4 1.6 0 3.3.1 4.9 0 .4 0 .7-.1 1-.3 1.8-.7 2.9-2.8 2.6-5-.2-1.8-1.1-2.9-2.9-3.1-1.5-.2-3 0-4.6 0z" fill-rule="evenodd"/><path d="m1711.6 363.1q-.7 5.6-1.5 11.3h-9.3c1.4-11.6 2.9-23.1 4.4-34.7h.8q6.9 0 13.8 0c1.7 0 3.4.1 5 .9 2.9 1.3 4.5 3.6 5.1 6.7.7 3.4.4 6.7-1.2 9.9-1.6 3.3-4.2 5.2-7.8 5.6-2.8.2-5.5.2-8.3.3-.3 0-.6 0-1 0zm1-7.6c1.7 0 3.3.1 5 0 .5 0 1.1-.3 1.6-.6 1.7-1.3 2-3.1 1.8-5.1-.2-1.5-1.1-2.4-2.5-2.6-1.5-.2-3.1-.2-4.6-.2-.1 0-.3.3-.3.5q-.6 4-1 8z" fill-rule="evenodd"/><path d="m1612.7 372.9c-8.3 0-15.1-6.9-15.2-15.3 0-8.5 6.9-15.4 15.2-15.4 8.4 0 15.2 6.8 15.2 15.4.1 8.3-6.8 15.3-15.2 15.3zm4.7-4.2c2.3 0 4.2-1.9 4.3-4.2 0-2.4-2-4.4-4.4-4.4-2.2 0-4.1 2-4.2 4.3 0 2.3 1.9 4.3 4.3 4.3zm-9.6-8.6c-2.4.1-4.3 2-4.3 4.3s1.9 4.3 4.2 4.3c2.4.1 4.3-1.9 4.3-4.3s-1.9-4.3-4.2-4.3zm-3-.7c2.3.1 4.2-1.8 4.2-4.2s-1.8-4.3-4.3-4.3c-2.3 0-4.2 1.9-4.2 4.2 0 2.4 1.8 4.3 4.3 4.3zm15.6-8.5c-2.4 0-4.3 1.9-4.3 4.3s2 4.3 4.4 4.3c2.3-.1 4.2-2 4.1-4.5 0-2.3-1.9-4.1-4.2-4.1zm-7.7 2.7c2.4 0 4.3-1.9 4.3-4.3s-1.9-4.3-4.3-4.3c-2.3 0-4.2 1.9-4.2 4.3s1.9 4.3 4.2 4.3z" fill-rule="evenodd"/><path d="m1652.9 339.7c-1.1 8.8-2.3 17.6-3.5 26.4h10.7c-.1 1.2-.3 2.2-.4 3.3q-.3 2.3-.6 4.6c0 .3-.2.4-.5.4q-9.7 0-19.3 0c-.1 0-.2 0-.3 0q.2-1.8.5-3.6.7-5.9 1.5-11.8.9-6.3 1.7-12.6c.3-2 .5-4 .8-6.1 0-.4.1-.6.7-.6q4.1 0 8.1 0z"/><path d="m1595.8 374.4h-.8v-34.7h35.4v34.7h-.7v-34h-33.9z"/><path d="m1595.8 376.1v2.7h1.8v.4h-2.5v-3.1zm4.3 0 1.3 3.1h-.7l-.2-.6h-1.4l-.3.6h-.8l1.4-3.1zm-.4.7-.5 1.3h1zm3.5-.7c.5 0 .8 0 1.1.1.4.1.7.5.7.9s-.3.7-.7.8c-.3.1-.5.1-1 .1h-.3v1.2h-.7v-3.1zm.1 1.4h.6c.3-.1.4-.3.4-.4 0-.2-.1-.4-.3-.4-.1-.1-.3-.1-.7-.1h-.2v.9zm3.5-1.4c.6 0 .8 0 1.1.1.5.1.7.5.7.9s-.3.7-.7.8c-.3.1-.5.1-1 .1h-.3v1.2h-.7v-3.1zm0 1.4h.7c.2-.1.3-.3.3-.4 0-.2-.1-.4-.2-.4-.2-.1-.3-.1-.7-.1h-.3v.9zm7.5.1v1.3q-.7.3-1.4.3c-1.1 0-1.8-.5-1.8-1.5s.7-1.7 1.7-1.7c.5 0 .9.2 1.2.4.2.2.3.4.3.7h-.7c0-.4-.3-.6-.7-.6-.7 0-1 .4-1 1.2q0 1 1 1 .4 0 .8-.2v-.5h-.8v-.4zm2-1.5c.7 0 1 0 1.3.1.4.2.5.5.5.8q.1.6-.6.9l.9 1.3h-.9l-.8-1.2h-.5v1.2h-.8v-3.1zm.1 1.4c.4 0 .5 0 .6-.1q.4-.1.4-.4c0-.1-.2-.3-.3-.3-.1-.1-.3-.1-.8-.1h-.2v.9zm6.1.2c0 .5-.2.9-.6 1.2-.3.2-.7.3-1.2.3-1.1 0-1.8-.6-1.8-1.6 0-.5.2-.9.6-1.2q.5-.4 1.2-.4c1.1 0 1.8.7 1.8 1.7zm-2.8-.1c0 .7.3 1.2 1 1.2.6 0 1-.5 1-1.1 0-.8-.4-1.2-1-1.2s-1 .4-1 1.1zm4.5-1.5v1.8.5q.2.3.7.3c.5 0 .7-.1.8-.4v-2.2h.8v1.8c0 .4 0 .6-.1.8-.3.4-.8.5-1.5.5-.6 0-1.1-.1-1.4-.5-.1-.2-.1-.4-.1-.8v-1.8zm4.5 0c.6 0 .8 0 1.1.1.5.1.7.5.7.9s-.3.7-.8.8c-.2.1-.4.1-.9.1h-.3v1.2h-.7v-3.1zm0 1.4h.7c.2-.1.3-.3.3-.4 0-.2-.1-.4-.3-.4-.1-.1-.3-.1-.6-.1h-.3v.9z" fill-rule="evenodd"/><path d="m180.9 347-5.5 22.2q-1.1 4.1 2.4 4 3.7.1 4.7-4l5.5-22.2h12.4l-8.3 33.7h-12.4l1-4.1h-.2q-3.7 4.9-10.5 4.9-4.3.1-6.6-1.9-2.4-1.9-1.2-7.2l6.3-25.4zm-18.1 0-8.3 33.7h-12.4l8.3-33.7zm71.9.4q1.9 1.3 2.3 3.9 2.3-2.9 5.3-4 2.8-1.2 5.8-1.2 4.4 0 6.8 1.8 2.4 2.1 1.1 7.4l-4.8 19.2c-.8 3.6-4.5 6.2-8.4 6.2h-5.5l5.5-22.2q1.1-4.1-2.5-4-3.7-.1-4.7 4l-5.5 22.2h-12.4l5.5-22.2q1.1-4.1-2.5-4-3.6-.1-4.6 4l-5.5 22.2h-12.5l8.4-33.7h12.5l-1 4.1h.2q3.8-5 10.6-5 4 0 5.9 1.3zm-137.4-11.1 1.7 44.4h-14.3l.4-7.7h-10.7l-3.3 7.7h-14.3l18.8-35.6c3-5.2 8.2-8.6 14.3-8.8zm46 .4-2.6 10.3h5.1l-1.8 7.6h-5.2l-4 16q-.6 2.7 2.5 2.6h2l-1.8 7.5q-3.8.3-7 .3-5.7.1-7.7-1.5-2.3-1.6-.9-7l9-35.8zm-18.3-.4-11 44.4h-12.4l11-44.4zm-46.9 28.2h7.4l1-18.6z" fill-rule="evenodd"/><path d="m1231.4 360.5c-.2-.5-.4-.8-.6-1.2q-3.1-6.8-6.2-13.7c-.3-.6-.7-.9-1.4-.9q-12.1 0-24.2 0c-.9 0-1.3.3-1.2 1.2q0 1.6 0 3.2c-.1.8.2 1.1 1.1 1.1h11.8 1.4c-5 7.8-9.9 15.5-14.9 23.2.5.1.9.1 1.2.1q12.3 0 24.6.1c.8 0 1.2-.3 1.1-1.2q-.1-1.6 0-3.3c.1-.9-.3-1.1-1.1-1.1q-6.1 0-12.3 0h-1.5c3.5-5.5 6.8-10.6 10.2-16 .2.4.4.6.5.9 3.2 6.6 6.4 13.2 9.5 19.8.5 1.2 1.4 1 2.3 1.1s1.4-.3 1.7-1.2c2-4.1 3.9-8.2 5.9-12.3.1-.3.2-.5.5-.9.5 1.3 1.1 2.5 1.4 3.7.5 1.6 1.1 3.3 1.3 5 .2 2.7-1 4.7-3.6 5.8q-15.7 6.6-31.4 13.2c-1.4.6-2.8 1.2-4.2 1.6-3.5 1-6.1-.4-7.5-3.7-4.5-10.8-8.9-21.6-13.4-32.5-1.4-3.3.1-7.1 3.4-8.5 9.7-4.1 19.4-8.3 29.1-12.4 2.3-1 4.5-1.9 6.8-2.5 3.7-1 6.7.6 8.1 4.2q3.1 7.7 6.1 15.5c.2.5.2 1.1 0 1.5-1.3 3.3-2.8 6.6-4.2 9.9 0 0-.1.1-.3.3z"/><path d="m1354.7 365.3c-.2.7-.5 1.4-.8 2.1-2.3 5.3-7.4 7.5-12.7 6.7-5.9-.8-9.4-5.2-10.2-10.4-.6-3.8-.5-7.6.7-11.3 1.8-5.3 6-7.7 10.8-8.1 2.6-.2 5 .3 7.3 1.6 2.5 1.5 3.9 3.8 4.6 6.6.2.6-.1.9-.6 1q-1.5.2-3.1.5c-.5.1-.7-.1-.9-.7-.6-1.9-1.5-3.5-3.4-4.4-3.4-1.7-7.9-.2-9.5 3.4-2.1 4.6-2.1 9.5 0 14.2 1.1 2.6 4.2 4.1 7 3.7 3.1-.3 5.3-2.2 6.1-5.3.4-1.7.4-1.7 2.2-1.5q.7 0 1.5.1c.7.2.9 0 .9-.7-.1-2.1-.2-4.1-.1-6.2.2-2.4.9-4.7 2.1-6.8 2.2-3.5 5.5-5.1 9.4-5.5 2.9-.2 5.7.3 8.1 2 2.3 1.5 3.5 3.7 4.1 6.3 0 .3-.3.7-.5.8-1.1.2-2.2.4-3.4.5-.2.1-.5-.2-.6-.4-.2-.4-.3-.8-.5-1.2-2-5-7.6-4.9-10.7-2.4-1.6 1.3-2.5 3-2.8 5-.8 3.6-.8 7.2.6 10.8 1.1 2.9 4 4.8 7.2 4.5 3.2-.2 5.5-2.3 6.3-5.6.3-1.4.3-1.5 1.8-1.3 1 .2 2.7.2 2.7.2s.7-1.1 1.1-2c1.3-2.5 3.9-3.5 6.5-4 3.2-.6 6.4-1 9.6-1.6 2.1-.3 2.2-.5 2.1-2.5-.2-2.8-1.7-4.6-4.4-4.9-1.5-.2-3.1-.2-4.6-.1-2.6.2-4.1 1.8-4.8 4.2-.3.9-.7 1.1-1.4 1q-1.5-.3-2.9-.4c-.6-.1-.6-.4-.5-.9.8-3.7 3-6.1 6.5-7.2 3.8-1.1 7.7-1.2 11.5-.1 3.3 1 5.1 3.4 5.2 6.9v10.8c.1 3.5-.2 7.2 1.4 10.8h-2.8c-2.3 0-2.4 0-2.8-2.4-.1-.2-.1-.5-.2-.9-.4.2-.7.4-1 .6-3.7 3-7.9 4-12.6 3-3-.7-5-2.4-6-5.4-.1-.3-.3-1.5-.2-1.9-2.6 5.2-6.9 8.1-12.4 7.6s-9-3.6-10.6-8.9c-.1.1-.2.1-.3.1zm33.8 5.3c1.2-.2 2.3-.3 3.3-.6 2.6-.8 4.5-2.4 5.3-5.1.3-1.5.3-3 .4-4.5.1-1-.1-1.1-1.1-.8q-2.3.6-4.7 1.1c-1.8.4-3.7.7-5.6 1.1-1.8.5-3 2-3.1 3.8s.6 3.3 2.3 4.1c1 .5 2.2.6 3.2.9z" fill-rule="evenodd"/><path d="m1492.8 371.1c-.7.1-1.6.2-2.5.3q-2.2.2-4.4.4c-1.5.1-1.6.1-2-1.3-.1-.2-.1-.4-.2-.7q-.1-.4-.3-.8c-.2.1-.6.2-.8.4-3.2 3.4-7.2 4.4-11.7 4-3.8-.4-6.3-4-5.8-8 .5-4.4 3.2-6.5 6.9-7.8q4.9-1.7 9.8-3.5c.7-.3 1.7-.5 1.4-1.7-.3-1.7-.7-2.3-2.2-2.4-2.2-.2-5.1.4-5.9 3.1-.1.2-.6.5-.9.5-2.4 0-4.9-.1-7.3-.2-.7 0-.9-.2-.7-.9 1-4.2 3.6-6.7 7.6-7.8 4.1-1 8.2-1.5 12.4-.8 2.9.5 4.8 2.2 5.5 5.1.4 1.9.5 3.9.5 5.9.1 3.6-.1 7.2-.1 10.9.1 1.7.5 3.4.7 5.3zm-9.6-10.7v-.8c-.1-.6-.4-.8-.9-.6-1.9.8-3.8 1.5-5.6 2.5-.8.4-1.5 1.1-2 1.9-1 1.9.3 4 2.4 3.9.9-.1 1.8-.3 2.6-.7 2.6-1.2 3.5-3.5 3.5-6.2z" fill-rule="evenodd"/><path d="m1267.9 348.5c2.2-2.7 5-4.2 8.4-4.2 3.6.1 6.3 1.4 7.8 4.6.9-.8 1.8-1.7 2.7-2.4 2.9-2.5 7.6-2.9 10.9-1 2.7 1.6 3.6 4.2 3.7 7.1.1 4.6 0 9.1 0 13.7v6.1c.1 1-.3 1.2-1.1 1.2q-1.2-.1-2.3 0c-1 0-1.3-.3-1.3-1.2q.1-6 .1-11.9c0-2.8-.1-5.5-.3-8.2-.2-2.1-1.9-3.6-4-3.7-4.4-.3-7.4 2.4-7.6 7.1-.1 4.5 0 9-.1 13.5 0 1.1 0 2.2.1 3.3 0 .8-.3 1.1-1 1.1q-1.4-.1-2.8 0c-.8 0-1-.3-1-1.1q.1-5.5 0-11.1c0-2.8.1-5.6-.1-8.4-.3-4-3.3-5-6.5-4.2s-5 3.2-5.1 6.8c-.2 5.3-.2 10.6-.3 15.9q0 .6 0 1.2c.1.7-.2.9-.9.9-.9 0-1.8 0-2.8 0-.8.1-1-.3-1-1 0-6 0-12 .1-18 0-2.8 0-5.6 0-8.4 0-.9.3-1.2 1.2-1.2q1 .1 2.1 0c.7 0 .9.3.9 1v2.3c.1.1.2.2.2.2z"/><path d="m1319 360.5h-9.2c-1.2 0-1.2.1-1.1 1.3.3 3.4 1.7 6.3 4.9 7.8 4.3 1.9 8.4.2 10.4-4.2.3-.7.7-1 1.5-.9q1.6.3 3.1.4c.8.1.6.7.4 1.1-1.1 3-2.8 5.5-5.7 6.8-5.1 2.3-10.2 2.1-14.9-1.3-2.8-2.1-4.1-5.2-4.5-8.5-.5-3.9-.4-7.8 1.3-11.5 2.5-5.5 8-7.8 13.5-7.1 5.9.8 9.7 5.4 10.4 10.9.2 1.3.3 2.7.4 4.1.1.8-.2 1.1-1.1 1.1q-4.7 0-9.4 0zm-2.4-3.9h5.8c2.2 0 2.3.3 1.8-2.2-1-4.7-5.8-7.4-10.2-5.6-2.9 1.2-4.5 3.5-5 6.6-.2 1-.1 1.2.9 1.2q3.3 0 6.7 0z" fill-rule="evenodd"/><path d="m1411.1 348.6c.2-.2.3-.5.5-.7 3.5-4.3 10-4.5 14.1-1.9 2.4 1.5 3.3 3.9 3.4 6.5.1 5.5 0 10.9 0 16.3v3.8c.1.7-.2 1-.9.9-.9 0-1.8 0-2.7 0-.8.1-1.1-.2-1.1-1.1.1-5.4.1-10.8.1-16.3 0-1.3-.2-2.7-.5-4-.4-1.7-1.7-2.8-3.4-3.3-3.2-1-7.5.4-8.6 3.9-.6 1.6-.8 3.5-.9 5.2-.1 4.8 0 9.7 0 14.5 0 .9-.3 1.3-1.2 1.2q-1.2-.1-2.4 0c-.9 0-1.1-.3-1.1-1.1 0-6 0-12 0-18 0-2.8.1-5.6 0-8.4 0-.8.2-1.2 1.1-1.1q1.1.1 2.1 0c.8-.1 1.1.2 1.1 1-.1.8 0 1.6 0 2.4.1.1.3.2.4.2z"/><path d="m1440.5 359.4c0-3.1.4-6 1.8-8.8 2-4 5.5-5.8 9.7-6.2 2.9-.4 5.8.1 8.3 1.9 2.2 1.5 3.4 3.8 4 6.4.1.2-.2.6-.4.6q-1.8.4-3.5.7c-.2 0-.5-.3-.6-.5-.2-.4-.3-.8-.5-1.2-2-4.9-7.4-4.9-10.6-2.4-1.8 1.3-2.6 3.2-3 5.3-.6 3.2-.6 6.4.3 9.5.8 2.7 2.4 4.6 5.1 5.3 2.9.7 5.5.2 7.4-2.3.7-1 1-2.3 1.4-3.5.3-.8.6-1.1 1.5-.9s1.8.3 2.8.4q.8.1.5.9c-1.1 4.3-3.3 7.7-7.8 9-6.4 2-14.2-.8-15.9-9.2-.1-.5-.3-1-.4-1.6 0-1.1 0-2.3-.1-3.4z"/><path d="m1437.9 359.3v13.1c0 .9-.3 1.2-1.2 1.1-.8 0-1.7 0-2.5 0-.8.1-1.1-.3-1-1q0-3.6 0-7.2c0-6.3.1-12.7.1-19.1 0-1 .2-1.3 1.2-1.3q1.2.1 2.4 0c.8 0 1.1.3 1.1 1.1-.1 4.4-.1 8.8-.1 13.2q0 .1 0 .1z"/><path d="m1844.1 200 24.8 34.5-10.1 2.7-4.7-6.5-12.3 3.3-.9 8.1-8.8 2.4-1.3.3-8.1 2.2-7.7-17-1.3 19.4-8 2.2-10.6-16.3 1.7 18.7-9.6 2.6-3.6-40.3 8.9-2.4 12.8 19.7 1.4-23.5 8.8-2.4 15.6 34.4 4.1-39.7zm-.3 16.1-.9 7.3 5.2-1.3z" fill-rule="evenodd"/><path d="m1882.2 208.4 2.4 9.3 9.1-2.4q-.6 1.4-1.5 2.4-1.7 1.8-4.8 2.6c-3.2.9-6 .6-8.8-1-2.7-1.5-4.4-3.7-5.2-6.8-.8-2.9-.4-5.6 1.1-8.2s3.8-4.3 6.9-5.1c3.6-1 7-.4 10.5 1.8l1.3.8 5-8.6-1.2-.8c-3-1.9-5.9-3-8.6-3.4-3.1-.5-6.4-.3-9.6.6-6.3 1.7-10.8 5.4-13.6 10.9-2.3 4.6-2.8 9.5-1.4 14.6.9 3.6 2.8 6.9 5.4 9.6s5.8 4.5 9.3 5.4 7.3.8 11.2-.3c3.6-.9 6.7-2.6 9-5 2.3-2.3 4-5.2 4.9-8.7s.9-6.9 0-10.3l-.9-2.9z"/><path d="m1911.1 223.1 9.6-2.6-10.2-38.5-9.6 2.6z"/><path d="m1932.4 207.2-7.7-29.1-9.6 2.6 10.2 38.5 19.4-5.2-2.5-9.4z"/><path d="m1164.8 198.5c-.1 1.9-1.3 3.3-3.1 3.3s-3.1-1.5-3.1-3.4c-.1-1.8 1.4-3.2 3.1-3.2 1.8.1 3.1 1.4 3.1 3.3z"/><path d="m1034 178.4c.8.5 1.8.4 2.6.7 2.8.9 5.1 2.4 5.7 5.6.4 1.8-.2 3.5-1 5.1-1.9 3.6-4.8 5.9-8.3 7.6-3.4 1.6-6.9 3-10.2 4.7-3 1.5-5.9 3.3-8.4 5.6-1.8 1.7-3 3.8-3.9 6.2-.7 1.7-.6 3.4.1 5.1 1.2 3.1 3.3 5.5 5.5 8 2.6 2.9 4.9 6 6.3 9.7 1.2 3.6 1.5 7.2.7 10.9-1.3 6.3-6.5 9.6-12.9 8.4-8.6-1.6-15.4-8.6-16.9-17.3-.1-.2 0-.4-.3-.5v-3c.3-.1.3-.3.3-.6.4-2.5 1.5-4.8 2.9-6.9 1.5-2.1 3.1-4.1 4.6-6.2.7-1 1.4-2.1 2.1-3.2 2.8-4 2.9-8.4 1.8-13-.9-3.6-.7-7.1.9-10.4 4.1-8.5 11-13.3 19.9-15.6 1.2-.3 2.6-.2 3.8-.9z"/><path d="m1137.5 221.8c0 3.7 0 6.7.1 9.8 0 .6-.2.9-.9.9q-1.8-.1-3.6 0c-.8 0-1-.3-.9-1 0-.6.3-1.5-.2-1.7-.5-.3-.8.7-1.2.9-2 1-3.8 2.1-6.2 2.2-3.3 0-5.7-2.6-6-5.6-.2-1.8-.2-3.6.5-5.3 1-2.3 2.8-3.6 5.1-4.4q3.4-1.1 7-1.1c.7 0 1-.2.9-.9-.1-.4-.1-.8-.1-1.3-.2-2.6-1.5-3.7-4.1-3.4q-3.1.4-5.8 1.8c-.8.5-1.1.5-1.5-.5-1.1-2.7-1.1-2.7 1.5-3.8 3.4-1.4 7-2.2 10.7-1.3 2.7.6 4.4 2.5 4.6 5.2.2 3.4.1 6.8.1 9.5zm-5.5.8c0-.6-.1-1.1 0-1.7.1-.8-.2-.9-.9-.8-1.3.1-2.6.3-3.9.8-2.3.9-3.4 2.5-3.2 4.9.1 1.5 1.3 2.6 2.8 2.4 1.9-.3 3.4-1.5 4.8-2.8.7-.7.2-1.8.3-2.7q.1 0 .1-.1z" fill-rule="evenodd"/><path d="m1190.3 219.9c.1 2.7-.5 5.3-1.8 7.7-2.3 4.1-6.4 5.8-11 5.3-4.5-.6-7.4-4.1-8.2-7.7-1.2-5.1-1-10 2.2-14.5 3.1-4.2 10.4-5.2 14.5-1.8 3 2.5 4 5.9 4.3 9.7zm-5.5.7c0-3.9-.4-5.5-1.6-7.3q-1.6-2.6-4.5-2.2c-1.7.3-2.8 1.4-3.4 2.9-1.5 3.8-1.6 7.7-.2 11.5.7 2 2.3 3.2 4.2 3.2 1.8.1 3.3-.8 4.2-2.6 1.1-1.9 1.3-3.9 1.3-5.5z" fill-rule="evenodd"/><path d="m1198.3 210.8c2.4-2 4.6-3.5 7.4-3.8 1.4-.2 2.9-.2 4.2.6 1.4.9 1.9 2.4 2.1 3.9.4 4.4.1 8.8.2 13.2 0 2.2 0 4.5.1 6.8 0 .7-.2 1-1 1q-1.8-.1-3.6 0c-.7 0-.9-.2-.9-.9q.1-7.8 0-15.6c0-.8 0-1.6-.2-2.3-.3-1.4-1.2-2-2.5-1.7-1.5.2-2.7 1.2-3.9 2-1.5 1-1.9 2.4-1.8 4.1.1 4.5.1 9 .1 13.4 0 .7-.1 1-.9 1-1.2-.1-2.5-.1-3.7 0-.6 0-.8-.1-.8-.7q0-11.9 0-23.7c0-.6.1-.7.7-.7 1.2.1 2.5.1 3.8.1.5 0 .8.1.7.7z"/><path d="m1084.4 232.9c-4.1.1-7.1-1.5-9-4.9-1.4-2.6-1.8-5.6-1.7-8.6.2-3.4 1.1-6.5 3.4-9.2 4.1-4.7 13.9-5.2 17.1 2.9 2.1 5.2 1.9 10.4-1.1 15.3-2 3.3-5.2 4.7-8.7 4.5zm5.5-13.5c-.1-1.5-.2-3.8-1.4-5.8-.8-1.5-2-2.6-3.8-2.6s-3.2.9-4.1 2.5c-.7 1.2-1 2.6-1.2 4-.2 3-.3 5.9 1.2 8.6 1.8 3.3 5.9 3.4 7.8.4 1.2-2 1.4-4.1 1.5-7.1z" fill-rule="evenodd"/><path d="m1057.1 210.8c1.4-1.1 2.6-2 4-2.7q1.9-1 4.1-1.2c3.1-.3 5.1 1.5 5.5 4.8q.3 1.9.3 3.9-.1 8 0 16c0 .6-.1.9-.9.9q-1.8-.1-3.6 0c-.8 0-1-.2-1-1q.1-8 0-15.9c0-.7 0-1.4-.2-2.1-.4-1.3-1.1-1.9-2.5-1.6-2.2.5-3.9 1.9-5.4 3.5-.4.3-.3.8-.3 1.2 0 4.9 0 9.9.1 14.8 0 .9-.3 1.1-1.1 1.1-1.1-.1-2.3-.1-3.4 0-.6 0-.9-.1-.9-.8q.1-11.8 0-23.5c0-.5.2-.7.7-.7q2 0 4 0c.5 0 .6.1.6.6z"/><path d="m1095.5 207.5c1.8 0 3.5 0 5.3-.1.7 0 .7.6.8 1 1.5 4.7 2.9 9.4 4.5 14.1.3 1 .4 2.1 1 3.1 1.7-5.8 3.4-11.5 5-17.2.2-.7.5-1 1.3-1q1.7.2 3.3.1c.9-.1 1.1 0 .8 1-1.6 4.9-3.2 9.9-4.8 14.8-.9 2.8-1.9 5.7-2.8 8.5-.2.5-.4.7-.9.7q-2.3-.1-4.5 0c-.5 0-.7-.2-.8-.6q-4.1-12-8.1-24c-.1-.1-.1-.2-.1-.4z"/><path d="m1144.2 219.9c0-2.6-.1-5.2 0-7.8 0-.8-.2-1-1-.9q0 0-.1 0c-3 0-3 0-2.8-3.1 0-.6.2-.7.7-.7.7.1 1.5 0 2.3.1.7 0 .9-.3.9-1-.1-1.6 0-3.3-.1-4.9 0-.7.2-1 .9-1q1.9.1 3.7 0c.7 0 .8.2.8.9v4.9c-.1.9.2 1 1 1 1.6-.1 3.2 0 4.9-.1.6 0 .8.2.7.8 0 .6-.1 1.3 0 1.9.2 1.1-.4 1.4-1.3 1.3-1.5 0-3 0-4.5-.1-.6 0-.8.1-.8.7v14c0 .4.1.9.2 1.3.3.9.8 1.3 1.8 1 1.1-.4 2-1.1 3-1.8.4-.3.8-.5 1.1.2.1.2.2.4.3.6 1.3 2.1 1.3 2-.6 3.4-1.8 1.2-3.6 2-5.7 2.4-2.5.4-4.7-1-5.2-3.5-.3-1.5-.2-3-.3-4.5q0-2.6 0-5.1z"/><path d="m1159 222.4c-.1-3.4.2-6.8-.1-10.2-.1-1.4.1-2.8.1-4.2 0-.4.1-.6.6-.6 1.3 0 2.7 0 4-.1.8 0 .9.2.9.9q-.1 9.4-.1 18.7c0 1.5 0 3.1.1 4.6 0 .7-.1 1-1 1-1.2-.1-2.5-.1-3.8 0-.4 0-.7 0-.7-.6q0-4.8 0-9.5z"/><path d="m1237.5 220.4c2.6 0 5 0 7.5-.1.8 0 1 .2.7 1.1-.9 2.4-.9 2.4-3.4 2.4q-3.5 0-6.9 0c-1.9 0-2.6-.8-1.9-2.7q1.8-5.3 3.8-10.6c.5-1.4 1.6-2.4 3.2-2.4 3 0 6 .1 9 0 .8 0 .9.2.6 1-.9 2.5-.8 2.5-3.5 2.5-1.7 0-3.5 0-5.3 0-.6-.1-.8.2-1 .7-.3.7-.2 1.1.6 1.1 2.2-.1 4.3 0 6.5-.1.8 0 1.2.1.8 1.1-.8 2.4-.8 2.4-3.4 2.4-1.7 0-3.5.1-5.3 0-.6 0-1 .2-1.1.8-.3.9-.6 1.8-.9 2.8z"/><path d="m1266.3 213.4h5.4c.5 0 .8-.2.9-.7.4-1.2 1-2.4 1.4-3.6.2-.7.5-1 1.2-1 2.7.1 2.7 0 1.8 2.6-1.4 4.1-2.9 8.1-4.4 12.2-.2.7-.5.9-1.3.9-2.6 0-2.6 0-1.8-2.4.5-1.2.8-2.4 1.3-3.6.3-.7.4-1-.6-1q-2.2.1-4.3 0c-.6 0-.9.2-1.1.8-.6 1.8-1.3 3.5-1.9 5.3-.2.6-.5.9-1.3.9-2.8 0-2.8.1-1.8-2.5q2.2-6 4.3-12c.3-.9.7-1.2 1.6-1.2 2.5.1 2.5.1 1.6 2.4-.3.9-.6 1.8-1 2.9z"/><path d="m1258.2 208.1q2.3.1 4.6 0c.6 0 .8.1.6.9-.9 2.6-.9 2.6-3.7 2.6q-2.6 0-5.2 0c-.5 0-.8.1-1 .6q-1.3 3.7-2.7 7.4c-.2.7.1.8.6.8 2.3 0 4.6 0 6.8-.1.8 0 1 .1.7 1-.8 2.5-.8 2.5-3.4 2.5q-3.6.1-7.1 0c-1.7 0-2.3-.9-1.8-2.5q1.9-5.5 4-10.9c.5-1.5 1.7-2.3 3.3-2.2q2.2 0 4.3 0z"/><path d="m1230.5 208.2q3 0 6-.1c.6 0 .7.2.5.8q0 0-.1.1c-.8 2.6-.8 2.6-3.6 2.6-1.9 0-1.9 0-2.6 1.9-1.2 3.2-2.4 6.4-3.5 9.6-.2.6-.5.9-1.1.7-.1 0-.2 0-.4 0-.7-.1-1.8.5-2.2-.2-.3-.6.4-1.4.6-2.1 1.1-3 2.1-5.9 3.2-8.8.4-1 .1-1.2-.8-1.1-.9 0-1.9-.1-2.8 0-1 .1-1-.3-.7-1.1.8-2.3.8-2.4 3.3-2.3q2.1 0 4.2 0z"/><path d="m1063.1 244c0-3 1.9-6 4.7-6 1.1 0 1.9.6 2.3 1.4l-.8.6c-.3-.6-.8-1-1.5-1-2.2 0-3.6 2.6-3.6 4.9 0 1.7.7 2.9 2.3 2.9.8 0 1.4-.3 2-.9l.5.8c-.7.6-1.5 1-2.7 1-2.1 0-3.2-1.5-3.2-3.7z"/><path d="m1071.2 245c0-2.7 1.8-4.5 3.7-4.5 1.5 0 2.5 1 2.5 2.8 0 2.6-1.9 4.4-3.7 4.4-1.5 0-2.5-1-2.5-2.7zm5.1-1.7c0-1.2-.6-1.9-1.5-1.9-1.3 0-2.5 1.6-2.5 3.5 0 1.2.5 1.9 1.5 1.9 1.2 0 2.5-1.5 2.5-3.5z" fill-rule="evenodd"/><path d="m1080.4 240.6h.9l-.1 1.1c.7-.7 1.6-1.2 2.3-1.2 1.1 0 1.5.6 1.6 1.3.8-.8 1.7-1.3 2.4-1.3 1.1 0 1.6.6 1.6 1.7 0 .3 0 .6-.1.9l-.9 4.5h-1.1l.9-4.3c.1-.4.1-.6.1-.8q0-1.1-1-1.1c-.4 0-1.1.4-1.9 1.3l-1 4.9h-1.1l.9-4.3c0-.4.1-.6.1-.8q0-1.1-1-1.1c-.4 0-1.1.4-1.9 1.3l-1 4.9h-1.1z"/><path d="m1091.9 248.2-.5 2.3h-1l1.9-9.9h.9l-.1.9h.1c.7-.5 1.5-1 2.3-1 1.2 0 2 .9 2 2.5 0 2.6-1.8 4.7-3.7 4.7-.7 0-1.3-.4-1.6-1h-.1zm1.2-5.7-.7 3.3c.4.8.9 1 1.4 1 1.4 0 2.7-1.7 2.7-3.6 0-1.2-.5-1.8-1.3-1.8-.6 0-1.5.4-2.1 1.1z" fill-rule="evenodd"/><path d="m1099.2 245c0-2.7 1.9-4.5 3.8-4.5 1.4 0 2.4 1 2.4 2.8 0 2.6-1.8 4.4-3.7 4.4-1.5 0-2.5-1-2.5-2.7zm5.1-1.7c0-1.2-.5-1.9-1.5-1.9-1.2 0-2.5 1.6-2.5 3.5 0 1.2.6 1.9 1.5 1.9 1.3 0 2.5-1.5 2.5-3.5z" fill-rule="evenodd"/><path d="m1106.6 246.4.6-.5c.5.6 1.1 1 1.8 1 .8 0 1.5-.5 1.5-1.2 0-.4-.3-.7-1.3-1.3-1.1-.6-1.6-1.1-1.6-1.9 0-1.2 1.1-2 2.4-2 .8 0 1.5.3 2 .9l-.6.6c-.4-.4-.8-.7-1.4-.7-.8 0-1.3.5-1.3 1.1s.6.9 1.2 1.2c1.2.7 1.6 1.2 1.6 2 0 1.3-1.1 2.1-2.6 2.1-.9 0-1.9-.5-2.3-1.3z"/><path d="m1115 238.6c0-.5.4-.9.8-.9s.7.3.7.7c0 .5-.4.8-.8.8s-.7-.2-.7-.6zm-.3 2h1.1l-1.3 7h-1.1z"/><path d="m1117.9 246.2c0-.3 0-.5.1-.8l.8-3.9h-1l.1-.8 1.1-.1.5-1.9h.9l-.3 1.9h1.7l-.2.9h-1.7l-.9 4q0 .2 0 .5c0 .6.2.9.9.9.3 0 .5-.2.7-.3l.2.8c-.3.2-.7.3-1.3.3-1.2 0-1.6-.6-1.6-1.5z"/><path d="m1126.2 240.5c1.5 0 2.1 1 2.1 2.5 0 .5-.1 1.1-.2 1.3h-4.5c-.2 1.8.7 2.6 1.9 2.6.5 0 1.1-.3 1.5-.6l.4.7c-.5.4-1.3.7-2.2.7-1.6 0-2.7-1-2.7-2.9 0-2.6 1.9-4.3 3.7-4.3zm1.1 3.1q.1-.3.1-.7c0-.8-.3-1.6-1.3-1.6s-2 .9-2.4 2.3z" fill-rule="evenodd"/><path d="m1136.8 239.2h-2.7l.2-1h6.5l-.2 1h-2.7l-1.7 8.4h-1.1z"/><path d="m1143.7 240.5c1.5 0 2.1 1 2.1 2.5 0 .5-.1 1.1-.2 1.3h-4.5c-.2 1.8.7 2.6 1.9 2.6.5 0 1.1-.3 1.5-.6l.4.7c-.5.4-1.3.7-2.2.7-1.6 0-2.7-1-2.7-2.9 0-2.6 1.9-4.3 3.7-4.3zm1.1 3.1q.1-.3.1-.7c0-.8-.3-1.6-1.3-1.6s-2 .9-2.4 2.3z" fill-rule="evenodd"/><path d="m1147.5 245c0-2.6 1.8-4.5 3.8-4.5.8 0 1.4.3 1.8.8l-.7.7c-.3-.4-.6-.6-1.2-.6-1.3 0-2.6 1.6-2.6 3.5 0 1.2.5 1.9 1.6 1.9.6 0 1.1-.3 1.5-.6l.5.7c-.5.4-1.2.8-2.2.8-1.5 0-2.5-1-2.5-2.7z"/><path d="m1156.2 237.4h1.1l-.7 3.4-.3.8h.1c.8-.6 1.5-1.1 2.4-1.1 1.1 0 1.6.6 1.6 1.7 0 .3 0 .6-.1.9l-.9 4.5h-1.1l.9-4.3c.1-.4.1-.6.1-.8 0-.7-.3-1.1-1-1.1-.6 0-1.2.4-2.1 1.3l-1 4.9h-1z"/><path d="m1163.5 240.6h.9l-.1 1.1c.8-.7 1.6-1.2 2.4-1.2 1.2 0 1.7.6 1.7 1.7 0 .3-.1.6-.1.9l-.9 4.5h-1.1l.9-4.3c0-.4.1-.6.1-.8 0-.7-.3-1.1-1.1-1.1-.5 0-1.2.4-2 1.3l-1 4.9h-1.1z"/><path d="m1170.3 245c0-2.7 1.8-4.5 3.7-4.5 1.5 0 2.5 1 2.5 2.8 0 2.6-1.9 4.4-3.7 4.4-1.5 0-2.5-1-2.5-2.7zm5.1-1.7c0-1.2-.6-1.9-1.5-1.9-1.3 0-2.5 1.6-2.5 3.5 0 1.2.5 1.9 1.5 1.9 1.2 0 2.5-1.5 2.5-3.5z" fill-rule="evenodd"/><path d="m1178.3 246.8q0-.2.1-.6l1.7-8.8h1.1l-1.8 8.9q0 .2 0 .3 0 .2.2.2h.3v.8c-.2.1-.4.1-.7.1-.6 0-.9-.3-.9-.9z"/><path d="m1182.4 245c0-2.7 1.8-4.5 3.7-4.5 1.5 0 2.4 1 2.4 2.8 0 2.6-1.8 4.4-3.7 4.4-1.5 0-2.4-1-2.4-2.7zm5-1.7c0-1.2-.5-1.9-1.4-1.9-1.3 0-2.5 1.6-2.5 3.5 0 1.2.5 1.9 1.4 1.9 1.3 0 2.5-1.5 2.5-3.5z" fill-rule="evenodd"/><path d="m1189.7 249.8.5-.7c.5.4 1.2.8 1.9.8 1.2 0 1.9-.8 2.2-2.1l.4-1.5c-.8.8-1.5 1.2-2.4 1.2-1.2 0-2-.8-2-2.4 0-2.6 1.8-4.6 3.6-4.6.7 0 1.3.4 1.7 1l.3-.9h.9l-1.5 7.3c-.3 1.8-1.5 2.9-3.2 2.9-.9 0-1.7-.4-2.4-1zm5-4.4.6-3c-.4-.7-.8-1-1.3-1-1.4 0-2.6 1.7-2.6 3.5 0 1.1.5 1.7 1.2 1.7s1.5-.4 2.1-1.2z" fill-rule="evenodd"/><path d="m1197 250.4.4-.9q.2.2.5.2c.6 0 1.3-.7 1.8-1.6l.2-.5-1.2-7h1.1l.5 3.9c.1.7.2 1.5.3 2.1.4-.7.7-1.4 1-2.1l2-3.9h1.1l-4 7.6c-.8 1.3-1.6 2.4-2.9 2.4-.2 0-.5-.1-.8-.2z"/><path d="m1419.1 228.8 1.1.3-3.9 12.6h-36v-1.3h1.8q2.9 0 4.2-1.9.7-1.1.7-5.1v-30q0-4.3-1-5.4-1.3-1.5-4-1.5h-1.7v-1.3h21.1v1.3q-3.8-.1-5.2.7-1.5.7-2.1 1.8c-.3.7-.5 2.4-.5 5.2v29.2q-.1 2.8.5 3.9.4.7 1.3 1.1.8.3 5.3.3h3.4q5.4 0 7.5-.8 2.2-.8 4-2.8 1.7-2 3.5-6.3z"/><path d="m1429.4 221.2q0 7 3.4 10.9 3.4 4 8.1 4 3 0 5.3-1.7 2.3-1.7 3.8-5.8l1.1.7q-.7 4.7-4.2 8.5-3.4 3.9-8.6 3.9-5.6 0-9.7-4.4-4-4.4-4-11.8 0-8.1 4.1-12.5 4.2-4.5 10.4-4.5 5.2 0 8.6 3.4 3.4 3.5 3.4 9.3zm0-2h14.5q-.1-3-.7-4.2-.8-1.9-2.5-3-1.7-1.1-3.6-1.1-2.8 0-5.1 2.2-2.2 2.2-2.6 6.1z" fill-rule="evenodd"/><path d="m1502.5 193.1 1 15.8h-1q-2.2-7.1-6.1-10.2-3.9-3.1-9.5-3.1-4.6 0-8.3 2.3-3.8 2.4-5.9 7.5-2.1 5.1-2.1 12.8 0 6.3 2 10.9 2 4.7 6.1 7.1c2.7 1.6 5.8 2.5 9.3 2.5q4.5 0 7.9-1.9c2.3-1.3 4.9-3.9 7.6-7.7l1.1.6q-3.5 6.2-8.2 9.1-4.6 2.9-11 2.9-11.6 0-17.9-8.6-4.7-6.3-4.7-15 0-6.9 3.1-12.8 3.1-5.8 8.6-9 5.4-3.2 11.9-3.2 5.1 0 9.9 2.5 1.5.7 2.1.7.9 0 1.6-.6.9-.9 1.3-2.6z"/><path d="m1522.8 208.5q7.1 0 11.5 5.4 3.6 4.6 3.6 10.6 0 4.2-2 8.5-2 4.3-5.5 6.5-3.6 2.2-7.9 2.2-7.1 0-11.3-5.7-3.5-4.7-3.5-10.6 0-4.4 2.2-8.6c1.4-2.8 3.2-5 5.6-6.3 2.3-1.4 4.7-2 7.3-2zm-1 2.2q-1.8 0-3.7 1-1.8 1.1-2.9 3.8-1.2 2.7-1.2 7 0 6.8 2.8 11.8 2.7 4.9 7.1 4.9 3.3 0 5.5-2.7 2.2-2.8 2.2-9.4 0-8.4-3.6-13.1-2.5-3.3-6.2-3.3z" fill-rule="evenodd"/><path d="m1538.9 210.1h8.4l19 23.3v-17.9q0-2.9-.7-3.6-.8-.9-2.6-.9h-1.1v-.9h10.8v.9h-1.1q-2 0-2.8 1.2-.5.7-.5 3.3v26.1h-.8l-20.5-25v19.2q0 2.8.6 3.5.9 1 2.7 1h1.1v.8h-10.8v-.8h1q2 0 2.9-1.2.5-.7.5-3.3v-21.6q-1.4-1.6-2.1-2.1-.7-.5-2-.9-.7-.2-2-.2z"/><path d="m1600.4 210.1.4 7.4h-.9q-.3-2-.7-2.8-.7-1.3-1.9-2-1.2-.6-3.2-.6h-4.4v24.1q0 2.9.6 3.6.9 1 2.8 1h1.1v.8h-13.4v-.8h1.1q2 0 2.8-1.2.5-.8.5-3.4v-24.1h-3.8q-2.2 0-3.1.3-1.2.5-2.1 1.7-.8 1.3-1 3.4h-.9l.4-7.4z"/><path d="m1650.2 225.9c.3 6.2-13.8 15.8-13.8 15.8h-23.9s12.6-10.1 12.5-15.8c.1-5.7-12.5-15.8-12.5-15.8h23.9s14.1 9.5 13.8 15.8z"/><path d="m1680.9 225.9c.3 6.2-13.8 15.8-13.8 15.8h-23.9s12.6-10.1 12.5-15.8c.1-5.7-12.5-15.8-12.5-15.8h23.9s14.1 9.5 13.8 15.8z"/><path d="m701.2 229.2v-41.6h47.3v7.4h-32.3v12.2h26.4v7.4h-26.4v14.6z"/><path d="m865.9 194.2q-11.9 0-11.9 4.4 0 2 2.9 3 3 1.1 13.8 3 10.8 2 15.2 4.5 4.4 2.5 4.4 7.6 0 6.5-7.1 9.9-7.1 3.4-18.5 3.4-8.6 0-20.9-1.5l-3.9-.4 1.5-6.6q14.6 1.1 22.4 1.1 11.5 0 11.5-5.4 0-1.9-2.6-3-2.7-1.1-10.7-2.4-12.6-2-17.8-4.8-5.2-2.8-5.2-7.7 0-6.3 6.8-9.3 6.8-3.1 18.5-3.1 8.1 0 20.5 1.2l3.9.5-1.2 6.6q-15.3-1-21.6-1z"/><path d="m701.2 237.3h7.2q2.9 0 4.4.6 1.4.7 1.4 2.1 0 .9-.5 1.4-.4.5-1.5.9 1.2.3 1.8.9.6.5.6 1.5 0 1.5-1.6 2.3-1.6.7-4.5.7h-7.3zm7 1.8h-3.3v2.5h3.4q2.1 0 2.1-1.3 0-1.2-2.2-1.2zm.2 4.3h-3.5v2.5h3.5q1.2 0 1.8-.3.5-.3.5-1 0-1.2-2.3-1.2z" fill-rule="evenodd"/><path d="m743.4 246.6q-1.7 1.3-6 1.3-4.2 0-5.9-1.3-1.8-1.3-1.8-4.1 0-2.7 1.8-4 1.7-1.4 5.9-1.4 4.3 0 6 1.4 1.7 1.3 1.7 4 0 2.8-1.7 4.1zm-9-1.4q.8.8 3 .8 2.2 0 3-.8.8-.8.8-2.7 0-1.8-.8-2.7-.8-.9-3-.9-2.2 0-3 .9-.8.9-.8 2.7 0 1.9.8 2.7z" fill-rule="evenodd"/><path d="m761.1 247.7v-10.4h6.4l4.5 8.6h.2v-8.6h3.8v10.4h-6.2l-4.6-8.6h-.3v8.6z"/><path d="m799.1 247.7h-6.3v-10.4h6.3q2.4 0 3.9.3 1.6.3 2.4.9.9.7 1.2 1.5.4.9.4 2.3 0 1.4-.3 2.4-.3.9-1.2 1.6-.8.7-2.4 1.1-1.6.3-4 .3zm3.9-4.1q.1-.5.1-1.4 0-.9-.1-1.4-.1-.5-.5-.9-.5-.5-1.3-.6-.8-.2-2.1-.2h-2.5v6.8h2.5q2 0 2.9-.6.8-.5 1-1.7z" fill-rule="evenodd"/><path d="m821.2 239.2v-1.9h13.7v1.9h-4.9v8.5h-3.8v-8.5z"/><path d="m850 247.7v-10.4h12v1.8h-8.2v2.5h6.6v1.8h-6.6v2.5h8.2v1.8z"/><path d="m889.6 247.5q-2.9.4-5.3.4-2.3 0-3.7-.3-1.3-.4-2.1-1.1-.8-.7-1.1-1.6-.3-1-.3-2.4 0-3 1.5-4.2 1.5-1.2 5.6-1.2 2.3 0 5.4.4l-.1 1.7q-2.7-.2-4.5-.2-1.8 0-2.6.2-.7.3-1.1 1.1-.4.7-.4 2.5 0 1.8.8 2.5.7.7 3 .7 2.2 0 4.8-.2z"/><path d="m798.5 187.6h-42.9v41.6h21z"/><path d="m810.9 187.6-21.9 41.6h42.8v-41.6z"/><path d="m348.2 220.3h26.2l5.4-6.1h-26z"/><path d="m479.7 210.4c.1 5.8-3.4 11.6-11.4 11.6h-8.9v-22.9h8.9c7.8 0 11.3 5.6 11.4 11.3zm-16 7.5h4.6c5.2 0 7.2-3.8 7.1-7.5-.1-3.6-2.1-7.2-7.1-7.2h-4.6z" fill-rule="evenodd"/><path d="m498.6 217.7h-11.9l-1.9 4.3h-4.6l10.1-22.9h4.7l10.2 22.9h-4.7zm-5.9-13.7-4.2 9.7h8.4z" fill-rule="evenodd"/><path d="m515.7 222.1h-4.4l-9.4-23h4.8l6.8 17.9 6.9-17.9h4.8z"/><path d="m547 218.9c-2.2 2.3-5.3 3.4-8.2 3.4-7.7 0-11.7-5.4-11.7-11.6-.1-6.1 3.9-11.8 11.7-11.8 2.9 0 6 1.1 8.2 3.4l-1.2 1c-1.9-1.9-4.5-2.9-7-2.9-6.7 0-10.1 4.7-10 10.2 0 5.4 3.4 10.1 10 10.1 2.5 0 5.1-1 7.1-2.9z"/><path d="m573 210.6c0 6-3.8 11.8-11.4 11.8s-11.5-5.8-11.5-11.8c0-6.2 3.8-11.8 11.5-11.8 7.6 0 11.5 5.6 11.4 11.8zm-21.1 0c0 5.2 3.2 10.2 9.7 10.2s9.7-5 9.7-10.2c0-5.3-3.2-10.2-9.7-10.2s-9.8 4.8-9.7 10.2z" fill-rule="evenodd"/><path d="m577.2 199.1h1.7v22.9h-1.7z"/><path d="m583.9 199.1v22.9h14.5v-1.6h-12.7v-21.3z"/><path d="m462.2 231.9c-.4-.6-1-.7-1.7-.7-.6 0-1.6.2-1.6 1.1 0 .7.7.9 1.6 1.1 1.1.2 2.2.4 2.2 1.6s-1.2 1.5-2.2 1.5c-.8 0-1.8-.3-2.2-1.2l.3-.2c.4.7 1.2 1 1.9 1s1.8-.1 1.8-1.1c0-.9-.9-1.1-1.8-1.2-1-.2-2.1-.4-2.1-1.5s1.2-1.5 2.1-1.5c.8 0 1.5.1 2 .9z"/><path d="m470.5 235.7c-.6.5-1.3.8-2 .8-1.9 0-2.9-1.3-2.9-2.8s1-2.9 2.9-2.9c.7 0 1.4.3 2 .8l-.3.3c-.5-.5-1.1-.7-1.7-.7-1.7 0-2.5 1.1-2.5 2.5 0 1.3.9 2.4 2.5 2.4.6 0 1.2-.2 1.7-.7z"/><path d="m477.9 236.5-.6-1.4h-3.3l-.6 1.4h-.5l2.5-5.6h.5l2.5 5.6zm-.8-1.8-1.5-3.4-1.5 3.4z" fill-rule="evenodd"/><path d="m486.1 231.5-2.1 3.3h-.1l-2.2-3.3v5h-.4v-5.6h.5l2.1 3.2 2.1-3.2h.5v5.6h-.4z"/><path d="m494.1 232.4c0 .6-.3 1-.9 1.2.7.2 1.1.7 1.1 1.4 0 1.1-1 1.5-2 1.5h-2.3v-5.6h2.3c.9 0 1.8.4 1.8 1.5zm-3.6 1h1.9c.6 0 1.3-.2 1.3-1s-.7-1.2-1.4-1.2h-1.8zm0 2.7h1.8c.7 0 1.6-.2 1.6-1.1 0-.8-.8-1.2-1.5-1.2h-1.9z" fill-rule="evenodd"/><path d="m497.6 230.9h.5v5.6h-.5z"/><path d="m506 236.5-.6-1.4h-3.3l-.6 1.4h-.5l2.5-5.6h.4l2.5 5.6zm-.8-1.8-1.4-3.4-1.5 3.4z" fill-rule="evenodd"/><path d="m510.1 231.3h-2v-.4h4.4v.4h-2v5.2h-.4z"/><path d="m520.9 233.7c0 1.4-.9 2.8-2.7 2.8-1.9 0-2.8-1.4-2.8-2.8 0-1.5.9-2.9 2.8-2.9 1.8 0 2.8 1.4 2.7 2.9zm-5.1 0c0 1.2.8 2.4 2.4 2.4 1.5 0 2.3-1.2 2.3-2.4 0-1.3-.8-2.5-2.3-2.5-1.6 0-2.4 1.1-2.4 2.5z" fill-rule="evenodd"/><path d="m528.7 236.5h-.6l-1.9-2.2h-1.5v2.2h-.4v-5.6h2.4c1.2 0 1.8.8 1.8 1.7s-.6 1.7-1.8 1.7zm-4-2.5h2c1 0 1.4-.6 1.4-1.3s-.4-1.4-1.4-1.4h-2z" fill-rule="evenodd"/><path d="m531.7 230.9h.4v5.6h-.4z"/><path d="m544.7 233.6c0 1.4-.9 2.9-2.8 2.9h-1.9v-5.6h1.9c1.9 0 2.8 1.3 2.8 2.7zm-4.2-2.3v4.7h1.4c1.6 0 2.4-1.2 2.4-2.4s-.8-2.3-2.4-2.3z" fill-rule="evenodd"/><path d="m548.1 230.9h.4v5.6h-.4z"/><path d="m561 235.7c-.5.5-1.3.8-2 .8-1.9 0-2.8-1.3-2.8-2.8-.1-1.5.9-2.9 2.8-2.9.7 0 1.5.3 2 .8l-.3.3c-.5-.5-1.1-.7-1.7-.7-1.6 0-2.4 1.1-2.4 2.5 0 1.3.8 2.4 2.4 2.4.6 0 1.3-.2 1.7-.7z"/><path d="m568.5 236.5-.7-1.4h-3.3l-.6 1.4h-.4l2.5-5.6h.4l2.5 5.6zm-.8-1.8-1.4-3.4-1.5 3.4z" fill-rule="evenodd"/><path d="m572.4 230.9v5.1h3.1v.4h-3.5v-5.5z"/><path d="m583.8 233.7c0 1.4-.9 2.8-2.8 2.8-1.8 0-2.8-1.4-2.8-2.8 0-1.5 1-2.9 2.8-2.9 1.9 0 2.8 1.4 2.8 2.9zm-5.2 0c.1 1.2.8 2.4 2.4 2.4s2.4-1.2 2.4-2.4c0-1.3-.8-2.5-2.4-2.5s-2.4 1.1-2.4 2.5z" fill-rule="evenodd"/><path d="m591.5 236.5h-.5l-2-2.2h-1.5v2.2h-.4v-5.6h2.4c1.2 0 1.9.8 1.9 1.7s-.6 1.7-1.8 1.7zm-4-2.5h1.9c1 0 1.4-.6 1.4-1.3.1-.7-.4-1.4-1.3-1.4h-2z" fill-rule="evenodd"/><path d="m594.5 230.9v5.6h3.9v-.5h-3.5v-2.2h3.3v-.4h-3.3v-2.1h3.4v-.4z"/><path d="m401.4 246.1s48.3-1.2 48.3-30-48.3-27.4-48.3-27.4v9.1s35.4 0 35.4 18.3c0 18.4-35.4 20.5-35.4 20.5z"/><path d="m351.1 228.8-5 7.8h-13.2v9.5h60.7v-9.5h-34.6l4.9-7.8z"/><path d="m332.9 188.7v9.1h38.3l-5.7 8.9h12.5l5.5-8.9h10.1v-9.1z"/><path d="m57 254.7c.1-.1.2-.2.2-.3q.2-.9.3-1.7 0-.1 0-.2.2-.8.3-1.6c0-.1 0-.3.1-.3 0-.6.2-1.2.3-1.8 0-.1 0-.2 0-.3q.2-.8.3-1.7c0-.1 0-.2 0-.3.1-.4.1-.8.2-1.3.1-.1.2-.2.3-.2q1.6 0 3.2 0c.1 0 .3.2.4.3q.2.5.3 1c.1.5.2.9.3 1.3.2.6.3 1.2.5 1.9 0 .1 0 .3.1.5q0 .2.2.3 0 0 .1 0 0-.2 0-.4c.1-.8.4-1.6.6-2.4q.3-.9.6-1.8c0-.2.1-.3.2-.5 0-.1.1-.1.2-.1 1.2-.1 2.3 0 3.5 0 .1.8.2 1.5.4 2.3q.1.8.2 1.5.1.1.1.2c.1.9.2 1.9.4 2.9.1.7.3 1.4.4 2.2s.1.8-.6.8h-2.4c-.3 0-.5-.1-.5-.4q-.1-2-.3-4.1c-.1-.3-.2-.7-.3-1-.1.3-.1.5-.2.8-.3.9-.5 1.8-.8 2.7q-.2.9-.6 1.9s-.1.1-.2.1c-.7 0-1.3 0-2 0-.5-1.8-1-3.5-1.5-5.2 0-.1-.1-.2-.1-.3-.1.2-.1.2-.1.3-.1.7-.1 1.5-.2 2.3q-.1 1.1-.3 2.2 0 .1 0 .1c-.1.6-.1.6-.7.6h-2.8q-.1-.2-.1-.3z"/><path d="m230.1 249.7h-1.8v5.3h1.8z"/><path d="m115.7 250.1c0-.1 0-.1 0-.2q0-1.9 0-3.7c0-.3-.1-.6-.1-.9-.1-.2.1-.3.3-.3h2.8c.3 0 .4.1.4.4v9.2c0 .1-.1.2-.1.4-1.1 0-2.2 0-3.3-.1-.2 0-.4-.2-.5-.3-.5-.8-1-1.7-1.5-2.6q-.5-.8-1-1.7-.1-.2-.4-.3v.7c.1.5.1.9.1 1.3.1.9 0 1.7.1 2.6 0 .3-.1.4-.4.4-.9-.1-1.9 0-2.8 0-.3 0-.4-.1-.3-.4v-9.3c0-.2 0-.3.2-.3 1 0 2.1 0 3.1.1.2 0 .3.2.4.3.5.7.9 1.5 1.3 2.2q.8 1.3 1.6 2.6 0-.1.1-.1z"/><path d="m183.3 250.1v-.7q0-2 0-3.9c0-.5 0-.5.5-.5h2.4c.4 0 .5.1.5.5-.1 2.7 0 5.5 0 8.3v.9c0 .2-.1.3-.3.3-1 0-2.1 0-3.1-.1-.2 0-.4-.2-.5-.4-.3-.4-.5-.9-.7-1.3-.7-1-1.3-2-1.9-3.1q0 0-.1-.1v5h-3.2c-.3 0-.4-.1-.4-.4q0-4.6.1-9.1c0-.4 0-.5.4-.5h2.7c.3 0 .5.1.6.4.4.6.8 1.3 1.2 2q.8 1.4 1.7 2.8.1-.1.1-.1z"/><path d="m170.1 255h-3.6c-.1 0-.2-.1-.2-.2-.1-.2-.1-.5-.3-.8 0-.1-.1-.3-.2-.3-.8 0-1.6 0-2.3 0-.3 0-.4.2-.4.4-.1.3-.2.6-.3.9h-3.8c.3-.9.6-1.6.9-2.4.2-.5.3-.9.4-1.3.2-.4.3-.7.4-1q.4-.9.7-1.7.3-.8.5-1.6.4-.9.7-1.8c0-.1.1-.1.2-.1q1.8-.1 3.6 0c.1 0 .3.1.4.2q.4 1.1.8 2.2.4 1.2.8 2.4c.2.6.5 1.2.7 1.9s.4 1.4.7 2.1c.1.3.2.5.3.7q0 .1 0 .4zm-6.3-3.6h1.4c.2 0 .2-.1.2-.2-.1-.5-.3-.9-.4-1.3-.1-.5-.2-1-.3-1.4 0-.1 0-.2 0-.3h-.1q-.4 1.5-.8 3.2z" fill-rule="evenodd"/><path d="m108.3 254.9h-3.9q-.1-.4-.2-.9 0-.4-.4-.4h-2.2c-.4 0-.4.4-.5.6s-.1.5-.1.7h-3.8c.2-.6.4-1.2.6-1.8q.3-.7.6-1.5.3-.9.6-1.7.4-1.1.8-2.2.4-1.1.7-2.2c.1-.4.3-.6.7-.6h3.2c.3 0 .4.1.5.4.1.6.3 1.1.5 1.6q.3.9.7 1.7.4 1.1.7 2.1c.2.6.4 1.1.6 1.7.3.7.6 1.5.8 2.2q0 .2.1.3zm-5.5-6.9c-.1.1-.1.1-.1.2q-.3 1-.6 2.1-.1.4-.1.8c0 .2 0 .3.2.3q.5 0 1.1 0s.2-.2.2-.3q-.2-.6-.4-1.1c-.1-.6-.3-1.1-.3-1.7.1 0 0-.1 0-.3z" fill-rule="evenodd"/><path d="m142.2 245c1.1 3.3 2.3 6.6 3.5 9.9h-3.8c-.1-.4-.2-.8-.4-1.3h-2.3c-.5 0-.5.1-.7.7-.2.7-.2.7-.9.7h-2.7c-.1 0-.2-.1-.3-.1q.1-.3.2-.6c.4-.9.7-1.7 1-2.6.2-.5.4-1 .5-1.6q.6-1.5 1.1-3c.2-.6.4-1.2.7-1.8 0-.1.2-.2.3-.3q1.9 0 3.8 0zm-2.1 3.1q0 0 0 0-.1.5-.3.9c-.1.7-.3 1.4-.4 2q-.2.4.3.4h.5q.3 0 .6-.1 0-.2-.1-.5-.2-.9-.4-1.9c0-.2-.1-.5-.2-.8z" fill-rule="evenodd"/><path d="m71.9 245q.2 0 .4 0h6c.2 0 .4.1.3.4v2q0 .1 0 .3h-2.8c-.1 0-.4 0-.4.1v.8c0 .1.2.1.3.1h2.3q.1 0 .3 0 0 1.2 0 2.3c0 .1-.2.2-.3.2q-1 0-2.1 0c-.5 0-.5 0-.5.6 0 .1-.1.2-.1.5.3 0 .6.1.8.1h2.1c.3 0 .4 0 .4.4v2.2h-6.7c0-3.4 0-6.6 0-10z"/><path d="m188.7 254.9v-9.9h1q2.7 0 5.3 0c.3 0 .3.1.4.3 0 .8.1 1.5-.1 2.4h-1.1c-.6 0-1.2 0-1.7 0-.3 0-.4.1-.4.4v.2c0 .3.1.4.4.4q1.1 0 2.2 0c.4 0 .4.1.4.5v1.7c0 .3 0 .3-.2.3-.8 0-1.6 0-2.3 0-.3 0-.5.1-.5.4v.2c0 .4.1.5.5.5h2.4c.5 0 .5-.1.5.5v1.8c0 .2-.1.3-.3.3h-6.3c0 .1-.1 0-.2 0z"/><path d="m158.6 248.7c-.8-.6-1.7-.8-2.6-.7-.5.1-1.1.6-1.3 1.2-.2.7-.2 1.4.2 2 .3.4.7.7 1.2.8.9.1 1.6-.3 2.3-.7.1 0 .1-.1.2-.1 0 0 .1 0 .2-.1q-.1.8-.1 1.5 0 .9-.1 1.7c0 .4-.1.6-.6.6-.3.1-.6.2-.9.2-.7 0-1.3.1-1.9 0-.8-.1-1.5-.4-2.1-.8-.4-.3-.8-.6-1-1-.6-.7-1-1.4-1.1-2.4 0-.3-.1-.7-.1-1 0-.8.2-1.5.5-2.2.3-.6.7-1.2 1.3-1.7.6-.4 1.3-.8 2-1 .9-.3 1.8-.1 2.7-.1.4 0 .8.2 1.1.3.1.1.1.2.2.3v3.1q-.1.1-.1.1z"/><path d="m96.8 251.2q0 1.1 0 2.2v.9c0 .5-.2.6-.6.7-.4 0-.7.1-1 .1-.7.1-1.3.1-1.9 0-.8-.1-1.5-.4-2.1-.9s-1.2-1-1.6-1.7c-.2-.5-.4-.9-.4-1.5 0-.3-.2-.7-.2-1 .1-2 .9-3.5 2.5-4.5.8-.4 1.6-.7 2.5-.6.7 0 1.4-.1 2.1.1.6.1.7.3.7.8v3c-.2-.1-.3-.2-.5-.3-.8-.6-1.7-.6-2.6-.3-.5.2-.9.7-1 1.3s-.1 1.2.3 1.8c.5.6 1.1.8 1.9.7.7-.1 1.3-.4 1.9-.8z"/><path d="m134.3 251.2c-.1.6-.1 1.1-.1 1.6q-.1.8-.1 1.6c0 .4-.2.5-.5.5-.5.2-1.1.3-1.7.3-.5 0-1-.1-1.6-.2q-.7-.1-1.4-.5c-.9-.6-1.5-1.4-2-2.4-.4-.7-.5-1.4-.5-2.1.1-1.5.5-2.9 1.7-3.9.6-.6 1.3-.9 2.2-1.2.8-.2 1.7-.1 2.6-.1.4 0 .8.2 1.1.4.1 0 .1.1.1.2v3.2q0 0 0 .1c-.4-.2-.7-.5-1.1-.6-1-.2-2-.2-2.6.7-.3.5-.4 1.1-.2 1.8q.1.6.7 1c.5.4 1.4.4 2 .2.2-.1.4-.2.6-.3.3 0 .5-.2.8-.3z"/><path d="m87.6 248.7c-.4-.2-.8-.5-1.2-.6-.8-.2-1.6-.2-2.3.4-.6.6-.8 1.9-.2 2.6.6.9 1.6 1.2 2.6.7.4-.2.8-.3 1.2-.5q0 .3 0 .5v2.6c0 .4-.2.5-.4.6-1.2.2-2.4.3-3.6 0-1.5-.4-2.5-1.3-3.2-2.6-.5-.9-.7-1.9-.5-2.9.1-1.2.6-2.3 1.4-3.2.7-.6 1.5-1 2.4-1.3.9-.2 1.7-.1 2.5-.1.4 0 .9.2 1.2.3.1.1.2.2.2.3v3.2c-.1 0-.1 0-.1 0z"/><path d="m212.5 251.8v3.2q-.2 0-.3 0h-6.5c-.3 0-.4-.1-.4-.5 0-3 0-6 0-9 0-.4.1-.5.5-.5h2.7c.3 0 .5.1.5.5v5.9c0 .3.1.4.4.4z"/><path d="m200.6 245v5.9c0 .9 0 .9.9.9h2.3c.2 0 .3 0 .3.3v2.5c0 .3-.1.4-.4.4q-3.2-.1-6.3 0c-.3 0-.4-.1-.4-.5q0-4.3 0-8.7v-.1c0-.7 0-.7.7-.7h2.5q.2 0 .4 0z"/><path d="m217.4 250v4.6c0 .3 0 .4-.3.4-1-.1-1.9-.1-2.9 0-.3 0-.5-.1-.5-.5v-9c0-.4.2-.5.5-.5h2.8c.3 0 .4.1.4.4q0 2.3 0 4.6z"/><path d="m174.5 245v10q-.2 0-.3 0c-1 0-1.9 0-2.9 0-.3 0-.4-.1-.4-.4q.1-4 0-8c0-.4 0-.8 0-1.3 0 0 .2-.2.2-.2 1.2-.1 2.3-.1 3.4-.1z"/><path d="m121.2 245q1.6 0 3.3 0c.1 0 .2.3.2.4q0 2.4 0 4.7 0 2.1.1 4.3c0 .5-.1.6-.6.6h-2.7c-.3 0-.4-.1-.4-.3q0-4.8 0-9.6s0 0 .1-.1z"/><path d="m220.9 254.8c.2-.4.4-.7.5-1q.3.1.6.2c.1.1.2.1.3.1s.2-.1.3-.2c0-.1-.2-.3-.3-.3-.3-.2-.7-.2-1-.6-.2-.4 0-1.1.3-1.3.7-.4 1.5-.5 2.2-.2q.2.1.4.1-.2.5-.4.9c-.4 0-.7-.5-1.2 0 .4.1.6.3 1 .4s.6.3.7.7c0 .4-.1.8-.5 1.1-.6.4-1.2.4-1.9.2-.3 0-.6 0-1-.1z"/><path d="m227.7 252.9h-.6c-.4 0-.5.2-.5.5q-.1.6-.1 1.3c-.1.2-.1.2-.3.2q-.6 0-1.1 0c-.2 0-.3 0-.3-.2q.1-1.5.1-2.8c0-.3.1-.5.4-.5h.7c.3 0 .4.1.5.4.1-.1.2-.1.4-.2q.1-.1.3-.2c.3-.2.5 0 .5.4.1.4 0 .8 0 1.1z"/><path d="m177.4 181.7c0 12.2-.1 7.2 0 14.6-16.7-9.2-66.1-13.4-72.1 10.7-1.3 29.8 67.1 20.4 72.1 13.4v14.7c-47.6 10.5-101.5.2-101.5-26.7s59.7-36 101.5-26.7z" stroke="#fff" stroke-linejoin="round" stroke-width="2"/><path d="m86.7 54.2h-12.6l-18.9 46.6h12.6z"/><path d="m89.6 55.7-6.3 15.7 11.9 29.4h13.4z"/><path d="m131.4 67.7q-3.4 0-6.1 1.3-2.7 1.4-4.4 4.1v-4.7h-9.6v32.4h9.9v-18.1q0-3.3 1.8-5.3 1.9-2 5-2 2.5 0 3.7 1.5 1.2 1.6 1.2 4.9v19h9.9v-19.5q0-6.9-2.8-10.3-2.8-3.3-8.6-3.3z"/><path d="m166.4 81.8-5.4-1.3q-2-.5-2.8-1.1-.8-.6-.8-1.7 0-1.4 1.3-2.2 1.4-.8 3.6-.8 5 0 10.1 3.6l2.6-6.6q-2.6-1.9-5.9-3-3.2-1-6.7-1-4 0-7.2 1.3-3.2 1.3-4.9 3.6-1.7 2.3-1.7 5.3 0 3.9 2.2 6.1 2.1 2.2 6.8 3.2l5.2 1.2q2.4.6 3.3 1.2.9.7.9 1.9 0 1.3-1.3 2-1.3.8-3.5.8-3.2 0-6.4-1-3.1-1-5.7-2.8l-2.6 6.9q2.6 1.9 6.3 2.9 3.7 1 8.2 1 6.4 0 10.1-2.6 3.7-2.7 3.7-7.4 0-3.9-2.3-6.1-2.2-2.3-7.1-3.4z"/><path d="m239.2 85.2q-2.3-2.3-7.2-3.4l-5.4-1.3q-1.9-.5-2.7-1.1-.8-.6-.8-1.7 0-1.4 1.3-2.2 1.3-.8 3.6-.8 4.9 0 10 3.6l2.6-6.6q-2.6-1.9-5.8-3-3.3-1-6.8-1-4 0-7.2 1.3-3.1 1.3-4.9 3.6-1.7 2.3-1.7 5.3 0 3.9 2.2 6.1 2.2 2.2 6.8 3.2l5.2 1.2q2.5.6 3.3 1.2.9.7.9 1.9 0 1.3-1.3 2-1.2.8-3.5.8-3.2 0-6.3-1-3.2-1-5.8-2.8l-2.6 6.9q2.7 1.9 6.4 2.9 3.7 1 8.1 1 6.5 0 10.1-2.6 3.7-2.7 3.7-7.4 0-3.9-2.2-6.1z"/><path d="m203 68.5-7.7 19-7.7-19h-9.6l12.5 30.7-5.5 13.5h9.6l17.9-44.2z"/><path d="m1032.3 98.6-5.3 9.2c-.6 1-1.7 1.5-2.8 1.2-6.5-1.6-13.4-2.5-20.5-2.5-7 0-13.9.9-20.5 2.5-1 .3-2.2-.2-2.7-1.2l-5.3-9.2c-.6-1-.4-2.2.3-3 9.5-10 16.6-22.3 20.5-35.9.3-1.1 1.3-1.8 2.4-1.8h10.6c1.2 0 2.1.7 2.4 1.8 4 13.6 11.1 25.9 20.5 35.9.8.8 1 2 .4 3zm-11.7 4.3-11.8-36.6c-.1-.3-.4-.3-.5-.1l-25.6 28.6c-.1.2 0 .4.2.5l37.3 8c.2.1.4-.2.4-.4z" fill-rule="evenodd"/><path d="m1067.9 66.4 14.8 34.1h-7.1l-3.3-7.9h-14.8l-3.4 7.9h-6.9l14.8-34.1zm1.9 20.1-4.9-11.6-5 11.6z" fill-rule="evenodd"/><path d="m1094.4 66.6h-6.7v33.9h23.8v-6.2h-17.1z"/><path d="m1156.6 66.4 14.8 34.1h-7.1l-3.3-7.9h-14.8l-3.4 7.9h-6.8l14.7-34.1zm1.9 20.1-4.9-11.6-5 11.6z" fill-rule="evenodd"/><path d="m1176.9 66.6h6.6v33.9h-6.6z"/><path d="m1221.9 100.5h-7.8l-8.1-11.5h-6.4v11.5h-6.7v-33.9h15c7.8 0 12.6 4.2 12.6 11 0 5-2.7 8.7-7.5 10.2zm-22.4-17.5h7.9c3.9 0 6.3-1.9 6.3-5.1 0-3.3-2.2-5-6.3-5h-7.9z" fill-rule="evenodd"/><path d="m1109.5 66.6v6.5h10.3v27.4h6.8v-27.4h10.3v-6.5z"/><path d="m578 65.7v7.2q-5.4-2.1-9.7-2.1-2.5 0-4.1.9-1.5.9-1.5 2.2 0 1.8 3.4 3.2l6.7 3.3q8 3.9 8 10.3 0 5.4-4.3 8.6-4.2 3.2-11.3 3.2-3.3 0-5.9-.3-2.6-.3-6-1.2v-7.4q6.1 2.1 11.1 2.1 6 0 6-3.5 0-1.8-2.4-2.9l-7.4-3.2q-4.1-1.8-6.1-4.5-1.9-2.7-1.9-6.2 0-5 4.1-8 4.1-3 10.8-3 2.3 0 5.1.4 2.8.3 5.4.9z" fill-rule="evenodd"/><path d="m369.3 65.7v7.2q-5.5-2.1-9.7-2.1-2.6 0-4.1.9-1.5.9-1.5 2.2 0 1.8 3.5 3.2l6.6 3.3q8 3.9 8 10.3 0 5.4-4.2 8.6-4.3 3.2-11.4 3.2-3.3 0-5.9-.3-2.7-.3-6-1.2v-7.4q6.1 2.1 11.1 2.1 6 0 6-3.5 0-1.8-2.4-2.9l-7.4-3.2q-4.1-1.8-6.1-4.5-2-2.7-1.9-6.2 0-5 4.1-8 4-3 10.8-3 2.3 0 5.1.4 2.8.3 5.4.9z" fill-rule="evenodd"/><path d="m387.7 65.1h-10.8v36.7h10.8z"/><path d="m422.9 101.8h-26.8v-36.7h26.4v6.7h-16v8.2h13.9v6.1h-13.9v8.6h16.4z" fill-rule="evenodd"/><path d="m428.8 101.8v-36.7h13.2l9 22.5 9.5-22.5h12.5v36.7h-10.1v-24.2l-10.5 24.5h-6.2l-10.1-24.5v24.2z" fill-rule="evenodd"/><path d="m508.1 101.8h-26.8v-36.7h26.5v6.7h-16v8.2h14v6.1h-14v8.6h16.3z" fill-rule="evenodd"/><path d="m545.7 101.8h-11.4l-12.9-23.6v23.6h-7.3v-36.7h11.8l12.5 23.1v-23.1h7.3z" fill-rule="evenodd"/><path d="m690.4 83.5c-.9 0-1.6-.9-1.6-1.8v-19c0-.7.7-1.5 1.6-1.5h41.3c.7 0 1.6.8 1.6 1.5v7.9c0 .8-.9 1.7-1.6 1.7h-13.4c-.9 0-1.8-.9-1.8-1.7v-2.8c0-.5-.5-1.1-1-1.1h-8.9c-.5 0-1.2.6-1.2 1.1v8.9c0 .5.7 1.2 1.2 1.2h30.5c1.2 0 1.8.5 1.8 1.6v24.5c0 .9-.9 1.6-1.8 1.6h-52.3c-.9 0-1.5-.7-1.5-1.6v-13.4c0-.8.6-1.5 1.5-1.5h13.4c.9 0 1.6.7 1.6 1.5v8.4c0 .5.7 1 1.2 1h20.1c.5 0 1-.5 1-1v-14.5c0-.5-.5-1-1-1z"/><path d="m750 78.9v8.9c0 .6-.5.9-1.2 1.3q-1.6.2-1.6 1.5v13.4c0 .9.7 1.6 1.6 1.6h16.2c.9 0 1.6-.7 1.6-1.6v-14.8c0-.1.3-.3.5-.1l15.9 16.2c.3.3.5.3 1 .3h19.9c.8 0 1.7-.7 1.7-1.6v-13.4c0-.8-.9-1.5-1.7-1.5h-14.5c-.3 0-.5 0-.7-.4l-10.8-10.6c0-.2-.2-.2 0-.4l5.2-5.2c.2-.2.4-.2.7-.2h14.7c.7 0 1.5-.9 1.5-1.7v-7.9c0-.7-.8-1.5-1.5-1.5h-14.5c-.5 0-.7.1-1 .5l-15.7 16c-.4.2-.7.2-.7-.2v-14.8c0-.7-.7-1.5-1.6-1.5h-16.2c-.9 0-1.6.8-1.6 1.5v13.5c0 .8.5 1.3 1.4 1.5 1.1.4 1.4.7 1.4 1.2z"/><path d="m814 104c0 .9.9 1.6 1.7 1.6h16.1c.8 0 1.7-.7 1.7-1.6v-13.2c0-.9-.5-1.6-1.6-1.7-.8-.4-1.2-.6-1.2-1.3v-3.3c0-.5.5-1 1.1-1h6.1c.7 0 1.2.5 1.2 1 0 .9.8 1.8 1.5 1.8h13.5c.8 0 1.7-.9 1.7-1.8v-7.8c0-.9-.9-1.6-1.7-1.6h-13.5c-.7 0-1.5.7-1.5 1.6 0 .5-.5 1.2-1.2 1.2h-6.1c-.6 0-1.1-.7-1.1-1.2v-8.9c0-.5.5-1.1 1.1-1.1h17.2c.5 0 1.2.6 1.2 1.1v2.8c0 .8.7 1.7 1.6 1.7h19c.9 0 1.6-.9 1.6-1.7v-7.9c0-.7-.7-1.5-1.6-1.5h-55.1c-.8 0-1.7.8-1.7 1.5v13.5c0 .8.7 1.3 1.5 1.5.7.2 1.3.7 1.3 1.2v8.9c0 .6-.4 1.1-1.3 1.3q-1.5.2-1.5 1.5z"/><path d="m1918.4 91.6c-7.3 0-10.6-3.3-10.6-10.8v-11.9h-8v-6.7h8.3v-5.1l8.8-4.6v9.7h7v6.7h-7v10.8c0 3.1.7 5.1 4 5.1.7 0 1.8-.1 2.9-.4l.3-.1.2 6.6-.2.1c-1.6.4-3.7.6-5.7.6zm-18.6-.6h-9.4v-22.1h-5.8v-6.7h5.8v-1.7c0-8 3.7-11.7 11.5-11.7 1.2 0 2.5.1 3.7.3l.2.1v6.4l-.4-.1c-.7-.4-1.3-.5-2.3-.4-2.3.1-3.3 1.7-3.3 5.6z"/><path d="m1758.2 91h-10.4v-33.9l10.4-4.6zm-36.3 0h-10.6v-38.5h10.6v15.3c1.2-1.6 13.6-15.3 13.6-15.3h12l-15.9 18 16.2 18.9v1.6h-11.6s-12.2-14.4-14.3-17.3z"/><path d="m1869.8 92c-9 0-15.1-6.1-15.1-15.2 0-9.4 5.8-15.3 15.1-15.3 8.9 0 15 6.2 15 15.3s-6.1 15.2-15 15.2zm0-23.9c-3.6 0-5.8 3.4-5.8 8.6s2.2 8.6 5.8 8.6 5.8-3.3 5.8-8.6c0-5.4-2.2-8.6-5.8-8.6z" fill-rule="evenodd"/><path d="m1760.8 79.5c.3 3.4 1.5 5.9 3.9 8.5 2.2 2.4 6.4 4 12.3 4 3.4 0 6.2-.8 8.4-1.9 2.2-1 3.9-2.6 5.1-4.6s1.9-4.2 1.9-6.6q0-3-1.4-5.5-1.4-2.4-4.4-4.1c-2.1-1.1-5.5-2.2-10.2-3.3-2-.4-3.3-.9-3.8-1.4q-.9-.8-.9-1.9 0-1.3 1.1-2.3 1-.9 3-.9 2.4 0 3.8 1.2c1.1.9 1.6 2 1.9 3.4l9.6-.9c-.4-3.5-1.7-5.8-4-7.6-2.3-1.7-5.7-3.1-10.1-3.1-3.7 0-6.1.5-8.7 1.8-2 1-3.6 2.4-4.6 4.1q-1.6 2.5-1.6 5.4c0 2.9 1 5.2 3 7.1s5.4 3.4 10.2 4.5c3 .7 4.8 1.5 5.7 2.3q1.3 1.2 1.3 2.8 0 1.7-1.4 3-1.3 1.2-3.8 1.2-3.2 0-5-2.4c-.8-1.1-1.3-2.3-1.5-3.7z"/><path d="m1826.8 83.4c.5 2.7 2 4.5 3.9 6 1.9 1.4 4.8 2.6 9.3 2.6 3.2 0 6.8-.9 9.4-3q3.4-2.7 3.4-7.1 0-2.5-1.2-4.5-1.2-2-3.5-3.2c-1.5-.7-3.8-1.3-7-1.7q-3.1-.4-4.1-1-1-.6-1-1.7 0-1.1.8-1.8.8-.7 2.4-.7 1.7 0 2.8.9c.5.4 1.1 1 1.4 2l8.5-1c-1.1-3.4-3.3-5.8-6.8-6.9-1.7-.6-3.5-.8-5.3-.8-2.8 0-5.1.5-6.8 1.2q-2.4 1-3.8 3.1c-1.1 1.6-1.7 3.9-1.4 5.9.3 2.2 1.4 4.3 3.2 5.6.5.4 1.1.7 1.6.9 2.1.9 4.3 1.3 6.5 1.8 2.3.5 3.6.8 4.1 1.2q1.2.7 1.2 2 0 1.1-.9 1.8-1.1 1-3 1-1.8 0-2.9-.8c-.5-.4-1.4-1.3-1.9-2.8z"/><path d="m1794 79.5c.3 3.4 1.4 5.9 3.8 8.5 2.3 2.4 6.4 4 12.4 4 3.3 0 6.2-.8 8.4-1.9 2.2-1 3.9-2.6 5.1-4.6s1.8-4.2 1.8-6.6q0-3-1.4-5.5-1.3-2.4-4.4-4.1c-2-1.1-5.4-2.2-10.2-3.3-2-.4-3.2-.9-3.8-1.4q-.8-.8-.8-1.9 0-1.3 1-2.3 1.1-.9 3.1-.9 2.4 0 3.8 1.2c1 .9 1.6 2 1.9 3.4l9.6-.9c-.5-3.5-1.7-5.8-4.1-7.6-2.3-1.7-5.6-3.1-10.1-3.1-3.6 0-6 .5-8.6 1.8-2 1-3.7 2.4-4.7 4.1q-1.5 2.5-1.5 5.4c0 2.9 1 5.2 3 7.1s5.4 3.4 10.1 4.5c3 .7 4.9 1.5 5.7 2.3q1.3 1.2 1.3 2.8 0 1.7-1.3 3-1.4 1.2-3.8 1.2-3.3 0-5.1-2.4c-.8-1.1-1.2-2.3-1.4-3.7z"/><path d="m1812.7 106.9c-.7-.6-1.5-1.2-2.7-1.2-2.5 0-3.8 1.7-3.8 3.8 0 2.2 1.3 3.9 3.6 3.9.5 0 1-.1 1.4-.2v-2.6h-2.3v-1.6h4.9v4.8c-.9 1-2.9 1.4-4 1.4-3.5 0-6.1-1.9-6.1-5.5 0-3.7 2.4-5.6 6.1-5.7 1.5 0 3 .7 3.7 1.3z"/><path d="m1824.6 114.4c-.8.4-1.6.6-2.7.6-2.6 0-4.1-1.5-4.1-4.1 0-2.2 1.2-4.1 3.6-4.1 2.9 0 4 2 4 4.7h-5.1c.1 1.3.6 1.8 1.9 1.9 1 .1 1.6-.3 2.4-.7zm-1.4-4.2c-.1-1-.5-1.9-1.7-1.9-1.1 0-1.2.8-1.3 1.9z" fill-rule="evenodd"/><path d="m1826.5 107.4c.8-.4 1.8-.7 2.7-.7 2.4 0 3.5 1 3.5 3.3v1.1 2c.1.6.1 1.1.1 1.7h-2c-.1-.4-.1-.3-.1-.6-.5.9-2.2.8-2.3.8-1.4 0-2.8-.8-2.8-2.3 0-1.2.6-1.9 1.4-2.3.7-.4 1.5-.7 2.4-.7h1.1c0-1.3-.3-1.5-1.5-1.5-.9 0-1.8.4-2.5.9zm2.4 6.2c.7 0 1.1-.1 1.4-.4.5-.5.4-1.3.4-2h-.8c-.9 0-1.8.2-1.8 1.4 0 .5.3.9.8 1z" fill-rule="evenodd"/><path d="m1844.3 106.6c2.2 0 3.9 1.7 3.9 4.3 0 2.3-1.4 4.1-3.9 4.1s-4.1-1.8-4.1-4.1c0-2.6 1.9-4.3 4.1-4.3zm-.1 6.8c1.3 0 1.6-1.4 1.6-2.7s-.6-2.4-1.5-2.4c-1.1 0-1.7 1.2-1.7 2.4 0 1.3.3 2.7 1.6 2.7z" fill-rule="evenodd"/><path d="m1874.1 106.6c2.2 0 3.9 1.7 3.9 4.3 0 2.3-1.4 4.1-3.9 4.1s-4.1-1.8-4.1-4.1c0-2.6 1.9-4.3 4.1-4.3zm-.1 6.8c1.3 0 1.6-1.4 1.6-2.7s-.6-2.4-1.5-2.4c-1.1 0-1.7 1.2-1.7 2.4 0 1.3.3 2.7 1.6 2.7z" fill-rule="evenodd"/><path d="m1848.8 106.7h2.3v1-.1c.7-.9 1.3-1 2.4-1 1.8 0 2.7 1.3 2.7 3.3v4.9h-2.4v-4.2c0-.9.1-2.6-1.2-2.6-1.6 0-1.4 2-1.4 3v3.8h-2.4z"/><path d="m1894 117.9h-2.2v-8.8-1.5l-.1-.9h2.1l.1 1.1q.4-.5.9-.8.7-.4 1.5-.4 1.4 0 2.2.9 1.1 1 1.1 3.1 0 1.2-.4 2.2-.4 1-1.1 1.5-.8.5-1.9.5-.8 0-1.4-.3-.5-.3-.8-.7zm1.8-9.5q-.8 0-1.3.6-.5.6-.5 1.7 0 1.2.5 1.8.5.5 1.2.5.6 0 1.1-.6.5-.6.5-1.8 0-1.1-.5-1.7-.4-.5-1-.5z" fill-rule="evenodd"/><path d="m1900.9 107.4c.8-.4 1.9-.7 2.7-.7 2.4 0 3.5 1 3.5 3.3v1.1c0 .8 0 1.4.1 2 0 .6 0 1.1.1 1.7h-2.1c-.1-.4-.1-.3-.1-.6-.4.9-2.1.8-2.3.8-1.4 0-2.7-.8-2.7-2.3 0-1.2.5-1.9 1.3-2.3.7-.4 1.5-.7 2.4-.7h1.2c0-1.3-.4-1.5-1.6-1.5-.9 0-1.7.4-2.4.9zm2.4 6.2c.6 0 1.1-.1 1.4-.4.5-.5.3-1.3.3-2h-.8c-.9 0-1.8.2-1.8 1.4 0 .5.3.9.9 1z" fill-rule="evenodd"/><path d="m1908.3 106.7h2.3v1-.1c.7-.9 1.3-1 2.4-1 1.8 0 2.6 1.3 2.6 3.3v4.9h-2.4v-4.2c0-.9.1-2.6-1.2-2.6-1.5 0-1.3 2-1.3 3v3.8h-2.4z"/><path d="m1918 117.9q-.3 0-.8 0-.4-.1-.7-.2h-.1l.2-1.7.1.1q.5.1 1 .1.4 0 .8-.3.4-.4.5-.9l-3.1-8.4h2.5l1.8 5.6 1.9-5.6h2.2l-3.2 8.5-.4.9q-.2.6-.6 1-.3.4-.9.7-.6.2-1.2.2z"/><path d="m1890.8 114.8h-2.2v-4.4q0-.9-.2-1.2-.1-.4-.3-.5c-.4-.3-.9-.3-1.4 0q-.3.3-.5.8-.2.5-.2 1.1v4.2h-2.2v-4.8q0-.8-.3-1.2-.3-.3-.8-.3-.6 0-1 .5-.5.6-.5 1.8v4h-2.2v-6-1.3q0-.4-.1-.7v-.1h2.2v1.1q.4-.5.9-.8.7-.4 1.5-.4.9 0 1.5.4.4.4.7.9.2-.3.4-.5.4-.4 1-.6.6-.2 1.2-.2.7 0 1.2.3.6.3.9.8.2.4.3 1.1.1.4.1 1.4z"/><path d="m1867 115.1q-1.5 0-2.8-.5-1.5-.6-2.3-1.9-.8-1.3-.8-3.1 0-2.5 1.5-4.1 1.6-1.5 4.2-1.5 1.4 0 2.7.5h.1l-.2 2-.1-.1q-.5-.2-1.2-.3-.7-.2-1.2-.2-1 0-1.7.5-.8.4-1.2 1.2-.4.9-.4 1.9 0 1.6 1 2.6 1 1 2.5 1 1.2 0 2.3-.4l.1-.1.1 2.1h-.1q-.4.2-1.1.3-.8.1-1.4.1z"/><path d="m1814.7 104h2.3v10.8h-2.3z"/><path d="m1798.5 114.8h-2.5l-.9-2.4h-4.3l-.9 2.4h-2.4l4.2-10.8h2.6zm-7-4.3h2.8l-1.4-4z" fill-rule="evenodd"/><path d="m1839.6 109.1c-1.2-.8-1.9-1.1-2.5-1-.4 0-1.2.2-1 .8.3.9 3.9.9 3.9 3.7 0 1.7-1.2 2.4-3.4 2.4-1.3 0-2.6-.6-3-.8v-1.4c.9.4 1.7.8 2.7.8.8 0 1.3-.3 1.3-.7 0-1.2-4.2-1-4.2-3.7 0-1.5 1.4-2.6 3.5-2.6 1 0 2.1.5 3 1.1z"/><path d="m1324.4 50.9h10.8v54.2h-10.8z"/><path d="m1346.1 50.9h10.8v36.7h-10.8z"/><path d="m1367.7 50.9h10.9v54.2h-10.9z"/><path d="m1346.2 100.2h1.1q.2 0 .4.2.3.1.4.3.2.2.3.4.1.3.1.6 0 .5-.2.8-.2.4-.6.5-.2.1-.4.1-.1 0-.4 0v1.9q0 .1 0 .1 0 0-.1 0h-.6q-.1 0-.1 0 0 0 0-.1v-4.6q0-.1 0-.1 0-.1.1-.1zm.7 2h.3q.1 0 .2 0 .1-.1.2-.2.1-.2.1-.3 0-.2-.1-.4-.1-.1-.2-.1 0-.1-.2-.1h-.1q0 0-.1 0-.1 0-.1 0z" fill-rule="evenodd"/><path d="m1350.5 100.3q.3.2.4.3.2.2.3.5.1.2.1.5v2.2q0 .2-.1.5-.1.2-.2.4-.2.2-.4.3-.2.1-.5.1-.3 0-.5-.1-.2-.1-.4-.3-.1-.2-.2-.4-.1-.3-.1-.5v-2.2q0-.3.1-.5 0-.2.2-.4.2-.2.4-.3.2-.2.5-.2.2 0 .4.1zm-.1 1.2q0 0 0-.1 0-.1-.1-.1 0-.1-.1-.2 0 0-.1 0-.1 0-.2 0 0 .1-.1.2 0 0 0 .1-.1.1-.1.1v2.3q0 .2.1.3.1.1.3.1.1 0 .2-.1.1-.1.1-.3z" fill-rule="evenodd"/><path d="m1351.8 100.2q-.1 0-.1.1 0 0 0 .1v4.6q0 .1 0 .1 0 0 .1 0h2.2q.1 0 .1 0 0 0 0-.1v-.7q0 0 0-.1 0 0-.1 0h-1.5v-3.8q0-.1 0-.1 0-.1-.1-.1z"/><path d="m1356.2 100.3q.2.2.3.3.2.2.3.5.1.2.1.5v2.2q0 .2-.1.5-.1.2-.2.4-.2.2-.4.3-.2.1-.5.1-.3 0-.5-.1-.2-.1-.4-.3-.1-.2-.2-.4-.1-.3-.1-.5v-2.2q0-.3.1-.5 0-.2.2-.4.2-.2.4-.3.2-.2.5-.2.2 0 .5.1zm-.2 1.2q0 0 0-.1 0-.1-.1-.1 0-.1-.1-.2 0 0-.1 0-.1 0-.2 0 0 .1-.1.2 0 0 0 .1-.1.1-.1.1v2.3q0 .2.1.3.1.1.3.1.1 0 .2-.1.1-.1.1-.3z" fill-rule="evenodd"/><path d="m1364.1 108.4h-1.1q-.1 0-.1 0 0 0 0 .1v7.3q0 .1 0 .1 0 0 .1 0h1.1q.1 0 .1 0 0 0 0-.1v-3.5l1.3 3.5q0 .1 0 .1.1.1.2.1h1q.1 0 .1-.1.1 0 .1-.1v-7.3q0-.1-.1-.1 0 0-.1 0h-1.1q-.1 0-.1 0 0 0 0 .1v3.5l-1.2-3.5q-.1-.1-.1-.1 0 0-.1 0z" fill-rule="evenodd"/><path d="m1361.1 108.5q.4.2.6.5.3.2.4.6.2.4.2.9v3.3q0 .4-.1.8-.2.4-.4.7-.3.3-.6.4-.4.2-.8.2-.4 0-.7-.2-.4-.1-.6-.4-.3-.3-.5-.7-.1-.3-.1-.8v-3.4q0-.4.1-.7.2-.4.4-.7.3-.3.6-.5.4-.2.8-.2.4 0 .7.2zm-.2 1.8q0-.1 0-.2-.1-.1-.1-.2-.1-.1-.2-.2-.1 0-.2 0-.1 0-.2 0-.2.1-.2.2-.1.1-.1.2-.1.1-.1.2v3.6q0 .3.2.5.1.2.4.2.2 0 .4-.2.1-.2.1-.5z" fill-rule="evenodd"/><path d="m1354.3 108.3h1.7q.4 0 .7.2.4.2.6.5.3.3.4.7.2.4.2.9 0 .7-.3 1.3-.2.3-.5.5l.7 3.5h-1.4l-.6-3.1q-.2 0-.3 0v2.9q0 .1-.1.2 0 0-.2 0h-.9q-.1 0-.2 0 0 0 0-.1v-7.3q0-.1 0-.2 0 0 .2 0zm1.1 3.2h.5q.2 0 .3-.1.2-.1.3-.3.1-.3.1-.6 0-.2-.1-.5-.1-.1-.2-.2-.2-.1-.4-.1h-.1q-.1 0-.2 0-.1 0-.2 0z" fill-rule="evenodd"/><path d="m1349.8 108.3q-.1 0-.1.1v1.1q0 .1 0 .1.1 0 .1 0h1.1v6.2q0 .1.1.1h1.2q.1 0 .1-.1v-6.2h1.1q0 0 .1 0 0 0 0-.1v-1.1q0-.1-.1-.1z" fill-rule="evenodd"/><path d="m1347.1 108.3q-.1 0-.1.1l-1.5 7.4q-.1.1 0 .1 0 0 .1 0h1.1q.1 0 .1 0l.8-4.1.8 4q0 .1.1.1 0 0 .1 0h1.1q.1 0 .1 0 0-.1 0-.1l-1.6-7.4q0-.1 0-.1 0 0-.1 0z" fill-rule="evenodd"/><path d="m1341.1 110.4v3.3q0 .5.1.9.2.4.4.7.3.3.6.5.3.1.8.1.3 0 .6-.1.3-.1.6-.3.2-.3.4-.6.2-.3.2-.7 0 0 0-.1 0 0 0 0h-1.2q-.1 0-.1.1 0 0 0 0-.1.2-.2.3-.2.1-.3.1-.6 0-.6-.8v-3.3q0-.4.2-.6.1-.2.4-.2.1 0 .2.1.2.1.3.3 0 0 0 0h1.3q0 0 0 0 .1 0 0-.1-.1-.8-.6-1.2-.5-.5-1.2-.5-.4 0-.7.2-.3.1-.6.4-.3.3-.5.7-.1.3-.1.8z" fill-rule="evenodd"/><path d="m1336.7 110.4v3.3q0 .5.2.9.1.4.3.7.3.3.6.5.4.1.8.1.4 0 .7-.1.3-.1.5-.3.3-.3.4-.6.2-.3.3-.7 0 0-.1-.1 0 0 0 0h-1.2q0 0-.1.1 0 0 0 0 0 .2-.2.3-.1.1-.3.1-.5 0-.5-.8v-3.3q0-.4.1-.6.2-.2.4-.2.2 0 .3.1.1.1.2.3 0 0 0 0 0 0 .1 0h1.2q.1 0 .1 0 0 0 0-.1-.2-.8-.7-1.2-.4-.5-1.2-.5-.3 0-.7.2-.3.1-.6.4-.3.3-.4.7-.2.3-.2.8z" fill-rule="evenodd"/><path d="m1334 112.8h1.6q0 0 0 0 0-.1 0-.1v-1.2q0 0 0 0h-1.6z" fill-rule="evenodd"/><path d="m1336 108.3h-3.5q-.1 0-.1 0-.1.1-.1.2v7.2q0 .2.1.2 0 0 .1 0h3.5q.1 0 .1 0 0 0 0-.1v-1.1q0-.1 0-.1-.1-.1-.1 0h-2.3v-4.9h2.3q.1 0 .1-.1 0 0 0 0v-1.1q0-.1 0-.2 0 0-.1 0z" fill-rule="evenodd"/><path d="m1370.5 110.4v3.3q0 .5.1.9.1.4.4.7.2.3.6.5.3.1.7.1.4 0 .7-.1.3-.1.6-.3.2-.3.4-.6.1-.3.2-.7 0 0 0-.1 0 0-.1 0h-1.2q0 0 0 .1 0 0-.1 0 0 .2-.1.3-.2.1-.3.1-.6 0-.6-.8v-3.3q0-.4.2-.6.1-.2.4-.2.1 0 .2.1.2.1.2.3.1 0 .1 0h1.2q.1 0 .1 0 0 0 0-.1-.2-.8-.6-1.2-.5-.5-1.2-.5-.4 0-.7.2-.4.1-.6.4-.3.3-.5.7-.1.3-.1.8z" fill-rule="evenodd"/><path d="m1324.4 108.4h1.3v7.5h-1.3z"/><path d="m1326.9 108.4h1.4v5.1h-1.4z"/><path d="m1329.5 108.4h1.3v7.5h-1.3z"/><path d="m1368.1 108.4h1.4v7.5h-1.4z"/><path d="m1375.9 108.3q0 0-.1.1l-1.5 7.4q0 .1 0 .1 0 0 .1 0h1.1q.1 0 .1 0l.9-4.1.8 4q0 .1 0 .1 0 0 .1 0h1.1q.1 0 .1 0 0-.1 0-.1l-1.5-7.4q0-.1-.1-.1 0 0 0 0z" fill-rule="evenodd"/><path d="m1550.6 80.3h.8l1.2 2.9c.1.2.3.7.3.7s.1-.5.2-.7l1.2-2.9h.8l.4 5.2h-.7l-.3-3.2c0-.3 0-.8 0-.8s-.1.5-.3.8l-1 2.3h-.7l-1-2.3c-.1-.3-.3-.8-.3-.8v.8l-.2 3.2h-.8z"/><path d="m1556.9 80.3h3v.7h-2.3v1.6h1.9v.6h-1.9v1.7h2.4v.6h-3.1z"/><path d="m1563.5 80.3c1.3 0 1.9.6 1.9.6l-.3.6s-.6-.6-1.5-.6c-1.2 0-2 .9-2 2s.8 2.1 2 2.1c.9 0 1.6-.7 1.6-.7l.4.5s-.8.8-2.1.8c-1.5 0-2.6-1.2-2.6-2.7s1.1-2.6 2.6-2.6z"/><path d="m1566.7 80.3h.7v2.3h2.7v-2.3h.7v5.2h-.7v-2.2h-2.7v2.2h-.7z"/><path d="m1575 84.1h-2l-.5 1.4h-.7l1.8-5.1h.8l1.9 5.1h-.8zm-1-2.9s-.1.4-.2.7l-.6 1.6h1.6l-.6-1.6c-.1-.3-.2-.7-.2-.7z" fill-rule="evenodd"/><path d="m1578 81h-1.8v-.6h4.3v.6h-1.8v4.6h-.7z"/><path d="m1581.4 80.4h1.6c.5 0 .7 0 .9.1.6.2.9.7.9 1.4 0 .6-.4 1.2-.9 1.4q0 0 .1.2l1.1 2h-.8l-1.1-2h-1.1v2h-.7zm1.7 2.5c.6 0 1-.3 1-.9q-.1-.6-.5-.8c-.1-.1-.3-.1-.7-.1h-.8v1.8z" fill-rule="evenodd"/><path d="m1588.5 80.3c1.5 0 2.7 1.1 2.7 2.6s-1.2 2.7-2.7 2.7-2.6-1.2-2.6-2.7 1.1-2.6 2.6-2.6zm0 4.7c1.1 0 2-.9 2-2.1 0-1.1-.9-2-2-2-1 0-1.9.9-1.9 2 0 1.2.9 2.1 1.9 2.1z" fill-rule="evenodd"/><path d="m1592.4 80.3h.7l2.3 3.4c.2.3.5.8.5.8s-.1-.5-.1-.8v-3.4h.8v5.2h-.7l-2.4-3.3c-.1-.3-.4-.8-.4-.8v.8 3.3h-.7z"/><path d="m1598.1 80.4h.8v5.1h-.8z"/><path d="m1602.7 80.3c1.3 0 1.9.6 1.9.6l-.4.6s-.6-.6-1.5-.6c-1.1 0-1.9.9-1.9 2s.8 2.1 1.9 2.1c1 0 1.6-.7 1.6-.7l.4.5s-.7.8-2 .8c-1.5 0-2.6-1.2-2.6-2.7s1.1-2.6 2.6-2.6z"/><path d="m1605.9 84.4s.5.6 1.3.6c.5 0 .9-.3.9-.8 0-1.1-2.5-.9-2.5-2.5 0-.8.7-1.4 1.7-1.4.9 0 1.5.5 1.5.5l-.4.6s-.5-.5-1.1-.5-1 .4-1 .8c0 1.1 2.6.8 2.6 2.5 0 .8-.7 1.4-1.7 1.4-1.1 0-1.7-.6-1.7-.6z"/><path d="m1550.4 90.1h1.9c.9 0 1.6.6 1.6 1.6s-.7 1.7-1.6 1.7h-1.2v1.9h-.7zm1.8 2.6c.6 0 1-.4 1-1s-.4-1-1-1h-1.1v2z" fill-rule="evenodd"/><path d="m1555 90.1h1.6c.5 0 .8 0 1 .1.5.2.8.7.8 1.4s-.3 1.2-.9 1.4q0 0 .2.3l1.1 2h-.9l-1.1-2.1h-1.1v2.1h-.7zm1.8 2.5c.5 0 .9-.4.9-1q0-.5-.4-.8c-.2 0-.3-.1-.7-.1h-.9v1.9z" fill-rule="evenodd"/><path d="m1562.2 90c1.5 0 2.6 1.1 2.6 2.6 0 1.6-1.1 2.8-2.6 2.8s-2.7-1.2-2.7-2.8c0-1.5 1.2-2.6 2.7-2.6zm0 4.7c1 0 1.9-.9 1.9-2.1 0-1.1-.9-1.9-1.9-1.9-1.1 0-1.9.8-1.9 1.9 0 1.2.8 2.1 1.9 2.1z" fill-rule="evenodd"/><path d="m1567.1 90.7h-1.8v-.6h4.3v.6h-1.8v4.6h-.7z"/><path d="m1572.7 90c1.5 0 2.7 1.1 2.7 2.6 0 1.6-1.2 2.8-2.7 2.8s-2.6-1.2-2.6-2.8c0-1.5 1.1-2.6 2.6-2.6zm0 4.7c1.1 0 1.9-.9 1.9-2.1 0-1.1-.8-1.9-1.9-1.9-1 0-1.9.8-1.9 1.9 0 1.2.9 2.1 1.9 2.1z" fill-rule="evenodd"/><path d="m1577.6 90.7h-1.7v-.6h4.3v.6h-1.8v4.6h-.8z"/><path d="m1582.3 93.1-1.7-3h.8l1 1.7c.1.3.3.6.3.6s.1-.3.3-.6l.9-1.7h.9l-1.8 3v2.2h-.7z"/><path d="m1585.7 90.1h1.9c.9 0 1.6.6 1.6 1.6s-.7 1.7-1.6 1.7h-1.2v1.9h-.7zm1.8 2.6c.6 0 1-.4 1-1s-.4-1-1-1h-1.1v2z" fill-rule="evenodd"/><path d="m1590.3 90.1h.7v5.2h-.7z"/><path d="m1592.6 90.1h.7l2.3 3.4c.2.2.5.7.5.7s-.1-.5-.1-.7v-3.4h.7v5.2h-.7l-2.3-3.4c-.2-.3-.4-.8-.4-.8v.8 3.4h-.7z"/><path d="m1600.6 90c1.2 0 1.9.6 1.9.6l-.4.6s-.6-.5-1.4-.5c-1.3 0-2 .8-2 2s.8 2 1.9 2c.9 0 1.5-.6 1.5-.6v-.8h-.9v-.6h1.6v2.6h-.7v-.3c0-.2 0-.3 0-.3s-.6.7-1.6.7c-1.4 0-2.5-1.1-2.5-2.7 0-1.5 1.1-2.7 2.6-2.7z"/><path d="m1550.4 99.8h2.9v.6h-2.2v1.8h1.8v.6h-1.8v2.2h-.7z"/><path d="m1556.7 103.5h-1.9l-.5 1.5h-.8l1.9-5.2h.8l1.8 5.2h-.7zm-1-3s-.1.5-.2.8l-.6 1.6h1.6l-.6-1.6c-.1-.3-.2-.8-.2-.8z" fill-rule="evenodd"/><path d="m1561.2 99.7c1.2 0 1.9.7 1.9.7l-.4.6s-.6-.6-1.5-.6c-1.1 0-1.9.9-1.9 2s.8 2 1.9 2c1 0 1.6-.6 1.6-.6l.4.5s-.7.8-2 .8c-1.5 0-2.6-1.2-2.6-2.7s1.1-2.7 2.6-2.7z"/><path d="m1564.4 99.8h.7v5.2h-.7z"/><path d="m1566.7 99.8h.7v4.6h2.3v.6h-3z"/><path d="m1570.7 99.8h.7v5.2h-.7z"/><path d="m1574.1 100.5h-1.8v-.7h4.3v.7h-1.8v4.5h-.7z"/><path d="m1578.8 102.8-1.8-3h.8l1 1.7c.2.3.3.7.3.7s.2-.4.4-.7l.9-1.7h.8l-1.7 3v2.2h-.7z"/><path d="m1405.7 61.7h8.6v3.8h-4.1v35.7h4.1v3.9h-8.6z"/><path d="m1422.2 64.9h13.5c6.8 0 11.6 4.6 11.6 11.6s-4.8 11.7-11.6 11.7h-8.3v13.7h-5.2zm12.7 18.7c4.4 0 7.1-2.7 7.1-7.2 0-4.4-2.7-7-7.1-7h-7.5v14.2z" fill-rule="evenodd"/><path d="m1454 75.4h4.9v4.6c0 1.1-.1 2-.1 2h.1c1.2-3.9 4.3-6.9 8.3-6.9.7 0 1.3.1 1.3.1v5s-.6-.1-1.4-.1c-3.3 0-6.2 2.3-7.4 6.2-.5 1.5-.7 3.1-.7 4.7v10.9h-5z"/><path d="m1486.8 74.8c7.9 0 14.3 5.8 14.3 13.8s-6.4 13.9-14.3 13.9-14.3-5.9-14.3-13.9 6.4-13.8 14.3-13.8zm0 23.3c5 0 9.1-4 9.1-9.5s-4.1-9.4-9.1-9.4-9.1 3.9-9.1 9.4 4.1 9.5 9.1 9.5z" fill-rule="evenodd"/><path d="m1510.2 101.2v-35.7h-4.2v-3.8h8.6v43.4h-8.6v-3.9z"/><path d="m1524.3 61.7h3.6l3.6 9.2c.4 1.1.9 2.7.9 2.7h.1s.5-1.6.9-2.7l3.6-9.2h3.6l1.5 18.6h-3.3l-.8-10.4c-.1-1.2 0-2.9 0-2.9h-.1s-.5 1.8-1 2.9l-3 7.2h-2.9l-3-7.2c-.5-1.1-1-2.9-1-2.9h-.1s.1 1.7 0 2.9l-.8 10.4h-3.4z"/></g></svg>