<svg version="1.2" xmlns="http://www.w3.org/2000/svg" viewBox="0 0 3602 854" width="3602" height="854"><style>.a{fill:none}.b{fill:#fff}.c{fill:none;stroke:#fff;stroke-width:1.9}.d{fill:#fff;stroke:#fff;stroke-width:.4}</style><path class="a" d="m-0.2-144h3602v1076h-3602z"/><path fill-rule="evenodd" class="b" d="m2774.9 313.4h-13.5v-0.8c2.3-0.1 3.4-0.7 3.4-1.9 0-0.6-0.3-1.7-1-3.1l-2-4.3h-13.3l-2.4 4.8c-0.5 1.1-0.8 2-0.8 2.6 0 1.1 1.3 1.8 4 1.9v0.8h-10.9v-0.8c1.4-0.2 2.3-0.5 2.9-1 0.7-0.4 1.6-1.8 2.8-4.2l12.1-25.1h0.9l11.9 25.3c0.9 1.8 1.6 3 2.4 3.7 0.7 0.8 1.9 1.2 3.5 1.3zm-13.8-11.8l-5.8-12.4-6 12.4z"/><path fill-rule="evenodd" class="b" d="m2942.6 313.4h-13.5v-0.8c2.4-0.1 3.5-0.7 3.5-1.9 0-0.6-0.3-1.7-1-3.1l-2.1-4.3h-13.2l-2.4 4.8c-0.6 1.1-0.9 2-0.9 2.6 0 1.1 1.4 1.8 4 1.9v0.8h-10.8v-0.8c1.3-0.2 2.3-0.5 2.9-1 0.6-0.4 1.6-1.8 2.8-4.2l12.1-25.1h0.8l12 25.3c0.8 1.8 1.6 3 2.4 3.7 0.7 0.8 1.9 1.2 3.4 1.3zm-13.8-11.8l-5.8-12.4-6 12.4z"/><path class="b" d="m2797.6 307.3l-2 6.1h-18.5v-0.6h0.8q1.3 0 2-0.7c0.4-0.5 0.6-1.4 0.6-3v-15.8q0-2.5-0.6-3-0.7-0.6-2-0.6h-0.8v-0.7h18.5l0.2 5.4h-0.6c-0.4-1.7-0.8-2.7-1.4-3.3q-0.9-0.7-3.3-0.7h-6.6v9.6h5.3c1.2 0 2.1-0.2 2.7-0.6 0.6-0.4 1-1.4 1.1-2.9h0.6v8.4h-0.6c-0.2-1.6-0.6-2.6-1.2-3-0.7-0.4-1.6-0.6-2.6-0.6h-5.3v8.1q0 1.7 0.3 2.2 0.5 0.5 1.7 0.5h4.1q2.5 0 3.9-0.8c0.9-0.5 2-1.9 3-4z"/><path fill-rule="evenodd" class="b" d="m2824 313.4h-6.8l-8.5-11.4h-2.6v7.1c0 1.6 0.2 2.7 0.7 3q0.6 0.6 1.9 0.7h1v0.6h-10.9v-0.6h1c1.1 0 1.8-0.3 2.2-0.8 0.3-0.5 0.5-1.5 0.5-2.9v-15.8q0-2.4-0.7-3c-0.5-0.4-1.1-0.6-2-0.6h-1v-0.7h9.2c2.3 0 4.1 0.1 5.5 0.4 1.3 0.4 2.5 1 3.5 2.1 1.1 1.1 1.5 2.3 1.5 3.8 0 3.3-2.1 5.3-6.1 6.2l5.1 7.1c1.4 1.7 2.5 2.8 3.3 3.3q1.4 0.7 3.2 0.9zm-17.9-22.8v10.2h1c2.2 0 4-0.4 5.3-1.4 1.3-0.9 2-2.2 2-3.9 0-1.8-0.6-3.1-1.7-3.9-1.1-0.8-2.3-1.3-3.8-1.3q-1.7 0-2.8 0.3z"/><path class="b" d="m2853.1 289.7h-0.9c-1.3 0-2.1 0.2-2.4 0.8-0.4 0.5-0.6 1.4-0.6 2.8v20.5h-0.8l-18.7-19.6v15q0 2.4 0.8 3c0.5 0.3 1.2 0.6 2.2 0.6h1v0.6h-9.9v-0.6h1q1.3 0 2.2-0.6c0.6-0.4 0.8-1.4 0.8-3v-17c-0.9-0.9-1.8-1.6-2.6-1.9q-1.3-0.6-3-0.6v-0.7h7.8l17.3 18.3v-14q0-2.5-0.8-3c-0.5-0.4-1.3-0.6-2.3-0.6h-0.9v-0.7h9.8z"/><path fill-rule="evenodd" class="b" d="m2883.4 300.9c0 3.6-1.3 6.7-4 9.2-2.7 2.5-6.1 3.7-10.2 3.7-2.8 0-5.2-0.5-7.3-1.7q-3.2-1.5-5-4.5c-1.2-1.9-1.9-4.1-1.9-6.6 0-3.7 1.4-6.7 4.3-9.1 2.8-2.4 6.2-3.6 10.3-3.6 2.6 0 4.9 0.6 7 1.7 2.1 1.1 3.7 2.5 5 4.4 1.2 1.9 1.8 4.1 1.8 6.5zm-4.8 0.5c0-7.8-3.2-11.8-9.5-11.8q-2.6 0-4.6 1.2c-1.4 0.7-2.4 2-3.3 3.6-0.9 1.8-1.3 3.9-1.3 6.5 0 3.5 0.8 6.4 2.5 8.5q2.4 3.1 6.8 3.1 4.5 0 6.9-2.9c1.6-2 2.5-4.8 2.5-8.2z"/><path class="b" d="m2913.2 289.1q-2.8 0.3-4.4 3.6l-10.1 20.7h-0.8l-10.9-21c-0.6-1.2-1.2-2-1.7-2.5-0.5-0.4-1.5-0.6-2.9-0.8v-0.6h11.8v0.6q-3.1 0.3-3.1 1.7 0 0.9 1 2.8l7.3 14.3 6.9-14.1q1-2.1 1-2.9c0-0.4-0.2-0.7-0.5-1-0.3-0.3-1.2-0.5-2.6-0.8v-0.6h9z"/><path class="b" d="m2755.9 270.7c0 4.1 2.4 6.4 5.5 6.4 3.2 0 5.6-2.3 5.6-6.4v-41.2h13.4c3.5 0 5-2.9 5-5.6 0-2.9-1.9-5.7-5-5.7h-37.9c-3.2 0-5 2.8-5 5.7 0 2.7 1.5 5.6 5 5.6h13.4z"/><path fill-rule="evenodd" class="b" d="m2789 225c1.2-3.8 4.1-6.8 7.9-6.8 3.9 0 6.6 2.9 7.9 6.8l14.5 44.6c0.4 1.4 0.6 2.5 0.6 3.1 0 3.2-2.4 5.4-5.1 5.4-3.1 0-4.7-1.8-5.4-4.3l-2.2-7.7h-20.6l-2.2 7.6c-0.7 2.6-2.3 4.4-5.3 4.4-3 0-5.5-2.5-5.5-5.7 0-1.4 0.4-2.3 0.5-2.8zm0.9 29.8h14l-6.9-23.8h-0.1z"/><path class="b" d="m2821.5 270.8c-0.1 0.5-0.1 1-0.1 1.4 0 3.6 2.4 5.9 5.3 5.9 3.8 0 5.3-1.9 5.8-5.7l4.4-33.4h0.1l8.9 34.3c0.5 2 1.9 4.8 5.9 4.8 4 0 5.4-2.8 5.9-4.8l8.9-34.3h0.1l4.4 33.4c0.5 3.8 2 5.7 5.7 5.7 3 0 5.3-2.3 5.3-5.9 0-0.4 0-0.9 0-1.4l-6.9-45.8c-0.4-3-3.3-6.3-7.2-6.3-3.7 0-6.6 2.9-7.4 5.9l-8.7 32.5h-0.2l-8.7-32.5c-0.8-3-3.7-5.9-7.4-5.9-3.9 0-6.8 3.3-7.2 6.3z"/><path fill-rule="evenodd" class="b" d="m2898.9 225c1.3-3.8 4.2-6.8 7.9-6.8 4 0 6.7 2.9 7.9 6.8l14.5 44.6c0.5 1.4 0.6 2.5 0.6 3.1 0 3.2-2.4 5.4-5.1 5.4-3.1 0-4.6-1.8-5.4-4.3l-2.2-7.7h-20.5l-2.2 7.6c-0.8 2.6-2.3 4.4-5.4 4.4-2.9 0-5.4-2.5-5.4-5.7 0-1.4 0.3-2.3 0.5-2.8zm0.8 29.8h14l-6.8-23.8h-0.2z"/><path fill-rule="evenodd" class="b" d="m2941.2 228.4q-1.8 1.9-4.5 1.9-2.7 0-4.6-1.9-1.9-1.9-1.9-4.6 0-2.6 1.9-4.5 1.9-1.9 4.6-1.9 2.7 0 4.5 1.9 1.9 1.9 1.9 4.5 0 2.7-1.9 4.6zm-8.4-8.5q-1.7 1.6-1.7 3.9 0 2.4 1.6 4 1.7 1.6 4 1.6 2.3 0 3.9-1.6 1.6-1.6 1.6-4 0-2.3-1.6-3.9-1.6-1.6-3.9-1.6-2.3 0-3.9 1.6zm3.8 0.4q1.3 0 1.9 0.2 1.1 0.5 1.1 1.8 0 1-0.7 1.4-0.4 0.3-1 0.4 0.8 0.1 1.2 0.7 0.4 0.5 0.4 1.1v0.5q0 0.2 0 0.5 0 0.3 0 0.4l0.1 0.1h-1.2q0-0.1 0-0.1 0 0 0-0.1v-0.2-0.6q0-1.2-0.7-1.6-0.4-0.2-1.4-0.2h-1v2.8h-1.2v-7.1zm1.3 1.1q-0.5-0.3-1.5-0.3h-1.1v2.6h1.2q0.8 0 1.2-0.2 0.7-0.2 0.7-1.1 0-0.7-0.5-1z"/><path fill-rule="evenodd" class="b" d="m2744.8 331.4l-0.7-1.6h-3.3l-0.8 1.6q0 0-0.1 0.1 0 0-0.1 0.3-0.2 0.3-0.2 0.7 0 0.7 0.7 1v0.1q-0.1 0-0.5 0-0.5-0.1-0.9-0.1-0.4 0-0.9 0.1-0.4 0-0.5 0v-0.1q0.9-0.5 1.7-2.1l2.9-5.6q-0.3-0.6-0.9-1-0.6-0.4-1.3-0.4v-0.1h0.3q0.4 0 1.1 0 0.7 0.1 1 0.1l4.3 9.1q-0.8 0-2 0.1v-0.1q0.7-0.2 0.7-0.8 0-0.4-0.5-1.3zm-3.7-2.3h2.6l-1.2-2.6zm6.2 4.4l-4.4-9.1h0.8q0.2 0.4 0.5 1.1 0.4 0.7 0.4 0.8 0.1 0.1 0.1 0.2l2 4.2q1.1 2.2 2.3 2.7v0.2q-1.2-0.1-1.7-0.1z"/><path class="b" d="m2752 324.4v9.1q-0.7 0-1.9 0.1v-0.1q0.6-0.2 0.9-0.8 0.3-0.6 0.3-2.1v-3.9q0-1.1-0.3-1.6-0.3-0.5-0.9-0.7v-0.1q1 0.1 1.9 0.1zm0.6 9.1v-9.1q1.1 0 1.9-0.1v0.1q-0.5 0.1-0.8 0.6-0.4 0.4-0.4 1.9v4.2q0 1.3 0.4 1.8 0.4 0.4 0.8 0.6v0.1q-0.8-0.1-1.9-0.1z"/><path fill-rule="evenodd" class="b" d="m2758.7 333.5h-0.2v-9.1q0.5 0 1.1-0.1 0.7-0.1 1.1 0 1.2 0 1.8 0.7 0.5 0.7 0.5 1.8 0.1 1.8-1.5 2.3 0.8 0.1 1.3 0.4 0.5 0.4 1.6 1.5 1.7 1.7 2.8 1.7 0.2 0 0.4-0.1l0.1 0.1q-0.4 0.5-1 0.5-0.6 0-1.4-0.5-0.6-0.5-2-1.8-1.6-1.7-3.1-1.7 0.9 0.3 2.5 2 1.2 1.1 1.9 1.7 0.7 0.5 1.3 0.5v0.1q-0.3 0.1-0.6 0.1-0.8 0-1.5-0.4-0.3-0.3-0.8-0.7-0.5-0.5-1.2-1.3-1-1.1-1.5-1.5-0.6-0.4-1.1-0.6v2.1q0 2.1 1.3 2.3v0.1q-1.1-0.1-1.8-0.1zm0.5-6.8v1.9q0.5 0.2 1.1 0.2 2 0 2-2.1 0-1.9-2-1.9-0.6 0-0.9 0.3-0.2 0.3-0.2 1.6zm-1.3-2.3v9.1h-0.4q-0.2 0-0.7 0.1-0.4 0-0.9 0v-0.1q0.5-0.1 0.9-0.6 0.3-0.5 0.4-1.9v-4.4q0-1.9-1.3-2.2v-0.1q0.5 0 2 0.1zm5.2 4.2q0.6-0.9 0.6-1.9 0-1-0.7-2 1.5 0.6 1.5 2 0 1.4-1.4 1.9z"/><path class="b" d="m2774.4 324.4v9.1q-0.8 0-1.9 0.1v-0.1q0.7-0.2 0.9-0.8 0.3-0.5 0.3-1.8v-4.2q0-1.2-0.3-1.7-0.4-0.4-0.9-0.6v-0.1q1 0.1 1.9 0.1zm1 9.1h-0.4v-9.1h2.2q0.9 0 2.5-0.1-0.1 0.2-0.1 0.6 0 0.2 0.1 0.7 0 0.7 0 0.7v0.2h-0.2q-0.2-1.5-1.5-1.5h-1.6q-0.3 0-0.6 0-0.1 0.7-0.1 1.9v1.8h1.6q0.9 0 1.4-0.3 0.4-0.2 0.6-0.8h0.2q-0.1 0.9-0.1 1.3 0 0.2 0 0.7 0 0.5 0.1 0.7v0.3h-0.2q-0.1-1.4-1.5-1.4h-2.1v2q0 2 1.2 2.3v0.1q-1.2-0.1-1.5-0.1z"/><path class="b" d="m2782.8 324.4v9.1q-0.6 0-1.9 0.1v-0.1q0.7-0.2 0.9-0.8 0.3-0.6 0.3-2.1v-3.9q0-1.1-0.3-1.6-0.3-0.5-0.9-0.7v-0.1q1.1 0.1 1.9 0.1zm0.6 9.1v-9.1q1.1 0 1.9-0.1v0.1q-0.5 0.1-0.8 0.6-0.3 0.4-0.3 1.9v4.2q0 1.3 0.3 1.8 0.4 0.4 0.8 0.6v0.1q-0.8-0.1-1.9-0.1z"/><path class="b" d="m2786.8 324.3l1.8 0.1v9.1h-0.5q-0.5 0-1.3 0.1v-0.1q0.7-0.3 0.9-0.8 0.2-0.6 0.2-1.9v-4.1q0-1.3-0.3-1.8-0.4-0.4-0.8-0.5zm6.5 9.3h-4v-9.2q0.5 0 1.3-0.1 0.7 0 0.6 0v0.2q-0.7 0.1-0.9 0.6-0.3 0.6-0.3 1.6v3.8q0 0.8 0.1 1.5 0 0.7 0.1 0.8 0.1 0.1 0.6 0.1h1.8q0.9 0 1.6-0.3 0.6-0.3 1.1-1.2h0.1q0 0.4-0.3 1.3-0.3 0.6-0.3 1-0.7-0.1-1.5-0.1z"/><path class="b" d="m2796.6 324.4h2.8v9.1h-0.2q-0.6 0-1.7 0.1v-0.1q0.7-0.2 1-0.8 0.2-0.5 0.2-1.8v-5.9h-2.2q-0.8 0-1.2 0.3-0.3 0.4-0.6 1.3h-0.1q-0.1-0.1-0.1-0.2 0-0.2 0.1-0.4 0.1-1 0.1-1.7 0.4 0 1.1 0zm3.8 9.2h-0.3v-9.2h3.2q0.8 0 1.7-0.1 0 0.2-0.1 0.6 0 0.4 0 1 0 0.4 0 0.8h-0.3q0-0.7-0.3-1.2-0.4-0.5-1.5-0.5h-1.9v6.2q0 1.1 0.3 1.6 0.3 0.6 0.9 0.7v0.2q-1.5-0.1-1.7-0.1z"/><path fill-rule="evenodd" class="b" d="m2808.6 333.5h-0.3v-9.1q0.5 0 1.1-0.1 0.7-0.1 1.1 0 1.2 0 1.8 0.7 0.6 0.7 0.6 1.8 0 1.8-1.6 2.3 0.8 0.1 1.3 0.4 0.6 0.4 1.7 1.5 1.7 1.7 2.7 1.7 0.2 0 0.5-0.1v0.1q-0.4 0.5-1 0.5-0.6 0-1.4-0.5-0.6-0.5-2-1.8-1.6-1.7-3.1-1.7 1 0.3 2.6 2 1.1 1.1 1.8 1.7 0.7 0.5 1.3 0.5v0.1q-0.3 0.1-0.6 0.1-0.8 0-1.4-0.4-0.4-0.3-0.9-0.7-0.5-0.5-1.2-1.3-1-1.1-1.5-1.5-0.6-0.4-1.1-0.6v2.1q0 2.1 1.3 2.3v0.1q-1.1-0.1-1.7-0.1zm0.4-6.8v1.9q0.5 0.2 1.1 0.2 2 0 2-2.1 0-1.9-2-1.9-0.6 0-0.9 0.3-0.2 0.3-0.2 1.6zm-1.3-2.3v9.1h-0.4q-0.2 0-0.7 0.1-0.4 0-0.9 0v-0.1q0.5-0.1 0.9-0.6 0.4-0.5 0.4-1.9v-4.4q0-1.9-1.3-2.2v-0.1q0.5 0 2 0.1zm5.2 4.2q0.6-0.9 0.6-1.9 0-1-0.6-2 1.4 0.6 1.4 2 0.1 1.4-1.4 1.9z"/><path fill-rule="evenodd" class="b" d="m2825 331.4l-0.8-1.6h-3.2l-0.9 1.6q0 0 0 0.1 0 0-0.1 0.3-0.2 0.3-0.2 0.7 0 0.7 0.7 1v0.1q-0.1 0-0.5 0-0.5-0.1-0.9-0.1-0.4 0-1 0.1-0.3 0-0.4 0v-0.1q0.9-0.5 1.7-2.1l2.9-5.6q-0.4-0.6-0.9-1-0.6-0.4-1.4-0.4v-0.1h0.3q0.4 0 1.1 0 0.8 0.1 1 0.1l4.4 9.1q-0.9 0-2 0.1v-0.1q0.6-0.2 0.6-0.8 0-0.4-0.4-1.3zm-3.7-2.3h2.6l-1.3-2.6zm6.2 4.4l-4.3-9.1h0.8q0.2 0.4 0.5 1.1 0.3 0.7 0.4 0.8 0 0.1 0 0.2l2.1 4.2q1.1 2.2 2.3 2.7v0.2q-1.2-0.1-1.8-0.1z"/><path class="b" d="m2829.9 324.4h2.9v9.1h-0.3q-0.6 0-1.7 0.1v-0.1q0.7-0.2 1-0.8 0.3-0.5 0.3-1.8v-5.9h-2.2q-0.9 0-1.2 0.3-0.4 0.4-0.6 1.3h-0.2q0-0.1 0-0.2 0-0.2 0-0.4 0.1-1 0.1-1.7 0.5 0 1.2 0zm3.7 9.2h-0.2v-9.2h3.1q0.9 0 1.7-0.1 0 0.2 0 0.6-0.1 0.4 0 1 0 0.4-0.1 0.8h-0.2q0-0.7-0.4-1.2-0.3-0.5-1.4-0.5h-2v6.2q0 1.1 0.3 1.6 0.3 0.6 0.9 0.7v0.2q-1.5-0.1-1.7-0.1z"/><path class="b" d="m2841.2 324.4v9.1q-0.6 0-1.9 0.1v-0.1q0.7-0.2 1-0.8 0.2-0.6 0.2-2.1v-3.9q0-1.1-0.2-1.6-0.3-0.5-1-0.7v-0.1q1.1 0.1 1.9 0.1zm0.7 9.1v-9.1q1.1 0 1.9-0.1v0.1q-0.5 0.1-0.8 0.6-0.4 0.4-0.4 1.9v4.2q0 1.3 0.4 1.8 0.3 0.4 0.8 0.6v0.1q-0.8-0.1-1.9-0.1z"/><path fill-rule="evenodd" class="b" d="m2854.2 328.9q0 1.6-0.5 2.7-0.5 1.1-1.4 1.6-0.8 0.5-2 0.5-1.8 0-2.7-1.3-1-1.2-1-3.5 0-2.4 1-3.6 1-1.3 2.7-1.3 1.8 0 2.8 1.3 1.1 1.2 1.1 3.6zm-0.9 0q0.1-4.1-3-4.1-2.9 0-2.9 4.2 0 4 3 4 2.9 0 2.9-4.1zm-6.4-3.7q-1 1.5-1 3.8 0 2 0.9 3.6-1.7-1.2-1.7-3.7 0-2.6 1.8-3.7zm6.9 7.4q1-1.3 1-3.9 0-2.2-0.9-3.5 1.7 1.1 1.7 3.6 0 2.6-1.8 3.8z"/><path class="b" d="m2856.6 324.4l10 8.5v0.7h-0.1l-7.9-6.7v4q0 1.4 0.4 1.9 0.3 0.5 1 0.7v0.1q-1.3-0.1-1.8-0.1-0.5 0-1.6 0.1v-0.1q0.8-0.2 1.1-0.8 0.2-0.5 0.2-1.8v-4.6l-0.6-0.5q-1.3-1.1-2.2-1.4v-0.1zm10 7.6l-9-7.6h1l7.3 6.1v-3.6q0-0.9-0.1-1.3-0.1-0.5-0.5-0.8-0.4-0.3-1-0.4v-0.2q0.1 0 0.3 0.1 1.2 0 1.6 0.1 0.4 0 1.8-0.2v0.2q-0.5 0-0.8 0.4-0.4 0.3-0.5 0.7-0.1 0.4-0.1 1.2z"/><path class="b" d="m2879.8 326.9h-0.2q0-1-0.8-1.5-0.8-0.5-1.9-0.5-0.9 0-1.4 0.4-0.6 0.4-0.6 0.9 0 0.5 0.4 0.9 0.5 0.3 1.9 0.8 1.3 0.4 1.8 0.7 0.5 0.3 0.9 0.9 0.4 0.5 0.4 1.3 0 1-0.8 1.7 0.3-0.5 0.3-1.2 0-0.7-0.4-1.2-0.3-0.6-0.8-0.9-0.5-0.3-1.6-0.7-1.7-0.6-2.3-1-0.5-0.4-0.5-1.2 0-1 0.8-1.6 0.8-0.5 2.3-0.5 1 0 2.4 0.3v0.1 0.3q0 0.3 0 0.6 0.1 0.5 0.1 0.8 0 0.2 0 0.6zm-6.2 3.6h0.2q0.1 1.1 0.9 1.8 0.8 0.7 1.9 0.7 0.8 0 1.3-0.4 0.5-0.5 0.5-1.1 0-0.7-0.5-1.1-0.4-0.3-1.8-0.8-1.2-0.4-1.6-0.6-0.6-0.3-0.9-0.8-0.4-0.5-0.3-1.1 0-0.7 0.4-1.3-0.1 0.3-0.1 0.5 0 0.7 0.3 1.2 0.4 0.6 0.8 0.8 0.5 0.3 1.7 0.7 1.4 0.4 2.1 1 0.6 0.5 0.6 1.4 0 0.9-0.6 1.6-0.7 0.7-2 0.7-0.6 0-1.5-0.2-0.8-0.2-1.3-0.2 0-0.2 0-0.4 0-0.3-0.1-0.9 0-0.6 0-0.9 0-0.3 0-0.6z"/><path class="b" d="m2887.8 333.5v-4.6l-4.4-4.5h0.3q1 0 2.1-0.1v0.1q-0.5 0.2-0.5 0.5 0 0.4 1 1.5l1.9 2 1.7-2.1q0.6-0.6 0.6-1.2 0-0.5-0.6-0.7v-0.1q0.2-0.1 1 0 0.4 0.1 0.6 0.1 0.2 0 1.6-0.1v0.1q-0.7 0.2-1.1 0.5-0.4 0.4-0.9 1 0 0-0.1 0.1l-2.5 3v2.2q0 2 1.2 2.3v0.1q-1.6-0.1-1.6-0.1zm-5.2-9.1l4.5 4.7v4.4h-0.2q-0.8 0-1.8 0.1v-0.1q0.6-0.2 1-0.6 0.3-0.4 0.3-1.7v-1.9l-2.8-2.9q-1.6-1.6-2.8-2v-0.1q0.7 0.1 1.5 0.1z"/><path class="b" d="m2899.9 326.9h-0.2q0-1-0.8-1.5-0.8-0.5-1.9-0.5-0.9 0-1.4 0.4-0.6 0.4-0.6 0.9 0 0.5 0.4 0.9 0.5 0.3 1.9 0.8 1.3 0.4 1.8 0.7 0.5 0.3 0.9 0.9 0.4 0.5 0.4 1.3 0 1-0.8 1.7 0.3-0.5 0.3-1.2 0-0.7-0.4-1.2-0.3-0.6-0.8-0.9-0.5-0.3-1.6-0.7-1.7-0.6-2.3-1-0.5-0.4-0.5-1.2 0-1 0.8-1.6 0.8-0.5 2.3-0.5 1 0 2.4 0.3v0.1 0.3q0 0.3 0 0.6 0.1 0.5 0.1 0.8 0 0.2 0 0.6zm-6.2 3.6h0.2q0.1 1.1 0.9 1.8 0.8 0.7 1.9 0.7 0.8 0 1.3-0.4 0.5-0.5 0.5-1.1 0-0.7-0.5-1.1-0.4-0.3-1.8-0.8-1.2-0.4-1.6-0.6-0.6-0.3-0.9-0.8-0.4-0.5-0.3-1.1 0-0.7 0.4-1.3-0.1 0.3-0.1 0.5 0 0.7 0.3 1.2 0.4 0.6 0.8 0.8 0.5 0.3 1.7 0.7 1.4 0.4 2.1 1 0.6 0.5 0.6 1.4 0 0.9-0.6 1.6-0.7 0.7-2 0.7-0.6 0-1.5-0.2-0.8-0.2-1.3-0.2 0-0.2 0-0.4 0-0.3-0.1-0.9 0-0.6 0-0.9 0-0.3 0-0.6z"/><path class="b" d="m2903.1 324.4h2.9v9.1h-0.3q-0.5 0-1.6 0.1v-0.1q0.7-0.2 0.9-0.8 0.3-0.5 0.3-1.8v-5.9h-2.2q-0.9 0-1.2 0.3-0.3 0.4-0.6 1.3h-0.2q0-0.1 0-0.2 0-0.2 0-0.4 0.2-1 0.2-1.7 0.4 0 1.1 0zm3.7 9.2h-0.2v-9.2h3.1q0.9 0 1.7-0.1 0 0.2 0 0.6 0 0.4 0 1 0 0.4-0.1 0.8h-0.2q0-0.7-0.3-1.2-0.4-0.5-1.5-0.5h-2v6.2q0 1.1 0.3 1.6 0.3 0.6 1 0.7v0.2q-1.6-0.1-1.8-0.1z"/><path class="b" d="m2918.3 333.5h-3.4v-9.1h2.5q0.7 0 2.7-0.1-0.1 0.2 0 0.4 0 0.1 0 0.8 0 0.4 0 0.4v0.3h-0.1q-0.3-0.8-0.7-1-0.4-0.2-1.5-0.2h-1.4q-0.3 0-0.6 0-0.2 0.3-0.2 1.4v0.6 1.4h1.9q1 0 1.4-0.2 0.3-0.2 0.5-0.8h0.2q-0.1 0.7-0.1 1.3 0 0.4 0.1 1 0 0.1 0 0.6h-0.2q0-0.7-0.4-1-0.4-0.3-1.2-0.3h-2.2v1.9q0 1.1 0.1 1.9 0.4 0.1 0.8 0.1h1.3q1.1 0 1.6-0.3 0.6-0.2 1.1-1.1h0.2q-0.1 0.4-0.3 0.9-0.2 0.7-0.3 1.2-1-0.1-1.8-0.1zm-4.4-9.1h0.3v9.1h-0.5q-0.3 0-1.3 0.1v-0.1q0.4-0.2 0.7-0.5 0.2-0.3 0.3-0.7 0.1-0.5 0.1-2v-3.6q0-1.2-0.3-1.7-0.4-0.5-0.8-0.6v-0.1q0.5 0 1.5 0.1z"/><path class="b" d="m2923.8 324.4l3.9 8.4-0.4 0.8-3.6-7.6-0.2 5.1q0 0.8 0 0.7 0 1.5 1.2 1.7v0.1q0 0-0.3 0-0.9-0.1-1.3-0.1-0.4 0-1.5 0.1v-0.1q1.2-0.3 1.2-2.3l0.3-5.9q-0.5-0.7-1.5-0.9v-0.1q0.7 0 1.5 0zm8.8 9.2l-0.4-9.2h0.3q0.6 0 1.8-0.1v0.2q-0.6 0.1-0.9 0.5-0.4 0.5-0.4 1.1v1l0.2 4.1q0.1 1.1 0.4 1.7 0.3 0.5 0.9 0.6v0.2q-1.3-0.1-1.9-0.1zm-4.5-3.1l2.8-6.1h0.7l0.4 9.2h-0.4q-0.3 0-0.9 0l-0.6 0.1v-0.2q1.1-0.3 1.1-1.8 0 0-0.1-0.6l-0.2-5.1-2.8 6.1-3.5-7.7h0.7z"/><path class="b" d="m2941.9 326.9h-0.2q0-1-0.8-1.5-0.8-0.5-1.9-0.5-0.9 0-1.5 0.4-0.5 0.4-0.5 0.9 0 0.5 0.4 0.9 0.5 0.3 1.9 0.8 1.3 0.4 1.8 0.7 0.5 0.3 0.9 0.9 0.4 0.5 0.4 1.3 0 1-0.8 1.7 0.2-0.5 0.3-1.2 0-0.7-0.4-1.2-0.3-0.6-0.8-0.9-0.5-0.3-1.7-0.7-1.7-0.6-2.2-1-0.5-0.4-0.5-1.2 0-1 0.8-1.6 0.8-0.5 2.3-0.5 1 0 2.4 0.3v0.1 0.3q0 0.3 0 0.6 0.1 0.5 0.1 0.8 0 0.2 0 0.6zm-6.2 3.6h0.2q0.1 1.1 0.9 1.8 0.8 0.7 1.9 0.7 0.8 0 1.3-0.4 0.5-0.5 0.5-1.1 0-0.7-0.5-1.1-0.4-0.3-1.9-0.8-1.1-0.4-1.6-0.6-0.5-0.3-0.8-0.8-0.4-0.5-0.4-1.1 0-0.7 0.5-1.3-0.1 0.3-0.1 0.5 0 0.7 0.3 1.2 0.3 0.6 0.8 0.8 0.5 0.3 1.6 0.7 1.5 0.4 2.2 1 0.6 0.5 0.6 1.4 0 0.9-0.6 1.6-0.7 0.7-2 0.7-0.6 0-1.5-0.2-0.9-0.2-1.3-0.2 0-0.2 0-0.4 0-0.3-0.1-0.9 0-0.6 0-0.9 0-0.3 0-0.6z"/><path class="c" d="m2737.7 318.9h204.9"/><path fill-rule="evenodd" class="b" d="m2632.6 224.3c13.7-8.3 33.4-7.9 46.4 1.1 14.9 9.9 22.7 28.4 18.9 45.9-0.8 3-1.8 6.4-3.1 9.4-7.4 16.3-24.7 26.5-42.9 25.4-15.3-0.7-31.7-11.8-37.4-26.5-6.5-15.6-3.9-34 7.6-46.8 3.3-3.5 6.6-6.2 10.5-8.5zm-18.4 39.4c2.9 0.8 6.5 0 9.2-0.6 1.7-0.4 3.3-1.5 4.9-1.6 0 4.2 1.2 9.2 3 13-2.6 4.2-6.6 7-10.6 9.4 2.6 5.3 10.4 11.5 15.3 14.3 2.8-3.8 4.3-8.5 4.9-13.2 4 2.1 8.4 3.5 13 3.8 1.8 3.1 2.4 5.8 2.7 9.7 0.3 1.5-0.1 2.9 0.3 4.3 7-0.3 14-2.5 19.7-6.3q-1.9-4.6-5.9-8.1c-0.9-0.9-2.3-1.9-3.2-2.8 3.7-2.3 7.5-5.3 9.8-9.2 4.9 0 9.4 1.9 13.6 4.5 3.5-6.3 4.8-13.6 4.5-20.7l-1.8-0.1c-3.8 0.2-10.4 1.6-12.2 2.7-0.2-4.6-0.8-8.8-3-12.8 2.6-4.1 6.4-7.7 10.7-9.6-3.4-5.9-9.2-11.1-15.5-14.3-3 3.9-3.9 8.7-4.8 13.3l-0.2 0.1c-3.9-2.3-8.4-3.5-12.8-4-2.1-4.2-3-9.1-2.7-13.9-7.2 0.2-14.4 2.6-20 6.3 1.7 4.2 5.3 7.8 9.1 10.8-3.9 2.3-7.4 5.5-9.9 9.2-4.9 0-9.3-2.1-13.5-4.6-2.9 5.3-4.7 15.5-4.6 20.4z"/><path class="b" d="m2668.7 242.4c0.6 3.6 2 7 4 10.2 1.6-0.8 3.8-2.9 3.5-1.6-4.6 6-11.4 9.9-18.9 10.3 6.5-4.7 10-11.4 11.4-18.9z"/><path class="b" d="m2677.8 265.2c-3 2.2-5.4 4.9-7.4 8.1 1.4 1.1 4.3 2.1 3 2.4-7.5-1.5-14-5.9-17.6-12.5 7.1 3.8 14.7 4 22 2z"/><path class="b" d="m2663.7 283.3c-3.3-1.4-6.9-2-10.7-2.1-0.2 1.7 0.4 4.7-0.5 3.8-2.6-7.2-2.2-15 1.6-21.5 0.4 8 4.1 14.6 9.6 19.8z"/><path class="b" d="m2641.2 280.8c-0.6-3.6-1.9-7-3.7-10.3-1.6 0.7-3.9 2.8-3.6 1.5 4.8-5.9 11.8-9.6 19.3-9.7-6.6 4.5-10.4 11.1-12 18.5z"/><path class="b" d="m2631.4 259.5c2.8-2.3 5-5.2 6.9-8.4-1.5-1.1-4.4-2-3.1-2.3 7.5 1.1 14.2 5.1 18.2 11.6-7.3-3.5-14.8-3.3-22-0.9z"/><path class="b" d="m2646.3 240.2c3.3 1.6 6.8 2.3 10.6 2.6 0.3-1.8-0.2-4.8 0.7-3.8 2.3 7.2 1.6 15.1-2.5 21.4-0.1-8-3.5-14.8-8.8-20.2z"/><path class="d" d="m2655.9 302.4c1.7-1 3.1-2.3 4.3-3.9q1.2-1.9 3.2-2.7c1.8-0.6 3.4-0.1 4.9 1q0.4 0.4 0.8 0.9 1.4 0.2 2.8 0.3c0.8 0.3 0.8 0.8 0.1 1.1l-0.1 0.1q-1.2-0.1-2.4 0.2c-0.8 0.1-1.2 0.6-1.3 1.5-0.1 0.4 0 0.9 0.1 1.3 1.4 0.3 2.8 0.2 4.1-0.4 4-1.3 8-1.9 12.2-2.1q5.4 0 10.2 2.3 5.6 3.1 10.6 7.2c2.7 2.4 5.7 4.7 8.8 6.8 1.6 1.1 3.6 1.8 5.5 2.3q2.8 0.7 5.8 0.5c1.7 0.3 1.6 0.9 0.1 1.4-3.1 0.7-6.6 0.5-9.8 0q-7.2-1.4-13.1-5.7c-3.5-2.4-7.5-3.9-11.6-4.8-4.7-1.2-9.7-1.5-14.3 0.1-4.6 1.9-9 5.1-12.8 8.3-3.7 2.6-7.8 4-12.2 4.6-3.2 1.1-5.5 3.3-7.2 6.2-0.4 1.9-1.6 3.3-3.2 4.4-1.3 0.9-2.9 0.8-4.4 0.2-1.4-0.6-1.6-2.1-1.4-3.5v-0.1c0.9-1.4 2.1-2.3 3.7-2.5 1.8-1.1 3.2-2.9 4.2-4.8 0.9-2.6 0.1-4.9-1.8-6.8-5.8-6.2-12.7-10.3-21-12.2-5.6-1.6-11.1-1.2-16.6 0.9-3.4 2.5-7.5 4.4-11.5 5.9-2.8 1.3-5.8 2.2-8.9 2.7q-2.8 0.3-5.5-0.5c-0.7-0.1-1.2-0.5-1.5-1l-0.2-0.3h0.3c6.8-0.6 13.7-2.4 19.1-6.8 4.2-4.3 9.2-7.9 14.9-10.1 3.9-1.9 8.2-2.3 12.5-1.5 5.2 0.6 10.5 3.3 15 5.9 2.9 2 6.2 3.2 9.7 3.8 2.6 0.6 5.3 0.5 7.9-0.2z"/><path class="b" d="m2576.8 311.5q12.1-1.1 19.2-6.8 6.7-6.9 14.9-10.1 5.4-2.7 12.4-1.5 6.2 0.8 14.8 5.9 4.3 2.8 9.8 3.8 3.9 0.9 8.1-0.2 2.5-1.5 4.4-4 1.1-1.8 3.1-2.6 2.3-0.8 4.6 1 0.6 0.4 0.9 0.8 1.3 0.3 2.9 0.4 0.8 0.3 0 0.8-1.2-0.1-2.4 0.2-1.3 0.2-1.5 1.6-0.2 0.7 0.2 1.6 2.4 0.5 4.2-0.4c3.7-1.2 7.6-1.9 12.2-2.1q5.3 0 10.1 2.3 5.6 3 10.5 7.1 3.9 3.4 8.9 6.8 2 1.5 5.5 2.4 2.9 0.7 5.9 0.6 2 0.3 0.1 0.9-3.9 0.9-9.8 0-7.1-1.4-13-5.7-5-3.3-11.6-4.8-8.3-2.1-14.5 0.1-5.8 2.4-12.9 8.4-5.1 3.5-12.1 4.5-4.5 1.5-7.3 6.4-0.5 2.4-3.1 4.3-1.7 1.1-4.2 0.1-1.6-0.7-1.3-3.3 1.4-2.2 3.6-2.4 2.4-1.5 4.3-4.9 1.3-3.9-1.8-7.1-8.8-9.3-21.1-12.2-8.4-2.4-16.8 0.9-4.5 3.3-11.4 6-4.2 1.8-8.9 2.6-2.8 0.3-5.5-0.5-0.9-0.2-1.4-0.9z"/><path class="b" d="m415.1 241.9c0 3.4-2.3 5.9-5.4 5.8-3.3 0-5.7-2.5-5.7-6.1 0-3.1 2.5-5.6 5.7-5.6 3.1 0 5.4 2.5 5.4 5.9z"/><path class="b" d="m180.2 205.8c1.4 0.9 3.1 0.7 4.6 1.2 5 1.7 9.1 4.3 10.3 10 0.6 3.3-0.3 6.4-1.9 9.3-3.3 6.3-8.6 10.6-14.9 13.7-6.1 2.8-12.3 5.4-18.3 8.3-5.4 2.7-10.6 5.9-15 10.1-3.3 3.1-5.5 6.9-7.1 11.1-1.2 3.1-1.1 6.1 0.1 9.2 2.3 5.5 6.1 10 10 14.4 4.6 5.2 8.9 10.7 11.2 17.4 2.3 6.4 2.8 12.9 1.4 19.6-2.5 11.3-11.7 17.2-23.2 15-15.4-2.8-27.7-15.4-30.4-30.9-0.1-0.4 0-0.9-0.5-1v-5.4c0.5-0.1 0.4-0.6 0.5-1 0.7-4.6 2.6-8.7 5.3-12.5 2.7-3.7 5.4-7.3 8.1-11 1.4-1.9 2.6-3.9 3.9-5.8 4.9-7.3 5.2-15.2 3.2-23.4-1.7-6.5-1.3-12.7 1.7-18.8 7.4-15.2 19.7-23.8 35.7-27.9 2.2-0.6 4.6-0.4 6.8-1.6z"/><path fill-rule="evenodd" class="b" d="m366.2 283.7c0 6.8 0 12.2 0 17.6 0.1 1.2-0.2 1.7-1.5 1.6q-3.3-0.2-6.5 0c-1.4 0.1-1.7-0.4-1.6-1.7 0-1.1 0.5-2.6-0.3-3.1-1-0.5-1.4 1.2-2.3 1.6-3.5 1.7-6.7 3.9-11 3.9-6 0.1-10.3-4.6-10.8-10.1-0.4-3.1-0.4-6.4 0.9-9.4 1.7-4.2 5.1-6.5 9.2-7.9 4-1.3 8.2-2 12.5-2 1.2 0 1.8-0.3 1.5-1.6-0.1-0.7-0.1-1.5-0.1-2.3-0.2-4.7-2.6-6.6-7.3-6.1q-5.5 0.7-10.4 3.3c-1.4 0.7-2.1 0.8-2.8-1-1.9-4.9-2-4.9 2.8-6.8 6.2-2.5 12.5-3.9 19.2-2.4 4.8 1.1 7.8 4.6 8.2 9.4 0.5 6.1 0.2 12.2 0.3 17zm-10 1.5c0-1-0.1-2.1 0.1-3.1 0.1-1.3-0.5-1.6-1.6-1.5-2.5 0.2-4.8 0.7-7.1 1.5-4.1 1.6-6.2 4.6-5.8 8.8 0.3 2.7 2.4 4.7 5.1 4.3 3.4-0.6 6.1-2.6 8.6-4.9 1.4-1.4 0.3-3.3 0.7-4.9q0-0.1 0-0.2z"/><path fill-rule="evenodd" class="b" d="m461 280.2c0.1 5-0.9 9.7-3.3 14-4 7.3-11.4 10.5-19.7 9.4-8-1-13.3-7.2-14.8-13.8-2.1-9.2-1.7-18 4.1-25.9 5.6-7.7 18.7-9.4 25.9-3.4 5.5 4.5 7.3 10.7 7.8 17.5 0.1 0.7 0 1.5 0 2.2zm-9.8 1.3c0-6.9-0.8-9.7-3-13.1-1.9-3-4.5-4.3-8-3.8-3.1 0.4-5.1 2.4-6.1 5.1-2.7 6.8-2.9 13.8-0.4 20.8 1.3 3.5 4.1 5.6 7.6 5.7 3.1 0.1 5.8-1.5 7.5-4.6 1.9-3.5 2.3-7.1 2.4-10.1z"/><path class="b" d="m475.4 264c4.3-3.5 8.3-6.3 13.3-6.9 2.6-0.3 5.1-0.4 7.5 1.1 2.6 1.6 3.5 4.3 3.7 7.1 0.8 7.8 0.4 15.7 0.5 23.6 0 4.1 0 8.2 0.1 12.3 0 1.3-0.3 1.8-1.7 1.7-2.2-0.1-4.4-0.1-6.5 0-1.3 0.1-1.6-0.3-1.6-1.6q0.1-13.9 0-27.9c0-1.4-0.1-2.9-0.4-4.3-0.5-2.4-2.1-3.5-4.6-3-2.6 0.4-4.7 2.2-6.9 3.6-2.8 1.8-3.3 4.3-3.2 7.5 0.2 8 0.1 16 0.2 24 0 1.3-0.3 1.8-1.7 1.7-2.2-0.1-4.4 0-6.7 0-0.9 0-1.4-0.1-1.4-1.3q0-21.3 0-42.5c0-1 0.2-1.3 1.3-1.2 2.2 0.2 4.6 0.1 6.9 0.1 0.9 0 1.3 0.2 1.2 1.3 0 1.4 0 2.8 0 4.7z"/><path fill-rule="evenodd" class="b" d="m270.7 303.7c-7.4 0.2-12.8-2.7-16.1-8.8-2.6-4.7-3.3-10.1-3-15.4 0.3-6.2 1.9-11.8 6-16.6 7.3-8.4 24.9-9.3 30.7 5.2 3.7 9.3 3.4 18.8-1.9 27.5-3.6 6-9.3 8.4-15.7 8.1zm10-24.3c-0.2-2.7-0.4-6.8-2.5-10.5-1.6-2.7-3.8-4.5-7-4.5-3.2 0-5.7 1.6-7.3 4.4-1.2 2.3-1.9 4.7-2.1 7.2-0.4 5.3-0.5 10.6 2.1 15.5 3.2 6 10.6 6 13.9 0.7 2.2-3.6 2.7-7.4 2.9-12.8z"/><path class="b" d="m221.7 263.9c2.5-1.8 4.6-3.6 7.1-4.8q3.5-1.8 7.4-2.1c5.5-0.5 9.2 2.7 9.9 8.6q0.5 3.4 0.5 6.9-0.1 14.4 0 28.8c0 1.2-0.2 1.7-1.5 1.6q-3.3-0.2-6.6 0c-1.4 0.1-1.7-0.3-1.7-1.8 0.1-9.5 0-19 0-28.6 0-1.2 0-2.4-0.3-3.6-0.7-2.5-2.1-3.5-4.5-2.9-4 0.9-7 3.4-9.9 6.2-0.6 0.6-0.4 1.4-0.4 2.1 0 8.9 0 17.8 0.1 26.7 0 1.6-0.5 2-1.9 1.9-2.1-0.1-4.1-0.1-6.2 0-1 0-1.5-0.2-1.5-1.4q0-21.1 0-42.2c0-1 0.2-1.3 1.2-1.3q3.6 0.1 7.2 0c0.8 0 1.1 0.3 1.1 1.2-0.1 1.5 0 2.9 0 4.7z"/><path class="b" d="m290.6 258c3.3 0 6.4 0 9.6-0.1 1.2 0 1.2 1 1.4 1.7 2.7 8.5 5.3 17 8 25.4 0.6 1.8 0.8 3.8 2 5.6 3-10.4 6-20.6 8.9-30.9 0.4-1.4 1-1.9 2.4-1.8q2.9 0.2 5.9 0.1c1.5-0.1 2 0.1 1.4 1.8-3 8.9-5.7 17.8-8.6 26.6-1.7 5.1-3.5 10.2-5.1 15.3-0.3 0.9-0.7 1.2-1.6 1.2-2.7 0-5.4-0.1-8.1 0-0.9 0-1.2-0.4-1.5-1q-7.3-21.6-14.5-43.2c-0.1-0.2-0.1-0.4-0.2-0.7z"/><path class="b" d="m378.1 280.3c0-4.7-0.1-9.3 0-14 0.1-1.4-0.3-1.9-1.6-1.7q-0.1 0.1-0.2 0c-5.5 0-5.4 0-5.2-5.5 0.1-1.1 0.4-1.3 1.3-1.2 1.4 0.1 2.7-0.1 4.1 0.1 1.4 0.1 1.7-0.5 1.6-1.7-0.1-3 0.1-5.9 0-8.9-0.1-1.2 0.2-1.8 1.6-1.8q3.3 0.2 6.5 0c1.3 0 1.6 0.5 1.6 1.7-0.1 2.9 0 5.9-0.1 8.8-0.1 1.5 0.4 1.8 1.8 1.8 2.9-0.2 5.8-0.1 8.7-0.1 1.1-0.1 1.5 0.3 1.4 1.4-0.1 1.1-0.1 2.2 0 3.3 0.4 2.1-0.7 2.5-2.4 2.4-2.7-0.1-5.4-0.1-8.1-0.2-1.1-0.1-1.4 0.2-1.4 1.3 0.1 8.4 0 16.7 0.1 25.1 0 0.8 0 1.7 0.3 2.4 0.5 1.5 1.3 2.3 3.2 1.7 2-0.7 3.6-2 5.3-3.2 0.9-0.6 1.5-0.8 2 0.4 0.2 0.4 0.4 0.7 0.6 1.1 2.4 3.6 2.3 3.6-1.1 6-3.1 2.2-6.4 3.7-10.2 4.3-4.6 0.8-8.5-1.7-9.4-6.3-0.5-2.7-0.4-5.3-0.4-8q0-4.6 0-9.2z"/><path class="b" d="m404.8 284.8c-0.3-6.1 0.3-12.2-0.2-18.3-0.1-2.5 0.2-5 0.2-7.5 0-0.8 0.2-1.1 1-1.1 2.5 0 4.9-0.1 7.3-0.2 1.3-0.1 1.6 0.3 1.6 1.6q-0.2 16.8-0.3 33.6c0 2.8 0.1 5.5 0.2 8.3 0 1.2-0.2 1.8-1.7 1.7-2.3-0.1-4.6 0-6.9 0-0.7 0-1.3 0-1.2-1 0-5.7 0-11.4 0-17.1z"/><path class="b" d="m545.8 281.2c4.7 0 9.1 0 13.5-0.1 1.5 0 1.8 0.4 1.2 1.9-1.6 4.3-1.5 4.4-6.1 4.4q-6.2 0-12.4 0c-3.4-0.1-4.6-1.6-3.4-4.9 2.2-6.3 4.5-12.7 6.9-19 0.9-2.6 2.9-4.3 5.8-4.4 5.3 0 10.7 0.1 16 0.1 1.5 0 1.7 0.4 1.2 1.7-1.6 4.5-1.5 4.5-6.2 4.5-3.2 0-6.4 0-9.6-0.1-1.1 0-1.5 0.5-1.9 1.4-0.5 1.3-0.4 1.9 1.2 1.9 3.9-0.1 7.7 0 11.6-0.1 1.5 0 2.2 0.1 1.5 2-1.5 4.3-1.4 4.3-6.1 4.3-3.2 0-6.4 0.1-9.5 0-1.2 0-1.8 0.4-2.1 1.5-0.5 1.5-1 3.1-1.6 4.9z"/><path class="b" d="m597.6 268.7c3.4 0 6.5-0.1 9.6 0 1 0 1.5-0.3 1.8-1.3 0.7-2.2 1.6-4.3 2.3-6.5 0.4-1.2 1-1.7 2.3-1.7 4.8 0 4.9 0 3.2 4.6-2.6 7.3-5.3 14.6-7.8 21.9-0.5 1.3-1 1.7-2.4 1.7-4.7 0-4.7 0-3.2-4.4 0.8-2.2 1.4-4.3 2.3-6.4 0.6-1.4 0.6-1.9-1.1-1.8-2.6 0.1-5.2 0.1-7.7 0-1.2-0.1-1.7 0.3-2.1 1.4-1 3.2-2.3 6.3-3.3 9.5-0.4 1.2-1 1.7-2.3 1.7-5.1 0-5 0.1-3.3-4.6 2.7-7.2 5.3-14.3 7.8-21.6 0.5-1.5 1.2-2.1 2.8-2 4.4 0.1 4.5 0 3 4.2-0.6 1.7-1.2 3.3-1.9 5.3z"/><path class="b" d="m583.1 259.2c2.7 0 5.4 0 8.1 0 1.2 0 1.6 0.1 1.1 1.5-1.6 4.7-1.6 4.7-6.5 4.7-3.1 0-6.2 0-9.4 0-0.9-0.1-1.4 0.1-1.8 1.1q-2.3 6.7-4.8 13.3c-0.5 1.3 0.1 1.4 1.1 1.4 4-0.1 8.1 0 12.2-0.1 1.3 0 1.8 0.2 1.3 1.7-1.6 4.5-1.6 4.6-6.2 4.6q-6.4 0.1-12.8 0c-2.9-0.1-4.1-1.7-3.2-4.5 2.3-6.6 4.6-13.2 7.1-19.7 1-2.6 3.1-4 6.1-4 2.5 0 5.1 0 7.7 0z"/><path class="b" d="m533.2 259.2c3.6 0 7.2 0 10.8 0 1 0 1.4 0.3 0.9 1.3q0 0.1-0.1 0.2c-1.5 4.7-1.5 4.7-6.5 4.7-3.5 0-3.5 0-4.7 3.4-2.1 5.7-4.2 11.5-6.2 17.3-0.4 1.1-1 1.6-2.1 1.3-0.2 0-0.4 0-0.6 0-1.3-0.3-3.2 0.8-3.9-0.4-0.6-1 0.6-2.6 1-3.8 1.9-5.3 3.8-10.6 5.7-15.8 0.7-1.8 0.2-2.2-1.4-2.1-1.7 0.2-3.4 0-5.1 0.1-1.7 0.1-1.7-0.6-1.3-1.9 1.5-4.3 1.5-4.3 6-4.3q3.7 0 7.5 0z"/><path class="b" d="m232.4 323.6c0-5.3 3.4-10.7 8.6-10.7 1.9 0 3.2 1.1 4.1 2.5l-1.4 1.1c-0.7-1.1-1.6-1.9-2.8-1.9-4 0-6.5 4.7-6.5 8.8 0 3 1.2 5.2 4.2 5.2 1.4 0 2.5-0.5 3.5-1.5l1 1.3c-1.3 1.1-2.8 2-4.8 2-3.8 0-5.9-2.8-5.9-6.8z"/><path fill-rule="evenodd" class="b" d="m247 325.4c0-4.8 3.3-8.1 6.7-8.1 2.6 0 4.4 1.9 4.4 5 0 4.7-3.3 8.1-6.7 8.1-2.7 0-4.4-1.9-4.4-5zm9.1-3c0-2.3-0.9-3.5-2.6-3.5-2.3 0-4.5 2.9-4.5 6.3 0 2.3 0.9 3.5 2.6 3.5 2.3 0 4.5-2.8 4.5-6.3z"/><path class="b" d="m263.5 317.6h1.6l-0.2 1.9h0.1c1.3-1.3 2.8-2.2 4.1-2.2 1.9 0 2.6 1.1 2.8 2.4 1.6-1.5 3.1-2.4 4.4-2.4 2 0 2.9 1.2 2.9 3.1 0 0.6-0.1 1-0.2 1.7l-1.6 8h-1.9l1.5-7.7c0.1-0.7 0.2-1.1 0.2-1.5 0-1.3-0.6-1.9-1.8-1.9-0.7 0-2 0.7-3.5 2.2l-1.7 8.9h-2l1.6-7.7c0.1-0.7 0.2-1.1 0.2-1.5 0-1.3-0.6-1.9-1.8-1.9-0.7 0-2 0.7-3.5 2.2l-1.7 8.9h-2z"/><path fill-rule="evenodd" class="b" d="m284.1 331.2l-0.7 4.1h-2l3.5-17.7h1.6l-0.1 1.6h0.1c1.2-1 2.7-1.9 4.2-1.9 2.2 0 3.6 1.6 3.6 4.5 0 4.8-3.3 8.6-6.7 8.6-1.3 0-2.3-0.8-2.9-1.8h-0.1zm2.1-10.3l-1.2 6c0.7 1.2 1.5 1.7 2.5 1.7 2.5 0 4.7-3.1 4.7-6.6 0-2.1-0.8-3.1-2.2-3.1-1.2 0-2.7 0.7-3.8 2z"/><path fill-rule="evenodd" class="b" d="m297.4 325.4c0-4.8 3.3-8.1 6.7-8.1 2.6 0 4.4 1.9 4.4 5 0 4.7-3.3 8.1-6.7 8.1-2.7 0-4.4-1.9-4.4-5zm9.1-3c0-2.3-0.9-3.5-2.6-3.5-2.3 0-4.5 2.9-4.5 6.3 0 2.3 0.9 3.5 2.6 3.5 2.3 0 4.5-2.8 4.5-6.3z"/><path class="b" d="m310.6 328l1.2-1c0.7 1.1 1.8 1.8 3.1 1.8 1.5 0 2.7-0.9 2.7-2 0-0.9-0.6-1.5-2.3-2.4-1.9-1-2.8-2-2.8-3.4 0-2.2 1.9-3.7 4.2-3.7 1.5 0 2.7 0.7 3.6 1.6l-1.1 1.1c-0.6-0.6-1.4-1.2-2.5-1.2-1.4 0-2.4 0.9-2.4 2 0 1 1.1 1.5 2.2 2.2 2.2 1.2 2.9 2.2 2.9 3.5 0 2.3-2 3.9-4.6 3.9-1.7 0-3.4-1.1-4.2-2.4z"/><path class="b" d="m325.7 313.8c0-0.8 0.6-1.5 1.4-1.5 0.7 0 1.3 0.5 1.3 1.2 0 0.9-0.7 1.5-1.5 1.5-0.7 0-1.2-0.4-1.2-1.2zm-0.4 3.8h1.9l-2.5 12.5h-1.9z"/><path class="b" d="m330.9 327.6c0-0.5 0.1-0.9 0.2-1.4l1.4-7h-1.8l0.3-1.5 1.9-0.1 0.9-3.5h1.7l-0.7 3.5h3.1l-0.3 1.6h-3.2l-1.4 7.1q-0.1 0.5-0.1 0.9c0 1.1 0.4 1.6 1.6 1.6 0.5 0 0.9-0.2 1.3-0.4l0.4 1.4c-0.6 0.3-1.4 0.6-2.3 0.6-2.2 0-3-1.3-3-2.8z"/><path fill-rule="evenodd" class="b" d="m345.8 317.3c2.8 0 3.9 1.9 3.9 4.5 0 1-0.3 2-0.5 2.4h-8c-0.5 3.2 1.2 4.6 3.3 4.6 1 0 2-0.5 2.8-1.1l0.8 1.3c-1 0.8-2.4 1.4-4 1.4-2.9 0-4.9-1.9-4.9-5.3 0-4.6 3.4-7.8 6.6-7.8zm2.1 5.6q0.1-0.6 0.1-1.3c0-1.4-0.6-2.7-2.4-2.7-1.8 0-3.6 1.5-4.2 4z"/><path class="b" d="m364.9 314.9h-4.9l0.4-1.7h11.6l-0.3 1.7h-4.9l-2.9 15.2h-2z"/><path fill-rule="evenodd" class="b" d="m377.3 317.3c2.7 0 3.8 1.9 3.8 4.5 0 1-0.3 2-0.5 2.4h-8c-0.4 3.2 1.2 4.6 3.4 4.6 0.9 0 2-0.5 2.8-1.1l0.7 1.3c-1 0.8-2.4 1.4-4 1.4-2.9 0-4.8-1.9-4.8-5.3 0-4.6 3.4-7.8 6.6-7.8zm2 5.6q0.1-0.6 0.1-1.3c0-1.4-0.6-2.7-2.4-2.7-1.8 0-3.5 1.5-4.2 4z"/><path class="b" d="m384 325.4c0-4.7 3.3-8.1 6.9-8.1 1.5 0 2.5 0.6 3.2 1.5l-1.1 1.2c-0.7-0.7-1.2-1.1-2.2-1.1-2.5 0-4.8 2.9-4.8 6.3 0 2.3 1 3.5 3 3.5 1 0 1.9-0.5 2.7-1.1l0.8 1.3c-0.9 0.7-2.1 1.5-3.9 1.5-2.7 0-4.6-1.9-4.6-5z"/><path class="b" d="m399.7 311.8h1.9l-1.2 6-0.4 1.6h0.1c1.4-1.2 2.8-2.1 4.3-2.1 2 0 2.9 1.2 2.9 3.1 0 0.6-0.1 1-0.2 1.7l-1.6 8h-1.9l1.5-7.7c0.1-0.7 0.2-1.1 0.2-1.5 0-1.3-0.6-1.9-1.8-1.9-1 0-2.2 0.7-3.7 2.2l-1.8 8.9h-1.9z"/><path class="b" d="m412.9 317.6h1.6l-0.2 1.9h0.1c1.4-1.3 2.8-2.2 4.3-2.2 2.1 0 2.9 1.2 2.9 3.1 0 0.6 0 1-0.2 1.7l-1.6 8h-1.9l1.5-7.7c0.2-0.7 0.2-1.1 0.2-1.5 0-1.3-0.5-1.9-1.8-1.9-1 0-2.2 0.7-3.7 2.2l-1.8 8.9h-1.9z"/><path fill-rule="evenodd" class="b" d="m425.1 325.4c0-4.8 3.3-8.1 6.6-8.1 2.7 0 4.5 1.9 4.5 5 0 4.7-3.3 8.1-6.7 8.1-2.7 0-4.4-1.9-4.4-5zm9.1-3c0-2.3-0.9-3.5-2.7-3.5-2.2 0-4.5 2.9-4.5 6.3 0 2.3 1 3.5 2.7 3.5 2.3 0 4.5-2.8 4.5-6.3z"/><path class="b" d="m439.4 328.7q0.1-0.4 0.2-1l3.1-15.9h2l-3.2 16c0 0.2 0 0.4 0 0.5q0 0.4 0.4 0.4c0.1 0 0.2 0 0.4 0v1.5c-0.3 0.1-0.7 0.2-1.2 0.2-1.1 0-1.7-0.6-1.7-1.7z"/><path fill-rule="evenodd" class="b" d="m446.8 325.4c0-4.8 3.2-8.1 6.6-8.1 2.7 0 4.4 1.9 4.4 5 0 4.7-3.3 8.1-6.6 8.1-2.7 0-4.4-1.9-4.4-5zm9.1-3c0-2.3-1-3.5-2.7-3.5-2.3 0-4.5 2.9-4.5 6.3 0 2.3 1 3.5 2.7 3.5 2.2 0 4.5-2.8 4.5-6.3z"/><path fill-rule="evenodd" class="b" d="m459.9 334.1l1-1.4c0.9 0.8 2.1 1.5 3.4 1.5 2.2 0 3.4-1.4 3.9-3.7l0.7-2.7c-1.3 1.3-2.7 2.1-4.3 2.1-2.1 0-3.6-1.5-3.6-4.4 0-4.5 3.2-8.2 6.5-8.2 1.3 0 2.4 0.7 3 1.9h0.1l0.5-1.6h1.6l-2.6 13c-0.7 3.4-2.7 5.2-5.8 5.2-1.7 0-3.2-0.7-4.4-1.7zm9.1-8l1.1-5.3c-0.7-1.3-1.6-1.9-2.5-1.9-2.4 0-4.6 3.1-4.6 6.3 0 2.1 0.8 3.1 2.2 3.1 1.2 0 2.6-0.8 3.8-2.2z"/><path class="b" d="m473.1 335.1l0.6-1.5q0.4 0.2 0.9 0.2c1.2 0 2.4-1.1 3.2-2.8l0.5-0.9-2.1-12.5h1.9l1 7c0.1 1.1 0.3 2.5 0.4 3.7h0.1c0.6-1.2 1.2-2.5 1.8-3.7l3.6-7h1.9l-7.3 13.5c-1.3 2.4-2.8 4.3-5.1 4.3-0.4 0-1-0.1-1.4-0.3z"/><path class="b" d="m815.9 294.9l1.9 0.4-6.7 21.3h-60.6v-2.2h3q4.9 0 7.1-3.2 1.2-1.9 1.2-8.5v-50.5q0-7.4-1.7-9.2-2.2-2.5-6.7-2.5h-2.9v-2.2h35.5v2.2q-6.3-0.1-8.8 1.1-2.5 1.2-3.4 3.1c-0.6 1.2-0.9 4.1-0.9 8.8v49.2q-0.1 4.7 0.9 6.5c0.5 0.8 1.2 1.4 2.1 1.8q1.5 0.6 9.1 0.6h5.7q9 0 12.6-1.3c2.4-0.9 4.6-2.5 6.6-4.8q3-3.3 6-10.6z"/><path fill-rule="evenodd" class="b" d="m833.3 282.1q-0.1 11.7 5.7 18.4c3.8 4.5 8.3 6.7 13.5 6.7q5.2 0 9-2.9 3.9-2.8 6.4-9.7l1.8 1.2c-0.8 5.2-3.1 10-7 14.3q-5.7 6.5-14.5 6.5c-6.3 0-11.8-2.5-16.3-7.4q-6.7-7.4-6.7-19.9 0-13.5 6.9-21.1 6.9-7.5 17.4-7.5 8.9 0 14.5 5.8c3.8 3.9 5.7 9.1 5.7 15.6h-36.4zm0-3.3h24.4c-0.2-3.4-0.6-5.8-1.2-7.1-1-2.2-2.4-3.9-4.3-5.1q-2.8-1.9-6-1.8-4.7 0-8.5 3.6c-2.5 2.5-4 6-4.4 10.4z"/><path class="b" d="m956.2 234.7l1.9 26.7h-1.9c-2.4-8-5.7-13.7-10.2-17.2-4.4-3.5-9.7-5.2-15.9-5.2q-7.8 0-14.1 3.9-6.3 3.9-9.9 12.6-3.6 8.7-3.6 21.5 0 10.7 3.4 18.5c2.3 5.1 5.7 9.1 10.3 11.9 4.6 2.7 9.7 4.1 15.6 4.1 5.1 0 9.6-1 13.5-3.2 3.8-2.2 8.1-6.5 12.8-13l1.8 1.2q-5.9 10.4-13.8 15.3-7.8 4.8-18.6 4.8-19.5 0-30.2-14.4c-5.3-7.2-7.9-15.6-7.9-25.3q0-11.7 5.2-21.5 5.3-9.8 14.5-15.2 9.2-5.4 20.1-5.4 8.5 0 16.7 4.2 2.5 1.2 3.5 1.2 1.6 0 2.7-1.1 1.5-1.5 2.2-4.3h1.9z"/><path fill-rule="evenodd" class="b" d="m990.6 260.6q11.9 0 19.2 9.1c4.1 5.2 6.2 11.2 6.2 17.9q0 7.1-3.4 14.3c-2.3 4.9-5.4 8.5-9.4 11q-6 3.7-13.3 3.7-11.9 0-18.9-9.5-5.9-8-5.9-18 0-7.3 3.6-14.4c2.4-4.8 5.5-8.4 9.5-10.6 3.8-2.3 8-3.5 12.4-3.5zm-1.9 3.8q-3 0-6.1 1.8c-2.1 1.2-3.7 3.3-5 6.3-1.2 3.1-1.9 6.9-1.9 11.7q0.1 11.5 4.6 19.9 4.6 8.4 12.1 8.4c3.7 0 6.8-1.6 9.2-4.6 2.4-3.1 3.7-8.4 3.7-15.9q0-14-6.1-22.1-4.1-5.5-10.5-5.5z"/><path class="b" d="m1017.6 263.4h14.2l31.9 39.2v-30.1q0-4.9-1.1-6-1.4-1.6-4.5-1.7h-1.8v-1.4h18.2v1.4h-1.8c-2.3 0-3.8 0.7-4.7 2.1q-0.9 1.2-0.9 5.6v44h-1.4l-34.5-42.1v32.2q0 4.9 1.1 6 1.5 1.6 4.5 1.7h1.8v1.4h-18.2v-1.4h1.8q3.4-0.1 4.8-2.1 0.8-1.2 0.8-5.6v-36.3c-1.5-1.8-2.6-3-3.4-3.5q-1.2-0.9-3.5-1.6c-0.7-0.2-1.8-0.4-3.3-0.4z"/><path class="b" d="m1121.2 263.4l0.6 12.5h-1.5c-0.3-2.2-0.7-3.8-1.1-4.7q-1.3-2.3-3.2-3.4c-1.4-0.7-3.2-1-5.4-1h-7.4v40.5c0 3.3 0.3 5.4 1 6.1 1 1.2 2.6 1.7 4.6 1.7h1.9v1.4h-22.6v-1.4h1.9q3.4 0 4.8-2c0.5-0.9 0.8-2.8 0.8-5.8v-40.5h-6.4q-3.7 0-5.2 0.5-2.1 0.8-3.5 2.9-1.5 2.1-1.7 5.7h-1.5l0.6-12.4h43.3z"/><path class="b" d="m1205 290c0.6 10.5-23.2 26.6-23.2 26.6h-40.3c0 0 21.3-17.1 21.1-26.6 0.2-9.5-21.1-26.6-21.1-26.6h40.3c0 0 23.7 16.1 23.2 26.6z"/><path class="b" d="m1256.7 290c0.6 10.5-23.2 26.6-23.2 26.6h-40.3c0 0 21.3-17.1 21.1-26.6 0.2-9.5-21.1-26.6-21.1-26.6h40.3c0 0 23.8 16.1 23.2 26.6z"/><path fill-rule="evenodd" class="b" d="m1879.8 269.9c-0.3 14.7-7.3 26.8-21.3 32.3-5.4 2.1-11.1 2.5-16.8 1.9-4.5-0.4-8.8-1.5-12.8-3.7-8.2-4.3-13.2-11-14.8-20.1-1.1-6.5-0.9-13 1.7-19.2 3.6-8.7 9.9-14.9 18.7-18.2 9.1-3.4 18.3-3.5 27.3 0.2 9.6 4 15.4 11.3 17.4 21.5 0.3 2.1 0.4 4.1 0.6 5.3zm-50.1 3c0.3 1.8 0.4 3.6 0.9 5.2 2.9 9.7 13.5 13.1 21.5 10.1 7-2.6 11.2-9.4 10.9-17.3-0.1-5.5-2.2-10-6.8-13.1-3.5-2.5-7.6-2.9-11.7-2.4-3.4 0.4-6.4 1.6-9 4-3.9 3.6-5.5 8.2-5.8 13.5z"/><path class="b" d="m1725.5 268.3h29.6c0.1 9.3-1.4 18.2-7.3 25.7-4.1 5.2-9.6 8.4-16 9.7-8.2 1.7-16.2 1.3-23.7-2.7-7.9-4.3-12.6-11.2-14.1-20-1.8-10.8 0.4-20.7 7.2-29.4 4.8-6 11.1-9.6 18.6-10.9 7.4-1.3 14.7-0.6 21.5 3 4.9 2.6 8.9 6.2 11.6 11.2 0.4 0.9 0.9 1.8 1.4 2.7-5 2.1-10 4.1-15 6.2-0.1-0.4-0.3-0.7-0.4-1-1.6-4.3-4.7-6.9-9.1-7.8-4.6-1-8.9-0.5-12.8 2.4-2.7 2-4.4 4.7-5.5 7.8-1.9 5.3-2.4 10.7-0.8 16.1 1.6 5.5 6.3 9.2 11.9 9.5 3.5 0.2 6.8-0.3 9.8-2.1 2.9-1.8 4.5-4.4 5.7-7.6h-14.2c0.6-4.3 1.1-8.5 1.6-12.8z"/><path fill-rule="evenodd" class="b" d="m1767.1 242.5c0.3 0 0.6 0 0.8 0 8 0 16 0 23.9 0.1 4.2 0.1 8.2 1.1 11.5 3.8 3.9 3.2 5.6 7.5 5.9 12.4 0.3 5.2-0.7 10.1-3.7 14.4-1.8 2.6-4.3 4.5-7.2 5.8-0.7 0.3-1.5 0.6-2.4 1 4.6 7.6 9.3 15.2 14 22.9h-1.9c-5.2 0-10.4 0-15.6 0.1-0.8 0-1.2-0.3-1.6-1q-5.9-11-11.8-22c-0.2-0.4-0.4-0.7-0.6-1.1-1 8-2 16-3 24h-16.3c2.7-20.1 5.3-40.2 8-60.4zm14.5 12.5q-0.9 7.1-1.9 14.4c2 0 3.9 0 5.8 0 5.6-0.1 8.2-4.3 7.6-9.2-0.4-3-2.4-4.9-5.3-5.2-2-0.1-4 0-6.2 0z"/><path class="b" d="m1942.9 242.6q-1 7.9-1.9 15.7c-0.8 6.7-1.6 13.4-2.6 20.1-0.4 3.4-0.9 6.8-1.9 10.1-1.7 6.3-6 10.6-11.9 13.1-5.6 2.3-11.5 2.7-17.4 2.1-4.7-0.5-9.1-1.8-13-4.5-5.4-3.8-8.6-9-8.5-15.7 0-4.3 0.6-8.7 1.1-13 0.9-7.5 1.9-14.9 2.9-22.4q0.4-2.7 0.7-5.6h16.3q-0.6 4.4-1.1 8.7c-1.1 7.8-2.1 15.7-3.1 23.6-0.3 1.9-0.5 3.9-0.4 5.9 0 4 2.2 6.7 6.1 7.6 2.8 0.7 5.6 0.6 8.3-0.4 2.8-1 4.5-3.3 5.1-6.2 0.7-3.2 1.1-6.4 1.5-9.5 1-7.7 2-15.3 3-22.9q0.4-3 0.7-5.9c0.1-0.5 0.1-0.9 0.8-0.9q7.5 0 15 0c0.1 0 0.1 0 0.3 0.1z"/><path fill-rule="evenodd" class="b" d="m1551.6 302.9c-0.9-3.1-1.8-6.1-2.6-9.2-0.3-1-0.8-1.3-1.8-1.3q-8.8 0.1-17.6 0c-0.8 0-1.2 0.3-1.5 1.1q-2 4.3-4 8.6c-0.2 0.4-0.6 0.8-0.9 0.8-5.7 0.1-11.5 0-17.3 0 0.2-0.4 0.3-0.8 0.5-1.1q14.2-29.2 28.5-58.4c0.3-0.6 0.6-1 1.3-1q8 0.1 16 0.1c0.7 0 1 0.1 1.2 0.8q7.5 29.6 15.1 59.2c0 0.1 0 0.2 0 0.4zm-5.9-23c-1.1-7.4-2.2-14.6-3.3-22.1-2.7 7.5-5.3 14.8-7.9 22.1z"/><path fill-rule="evenodd" class="b" d="m1628.3 302.9c0.2-2.2 0.5-4.3 0.8-6.4q1.3-10.5 2.7-21.1 1.3-10.4 2.7-20.9c0.5-3.6 1-7.2 1.4-10.9 0.1-0.9 0.3-1.2 1.3-1.2 8.1 0.1 16.2 0 24.3 0.1 3.8 0 7.5 0.5 10.7 2.7 3.9 2.5 6.1 6 7 10.4 1.1 6 0.5 11.8-2.2 17.3-2.8 5.7-7.4 9.1-13.6 9.7-4.9 0.5-9.8 0.4-14.7 0.5-0.5 0-0.9 0-1.5 0-0.9 6.6-1.8 13.2-2.7 19.8zm22.6-47.6c-0.7 5-1.4 9.9-2 14.8 2.9 0 5.7 0.1 8.5-0.1 1.1 0 2.2-0.6 3.2-1.2 2.6-1.8 3.2-4.6 3.2-7.6-0.1-3.4-1.9-5.6-5.2-5.9-2.5-0.2-5.1 0-7.7 0z"/><path fill-rule="evenodd" class="b" d="m1954.3 242.5h1.2c8 0 16.1-0.1 24.1 0 3.8 0 7.6 0.5 10.9 2.7 4.1 2.8 6.3 6.7 7 11.5 0.7 4.7 0.3 9.3-1.3 13.8-2.5 7.1-7.4 11.4-14.8 12.1-4.9 0.5-9.8 0.4-14.7 0.5-0.4 0-0.8 0-1.3 0-0.9 6.6-1.8 13.2-2.6 19.8h-16.3c2.6-20.1 5.2-40.2 7.8-60.4zm14.6 12.8c-0.6 4.9-1.3 9.9-1.9 14.8 2.9 0 5.8 0 8.7-0.1 0.6 0 1.2-0.2 1.7-0.5 3.1-1.3 4.9-4.9 4.5-8.8-0.3-3.1-1.9-5-5-5.3-2.6-0.3-5.3-0.1-8-0.1z"/><path fill-rule="evenodd" class="b" d="m1592.5 283.1c-0.9 6.6-1.8 13.2-2.7 19.8h-16.2c2.6-20.1 5.1-40.2 7.7-60.4h1.3c8.1 0 16.1-0.1 24.1 0 2.9 0 5.9 0.2 8.6 1.5 5.1 2.2 8 6.3 9.1 11.7 1.1 5.9 0.5 11.7-2.2 17.2-2.8 5.8-7.4 9.1-13.6 9.7-4.8 0.5-9.6 0.4-14.4 0.5-0.6 0-1.1 0-1.7 0zm1.6-13c3 0 5.8 0 8.7-0.1 1-0.1 2-0.5 2.8-1.1 3-2.2 3.6-5.4 3.2-8.9-0.3-2.5-1.9-4.2-4.4-4.5-2.6-0.3-5.3-0.3-7.9-0.3-0.2 0-0.6 0.5-0.7 0.8-0.6 4.7-1.1 9.4-1.7 14.1z"/><path fill-rule="evenodd" class="b" d="m1420.4 300.3c-14.5 0-26.4-12-26.4-26.7-0.1-14.7 11.8-26.7 26.4-26.7 14.6 0 26.3 11.8 26.5 26.7 0.1 14.5-11.9 26.7-26.5 26.7zm8.2-7.3c4 0 7.3-3.3 7.3-7.4 0.1-4.2-3.3-7.6-7.5-7.6-4 0-7.2 3.4-7.3 7.5-0.1 4 3.3 7.4 7.5 7.5zm-16.8-14.9c-4.2 0-7.5 3.3-7.5 7.3 0 4.1 3.4 7.6 7.3 7.6 4.2 0.1 7.6-3.4 7.5-7.5 0-4.2-3.3-7.5-7.3-7.4zm-5.3-1.3c4.1 0.1 7.4-3.2 7.4-7.3 0.1-4.2-3.2-7.5-7.4-7.5-4-0.1-7.4 3.2-7.4 7.2 0 4.3 3.2 7.6 7.4 7.6zm27.2-14.8c-4.2 0-7.4 3.3-7.4 7.5 0 4.1 3.4 7.4 7.6 7.4 4.1-0.1 7.3-3.5 7.2-7.8-0.1-3.9-3.4-7.2-7.4-7.1zm-13.3 4.6c4.1 0 7.4-3.3 7.4-7.5 0-4.1-3.3-7.4-7.4-7.4-4.1 0-7.4 3.3-7.4 7.5 0 4.1 3.3 7.4 7.4 7.4z"/><path class="b" d="m1490.3 242.5c-2 15.4-4 30.6-6 45.9h18.6c-0.3 2-0.5 3.9-0.8 5.8-0.3 2.7-0.7 5.3-1 7.9-0.1 0.6-0.3 0.9-0.9 0.9q-16.8-0.1-33.6-0.1c-0.1 0-0.2 0-0.5 0q0.4-3.2 0.8-6.3 1.3-10.2 2.7-20.4 1.5-11.1 2.9-22.1c0.5-3.5 1-7 1.4-10.5 0.1-0.8 0.3-1.2 1.2-1.2 4.7 0.1 9.5 0.1 14.2 0.1h1z"/><path class="b" d="m1390.9 302.9h-1.3v-60.4h61.6v60.4h-1.2v-59.1h-59.1z"/><path fill-rule="evenodd" class="b" d="m1391 305.9v4.6h3v0.8h-4.4v-5.4zm7.6 0l2.3 5.4h-1.3l-0.4-1.1h-2.4l-0.4 1.1h-1.4l2.3-5.4zm-0.6 1.2l-0.9 2.2h1.8zm6-1.3c1 0 1.5 0 2 0.2 0.7 0.2 1.2 0.9 1.2 1.6 0 0.8-0.5 1.3-1.3 1.5-0.4 0.1-0.8 0.1-1.7 0.1h-0.4v2.1h-1.3v-5.5zm0.2 2.6c0.7 0 0.9 0 1.1-0.1 0.4-0.1 0.6-0.4 0.6-0.7 0-0.3-0.2-0.6-0.5-0.7-0.2-0.1-0.5-0.1-1.2-0.1h-0.4v1.6zm6.1-2.6c1 0 1.4 0 1.9 0.2 0.9 0.2 1.3 0.9 1.3 1.6 0 0.8-0.5 1.3-1.4 1.5-0.4 0.1-0.8 0.1-1.7 0.1h-0.4v2.1h-1.3v-5.5zm0.1 2.6c0.7 0 0.9 0 1.2-0.1 0.3-0.1 0.5-0.4 0.5-0.7 0-0.3-0.2-0.6-0.4-0.7-0.3-0.1-0.6-0.1-1.2-0.1h-0.5v1.6zm13 0.1v2.2c-0.8 0.4-1.6 0.7-2.5 0.7-1.9 0-3.1-1.1-3.1-2.8 0-1.7 1.2-2.9 3-2.9 0.9 0 1.6 0.3 2.1 0.7 0.3 0.4 0.4 0.7 0.4 1.2h-1.1c-0.1-0.6-0.6-0.9-1.3-0.9-1.1 0-1.7 0.7-1.7 1.9 0 1.2 0.6 1.8 1.7 1.8 0.5 0 1-0.1 1.4-0.3v-0.9h-1.3v-0.7zm3.6-2.7c1.2 0 1.7 0.1 2.2 0.3 0.6 0.2 0.9 0.8 0.9 1.4q0 1-1.2 1.5l1.6 2.3h-1.5l-1.4-2.1h-0.9v2.1h-1.4v-5.5zm0.1 2.5c0.8 0 1 0 1.2-0.1 0.4-0.1 0.6-0.3 0.6-0.7 0-0.2-0.2-0.5-0.4-0.6-0.3-0.1-0.5-0.1-1.5-0.1h-0.3v1.5zm10.6 0.3c0 0.9-0.4 1.6-1.1 2.1-0.5 0.4-1.3 0.7-2.1 0.7-1.8 0-3-1.2-3-2.9 0-0.8 0.3-1.6 0.9-2.2q0.9-0.6 2.1-0.6c1.9 0 3.2 1.2 3.2 2.9zm-4.9-0.1c0 1.2 0.6 2 1.7 2 1.1 0 1.7-0.8 1.7-1.9 0-1.2-0.6-1.9-1.7-1.9-1 0-1.7 0.7-1.7 1.8zm7.8-2.7v3.2c0 0.5 0 0.7 0.1 0.9 0.2 0.3 0.6 0.5 1.2 0.5 0.8 0 1.2-0.2 1.4-0.7v-3.9h1.3v3.2c0 0.7 0 1-0.2 1.3-0.4 0.7-1.3 1.1-2.5 1.1-1.1 0-2-0.4-2.4-1.1-0.2-0.3-0.2-0.6-0.2-1.3v-3.2zm7.8 0c1 0 1.4 0 1.9 0.2 0.8 0.2 1.2 0.9 1.2 1.6 0 0.8-0.5 1.3-1.3 1.5-0.4 0.1-0.8 0.1-1.7 0.1h-0.4v2.1h-1.4v-5.5zm0.1 2.6c0.7 0 0.9 0 1.3-0.1 0.3-0.1 0.5-0.4 0.5-0.7 0-0.3-0.2-0.6-0.5-0.7-0.2-0.1-0.6-0.1-1.2-0.1h-0.5v1.6z"/><path class="b" d="m2183.3 226.5h-21.2l-31.8 78.4h21.3z"/><path class="b" d="m2188.2 229l-10.7 26.3 20.1 49.6h22.6z"/><path class="b" d="m2258.6 249.1q-5.7 0-10.3 2.3-4.5 2.4-7.4 6.8v-7.8h-16.1v54.5h16.6v-30.5q0-5.5 3.1-8.9 3.1-3.3 8.3-3.3 4.3 0 6.3 2.6 2 2.5 2 8.1v32h16.6v-32.8q0-11.6-4.7-17.3-4.7-5.7-14.4-5.7z"/><path class="b" d="m2317.5 272.9l-9.1-2.1q-3.3-0.9-4.7-1.9-1.3-1-1.3-2.8 0-2.4 2.2-3.8 2.2-1.3 6.1-1.3 8.3 0 16.9 6l4.4-11.1q-4.4-3.2-9.9-5-5.5-1.8-11.3-1.8-6.8 0-12.2 2.2-5.3 2.2-8.2 6.1-2.9 3.9-2.9 9 0 6.5 3.7 10.2 3.6 3.7 11.4 5.5l8.8 2q4.1 0.9 5.6 2 1.5 1.1 1.5 3.1 0 2.2-2.2 3.5-2.1 1.3-6 1.3-5.3 0-10.6-1.7-5.3-1.7-9.7-4.7l-4.4 11.6q4.5 3.2 10.7 4.9 6.2 1.7 13.7 1.7 10.9 0 17.1-4.5 6.2-4.5 6.2-12.3 0-6.6-3.8-10.4-3.8-3.9-12-5.7z"/><path class="b" d="m2440 278.6q-3.7-3.8-12-5.7l-9.1-2.1q-3.3-0.9-4.6-1.9-1.3-1-1.3-2.8 0-2.4 2.2-3.8 2.2-1.3 6-1.3 8.3 0 16.9 6l4.4-11.1q-4.4-3.2-9.9-5-5.5-1.8-11.3-1.8-6.8 0-12.1 2.2-5.4 2.2-8.3 6.1-2.9 3.9-2.9 9 0 6.5 3.7 10.2 3.7 3.7 11.5 5.5l8.8 2q4 0.9 5.5 2 1.5 1.1 1.5 3.1 0 2.2-2.1 3.5-2.2 1.3-6 1.3-5.4 0-10.7-1.7-5.3-1.7-9.7-4.7l-4.4 11.6q4.5 3.2 10.8 4.9 6.2 1.7 13.6 1.7 10.9 0 17.1-4.5 6.2-4.5 6.2-12.3 0-6.6-3.8-10.4z"/><path class="b" d="m2379.1 250.5l-13 32-13-32h-16l21 51.8-9.2 22.6h16l30.2-74.4z"/><path fill-rule="evenodd" class="b" d="m3490 245.8v12q-9.2-3.5-16.4-3.5-4.2 0-6.8 1.5-2.6 1.6-2.6 3.8 0 3 5.8 5.4l11.2 5.5c9 4.4 13.5 10.1 13.5 17.4q0 9-7.2 14.4c-4.7 3.6-11.1 5.4-19.1 5.4q-5.5 0-9.9-0.5c-3-0.3-6.4-1-10.1-1.9v-12.6q10.3 3.5 18.7 3.5 10.1 0 10.1-5.9 0-3-4.1-4.8l-12.4-5.4q-6.9-3.1-10.3-7.6-3.3-4.5-3.3-10.5 0.1-8.3 6.9-13.4 7-5.1 18.4-5.1c2.4 0 5.3 0.3 8.5 0.7q4.7 0.6 9.1 1.6z"/><path fill-rule="evenodd" class="b" d="m3138.6 245.8v12q-9.2-3.5-16.4-3.5-4.3 0-6.8 1.5-2.6 1.6-2.6 3.8 0 3 5.8 5.4l11.2 5.5q13.5 6.5 13.5 17.4 0 9-7.2 14.4c-4.8 3.6-11.2 5.4-19.2 5.4q-5.5 0-9.9-0.5-4.4-0.5-10-1.9v-12.6q10.3 3.5 18.7 3.5 10.1 0 10.1-5.9 0-3-4.2-4.8l-12.4-5.4q-6.9-3.1-10.2-7.6c-2.2-3-3.3-6.5-3.3-10.5q0-8.3 6.9-13.4c4.6-3.4 10.7-5.1 18.3-5.1 2.5 0 5.3 0.3 8.5 0.7q4.8 0.6 9.2 1.6z"/><path class="b" d="m3169.6 244.7h-18.2v61.9h18.2z"/><path fill-rule="evenodd" class="b" d="m3228.8 306.6h-45.1v-61.9h44.5v11.4h-27v13.7h23.4v10.3h-23.4v14.4h27.6z"/><path fill-rule="evenodd" class="b" d="m3238.8 306.6v-61.9h22.2l15.2 37.9 15.9-37.9h21.1v61.9h-17v-40.9l-17.6 41.4h-10.5l-17-41.4v40.9z"/><path fill-rule="evenodd" class="b" d="m3372.3 306.6h-45.1v-61.9h44.6v11.4h-26.9v13.7h23.4v10.3h-23.4v14.4h27.4z"/><path fill-rule="evenodd" class="b" d="m3435.6 306.6h-19.3l-21.6-39.7v39.7h-12.3v-61.9h19.8l21.1 39v-39h12.3z"/><path class="b" d="m532.4 532.3h42.9l8.9-10.2h-42.8z"/><path fill-rule="evenodd" class="b" d="m748.1 515.9c0.1 9.5-5.6 19.2-18.7 19.2h-14.6v-37.7h14.6c12.8 0 18.5 9.2 18.7 18.5zm-26.3 12.3h7.6c8.5 0 11.8-6.2 11.7-12.3-0.2-5.9-3.6-11.8-11.7-11.8h-7.6z"/><path fill-rule="evenodd" class="b" d="m779.1 528h-19.4l-3.2 7.1h-7.6l16.7-37.7h7.6l16.7 37.7h-7.6zm-9.8-22.7l-6.9 16h13.9z"/><path class="b" d="m807.2 535.2h-7.3l-15.4-37.8h7.8l11.3 29.3 11.2-29.3h7.9z"/><path class="b" d="m858.6 529.8c-3.7 3.8-8.7 5.7-13.6 5.7-12.5 0-19.1-8.9-19.1-19-0.1-10.1 6.3-19.5 19.1-19.5 4.9 0 9.9 1.9 13.6 5.6l-2 1.8c-3.2-3.3-7.4-4.8-11.6-4.8-10.8 0-16.4 7.7-16.4 16.8 0.1 8.8 5.7 16.4 16.4 16.4 4.2 0 8.5-1.6 11.7-4.8z"/><path fill-rule="evenodd" class="b" d="m901.3 516.3c-0.1 9.9-6.3 19.4-18.8 19.4-12.5 0-18.8-9.6-18.8-19.5 0-10.1 6.2-19.4 18.8-19.4 12.5 0 18.8 9.3 18.8 19.5zm-34.8-0.1c0.1 8.5 5.4 16.8 16 16.8 10.6 0 16-8.3 16-16.8 0-8.7-5.3-16.7-16-16.7-10.7 0-16 7.9-16 16.7z"/><path class="b" d="m908.1 497.4h2.8v37.7h-2.8z"/><path class="b" d="m919.1 497.4v37.7h23.9v-2.8h-21v-34.9z"/><path class="b" d="m719.4 551.3c-0.7-1.1-1.7-1.2-2.8-1.2-1 0-2.7 0.4-2.7 1.8 0 1.2 1.2 1.5 2.8 1.7 1.7 0.4 3.5 0.7 3.5 2.7 0 2-2 2.5-3.6 2.5-1.4 0-3-0.5-3.7-1.9l0.6-0.4c0.6 1.2 2 1.7 3.1 1.7 1.2 0 2.9-0.3 2.9-1.9 0-1.4-1.5-1.7-3-2-1.6-0.3-3.3-0.7-3.3-2.4 0-1.9 2-2.5 3.4-2.5 1.3 0 2.5 0.2 3.4 1.6z"/><path class="b" d="m733 557.4c-0.9 0.9-2.2 1.4-3.3 1.4-3.1 0-4.7-2.2-4.7-4.6 0-2.5 1.5-4.8 4.7-4.8 1.1 0 2.4 0.5 3.3 1.4l-0.5 0.4c-0.8-0.8-1.8-1.1-2.8-1.1-2.7 0-4 1.8-4 4 0 2.2 1.3 4 4 4 1 0 2-0.3 2.8-1.1z"/><path fill-rule="evenodd" class="b" d="m745.2 558.7l-1-2.3h-5.4l-1 2.3h-0.8l4.1-9.2h0.8l4 9.2zm-1.3-2.9l-2.4-5.6-2.4 5.6z"/><path class="b" d="m758.6 550.6l-3.5 5.3h-0.2l-3.5-5.3v8.1h-0.7v-9.2h0.8l3.5 5.4 3.5-5.4h0.8v9.2h-0.7z"/><path fill-rule="evenodd" class="b" d="m771.8 552c0 1-0.6 1.7-1.5 2 1.1 0.3 1.8 1.2 1.8 2.3 0 1.9-1.7 2.4-3.3 2.4h-3.7v-9.2h3.7c1.5 0 3 0.8 3 2.5zm-6 1.7h3.1c1.1 0 2.2-0.4 2.2-1.7 0-1.3-1.2-1.9-2.3-1.9h-3zm0 4.4h3c1.1 0 2.6-0.3 2.6-1.8 0-1.4-1.3-1.9-2.5-1.9h-3.1z"/><path class="b" d="m777.5 549.5h0.7v9.2h-0.7z"/><path fill-rule="evenodd" class="b" d="m791.2 558.7l-1-2.3h-5.4l-1 2.3h-0.7l4-9.2h0.8l4.1 9.2zm-1.3-2.9l-2.5-5.6-2.4 5.6z"/><path class="b" d="m798 550.2h-3.3v-0.6h7.2v0.6h-3.2v8.5h-0.7z"/><path fill-rule="evenodd" class="b" d="m815.8 554.1c0 2.4-1.5 4.8-4.6 4.8-3 0-4.6-2.4-4.6-4.8 0-2.5 1.6-4.7 4.6-4.7 3.1 0 4.6 2.3 4.6 4.7zm-8.5 0c0 2.1 1.3 4.1 3.9 4.1 2.6 0 3.9-2 3.9-4.1 0-2.1-1.3-4.1-3.9-4.1-2.6 0-3.9 2-3.9 4.1z"/><path fill-rule="evenodd" class="b" d="m828.5 558.7h-1l-3.1-3.5h-2.5v3.5h-0.7v-9.2h4c2 0 3 1.5 3 2.9 0 1.5-1 2.8-2.9 2.8zm-6.6-4.1h3.2c1.6 0 2.3-0.9 2.3-2.2 0-1.1-0.7-2.2-2.2-2.2h-3.3z"/><path class="b" d="m833.4 549.5h0.7v9.2h-0.7z"/><path fill-rule="evenodd" class="b" d="m854.8 554c0 2.3-1.4 4.7-4.6 4.7h-3.1v-9.2h3.1c3 0 4.5 2.3 4.6 4.5zm-7-3.8v7.8h2.4c2.7 0 3.9-2 3.9-4-0.1-1.9-1.3-3.8-3.9-3.8z"/><path class="b" d="m860.3 549.5h0.7v9.2h-0.7z"/><path class="b" d="m881.5 557.4c-0.9 0.9-2.1 1.4-3.3 1.4-3 0-4.6-2.2-4.6-4.6-0.1-2.5 1.5-4.8 4.6-4.8 1.2 0 2.4 0.5 3.3 1.4l-0.4 0.4c-0.8-0.8-1.8-1.1-2.9-1.1-2.6 0-4 1.8-4 4 0.1 2.2 1.4 4 4 4 1.1 0 2.1-0.3 2.9-1.1z"/><path fill-rule="evenodd" class="b" d="m893.8 558.7l-1-2.3h-5.5l-0.9 2.3h-0.8l4.1-9.2h0.7l4.1 9.2zm-1.3-2.9l-2.4-5.6-2.4 5.6z"/><path class="b" d="m900.3 549.5v8.5h5.1v0.7h-5.8v-9.2z"/><path fill-rule="evenodd" class="b" d="m918.9 554.1c0 2.4-1.5 4.8-4.5 4.8-3.1 0-4.6-2.4-4.6-4.8 0-2.5 1.5-4.7 4.6-4.7 3 0 4.6 2.3 4.5 4.7zm-8.4 0c0 2.1 1.3 4.1 3.9 4.1 2.6 0 3.9-2 3.9-4.1 0-2.1-1.3-4.1-3.9-4.1-2.6 0-3.9 2-3.9 4.1z"/><path fill-rule="evenodd" class="b" d="m931.6 558.7h-0.9l-3.2-3.5h-2.4v3.5h-0.7v-9.2h4c1.9 0 2.9 1.5 2.9 2.9 0.1 1.5-0.9 2.8-2.9 2.8zm-6.5-4.1h3.2c1.6 0 2.3-0.9 2.3-2.2 0-1.1-0.7-2.2-2.2-2.2h-3.3z"/><path class="b" d="m936.5 549.5v9.2h6.4v-0.7h-5.7v-3.6h5.3v-0.6h-5.3v-3.6h5.6v-0.7z"/><path class="b" d="m619.7 574.5c0 0 79.2-2 79.2-49.1 0-47.3-79.2-45.1-79.2-45.1v15c0 0 58-0.1 58 30.1 0 30.1-58 33.5-58 33.5z"/><path class="b" d="m537.1 546.2l-8.2 12.7h-21.7v15.6h99.5v-15.6h-56.6l8-12.7z"/><path class="b" d="m507.2 480.3v15h62.9l-9.4 14.5h20.4l9.2-14.5h16.4v-15z"/><path fill-rule="evenodd" class="b" d="m1693.3 554.7l-9.6 16.6c-1 1.8-3 2.6-5 2.1-11.8-2.9-24.2-4.5-37-4.5-12.7 0-25.1 1.6-37 4.5-1.9 0.5-4-0.3-5-2.1l-9.6-16.6c-1-1.8-0.7-4 0.7-5.5 17.1-18 29.9-40.1 37-64.8 0.6-1.9 2.3-3.3 4.3-3.3h19.2c2 0 3.8 1.4 4.3 3.3 7.1 24.7 20 46.8 37 64.8 1.4 1.5 1.7 3.7 0.7 5.5zm-21.2 7.7l-21.3-66.1c-0.1-0.4-0.6-0.6-0.9-0.2l-46.1 51.7c-0.3 0.3-0.1 0.8 0.3 0.9l67.4 14.5c0.4 0.1 0.7-0.3 0.6-0.8z"/><path fill-rule="evenodd" class="b" d="m1757.6 496.5l26.7 61.7h-12.8l-5.9-14.4h-26.8l-6.1 14.4h-12.4l26.7-61.7zm3.4 36.4l-8.9-21-8.9 21z"/><path class="b" d="m1805.4 497h-12v61.2h43v-11.2h-31z"/><path fill-rule="evenodd" class="b" d="m1917.9 496.5l26.6 61.7h-12.7l-6-14.4h-26.8l-6.1 14.4h-12.4l26.7-61.7zm3.4 36.4l-8.9-21-8.9 21z"/><path class="b" d="m1954.5 497h12v61.2h-12z"/><path fill-rule="evenodd" class="b" d="m2035.9 558.2h-14.3l-14.4-20.8h-11.8v20.8h-12v-61.2h27.1c14 0 22.7 7.5 22.7 19.7 0 9-4.9 15.7-13.5 18.5zm-40.5-31.6h14.4c7 0 11.3-3.6 11.3-9.3 0-5.8-4-9.1-11.4-9.1h-14.3z"/><path class="b" d="m1832.8 497v11.6h18.6v49.6h12.3v-49.6h18.6v-11.6z"/><path class="b" d="m2364.5 472.6h-149.5q0 0 0 0c-11.3 0-21 6.8-25.3 16.5l-29.5 71q-0.1 0.3-0.1 0.6c0 0.9 0.7 1.6 1.5 1.6h67.6c4.7 0 6.8-4.6 3.1-8.3l-24.8-23.2c-13-12.8-7.4-42.4 19.6-42.4h132.2c0.7 0 1.3-0.5 1.5-1.1l5.2-12.6q0.1-0.3 0.1-0.6c0-0.8-0.7-1.5-1.6-1.5z"/><path class="b" d="m2349.6 508.8h-25.3c-1.7 0-3.2 1-3.8 2.5l-28.5 68.7q-0.1 0.3-0.1 0.7c0 0.9 0.7 1.6 1.5 1.6h9.5c11.5 0 21.4-7 25.6-16.9q0 0 0 0l22.6-54.5q0.1-0.3 0.1-0.6c0-0.9-0.7-1.5-1.6-1.5z"/><path class="b" d="m2299.8 510.3c0-0.9-0.7-1.5-1.6-1.5h-72c-3.9 0-7.3 4.8-3.1 8.6l23.7 22.1c0 0 9.7 8.9 7.6 21.6-1.8 11.1-9.5 18-15 20.4-0.1 0.1-0.2 0.2-0.2 0.4 0 0.2 0.2 0.4 0.4 0.4h27.7c1.7 0 3.2-1.1 3.8-2.5l28.6-68.9q0.1-0.3 0.1-0.6z"/><path fill-rule="evenodd" class="b" d="m2439.5 546h2.1v15.5h-2.1v-2.5c-1.9 2.6-4.8 2.9-5.9 2.9-4.7 0-8.4-3.6-8.4-8.2 0-4 3.1-8.1 8.4-8.1 1.1 0 4 0.3 5.9 2.9zm0.1 7.7c0-3.4-2.7-6.1-6-6.1-3.1 0-6.2 2.1-6.2 6.2 0 3.5 2.6 6.1 6.2 6.1 3.3 0 6-2.7 6-6.2z"/><path class="b" d="m2457.3 554.2c0 2.7-0.7 3.7-1.5 4.5q-1.2 1.2-3.2 1.2-2.2 0-3.5-1.4c-0.7-0.9-1-2.2-1-3.9v-8.6h-2.2v8.6q0 3.3 1.4 5c0.7 0.8 2.3 2.3 5.3 2.3 3 0 4.4-1.7 4.8-2.5v2.1h2.1v-15.5h-2.2z"/><path fill-rule="evenodd" class="b" d="m2475.9 546h2.2v13c0 1.7 0 3.8-1.4 5.7-2 2.7-5.8 2.8-6.2 2.8-1.5 0-6.4-0.4-7.9-5.7l-0.1-0.1h2.3l0.1 0.1c0.4 1.1 1.9 3.7 5.6 3.7 2.5 0 5.4-1.4 5.4-5.6v-1c-1.2 2.2-3.9 3-5.8 3-3.9 0-8.1-3.1-8.1-8.1 0-5.1 4.2-8.2 8.1-8.2 1.1 0 3.9 0.3 5.8 3zm0.1 7.7c0-3.4-2.6-6.2-5.9-6.2-3.3 0-6 2.8-6 6.2 0 3.4 2.7 6.1 6 6.1 4 0 5.9-3.6 5.9-6.1z"/><path class="b" d="m2497.9 545.6c-1.3 0-3.9 0.6-5.1 2.8-1.2-2.2-3.8-2.8-5.2-2.8-1.4 0-3.1 0.6-4 1.9v-1.5h-2.2v15.5h2.2v-8.9c0-1.6 0.3-2.4 0.7-3.2 0.7-1.1 1.9-1.8 3.3-1.8 1.5 0 2.7 0.7 3.4 1.8 0.4 0.8 0.7 1.6 0.7 3.2v8.9h2.2v-8.9c0-1.6 0.2-2.4 0.7-3.2 0.6-1.1 1.8-1.8 3.3-1.8 1.5 0 2.7 0.7 3.4 1.8 0.4 0.8 0.7 1.6 0.7 3.2v8.9h2.2v-9.2c0-5.3-4-6.7-6.3-6.7z"/><path fill-rule="evenodd" class="b" d="m2521.7 549.6q1.3 2.1 1.2 4.9v0.1h-13.9c0.2 2.8 2.9 5.3 5.8 5.3 3-0.1 4.8-1.9 5.4-3.5v-0.1h2.3l-0.1 0.1c-1.1 3.3-4.2 5.5-7.6 5.5-4.4 0-8.1-3.7-8.1-8.1 0-4.4 3.6-8.1 8.1-8.2 3.4 0 5.8 2.1 6.9 4zm-1 3c-0.7-3.4-3.5-5-5.9-5-2.5 0-5.2 1.7-5.8 5z"/><path class="b" d="m2532.7 545.6c-2.3 0-3.9 1.1-4.7 2.2v-1.8h-2.2v15.5h2.2v-8.5c0-1.8 0.5-3.2 1.4-4.1 1.2-1.2 2.8-1.3 3.3-1.3 0.4 0 2 0.1 3.2 1.3 0.9 0.9 1.4 2.3 1.4 4.1v8.5h2.2v-8.5c0-2.3-0.7-4.2-1.9-5.5-1.3-1.3-2.9-1.9-4.9-1.9z"/><path class="b" d="m2547.3 540.6h-2.2v5.4h-3.2v2h3.2v13.5h2.2v-13.5h3.7v-2h-3.7z"/><path fill-rule="evenodd" class="b" d="m2567.2 549.6q1.3 2.1 1.2 4.9v0.1h-13.9c0.2 2.8 2.9 5.3 5.8 5.3 3-0.1 4.8-1.9 5.4-3.5v-0.1h2.3l-0.1 0.1c-1.1 3.3-4.2 5.5-7.6 5.5-4.4 0-8.1-3.7-8.1-8.1 0-4.4 3.6-8.1 8.1-8.2 3.4 0 5.8 2.1 6.9 4zm-1 3c-0.7-3.4-3.5-5-5.9-5-2.5 0-5.2 1.7-5.8 5z"/><path fill-rule="evenodd" class="b" d="m2587 540.6v20.9h-2.2v-2.5c-1.5 2.1-4 2.9-5.9 2.9-4.7 0-8.3-3.6-8.3-8.2 0-4 3.1-8.1 8.3-8.1 0.9 0 3.9 0.2 5.9 2.9v-7.9zm-2.1 13.2c0-3.4-2.7-6.2-6-6.2-3 0-6.1 2.1-6.1 6.2 0 3.5 2.6 6.1 6.1 6.1 3.4 0 6-2.7 6-6.1z"/><path class="b" d="m2377.9 540.1h2.1v3.1h-2.1z"/><path class="b" d="m2370.8 540.6h-4.5v2h2.5v17h-2.7v1.9h7.2v-1.9h-2.5z"/><path class="b" d="m2380.5 546h-4.5v2h2.4v11.6h-2.5v1.9h7v-1.9h-2.4z"/><path class="b" d="m2389 541.6c-1.3 1.2-1.4 2.6-1.4 4.3v0.1h-2.5v2h2.5v11.6h-2.5v1.9h7.1v-1.9h-2.5v-11.6h2.5v-2h-2.5v-0.3c0-1.1 0-2.1 1-2.8q0.7-0.6 1.9-0.7h0.2v-1.9h-0.2c-1.6 0.1-2.7 0.5-3.6 1.3z"/><path fill-rule="evenodd" class="b" d="m2410.9 554v0.7h-13.7c0.2 2.9 2.7 5.3 5.7 5.3 2.2 0 4.1-1.1 5.1-2.9l0.1-0.1h2.2l-0.1 0.2c-1.2 2.8-4.1 4.7-7.2 4.7-4.4 0-7.9-3.6-7.9-7.9 0-4.4 3.5-8 7.8-8 4.5 0 8 3.5 8 8zm-2.1-1.1c-0.4-2.9-2.9-4.9-5.9-4.9-2.8 0-5.3 2.2-5.7 4.9z"/><path class="b" d="m2417.9 561.9c1.5 0 2.7-1.2 2.7-2.6 0-1.5-1.2-2.7-2.7-2.7-1.4 0-2.6 1.2-2.6 2.7 0 1.4 1.2 2.6 2.6 2.6z"/><path fill-rule="evenodd" class="b" d="m2937.2 505.7l-10 40.5q-1.9 7.3 4.5 7.2 6.6 0.1 8.4-7.2l10.1-40.5h22.6l-15.2 61.3h-22.5l1.8-7.4h-0.3q-6.8 8.9-19.2 8.9-7.8 0.1-12-3.4c-2.9-2.3-3.7-6.7-2.2-13.1l11.4-46.3zm-32.8 0l-15.3 61.3h-22.5l15.2-61.3zm130.9 0.6q3.4 2.4 4.2 7.2 4.2-5.2 9.6-7.4 5.2-2.1 10.5-2.1 8 0 12.5 3.3 4.2 3.8 2 13.4l-8.7 35c-1.6 6.5-8.3 11.2-15.4 11.2h-10l10-40.4q2-7.3-4.5-7.2-6.7-0.1-8.6 7.2l-10.1 40.4h-22.5l10-40.3q1.9-7.4-4.5-7.3-6.6-0.1-8.4 7.2l-10.1 40.4h-22.6l15.2-61.2h22.8l-1.8 7.5h0.3q6.9-9.2 19.3-9.2 7.2 0 10.8 2.3zm-250.2-20.1l3 80.8h-26l0.7-14.1h-19.4l-6.1 14-26.1 0.1 34.4-64.8c5.4-9.4 14.8-15.6 26-16zm83.7 0.8l-4.8 18.7h9.4l-3.3 13.7h-9.5l-7.2 29.2q-1.2 4.9 4.5 4.8h3.8l-3.4 13.6q-6.8 0.6-12.8 0.6-10.3 0.1-14-2.7-4.1-2.9-1.5-12.8l16.2-65.1zm-33.3-0.8l-20 80.8h-22.6l20-80.8zm-85.4 51.2h13.6l1.8-33.7z"/><path class="b" d="m1207.3 503.7c-0.4 1.9-0.8 3.7-1.2 5.4q-0.6 2.8-1.2 5.7-0.7 3.4-1.5 6.9-0.6 2.8-1.2 5.7-0.7 3.4-1.4 6.8-0.6 2.8-1.3 5.6-0.7 3.4-1.4 6.9-0.6 2.8-1.3 5.7-0.7 3.5-1.4 7-0.5 2.4-1.1 4.8c0 0.4-0.2 0.7-0.3 1.2-1.4 0.2-2.7 0.1-3.9 0.1q-1.9 0-3.8 0c-1.3 0-2.6 0.2-3.8-0.1-0.3-0.6-0.1-1.1 0-1.6 0.8-3.7 1.7-7.5 2.5-11.2 0.7-3.7 1.5-7.3 2.3-11q1-5 2.1-9.9c0.5-2.5 1-4.9 1.5-7.4 0.3-1.5 0.7-3 1-4.5 0.6-2.7 1.1-5.3 1.7-8 0.7-3.2 1.4-6.4 2.1-9.7 0.5-2.3 0.9-4.6 1.4-6.8q1-4.7 2-9.4 0.6-2.7 1.2-5.4c0-0.1 0.1-0.3 0.2-0.5 0.3-0.1 0.6-0.2 0.9-0.2q5.1 0 10.1 0c0.2 0 0.4 0.1 0.5 0.1 0.3 0.4 0.2 0.8 0.2 1.2q-1 4.2-1.9 8.5-1.4 6.5-2.8 13.1c-0.1 0.3-0.1 0.6-0.2 1z"/><path class="b" d="m1176.2 519.2c0.2-1.2 0.5-2.3 0.7-3.3q1.4-6.2 2.7-12.5 1.4-6.3 2.7-12.7 1-4.7 1.9-9.4 0.1-0.3 0.2-0.7c0.2-0.5 0.5-0.8 1.1-0.8q0.5 0 1.1 0 3.9 0 7.9 0 0.5 0 1.1 0c0.6 0 0.8 0.3 0.7 1-0.1 0.8-0.3 1.6-0.5 2.4q-1.2 6-2.5 11.9-0.8 3.6-1.5 7.2-0.8 3.6-1.6 7.3-1 4.7-2 9.5-1.1 4.7-2.1 9.5c-0.5 2.4-1 4.8-1.5 7.2q-1 4.6-2 9.2-0.8 3.7-1.6 7.4-0.8 3.7-1.6 7.3-0.5 2.5-1 5-0.1 0.3-0.2 0.6c-0.2 0.1-0.4 0.2-0.6 0.2q-5.3 0-10.6 0c-0.1 0-0.3-0.2-0.4-0.2-0.2-0.9 0.2-1.6 0.3-2.4q1-5.1 2.1-10.2c1.2-5.3 2.4-10.6 3.5-16q1.4-6.7 2.8-13.4c0.3-1.3 0.6-2.7 0.9-4.1z"/><path class="b" d="m1113.7 571.3c-0.2 1.1-0.4 2.1-0.6 3q-0.2 0.7-0.9 0.7-0.4 0-0.7 0-4.5 0-8.9 0c-0.4 0-0.9 0.2-1.3-0.2-0.1-0.8 0.2-1.7 0.3-2.5q1.3-6.2 2.7-12.4 1.7-7.9 3.4-15.8 1.3-6.3 2.7-12.6 1.1-5.6 2.3-11.3c0.7-3.2 1.5-6.5 2.1-9.8q1.5-6.8 2.9-13.6 0.6-3 1.3-6.1c0.1-0.4 0.2-0.8 0.4-1.2 1.3-0.2 2.6-0.1 3.9-0.1q1.9 0 3.7 0c1.3 0 2.6-0.1 3.9 0.1 0.3 0.6 0.1 1 0 1.5q-1.7 7.8-3.3 15.5-1.4 6.2-2.7 12.4-1.4 6.9-2.9 13.7-1.2 5.7-2.4 11.4-1.2 5.6-2.4 11.2-1.1 4.9-2.1 9.7c-0.5 2.1-0.9 4.2-1.4 6.4z"/><path class="b" d="m1092.6 541.6c0.6-3 1.2-6 1.8-8.9 0.5-2.3 1-4.6 1.5-6.9q1-4.9 2.1-9.8 1.2-5.7 2.4-11.4 1.5-6.9 3-13.9c0-0.4 0.2-0.7 0.3-1.1 1.3-0.3 2.5-0.1 3.8-0.2q1.9 0 3.9 0c1.2 0 2.4-0.1 3.7 0.1 0 0.4 0.1 0.7 0 1q-1.6 7.4-3.1 14.9-1 4.8-2 9.7-0.8 3.4-1.5 6.8-1 5.1-2.1 10.1c-0.5 2.4-1.1 4.8-1.6 7.2-0.7 3.2-1.3 6.3-2 9.5q-0.7 3.5-1.4 7-0.8 3.7-1.6 7.4-1.2 5.5-2.3 11.1c-0.2 0.6-0.4 0.8-1.1 0.8q-0.4 0.1-0.9 0-4.1 0-8.2 0c-0.5 0-1 0-1.6 0 0-0.3-0.1-0.6-0.1-0.8q0.7-3.3 1.5-6.7 0.8-3.8 1.5-7.6 0.7-3.2 1.4-6.5 0.6-2.7 1.2-5.4c0.5-2.1 0.9-4.2 1.4-6.4z"/><path class="b" d="m1241.5 488.9c-1.1 5.4-2.3 10.8-3.5 16.1 0 0.2-0.1 0.3-0.2 0.5-1.3 0.2-2.6 0-3.9 0.1q-1.8 0-3.7 0c-1.3 0-2.6 0-3.8-0.1-0.4-0.5-0.2-0.9-0.1-1.3q0.8-4.1 1.7-8.2 0.8-3.4 1.5-6.9 0.8-3.8 1.7-7.7c0-0.3 0.1-0.6 0.2-0.9 0.1-0.5 0.4-0.7 0.9-0.7q0.3 0 0.5 0 4.6 0 9.2 0c1-0.1 1.5 0.1 1.2 1.3-0.6 2.6-1.1 5.1-1.7 7.8z"/><path class="b" d="m1226 479.8c0.4 0 0.8-0.1 1.1 0 0.5 0 0.8 0.3 0.7 0.8q-0.2 1-0.4 2.1-1.2 5.8-2.5 11.7c-0.7 3.2-1.3 6.4-2 9.6-0.1 0.5-0.2 1-0.4 1.5-1 0.1-1.9 0.1-2.8 0.1q-1.5 0-3 0-1.5 0-2.9 0c-0.9 0-1.9 0.1-2.8-0.1-0.2-0.6 0-1.2 0.1-1.7q0.8-4 1.7-8c0.4-1.8 0.8-3.6 1.2-5.4q0.7-3.5 1.4-6.9 0.3-1.4 0.6-2.8c0.1-0.7 0.4-0.9 1.1-0.9q2.7 0 5.4 0c1.1 0 2.2 0 3.5 0z"/><path class="b" d="m1096.3 506.6c-0.4 2-0.9 3.9-1.3 5.8q-0.2 1-0.4 2-0.2 0.7-0.9 0.7-0.3 0-0.6 0-4.6 0-9.1 0c-0.4 0-0.8-0.1-1.2-0.1 0-0.5 0-0.8 0-1.2q0.5-2.2 1-4.5 1.1-5.1 2.2-10.2 0.7-3.3 1.4-6.6 0.2-0.9 0.3-1.7c0.1-0.5 0.2-0.9 0.5-1.2 0.9-0.2 9.7-0.3 11.1-0.2 0.2 0 0.4 0.1 0.6 0.2 0 1.5-0.5 2.9-0.8 4.3-0.3 1.4-0.6 2.8-0.9 4.2q-0.4 2.1-0.9 4.1c-0.3 1.4-0.6 2.8-1 4.4z"/><path class="b" d="m1138.6 489.4c2.7 0 5.3 0 7.9 0.1 0.1 0 0.2 0.1 0.4 0.2 0 0.1 0 0.4 0 0.6q-1.3 5.7-2.5 11.4-1.2 5.5-2.5 11.1c-0.1 0.4-0.2 0.9-0.3 1.4-0.2 0.7-0.4 0.8-1 0.9q-0.2 0-0.5 0-4.6 0-9.2 0c-0.4 0-0.7-0.1-1.1-0.1 0-0.4-0.1-0.8 0-1.1q1.2-5.7 2.4-11.4 1.3-5.7 2.5-11.4c0.1-0.5 0.1-1.1 0.5-1.6 1.1-0.2 2.2 0 3.4-0.1z"/><path class="b" d="m1164 483.4c-0.5 2.1-0.9 4.1-1.3 6q-0.7 3.5-1.5 7-0.8 3.8-1.6 7.6c-0.1 0.5-0.1 1-0.5 1.4-1.1 0.2-6.1 0.3-10.6 0.2-0.3 0-0.5-0.1-0.9-0.2 0-0.4 0-0.7 0.1-1.1q0.9-4.2 1.9-8.4 1-4.7 2-9.4 0.7-2.9 1.3-5.8c0.2-0.7 0.4-0.8 1-0.9q0.4 0 0.8 0 4.2 0 8.5 0c0.4 0 0.8 0 1.1 0.1 0.4 0.6 0.2 1.1 0.1 1.7-0.2 0.5-0.3 1.1-0.4 1.8z"/><path class="b" d="m1175.1 505.4c-0.6 2.7-1.1 5.3-1.7 8-0.1 0.5-0.3 1-0.4 1.5-1.3 0.3-2.6 0.2-3.8 0.2q-2 0-3.9 0c-1.2 0-2.5 0-3.6-0.1-0.5-0.4-0.3-0.8-0.2-1.2q0.6-3.2 1.3-6.4 0.9-3.9 1.7-7.8 0.9-4.4 1.9-8.9c0.1-0.4 0.2-0.7 0.4-1.1 1.3-0.4 2.6-0.1 3.8-0.2q1.9 0 3.8 0c1.3 0 2.6-0.1 3.9 0.1-0.1 1.9-0.7 3.6-1 5.3-0.3 1.8-0.7 3.5-1.1 5.2-0.3 1.7-0.7 3.5-1.1 5.4z"/><path class="b" d="m1082.8 489.4c0.5 0.1 0.8 0.1 1.2 0.1 0 0.4 0.1 0.8 0 1.1q-0.7 3.5-1.4 6.9-0.8 3.8-1.6 7.6-0.8 3.7-1.6 7.5c-0.1 0.5-0.2 1-0.4 1.6-0.1 0.7-0.3 0.9-1.1 0.9q-1 0-2 0-3.7 0-7.4 0c-0.4 0-0.8-0.1-1.1-0.1-0.1-0.1-0.2-0.2-0.2-0.2 0-0.2-0.1-0.3 0-0.4q2.5-12 5.1-24c0.1-0.3 0.2-0.6 0.3-0.8 0.1-0.1 0.2-0.1 0.3-0.2 3.3 0 6.5 0 9.9 0z"/><path class="b" d="m1420.8 539.5c-0.7 0.1-1.3 0-1.9 0.1-0.8 0-1.3-0.3-1.8-1-1.8-3.1-3.7-6.1-5.5-9.1q-1.5-2.5-3.1-5c-0.2-0.3-0.4-0.6-0.6-0.9-0.5 0.2-0.4 0.5-0.4 0.8q0 4.9 0 9.7 0 2.2 0 4.4c0 0.2 0 0.5 0 0.8-0.3 0.1-0.6 0.2-0.9 0.2q-1.3 0.1-2.5 0c-0.4 0-0.7-0.2-0.7-0.6q-0.1-0.5-0.1-1 0-10.6 0-21.1c0-0.6-0.1-1.2 0.4-1.8q1.7-0.2 3.6 0 0.6 0.9 1.1 1.8 4 6.6 8 13.3c0.2 0.3 0.3 0.7 0.8 0.8 0.4-0.2 0.4-0.6 0.4-0.9q0-3.9 0-7.8-0.1-3-0.1-6c0-0.4 0-0.8 0.4-1.2 1-0.2 2.1-0.1 3.2 0 0.3 0 0.5 0.2 0.6 0.6q0.1 0.5 0.1 1 0 10.6-0.1 21.2 0 0.6-0.1 1.2-0.1 0.5-0.8 0.5z"/><path class="b" d="m1396.4 568c-2-3.2-3.9-6.5-5.9-9.6-0.6 0.2-0.4 0.6-0.4 0.9q0 4.8 0 9.6 0 2.1 0 4.3c0 0.3-0.1 0.6-0.1 0.9-0.9 0.3-1.7 0.4-3.8 0.2-0.1-0.3-0.2-0.6-0.3-0.9-0.1-0.3 0-0.6 0-0.9q0-10.4 0-20.8c0-0.6-0.1-1.2 0.3-1.8 1-0.3 2.1-0.1 3.2-0.1 0.5 0 0.7 0.3 0.9 0.7q1 1.7 2.1 3.4 3.4 5.7 6.8 11.3c0.1 0.3 0.3 0.5 0.6 0.8 0.2-0.3 0.3-0.5 0.3-0.7q0-4.3 0-8.5-0.1-3-0.1-6c0.1-0.8 0.3-1 1.2-1.1q1 0 2.1 0c0.7 0.1 0.9 0.3 0.9 1.1q0.1 0.3 0 0.7 0 10.6 0 21.1c0 1.8 0 1.8-1.7 1.8-0.7 0-1.5-0.1-2.2-0.2q-0.6-0.8-1.2-1.7c-0.8-1.5-1.7-2.9-2.7-4.5z"/><path class="b" d="m1351.5 553.6c0 6.3 0 12.5 0 18.7q0 0.6 0 1.3c0 0.5-0.3 0.7-0.8 0.8q-1.5 0-3.1 0c-3.3-5.4-6.5-10.7-9.9-16.2-0.2 0.4-0.3 0.5-0.3 0.6q-0.1 0.7 0 1.4 0 6.1 0 12.3 0 0.8-0.1 1.5c-1 0.4-1.7 0.5-3.8 0.3-0.1-0.3-0.3-0.6-0.3-0.9-0.1-0.3 0-0.6 0-0.9q-0.1-10.3 0-20.7-0.1-0.6 0-1.3c0.1-0.5 0.3-0.7 0.8-0.8q1.3 0 2.5 0c0.5 0 0.8 0.3 1 0.6q0.9 1.5 1.8 3 3.6 5.9 7.2 11.9c0.1 0.3 0.2 0.7 0.7 0.6 0.3-0.1 0.2-0.4 0.2-0.6q0-4.4-0.1-8.8 0-2.8 0-5.6c0-0.8 0.3-1 1.1-1.1q1.1 0 2.3 0c0.5 0.1 0.8 0.3 0.8 0.9 0 0.9 0 1.9 0 3z"/><path class="b" d="m1347.3 482.6c0-0.7 0-1.2 0.1-1.8 0-0.3 0.2-0.6 0.6-0.7 1.1-0.1 2.2-0.1 3.2 0.1 0.5 0.6 0.3 1.1 0.3 1.7q0 7.5 0 14.9 0 3.2 0 6.3c0 0.5 0.1 1-0.3 1.5-1 0.2-2 0.1-3.1 0.1-0.4 0-0.7-0.3-0.9-0.6q-0.9-1.5-1.7-2.9-3.5-5.6-6.9-11.2c-0.2-0.4-0.4-0.9-1-1.2-0.1 0.2-0.2 0.4-0.2 0.5q-0.1 0.7 0 1.4 0 6 0 12.1c0 0.5 0 1.1-0.1 1.7-0.3 0.1-0.6 0.2-0.9 0.2q-1.2 0-2.4 0c-0.5 0-0.8-0.3-0.8-0.8q-0.1-0.3 0-0.6-0.1-10.8 0-21.6 0-0.5 0.1-1c0-0.3 0.2-0.6 0.6-0.6q1.4 0 2.8 0c0.4 0 0.6 0.3 0.8 0.6q1.2 1.9 2.3 3.8 3.3 5.4 6.5 10.8c0.2 0.3 0.3 0.8 0.9 0.8 0.1-0.2 0.2-0.4 0.2-0.6q0-4.3-0.1-8.5c0-1.4 0-2.8 0-4.4z"/><path class="b" d="m1136.6 555.7c0.1-0.6 0.2-1 0.3-1.5 0.1-0.5 0.2-1.1 0.6-1.7 0.2 0 0.4 0 0.6 0q5.2 0 10.5 0c0 0 0.1 0.1 0.3 0.1 0.2 0.5 0 1.1-0.1 1.6-0.5 2.3-1 4.6-1.5 6.8q-1 4.6-2 9.2-0.5 2.3-1 4.6c-0.2 0.1-0.5 0.2-0.7 0.2q-5.2 0-10.3 0c-0.2 0-0.5-0.1-0.8-0.2 0.6-3.2 1.3-6.4 2-9.5 0.7-3.2 1.4-6.4 2.1-9.6z"/><path fill-rule="evenodd" class="b" d="m1308.4 556c0 0.6 0.1 1 0 1.4q-0.1 3.8-3.6 5.5c-0.3 0.2-0.6 0.3-0.9 0.5 0.1 0.3 0.1 0.6 0.2 0.8q2.1 4.4 4.2 8.7c0.1 0.4 0.2 0.8 0.4 1.2-0.4 0.1-0.6 0.2-0.8 0.3-0.9 0-1.7-0.1-2.6 0-0.5 0-0.9-0.3-1.1-0.8-0.2-0.6-0.5-1.1-0.7-1.6q-1.6-3.6-3.2-7.1c-0.2-0.4-0.4-0.7-0.5-1.1-1.3-0.2-3-0.2-4.3 0.1 0 0.4-0.1 0.8-0.1 1.2q0 3.8 0 7.7c0 1.5 0 1.6-1.6 1.6-0.8 0-1.6 0.1-2.3-0.1-0.4-0.5-0.3-0.9-0.3-1.4q0-1.7 0-3.4 0-8.8 0-17.7 0-0.6 0-1.3c0.1-0.5 0.3-0.7 0.8-0.8q0.4 0 0.7 0 4.4 0 8.9 0 1.5 0 2.9 0.6c2.3 1.1 3.7 3 3.9 5.7zm-9.1 4.5c0.6 0 1.3 0 1.9 0 1.8-0.3 3.3-1.5 3.2-3.7 0-1.9-1.4-3.4-3.3-3.5-1.7 0-3.3 0-5 0-0.2 0-0.4 0.2-0.7 0.2-0.2 1.2-0.1 2.4-0.1 3.5 0 1.1-0.2 2.3 0.2 3.4 1.2 0.1 2.3 0.1 3.8 0.1z"/><path class="b" d="m1316.1 532.8c0.5 2 1.8 2.9 3.5 3.2 1.1 0.1 2.2 0.1 3.3-0.1 1.3-0.1 2.3-0.9 2.6-2.3 0.2-0.9 0-1.8-0.7-2.4-0.5-0.4-1-0.8-1.6-1.1-1.4-0.6-2.8-1.2-4.2-1.8-1.4-0.6-2.8-1.1-4-2-3.8-2.6-3.4-8.4 0.7-10.6 1.3-0.6 2.7-0.9 4.1-1q1.9-0.2 3.8 0.3c2.1 0.6 3.9 1.6 5 3.5 0.7 1.2 1 2.4 0.9 3.7 0 0.2-0.1 0.4-0.1 0.6-1.3 0.3-2.5 0.2-3.8 0.1 0-0.4-0.2-0.6-0.2-0.9-0.3-1.9-1.4-3.2-3.3-3.5-1-0.2-2.1-0.1-3.1 0-1.1 0.1-1.9 0.7-2.3 1.7-0.4 1.1-0.3 2.1 0.5 2.9 0.4 0.4 1 0.8 1.5 1.1 1.1 0.5 2.2 0.9 3.3 1.3q1.8 0.7 3.6 1.5 1.6 0.7 2.7 2.1 1.8 2 1.4 4.7c-0.5 3.2-2.5 4.9-5.5 5.6-1.1 0.3-2.3 0.5-3.5 0.5-1.9-0.1-3.8-0.6-5.4-1.5-2.3-1.3-3.2-3.3-3.3-5.9 0-0.2 0-0.4 0.1-0.5 0.1-0.2 0.3-0.4 0.5-0.5 0.2-0.1 0.6-0.1 0.9-0.1 0.7 0 1.5 0 2.4 0.1 0.1 0.4 0.1 0.8 0.2 1.3z"/><path class="b" d="m1354.7 531.7c-0.5-0.8-1.2-1.3-2-1.6-1.5-0.6-3-1.2-4.5-1.8-1.2-0.6-2.4-1.1-3.5-1.9-3.1-2-3.8-6-1.6-8.9 0.8-1 1.7-1.7 2.9-2.1 3.5-1.2 7-1.1 10.1 1 2.1 1.4 3 3.4 2.9 5.9 0 0.2-0.1 0.4-0.2 0.6-1.2 0.2-2.4 0.2-3.6 0-0.1-0.3-0.2-0.5-0.2-0.7 0-2.3-2-3.6-3.7-3.8-0.9-0.1-1.9 0-2.8 0.1-1.3 0.1-2.2 1.1-2.5 2.3-0.2 1.2 0.3 2.3 1.5 3 1.3 0.8 2.7 1.2 4.1 1.8 1.1 0.4 2.2 0.8 3.3 1.3 1.3 0.6 2.4 1.4 3.3 2.6 1.8 2.3 1.3 6.6-1.6 8.6-0.6 0.4-1.3 0.7-2 1-1.5 0.6-3.1 0.9-4.7 0.7-1.9-0.1-3.8-0.5-5.5-1.6-2.3-1.6-3.2-3.8-2.8-6.6 1.2-0.3 2.4-0.1 3.7-0.1 0.1 0.3 0.2 0.6 0.2 0.9 0.2 1.8 1.3 3 3 3.5 1.4 0.3 2.7 0.3 4 0 1.7-0.3 2.6-1.6 2.5-3.2 0-0.3-0.1-0.6-0.3-1z"/><path fill-rule="evenodd" class="b" d="m1365.3 504.9c-1.4 0.1-2.7 0-4-0.5-3.4-1.2-5.1-4-5.4-7.1q0-0.2 0-0.5-0.1-4.4 0-8.8 0-2.2 1.1-4.1 1.5-2.6 4.5-3.6c1.1-0.3 2.4-0.6 3.6-0.5 2.1 0.1 4.1 0.7 5.8 2.1 1.6 1.4 2.4 3.2 2.7 5.3q0.1 0.2 0 0.5c0 3.1 0.1 6.2 0 9.4 0 3.3-2.5 6.9-6.5 7.6-0.6 0.1-1.1 0.2-1.8 0.2zm4.3-11.4q0-2.7 0-5.4-0.1-2.3-1.9-3.7c-1-0.8-2.1-1-3.2-0.9-2.3 0-3.9 1.4-4.4 3.6q-0.1 0.7-0.1 1.4-0.1 4 0 8c0 0.6 0.1 1.2 0.2 1.7 0.6 1.6 1.6 2.7 3.3 3 0.9 0.1 1.8 0 2.7-0.1 0.3 0 0.6-0.1 0.9-0.3 1.6-0.8 2.3-2.2 2.5-3.9 0-1 0-2.1 0-3.4z"/><path class="b" d="m1300 524.9c1.4 0.6 2.8 1.1 4.1 1.7q1.2 0.5 2.2 1.2c4.6 3 3.1 8.9-0.2 10.6-2.4 1.3-5 1.8-7.7 1.2-1.3-0.2-2.6-0.5-3.7-1.2q-3.6-2.3-3.2-6.5c0-0.1 0.1-0.1 0.2-0.3 1.1-0.3 2.4-0.2 3.6-0.1 0.1 0.3 0.2 0.5 0.2 0.8 0 1.9 1.1 2.9 2.8 3.5 1.4 0.5 2.9 0.4 4.4 0.1 1.2-0.3 2.1-1.3 2.3-2.5 0.1-1.1-0.3-2-1.2-2.6-1-0.7-2.1-1.2-3.2-1.6-1.5-0.6-2.9-1.2-4.4-1.8q-1.5-0.7-2.7-1.9c-2.7-2.7-2-7.5 1.1-9.4q1.9-1.1 4-1.4c1.9-0.2 3.8 0 5.6 0.7 2.1 0.8 3.7 2.1 4.4 4.2 0.4 1.1 0.5 2.1 0.2 3.3-1.2 0.2-2.4 0.1-3.7 0 0-0.3-0.2-0.6-0.2-0.8 0-2.1-1.7-3.4-3.4-3.6-1.1-0.2-2.1-0.1-3.2 0-0.8 0.1-1.4 0.6-1.9 1.3-0.8 1.2-0.5 2.8 0.7 3.7 0.8 0.7 1.8 1.1 2.9 1.4z"/><path class="b" d="m1329.3 573c0 0.3 0 0.5 0 0.7q-0.1 0.6-0.7 0.6-0.4 0.1-0.8 0.1-6.8 0-13.7 0c-1.3 0-1.5-0.2-1.5-1.5q-0.1-0.4 0-0.7 0-10.2 0-20.4-0.1-0.7 0-1.3 0.1-0.7 0.8-0.8 0.5 0 0.9 0 6.6 0 13.2 0 0.4 0 0.7 0c0.9 0.1 1.1 0.2 1.1 1.1q0 1 0 2c-0.1 0.3-0.3 0.5-0.6 0.6q-0.6 0-1.2 0-4.5 0-9 0c-0.5 0-1-0.1-1.5 0.2-0.3 1-0.3 4.7 0 6.2 0.3 0.1 0.6 0.2 0.9 0.2q2.9 0 5.7 0c0.5 0 1-0.1 1.6 0.2 0.3 1 0.2 2 0.1 3 0 0.2-0.3 0.3-0.4 0.4-0.4 0.1-0.7 0.1-1.1 0.1q-2.6 0-5.2 0-0.7 0-1.5 0c-0.1 0.3-0.3 0.5-0.3 0.7-0.1 2.2 0 5.2 0.2 6.1 0.5 0.3 1 0.2 1.5 0.2q4.5 0 9 0c1.8 0 1.8 0 1.8 1.8 0 0.1 0 0.2 0 0.5z"/><path class="b" d="m1387 522.7q0 1.2 0 2.1c0.5 0.4 0.9 0.4 1.3 0.4q2.7 0 5.5 0 0.5 0 1 0 0.7 0.1 0.7 0.7c0 0.9 0.1 1.8-0.1 2.6-0.4 0.4-0.8 0.3-1.2 0.3q-2.7 0-5.5 0c-0.5 0-1 0.1-1.5 0.1-0.3 0.8-0.2 1.6-0.2 2.3q0 1.1 0 2.2c0 0.8-0.1 1.5 0.1 2.3 0.5 0.3 1 0.2 1.5 0.2q4.5 0 9.1 0c0.5 0 1-0.1 1.6 0.2 0.2 1 0.2 2.1 0 3.2-0.4 0.1-0.7 0.2-1 0.2q-7.3 0.1-14.5 0c-0.2 0-0.4 0-0.7 0-0.1-0.3-0.2-0.6-0.3-0.8 0-0.4 0-0.7 0-1.1q0-10.4 0-20.8c0-0.6-0.2-1.2 0.3-1.7 0.1-0.1 0.2-0.2 0.4-0.2q7.6 0 15.2 0.1c0.2 0 0.3 0 0.5 0.1 0.4 1 0.3 2.1 0.1 3.1-0.5 0.4-1 0.3-1.5 0.3q-4.6 0-9.1 0c-0.5 0-1-0.1-1.5 0.2 0 0.1-0.1 0.2-0.1 0.3-0.1 1.1-0.1 2.3-0.1 3.7z"/><path fill-rule="evenodd" class="b" d="m1271.3 534c1.3-4.1 2.5-8 3.8-12q0.9-3 1.9-6.1c0.3-0.9 0.4-1 1.3-1 1.3 0 2.7 0 4 0.1 0.2 0.3 0.4 0.5 0.5 0.8q3.6 11.5 7.3 23.1c0 0.1-0.1 0.3-0.1 0.5-0.2 0-0.5 0.1-0.7 0.1q-1.3 0.1-2.5 0c-0.6 0.1-1-0.2-1.1-0.8q-0.3-1-0.6-2c-0.2-0.5-0.2-1.1-0.7-1.5-0.2 0-0.5-0.1-0.8-0.1q-3.6 0-7.2 0-0.2 0-0.5 0-0.7 0-0.9 0.8-0.3 0.9-0.5 1.8-0.3 0.8-0.6 1.6c-1 0.5-2.1 0.2-3.2 0.2-0.3 0-0.7-0.1-1-0.2 0-0.2 0-0.3 0-0.4 0.5-1.6 1-3.2 1.6-4.9zm7.9-12c-2.5 7.6-2.8 8.7-2.7 9.8 0.1 0 0.2 0.1 0.3 0.1q3.1 0 6.2 0c0.1 0 0.2-0.1 0.4-0.1 0-0.2 0-0.4 0-0.6q-1.6-5.3-3.2-10.6c-0.1-0.1-0.2-0.1-0.3-0.2-0.6 0.3-0.4 0.9-0.7 1.6z"/><path fill-rule="evenodd" class="b" d="m1459.9 535.9c-0.1-0.5-0.3-0.8-0.8-0.8q-0.8 0-1.5 0-3.1 0-6.2 0c-1 0-1.1 0.1-1.4 1.1-0.3 1.1-0.6 2.1-0.9 3.1-1.2 0.3-2.8 0.3-4.1 0.1-0.4-0.5 0-1 0.1-1.4q1.2-3.8 2.4-7.6 2.2-6.8 4.3-13.5c0.2-0.6 0.4-1.2 0.6-1.8 1.2-0.2 3.6-0.3 5.1 0 0.1 0.2 0.3 0.4 0.4 0.7q3.6 11.5 7.3 23.1c0 0.1 0 0.3 0 0.4-0.4 0.4-0.9 0.2-1.3 0.2q-1.1 0.1-2.1 0-0.8 0-1-0.7c-0.3-0.9-0.6-1.8-0.9-2.9zm-5.9-13.1q-1.2 4.1-2.4 8.2c-0.1 0.2-0.1 0.5-0.1 0.9 1.2 0 2.3 0.1 3.5 0 1.1 0 2.3 0.2 3.6-0.2-0.1-0.4-0.1-0.7-0.2-1q-1.5-4.9-3-9.7c-0.1-0.2-0.2-0.4-0.4-0.7-0.6 0.8-0.6 1.6-1 2.5z"/><path fill-rule="evenodd" class="b" d="m1418.7 569.9c-1.5 0-2.8 0-4.1 0-1.3 0-1.3 0-1.7 1.3q-0.5 1.5-0.9 3c-1.2 0.3-2.4 0.1-3.5 0.1-0.2 0.1-0.5-0.1-0.8-0.2 0.1-0.4 0.2-0.8 0.3-1.2q1.2-3.7 2.3-7.4 2.3-7.1 4.6-14.2 0.1-0.4 0.3-0.9c0.1-0.4 0.4-0.7 0.8-0.7 1.5 0 2.9 0 4.4 0.1 0.2 0.4 0.4 0.8 0.5 1.3q2.2 6.8 4.4 13.6 1.4 4.2 2.7 8.4c0.1 0.3 0.1 0.7 0.1 1.1-0.3 0.1-0.5 0.2-0.7 0.2q-1.4 0-2.7 0-0.8-0.1-1-0.8-0.2-0.9-0.5-1.7-0.3-0.9-0.6-1.9c-1.3-0.2-2.5 0-3.9-0.1zm-1.7-12.5q-0.5 1.5-0.9 3c-0.3 1.1-0.7 2.1-0.9 3.2-0.3 1-0.8 1.9-0.8 3 1.2 0.3 2.4 0.1 3.6 0.1 1.1 0 2.3 0.2 3.6-0.2-1.1-3.6-2.2-7.2-3.3-10.7 0-0.2-0.1-0.3-0.2-0.4q-0.1 0-0.2-0.1c-0.6 0.5-0.5 1.3-0.9 2.1z"/><path class="b" d="m1291.2 481.5c0-0.4 0-0.7 0.1-0.9 0.1-0.2 0.3-0.4 0.5-0.4 0.3-0.1 0.6-0.1 0.9-0.1q6.8 0 13.7 0c0.4 0 0.7 0.1 1.2 0.1 0.3 1.1 0.2 2.2 0.1 3.2-0.5 0.5-1 0.3-1.5 0.3q-4.6 0-9.1 0c-0.5 0-1 0.1-1.5 0.1-0.2 1.1-0.3 4.7-0.1 6.4 0.3 0.1 0.7 0.2 1 0.2q2.8 0 5.7 0c0.5 0 1 0 1.5 0 0.3 1.2 0.2 2.3 0.1 3.4-0.4 0.1-0.8 0.2-1.2 0.2q-2.8 0-5.5 0c-0.5 0-1-0.1-1.6 0.2 0 0.1-0.1 0.3-0.1 0.5q0 2.9 0 5.8c0 0.2 0.1 0.3 0.2 0.5q0.7 0.1 1.5 0.1 4.5 0 9 0 0.7 0 1.5 0c0.3 1.2 0.2 2.3 0.1 3.4-0.3 0.1-0.5 0.2-0.8 0.2q-7.3 0-14.6 0c-0.9 0-1.1-0.2-1.1-1.1q0-0.6 0-1.2c0-6.9 0-13.9 0-20.9z"/><path class="b" d="m1325.6 503.6c-1.9 1.1-3.8 1.4-5.8 1.3-1.6 0-3.1-0.4-4.4-1.2-2.5-1.5-3.7-3.7-3.8-6.5q-0.2-4.8 0-9.7c0.2-3.8 2.6-6.5 6.3-7.4 2.2-0.5 4.4-0.4 6.4 0.5 3.1 1.1 4.6 3.4 4.9 6.6q0.1 1.2-1.1 1.2-1 0.1-2 0c-0.8 0-1-0.2-1.1-1-0.1-0.5-0.2-1-0.4-1.4-0.7-1.6-1.9-2.3-3.5-2.4q-0.7-0.1-1.4 0c-1.9 0.1-3.4 1.4-3.8 3.3q-0.1 0.7-0.1 1.4 0 4.1 0 8.2c0 0.6 0.1 1.2 0.2 1.8 0.4 1.5 1.4 2.4 2.8 2.8 1 0.3 2.1 0.3 3.1 0 1.7-0.4 2.6-1.6 3-3.2 0.1-0.3 0.1-0.7 0.2-1 0.6-0.4 1.3-0.2 1.9-0.3 0.6 0 1.3 0 1.9 0 0.1 0.3 0.3 0.5 0.3 0.7-0.1 1.7-0.6 3.2-1.6 4.6-0.5 0.7-1.2 1.2-2 1.7z"/><path class="b" d="m1442.2 515.2c0.1 1.1 0.1 2 0.2 3 0 0.4-0.3 0.8-0.5 1.2q-2.3 3.2-4.6 6.5-2.9 4.3-5.9 8.6c-0.3 0.4-0.6 0.7-0.5 1.2 0.4 0.3 0.9 0.2 1.3 0.2q4.1 0 8.2 0 0.6 0 1.2 0c0.5 0.1 0.7 0.3 0.8 0.8 0.1 0.8 0.1 1.7-0.1 2.6q-0.4 0.1-0.9 0.2-0.1 0-0.3 0-7.3 0-14.6 0c-0.2 0-0.3-0.1-0.5-0.1-0.1-0.3-0.2-0.6-0.2-0.8 0-0.6 0-1.2 0-1.8 0-0.8 0.2-1.4 0.6-2q4-5.6 7.9-11.3 1.3-1.9 2.7-3.8c0.1-0.3 0.3-0.6 0.4-0.8-0.4-0.5-0.8-0.4-1.2-0.4q-4.3 0-8.7 0-0.7 0-1.4 0c-0.5-1.2-0.4-2.3-0.2-3.4 0.3-0.1 0.6-0.2 0.9-0.2q7.3 0 14.5 0c0.3 0 0.6 0.2 0.9 0.3z"/><path class="b" d="m1368.1 549.7c1.4 0 2.7 0 4 0 0.7 0.1 0.9 0.3 0.9 1q0 0.7 0 1.5c0 1-0.2 1.2-1.2 1.2q-2 0-4 0c-0.5 0-1 0-1.4 0.1-0.5 0.4-0.3 0.9-0.3 1.3q-0.1 3.5-0.1 6.9 0 5.5 0 10.9c0 0.6 0.2 1.1-0.3 1.7-1.1 0.2-2.3 0.1-3.6 0-0.1-0.3-0.2-0.5-0.2-0.8-0.1-0.5-0.1-0.9-0.1-1.4q0-8.3 0-16.7v-1.8c-0.3 0-0.7-0.2-1-0.2q-2 0-4 0-0.5 0-0.9 0c-0.5-0.1-0.8-0.3-0.8-0.8q-0.1-1.1 0-2.2c0-0.4 0.3-0.6 0.7-0.7q0.6 0 1.2 0c3.6 0 7.3 0 11.1 0z"/><path class="b" d="m1272.8 549.7c4.5 0 8.9 0 13.3 0 1.5 0 1.5 0.1 1.6 1.5q0 0.6-0.1 1.1c0 0.8-0.2 1.1-1 1.1q-1.5 0-2.9 0-1 0-2.1 0c-0.2 0-0.5 0.1-0.7 0.1-0.3 0.6-0.2 1.1-0.2 1.7q0 8.5 0 17 0 0.7 0 1.4c-0.1 0.4-0.3 0.7-0.8 0.7-1 0.1-2.1 0.2-3.1 0-0.4-0.5-0.3-1-0.3-1.5q0-3.8 0-7.6 0-5 0-9.9c0-0.6 0-1.1 0-1.7-0.4-0.1-0.8-0.2-1.1-0.2q-1.9 0-3.7 0c-0.5 0-1 0-1.4-0.1-0.5-0.3-0.6-0.7-0.6-1.1-0.1-0.9 0-1.5 0.3-2.3 0.9-0.3 1.8-0.1 2.8-0.2z"/><path class="b" d="m1280.7 500.5c-0.1 1.4 0.2 2.7-0.2 4.1-1.3 0.2-2.5 0.1-3.7 0-0.4-0.6-0.3-1.2-0.3-1.8q0-7.6 0-15.3 0-1.2 0-2.5c0-0.4-0.1-0.7-0.1-1.1-0.4-0.1-0.7-0.2-1-0.2q-1.9 0-3.8 0-0.7 0-1.5 0c-0.6-1.1-0.5-2.2-0.2-3.4 0.3-0.1 0.6-0.2 0.9-0.2q7.8 0 15.7 0c0.3 0 0.6 0.1 0.8 0.1q0.7 1.7 0 3.4c-1 0.3-2.1 0.1-3.2 0.1-1.1 0-2.1 0-3.1 0-0.4 0.6-0.3 1.1-0.3 1.6q0 5.4 0 10.9c0 1.4 0 2.8 0 4.3z"/><path class="b" d="m1361.3 517.4c0-0.6 0-1.2 0-1.7 0.1-0.5 0.3-0.7 0.8-0.8q0.4 0 0.9 0 7.2 0 14.5 0c1.8 0 1.8 0 1.8 1.7 0 1.9-0.1 2-1.9 2q-1.9 0-3.8 0c-0.4 0-0.8 0-1.1 0.1-0.4 0.6-0.2 1.1-0.2 1.7q-0.1 8.6-0.1 17.3c0 0.5 0.1 1.1-0.2 1.7-1.2 0.3-2.4 0.1-3.6 0.1-0.4-0.6-0.3-1.1-0.3-1.7q0-4.6 0-9.2 0-4.2 0-8.4c0-0.5 0.1-1-0.2-1.4-0.5-0.3-1-0.2-1.5-0.2q-2-0.1-4-0.1c-0.7 0-1.1-0.3-1.1-1.1z"/><path class="b" d="m1154.5 528.2c-0.8 3.4-1.4 6.7-2.2 9.9-0.3 0.1-0.6 0.1-0.8 0.1q-5.3 0-10.5 0c-0.1 0-0.3-0.1-0.4-0.1 0-0.1-0.1-0.2-0.1-0.3q1.1-5.4 2.3-10.8c0-0.4 0.2-0.7 0.3-1.1 1-0.2 2-0.1 3-0.1 1 0 1.9 0 2.9 0 1 0 2 0 2.9 0 1 0 1.9-0.2 2.9 0.2 0 0.8-0.2 1.4-0.3 2.2z"/><path class="b" d="m1337.9 532.3c0 1.9 0 3.7 0 5.5q0 0.5 0 0.9c-0.1 0.6-0.3 0.8-0.9 0.8-1 0.1-2 0-2.8 0-0.5-0.3-0.6-0.7-0.7-1.1q0-0.4 0-0.9 0-10.3 0-20.6c0-0.6-0.1-1.3 0.5-1.9 1.2-0.1 2.4-0.2 3.6 0 0.4 0.7 0.3 1.3 0.3 1.9 0 5.1 0 10.1 0 15.4z"/><path class="b" d="m1376.9 554.7c0-1.2 0-2.3 0-3.4q0-0.5 0.1-1c0.1-0.3 0.3-0.6 0.7-0.6 1.1 0.1 2.2-0.1 3.3 0.2 0.1 0.3 0.2 0.6 0.2 0.9q0 1.7 0 3.5 0 9 0 18 0 0.7-0.1 1.3 0 0.7-0.6 0.7c-1.1 0.1-2.1 0.2-3.3 0-0.1-0.4-0.2-0.7-0.3-1 0-0.4 0-0.8 0-1.2 0-5.7 0-11.5 0-17.4z"/><path class="b" d="m76.5 527.6c-1.5 0-2.7-1.5-2.7-3v-32c0-1.1 1.2-2.6 2.7-2.6h69.5c1.2 0 2.7 1.5 2.7 2.6v13.2c0 1.5-1.5 3-2.7 3h-22.6c-1.4 0-2.9-1.5-2.9-3v-4.7c0-0.8-0.9-1.7-1.8-1.7h-14.9c-0.9 0-2.1 0.9-2.1 1.7v15c0 0.9 1.2 2.1 2.1 2.1h51.3c2.1 0 3 0.8 3 2.6v41.4c0 1.5-1.5 2.6-3 2.6h-88c-1.5 0-2.7-1.1-2.7-2.6v-22.6c0-1.5 1.2-2.6 2.7-2.6h22.6c1.5 0 2.6 1.1 2.6 2.6v14.1c0 0.9 1.2 1.7 2.1 1.7h33.7c0.9 0 1.8-0.8 1.8-1.7v-24.4c0-0.9-0.9-1.7-1.8-1.7z"/><path class="b" d="m176.9 519.9v15c0 0.9-0.9 1.5-2.1 2.1q-2.6 0.4-2.6 2.6v22.6c0 1.5 1.1 2.6 2.6 2.6h27.3c1.5 0 2.6-1.1 2.6-2.6v-25c0-0.2 0.6-0.5 0.9-0.2l26.7 27.3c0.6 0.5 0.9 0.5 1.8 0.5h33.5c1.4 0 2.9-1.1 2.9-2.6v-22.6c0-1.5-1.5-2.6-2.9-2.6h-24.4c-0.6 0-0.9 0-1.2-0.6l-18.2-17.9c0-0.3-0.3-0.3 0-0.6l8.8-8.8c0.3-0.3 0.6-0.3 1.2-0.3h24.7c1.1 0 2.6-1.5 2.6-3v-13.2c0-1.1-1.5-2.6-2.6-2.6h-24.4c-0.9 0-1.2 0.3-1.8 0.9l-26.4 27c-0.6 0.3-1.2 0.3-1.2-0.3v-25c0-1.1-1.1-2.6-2.6-2.6h-27.3c-1.5 0-2.6 1.5-2.6 2.6v22.6c0 1.5 0.8 2.4 2.3 2.7 1.8 0.6 2.4 1.2 2.4 2z"/><path class="b" d="m284.6 562.2c0 1.5 1.4 2.6 2.9 2.6h27c1.5 0 2.9-1.1 2.9-2.6v-22.3c0-1.5-0.8-2.7-2.6-2.9-1.5-0.6-2.1-0.9-2.1-2.1v-5.6c0-0.9 0.9-1.7 1.8-1.7h10.3c1.2 0 2 0.8 2 1.7 0 1.5 1.5 3 2.7 3h22.6c1.4 0 2.9-1.5 2.9-3v-13.2c0-1.5-1.5-2.6-2.9-2.6h-22.6c-1.2 0-2.7 1.1-2.7 2.6 0 0.9-0.8 2.1-2 2.1h-10.3c-0.9 0-1.8-1.2-1.8-2.1v-15c0-0.8 0.9-1.7 1.8-1.7h29.1c0.8 0 2 0.9 2 1.7v4.7c0 1.5 1.2 3 2.7 3h32c1.4 0 2.6-1.5 2.6-3v-13.2c0-1.1-1.2-2.6-2.6-2.6h-92.8c-1.5 0-2.9 1.5-2.9 2.6v22.6c0 1.5 1.1 2.4 2.6 2.7 1.2 0.3 2.1 1.1 2.1 2v15c0 0.9-0.6 1.8-2.1 2.1q-2.6 0.4-2.6 2.6z"/><path class="b" d="m3527.4 540.5c-11.6 0-16.8-5.3-16.8-17.1v-18.9h-12.6v-10.6h13.1v-8.2l14-7.3v15.5h11v10.6h-11v17.1c0 4.9 1 8 6.2 8 1.2 0 3-0.1 4.6-0.6l0.5-0.2 0.4 10.5-0.3 0.1c-2.5 0.7-5.9 1.1-9.1 1.1zm-29.4-1.1h-14.9v-34.9h-9.2v-10.6h9.2v-2.8c0-12.6 5.7-18.5 18.2-18.5 1.9 0 4 0.2 5.8 0.5l0.4 0.1v10.2l-0.6-0.3c-1.1-0.5-2.2-0.7-3.8-0.6-3.6 0.2-5.1 2.7-5.1 8.9z"/><path class="b" d="m3273.5 539.4h-16.5v-53.7l16.5-7.3zm-57.6 0h-16.8v-61h16.8v24.2c1.9-2.5 21.6-24.2 21.6-24.2h19l-25.1 28.5 25.6 30v2.5h-18.4c0 0-19.3-22.7-22.7-27.3z"/><path fill-rule="evenodd" class="b" d="m3450.3 541.1c-14.3 0-23.8-9.7-23.8-24.1 0-15 9.1-24.3 23.8-24.3 14.3 0 23.8 9.8 23.8 24.3 0 14.4-9.5 24.1-23.8 24.1zm0-37.9c-5.6 0-9.2 5.4-9.2 13.7 0 8.2 3.6 13.5 9.2 13.5 5.7 0 9.2-5.2 9.2-13.5 0-8.6-3.4-13.7-9.2-13.7z"/><path class="b" d="m3277.6 521.2c0.5 5.4 2.4 9.4 6.1 13.4 3.6 3.9 10.2 6.5 19.6 6.5 5.3 0 9.8-1.3 13.3-3 3.5-1.6 6.2-4.2 8.1-7.4 1.9-3.2 2.9-6.7 2.9-10.4 0-3.2-0.7-6.1-2.2-8.7-1.4-2.5-3.7-4.7-6.9-6.5-3.3-1.7-8.7-3.5-16.2-5.2-3.2-0.7-5.2-1.5-6-2.4q-1.4-1.2-1.4-2.9 0-2.1 1.6-3.6 1.7-1.5 4.9-1.5 3.8 0 6 2c1.7 1.4 2.6 3.1 3 5.3l15.2-1.4c-0.7-5.6-2.6-9.2-6.4-12-3.6-2.8-9-4.9-16-4.9-5.7 0-9.6 0.7-13.7 2.8-3.2 1.6-5.7 3.9-7.4 6.5-1.6 2.7-2.4 5.5-2.4 8.5 0 4.6 1.6 8.4 4.8 11.3 3.1 3 8.5 5.4 16 7.2 4.8 1.1 7.8 2.3 9.1 3.6q2 1.9 2.1 4.5-0.1 2.6-2.2 4.6-2.1 2-6 2c-3.5 0-6.1-1.3-8-3.8-1.3-1.8-2-3.6-2.4-5.9z"/><path class="b" d="m3382.1 527.4c0.9 4.2 3.3 7.1 6.2 9.5 3 2.3 7.7 4.2 14.8 4.2 5.2 0 10.9-1.5 15-4.8 3.6-2.8 5.4-6.6 5.4-11.3 0-2.5-0.7-4.9-1.9-7.1-1.3-2.1-3.2-3.8-5.6-5-2.4-1.2-6.1-2.1-11.1-2.7-3.3-0.5-5.5-1-6.5-1.6q-1.6-1-1.6-2.8 0-1.6 1.2-2.8 1.3-1.1 3.9-1.1 2.6 0 4.4 1.4c0.8 0.6 1.8 1.7 2.2 3.2l13.6-1.6c-1.9-5.4-5.4-9.2-10.8-10.9-2.7-0.9-5.6-1.3-8.5-1.3-4.4 0-8.1 0.9-10.7 1.9-2.6 1.1-4.6 2.7-6.1 4.9-1.8 2.5-2.6 6.2-2.2 9.3 0.4 3.5 2.2 6.9 5.1 9 0.8 0.6 1.7 1.1 2.6 1.5 3.2 1.4 6.8 2 10.2 2.7 3.6 0.8 5.7 1.4 6.6 1.9q1.8 1.1 1.8 3.1 0 1.8-1.4 3-1.7 1.6-4.8 1.6-2.9 0-4.6-1.4c-0.8-0.6-2.2-2-2.9-4.4z"/><path class="b" d="m3330.2 521.2c0.5 5.4 2.3 9.4 6.1 13.4 3.5 3.9 10.1 6.5 19.5 6.5 5.4 0 9.9-1.3 13.4-3 3.5-1.6 6.1-4.2 8.1-7.4 1.9-3.2 2.9-6.7 2.9-10.4 0-3.2-0.8-6.1-2.2-8.7-1.4-2.5-3.8-4.7-7-6.5-3.2-1.7-8.7-3.5-16.2-5.2-3.1-0.7-5.1-1.5-6-2.4q-1.4-1.2-1.4-2.9 0-2.1 1.7-3.6 1.7-1.5 4.8-1.5 3.9 0 6.1 2c1.6 1.4 2.6 3.1 3 5.3l15.2-1.4c-0.7-5.6-2.6-9.2-6.4-12-3.7-2.8-9-4.9-16-4.9-5.8 0-9.6 0.7-13.7 2.8-3.2 1.6-5.8 3.9-7.4 6.5-1.6 2.7-2.5 5.5-2.5 8.5 0 4.6 1.7 8.4 4.8 11.3 3.2 3 8.6 5.4 16.1 7.2 4.7 1.1 7.7 2.3 9.1 3.6q2 1.9 2 4.5 0 2.6-2.1 4.6-2.2 2-6.1 2c-3.4 0-6.1-1.3-8-3.8-1.3-1.8-2-3.6-2.3-5.9z"/><path class="b" d="m3359.9 564.6c-1.2-0.9-2.4-1.9-4.3-1.9-3.9 0.1-6.1 2.7-6.1 6.2 0 3.4 2.1 6.2 5.7 6.2 0.9 0 1.7-0.3 2.2-0.5v-4h-3.5v-2.7l7.8 0.1v7.5c-1.5 1.7-4.7 2.4-6.5 2.4-5.4 0-9.6-3.1-9.6-8.8 0-5.8 3.8-8.9 9.6-9 2.4-0.1 4.9 1.1 6 2z"/><path fill-rule="evenodd" class="b" d="m3378.7 576.5c-1.2 0.7-2.6 1-4.3 1-4.1 0-6.5-2.3-6.5-6.4 0-3.6 1.9-6.6 5.8-6.6 4.6 0 6.3 3.2 6.3 7.5h-8.1c0.2 2 0.9 2.8 3 3 1.6 0.1 2.6-0.4 3.8-1.1zm-2.2-6.7c-0.1-1.6-0.8-3-2.6-3-1.8 0-2 1.3-2.2 3z"/><path fill-rule="evenodd" class="b" d="m3381.7 565.5c1.3-0.6 3-1.2 4.3-1.2 3.8 0 5.6 1.6 5.6 5.3v1.7c0 1.3 0 2.2 0 3.2 0 0.9 0.1 1.8 0.2 2.7h-3.2c-0.2-0.6-0.2-0.5-0.2-0.9-0.7 1.4-3.4 1.2-3.7 1.2-2.2 0-4.3-1.3-4.3-3.7 0-1.8 0.9-2.9 2.1-3.6 1.1-0.6 2.4-1 3.8-1l1.8-0.1c0-2-0.5-2.4-2.5-2.4-1.3 0-2.7 0.7-3.8 1.5zm3.8 9.7c1 0.1 1.7 0 2.2-0.6 0.8-0.8 0.6-2.1 0.6-3h-1.3c-1.4 0-2.8 0.2-2.8 2.1 0 0.9 0.4 1.5 1.3 1.5z"/><path fill-rule="evenodd" class="b" d="m3409.9 564.1c3.6 0 6.3 2.7 6.3 6.9 0 3.6-2.3 6.5-6.3 6.5-3.9 0-6.4-2.9-6.4-6.5 0-4.2 2.9-6.9 6.4-6.9zm0 10.9c1.9-0.1 2.5-2.3 2.5-4.4 0-1.9-1-3.7-2.5-3.7-1.7 0-2.6 1.8-2.6 3.7 0 2.1 0.5 4.4 2.6 4.4z"/><path fill-rule="evenodd" class="b" d="m3457.2 564.1c3.5 0 6.2 2.7 6.2 6.9 0 3.6-2.3 6.5-6.2 6.5-4 0-6.4-2.9-6.4-6.5 0-4.2 2.9-6.9 6.4-6.9zm-0.1 10.9c1.9-0.1 2.5-2.3 2.5-4.4 0-1.9-1-3.7-2.4-3.7-1.7 0-2.6 1.8-2.6 3.7 0 2.1 0.4 4.4 2.5 4.4z"/><path class="b" d="m3417.1 564.4h3.7v1.5-0.2c1-1.3 2-1.6 3.7-1.6 3 0 4.3 2.1 4.2 5.3v7.8h-3.8v-6.6c0-1.5 0.2-4.1-1.9-4.1-2.4 0-2.1 3.1-2.1 4.6v6.1h-3.8z"/><path fill-rule="evenodd" class="b" d="m3488.7 582.2h-3.5v-14.1-2.4l-0.1-1.3h3.4v1.7q0.6-0.8 1.5-1.3 1-0.6 2.4-0.6 2.2 0 3.5 1.4 1.7 1.7 1.7 4.9 0 2-0.6 3.5-0.6 1.6-1.8 2.4-1.3 0.8-3 0.8-1.3 0-2.2-0.5-0.8-0.4-1.3-1.1zm2.8-15.1q-1.1 0-2 1-0.8 0.9-0.8 2.8 0 1.8 0.8 2.7 0.8 0.9 1.9 0.9 1 0 1.8-0.9 0.8-1 0.8-2.9 0-1.8-0.8-2.8-0.6-0.8-1.7-0.8z"/><path fill-rule="evenodd" class="b" d="m3499.7 565.5c1.2-0.6 2.9-1.2 4.3-1.2 3.8 0 5.6 1.6 5.6 5.3v1.7c0 1.3 0 2.2 0 3.2 0 0.9 0.1 1.8 0.1 2.7h-3.2c-0.1-0.6-0.1-0.5-0.1-0.9-0.8 1.4-3.5 1.2-3.7 1.2-2.2 0-4.4-1.3-4.4-3.7 0-1.8 1-2.9 2.2-3.6 1.1-0.6 2.4-1 3.8-1l1.8-0.1c0-2-0.6-2.4-2.5-2.4-1.4 0-2.7 0.7-3.8 1.5zm3.8 9.7c1 0.1 1.7 0 2.2-0.6 0.8-0.8 0.5-2.1 0.5-3h-1.2c-1.4 0-2.8 0.2-2.8 2.1 0 0.9 0.4 1.5 1.3 1.5z"/><path class="b" d="m3511.4 564.4h3.6v1.5l0.1-0.2c1-1.3 2-1.6 3.7-1.6 2.9 0 4.2 2.1 4.2 5.3v7.8h-3.8v-6.6c0-1.5 0.2-4.1-1.9-4.1-2.5 0-2.1 3.1-2.1 4.6v6.1h-3.8z"/><path class="b" d="m3526.7 582.2q-0.4 0-1.2-0.1-0.6-0.1-1.1-0.3h-0.1l0.3-2.7 0.1 0.1q0.8 0.2 1.5 0.2 0.8 0 1.4-0.5 0.6-0.6 0.8-1.4l-4.9-13.3h3.8l3 8.9 2.9-8.9h3.6l-5.1 13.5-0.6 1.4q-0.4 0.9-0.9 1.6-0.6 0.6-1.5 1.1-1 0.4-2 0.4z"/><path class="b" d="m3483.6 577.2h-3.5v-7q0-1.4-0.2-1.9-0.1-0.6-0.6-0.8c-0.6-0.5-1.4-0.4-2.1 0.1q-0.6 0.4-0.8 1.2-0.3 0.9-0.3 1.7v6.7h-3.5v-7.7q0-1.2-0.5-1.8-0.5-0.5-1.3-0.5-0.9 0-1.6 0.8-0.7 0.9-0.7 2.8v6.4h-3.5v-9.6l-0.1-2.1q0-0.5 0-1v-0.1h3.3l0.1 1.7q0.6-0.8 1.5-1.3 1-0.6 2.3-0.6 1.5 0 2.4 0.7 0.7 0.5 1.1 1.4 0.3-0.5 0.6-0.8 0.7-0.6 1.6-1 0.9-0.3 1.8-0.3 1.2 0 2.1 0.5 0.8 0.5 1.3 1.2 0.3 0.6 0.5 1.7 0.1 0.8 0.1 2.2z"/><path class="b" d="m3445.9 577.6q-2.4 0-4.4-0.8-2.3-0.9-3.6-3-1.3-2-1.3-4.9c0-2.6 0.8-4.8 2.4-6.4q2.5-2.4 6.6-2.4 2.3 0 4.3 0.7h0.1l-0.3 3.2-0.1-0.1q-0.8-0.3-1.9-0.5-1.1-0.3-2-0.3-1.5 0-2.7 0.7-1.2 0.7-1.8 2.1-0.7 1.3-0.7 2.9 0 2.6 1.6 4.1 1.6 1.6 4.1 1.6 1.8 0 3.5-0.7h0.2l0.1 3.3q-0.7 0.2-1.9 0.4-1.2 0.1-2.2 0.1z"/><path class="b" d="m3363 560.1h3.6v17.1h-3.6z"/><path fill-rule="evenodd" class="b" d="m3337.4 577.2h-4.1l-1.4-3.9h-6.7l-1.5 3.9h-3.8l6.7-17.1h4zm-11.1-6.8h4.6l-2.3-6.4z"/><path class="b" d="m3402.5 568.2c-1.8-1.3-3.1-1.7-3.9-1.7-0.8 0-2 0.4-1.7 1.4 0.5 1.4 6.2 1.3 6.2 5.7 0 2.8-1.9 4-5.4 4-2.1 0-4.1-1.1-4.7-1.4v-2.2c1.4 0.6 2.7 1.3 4.3 1.3 1.2 0 2-0.5 2-1.1 0-1.9-6.6-1.6-6.6-5.9 0-2.4 2.2-4.1 5.5-4.1 1.7 0 3.4 0.9 4.7 1.7z"/></svg>