<svg version="1.2" xmlns="http://www.w3.org/2000/svg" viewBox="0 0 3602 3602" width="3602" height="3602"><style>.a{fill:none}.b{fill:#fff}.c{fill:none;stroke:#fff;stroke-width:1.8}.d{fill:#fff;stroke:#fff;stroke-width:.4}</style><path class="a" d="m-0.2 1263h3602v1076h-3602z"/><path fill-rule="evenodd" class="b" d="m397.1 1849.7h-12.6v-0.8c2.2-0.1 3.3-0.6 3.3-1.7 0-0.6-0.3-1.6-1-2.9l-1.9-4.1h-12.4l-2.2 4.5c-0.5 1.1-0.8 1.9-0.8 2.5 0 1 1.3 1.6 3.8 1.7v0.8h-10.1v-0.8c1.2-0.2 2.1-0.4 2.7-0.9 0.5-0.4 1.4-1.7 2.5-3.9l11.3-23.4h0.8l11.1 23.6c0.8 1.7 1.6 2.8 2.3 3.5 0.7 0.7 1.8 1.1 3.2 1.1zm-12.9-11l-5.4-11.5-5.5 11.5z"/><path fill-rule="evenodd" class="b" d="m553.5 1849.7h-12.6v-0.8c2.2-0.1 3.3-0.6 3.3-1.7 0-0.6-0.3-1.6-1-2.9l-1.9-4.1h-12.4l-2.2 4.5c-0.5 1.1-0.8 1.9-0.8 2.5 0 1 1.3 1.6 3.8 1.7v0.8h-10.1v-0.8c1.2-0.2 2.1-0.4 2.7-0.9 0.6-0.4 1.4-1.7 2.5-3.9l11.3-23.4h0.8l11.1 23.6c0.8 1.7 1.6 2.8 2.3 3.5 0.7 0.7 1.8 1.1 3.2 1.1zm-12.9-11l-5.4-11.5-5.5 11.5z"/><path class="b" d="m418.3 1844l-1.9 5.7h-17.2v-0.6h0.8q1.1 0 1.8-0.6c0.4-0.4 0.6-1.3 0.6-2.8v-14.8q0-2.3-0.6-2.8-0.6-0.5-1.8-0.5h-0.8v-0.6h17.2l0.3 5h-0.7c-0.3-1.6-0.7-2.6-1.2-3.1q-0.9-0.7-3.1-0.7h-6.2v9h5c1.1 0 2-0.2 2.5-0.6 0.6-0.4 0.9-1.2 1-2.7h0.6v7.9h-0.6c-0.2-1.5-0.5-2.5-1.1-2.9-0.6-0.3-1.5-0.5-2.4-0.5h-5v7.5q0 1.6 0.4 2.1 0.3 0.5 1.5 0.5h3.8q2.4 0 3.7-0.8c0.8-0.5 1.8-1.7 2.8-3.7z"/><path fill-rule="evenodd" class="b" d="m442.9 1849.7h-6.3l-8-10.6h-2.4v6.6c0 1.5 0.2 2.5 0.6 2.8q0.7 0.6 1.8 0.6h1v0.6h-10.1v-0.6h0.9c1 0 1.6-0.3 2-0.7 0.3-0.5 0.5-1.4 0.5-2.7v-14.7q0-2.3-0.7-2.8c-0.4-0.4-1-0.6-1.8-0.6h-0.9v-0.6h8.5c2.2 0 3.8 0.1 5.1 0.3 1.3 0.4 2.4 1 3.3 2 1 1 1.4 2.2 1.4 3.5 0 3.1-1.9 5-5.7 5.8l4.8 6.6c1.2 1.6 2.3 2.6 3.1 3.1q1.3 0.7 2.9 0.8zm-16.7-21.2v9.5h1c2 0 3.7-0.4 4.9-1.3 1.3-0.8 1.8-2.1 1.8-3.7 0-1.6-0.5-2.8-1.5-3.6-1-0.8-2.2-1.2-3.5-1.2q-1.6 0-2.7 0.3z"/><path class="b" d="m470.1 1827.6h-0.9c-1.2 0-1.9 0.2-2.3 0.7-0.3 0.5-0.5 1.3-0.5 2.6v19.2h-0.7l-17.5-18.3v14q0 2.2 0.8 2.8c0.5 0.3 1.1 0.5 2 0.5h1v0.6h-9.3v-0.6h1q1.2 0 2-0.5 0.8-0.6 0.8-2.8v-15.9c-0.9-0.8-1.7-1.5-2.5-1.8q-1.2-0.5-2.7-0.5v-0.6h7.2l16.1 17v-13.1q0-2.2-0.7-2.8c-0.5-0.3-1.2-0.5-2.1-0.5h-0.9v-0.6h9.2z"/><path fill-rule="evenodd" class="b" d="m498.3 1838.1c0 3.3-1.2 6.1-3.7 8.5-2.5 2.3-5.7 3.5-9.6 3.5-2.6 0-4.8-0.5-6.8-1.6q-2.9-1.5-4.6-4.2c-1.1-1.8-1.8-3.8-1.8-6.2 0-3.4 1.3-6.2 4-8.5 2.6-2.2 5.8-3.3 9.6-3.3q3.7 0 6.6 1.6c1.9 1 3.4 2.3 4.6 4.1 1.2 1.8 1.7 3.8 1.7 6.1zm-4.5 0.4c0-7.3-3-11-8.8-11q-2.4 0-4.3 1.1c-1.3 0.7-2.3 1.9-3.1 3.4-0.8 1.6-1.2 3.6-1.2 6 0 3.3 0.8 6 2.3 7.9q2.2 3 6.3 3 4.3 0 6.5-2.8c1.5-1.9 2.3-4.4 2.3-7.6z"/><path class="b" d="m526 1827.1q-2.6 0.2-4 3.3l-9.4 19.3h-0.8l-10.1-19.6c-0.6-1.1-1.1-1.9-1.6-2.3-0.5-0.4-1.5-0.6-2.7-0.7v-0.6h11v0.6q-3 0.2-3 1.5 0 0.9 1 2.6l6.8 13.4 6.4-13.2q0.9-1.9 0.9-2.7c0-0.4-0.1-0.7-0.4-0.9-0.3-0.3-1.1-0.5-2.4-0.7v-0.6h8.3z"/><path class="b" d="m379.4 1809.9c0 3.8 2.2 6 5.2 6 3 0 5.2-2.2 5.2-6v-38.4h12.4c3.3 0 4.7-2.7 4.7-5.3 0-2.7-1.7-5.3-4.7-5.3h-35.2c-3 0-4.7 2.6-4.7 5.3 0 2.6 1.3 5.3 4.7 5.3h12.4z"/><path fill-rule="evenodd" class="b" d="m410.3 1767.3c1.1-3.5 3.8-6.4 7.3-6.4 3.7 0 6.2 2.7 7.4 6.4l13.5 41.6c0.4 1.2 0.6 2.3 0.6 2.8 0 3-2.2 5.1-4.8 5.1-2.9 0-4.3-1.7-5-4l-2.1-7.2h-19.1l-2.1 7.1c-0.7 2.4-2.1 4.1-4.9 4.1-2.8 0-5.1-2.3-5.1-5.4 0-1.2 0.3-2.1 0.4-2.5zm0.8 27.8h13.1l-6.4-22.2h-0.2z"/><path class="b" d="m440.6 1810c-0.1 0.4-0.1 0.9-0.1 1.3 0 3.3 2.2 5.5 5 5.5 3.5 0 4.9-1.8 5.4-5.4l4-31.1h0.2l8.2 32c0.5 1.9 1.8 4.5 5.5 4.5 3.7 0 5.1-2.6 5.5-4.5l8.3-32h0.1l4.1 31.1c0.5 3.6 1.9 5.4 5.4 5.4 2.7 0 4.9-2.2 4.9-5.5 0-0.4 0-0.9 0-1.3l-6.4-42.7c-0.5-2.8-3.1-5.9-6.8-5.9-3.4 0-6.1 2.7-6.9 5.5l-8.1 30.3h-0.1l-8.2-30.3c-0.7-2.8-3.4-5.5-6.9-5.5-3.6 0-6.3 3.1-6.7 5.9z"/><path fill-rule="evenodd" class="b" d="m512.8 1767.3c1.2-3.5 3.8-6.4 7.4-6.4 3.6 0 6.2 2.7 7.3 6.4l13.5 41.6c0.4 1.2 0.6 2.3 0.6 2.8 0 3-2.2 5.1-4.8 5.1-2.9 0-4.3-1.7-5-4l-2.1-7.2h-19.1l-2.1 7.1c-0.7 2.4-2.1 4.1-4.9 4.1-2.8 0-5.1-2.3-5.1-5.4 0-1.2 0.3-2.1 0.4-2.5zm0.8 27.8h13.1l-6.4-22.2h-0.2z"/><path fill-rule="evenodd" class="b" d="m552.2 1770.5q-1.7 1.7-4.2 1.7-2.5 0-4.3-1.7-1.7-1.8-1.7-4.3 0-2.5 1.7-4.2 1.8-1.8 4.3-1.8 2.5 0 4.2 1.8 1.8 1.7 1.8 4.2 0 2.5-1.8 4.3zm-7.9-8q-1.5 1.5-1.5 3.7 0 2.2 1.5 3.7 1.5 1.5 3.7 1.5 2.1 0 3.6-1.5 1.5-1.5 1.5-3.7 0-2.2-1.5-3.7-1.5-1.5-3.6-1.5-2.2 0-3.7 1.5zm3.6 0.4q1.2 0 1.8 0.2 1 0.4 1 1.7 0 0.9-0.7 1.3-0.3 0.2-0.9 0.3 0.8 0.1 1.1 0.7 0.4 0.5 0.4 1v0.5q0 0.2 0 0.5 0 0.2 0 0.3l0.1 0.1h-1.1q0-0.1 0-0.1 0 0 0-0.1l-0.1-0.2v-0.5q0-1.1-0.6-1.5-0.4-0.2-1.3-0.2h-0.9v2.6h-1.2v-6.6zm1.3 1q-0.4-0.2-1.4-0.2h-1v2.4h1q0.8 0 1.2-0.2 0.6-0.3 0.6-1 0-0.7-0.4-1z"/><path fill-rule="evenodd" class="b" d="m369.1 1866.5l-0.7-1.5h-3.1l-0.7 1.5q0 0-0.1 0.1 0 0-0.1 0.2-0.2 0.4-0.2 0.7 0 0.6 0.7 0.9v0.1q-0.1 0-0.5 0-0.4-0.1-0.8-0.1-0.4 0-0.9 0.1-0.3 0-0.4 0v-0.1q0.9-0.5 1.6-1.9l2.7-5.2q-0.3-0.6-0.9-1-0.5-0.3-1.2-0.3v-0.2h0.3q0.3 0 1 0.1 0.7 0 0.9 0l4.1 8.5q-0.8 0.1-1.9 0.1v-0.1q0.6-0.1 0.6-0.7 0-0.4-0.4-1.2zm-3.4-2.1h2.4l-1.2-2.5zm5.8 4.1l-4.1-8.5h0.8q0.2 0.4 0.5 1 0.3 0.7 0.3 0.8 0.1 0.1 0.1 0.2l1.9 3.9q1 2.1 2.1 2.5v0.2q-1.1-0.1-1.6-0.1z"/><path class="b" d="m375.8 1859.9v8.5q-0.6 0-1.8 0.1v-0.1q0.6-0.2 0.9-0.7 0.2-0.6 0.2-1.9v-3.7q0-1-0.2-1.5-0.3-0.5-0.9-0.6v-0.2q1 0.1 1.8 0.1zm0.6 8.5v-8.5q1 0 1.7-0.1v0.2q-0.4 0-0.7 0.5-0.4 0.4-0.4 1.8v3.9q0 1.2 0.4 1.6 0.3 0.5 0.7 0.6v0.1q-0.7-0.1-1.7-0.1z"/><path fill-rule="evenodd" class="b" d="m382.1 1868.4h-0.2v-8.5q0.4 0 1 0 0.6-0.1 1-0.1 1.1 0 1.6 0.7 0.6 0.7 0.6 1.6 0 1.7-1.4 2.2 0.7 0.1 1.2 0.4 0.5 0.4 1.5 1.4 1.6 1.6 2.6 1.6 0.2 0 0.4-0.1v0.1q-0.3 0.4-0.9 0.4-0.6 0-1.3-0.4-0.6-0.5-1.8-1.7-1.6-1.6-3-1.6 0.9 0.3 2.4 1.9 1.1 1.1 1.7 1.6 0.7 0.5 1.2 0.5-0.2 0.1-0.5 0.1-0.8 0-1.4-0.4-0.3-0.2-0.7-0.6-0.5-0.5-1.2-1.2-0.9-1-1.4-1.4-0.5-0.4-1-0.5v1.9q0 1.9 1.2 2.1v0.1q-1-0.1-1.6-0.1zm0.4-6.3v1.8q0.5 0.1 1 0.1 1.9 0 1.9-1.9 0-1.8-1.8-1.8-0.6 0-0.9 0.3-0.2 0.3-0.2 1.5zm-1.2-2.2v8.5h-0.4q-0.2 0-0.6 0.1-0.4 0-0.9 0v-0.1q0.5-0.1 0.9-0.5 0.3-0.5 0.3-1.8v-4.1q0-1.8-1.2-2v-0.2q0.5 0.1 1.9 0.1zm4.9 4q0.5-0.9 0.5-1.9 0-0.9-0.6-1.8 1.4 0.6 1.4 1.9 0 1.3-1.3 1.8z"/><path class="b" d="m396.7 1859.9v8.5q-0.8 0-1.8 0.1v-0.1q0.6-0.2 0.8-0.7 0.3-0.5 0.3-1.7v-4q0-1-0.3-1.5-0.3-0.4-0.8-0.5v-0.2q0.9 0.1 1.8 0.1zm0.9 8.5h-0.3v-8.5h2q0.8 0 2.3-0.1 0 0.2 0 0.6 0 0.2 0 0.7 0 0.6 0 0.6v0.2h-0.1q-0.3-1.4-1.4-1.4h-1.6q-0.2 0-0.5 0-0.1 0.7-0.1 1.7v1.7h1.4q0.9 0 1.4-0.2 0.4-0.2 0.5-0.8h0.2q-0.1 0.9-0.1 1.2 0 0.2 0.1 0.7 0 0.4 0 0.7v0.2h-0.2q0-1.3-1.4-1.3h-1.9v1.9q0 1.8 1.1 2.1v0.1q-1.1-0.1-1.4-0.1z"/><path class="b" d="m404.5 1859.9v8.5q-0.6 0-1.8 0.1v-0.1q0.7-0.2 0.9-0.7 0.2-0.6 0.2-1.9v-3.7q0-1-0.2-1.5-0.3-0.5-0.9-0.6v-0.2q1 0.1 1.8 0.1zm0.6 8.5v-8.5q1 0 1.8-0.1v0.2q-0.5 0-0.8 0.5-0.3 0.4-0.3 1.8v3.9q0 1.2 0.3 1.6 0.3 0.5 0.8 0.6v0.1q-0.8-0.1-1.8-0.1z"/><path class="b" d="m408.3 1859.8l1.7 0.1v8.5h-0.6q-0.4 0-1.1 0.1v-0.1q0.5-0.3 0.8-0.8 0.2-0.5 0.2-1.6v-3.9q0-1.2-0.3-1.6-0.4-0.5-0.7-0.5zm6 8.6h-3.8v-8.5q0.6-0.1 1.3-0.1 0.6 0 0.5 0v0.1q-0.6 0.2-0.8 0.6-0.3 0.5-0.3 1.5v3.5q0 0.8 0.1 1.4 0.1 0.7 0.1 0.8 0.1 0.1 0.5 0.1h1.7q0.9 0 1.5-0.3 0.6-0.3 1-1.1h0.2q0 0.4-0.4 1.2-0.2 0.6-0.2 0.9-0.7-0.1-1.4-0.1z"/><path class="b" d="m417.3 1859.9h2.7v8.5h-0.2q-0.6 0-1.6 0.1v-0.1q0.7-0.2 0.9-0.7 0.3-0.5 0.3-1.7v-5.5h-2.1q-0.8 0-1.1 0.3-0.3 0.3-0.6 1.2h-0.1q-0.1-0.1-0.1-0.2 0.1-0.2 0.1-0.4 0.1-0.9 0.1-1.6 0.4 0.1 1.1 0.1zm3.4 8.5h-0.2v-8.5h2.9q0.8 0 1.6-0.1 0 0.1 0 0.6 0 0.3 0 0.9 0 0.3-0.1 0.7h-0.2q0-0.7-0.3-1.1-0.3-0.4-1.4-0.4h-1.8v5.7q0 1 0.3 1.5 0.3 0.5 0.9 0.7v0.1q-1.5-0.1-1.7-0.1z"/><path fill-rule="evenodd" class="b" d="m428.5 1868.4h-0.2v-8.5q0.5 0 1 0 0.6-0.1 1-0.1 1.2 0 1.7 0.7 0.5 0.7 0.5 1.6 0 1.7-1.4 2.2 0.7 0.1 1.2 0.4 0.5 0.4 1.5 1.4 1.6 1.6 2.6 1.6 0.2 0 0.4-0.1l0.1 0.1q-0.4 0.4-0.9 0.4-0.7 0-1.3-0.4-0.7-0.5-1.9-1.7-1.5-1.6-2.9-1.6 0.9 0.3 2.3 1.9 1.1 1.1 1.8 1.6 0.6 0.5 1.2 0.5-0.3 0.1-0.6 0.1-0.7 0-1.3-0.4-0.3-0.2-0.8-0.6-0.5-0.5-1.1-1.2-1-1-1.5-1.4-0.5-0.4-0.9-0.5v1.9q0 1.9 1.1 2.1v0.1q-1-0.1-1.6-0.1zm0.5-6.3v1.8q0.4 0.1 1 0.1 1.8 0 1.8-1.9 0-1.8-1.8-1.8-0.6 0-0.9 0.3-0.1 0.3-0.1 1.5zm-1.3-2.2v8.5h-0.4q-0.2 0-0.6 0.1-0.4 0-0.9 0v-0.1q0.6-0.1 0.9-0.5 0.3-0.5 0.3-1.8v-4.1q0-1.8-1.2-2v-0.2q0.6 0.1 1.9 0.1zm4.9 4q0.5-0.9 0.5-1.9 0-0.9-0.6-1.8 1.4 0.6 1.4 1.9 0 1.3-1.3 1.8z"/><path fill-rule="evenodd" class="b" d="m443.8 1866.5l-0.7-1.5h-3l-0.8 1.5q0 0 0 0.1 0 0-0.1 0.2-0.2 0.4-0.2 0.7 0 0.6 0.6 0.9v0.1q-0.1 0-0.4 0-0.5-0.1-0.9-0.1-0.3 0-0.8 0.1-0.4 0-0.5 0v-0.1q0.9-0.5 1.6-1.9l2.7-5.2q-0.3-0.6-0.8-1-0.6-0.3-1.3-0.3v-0.2h0.3q0.4 0 1 0.1 0.7 0 0.9 0l4.1 8.5q-0.8 0.1-1.9 0.1v-0.1q0.6-0.1 0.6-0.7 0.1-0.4-0.4-1.2zm-3.4-2.1h2.4l-1.1-2.5zm5.7 4.1l-4.1-8.5h0.8q0.2 0.4 0.5 1 0.3 0.7 0.3 0.8 0.1 0.1 0.1 0.2l1.9 3.9q1 2.1 2.1 2.5v0.2q-1.1-0.1-1.6-0.1z"/><path class="b" d="m448.4 1859.9h2.7v8.5h-0.2q-0.6 0-1.6 0.1v-0.1q0.7-0.2 0.9-0.7 0.2-0.5 0.2-1.7v-5.5h-2q-0.8 0-1.1 0.3-0.3 0.3-0.6 1.2h-0.1q-0.1-0.1-0.1-0.2 0-0.2 0.1-0.4 0.1-0.9 0.1-1.6 0.4 0.1 1 0.1zm3.5 8.5h-0.2v-8.5h2.9q0.8 0 1.6-0.1 0 0.1 0 0.6 0 0.3 0 0.9 0 0.3-0.1 0.7h-0.2q0-0.7-0.3-1.1-0.3-0.4-1.4-0.4h-1.8v5.7q0 1 0.3 1.5 0.3 0.5 0.8 0.7v0.1q-1.4-0.1-1.6-0.1z"/><path class="b" d="m459 1859.9v8.5q-0.6 0-1.8 0.1v-0.1q0.6-0.2 0.9-0.7 0.2-0.6 0.2-1.9v-3.7q0-1-0.2-1.5-0.3-0.5-0.9-0.6v-0.2q1 0.1 1.8 0.1zm0.6 8.5v-8.5q1 0 1.8-0.1v0.2q-0.5 0-0.8 0.5-0.3 0.4-0.3 1.8v3.9q0 1.2 0.3 1.6 0.3 0.5 0.8 0.6v0.1q-0.8-0.1-1.8-0.1z"/><path fill-rule="evenodd" class="b" d="m471 1864.1q0 1.5-0.4 2.5-0.5 1.1-1.3 1.6-0.8 0.4-1.8 0.4-1.7 0.1-2.6-1.2-0.9-1.2-0.9-3.3 0-2.2 0.9-3.3 0.9-1.2 2.6-1.2 1.6 0 2.6 1.2 0.9 1.1 0.9 3.3zm-0.7 0q0-3.8-2.8-3.8-2.8 0-2.8 3.9 0 3.8 2.8 3.8 2.8 0 2.8-3.9zm-6.1-3.4q-0.9 1.3-0.9 3.5 0 1.9 0.9 3.4-1.6-1.1-1.6-3.5 0-2.4 1.6-3.4zm6.5 6.9q0.9-1.2 0.9-3.6 0-2.1-0.8-3.3 1.6 1 1.6 3.4 0 2.4-1.7 3.5z"/><path class="b" d="m473.4 1859.9l9.3 8v0.6h-0.2l-7.3-6.2v3.7q0 1.3 0.3 1.8 0.3 0.4 1 0.6v0.1q-1.2-0.1-1.7-0.1-0.4 0-1.4 0.1v-0.1q0.7-0.2 0.9-0.7 0.3-0.5 0.3-1.7v-4.2l-0.6-0.5q-1.2-1.1-2.1-1.3v-0.2zm9.3 7.2l-8.4-7.2h1l6.8 5.8v-3.4q0-0.8-0.1-1.3-0.1-0.4-0.5-0.7-0.3-0.3-0.9-0.4v-0.1q0 0 0.3 0 1.1 0.1 1.5 0.1 0.3 0 1.6-0.1v0.1q-0.4 0.1-0.7 0.4-0.3 0.3-0.4 0.7-0.2 0.4-0.2 1.1z"/><path class="b" d="m494.9 1862.3h-0.2q0-1-0.7-1.4-0.7-0.5-1.8-0.5-0.8 0-1.3 0.4-0.5 0.3-0.5 0.8 0 0.5 0.4 0.8 0.4 0.3 1.7 0.8 1.2 0.4 1.7 0.6 0.5 0.3 0.8 0.9 0.4 0.5 0.4 1.2 0 1-0.8 1.6 0.3-0.4 0.3-1.1 0-0.7-0.3-1.2-0.3-0.5-0.8-0.8-0.4-0.3-1.5-0.6-1.6-0.6-2.1-0.9-0.5-0.4-0.5-1.2 0-0.9 0.8-1.4 0.7-0.6 2.1-0.6 0.9 0 2.3 0.4v0.3q0 0.3 0 0.6 0 0.4 0 0.7 0 0.2 0 0.6zm-5.7 3.3h0.2q0 1.1 0.8 1.7 0.8 0.7 1.7 0.7 0.8 0 1.3-0.4 0.5-0.5 0.5-1.1 0-0.6-0.5-0.9-0.4-0.4-1.7-0.8-1.1-0.3-1.5-0.6-0.6-0.2-0.8-0.7-0.4-0.5-0.4-1 0-0.7 0.5-1.3-0.1 0.3-0.1 0.6 0 0.6 0.3 1.1 0.3 0.5 0.7 0.7 0.5 0.3 1.5 0.6 1.4 0.4 2 0.9 0.6 0.5 0.6 1.4 0 0.8-0.6 1.4-0.6 0.7-1.9 0.7-0.4 0-1.3-0.2-0.8-0.1-1.2-0.1l-0.1-0.1q0.1-0.1 0-0.4 0-0.2 0-0.8 0-0.5 0-0.8 0-0.3 0-0.6z"/><path class="b" d="m502.4 1868.4v-4.3l-4.1-4.2h0.3q0.9 0 1.9-0.1v0.2q-0.4 0.1-0.4 0.4 0 0.4 0.9 1.4l1.7 1.8 1.6-1.8q0.6-0.7 0.6-1.2 0-0.5-0.6-0.6v-0.2q0.2 0 1 0.1 0.3 0 0.6 0 0.1 0 1.4-0.1v0.2q-0.6 0.1-1 0.5-0.3 0.3-0.8 0.8 0 0.1-0.1 0.2l-2.4 2.7v2.1q0 1.8 1.2 2.1v0.1q-1.5-0.1-1.5-0.1zm-4.9-8.5l4.2 4.5v4h-0.2q-0.7 0-1.6 0.1v-0.1q0.6-0.1 0.9-0.5 0.3-0.4 0.2-1.6v-1.8l-2.5-2.7q-1.5-1.5-2.7-1.8v-0.2q0.7 0.1 1.5 0.1z"/><path class="b" d="m513.7 1862.3h-0.2q0-1-0.8-1.4-0.7-0.5-1.7-0.5-0.8 0-1.4 0.4-0.5 0.3-0.5 0.8 0 0.5 0.4 0.8 0.5 0.3 1.8 0.8 1.1 0.4 1.6 0.6 0.5 0.3 0.9 0.9 0.3 0.5 0.3 1.2 0 1-0.7 1.6 0.2-0.4 0.3-1.1 0-0.7-0.4-1.2-0.3-0.5-0.7-0.8-0.5-0.3-1.6-0.6-1.6-0.6-2-0.9-0.5-0.4-0.5-1.2 0-0.9 0.7-1.4 0.8-0.6 2.1-0.6 1 0 2.3 0.4v0.3q0 0.3 0 0.6 0.1 0.4 0.1 0.7 0 0.2 0 0.6zm-5.8 3.3h0.2q0.1 1.1 0.9 1.7 0.7 0.7 1.7 0.7 0.8 0 1.2-0.4 0.5-0.5 0.5-1.1 0-0.6-0.5-0.9-0.4-0.4-1.7-0.8-1.1-0.3-1.5-0.6-0.5-0.2-0.8-0.7-0.3-0.5-0.3-1 0-0.7 0.4-1.3-0.1 0.3-0.1 0.6 0 0.6 0.3 1.1 0.3 0.5 0.8 0.7 0.4 0.3 1.5 0.6 1.4 0.4 2 0.9 0.6 0.5 0.6 1.4 0 0.8-0.6 1.4-0.7 0.7-1.9 0.7-0.5 0-1.4-0.2-0.8-0.1-1.2-0.1v-0.1q0-0.1 0-0.4 0-0.2-0.1-0.8 0-0.5 0-0.8 0-0.3 0-0.6z"/><path class="b" d="m516.7 1859.9h2.7v8.5h-0.3q-0.5 0-1.5 0.1v-0.1q0.6-0.2 0.9-0.7 0.2-0.5 0.2-1.7v-5.5h-2q-0.8 0-1.1 0.3-0.4 0.3-0.6 1.2h-0.2q0-0.1 0-0.2 0-0.2 0-0.4 0.1-0.9 0.1-1.6 0.5 0.1 1.1 0.1zm3.5 8.5h-0.2v-8.5h2.9q0.8 0 1.6-0.1 0 0.1-0.1 0.6 0 0.3 0 0.9 0 0.3 0 0.7h-0.2q0-0.7-0.3-1.1-0.4-0.4-1.4-0.4h-1.8v5.7q0 1 0.2 1.5 0.3 0.5 0.9 0.7v0.1q-1.4-0.1-1.6-0.1z"/><path class="b" d="m530.9 1868.4h-3.3v-8.5h2.4q0.6 0 2.5-0.1 0 0.3 0 0.4 0 0.2 0 0.8 0 0.3 0 0.4v0.2h-0.1q-0.3-0.7-0.7-0.9-0.3-0.2-1.4-0.2h-1.3q-0.2 0-0.5 0-0.2 0.3-0.2 1.3v0.6 1.3h1.8q0.9 0 1.3-0.2 0.3-0.2 0.5-0.8h0.2q-0.1 0.7-0.1 1.3 0 0.3 0 0.9 0 0.1 0.1 0.6h-0.2q-0.1-0.7-0.4-1-0.4-0.3-1.2-0.3h-2v1.8q0 1 0.1 1.8 0.4 0.1 0.7 0.1h1.3q1 0 1.5-0.3 0.5-0.2 1-1h0.2q-0.1 0.3-0.3 0.8-0.2 0.7-0.3 1.1-0.9-0.1-1.6-0.1zm-4.1-8.5h0.2v8.5h-0.5q-0.3 0-1.2 0.1v-0.1q0.5-0.1 0.7-0.4 0.2-0.3 0.3-0.7 0.1-0.4 0.1-1.8v-3.4q0-1.2-0.3-1.6-0.4-0.4-0.8-0.5v-0.2q0.5 0.1 1.5 0.1z"/><path class="b" d="m535.9 1859.9l3.7 7.9-0.3 0.7-3.4-7.1-0.2 4.8q0 0.8 0 0.6 0 1.4 1.1 1.6v0.1q0 0-0.3 0-0.9-0.1-1.1-0.1-0.4 0-1.4 0.1v-0.1q1-0.3 1.1-2.1l0.2-5.5q-0.5-0.6-1.3-0.8v-0.2q0.6 0.1 1.4 0.1zm8.1 8.5l-0.4-8.5h0.3q0.6 0 1.7-0.1v0.1q-0.6 0.1-0.9 0.5-0.3 0.5-0.3 1.1v0.8l0.2 3.9q0 1.1 0.3 1.6 0.3 0.5 0.9 0.6v0.1q-1.2-0.1-1.8-0.1zm-4.1-2.9l2.5-5.6h0.7l0.3 8.5h-0.3q-0.3 0-0.9 0l-0.5 0.1v-0.1q1-0.3 1-1.8 0 0 0-0.5l-0.3-4.8-2.5 5.7-3.4-7.1h0.7z"/><path class="b" d="m552.8 1862.3h-0.2q0-1-0.7-1.4-0.8-0.5-1.8-0.5-0.8 0-1.3 0.4-0.6 0.3-0.6 0.8 0 0.5 0.5 0.8 0.4 0.3 1.7 0.8 1.2 0.4 1.7 0.6 0.5 0.3 0.8 0.9 0.4 0.5 0.4 1.2 0 1-0.8 1.6 0.3-0.4 0.3-1.1 0-0.7-0.3-1.2-0.3-0.5-0.8-0.8-0.5-0.3-1.5-0.6-1.6-0.6-2.1-0.9-0.5-0.4-0.5-1.2 0-0.9 0.8-1.4 0.7-0.6 2.1-0.6 0.9 0 2.2 0.4l0.1 0.3q0 0.3 0 0.6 0 0.4 0 0.7 0 0.2 0 0.6zm-5.7 3.3h0.2q0 1.1 0.8 1.7 0.8 0.7 1.7 0.7 0.8 0 1.3-0.4 0.5-0.5 0.5-1.1 0-0.6-0.5-0.9-0.5-0.4-1.8-0.8-1-0.3-1.5-0.6-0.5-0.2-0.8-0.7-0.3-0.5-0.3-1 0-0.7 0.5-1.3-0.1 0.3-0.1 0.6 0 0.6 0.3 1.1 0.3 0.5 0.7 0.7 0.5 0.3 1.5 0.6 1.4 0.4 2 0.9 0.6 0.5 0.6 1.4 0 0.8-0.6 1.4-0.6 0.7-1.9 0.7-0.5 0-1.4-0.2-0.7-0.1-1.1-0.1l-0.1-0.1q0-0.1 0-0.4 0-0.2 0-0.8-0.1-0.5 0-0.8-0.1-0.3 0-0.6z"/><path class="c" d="m362.4 1854.8h191.1"/><path fill-rule="evenodd" class="b" d="m264.5 1766.6c12.7-7.7 31.1-7.4 43.2 1 13.9 9.2 21.2 26.5 17.6 42.8-0.7 2.8-1.7 6-2.8 8.8-6.9 15.2-23 24.7-40.1 23.7-14.2-0.6-29.5-11.1-34.8-24.7-6.1-14.6-3.7-31.8 7.1-43.7 3-3.2 6.1-5.8 9.8-7.9zm-17.1 36.7c2.7 0.8 5.9 0 8.5-0.5 1.6-0.4 3.1-1.4 4.6-1.5 0 3.9 1.1 8.5 2.8 12.2-2.5 3.8-6.2 6.4-9.9 8.7 2.4 4.9 9.7 10.7 14.3 13.3 2.6-3.5 4-7.9 4.5-12.3 3.7 2 7.8 3.3 12.1 3.6 1.7 2.9 2.2 5.4 2.5 9 0.4 1.4-0.1 2.7 0.3 4 6.6-0.3 13-2.3 18.4-5.9q-1.8-4.2-5.5-7.5c-0.9-0.9-2.1-1.8-3-2.6 3.4-2.2 7-4.9 9.2-8.6 4.5 0 8.7 1.7 12.6 4.2 3.3-5.9 4.5-12.7 4.2-19.3l-1.7-0.1c-3.5 0.2-9.7 1.4-11.3 2.5-0.2-4.3-0.7-8.2-2.8-11.9 2.4-3.8 5.9-7.2 9.9-8.9-3.1-5.5-8.6-10.4-14.4-13.4-2.8 3.7-3.7 8.1-4.4 12.4l-0.3 0.1c-3.6-2.1-7.8-3.2-11.9-3.7-1.9-4-2.8-8.5-2.5-13-6.8 0.2-13.4 2.5-18.6 5.8 1.6 4 4.8 7.4 8.4 10.2-3.6 2.1-6.8 5.1-9.2 8.5-4.6 0-8.7-2-12.6-4.2-2.7 4.9-4.3 14.4-4.2 18.9z"/><path class="b" d="m298.1 1783.5c0.6 3.4 1.9 6.5 3.8 9.5 1.5-0.7 3.5-2.7 3.2-1.5-4.3 5.6-10.6 9.3-17.6 9.6 6-4.4 9.3-10.6 10.6-17.6z"/><path class="b" d="m306.6 1804.8c-2.8 2-5 4.5-6.9 7.5 1.3 1 4 2 2.8 2.2-6.9-1.3-13-5.5-16.4-11.6 6.6 3.5 13.7 3.7 20.5 1.9z"/><path class="b" d="m293.5 1821.6c-3.2-1.3-6.5-1.9-10-2-0.2 1.7 0.3 4.5-0.5 3.6-2.4-6.7-2-14 1.6-20.1 0.3 7.5 3.8 13.7 8.9 18.5z"/><path class="b" d="m272.4 1819.3c-0.4-3.4-1.6-6.6-3.4-9.6-1.5 0.7-3.6 2.6-3.3 1.4 4.5-5.5 11-8.9 18-9-6.2 4.2-9.7 10.3-11.3 17.2z"/><path class="b" d="m263.3 1799.4c2.7-2.1 4.8-4.8 6.5-7.8-1.4-1-4.1-1.9-2.9-2.2 7 1 13.3 4.9 17 10.8-6.8-3.2-13.9-3-20.6-0.8z"/><path class="b" d="m277.2 1781.5c3.1 1.4 6.4 2.1 9.9 2.3 0.3-1.6-0.1-4.4 0.7-3.5 2.1 6.7 1.4 14.1-2.3 20-0.1-7.5-3.3-13.8-8.3-18.8z"/><path class="d" d="m286.2 1839.5c1.6-1 2.9-2.2 4-3.7q1.1-1.8 3-2.5c1.6-0.6 3.2-0.1 4.5 0.9q0.4 0.4 0.8 0.8 1.3 0.2 2.6 0.3c0.8 0.3 0.7 0.8 0.1 1.1h-0.1q-1.1 0-2.2 0.3c-0.7 0.1-1.1 0.5-1.2 1.3-0.1 0.4 0 0.9 0.1 1.3 1.3 0.2 2.6 0.2 3.7-0.4h0.1c3.7-1.2 7.5-1.8 11.4-2q5 0 9.5 2.2 5.2 2.8 9.8 6.7c2.6 2.2 5.4 4.3 8.3 6.3 1.4 1 3.3 1.7 5 2.2q2.7 0.6 5.5 0.5c1.6 0.2 1.5 0.8 0.1 1.3-2.9 0.6-6.2 0.4-9.2 0q-6.7-1.4-12.2-5.4c-3.2-2.2-6.9-3.6-10.8-4.4-4.3-1.1-9-1.5-13.3 0-4.3 1.8-8.4 4.8-12 7.8-3.4 2.4-7.3 3.7-11.3 4.3-3 1-5.2 3.1-6.7 5.8-0.4 1.7-1.6 3.1-3 4.1-1.3 0.8-2.8 0.7-4.1 0.1-1.3-0.5-1.5-2-1.3-3.2v-0.1c0.8-1.3 1.9-2.2 3.4-2.4 1.7-1 3-2.7 4-4.4 0.8-2.5 0.1-4.6-1.7-6.4-5.4-5.8-11.9-9.6-19.6-11.4-5.2-1.4-10.4-1.1-15.5 0.9-3.2 2.4-7 4.1-10.7 5.5-2.6 1.2-5.4 2-8.3 2.5q-2.6 0.3-5.2-0.5-0.9-0.1-1.4-0.9l-0.1-0.3h0.3c6.3-0.5 12.7-2.2 17.7-6.3 4-4.1 8.6-7.3 13.9-9.4 3.7-1.8 7.7-2.1 11.7-1.5 4.8 0.7 9.8 3.2 13.9 5.6 2.8 1.8 5.9 2.9 9.1 3.5 2.5 0.6 5 0.5 7.4-0.1z"/><path class="b" d="m212.5 1847.9q11.3-1 17.9-6.3 6.2-6.5 13.8-9.4 5.1-2.5 11.6-1.5 5.8 0.8 13.8 5.6 4 2.6 9.2 3.5 3.6 0.9 7.5-0.1 2.3-1.5 4.1-3.8 1-1.7 2.9-2.4 2.1-0.7 4.3 0.9 0.5 0.4 0.8 0.8 1.2 0.2 2.7 0.3 0.8 0.3 0 0.7-1.1 0-2.2 0.3-1.2 0.1-1.4 1.5-0.2 0.6 0.2 1.4 2.2 0.5 3.9-0.3c3.4-1.2 7-1.8 11.4-2q4.9 0 9.4 2.1 5.2 2.9 9.8 6.7 3.6 3.2 8.2 6.3 1.9 1.4 5.2 2.3 2.7 0.6 5.5 0.5 1.9 0.2 0 0.9-3.6 0.8-9 0-6.7-1.4-12.2-5.4-4.6-3.1-10.8-4.4-7.7-2-13.5 0-5.4 2.3-12 7.9-4.8 3.3-11.3 4.2-4.2 1.4-6.8 5.9-0.5 2.3-2.9 4-1.6 1.1-4 0.2-1.4-0.7-1.1-3.1 1.2-2.1 3.3-2.3 2.3-1.4 4-4.5 1.2-3.6-1.7-6.6-8.2-8.8-19.6-11.5-7.8-2.1-15.7 0.9-4.1 3.1-10.7 5.6-3.8 1.7-8.3 2.4-2.5 0.3-5-0.4-0.9-0.2-1.3-0.9z"/><path class="b" d="m1693.3 1834.9l2 0.4-7.1 22.5h-64.2v-2.2h3.2q5.2 0 7.5-3.4c0.8-1.4 1.3-4.4 1.3-9.1v-53.5c0-5.1-0.6-8.4-1.8-9.7q-2.4-2.7-7.1-2.7h-3.1v-2.2h37.6v2.2q-6.6 0-9.3 1.3c-1.8 0.8-3 1.9-3.6 3.2-0.7 1.3-1 4.4-1 9.4v52q0 5.1 1 7c0.5 0.8 1.2 1.5 2.3 1.9q1.5 0.6 9.5 0.6h6.1q9.5 0 13.3-1.4c2.6-1 4.9-2.6 7.1-5 2.1-2.4 4.1-6.1 6.3-11.3z"/><path fill-rule="evenodd" class="b" d="m1711.7 1821.3q-0.1 12.5 6 19.5c4.1 4.8 8.9 7.1 14.4 7.1q5.4 0 9.5-3c2.7-2 5-5.5 6.8-10.3l1.9 1.2c-0.9 5.5-3.3 10.6-7.4 15.2q-6.1 6.9-15.4 6.8c-6.7 0-12.5-2.5-17.3-7.8-4.7-5.2-7.1-12.2-7.1-21 0-9.6 2.5-17 7.3-22.3q7.4-8 18.4-8.1 9.5 0 15.5 6.2c4 4.2 6 9.7 6 16.6h-38.6zm0-3.6h25.8c-0.2-3.6-0.6-6.1-1.2-7.5-1-2.3-2.6-4.1-4.6-5.4-2-1.3-4.1-1.9-6.3-1.9-3.4 0-6.4 1.3-9.1 3.9-2.6 2.6-4.1 6.3-4.6 10.9z"/><path class="b" d="m1841.9 1771.2l1.9 28.2h-1.9c-2.5-8.4-6.1-14.5-10.8-18.2-4.7-3.7-10.3-5.6-16.9-5.6-5.5 0-10.4 1.5-14.9 4.2q-6.7 4.2-10.4 13.4-3.9 9.1-3.9 22.8 0 11.2 3.6 19.5c2.4 5.5 6 9.7 10.9 12.6 4.9 2.9 10.3 4.4 16.5 4.4 5.4 0 10.2-1.1 14.3-3.4 4.1-2.3 8.6-6.9 13.5-13.8l1.9 1.3c-4.1 7.3-9 12.7-14.5 16.2-5.6 3.4-12.2 5.1-19.7 5.1q-20.6 0-32-15.3c-5.6-7.6-8.4-16.5-8.4-26.8q0-12.4 5.6-22.7 5.6-10.4 15.3-16.1 9.7-5.8 21.3-5.8 9 0 17.7 4.4 2.6 1.4 3.7 1.4 1.6 0 2.9-1.2 1.5-1.6 2.2-4.6h2.1z"/><path fill-rule="evenodd" class="b" d="m1878.2 1798.6c8.5 0 15.3 3.2 20.4 9.6 4.4 5.5 6.6 11.8 6.6 19 0 5-1.2 10-3.6 15.1-2.4 5.2-5.7 9-9.9 11.6q-6.4 3.9-14.1 3.9-12.6 0-20-10-6.3-8.5-6.3-19.1 0-7.7 3.8-15.2c2.6-5.1 5.9-8.8 10.1-11.3 4-2.4 8.4-3.6 13-3.6zm-1.9 4q-3.2 0-6.5 1.9c-2.1 1.2-3.9 3.5-5.2 6.7-1.4 3.2-2 7.3-2 12.4 0 8.1 1.6 15.1 4.8 21q4.9 8.9 12.8 8.9c4 0 7.2-1.7 9.8-4.9 2.5-3.3 3.8-8.8 3.8-16.8q0-14.8-6.4-23.4-4.3-5.8-11.1-5.8z"/><path class="b" d="m1906.8 1801.6h15.1l33.8 41.5v-31.9c0-3.5-0.3-5.6-1.1-6.4q-1.5-1.7-4.8-1.7h-1.9v-1.5h19.3v1.5h-2c-2.3 0-4 0.7-5 2.1-0.6 0.9-0.9 2.9-0.9 6v46.6h-1.4l-36.5-44.6v34.1q0 5.1 1 6.4 1.6 1.7 4.8 1.7h2v1.5h-19.3v-1.5h1.9q3.6 0 5-2.1c0.6-0.9 0.9-2.9 0.9-6v-38.5c-1.6-1.8-2.8-3.1-3.6-3.7-0.8-0.6-2.1-1.1-3.7-1.7-0.7-0.2-2-0.3-3.6-0.3z"/><path class="b" d="m2016.7 1801.6l0.6 13.1h-1.6c-0.3-2.3-0.7-4-1.2-4.9q-1.3-2.4-3.4-3.6c-1.5-0.7-3.4-1.1-5.7-1.1h-7.9v43c0 3.4 0.4 5.6 1.1 6.4 1.1 1.2 2.7 1.8 4.9 1.8h2v1.5h-23.9v-1.5h2q3.5-0.1 5-2.2c0.6-0.8 1-2.9 1-6v-43h-6.8q-4 0-5.6 0.6-2.2 0.8-3.7 3c-1 1.5-1.6 3.5-1.8 6.1h-1.6l0.7-13.2h45.9z"/><path class="b" d="m2105.4 1829.7c0.6 11.1-24.6 28.1-24.6 28.1h-42.6c0 0 22.5-18 22.2-28.1 0.3-10.1-22.2-28.1-22.2-28.1h42.6c0 0 25.1 17 24.6 28.1z"/><path class="b" d="m2160.1 1829.7c0.6 11.1-24.6 28.1-24.6 28.1h-42.6c0 0 22.5-18 22.3-28.1 0.2-10.1-22.3-28.1-22.3-28.1h42.6c0 0 25.2 17 24.6 28.1z"/><path fill-rule="evenodd" class="b" d="m1301.2 1807.8c-0.3 16.8-8.2 30.6-24.2 36.9-6.2 2.4-12.6 2.8-19.2 2.2-5.1-0.5-10-1.8-14.6-4.2-9.3-5-15.1-12.6-16.9-23.1-1.3-7.4-1-14.8 1.9-21.8 4.1-10 11.3-17.1 21.4-20.8 10.3-3.9 20.9-4 31.2 0.3 10.9 4.5 17.5 12.8 19.7 24.5 0.5 2.3 0.6 4.7 0.7 6zm-57.1 3.5c0.4 2 0.5 4 1 5.9 3.3 11 15.4 14.9 24.5 11.5 8-2.9 12.8-10.7 12.5-19.7-0.2-6.3-2.5-11.4-7.7-15-4.1-2.8-8.7-3.3-13.4-2.7-3.9 0.5-7.4 1.8-10.2 4.5-4.5 4.2-6.4 9.4-6.7 15.5z"/><path class="b" d="m1125.2 1806h33.8c0.1 10.6-1.7 20.7-8.3 29.3-4.7 6-11 9.6-18.3 11.1-9.4 1.9-18.5 1.4-27.1-3.1-9-4.9-14.4-12.8-16.1-22.8-2-12.3 0.6-23.7 8.3-33.5 5.4-6.9 12.6-11 21.2-12.5 8.5-1.4 16.8-0.6 24.5 3.4 5.6 3 10.1 7.1 13.2 12.8 0.6 1 1.1 2 1.7 3.1-5.7 2.4-11.4 4.7-17.1 7.1-0.2-0.4-0.4-0.8-0.5-1.2-1.8-4.9-5.4-7.8-10.4-8.9-5.2-1.1-10.2-0.6-14.6 2.7-3.1 2.3-5 5.5-6.3 9-2.2 6-2.7 12.2-0.9 18.4 1.8 6.2 7.2 10.4 13.6 10.8 4 0.2 7.7-0.3 11.2-2.5 3.2-2 5.1-5 6.5-8.6h-16.2c0.6-4.9 1.2-9.7 1.8-14.6z"/><path fill-rule="evenodd" class="b" d="m1172.7 1776.6c0.3 0 0.6-0.1 0.9-0.1 9.1 0.1 18.2 0.1 27.3 0.2 4.8 0.1 9.3 1.2 13.1 4.3 4.4 3.7 6.4 8.5 6.7 14.1 0.4 6-0.8 11.5-4.2 16.5-2.1 3-4.9 5.1-8.2 6.6-0.8 0.3-1.7 0.7-2.7 1.1 5.2 8.7 10.5 17.4 15.9 26.2h-2.2c-5.9 0-11.8 0-17.7 0.1-1 0-1.4-0.4-1.9-1.2q-6.7-12.5-13.4-25.1c-0.2-0.4-0.4-0.7-0.7-1.2-1.2 9.2-2.3 18.2-3.4 27.4h-18.6c3-23 6-45.9 9.1-68.9zm16.6 14.2q-1.1 8.1-2.2 16.5c2.2 0 4.4 0 6.5 0 6.5-0.1 9.4-4.9 8.7-10.6-0.4-3.3-2.7-5.5-6-5.8-2.3-0.2-4.6-0.1-7-0.1z"/><path class="b" d="m1373.3 1776.7q-1.1 9-2.2 17.9c-0.9 7.6-1.8 15.3-2.9 22.9-0.5 3.9-1.1 7.8-2.2 11.5-2 7.3-6.9 12.1-13.6 15-6.4 2.7-13.1 3.1-19.8 2.4-5.4-0.5-10.4-2-14.9-5.1-6.2-4.3-9.8-10.3-9.7-18 0.1-4.9 0.7-9.9 1.3-14.8 1-8.5 2.2-17 3.3-25.6q0.4-3.1 0.8-6.3h18.6q-0.7 5-1.3 9.8c-1.2 9-2.4 18-3.6 27-0.3 2.2-0.5 4.5-0.4 6.8 0.1 4.5 2.6 7.6 7 8.6 3.2 0.8 6.3 0.7 9.4-0.4 3.3-1.2 5.2-3.8 5.9-7.1 0.8-3.6 1.2-7.3 1.7-10.9 1.2-8.7 2.3-17.4 3.4-26.1q0.4-3.4 0.8-6.8c0.1-0.5 0.2-1 0.9-1q8.6 0 17.1 0c0.1 0 0.2 0.1 0.4 0.2z"/><path fill-rule="evenodd" class="b" d="m926.7 1845.4c-1-3.4-2-6.9-2.9-10.4-0.3-1.2-0.9-1.5-2-1.5q-10.1 0.1-20.1 0c-1 0-1.4 0.3-1.8 1.2q-2.2 5-4.6 9.9c-0.2 0.4-0.6 0.9-0.9 0.9-6.6 0-13.1 0-19.9 0 0.3-0.5 0.4-0.9 0.6-1.3q16.3-33.3 32.6-66.6c0.3-0.7 0.6-1.1 1.5-1.1q9.1 0.1 18.2 0c0.8 0 1.1 0.2 1.4 1q8.6 33.8 17.2 67.5c0 0.1 0.1 0.2 0.1 0.4zm-6.8-26.2c-1.3-8.4-2.5-16.7-3.7-25.1-3.1 8.5-6.1 16.8-9.1 25.1z"/><path fill-rule="evenodd" class="b" d="m1014.2 1845.5c0.4-2.5 0.7-4.9 1-7.4q1.5-11.9 3.1-23.9 1.5-12 3.1-23.9c0.5-4.1 1-8.3 1.5-12.4 0.1-1.1 0.4-1.4 1.5-1.4 9.3 0 18.5 0 27.8 0 4.3 0 8.5 0.6 12.2 3.1 4.4 2.8 6.9 6.9 7.9 11.9 1.4 6.9 0.6 13.5-2.4 19.7-3.2 6.6-8.5 10.4-15.5 11.1-5.6 0.6-11.2 0.5-16.9 0.6-0.5 0-1 0-1.7 0-1 7.5-2 15-3 22.6zm25.7-54.4c-0.8 5.7-1.5 11.4-2.2 16.9 3.3 0 6.5 0.2 9.7 0 1.2-0.1 2.5-0.7 3.6-1.4 2.9-2.1 3.7-5.3 3.7-8.7-0.1-3.8-2.2-6.4-5.9-6.7-2.9-0.3-5.8-0.1-8.9-0.1z"/><path fill-rule="evenodd" class="b" d="m1386.3 1776.5h1.3c9.2 0 18.4 0 27.6 0 4.4 0 8.6 0.6 12.4 3.2 4.7 3.1 7.2 7.6 8 13.1 0.8 5.3 0.4 10.6-1.5 15.7-2.8 8.1-8.4 13-16.9 13.9-5.5 0.5-11.1 0.4-16.7 0.5-0.5 0-1 0-1.6 0-1 7.5-1.9 15-2.9 22.5h-18.6c2.9-22.9 5.9-45.8 8.9-68.9zm16.7 14.7c-0.8 5.6-1.5 11.3-2.2 16.8 3.4 0 6.6 0 9.9 0 0.7 0 1.4-0.3 2-0.6 3.5-1.5 5.6-5.7 5.1-10.1-0.4-3.6-2.2-5.7-5.7-6.1-3-0.3-6 0-9.1 0z"/><path fill-rule="evenodd" class="b" d="m973.4 1822.9c-1 7.6-2 15-3 22.6h-18.6c3-23 5.9-45.9 8.9-69h1.5c9.1 0 18.3 0 27.4 0 3.4 0 6.7 0.3 9.9 1.7 5.7 2.6 9.1 7.3 10.3 13.4 1.3 6.8 0.6 13.4-2.4 19.7-3.2 6.5-8.5 10.3-15.6 11-5.4 0.6-11 0.5-16.5 0.6-0.6 0-1.2 0-1.9 0zm1.9-14.9c3.3 0 6.6 0.1 9.9-0.1 1.1 0 2.3-0.6 3.2-1.3 3.4-2.5 4.1-6.1 3.6-10-0.4-3-2.2-4.8-5-5.2-3-0.4-6-0.3-9-0.3-0.3 0-0.7 0.5-0.8 0.8-0.6 5.4-1.3 10.8-1.9 16.1z"/><path fill-rule="evenodd" class="b" d="m777 1842.5c-16.5 0-30.1-13.7-30.1-30.4-0.1-16.8 13.5-30.5 30.1-30.5 16.7 0 30.1 13.5 30.2 30.4 0.2 16.6-13.5 30.5-30.2 30.5zm9.4-8.3c4.5 0 8.3-3.8 8.4-8.5 0-4.7-3.8-8.6-8.6-8.6-4.6 0-8.3 3.8-8.4 8.5-0.1 4.6 3.8 8.5 8.6 8.6zm-19.2-17.1c-4.8 0.1-8.6 3.8-8.6 8.4 0.1 4.7 3.9 8.7 8.4 8.7 4.8 0 8.7-3.8 8.6-8.6-0.1-4.7-3.8-8.5-8.4-8.5zm-6-1.4c4.6 0.1 8.4-3.6 8.5-8.3 0-4.8-3.7-8.6-8.6-8.6-4.5-0.1-8.3 3.7-8.4 8.2 0 4.9 3.7 8.7 8.5 8.7zm31-16.9c-4.8 0-8.5 3.8-8.4 8.6 0 4.7 3.9 8.4 8.6 8.4 4.7-0.1 8.3-4 8.3-8.8-0.1-4.6-3.9-8.3-8.5-8.2zm-15.2 5.3c4.7 0 8.5-3.8 8.5-8.6 0-4.7-3.8-8.4-8.5-8.4-4.7 0-8.4 3.8-8.4 8.5 0 4.7 3.7 8.5 8.4 8.5z"/><path class="b" d="m856.8 1776.5c-2.3 17.6-4.6 34.9-6.9 52.5h21.2c-0.3 2.3-0.5 4.4-0.8 6.6-0.4 3-0.8 6-1.2 9-0.1 0.7-0.3 0.9-1.1 0.9q-19.1 0-38.2 0c-0.2 0-0.3 0-0.6-0.1q0.4-3.5 0.9-7.1 1.5-11.7 3.1-23.3 1.7-12.6 3.3-25.2c0.6-4 1.1-8 1.6-12 0.1-0.9 0.3-1.3 1.4-1.3 5.4 0 10.8 0 16.2 0h1.1z"/><path class="b" d="m743.4 1845.5h-1.5v-68.9h70.3v68.9h-1.4v-67.5h-67.4z"/><path fill-rule="evenodd" class="b" d="m743.4 1848.9v5.2h3.5v1h-5v-6.2zm8.7 0l2.6 6.2h-1.5l-0.4-1.3h-2.8l-0.5 1.3h-1.6l2.7-6.2zm-0.7 1.4l-1 2.4h2zm6.8-1.4c1.2 0 1.8 0 2.3 0.3 0.9 0.2 1.4 0.9 1.4 1.7 0 1-0.5 1.5-1.5 1.8-0.4 0.1-0.9 0.1-1.9 0.1h-0.5v2.3h-1.5v-6.2zm0.2 3c0.8 0 1.1 0 1.3-0.2 0.5-0.1 0.7-0.4 0.7-0.8 0-0.3-0.2-0.7-0.6-0.8-0.2-0.1-0.6-0.1-1.4-0.1h-0.4v1.9zm7-3c1.2 0 1.6 0 2.2 0.3 0.9 0.2 1.4 0.9 1.4 1.7 0 1-0.6 1.5-1.5 1.8-0.5 0.1-0.9 0.1-2 0.1h-0.4v2.3h-1.5v-6.2zm0.1 3c0.8 0 1 0 1.4-0.2 0.3-0.1 0.5-0.4 0.5-0.8 0-0.3-0.2-0.7-0.4-0.8-0.4-0.1-0.7-0.1-1.4-0.1h-0.6v1.9zm14.9 0.1v2.5c-0.9 0.5-1.8 0.7-2.9 0.7-2.2 0-3.6-1.1-3.6-3.1 0-2 1.4-3.3 3.5-3.3 1 0 1.9 0.4 2.4 0.8 0.4 0.4 0.5 0.7 0.5 1.3h-1.3c-0.1-0.7-0.7-1-1.5-1-1.2 0-1.9 0.8-1.9 2.2 0 1.4 0.7 2.1 1.9 2.1 0.6 0 1.2-0.1 1.6-0.4v-1h-1.5v-0.8zm4.1-3.1c1.4 0 1.9 0.2 2.5 0.4 0.7 0.2 1 0.8 1 1.5q0.1 1.2-1.3 1.8l1.8 2.5h-1.7l-1.6-2.3h-1.1v2.3h-1.5v-6.2zm0.1 2.8c0.9 0 1.1 0 1.3-0.1 0.5-0.1 0.7-0.3 0.7-0.8 0-0.2-0.2-0.6-0.5-0.7-0.3-0.1-0.5-0.1-1.6-0.1h-0.3v1.7zm12 0.4c0 1-0.5 1.9-1.2 2.4-0.5 0.5-1.5 0.7-2.4 0.7-2.1 0-3.5-1.2-3.5-3.2 0-1 0.4-1.9 1.1-2.5q1-0.7 2.4-0.7c2.2 0 3.6 1.3 3.6 3.3zm-5.6-0.1c0 1.4 0.7 2.3 2 2.3 1.3 0 2-0.9 2-2.2 0-1.4-0.7-2.2-2-2.2-1.1 0-2 0.8-2 2.1zm8.9-3.1v3.7c0 0.5 0 0.8 0.1 1 0.3 0.4 0.7 0.6 1.4 0.6 1 0 1.4-0.2 1.6-0.8v-4.5h1.5v3.7c0 0.8 0 1.1-0.2 1.5-0.5 0.8-1.5 1.1-2.9 1.1-1.2 0-2.3-0.3-2.7-1.1-0.3-0.4-0.3-0.7-0.3-1.5v-3.7zm8.9 0c1.2 0 1.6 0 2.2 0.3 0.9 0.2 1.4 0.9 1.4 1.7 0 1-0.6 1.5-1.5 1.8-0.5 0.1-0.9 0.1-2 0.1h-0.4v2.3h-1.5v-6.2zm0.1 3c0.8 0 1 0 1.4-0.2 0.3-0.1 0.5-0.4 0.5-0.8 0-0.3-0.2-0.7-0.5-0.8-0.3-0.1-0.6-0.1-1.3-0.1h-0.6v1.9z"/><path fill-rule="evenodd" class="b" d="m2465.5 1845.5l-10.8 18.8c-1.1 2-3.4 3-5.7 2.4-13.4-3.3-27.4-5.1-41.9-5.1-14.5 0-28.5 1.8-41.9 5.1-2.3 0.6-4.6-0.4-5.7-2.4l-10.9-18.8c-1.1-2-0.8-4.5 0.8-6.2 19.4-20.4 33.9-45.5 41.9-73.4 0.7-2.2 2.7-3.7 4.9-3.7h21.7c2.3 0 4.3 1.5 4.9 3.7 8.1 27.9 22.6 53 42 73.4 1.6 1.7 1.9 4.2 0.7 6.2zm-24 8.8l-24.1-75c-0.1-0.4-0.7-0.6-1.1-0.2l-52.2 58.6c-0.3 0.3-0.1 0.9 0.4 1l76.3 16.4c0.5 0.1 0.9-0.3 0.7-0.8z"/><path fill-rule="evenodd" class="b" d="m2538.4 1779.6l30.2 69.8h-14.4l-6.8-16.3h-30.4l-6.8 16.3h-14.1l30.2-69.8zm3.9 41.2l-10.1-23.7-10.1 23.7z"/><path class="b" d="m2592.5 1780.1h-13.5v69.3h48.7v-12.6h-35.2z"/><path fill-rule="evenodd" class="b" d="m2719.9 1779.6l30.2 69.8h-14.4l-6.8-16.3h-30.3l-6.9 16.3h-14l30.1-69.8zm4 41.2l-10.2-23.7-10 23.7z"/><path class="b" d="m2761.5 1780.1h13.5v69.3h-13.5z"/><path fill-rule="evenodd" class="b" d="m2853.6 1849.4h-16.1l-16.4-23.5h-13.3v23.5h-13.6v-69.3h30.7c15.9 0 25.7 8.6 25.7 22.3 0 10.3-5.5 17.9-15.3 21.1zm-45.8-35.9h16.2c7.9 0 12.8-4 12.8-10.5 0-6.6-4.5-10.3-12.9-10.3h-16.1z"/><path class="b" d="m2623.6 1780.1v13.1h21v56.2h14v-56.2h21.1v-13.1z"/><path class="b" d="m3054.7 1812.1c-1.6 0-2.9-1.6-2.9-3.2v-34.9c0-1.2 1.3-2.8 2.9-2.8h75.7c1.3 0 2.9 1.6 2.9 2.8v14.4c0 1.6-1.6 3.2-2.9 3.2h-24.6c-1.6 0-3.2-1.6-3.2-3.2v-5.1c0-0.9-0.9-1.9-1.9-1.9h-16.3c-1 0-2.2 1-2.2 1.9v16.3c0 1 1.2 2.3 2.2 2.3h55.9c2.3 0 3.2 0.9 3.2 2.8v45.1c0 1.6-1.6 2.9-3.2 2.9h-95.8c-1.6 0-2.9-1.3-2.9-2.9v-24.6c0-1.6 1.3-2.9 2.9-2.9h24.6c1.6 0 2.8 1.3 2.8 2.9v15.3c0 1 1.3 1.9 2.3 1.9h36.7c1 0 2-0.9 2-1.9v-26.5c0-1-1-1.9-2-1.9z"/><path class="b" d="m3164 1803.8v16.3c0 0.9-1 1.6-2.2 2.2q-2.9 0.5-2.9 2.9v24.6c0 1.6 1.3 2.9 2.9 2.9h29.7c1.6 0 2.9-1.3 2.9-2.9v-27.2c0-0.3 0.6-0.6 0.9-0.3l29.1 29.7c0.6 0.7 1 0.7 1.9 0.7h36.5c1.5 0 3.1-1.3 3.1-2.9v-24.6c0-1.6-1.6-2.9-3.1-2.9h-26.6c-0.6 0-0.9 0-1.3-0.6l-19.8-19.5c0-0.3-0.3-0.3 0-0.7l9.6-9.6c0.3-0.3 0.7-0.3 1.3-0.3h26.8c1.3 0 2.9-1.6 2.9-3.2v-14.4c0-1.2-1.6-2.8-2.9-2.8h-26.5c-0.9 0-1.3 0.3-1.9 0.9l-28.8 29.4c-0.6 0.4-1.2 0.4-1.2-0.3v-27.2c0-1.2-1.3-2.8-2.9-2.8h-29.7c-1.6 0-2.9 1.6-2.9 2.8v24.7c0 1.6 0.9 2.5 2.5 2.8 2 0.7 2.6 1.3 2.6 2.3z"/><path class="b" d="m3281.3 1849.8c0 1.6 1.6 2.9 3.2 2.9h29.4c1.6 0 3.2-1.3 3.2-2.9v-24.3c0-1.6-1-2.9-2.9-3.2-1.6-0.6-2.2-0.9-2.2-2.2v-6.1c0-1 0.9-1.9 1.9-1.9h11.2c1.2 0 2.2 0.9 2.2 1.9 0 1.6 1.6 3.2 2.9 3.2h24.6c1.6 0 3.2-1.6 3.2-3.2v-14.4c0-1.6-1.6-2.9-3.2-2.9h-24.6c-1.3 0-2.9 1.3-2.9 2.9 0 1-1 2.3-2.2 2.3h-11.2c-1 0-1.9-1.3-1.9-2.3v-16.3c0-0.9 0.9-1.9 1.9-1.9h31.6c1 0 2.3 1 2.3 1.9v5.1c0 1.6 1.2 3.2 2.8 3.2h34.9c1.6 0 2.9-1.6 2.9-3.2v-14.4c0-1.2-1.3-2.8-2.9-2.8h-101c-1.6 0-3.2 1.6-3.2 2.8v24.7c0 1.6 1.3 2.5 2.9 2.8 1.2 0.4 2.2 1.3 2.2 2.3v16.3c0 0.9-0.6 1.9-2.2 2.2q-2.9 0.5-2.9 2.9z"/><path class="b" d="m2480 1532.9c0 3.6-2.4 6.2-5.7 6.2-3.5 0-6-2.8-6-6.5-0.1-3.3 2.6-6 6-5.9 3.3 0 5.7 2.6 5.7 6.2z"/><path class="b" d="m2231.3 1494.7c1.4 0.9 3.2 0.7 4.8 1.2 5.3 1.9 9.7 4.6 10.9 10.6 0.7 3.5-0.3 6.8-1.9 9.8-3.6 6.8-9.2 11.3-15.9 14.5-6.4 3.1-13 5.8-19.3 8.9-5.8 2.8-11.2 6.2-15.9 10.7-3.5 3.3-5.9 7.3-7.6 11.7-1.3 3.3-1.1 6.5 0.2 9.8 2.4 5.8 6.4 10.5 10.5 15.2 4.9 5.6 9.4 11.4 11.9 18.5 2.4 6.8 3 13.7 1.5 20.7-2.6 11.9-12.4 18.2-24.6 15.9-16.3-3-29.3-16.3-32.2-32.7-0.1-0.4 0.1-0.9-0.5-1.1v-5.7c0.6-0.1 0.5-0.6 0.5-1 0.8-4.9 2.8-9.3 5.6-13.3 2.9-3.9 5.8-7.8 8.6-11.7 1.5-2 2.8-4.1 4.1-6.1 5.2-7.7 5.6-16.1 3.4-24.8-1.8-6.9-1.4-13.4 1.8-19.9 7.8-16.1 20.9-25.2 37.8-29.5 2.4-0.6 4.9-0.5 7.2-1.7z"/><path fill-rule="evenodd" class="b" d="m2428.3 1577.2c0 7.1-0.1 12.9 0 18.6 0 1.3-0.2 1.8-1.6 1.7q-3.5-0.2-6.9 0c-1.5 0.1-1.8-0.5-1.8-1.8 0.1-1.1 0.6-2.8-0.3-3.3-1-0.5-1.4 1.3-2.4 1.7-3.7 1.9-7.1 4.1-11.6 4.2-6.4 0-10.9-4.9-11.5-10.7-0.4-3.4-0.4-6.8 0.9-10 1.9-4.4 5.5-6.9 9.8-8.3 4.3-1.5 8.8-2.2 13.3-2.2 1.3 0 1.8-0.3 1.6-1.7-0.1-0.8-0.1-1.6-0.1-2.4-0.3-5-2.8-7.1-7.8-6.4q-5.8 0.7-11 3.4c-1.5 0.8-2.2 0.8-2.9-1-2-5.2-2.2-5.2 2.9-7.3 6.5-2.6 13.3-4.1 20.4-2.5 5 1.2 8.2 4.9 8.6 10 0.5 6.5 0.2 12.9 0.4 18zm-10.7 1.6h0.1c0-1.1-0.1-2.2 0-3.3 0.2-1.4-0.4-1.7-1.7-1.6-2.6 0.2-5 0.7-7.5 1.6-4.3 1.7-6.5 4.8-6.1 9.3 0.3 2.9 2.6 5 5.4 4.5 3.6-0.5 6.5-2.7 9.1-5.2 1.5-1.4 0.4-3.4 0.7-5.1q0-0.1 0-0.2z"/><path fill-rule="evenodd" class="b" d="m2528.7 1573.5c0.1 5.2-1 10.3-3.5 14.8-4.3 7.7-12.1 11.1-20.9 10-8.5-1.1-14.1-7.7-15.6-14.6-2.3-9.8-1.9-19.1 4.3-27.5 5.9-8.1 19.7-9.9 27.4-3.6 5.9 4.8 7.7 11.3 8.3 18.5 0 0.8 0 1.6 0 2.4zm-10.5 1.3c0-7.2-0.8-10.3-3.1-13.8-2-3.2-4.8-4.6-8.5-4.1-3.2 0.5-5.3 2.5-6.5 5.4-2.8 7.3-3 14.7-0.4 22 1.4 3.8 4.3 6 8 6.1 3.4 0.1 6.3-1.6 8.1-4.9 1.9-3.6 2.3-7.5 2.4-10.7z"/><path class="b" d="m2543.9 1556.3c4.5-3.7 8.8-6.6 14.1-7.3 2.7-0.3 5.4-0.4 7.9 1.1 2.7 1.8 3.7 4.6 4 7.6 0.8 8.3 0.3 16.6 0.4 25 0.1 4.3 0 8.7 0.1 13 0.1 1.4-0.3 1.9-1.7 1.8-2.3-0.1-4.6-0.1-6.9 0-1.4 0.1-1.7-0.3-1.7-1.7q0.1-14.7 0-29.5c0-1.5-0.1-3.1-0.4-4.6-0.5-2.6-2.3-3.7-4.9-3.2-2.8 0.5-4.9 2.3-7.3 3.8-2.9 2-3.5 4.6-3.4 7.9 0.2 8.5 0.1 17 0.2 25.5 0 1.4-0.3 1.9-1.8 1.8-2.3-0.1-4.7 0-7.1 0-1 0-1.5-0.1-1.5-1.3q0.1-22.6 0-45.1c0-1 0.2-1.3 1.4-1.2 2.4 0.1 4.8 0.1 7.3 0.1 1 0 1.4 0.2 1.3 1.3 0 1.5 0 3 0 5z"/><path fill-rule="evenodd" class="b" d="m2327.1 1598.4c-7.9 0.2-13.6-2.9-17.1-9.3-2.7-5.1-3.5-10.7-3.2-16.4 0.4-6.5 2-12.5 6.4-17.6 7.7-8.9 26.4-9.8 32.6 5.6 3.9 9.8 3.6 19.8-2.1 29.1-3.8 6.3-9.9 8.8-16.6 8.6zm10.5-25.7c-0.1-3-0.4-7.3-2.6-11.2-1.6-2.8-4-4.8-7.4-4.8-3.4 0-6 1.7-7.7 4.7-1.3 2.4-2 5-2.2 7.7-0.5 5.6-0.6 11.2 2.2 16.3 3.3 6.4 11.2 6.4 14.7 0.7 2.3-3.7 2.9-7.8 3-13.4z"/><path class="b" d="m2275.2 1556.2c2.6-1.9 4.9-3.8 7.5-5.1q3.7-1.9 7.8-2.2c5.9-0.5 9.8 2.9 10.6 9.1q0.4 3.6 0.4 7.3 0 15.3 0.1 30.5c0 1.3-0.3 1.8-1.7 1.7q-3.4-0.2-6.9 0c-1.5 0.1-1.8-0.4-1.8-1.9 0-10.1 0-20.2 0-30.2 0-1.3 0-2.6-0.4-3.9-0.7-2.6-2.1-3.7-4.7-3.1-4.3 0.9-7.5 3.6-10.4 6.6-0.7 0.6-0.5 1.5-0.5 2.2 0 9.5 0 18.9 0.1 28.3 0 1.7-0.5 2.1-2.1 2-2.1-0.1-4.3-0.1-6.4 0-1.2 0-1.7-0.2-1.7-1.5q0.1-22.3 0-44.7c0-1 0.3-1.4 1.3-1.3q3.8 0.1 7.6 0c0.9-0.1 1.3 0.3 1.2 1.2-0.1 1.6 0 3.1 0 5z"/><path class="b" d="m2348.2 1549.9c3.4 0 6.8 0 10.2 0 1.2 0 1.2 1 1.4 1.7 2.9 9 5.6 18 8.5 27 0.7 1.9 0.8 4 2.1 5.9 3.2-11 6.4-21.9 9.5-32.7 0.4-1.5 1-2 2.5-1.9q3.1 0.2 6.2 0c1.7-0.1 2.1 0.2 1.5 2-3.1 9.4-6.1 18.8-9.1 28.1-1.8 5.5-3.7 10.8-5.4 16.3-0.3 0.9-0.7 1.2-1.7 1.2-2.8 0-5.7-0.1-8.6 0-0.9 0.1-1.3-0.4-1.5-1.1q-7.8-22.8-15.5-45.7c0-0.2 0-0.4-0.1-0.8z"/><path class="b" d="m2440.8 1573.5c0-4.9 0-9.8 0.1-14.8 0-1.4-0.4-1.9-1.8-1.7q-0.1 0-0.2 0c-5.8 0-5.7 0-5.4-5.9 0-1.1 0.3-1.3 1.3-1.3 1.5 0.1 2.9 0 4.3 0.1 1.5 0.2 1.8-0.4 1.8-1.8-0.1-3.1 0-6.2-0.1-9.4 0-1.3 0.2-1.9 1.7-1.8q3.5 0.2 6.9 0c1.4-0.1 1.7 0.4 1.7 1.7-0.1 3.1 0 6.3-0.1 9.4-0.1 1.6 0.5 1.9 1.9 1.8 3.1-0.1 6.2 0 9.3-0.1 1.1 0 1.5 0.4 1.4 1.5 0 1.2-0.1 2.4 0.1 3.5 0.3 2.2-0.8 2.7-2.6 2.6-2.9-0.1-5.8-0.1-8.6-0.3-1.2 0-1.5 0.3-1.5 1.5 0.1 8.8 0 17.7 0.1 26.5 0 0.9 0.1 1.8 0.3 2.6 0.6 1.5 1.4 2.4 3.4 1.8 2.2-0.8 3.9-2.1 5.7-3.4 0.9-0.7 1.6-0.9 2.1 0.4 0.1 0.4 0.4 0.8 0.6 1.1 2.5 3.9 2.5 3.9-1.2 6.4-3.3 2.3-6.8 3.9-10.7 4.6-4.9 0.8-9-1.8-10-6.7-0.6-2.8-0.5-5.6-0.5-8.5q0-4.9 0-9.8z"/><path class="b" d="m2469.1 1578.4c-0.2-6.5 0.3-12.9-0.2-19.4-0.1-2.7 0.2-5.3 0.2-8 0-0.9 0.3-1.2 1.1-1.2 2.6 0 5.2 0 7.7-0.2 1.4-0.1 1.7 0.4 1.7 1.7q-0.2 17.8-0.3 35.7c0 2.9 0.1 5.8 0.2 8.7 0.1 1.2-0.2 1.9-1.8 1.8-2.4-0.1-4.9 0-7.3 0-0.8 0-1.3 0-1.3-1.1 0-6 0-12 0-18z"/><path class="b" d="m2618.4 1574.5c5 0 9.7 0 14.3 0 1.7-0.1 2 0.3 1.4 1.9-1.8 4.6-1.7 4.6-6.5 4.6q-6.6 0.1-13.1 0c-3.7 0-4.9-1.6-3.7-5 2.4-6.8 4.8-13.5 7.3-20.2 1-2.8 3.1-4.6 6.2-4.6 5.6-0.1 11.3 0 17 0 1.5 0 1.8 0.4 1.2 1.8-1.7 4.8-1.6 4.8-6.6 4.8-3.4 0-6.7 0-10.1-0.1-1.2 0-1.6 0.5-2 1.5-0.6 1.3-0.4 2 1.2 2 4.1-0.1 8.2 0 12.3-0.1 1.6 0 2.3 0.1 1.6 2.1-1.6 4.6-1.5 4.6-6.4 4.6-3.4-0.1-6.8 0-10.2-0.1-1.2 0-1.8 0.5-2.2 1.6-0.5 1.6-1 3.3-1.7 5.2z"/><path class="b" d="m2673.3 1561.2c3.6 0 6.9 0 10.2 0.1 1 0 1.6-0.4 1.9-1.4 0.8-2.3 1.7-4.6 2.5-6.9 0.4-1.3 1-1.8 2.4-1.8 5.1 0.1 5.1 0 3.4 4.9-2.8 7.7-5.6 15.5-8.4 23.2-0.4 1.3-1 1.8-2.4 1.8-5.1 0-5.1 0-3.4-4.7 0.8-2.3 1.5-4.5 2.4-6.7 0.6-1.5 0.6-2.1-1.2-2-2.7 0.1-5.4 0.1-8.2 0-1.2 0-1.7 0.4-2.1 1.6-1.2 3.3-2.4 6.6-3.6 10-0.4 1.2-1 1.8-2.4 1.8-5.3 0-5.3 0.1-3.5-4.9 2.8-7.6 5.6-15.2 8.3-22.8 0.5-1.6 1.2-2.2 3-2.2 4.7 0.2 4.7 0.1 3.1 4.5-0.6 1.7-1.3 3.5-2 5.5z"/><path class="b" d="m2658 1551.2c2.8 0 5.7 0.1 8.6 0 1.2 0 1.6 0.2 1.1 1.6-1.7 5-1.7 5-6.9 5-3.3 0-6.6 0-9.9-0.1-1 0-1.6 0.2-1.9 1.3q-2.5 7.1-5.1 14.1c-0.5 1.3 0 1.4 1.1 1.4 4.3 0 8.6 0 12.9 0 1.4-0.1 2 0.1 1.4 1.7-1.7 4.8-1.6 4.8-6.6 4.9q-6.7 0.1-13.5-0.1c-3.1 0-4.4-1.7-3.4-4.7 2.5-7 4.9-13.9 7.6-20.8 1-2.8 3.3-4.3 6.4-4.3 2.7 0.1 5.4 0 8.2 0z"/><path class="b" d="m2605.1 1551.2c3.8 0 7.6 0.1 11.4 0 1.2 0 1.5 0.4 1 1.4q0 0.1-0.1 0.2c-1.6 5-1.6 5-6.9 5-3.7 0-3.7 0-5 3.5-2.2 6.2-4.4 12.3-6.6 18.4-0.4 1.2-0.9 1.7-2.1 1.4-0.2-0.1-0.5 0-0.7-0.1-1.4-0.2-3.4 0.9-4.2-0.4-0.6-1 0.7-2.7 1.2-4 1.9-5.6 3.9-11.2 6-16.7 0.7-1.9 0.2-2.3-1.6-2.2-1.7 0.2-3.5 0-5.3 0.1-1.8 0.1-1.9-0.6-1.4-2 1.6-4.6 1.6-4.6 6.4-4.6q3.9 0.1 7.9 0z"/><path class="b" d="m2286.5 1619.4c0-5.6 3.6-11.3 9.1-11.3 2 0 3.5 1.1 4.3 2.6l-1.4 1.2c-0.7-1.2-1.7-2-3-2-4.2 0-6.9 5-6.9 9.3 0 3.2 1.4 5.6 4.5 5.6 1.4 0 2.6-0.6 3.8-1.6l0.9 1.3c-1.3 1.2-2.9 2.1-5.1 2.1-4 0-6.2-2.9-6.2-7.2z"/><path fill-rule="evenodd" class="b" d="m2302 1621.3c0-5 3.5-8.6 7.1-8.6 2.8 0 4.6 2 4.6 5.3 0 5-3.5 8.6-7 8.6-2.9 0-4.7-2-4.7-5.3zm9.6-3.1c0-2.4-0.9-3.7-2.8-3.7-2.4 0-4.7 3-4.7 6.7 0 2.4 1 3.7 2.8 3.7 2.4 0 4.7-3 4.7-6.7z"/><path class="b" d="m2319.5 1613.1h1.6l-0.2 1.9h0.2c1.3-1.3 2.9-2.3 4.3-2.3 2 0 2.8 1.2 3 2.6 1.6-1.6 3.3-2.6 4.6-2.6 2.2 0 3.1 1.3 3.1 3.3 0 0.7-0.1 1.1-0.2 1.8l-1.7 8.5h-2.1l1.7-8.2c0.1-0.7 0.2-1.1 0.2-1.5 0-1.4-0.6-2.1-1.9-2.1-0.8 0-2.2 0.8-3.7 2.4l-1.9 9.4h-2l1.6-8.2c0.2-0.7 0.2-1.1 0.2-1.5 0-1.4-0.6-2.1-1.9-2.1-0.7 0-2.1 0.8-3.7 2.4l-1.8 9.4h-2z"/><path fill-rule="evenodd" class="b" d="m2341.3 1627.5l-0.8 4.3h-2l3.7-18.7h1.7l-0.2 1.7h0.1c1.3-1.1 2.9-2.1 4.5-2.1 2.3 0 3.8 1.7 3.8 4.8 0 5.1-3.5 9.1-7.1 9.1-1.3 0-2.4-0.8-3.1-1.9h-0.1zm2.2-10.9l-1.2 6.3c0.7 1.4 1.6 1.9 2.6 1.9 2.6 0 5-3.3 5-7 0-2.3-0.9-3.3-2.4-3.3-1.2 0-2.8 0.8-4 2.1z"/><path fill-rule="evenodd" class="b" d="m2355.4 1621.3c0-5 3.5-8.6 7-8.6 2.9 0 4.7 2 4.7 5.3 0 5-3.5 8.6-7.1 8.6-2.8 0-4.6-2-4.6-5.3zm9.6-3.1c0-2.4-1-3.7-2.8-3.7-2.4 0-4.7 3-4.7 6.7 0 2.4 1 3.7 2.8 3.7 2.4 0 4.7-3 4.7-6.7z"/><path class="b" d="m2369.3 1624.1l1.3-1c0.8 1.1 2 1.9 3.4 1.9 1.4 0 2.7-1 2.7-2.2 0-1-0.5-1.5-2.4-2.5-2-1.1-3-2.1-3-3.6 0-2.4 2.1-4 4.5-4 1.6 0 2.9 0.8 3.9 1.8l-1.2 1.2c-0.7-0.8-1.5-1.3-2.7-1.3-1.4 0-2.5 0.9-2.5 2 0 1.1 1.1 1.7 2.3 2.4 2.4 1.3 3.1 2.3 3.1 3.7 0 2.5-2.1 4.1-4.9 4.1-1.8 0-3.6-1.1-4.5-2.5z"/><path class="b" d="m2385.3 1609.1c0-0.9 0.7-1.6 1.6-1.6 0.7 0 1.3 0.5 1.3 1.3 0 0.9-0.8 1.5-1.6 1.5-0.7 0-1.3-0.4-1.3-1.2zm-0.4 4h2l-2.6 13.2h-2z"/><path class="b" d="m2390.9 1623.7c0-0.6 0-1 0.1-1.5l1.5-7.5h-1.9l0.3-1.5 2.1-0.1 0.9-3.7h1.8l-0.7 3.7h3.3l-0.4 1.6h-3.3l-1.5 7.6q-0.1 0.5-0.1 1c0 1.1 0.4 1.6 1.6 1.6 0.6 0 1-0.2 1.4-0.4l0.5 1.5c-0.6 0.3-1.5 0.6-2.5 0.6-2.3 0-3.1-1.3-3.1-2.9z"/><path fill-rule="evenodd" class="b" d="m2406.7 1612.7c2.9 0 4 2.1 4 4.8 0 1.1-0.3 2.1-0.5 2.6h-8.5c-0.4 3.4 1.3 4.9 3.6 4.9 1 0 2.1-0.6 2.9-1.2l0.8 1.4c-1 0.7-2.5 1.4-4.2 1.4-3.1 0-5.1-2-5.1-5.5 0-5 3.6-8.4 7-8.4zm2.1 6c0.1-0.4 0.2-0.9 0.2-1.4 0-1.5-0.7-2.9-2.6-2.9-1.9 0-3.8 1.7-4.4 4.3z"/><path class="b" d="m2426.8 1610.3h-5.1l0.4-1.9h12.3l-0.4 1.9h-5.1l-3.1 16h-2.1z"/><path fill-rule="evenodd" class="b" d="m2440 1612.7c2.9 0 4 2.1 4 4.8 0 1.1-0.3 2.1-0.5 2.6h-8.4c-0.5 3.4 1.2 4.9 3.5 4.9 1 0 2.1-0.6 2.9-1.2l0.8 1.4c-1 0.7-2.5 1.4-4.2 1.4-3.1 0-5.1-2-5.1-5.5 0-5 3.6-8.4 7-8.4zm2.1 6c0.1-0.4 0.2-0.9 0.2-1.4 0-1.5-0.7-2.9-2.6-2.9-1.9 0-3.8 1.7-4.4 4.3z"/><path class="b" d="m2447.1 1621.3c0-4.9 3.5-8.6 7.3-8.6 1.6 0 2.6 0.7 3.4 1.7l-1.2 1.2c-0.7-0.8-1.3-1.1-2.3-1.1-2.6 0-5.1 3-5.1 6.7 0 2.4 1.1 3.7 3.1 3.7 1.2 0 2.1-0.6 2.9-1.2l0.9 1.4c-0.9 0.7-2.2 1.5-4.2 1.5-2.8 0-4.8-1.9-4.8-5.3z"/><path class="b" d="m2463.7 1606.9h2.1l-1.3 6.4-0.5 1.7h0.2c1.4-1.3 2.9-2.3 4.5-2.3 2.2 0 3.1 1.3 3.1 3.3 0 0.7-0.1 1.1-0.3 1.8l-1.6 8.5h-2.1l1.6-8.2c0.2-0.7 0.3-1.1 0.3-1.5 0-1.4-0.6-2.1-2-2.1-1 0-2.3 0.8-3.9 2.4l-1.9 9.4h-2z"/><path class="b" d="m2477.7 1613.1h1.7l-0.3 1.9h0.2c1.4-1.3 2.9-2.3 4.5-2.3 2.2 0 3.1 1.3 3.1 3.3 0 0.7 0 1.1-0.2 1.8l-1.7 8.5h-2l1.6-8.2c0.2-0.7 0.2-1.1 0.2-1.5 0-1.4-0.6-2.1-1.9-2.1-1 0-2.3 0.8-3.9 2.4l-1.9 9.4h-2z"/><path fill-rule="evenodd" class="b" d="m2490.6 1621.3c0-5 3.5-8.6 7.1-8.6 2.8 0 4.6 2 4.6 5.3 0 5-3.5 8.6-7 8.6-2.9 0-4.7-2-4.7-5.3zm9.7-3.1c0-2.4-1-3.7-2.8-3.7-2.5 0-4.8 3-4.8 6.7 0 2.4 1 3.7 2.8 3.7 2.4 0 4.8-3 4.8-6.7z"/><path class="b" d="m2505.8 1624.9q0-0.5 0.2-1.1l3.3-16.9h2.1l-3.4 16.9c0 0.3 0 0.5 0 0.6q0 0.5 0.4 0.5c0.1 0 0.2 0 0.4-0.1v1.6c-0.3 0.1-0.7 0.2-1.2 0.2-1.2 0-1.8-0.6-1.8-1.7z"/><path fill-rule="evenodd" class="b" d="m2513.6 1621.3c0-5 3.4-8.6 7-8.6 2.8 0 4.7 2 4.7 5.3 0 5-3.5 8.6-7.1 8.6-2.8 0-4.6-2-4.6-5.3zm9.6-3.1c0-2.4-1-3.7-2.8-3.7-2.4 0-4.8 3-4.8 6.7 0 2.4 1 3.7 2.8 3.7 2.4 0 4.8-3 4.8-6.7z"/><path fill-rule="evenodd" class="b" d="m2527.5 1630.5l1-1.4c1 0.9 2.2 1.6 3.7 1.6 2.2 0 3.5-1.6 4.1-4l0.7-2.8c-1.4 1.4-2.9 2.2-4.6 2.2-2.2 0-3.8-1.6-3.8-4.6 0-4.9 3.4-8.8 6.9-8.8 1.4 0 2.6 0.8 3.2 2h0.1l0.5-1.6h1.7l-2.8 13.8c-0.7 3.5-2.8 5.5-6.1 5.5-1.7 0-3.3-0.8-4.6-1.9zm9.6-8.4l1.2-5.7c-0.8-1.4-1.7-1.9-2.7-1.9-2.5 0-4.8 3.2-4.8 6.7 0 2.1 0.8 3.2 2.3 3.2 1.2 0 2.8-0.8 4-2.3z"/><path class="b" d="m2541.4 1631.6l0.7-1.6q0.4 0.3 0.9 0.3c1.4 0 2.6-1.2 3.5-3.1l0.4-0.9-2.2-13.2h2.1l1 7.4c0.2 1.2 0.3 2.7 0.4 3.9h0.1c0.6-1.2 1.3-2.7 2-3.9l3.7-7.4h2.1l-7.7 14.3c-1.4 2.6-3 4.6-5.5 4.6-0.4 0-1-0.2-1.5-0.4z"/><path class="b" d="m2881.9 1506.7h20.7v103.3h-20.7z"/><path class="b" d="m2923.2 1506.7h20.7v69.9h-20.7z"/><path class="b" d="m2964.5 1506.7h20.7v103.3h-20.7z"/><path fill-rule="evenodd" class="b" d="m2923.5 1600.7h2.1q0.5 0 0.9 0.2 0.4 0.3 0.7 0.6 0.3 0.4 0.5 0.9 0.2 0.5 0.2 1.1 0 0.9-0.4 1.6-0.4 0.7-1.1 0.9-0.3 0.1-0.7 0.2-0.4 0-0.8 0v3.5q0 0.2 0 0.2-0.1 0.1-0.3 0.1h-1.1q-0.2 0-0.2 0-0.1-0.1-0.1-0.2v-8.8q0-0.2 0.1-0.2 0-0.1 0.2-0.1zm1.4 3.9h0.5q0.2 0 0.4-0.2 0.2-0.1 0.4-0.3 0.1-0.3 0.1-0.7 0-0.3-0.1-0.6-0.1-0.1-0.3-0.3-0.2-0.1-0.5-0.1h-0.1q-0.1 0-0.3 0-0.1 0-0.1 0z"/><path fill-rule="evenodd" class="b" d="m2931.8 1600.9q0.4 0.2 0.7 0.6 0.4 0.4 0.6 0.8 0.1 0.5 0.1 1v4.2q0 0.4-0.1 0.9-0.2 0.4-0.5 0.8-0.3 0.3-0.7 0.6-0.5 0.2-1 0.2-0.5 0-0.9-0.2-0.4-0.2-0.7-0.6-0.3-0.3-0.5-0.8-0.2-0.4-0.2-1v-4.1q0-0.5 0.2-0.9 0.1-0.5 0.4-0.9 0.3-0.3 0.8-0.6 0.4-0.2 0.9-0.2 0.5 0 0.9 0.2zm-0.2 2.3q0-0.1-0.1-0.3 0-0.1-0.1-0.2-0.1-0.2-0.2-0.2-0.1-0.1-0.3-0.1-0.2 0-0.3 0.1-0.1 0-0.2 0.2-0.1 0.1-0.1 0.2 0 0.2 0 0.3v4.4q0 0.3 0.1 0.5 0.2 0.2 0.5 0.2 0.3 0 0.5-0.2 0.2-0.2 0.2-0.5z"/><path class="b" d="m2934.1 1600.7q-0.1 0.1-0.1 0.1 0 0 0 0.1v8.9q0 0.1 0 0.1 0 0.1 0.1 0.1h4.3q0.1 0 0.1 0 0.1-0.1 0.1-0.2v-1.3q0-0.1-0.1-0.1 0-0.1-0.1-0.1h-2.8v-7.4q0-0.1 0-0.1-0.1-0.1-0.2-0.1z"/><path fill-rule="evenodd" class="b" d="m2942.5 1600.9q0.4 0.2 0.7 0.6 0.3 0.4 0.5 0.8 0.2 0.5 0.2 1v4.2q0 0.4-0.2 0.9-0.1 0.4-0.4 0.8-0.3 0.3-0.8 0.6-0.4 0.2-0.9 0.2-0.5 0-0.9-0.2-0.4-0.2-0.7-0.6-0.4-0.3-0.5-0.8-0.2-0.4-0.2-1v-4.1q0-0.5 0.1-0.9 0.2-0.5 0.5-0.9 0.3-0.3 0.7-0.6 0.5-0.2 1-0.2 0.5 0 0.9 0.2zm-0.3 2.3q0-0.1 0-0.3-0.1-0.1-0.1-0.2-0.1-0.2-0.2-0.2-0.2-0.1-0.3-0.1-0.2 0-0.3 0.1-0.1 0-0.2 0.2-0.1 0.1-0.1 0.2-0.1 0.2-0.1 0.3v4.4q0 0.3 0.2 0.5 0.2 0.2 0.5 0.2 0.3 0 0.5-0.2 0.1-0.2 0.1-0.5z"/><path fill-rule="evenodd" class="b" d="m2957.5 1616.2h-2q-0.2 0-0.2 0 0 0.1 0 0.2v13.9q0 0.2 0 0.2 0.1 0.1 0.2 0.1h2.1q0.1 0 0.2-0.1 0 0 0-0.1v-6.7l2.4 6.6q0.1 0.2 0.1 0.3 0.1 0 0.3 0h2q0.2 0 0.2 0 0.1-0.1 0.1-0.2v-14q0-0.1-0.1-0.2-0.1 0-0.2 0h-2.1q-0.1 0-0.2 0 0 0.1 0 0.2v6.8l-2.4-6.8q-0.1-0.2-0.1-0.2-0.1 0-0.3 0z"/><path fill-rule="evenodd" class="b" d="m2951.9 1616.4q0.7 0.4 1.2 0.9 0.5 0.6 0.8 1.3 0.3 0.8 0.3 1.6v6.4q0 0.7-0.3 1.5-0.3 0.7-0.8 1.2-0.4 0.6-1.1 0.9-0.7 0.4-1.5 0.4-0.7 0-1.4-0.4-0.6-0.3-1.1-0.8-0.5-0.6-0.8-1.3-0.3-0.7-0.3-1.5v-6.5q0-0.7 0.3-1.4 0.2-0.8 0.7-1.3 0.5-0.6 1.1-0.9 0.7-0.4 1.5-0.4 0.8 0 1.4 0.3zm-0.4 3.6q0-0.2 0-0.5-0.1-0.2-0.2-0.4-0.1-0.2-0.3-0.3-0.2-0.1-0.5-0.1-0.2 0-0.4 0.1-0.2 0.1-0.3 0.3-0.2 0.2-0.2 0.4-0.1 0.3-0.1 0.5v6.8q0 0.4 0.3 0.8 0.2 0.4 0.7 0.4 0.5 0 0.8-0.3 0.2-0.4 0.2-0.9z"/><path fill-rule="evenodd" class="b" d="m2938.9 1616.1h3.3q0.7 0 1.4 0.3 0.6 0.4 1.1 1 0.5 0.5 0.8 1.3 0.3 0.8 0.3 1.7 0 1.4-0.6 2.5-0.4 0.6-1 1l1.3 6.7h-2.6l-1.2-6q-0.2 0-0.6 0v5.5q0 0.3 0 0.4-0.1 0.1-0.4 0.1h-1.8q-0.2 0-0.3-0.1-0.1 0-0.1-0.2v-13.8q0-0.3 0.1-0.3 0-0.1 0.3-0.1zm2.2 6h0.8q0.4 0 0.7-0.2 0.3-0.2 0.5-0.5 0.2-0.5 0.2-1 0-0.6-0.2-1.1-0.2-0.2-0.4-0.4-0.3-0.2-0.8-0.2h-0.2q-0.1 0-0.3 0-0.3 0-0.3 0z"/><path fill-rule="evenodd" class="b" d="m2930.4 1616.1q-0.2 0-0.2 0.2v2.1q0 0.1 0 0.2 0.1 0 0.2 0h2.1v11.7q0 0.3 0.2 0.3h2.2q0.2 0 0.2-0.3v-11.7h2.1q0.1 0 0.1 0 0.1-0.1 0.1-0.2v-2.1q0-0.2-0.2-0.2z"/><path fill-rule="evenodd" class="b" d="m2925.2 1616.1q-0.1 0-0.1 0.2l-3 14q0 0.2 0 0.2 0 0.1 0.2 0.1h2.1q0.2 0 0.2-0.1l1.6-7.7 1.6 7.6q0 0.1 0.1 0.1 0 0.1 0.2 0.1h2q0.2 0 0.3-0.1 0-0.1 0-0.2l-3-14q0-0.1-0.1-0.1 0-0.1-0.1-0.1z"/><path fill-rule="evenodd" class="b" d="m2913.8 1620.1v6.3q0 0.9 0.2 1.7 0.3 0.7 0.8 1.3 0.5 0.6 1.1 0.9 0.7 0.3 1.4 0.3 0.7 0 1.3-0.3 0.6-0.2 1.1-0.6 0.4-0.4 0.8-1 0.3-0.6 0.4-1.4 0-0.1 0-0.1 0 0-0.1 0h-2.3q-0.1 0-0.1 0-0.1 0.1-0.1 0.2-0.1 0.3-0.3 0.4-0.3 0.2-0.6 0.2-1 0-1-1.5v-6.2q0-0.8 0.2-1.2 0.3-0.4 0.8-0.4 0.3 0 0.5 0.2 0.2 0.2 0.4 0.5 0 0.1 0.1 0.1 0 0.1 0.1 0.1h2.3q0.1 0 0.1-0.1 0.1 0 0-0.2-0.3-1.5-1.2-2.3-0.9-0.9-2.3-0.9-0.7 0-1.3 0.3-0.7 0.3-1.2 0.8-0.5 0.5-0.8 1.3-0.3 0.7-0.3 1.6z"/><path fill-rule="evenodd" class="b" d="m2905.5 1620.1v6.3q0 0.9 0.2 1.7 0.3 0.7 0.8 1.3 0.5 0.6 1.1 0.9 0.7 0.3 1.4 0.3 0.7 0 1.3-0.3 0.6-0.2 1.1-0.6 0.4-0.4 0.8-1 0.3-0.6 0.4-1.4 0-0.1 0-0.1 0 0-0.1 0h-2.3q-0.1 0-0.1 0-0.1 0.1-0.1 0.2-0.1 0.3-0.3 0.4-0.3 0.2-0.6 0.2-1 0-1-1.5v-6.2q0-0.8 0.2-1.2 0.3-0.4 0.8-0.4 0.3 0 0.5 0.2 0.2 0.2 0.4 0.5 0 0.1 0.1 0.1 0 0.1 0.1 0.1h2.3q0.1 0 0.1-0.1 0.1 0 0-0.2-0.3-1.5-1.2-2.3-0.9-0.9-2.3-0.9-0.7 0-1.3 0.3-0.7 0.3-1.2 0.8-0.5 0.5-0.8 1.3-0.3 0.7-0.3 1.6z"/><path fill-rule="evenodd" class="b" d="m2900.3 1624.6h3q0.1 0 0.1-0.1 0 0 0-0.1v-2.2q0-0.1 0-0.1 0 0-0.1 0h-3z"/><path fill-rule="evenodd" class="b" d="m2904.1 1616.1h-6.7q-0.2 0-0.2 0.1-0.1 0-0.1 0.2v13.8q0 0.2 0.1 0.3 0 0.1 0.2 0.1h6.7q0.1 0 0.2-0.1 0-0.1 0-0.2v-2q0-0.2 0-0.3-0.1 0-0.2 0h-4.4v-9.3h4.5q0.1 0 0.1-0.1 0 0 0-0.1v-2q0-0.3 0-0.4-0.1 0-0.2 0z"/><path fill-rule="evenodd" class="b" d="m2969.7 1620.1v6.3q0 0.9 0.3 1.7 0.2 0.7 0.7 1.3 0.5 0.6 1.1 0.9 0.7 0.3 1.5 0.3 0.6 0 1.2-0.3 0.6-0.2 1.1-0.6 0.5-0.4 0.8-1 0.3-0.6 0.4-1.4 0-0.1 0-0.1 0 0-0.1 0h-2.3q-0.1 0-0.1 0 0 0.1-0.1 0.2-0.1 0.3-0.3 0.4-0.3 0.2-0.6 0.2-1 0-1-1.5v-6.2q0-0.8 0.3-1.2 0.2-0.4 0.7-0.4 0.3 0 0.5 0.2 0.3 0.2 0.4 0.5 0.1 0.1 0.1 0.1 0 0.1 0.1 0.1h2.3q0.1 0 0.1-0.1 0.1 0 0.1-0.2-0.4-1.5-1.3-2.3-0.9-0.9-2.3-0.9-0.7 0-1.3 0.3-0.6 0.3-1.2 0.8-0.5 0.5-0.8 1.3-0.3 0.7-0.3 1.6z"/><path class="b" d="m2881.9 1616.2h2.7v14.4h-2.7z"/><path class="b" d="m2886.8 1616.2h2.6v9.7h-2.6z"/><path class="b" d="m2891.7 1616.2h2.6v14.4h-2.6z"/><path class="b" d="m2965.2 1616.2h2.6v14.4h-2.6z"/><path fill-rule="evenodd" class="b" d="m2980.1 1616.1q-0.1 0-0.1 0.2l-3 14q-0.1 0.2 0 0.2 0 0.1 0.2 0.1h2.1q0.2 0 0.2-0.1l1.6-7.7 1.5 7.6q0.1 0.1 0.1 0.1 0.1 0.1 0.3 0.1h2q0.2 0 0.3-0.1 0-0.1 0-0.2l-3-14q-0.1-0.1-0.1-0.1 0-0.1-0.1-0.1z"/><path class="b" d="m3312.7 1562.9h1.4l2.3 5.3c0.2 0.6 0.5 1.4 0.5 1.4 0 0 0.3-0.8 0.5-1.4l2.3-5.3h1.4l0.8 9.9h-1.4l-0.4-6.3c-0.1-0.6-0.1-1.4-0.1-1.4 0 0-0.3 0.9-0.5 1.4l-2 4.5h-1.2l-2-4.5c-0.2-0.5-0.5-1.5-0.5-1.5 0 0 0 0.9-0.1 1.5l-0.5 6.3h-1.3z"/><path class="b" d="m3324.6 1562.9h5.7v1.2h-4.3v3.1h3.5v1.2h-3.5v3.2h4.6v1.2h-6z"/><path class="b" d="m3337.2 1562.7c2.4 0 3.6 1.3 3.6 1.3l-0.7 1.1c0 0-1.2-1.1-2.9-1.1-2.2 0-3.6 1.7-3.6 3.8 0 2.1 1.4 3.9 3.6 3.9 1.9 0 3.1-1.3 3.1-1.3l0.7 1c0 0-1.3 1.5-3.8 1.5-3 0-5.1-2.2-5.1-5.1 0-2.9 2.2-5.1 5.1-5.1z"/><path class="b" d="m3343.2 1562.9h1.4v4.3h5.1v-4.3h1.4v9.9h-1.4v-4.4h-5.1v4.4h-1.4z"/><path fill-rule="evenodd" class="b" d="m3359 1569.9h-3.7l-1 2.9h-1.5l3.6-9.9h1.5l3.5 9.9h-1.4zm-1.9-5.7c0 0-0.2 0.9-0.4 1.4l-1.1 3.1h3l-1.1-3.1c-0.2-0.5-0.4-1.4-0.4-1.4z"/><path class="b" d="m3364.7 1564.1h-3.4v-1.2h8.1v1.2h-3.3v8.7h-1.4z"/><path fill-rule="evenodd" class="b" d="m3371.1 1562.9h3.1c1 0 1.4 0.1 1.8 0.2 1 0.4 1.7 1.4 1.7 2.7 0 1.2-0.7 2.3-1.8 2.7 0 0 0.1 0.1 0.3 0.4l2.1 3.9h-1.6l-2.1-4h-2.1v4h-1.4zm3.4 4.7c1.1 0 1.8-0.7 1.8-1.8q-0.1-1.1-0.8-1.5c-0.3-0.1-0.6-0.2-1.4-0.2h-1.6v3.5z"/><path fill-rule="evenodd" class="b" d="m3384.8 1562.7c2.9 0 5.1 2.2 5.1 5 0 3-2.2 5.2-5.1 5.2-2.9 0-5.1-2.2-5.1-5.2 0-2.8 2.2-5 5.1-5zm0 9c2 0 3.6-1.7 3.6-4 0-2.1-1.6-3.7-3.6-3.7-2 0-3.7 1.6-3.7 3.7 0 2.3 1.7 4 3.7 4z"/><path class="b" d="m3392.2 1562.9h1.3l4.4 6.4c0.4 0.5 0.9 1.4 0.9 1.4 0 0-0.1-0.9-0.1-1.4v-6.4h1.4v9.9h-1.4l-4.4-6.5c-0.4-0.5-0.8-1.4-0.8-1.4 0 0 0.1 0.9 0.1 1.4v6.5h-1.4z"/><path class="b" d="m3403 1562.9h1.4v9.9h-1.4z"/><path class="b" d="m3411.8 1562.7c2.3 0 3.6 1.3 3.6 1.3l-0.7 1.1c0 0-1.2-1.1-2.9-1.1-2.2 0-3.6 1.7-3.6 3.8 0 2.1 1.4 3.9 3.6 3.9 1.9 0 3.1-1.3 3.1-1.3l0.7 1c0 0-1.3 1.5-3.8 1.5-3 0-5.1-2.2-5.1-5.1 0-2.9 2.2-5.1 5.1-5.1z"/><path class="b" d="m3417.8 1570.6c0 0 1.1 1 2.5 1 1 0 1.8-0.5 1.8-1.4 0-2.2-4.8-1.7-4.8-4.7 0-1.6 1.3-2.8 3.2-2.8 1.8 0 2.8 1 2.8 1l-0.7 1.2c0 0-0.9-0.9-2.1-0.9-1.1 0-1.8 0.7-1.8 1.4 0 2.1 4.8 1.5 4.8 4.8 0 1.5-1.2 2.7-3.2 2.7-2.1 0-3.3-1.3-3.3-1.3z"/><path fill-rule="evenodd" class="b" d="m3312.2 1581.4h3.6c1.8 0 3.1 1.2 3.1 3.1 0 1.9-1.3 3.1-3.1 3.1h-2.2v3.7h-1.4zm3.4 5c1.2 0 1.9-0.7 1.9-1.9 0-1.2-0.7-1.9-1.9-1.9h-2v3.8z"/><path fill-rule="evenodd" class="b" d="m3321 1581.4h3c1 0 1.4 0.1 1.8 0.2 1 0.4 1.7 1.4 1.7 2.7 0 1.3-0.7 2.3-1.8 2.7 0 0 0.1 0.1 0.3 0.5l2.1 3.8h-1.6l-2-3.9h-2.2v3.9h-1.3zm3.3 4.7c1.1 0 1.8-0.6 1.8-1.8q0-1.1-0.8-1.5c-0.3-0.1-0.6-0.2-1.4-0.2h-1.6v3.5z"/><path fill-rule="evenodd" class="b" d="m3334.6 1581.2c2.9 0 5.1 2.2 5.1 5.1 0 2.9-2.2 5.2-5.1 5.2-2.8 0-5.1-2.3-5.1-5.2 0-2.9 2.3-5.1 5.1-5.1zm0 9c2 0 3.7-1.7 3.7-3.9 0-2.2-1.7-3.8-3.7-3.8-2 0-3.6 1.6-3.6 3.8 0 2.2 1.6 3.9 3.6 3.9z"/><path class="b" d="m3344 1582.6h-3.4v-1.2h8.1v1.2h-3.4v8.7h-1.3z"/><path fill-rule="evenodd" class="b" d="m3354.7 1581.2c2.9 0 5.1 2.2 5.1 5.1 0 2.9-2.2 5.2-5.1 5.2-2.9 0-5.1-2.3-5.1-5.2 0-2.9 2.2-5.1 5.1-5.1zm0 9c2 0 3.6-1.7 3.6-3.9 0-2.2-1.6-3.8-3.6-3.8-2 0-3.7 1.6-3.7 3.8 0 2.2 1.7 3.9 3.7 3.9z"/><path class="b" d="m3364 1582.6h-3.3v-1.2h8.1v1.2h-3.4v8.7h-1.4z"/><path class="b" d="m3372.9 1587.1l-3.3-5.7h1.6l1.8 3.3c0.3 0.5 0.6 1.2 0.6 1.2 0 0 0.3-0.7 0.6-1.2l1.9-3.3h1.5l-3.3 5.7v4.2h-1.4z"/><path fill-rule="evenodd" class="b" d="m3379.4 1581.4h3.6c1.8 0 3.1 1.2 3.1 3.1 0 1.9-1.3 3.1-3.1 3.1h-2.3v3.7h-1.3zm3.3 5c1.2 0 2-0.7 2-1.9 0-1.2-0.8-1.9-1.9-1.9h-2.1v3.8z"/><path class="b" d="m3388.1 1581.4h1.4v9.9h-1.4z"/><path class="b" d="m3392.5 1581.4h1.4l4.4 6.4c0.3 0.6 0.8 1.5 0.8 1.5 0 0-0.1-0.9-0.1-1.5v-6.4h1.4v9.9h-1.4l-4.4-6.4c-0.3-0.6-0.8-1.5-0.8-1.5 0 0 0.1 0.9 0.1 1.5v6.4h-1.4z"/><path class="b" d="m3407.8 1581.2c2.3 0 3.6 1.2 3.6 1.2l-0.7 1.1c0 0-1.2-1-2.8-1-2.4 0-3.8 1.7-3.8 3.8 0 2.3 1.6 3.9 3.7 3.9 1.7 0 2.8-1.2 2.8-1.2v-1.5h-1.6v-1.2h2.8v5h-1.2v-0.6c0-0.2 0-0.4 0-0.4 0 0-1.1 1.2-3 1.2-2.7 0-4.9-2.1-4.9-5.2 0-2.8 2.2-5.1 5.1-5.1z"/><path class="b" d="m3312.2 1599.9h5.4v1.2h-4v3.3h3.4v1.2h-3.4v4.2h-1.4z"/><path fill-rule="evenodd" class="b" d="m3324.3 1607h-3.7l-1 2.8h-1.5l3.6-9.9h1.5l3.5 9.9h-1.4zm-1.9-5.7c0 0-0.2 0.9-0.4 1.4l-1.1 3.2h3l-1.1-3.2c-0.1-0.5-0.4-1.4-0.4-1.4z"/><path class="b" d="m3332.7 1599.8c2.4 0 3.6 1.3 3.6 1.3l-0.6 1c0 0-1.2-1.1-2.9-1.1-2.2 0-3.7 1.7-3.7 3.8 0 2.1 1.5 3.9 3.7 3.9 1.9 0 3.1-1.3 3.1-1.3l0.7 1c0 0-1.3 1.6-3.8 1.6-3 0-5.1-2.3-5.1-5.2 0-2.9 2.2-5 5-5z"/><path class="b" d="m3338.8 1599.9h1.4v9.9h-1.4z"/><path class="b" d="m3343.1 1599.9h1.4v8.7h4.4v1.2h-5.8z"/><path class="b" d="m3350.8 1599.9h1.4v9.9h-1.4z"/><path class="b" d="m3357.3 1601.1h-3.4v-1.2h8.2v1.2h-3.4v8.7h-1.4z"/><path class="b" d="m3366.2 1605.6l-3.3-5.7h1.5l1.9 3.3c0.3 0.5 0.6 1.2 0.6 1.2 0 0 0.3-0.7 0.6-1.2l1.8-3.3h1.6l-3.3 5.7v4.2h-1.4z"/><path class="b" d="m3036.8 1527.4h16.4v7.3h-7.9v67.9h7.9v7.4h-16.4z"/><path fill-rule="evenodd" class="b" d="m3068.2 1533.6h25.7c12.8 0 22.1 8.6 22.1 22 0 13.3-9.3 22.2-22.1 22.2h-15.8v26h-9.9zm24.1 35.7c8.5 0 13.6-5.2 13.6-13.7 0-8.5-5.1-13.4-13.5-13.4h-14.3v27.1z"/><path class="b" d="m3128.6 1553.5h9.4v8.7c0 2.1-0.2 3.8-0.2 3.8h0.2c2.3-7.4 8.1-13.1 15.9-13.1 1.3 0 2.5 0.2 2.5 0.2v9.5c0 0-1.3-0.3-2.8-0.3-6.2 0-11.8 4.4-14.1 11.9-0.9 2.8-1.2 5.9-1.2 9v20.6h-9.7z"/><path fill-rule="evenodd" class="b" d="m3191.1 1552.3c15 0 27.2 11 27.2 26.2 0 15.4-12.2 26.5-27.2 26.5-15 0-27.2-11.1-27.2-26.5 0-15.2 12.2-26.2 27.2-26.2zm0 44.4c9.6 0 17.3-7.6 17.3-18.2 0-10.4-7.7-17.9-17.3-17.9-9.5 0-17.3 7.5-17.3 17.9 0 10.6 7.8 18.2 17.3 18.2z"/><path class="b" d="m3235.7 1602.6v-67.9h-8.1v-7.3h16.5v82.6h-16.5v-7.4z"/><path class="b" d="m3262.4 1527.4h6.9l6.9 17.5c0.8 2 1.8 5.1 1.8 5.1h0.1c0 0 0.9-3.1 1.7-5.1l7-17.5h6.8l2.9 35.3h-6.4l-1.5-19.7c-0.2-2.4-0.1-5.5-0.1-5.5h-0.1c0 0-1 3.4-1.8 5.5l-5.8 13.6h-5.6l-5.7-13.6c-0.8-2.1-1.9-5.6-1.9-5.6h-0.1c0 0 0.1 3.2 0 5.6l-1.5 19.7h-6.5z"/><path class="b" d="m239.1 1511h-24.9l-37.3 91.9h25z"/><path class="b" d="m244.8 1513.9l-12.5 30.9 23.5 58.1h26.5z"/><path class="b" d="m327.3 1537.5q-6.7 0-12 2.7-5.4 2.8-8.7 8v-9.1h-18.9v63.8h19.4v-35.7q0-6.5 3.7-10.5 3.6-3.9 9.7-3.9 5 0 7.4 3 2.4 3 2.4 9.5v37.6h19.4v-38.5q0-13.5-5.5-20.2-5.6-6.7-16.9-6.7z"/><path class="b" d="m396.3 1565.3l-10.7-2.4q-3.9-1.1-5.4-2.2-1.6-1.2-1.6-3.3 0-2.9 2.6-4.4 2.6-1.6 7.1-1.6 9.8 0 19.8 7l5.2-13q-5.2-3.7-11.6-5.8-6.4-2.1-13.3-2.1-8 0-14.2 2.6-6.2 2.6-9.6 7.2-3.5 4.5-3.5 10.5 0 7.5 4.4 11.9 4.3 4.4 13.4 6.4l10.3 2.4q4.8 1 6.5 2.3 1.8 1.3 1.8 3.7 0 2.6-2.5 4.1-2.6 1.5-7.1 1.5-6.3 0-12.5-2-6.1-1.9-11.3-5.5l-5.1 13.6q5.2 3.7 12.5 5.8 7.3 2 16 2 12.8 0 20.1-5.3 7.2-5.3 7.2-14.5 0-7.7-4.4-12.2-4.5-4.5-14.1-6.7z"/><path class="b" d="m539.9 1572q-4.4-4.4-14.1-6.7l-10.7-2.4q-3.8-1.1-5.4-2.2-1.5-1.2-1.5-3.3 0-2.9 2.5-4.4 2.6-1.6 7.1-1.6 9.8 0 19.9 7l5.1-13q-5.1-3.7-11.6-5.8-6.4-2.1-13.3-2.1-7.9 0-14.2 2.6-6.2 2.6-9.6 7.2-3.4 4.5-3.4 10.5-0.1 7.5 4.3 11.9 4.3 4.4 13.4 6.4l10.3 2.4q4.8 1 6.5 2.3 1.8 1.3 1.8 3.7 0 2.6-2.5 4.1-2.6 1.5-7.1 1.5-6.3 0-12.5-2-6.1-1.9-11.3-5.5l-5.1 13.6q5.2 3.7 12.5 5.8 7.3 2 16.1 2 12.7 0 20-5.3 7.2-5.3 7.3-14.5-0.1-7.7-4.5-12.2z"/><path class="b" d="m468.5 1539.1l-15.2 37.5-15.3-37.5h-18.7l24.6 60.7-10.8 26.5h18.8l35.3-87.2z"/><path fill-rule="evenodd" class="b" d="m1960.5 1534.4v13.8q-10.6-4.1-18.9-4.1-4.9 0-7.8 1.8-3 1.8-3 4.4 0 3.5 6.7 6.2l12.8 6.3c10.4 5 15.6 11.7 15.6 20q0 10.5-8.3 16.6c-5.5 4.2-12.8 6.2-22 6.2q-6.4 0-11.5-0.6c-3.3-0.3-7.2-1.1-11.5-2.2v-14.4q11.8 4 21.5 4 11.6 0 11.6-6.8c0-2.3-1.5-4.1-4.7-5.5l-14.3-6.2q-7.9-3.6-11.8-8.8c-2.5-3.5-3.8-7.5-3.8-12q0-9.6 7.9-15.5 8-5.8 21.2-5.8c2.8 0 6.1 0.2 9.7 0.7q5.5 0.7 10.6 1.9z"/><path fill-rule="evenodd" class="b" d="m1555.9 1534.4v13.8q-10.6-4.1-18.9-4.1c-3.2 0-5.8 0.6-7.8 1.8q-2.9 1.8-3 4.4 0.1 3.5 6.7 6.2l12.9 6.3q15.5 7.5 15.5 20 0 10.5-8.2 16.6c-5.5 4.2-12.9 6.2-22.1 6.2q-6.3 0-11.4-0.6c-3.4-0.3-7.2-1.1-11.6-2.2v-14.4q11.9 4 21.6 4 11.6 0 11.6-6.8 0-3.4-4.8-5.5l-14.3-6.2q-7.9-3.6-11.7-8.8c-2.6-3.5-3.8-7.5-3.8-12q0-9.6 7.9-15.5c5.3-3.9 12.3-5.8 21.1-5.8 2.9 0 6.1 0.2 9.8 0.7q5.5 0.7 10.5 1.9z"/><path class="b" d="m1591.6 1533.1h-20.9v71.2h20.9z"/><path fill-rule="evenodd" class="b" d="m1659.7 1604.3h-51.9v-71.2h51.3v13.1h-31.1v15.8h27v11.9h-27v16.6h31.7z"/><path fill-rule="evenodd" class="b" d="m1671.3 1604.3v-71.2h25.6l17.5 43.6 18.2-43.6h24.3v71.2h-19.6v-47l-20.2 47.7h-12.1l-19.5-47.7v47z"/><path fill-rule="evenodd" class="b" d="m1825 1604.3h-51.9v-71.2h51.3v13.1h-31v15.8h27v11.9h-27v16.6h31.6z"/><path fill-rule="evenodd" class="b" d="m1897.9 1604.3h-22.3l-24.9-45.7v45.7h-14.1v-71.2h22.8l24.3 44.9v-44.9h14.2z"/><path fill-rule="evenodd" class="b" d="m870.1 1530.9c0 8.1-15.2 14.7-34 14.7-18.8 0-34-6.6-34-14.7 0-8.1 15.2-14.7 34-14.7 18.8 0 34 6.6 34 14.7zm-14.8 0.1c0-5.5-8.6-9.9-19.2-9.9-10.6 0-19.2 4.4-19.2 9.9 0 5.4 8.6 9.8 19.2 9.8 10.6 0 19.2-4.4 19.2-9.8z"/><path class="b" d="m956.2 1515.6h-17.1v30h17.1z"/><path class="b" d="m1319.1 1559.7l-33-0.4-31.2-0.2h-30l-30 0.5-30.1 0.8-30.8 1.3-48.9 2.8-49.1 4.1-48.9 5.3-36.9 4.8-36.4 5.5-35.7 6.1-35.3 6.6-35.5 7.4-36.9 8-34.4 7.6-3.1 1 30.6-8.9 30.4-8.2 29.3-7.4 29.1-6.8 29.5-6 30-5.2 48.3-7 49.1-5.5 49.4-4.4 49.3-3.2 48.8-1.9 48-0.6 27.8 0.4 27.7 0.8 28.5 1.2 27.5 1.4z"/><path fill-rule="evenodd" class="b" d="m1316.7 1525.3c0.1 10-15.8 8.8-15.8 8.8h-32.8v11.5h-15.5v-30h48.3c0 0 15.8-0.7 15.8 9.7zm-18.5 0.4c-0.2-4.2-4.3-3.8-4.3-3.8h-25.8v8.5h25.8c2 0 4.4-0.6 4.3-4.7z"/><path class="b" d="m1222.6 1515.6h19.2v30h-12.7v-22.2l-19.9 22.2h-11.7l-19.9-22.2v22.2h-12.6v-30h19.1l19.2 24 0.9-0.9z"/><path class="b" d="m1071.1 1545.6v-24.9h23.9v-5.1h-60.9v5.1h23.9v24.9z"/><path class="b" d="m968.8 1539.2h39.3c0 0 6 0.7 6-3.5 0-4.3-6-3.9-6-3.9h-28.4c0 0-14.3 1.1-14.3-8.2 0-9.1 13.6-8 13.6-8h46.2v5.3h-39c0 0-4.3-0.5-4.3 3 0 3.5 4.3 2.8 4.3 2.8h27.9c0 0 17.7-0.8 17.7 8.3 0 11.1-17.7 10.6-17.7 10.6h-45.3z"/><path class="b" d="m895.2 1545.6h34.6v-5.5h-26.2c-8.1 0-7.5-5.2-7.5-5.2v-19.3h-18.2v19.3c0 0-0.2 10.7 17.3 10.7z"/><path fill-rule="evenodd" class="b" d="m1159.8 1545.6h-11.9l-7.9-8.6h-26.5l-7.9 8.6h-12l25.6-30h15.1zm-31.7-21.1l-0.7-1-7.2 9.2h14.3z"/><path fill-rule="evenodd" class="b" d="m795.5 1524.4c0 10.1-19.6 9.6-19.6 9.6h-28.6v11.6h-15.6v-30h44.8c0 0 19-0.8 19 8.8zm-17.3-0.7c0-4.3-4.1-4.2-4.1-4.2h-26.8v8.2h26.8c0 0 4.1 0.2 4.1-4z"/><path class="b" d="m1062.7 1615.9l-4.3 5.5h-10.9q-2.8 0-5.2-0.8-2.4-0.8-4.1-2.3-1.8-1.5-2.8-3.5-1-2-1-4.4 0-2.4 1-4.3 1-2 2.8-3.4 1.7-1.4 4.1-2.2 2.4-0.7 5.2-0.7h15.2l-4.3 5.6h-10.9q-1.4 0-2.5 0.4-1.2 0.4-2 1.1-0.9 0.7-1.4 1.7-0.5 0.9-0.5 2.1 0 1.2 0.5 2.1 0.5 1 1.3 1.6 0.9 0.7 2.1 1.1 1.1 0.4 2.5 0.4z"/><path fill-rule="evenodd" class="b" d="m1083.4 1599.4q7.9 0 11.8 2.7 4 2.7 4 8.5 0 5.8-3.9 8.5-4 2.7-11.9 2.7-8 0-11.9-2.7-3.9-2.7-3.9-8.5 0-5.8 3.9-8.5 3.9-2.7 11.9-2.7zm0 16.8q2.5 0 4.2-0.2 1.8-0.3 2.9-0.9 1.1-0.6 1.6-1.7 0.4-1.1 0.4-2.8 0-1.8-0.4-2.8-0.5-1.1-1.6-1.7-1.1-0.6-2.9-0.8-1.7-0.2-4.2-0.2-2.5 0-4.3 0.2-1.7 0.2-2.8 0.8-1.1 0.6-1.6 1.7-0.5 1-0.5 2.8 0 1.7 0.5 2.8 0.5 1.1 1.6 1.7 1.1 0.6 2.8 0.9 1.8 0.2 4.3 0.2z"/><path class="b" d="m1119.9 1607.8q0.7 1.3 1.2 2.3 0.5 0.9 0.9 1.7 0.4 0.7 0.7 1.3 0.4 0.6 0.6 1.2 0.3-0.6 0.6-1.2 0.3-0.6 0.7-1.3 0.4-0.8 1-1.7 0.5-1 1.2-2.2l3.5-6.2q0.6-1 1.4-1.6 0.9-0.7 2.3-0.7 1.2 0 2.2 0.8 1.1 0.7 1.5 2.2l5.5 19h-6.7l-2-7.5q-0.5-1.8-0.9-3.2-0.4-1.4-0.6-2.8-0.6 1.2-1.2 2.5-0.7 1.4-1.8 3.5l-2.9 5.5q-0.5 0.8-0.9 1.2-0.4 0.5-0.9 0.8-0.4 0.2-1 0.3-0.5 0.1-1.1 0.1-0.6 0-1.1-0.1-0.5-0.1-1-0.3-0.4-0.3-0.9-0.8-0.4-0.4-0.8-1.2l-2.9-5.5q-0.6-1.1-1.1-2-0.4-0.9-0.8-1.5-0.4-0.7-0.7-1.3-0.2-0.6-0.5-1.2-0.2 1.3-0.6 2.7-0.4 1.5-0.8 3.3l-2.1 7.5h-6.6l5.6-19q0.5-1.5 1.5-2.2 1.1-0.8 2.3-0.8 1.3 0 2.2 0.6 0.9 0.7 1.5 1.7z"/><path class="b" d="m1177.5 1607.9q0 1.8-0.8 3.3-0.7 1.5-2 2.5-1.4 1-3.4 1.6-2 0.6-4.5 0.6h-11.3v5.5h-6.7v-11h18.7q1.5 0 2.4-0.7 0.8-0.7 0.8-1.8 0-1.2-0.8-1.8-0.9-0.7-2.4-0.7h-18.7l4.4-5.6h13.6q2.6 0 4.5 0.6 2 0.6 3.4 1.7 1.3 1 2 2.5 0.8 1.5 0.8 3.3z"/><path fill-rule="evenodd" class="b" d="m1199.2 1599.4q7.9 0 11.9 2.7 4 2.7 4 8.5 0 5.8-4 8.5-3.9 2.7-11.9 2.7-7.9 0-11.9-2.7-3.9-2.7-3.9-8.5 0-5.8 4-8.5 3.9-2.7 11.8-2.7zm0 16.8q2.6 0 4.3-0.2 1.8-0.3 2.8-0.9 1.1-0.6 1.6-1.7 0.5-1.1 0.5-2.8 0-1.8-0.5-2.8-0.5-1.1-1.6-1.7-1-0.6-2.8-0.8-1.7-0.2-4.3-0.2-2.5 0-4.2 0.2-1.8 0.2-2.9 0.8-1.1 0.6-1.5 1.7-0.5 1-0.5 2.8 0 1.7 0.5 2.8 0.4 1.1 1.5 1.7 1.1 0.6 2.9 0.9 1.7 0.2 4.2 0.2z"/><path class="b" d="m1241.8 1608.4q3.9 0 6 1.5 2.1 1.5 2.1 4.4 0 1.7-0.5 3-0.6 1.4-1.7 2.3-1.1 0.9-2.9 1.4-1.7 0.4-4.2 0.4h-20.2l4.3-5.5h16.4q1.2 0 1.8-0.4 0.5-0.4 0.5-1.2 0-0.9-0.5-1.2-0.6-0.4-1.8-0.4h-11.8q-2.1 0-3.6-0.4-1.5-0.5-2.5-1.3-1-0.8-1.5-1.9-0.5-1.2-0.5-2.6 0-1.5 0.5-2.8 0.6-1.2 1.7-2.1 1.1-0.8 2.9-1.3 1.7-0.5 4.2-0.5h18.8l-4.3 5.6h-15q-1.2 0-1.7 0.3-0.6 0.4-0.6 1.2 0 0.8 0.6 1.2 0.5 0.3 1.7 0.3z"/><path class="b" d="m1262.9 1599.8h-6.7v21.6h6.7z"/><path class="b" d="m1297.2 1599.8l-4.3 5.6h-7.8v16h-6.7v-16h-10.1l4.3-5.6z"/><path class="b" d="m1309.3 1599.8h-6.7v21.6h6.7z"/><path class="b" d="m2767.9 2052.4h49.8l10.2-11.7h-49.4z"/><path fill-rule="evenodd" class="b" d="m3017.7 2033.5c0.1 11-6.5 22.1-21.6 22.1h-16.9v-43.5h16.9c14.8 0 21.4 10.6 21.6 21.4zm-30.5 14.2h8.9c9.8 0 13.7-7.2 13.5-14.3-0.2-6.8-4.1-13.5-13.5-13.5h-8.9z"/><path fill-rule="evenodd" class="b" d="m3053.6 2047.4h-22.5l-3.7 8.2h-8.8l19.3-43.5h8.9l19.3 43.5h-8.8zm-11.3-26.2l-8 18.6h16z"/><path class="b" d="m3086.2 2055.8h-8.5l-17.9-43.7h9.1l13 33.9 13.1-33.9h9.1z"/><path class="b" d="m3145.6 2049.6c-4.3 4.4-10 6.5-15.7 6.5-14.5 0-22.1-10.2-22.2-22-0.1-11.6 7.4-22.5 22.2-22.5 5.7 0 11.4 2.2 15.7 6.5l-2.3 2c-3.7-3.7-8.5-5.5-13.4-5.5-12.6 0-19 8.9-19 19.4 0.2 10.2 6.6 19 19 19 4.9 0 9.8-1.8 13.5-5.5z"/><path fill-rule="evenodd" class="b" d="m3195 2033.9c0 11.5-7.2 22.5-21.7 22.5-14.5 0-21.8-11.1-21.8-22.6 0-11.7 7.2-22.4 21.8-22.4 14.5 0 21.8 10.8 21.7 22.5zm-40.2 0c0.1 9.8 6.2 19.4 18.5 19.4 12.3 0 18.5-9.6 18.5-19.4 0-10.1-6.1-19.4-18.5-19.4-12.4 0-18.6 9.1-18.5 19.4z"/><path class="b" d="m3203 2012.1h3.2v43.5h-3.2z"/><path class="b" d="m3215.7 2012.1v43.5h27.6v-3.1h-24.2v-40.4z"/><path class="b" d="m2984.5 2074.5c-0.8-1.3-2-1.5-3.2-1.5-1.2 0-3.2 0.5-3.2 2.2 0 1.3 1.4 1.6 3.2 2 2 0.4 4.1 0.7 4.1 3 0 2.4-2.4 3-4.1 3-1.6 0-3.5-0.7-4.3-2.3l0.7-0.4c0.6 1.3 2.3 1.9 3.6 1.9 1.3 0 3.3-0.3 3.3-2.2 0-1.6-1.7-1.9-3.4-2.3-1.9-0.4-3.9-0.7-3.9-2.7 0-2.2 2.3-2.9 4-2.9 1.5 0 2.8 0.2 3.8 1.8z"/><path class="b" d="m3000.2 2081.5c-1.1 1.1-2.5 1.6-3.8 1.6-3.6 0-5.4-2.5-5.4-5.3-0.1-2.9 1.8-5.5 5.4-5.5 1.3 0 2.7 0.5 3.8 1.6l-0.6 0.5c-0.9-1-2.1-1.4-3.2-1.4-3.1 0-4.7 2.2-4.7 4.7 0.1 2.5 1.6 4.7 4.7 4.7 1.1 0 2.3-0.5 3.2-1.4z"/><path fill-rule="evenodd" class="b" d="m3014.3 2083l-1.1-2.6h-6.3l-1.1 2.6h-0.9l4.7-10.6h0.9l4.7 10.6zm-1.5-3.3l-2.8-6.5-2.8 6.5z"/><path class="b" d="m3029.9 2073.6l-4 6.2h-0.3l-4-6.2v9.4h-0.9v-10.6h1l4 6.2 4-6.2h1v10.6h-0.8z"/><path fill-rule="evenodd" class="b" d="m3045.1 2075.3c0 1.1-0.6 1.9-1.7 2.3 1.3 0.3 2.1 1.4 2.1 2.6 0 2.2-2 2.8-3.8 2.8h-4.3v-10.6h4.3c1.7 0 3.4 0.9 3.4 2.9zm-6.9 1.9h3.6c1.2 0 2.6-0.4 2.6-1.9 0-1.5-1.4-2.2-2.7-2.2h-3.5zm0 5h3.5c1.3 0 3-0.3 3-2 0-1.6-1.5-2.2-2.9-2.2h-3.6z"/><path class="b" d="m3051.8 2072.4h0.8v10.6h-0.8z"/><path fill-rule="evenodd" class="b" d="m3067.6 2083l-1.1-2.6h-6.3l-1.2 2.6h-0.8l4.7-10.6h0.9l4.7 10.6zm-1.5-3.3l-2.8-6.5-2.8 6.5z"/><path class="b" d="m3075.4 2073.1h-3.7v-0.7h8.4v0.7h-3.8v9.9h-0.9z"/><path fill-rule="evenodd" class="b" d="m3096.1 2077.7c0 2.8-1.8 5.5-5.3 5.5-3.5 0-5.3-2.7-5.3-5.5 0-2.9 1.7-5.5 5.3-5.5 3.5 0 5.3 2.7 5.3 5.5zm-9.8 0c0 2.4 1.5 4.7 4.5 4.7 3 0 4.5-2.3 4.5-4.7 0-2.4-1.5-4.7-4.5-4.7-3 0-4.5 2.2-4.5 4.7z"/><path fill-rule="evenodd" class="b" d="m3110.7 2083h-1l-3.7-4h-2.8v4h-0.8v-10.6h4.6c2.3 0 3.4 1.7 3.4 3.3 0.1 1.7-1.1 3.3-3.4 3.3zm-7.5-4.8h3.7c1.8 0 2.6-1.1 2.7-2.6 0-1.2-0.9-2.5-2.6-2.5h-3.8z"/><path class="b" d="m3116.5 2072.4h0.8v10.6h-0.8z"/><path fill-rule="evenodd" class="b" d="m3141.2 2077.6c0.1 2.7-1.6 5.4-5.3 5.4h-3.6v-10.6h3.6c3.5 0 5.3 2.6 5.3 5.2zm-8.1-4.4v9h2.8c3.1 0 4.6-2.3 4.5-4.6 0-2.2-1.5-4.4-4.5-4.4z"/><path class="b" d="m3147.6 2072.4h0.8v10.6h-0.8z"/><path class="b" d="m3172.2 2081.5c-1 1.1-2.4 1.6-3.8 1.6-3.6 0-5.4-2.5-5.4-5.3 0-2.9 1.8-5.5 5.4-5.5 1.4 0 2.8 0.5 3.8 1.6l-0.5 0.5c-0.9-1-2.1-1.4-3.3-1.4-3.1 0-4.7 2.2-4.6 4.7 0 2.5 1.6 4.7 4.6 4.7 1.2 0 2.4-0.5 3.3-1.4z"/><path fill-rule="evenodd" class="b" d="m3186.3 2083l-1.1-2.6h-6.3l-1.1 2.6h-0.9l4.7-10.6h0.9l4.7 10.6zm-1.5-3.3l-2.8-6.5-2.8 6.5z"/><path class="b" d="m3193.9 2072.4v9.8h5.9v0.8h-6.7v-10.6z"/><path fill-rule="evenodd" class="b" d="m3215.5 2077.7c0 2.8-1.8 5.5-5.3 5.5-3.5 0-5.3-2.7-5.3-5.5 0-2.9 1.8-5.5 5.3-5.5 3.5 0 5.3 2.7 5.3 5.5zm-9.8 0c0 2.4 1.5 4.7 4.5 4.7 3 0 4.5-2.3 4.5-4.7 0-2.4-1.5-4.7-4.5-4.7-3 0-4.5 2.2-4.5 4.7z"/><path fill-rule="evenodd" class="b" d="m3230.2 2083h-1.1l-3.6-4h-2.9v4h-0.8v-10.6h4.6c2.3 0 3.4 1.7 3.5 3.3 0 1.7-1.1 3.3-3.4 3.3zm-7.6-4.8h3.7c1.8 0 2.7-1.1 2.7-2.6 0-1.2-0.9-2.5-2.6-2.5h-3.8z"/><path class="b" d="m3235.9 2072.4v10.6h7.4v-0.8h-6.6v-4.1h6.1v-0.8h-6.1v-4.1h6.4v-0.8z"/><path class="b" d="m2869 2101.3c0 0 91.8-2.3 91.8-56.9 0-54.7-91.8-52.2-91.8-52.2v17.4c0 0 67.1-0.1 67.1 34.8 0 34.9-67.1 38.8-67.1 38.8z"/><path class="b" d="m2773.5 2068.6l-9.6 14.6h-25.1v18.1h115.2v-18.1h-65.5l9.2-14.6z"/><path class="b" d="m2738.8 1992.2v17.4h72.8l-10.8 16.8h23.6l10.6-16.8h19v-17.4z"/><path class="b" d="m568.6 1990.1h-154.5q0 0 0 0c-11.7 0-21.8 7-26.2 17l-30.5 73.5q-0.1 0.3-0.1 0.6c0 0.9 0.7 1.6 1.6 1.6h69.8c4.9 0 7.1-4.8 3.2-8.6l-25.6-24c-13.5-13.2-7.7-43.8 20.3-43.8h136.5c0.7 0 1.3-0.4 1.5-1l5.4-13.1q0.2-0.3 0.2-0.6c0-0.9-0.8-1.6-1.6-1.6z"/><path class="b" d="m553.2 2027.5h-26.3c-1.7 0-3.2 1.1-3.9 2.6l-29.4 71q-0.1 0.3-0.1 0.7c0 0.9 0.7 1.6 1.6 1.6h9.8c11.8 0 22.1-7.2 26.4-17.4q0 0 0 0l23.4-56.3q0.1-0.3 0.1-0.6c0-0.9-0.7-1.6-1.6-1.6z"/><path class="b" d="m501.6 2029.1c0-0.9-0.7-1.6-1.6-1.6h-74.3c-4.1 0-7.6 4.9-3.3 8.9l24.5 22.8c0 0 10 9.2 7.8 22.3-1.8 11.5-9.7 18.6-15.4 21.2-0.2 0-0.3 0.2-0.3 0.3 0 0.2 0.2 0.4 0.5 0.4h28.6c1.8 0 3.3-1 3.9-2.6l29.5-71.2q0.1-0.2 0.1-0.5z"/><path fill-rule="evenodd" class="b" d="m645.9 2066h2.3v16h-2.3v-2.6c-1.8 2.7-4.8 3-6.1 3-4.8 0-8.6-3.7-8.6-8.5 0-4.1 3.3-8.4 8.6-8.4 1.3 0 4.3 0.3 6.1 3zm0.2 8c0-3.5-2.8-6.3-6.3-6.3-3.1 0-6.3 2.2-6.3 6.4 0 3.6 2.7 6.3 6.3 6.3 3.5 0 6.3-2.8 6.3-6.4z"/><path class="b" d="m664.4 2074.4c0 2.9-0.8 3.8-1.6 4.7q-1.2 1.2-3.3 1.2-2.3 0-3.6-1.4c-0.7-0.9-1.1-2.3-1.1-4.1v-8.8h-2.2v8.8q0 3.4 1.4 5.2c0.7 0.9 2.4 2.4 5.5 2.4 3.2 0 4.6-1.8 5-2.6v2.2h2.2v-16h-2.3z"/><path fill-rule="evenodd" class="b" d="m683.6 2066h2.3v13.4c0 1.7 0 3.9-1.5 5.8-2.1 2.9-5.9 3-6.4 3-1.5 0-6.6-0.4-8.2-5.9v-0.1h2.4c0.5 1.2 2 3.9 5.8 3.9 2.6 0 5.6-1.5 5.6-5.7v-1.1c-1.3 2.2-4 3.1-6 3.1-4.1 0-8.4-3.2-8.4-8.4 0-5.2 4.3-8.5 8.4-8.5 1.2 0 4.1 0.3 6 3.1zm0.1 8c0-3.5-2.7-6.4-6.1-6.4-3.4 0-6.1 2.9-6.1 6.4 0 3.5 2.7 6.3 6.1 6.3 4.2 0 6.1-3.7 6.1-6.3z"/><path class="b" d="m706.4 2065.6c-1.5 0-4.1 0.6-5.4 2.9-1.2-2.3-3.9-2.9-5.3-2.9-1.4 0-3.2 0.6-4.2 1.9v-1.5h-2.2v16h2.2v-9.3c0-1.6 0.3-2.4 0.7-3.2 0.8-1.2 2-1.9 3.5-1.9 1.6 0 2.8 0.7 3.5 1.9 0.4 0.8 0.7 1.6 0.7 3.2v9.3h2.3v-9.3c0-1.6 0.3-2.4 0.7-3.2 0.7-1.2 1.9-1.9 3.5-1.9 1.5 0 2.7 0.7 3.4 1.9 0.5 0.8 0.7 1.6 0.7 3.2v9.3h2.3v-9.5c0-5.5-4-6.9-6.4-6.9z"/><path fill-rule="evenodd" class="b" d="m730.9 2069.7q1.4 2.2 1.3 5l-0.1 0.1h-14.3c0.2 3 3 5.5 6 5.5 3.1 0 4.9-2 5.5-3.6l0.1-0.1h2.3v0.1c-1.2 3.4-4.4 5.7-7.9 5.7-4.6 0-8.3-3.8-8.3-8.4 0-4.6 3.7-8.4 8.3-8.4 3.5 0 6 2.1 7.1 4.1zm-1.1 3.1c-0.6-3.6-3.5-5.2-6-5.2-2.6 0-5.4 1.8-6 5.2z"/><path class="b" d="m742.2 2065.6c-2.3 0-4 1.1-4.8 2.2v-1.8h-2.2v16h2.2v-8.8c0-1.8 0.5-3.3 1.5-4.3 1.2-1.2 2.9-1.3 3.3-1.3 0.5 0 2.1 0.1 3.4 1.3 0.9 1 1.5 2.5 1.5 4.3v8.8h2.2v-8.8c0-2.4-0.7-4.4-2-5.7-1.3-1.3-2.9-1.9-5.1-1.9z"/><path class="b" d="m757.4 2060.4h-2.3v5.6h-3.3v2h3.3v14h2.3v-14h3.8v-2h-3.8z"/><path fill-rule="evenodd" class="b" d="m777.9 2069.6q1.4 2.3 1.3 5.1v0.1h-14.4c0.2 3 3 5.5 6 5.5 3.1-0.1 4.9-2 5.5-3.6l0.1-0.1h2.3v0.1c-1.2 3.4-4.3 5.7-7.9 5.7-4.6 0-8.3-3.8-8.3-8.4 0-4.6 3.7-8.4 8.3-8.5 3.5 0.1 6 2.2 7.1 4.1zm-1 3.2c-0.7-3.6-3.6-5.2-6.1-5.2-2.5 0-5.4 1.8-6 5.2z"/><path fill-rule="evenodd" class="b" d="m798.4 2060.4v21.6h-2.3v-2.6c-1.5 2.2-4.1 3-6.1 3-4.8 0-8.6-3.7-8.6-8.5 0-4.1 3.2-8.3 8.6-8.3 0.9 0 4.1 0.2 6.1 2.9v-8.1zm-2.1 13.6c0-3.5-2.8-6.4-6.2-6.4-3.2 0-6.4 2.2-6.4 6.4 0 3.6 2.7 6.3 6.4 6.3 3.4 0 6.2-2.8 6.2-6.3z"/><path class="b" d="m582.4 2059.8h2.1v3.3h-2.1z"/><path class="b" d="m575 2060.4h-4.6v2h2.5v17.6h-2.7v2h7.4v-2h-2.6z"/><path class="b" d="m585 2066h-4.7v2h2.6v12h-2.6v2h7.3v-2h-2.6z"/><path class="b" d="m593.9 2061.4c-1.4 1.3-1.5 2.7-1.6 4.5v0.1h-2.5v2.1h2.6v11.9h-2.6v2h7.3v-2h-2.6v-11.9h2.6v-2.1h-2.6v-0.4c0-1.1 0.1-2.1 1-2.9q0.8-0.6 2.1-0.7h0.1v-1.9h-0.1c-1.7 0.1-2.9 0.5-3.7 1.3z"/><path fill-rule="evenodd" class="b" d="m616.4 2074.2v0.7h-14.1c0.2 3.1 2.8 5.5 5.9 5.5 2.3 0 4.2-1.1 5.3-3h2.3v0.1c-1.4 3-4.3 4.8-7.5 4.8-4.5 0-8.2-3.6-8.2-8.1 0-4.5 3.6-8.2 8.1-8.2 4.6 0 8.2 3.6 8.2 8.2zm-2.1-1.1c-0.5-3-3-5.1-6.2-5.1-2.8 0-5.4 2.3-5.8 5.1z"/><path class="b" d="m623.7 2082.4c1.6 0 2.8-1.2 2.8-2.7 0-1.6-1.2-2.8-2.8-2.8-1.5 0-2.8 1.2-2.8 2.8 0 1.5 1.3 2.7 2.8 2.7z"/><path fill-rule="evenodd" class="b" d="m1844.8 2023.9l-10.6 42.9q-2.1 7.8 4.7 7.7 7 0.1 9-7.7l10.7-42.9h24l-16.1 65h-24l1.9-7.9h-0.3q-7.2 9.5-20.3 9.5c-5.5 0.1-9.8-1.1-12.7-3.6-3.2-2.5-4-7.1-2.5-13.9l12.2-49.1zm-34.9 0l-16.2 65h-23.9l16.1-65zm139 0.6q3.7 2.5 4.6 7.6 4.4-5.6 10.1-7.8 5.5-2.3 11.2-2.3 8.5 0 13.2 3.6 4.6 4 2.2 14.2l-9.3 37.2c-1.7 6.8-8.8 11.9-16.3 11.9h-10.6l10.6-43q2.1-7.8-4.8-7.7-7.1-0.1-9.2 7.7l-10.6 43h-24l10.7-42.9q2-7.9-4.8-7.8-7-0.1-9 7.7l-10.6 43h-24.1l16.2-65.1h24.2l-1.9 7.9h0.3q7.3-9.7 20.5-9.7 7.7 0 11.4 2.5zm-265.7-21.4l3.2 85.8h-27.7l0.8-14.9h-20.6l-6.5 14.9h-27.7l36.6-68.8c5.6-10 15.6-16.6 27.6-17zm88.9 0.8l-5.1 19.9h10l-3.6 14.6h-10l-7.7 31q-1.2 5.2 4.8 5.1h4l-3.6 14.4q-7.3 0.6-13.6 0.6-11 0.2-14.9-2.9-4.3-3-1.6-13.5l17.3-69.2zm-35.4-0.8l-21.3 85.8h-24l21.3-85.8zm-90.8 54.4h14.4l2-35.8z"/><path class="b" d="m1137.7 2021.1c-0.4 2-0.9 3.9-1.3 5.8q-0.7 3.1-1.3 6.2-0.8 3.7-1.6 7.4-0.7 3.1-1.3 6.2-0.8 3.7-1.6 7.5-0.7 3-1.3 6-0.8 3.7-1.6 7.4-0.7 3.1-1.3 6.2-0.8 3.8-1.6 7.6-0.6 2.6-1.2 5.2c0 0.5-0.2 0.8-0.4 1.3-1.4 0.3-2.8 0.1-4.2 0.1q-2 0.1-4.1 0c-1.3 0-2.7 0.2-4.1-0.1-0.3-0.6-0.1-1.2 0-1.7 0.9-4 1.8-8.1 2.7-12.2 0.8-3.9 1.6-7.9 2.5-11.9q1.1-5.3 2.3-10.7c0.5-2.7 1.1-5.3 1.6-8 0.4-1.6 0.7-3.2 1.1-4.9 0.6-2.9 1.2-5.8 1.8-8.7 0.8-3.5 1.6-6.9 2.3-10.4 0.5-2.5 1-5 1.6-7.5q1-5.1 2.1-10.1 0.7-3 1.3-5.9c0-0.1 0.1-0.3 0.2-0.5 0.3-0.1 0.7-0.2 1-0.2q5.5-0.1 10.9 0c0.2 0 0.4 0 0.6 0.1 0.3 0.4 0.2 0.8 0.1 1.3q-0.9 4.6-1.9 9.2-1.6 7.1-3.1 14.2c-0.1 0.3-0.1 0.6-0.2 1.1z"/><path class="b" d="m1104 2037.9c0.2-1.3 0.5-2.5 0.8-3.6q1.4-6.8 2.8-13.5 1.5-6.9 3-13.8 1-5.1 2.1-10.2 0.1-0.4 0.2-0.7c0.2-0.6 0.5-1 1.2-1q0.5 0 1.1 0 4.3 0 8.6 0 0.6 0 1.2 0c0.7 0.1 0.9 0.4 0.8 1.1-0.1 0.9-0.4 1.8-0.5 2.7q-1.4 6.4-2.8 12.8-0.8 3.9-1.6 7.8-0.9 4-1.7 7.9-1.1 5.2-2.2 10.3-1.2 5.2-2.3 10.3c-0.5 2.6-1.1 5.2-1.6 7.8q-1.1 5-2.2 10-0.8 4-1.7 8.1-0.9 3.9-1.7 7.9-0.6 2.7-1.2 5.4 0 0.3-0.1 0.6c-0.3 0.1-0.5 0.2-0.7 0.2q-5.7 0-11.5 0c-0.1 0-0.3-0.1-0.4-0.2-0.2-0.9 0.1-1.7 0.3-2.6q1.1-5.5 2.3-11.1c1.3-5.7 2.5-11.5 3.8-17.2q1.5-7.3 3-14.6c0.3-1.4 0.6-2.9 1-4.4z"/><path class="b" d="m1036.2 2094.3c-0.2 1.2-0.4 2.3-0.6 3.3q-0.2 0.7-1 0.8-0.4 0-0.8 0-4.8 0-9.6 0c-0.4 0-0.9 0.1-1.4-0.3-0.1-0.9 0.2-1.8 0.4-2.7q1.4-6.7 2.8-13.4 1.9-8.6 3.7-17.1 1.5-6.9 2.9-13.7c0.9-4.1 1.7-8.1 2.6-12.2 0.7-3.5 1.5-7.1 2.3-10.6q1.5-7.4 3.1-14.8 0.7-3.3 1.4-6.6c0.1-0.4 0.2-0.8 0.4-1.3 1.4-0.3 2.8-0.1 4.2-0.1q2.1 0 4.1 0c1.4 0 2.8-0.1 4.1 0.1 0.4 0.6 0.2 1.1 0.1 1.6q-1.8 8.4-3.6 16.8-1.5 6.8-2.9 13.5-1.6 7.4-3.1 14.7c-0.9 4.2-1.8 8.3-2.7 12.4q-1.3 6.1-2.6 12.2-1.1 5.2-2.3 10.5c-0.4 2.2-0.9 4.5-1.5 6.9z"/><path class="b" d="m1013.3 2062.2c0.7-3.3 1.4-6.5 2-9.7 0.6-2.5 1.1-4.9 1.7-7.4q1.1-5.3 2.2-10.7 1.3-6.1 2.7-12.3 1.5-7.6 3.1-15.1c0.1-0.4 0.3-0.8 0.4-1.2 1.4-0.4 2.7-0.2 4.1-0.2q2.1 0 4.2 0c1.3 0 2.7-0.1 4.1 0.1 0 0.4 0 0.7 0 1q-1.7 8.1-3.4 16.2c-0.8 3.5-1.5 7-2.2 10.5-0.5 2.5-1.1 5-1.6 7.4-0.8 3.7-1.5 7.3-2.3 11-0.5 2.6-1.1 5.2-1.7 7.7-0.7 3.5-1.4 6.9-2.1 10.4q-0.8 3.8-1.6 7.6-0.9 3.9-1.7 7.9-1.3 6-2.5 12.1c-0.2 0.7-0.4 0.8-1.2 0.9q-0.5 0-0.9 0-4.5 0-9 0c-0.5 0-1-0.1-1.6-0.1-0.1-0.3-0.2-0.6-0.2-0.8q0.8-3.6 1.6-7.3 0.8-4.1 1.7-8.2 0.7-3.5 1.5-7 0.6-2.9 1.3-5.9c0.5-2.3 0.9-4.5 1.4-6.9z"/><path class="b" d="m1174.8 2005c-1.3 5.9-2.6 11.7-3.8 17.5-0.1 0.1-0.2 0.3-0.3 0.5-1.4 0.2-2.8 0.1-4.1 0.1q-2.1 0-4.1 0c-1.4 0-2.8 0-4.1 0-0.4-0.6-0.2-1.1-0.1-1.5q0.9-4.5 1.8-8.9 0.8-3.7 1.7-7.4 0.9-4.2 1.7-8.4c0.1-0.3 0.2-0.6 0.2-0.9 0.2-0.6 0.5-0.9 1.1-0.9q0.2 0 0.5 0 5 0 10 0c1.1 0 1.6 0.2 1.3 1.5-0.6 2.8-1.2 5.5-1.8 8.4z"/><path class="b" d="m1157.9 1995.1c0.5 0 0.9 0 1.3 0.1 0.5 0 0.8 0.3 0.7 0.8q-0.2 1.2-0.4 2.3-1.4 6.3-2.7 12.6c-0.8 3.5-1.5 7-2.2 10.5-0.1 0.5-0.3 1-0.4 1.6-1.1 0.2-2.1 0.1-3.1 0.1q-1.6 0-3.3 0-1.5 0-3.1 0c-1 0-2 0.1-3-0.1-0.2-0.7 0-1.3 0.1-1.8q0.9-4.4 1.8-8.7c0.5-2 0.9-3.9 1.3-5.9q0.8-3.7 1.6-7.4 0.3-1.5 0.6-3.1c0.2-0.7 0.5-0.9 1.2-1q3 0 5.9 0c1.2 0 2.4 0 3.7 0z"/><path class="b" d="m1017.4 2024.2c-0.5 2.2-0.9 4.2-1.4 6.3q-0.2 1.1-0.5 2.2-0.2 0.7-0.9 0.7-0.4 0-0.7 0-4.9 0-9.9 0c-0.4 0-0.8-0.1-1.3-0.1 0-0.5 0-0.9 0.1-1.2q0.5-2.5 1-4.9 1.2-5.6 2.4-11.1 0.8-3.6 1.5-7.1 0.2-1 0.4-2c0.1-0.4 0.2-0.9 0.6-1.3 0.9-0.1 10.4-0.2 11.9-0.1 0.2 0 0.4 0.1 0.7 0.2 0 1.6-0.6 3.1-0.9 4.6-0.3 1.6-0.6 3.1-1 4.6q-0.4 2.2-0.9 4.5c-0.4 1.5-0.7 3-1.1 4.7z"/><path class="b" d="m1063.2 2005.6c3 0 5.8 0 8.6 0.1 0.1 0 0.2 0 0.4 0.1 0 0.2 0 0.5 0 0.7q-1.3 6.2-2.7 12.4-1.3 6-2.7 12c-0.1 0.5-0.2 1.1-0.3 1.6-0.2 0.7-0.4 0.9-1.1 0.9q-0.3 0-0.5 0-5 0-10.1 0c-0.3 0-0.7-0.1-1.1-0.1 0-0.5-0.1-0.8 0-1.2q1.3-6.2 2.6-12.3 1.4-6.2 2.7-12.4c0.1-0.6 0.1-1.2 0.6-1.7 1.1-0.2 2.3-0.1 3.6-0.1z"/><path class="b" d="m1090.7 1999.1c-0.5 2.2-0.9 4.4-1.3 6.5q-0.9 3.8-1.7 7.6-0.8 4.1-1.7 8.2c-0.1 0.5-0.1 1.1-0.5 1.5-1.3 0.3-6.7 0.4-11.5 0.2-0.3 0-0.6-0.1-1-0.2 0-0.4 0-0.8 0.1-1.1q1-4.6 2-9.2 1.1-5.1 2.2-10.1 0.7-3.2 1.5-6.4c0.1-0.7 0.4-0.9 1-0.9q0.4-0.1 0.9-0.1 4.6 0 9.2 0c0.4 0 0.8 0.1 1.2 0.1 0.4 0.7 0.2 1.3 0.1 1.9-0.2 0.6-0.3 1.2-0.5 2z"/><path class="b" d="m1102.8 2022.9c-0.6 2.9-1.2 5.8-1.9 8.7-0.1 0.5-0.2 1.1-0.4 1.7-1.4 0.2-2.8 0.1-4.1 0.1q-2.1 0-4.2 0c-1.4 0-2.7 0.1-4 0-0.4-0.5-0.3-1-0.2-1.4q0.8-3.4 1.5-6.9 0.9-4.2 1.8-8.4 1-4.9 2-9.7c0.1-0.4 0.3-0.8 0.4-1.2 1.5-0.4 2.9-0.2 4.2-0.2q2.1-0.1 4.1 0c1.4 0 2.8-0.2 4.3 0.1-0.2 2-0.8 3.9-1.1 5.8-0.3 1.8-0.8 3.7-1.2 5.5-0.4 1.9-0.8 3.8-1.2 5.9z"/><path class="b" d="m1002.8 2005.6c0.5 0 0.8 0.1 1.3 0.1 0 0.5 0.1 0.8 0 1.2q-0.8 3.7-1.6 7.4-0.9 4.2-1.7 8.3-0.9 4-1.7 8.1c-0.2 0.6-0.3 1.1-0.4 1.7-0.2 0.8-0.4 1-1.3 1q-1 0-2.1 0-4 0-8.1 0c-0.4 0-0.8-0.1-1.2-0.1-0.1-0.1-0.1-0.2-0.1-0.2 0-0.2-0.1-0.3-0.1-0.5q2.8-13 5.6-26c0-0.3 0.2-0.6 0.3-0.8 0.2-0.1 0.3-0.2 0.4-0.2 3.5 0 7 0 10.7 0z"/><path class="b" d="m1369.1 2059.9c-0.8 0-1.4 0-2.1 0-0.9 0.1-1.5-0.2-1.9-1-2-3.4-4-6.6-6-9.9q-1.7-2.7-3.3-5.4c-0.2-0.3-0.5-0.6-0.7-0.9-0.6 0.2-0.5 0.5-0.5 0.8q0 5.3 0 10.6 0.1 2.3 0.1 4.7c0 0.2-0.1 0.5-0.1 0.8-0.3 0.1-0.6 0.3-0.9 0.3q-1.4 0-2.8 0c-0.4 0-0.7-0.3-0.8-0.7q0-0.5 0-1.1 0-11.4 0-22.9c0-0.6-0.1-1.3 0.5-1.9q1.8-0.2 3.8 0 0.6 1 1.2 1.9 4.4 7.2 8.7 14.5c0.2 0.3 0.3 0.8 0.9 0.8 0.4-0.2 0.3-0.6 0.3-1q0.1-4.2 0-8.4 0-3.2 0-6.5c0-0.4 0-0.8 0.4-1.2 1.1-0.3 2.3-0.2 3.5-0.1 0.3 0 0.5 0.3 0.6 0.6q0.1 0.6 0.1 1.1 0 11.6 0 23.1 0 0.6-0.2 1.2-0.1 0.6-0.8 0.6z"/><path class="b" d="m1342.6 2090.8c-2.1-3.5-4.2-7-6.4-10.4-0.6 0.1-0.4 0.6-0.4 0.9q0 5.2 0 10.4 0 2.3 0 4.7c0 0.3-0.1 0.6-0.1 0.9-1 0.4-1.8 0.5-4.1 0.2-0.1-0.2-0.3-0.6-0.4-0.9 0-0.3 0-0.7 0-1q0-11.3 0-22.5c0-0.7-0.1-1.3 0.4-2 1.1-0.3 2.3-0.1 3.5-0.1 0.4 0 0.7 0.4 0.9 0.8q1.1 1.8 2.3 3.7 3.6 6.1 7.3 12.2c0.2 0.3 0.4 0.5 0.7 0.9 0.2-0.3 0.4-0.6 0.4-0.8q-0.1-4.6-0.1-9.2-0.1-3.3 0-6.5c0-0.9 0.3-1.1 1.2-1.1q1.1-0.1 2.2 0c0.8 0 1.1 0.2 1.1 1.1q0 0.4 0 0.8 0 11.4 0 22.9c0 1.9 0 1.9-1.9 1.9-0.8-0.1-1.6-0.2-2.4-0.2-0.4-0.6-0.8-1.3-1.2-1.9-1-1.6-1.9-3.1-3-4.8z"/><path class="b" d="m1294 2075.1c0 6.9 0 13.6 0 20.3q0 0.7 0 1.4c-0.1 0.6-0.3 0.8-0.9 0.8-1.1 0.1-2.2 0-3.4 0-3.6-5.7-7-11.6-10.7-17.4-0.2 0.3-0.3 0.5-0.3 0.6q-0.1 0.8-0.1 1.5 0 6.6 0.1 13.3c0 0.6-0.1 1.2-0.1 1.7-1.1 0.4-1.9 0.5-4.2 0.2-0.1-0.2-0.2-0.6-0.3-0.9-0.1-0.3 0-0.7 0-1q0-11.2 0-22.4 0-0.7 0-1.4c0.1-0.6 0.4-0.8 0.9-0.8q1.4-0.1 2.7 0c0.5 0 0.8 0.2 1.1 0.6q1 1.6 1.9 3.2 3.9 6.5 7.8 12.9c0.2 0.3 0.3 0.7 0.7 0.7 0.4-0.2 0.3-0.5 0.3-0.7q0-4.8-0.1-9.6 0-3 0-6c0-0.9 0.3-1.1 1.2-1.1q1.2-0.1 2.4 0c0.7 0 0.9 0.2 1 0.9 0 1 0 2 0 3.2z"/><path class="b" d="m1289.4 1998.2c0-0.7 0-1.3 0.1-1.9 0-0.4 0.2-0.7 0.7-0.8 1.2-0.1 2.3-0.1 3.4 0.1 0.5 0.6 0.4 1.2 0.4 1.8q0 8.1 0 16.2 0 3.4 0 6.9c0 0.5 0.1 1-0.4 1.5-1 0.3-2.2 0.1-3.3 0.1-0.5 0.1-0.8-0.2-1-0.6q-0.9-1.6-1.9-3.1-3.7-6.1-7.4-12.2c-0.3-0.4-0.5-1-1.1-1.2-0.1 0.1-0.2 0.3-0.3 0.5q0 0.7 0 1.4 0 6.6 0.1 13.2c0 0.6-0.1 1.2-0.1 1.8-0.4 0.1-0.7 0.2-1 0.2q-1.3 0.1-2.6 0c-0.6 0-0.8-0.2-0.9-0.8q0-0.4 0-0.7 0-11.7 0-23.4 0-0.5 0.1-1.1c0-0.3 0.3-0.6 0.6-0.6q1.6 0 3.1 0c0.4 0 0.7 0.3 0.9 0.6q1.2 2.1 2.5 4.2 3.5 5.9 7 11.7c0.2 0.3 0.4 0.8 1 0.8 0.1-0.2 0.2-0.4 0.2-0.6q0-4.7-0.1-9.3c0-1.5 0-3 0-4.7z"/><path class="b" d="m1061 2077.4c0.2-0.6 0.3-1.1 0.4-1.6 0.1-0.6 0.2-1.2 0.6-1.8 0.3 0 0.5-0.1 0.7-0.1q5.6 0 11.3 0.1c0.1 0 0.2 0 0.4 0.1 0.2 0.5 0 1.1-0.1 1.7-0.5 2.5-1.1 4.9-1.6 7.4q-1.1 5-2.2 10-0.5 2.4-1.1 4.9c-0.3 0.1-0.5 0.3-0.7 0.3q-5.6 0-11.2 0c-0.3 0-0.5-0.2-0.9-0.3 0.7-3.5 1.5-6.9 2.2-10.3 0.7-3.4 1.5-6.9 2.2-10.4z"/><path fill-rule="evenodd" class="b" d="m1247.3 2077.8c0 0.5 0 1 0 1.4q-0.1 4.2-3.9 6c-0.4 0.2-0.7 0.4-1.1 0.6 0.1 0.3 0.2 0.6 0.3 0.8q2.2 4.8 4.5 9.5c0.2 0.4 0.3 0.8 0.4 1.3-0.3 0.1-0.6 0.2-0.8 0.2-0.9 0.1-1.8 0-2.8 0.1-0.6 0-1-0.3-1.2-0.9-0.2-0.6-0.5-1.2-0.8-1.8q-1.7-3.8-3.4-7.6c-0.2-0.4-0.4-0.8-0.6-1.2-1.4-0.2-3.2-0.2-4.6 0.1-0.1 0.4-0.1 0.9-0.1 1.3q0 4.2 0 8.3c0 1.7-0.1 1.8-1.7 1.7-0.9 0-1.8 0.2-2.5-0.1-0.5-0.4-0.4-0.9-0.4-1.4q0-1.9 0-3.7 0-9.6 0-19.2 0-0.7 0-1.4c0.1-0.6 0.3-0.8 0.9-0.8q0.4-0.1 0.8 0 4.7 0 9.5-0.1 1.7 0 3.2 0.7c2.6 1.2 4 3.2 4.3 6.2zm-9.9 4.8c0.7 0 1.4 0.1 2.1 0 1.9-0.3 3.5-1.6 3.4-4 0-2.1-1.5-3.7-3.6-3.7-1.8-0.1-3.6-0.1-5.4 0-0.2 0-0.5 0.1-0.7 0.2-0.3 1.3-0.1 2.5-0.1 3.7 0 1.2-0.2 2.5 0.2 3.8 1.3 0 2.5 0 4.1 0z"/><path class="b" d="m1255.6 2052.6c0.5 2.2 1.9 3.2 3.8 3.4 1.2 0.2 2.4 0.2 3.6 0 1.4-0.2 2.4-1.1 2.7-2.6 0.2-0.9 0.1-1.8-0.7-2.5-0.5-0.5-1.1-0.9-1.7-1.2-1.5-0.7-3.1-1.3-4.6-1.9-1.5-0.7-3-1.3-4.3-2.2-4.1-2.9-3.6-9.2 0.8-11.5 1.4-0.7 2.8-1 4.4-1.1 1.4-0.1 2.8 0 4.1 0.3 2.3 0.6 4.2 1.7 5.5 3.8 0.7 1.3 1 2.6 0.9 4 0 0.3-0.1 0.5-0.1 0.7-1.4 0.3-2.7 0.2-4.1 0.1-0.1-0.4-0.2-0.7-0.2-1-0.3-2.1-1.6-3.5-3.6-3.8-1.1-0.2-2.3-0.1-3.4 0-1.2 0.1-2 0.8-2.5 1.9-0.4 1.2-0.3 2.2 0.6 3.1 0.5 0.5 1 0.9 1.6 1.1 1.2 0.6 2.4 1 3.6 1.5q1.9 0.8 3.9 1.6c1.1 0.5 2.1 1.3 2.9 2.3q1.9 2.2 1.5 5.1c-0.5 3.4-2.7 5.3-5.9 6.1-1.3 0.3-2.5 0.5-3.8 0.5-2.1-0.2-4.1-0.6-5.9-1.6-2.5-1.4-3.5-3.7-3.6-6.4 0-0.2 0-0.4 0.1-0.6 0.1-0.2 0.3-0.4 0.6-0.5 0.3-0.1 0.6-0.1 0.9-0.1 0.9 0 1.7 0 2.7 0.1 0.1 0.5 0.1 0.9 0.2 1.4z"/><path class="b" d="m1297.4 2051.4c-0.6-0.9-1.3-1.4-2.2-1.7-1.6-0.7-3.2-1.3-4.8-2-1.3-0.6-2.7-1.2-3.9-2-3.3-2.2-4-6.5-1.6-9.7 0.8-1 1.8-1.8 3.1-2.2 3.8-1.3 7.5-1.3 11 1 2.2 1.5 3.2 3.7 3.1 6.4-0.1 0.2-0.2 0.4-0.3 0.7-1.3 0.1-2.5 0.2-3.9 0-0.1-0.3-0.2-0.6-0.2-0.8 0-2.4-2.1-3.8-3.9-4.1-1-0.1-2.1 0-3.1 0.1-1.4 0.2-2.4 1.2-2.7 2.5-0.2 1.3 0.3 2.5 1.6 3.2 1.4 0.9 3 1.4 4.5 2 1.2 0.5 2.4 0.9 3.6 1.5 1.3 0.6 2.5 1.5 3.5 2.7 1.9 2.5 1.5 7.2-1.7 9.4-0.7 0.4-1.4 0.8-2.2 1-1.6 0.7-3.3 1-5.1 0.8-2.1-0.1-4.1-0.6-5.9-1.8-2.5-1.7-3.5-4-3.1-7 1.4-0.5 2.7-0.2 4.1-0.2 0.1 0.3 0.2 0.6 0.2 0.9 0.2 2 1.3 3.3 3.2 3.8 1.5 0.4 2.9 0.4 4.4 0.1 1.7-0.3 2.8-1.8 2.6-3.5 0-0.3-0.1-0.6-0.3-1.1z"/><path fill-rule="evenodd" class="b" d="m1308.9 2022.4c-1.6 0.1-3-0.1-4.3-0.5-3.7-1.3-5.6-4.4-5.9-7.8q0-0.2 0-0.5 0-4.8 0-9.5 0-2.4 1.2-4.5 1.7-2.9 4.8-3.8c1.3-0.4 2.6-0.8 4-0.7 2.3 0.2 4.5 0.8 6.3 2.4 1.7 1.5 2.6 3.4 2.9 5.7q0.1 0.3 0.1 0.5c0 3.4 0 6.8-0.1 10.2 0 3.6-2.7 7.5-7.1 8.3-0.6 0.1-1.2 0.1-1.9 0.2zm4.6-12.4c0-1.9 0.1-3.9 0-5.8q0-2.5-2-4.1c-1-0.8-2.2-1-3.5-1-2.4 0.1-4.2 1.6-4.7 3.9q-0.2 0.8-0.2 1.7 0 4.2 0 8.5c0 0.7 0.1 1.3 0.3 1.9 0.6 1.8 1.8 2.9 3.6 3.2 0.9 0.2 1.9 0.1 2.9 0 0.3 0 0.7-0.2 1-0.4 1.7-0.9 2.5-2.3 2.6-4.2 0.1-1.1 0-2.2 0-3.7z"/><path class="b" d="m1238.1 2044.1c1.6 0.6 3 1.2 4.5 1.8 0.8 0.4 1.7 0.8 2.4 1.3 5 3.2 3.3 9.6-0.2 11.5-2.7 1.4-5.4 1.9-8.4 1.3-1.4-0.3-2.8-0.6-4-1.4q-3.9-2.4-3.5-6.9c0-0.1 0.1-0.2 0.2-0.4 1.3-0.3 2.6-0.2 4-0.1 0.1 0.3 0.2 0.6 0.2 0.8 0 2.1 1.2 3.2 3 3.8 1.5 0.6 3.2 0.5 4.8 0.1 1.3-0.2 2.3-1.4 2.4-2.7 0.1-1.1-0.2-2.1-1.2-2.8-1.1-0.7-2.3-1.2-3.5-1.7-1.6-0.7-3.2-1.3-4.8-2q-1.6-0.7-2.9-2c-2.9-2.9-2.1-8.1 1.2-10.2 1.3-0.8 2.8-1.3 4.4-1.5 2-0.2 4.1 0 6 0.7 2.3 0.9 4 2.3 4.8 4.6 0.4 1.2 0.5 2.3 0.2 3.5-1.4 0.3-2.6 0.2-4 0.1-0.1-0.3-0.2-0.6-0.2-0.9-0.1-2.2-1.9-3.6-3.8-3.9-1.1-0.2-2.2-0.1-3.4 0-0.9 0.1-1.6 0.6-2.1 1.4-0.8 1.4-0.5 3.1 0.8 4 0.9 0.7 1.9 1.2 3.1 1.6z"/><path class="b" d="m1269.9 2096.1c0 0.4 0 0.6 0 0.8-0.1 0.5-0.3 0.7-0.8 0.7q-0.4 0.1-0.8 0.1-7.4 0-14.9 0c-1.4 0-1.6-0.2-1.6-1.6q-0.1-0.4-0.1-0.8 0-11.1 0-22.1 0-0.7 0.1-1.4 0.1-0.8 0.9-0.8 0.5-0.1 1 0 7.1 0 14.2 0 0.4-0.1 0.8 0c1 0 1.2 0.2 1.2 1.1q0 1.1-0.1 2.2c0 0.3-0.2 0.5-0.6 0.6q-0.6 0-1.3 0-4.9 0-9.7 0c-0.5 0-1.1-0.1-1.6 0.2-0.3 1.1-0.4 5.1-0.1 6.8 0.4 0.1 0.7 0.2 1.1 0.2q3.1 0 6.2 0c0.5 0 1-0.1 1.6 0.2 0.4 1 0.3 2.2 0.1 3.3 0 0.1-0.2 0.3-0.4 0.4-0.4 0-0.8 0-1.1 0q-2.9 0-5.7 0-0.8 0.1-1.7 0.1c-0.1 0.3-0.2 0.5-0.2 0.8-0.2 2.4-0.1 5.6 0.2 6.6 0.5 0.3 1 0.2 1.6 0.2q4.8 0 9.7 0c2 0 2 0 2 2 0 0.1 0 0.2 0 0.4z"/><path class="b" d="m1332.4 2041.7q0 1.3 0.1 2.2c0.4 0.5 0.9 0.4 1.3 0.4q3 0 6 0 0.6 0 1.1 0.1 0.7 0 0.7 0.7c0 1 0.2 2-0.1 2.9-0.4 0.4-0.8 0.3-1.2 0.3q-3 0-6 0c-0.6 0-1.1 0.1-1.7 0.1-0.3 0.9-0.1 1.7-0.2 2.5q0 1.2 0 2.4c0.1 0.8-0.1 1.6 0.2 2.4 0.5 0.4 1 0.3 1.5 0.3q5 0 9.9 0c0.6 0 1.1-0.1 1.7 0.2 0.3 1.1 0.2 2.3 0 3.5-0.3 0.1-0.7 0.2-1.1 0.2q-7.8 0-15.7 0c-0.2 0-0.4 0-0.7-0.1-0.1-0.3-0.3-0.5-0.3-0.8-0.1-0.4 0-0.8 0-1.2q0-11.2 0-22.5c0-0.7-0.2-1.3 0.3-1.9 0.1-0.1 0.3-0.1 0.4-0.1q8.3 0 16.6 0c0.1 0 0.3 0.1 0.5 0.1 0.3 1.2 0.2 2.3 0.1 3.4-0.6 0.5-1.1 0.3-1.7 0.3q-4.9 0-9.9 0c-0.5 0-1 0-1.5 0.2-0.1 0.1-0.2 0.2-0.2 0.3 0 1.3 0 2.6-0.1 4.1z"/><path fill-rule="evenodd" class="b" d="m1207 2053.9c1.4-4.4 2.8-8.7 4.1-13q1.1-3.3 2.1-6.6c0.4-1 0.5-1 1.4-1.1 1.5 0 2.9 0 4.4 0.1 0.2 0.3 0.4 0.6 0.5 0.9q3.9 12.5 7.9 25c0 0.1-0.1 0.3-0.1 0.6-0.3 0-0.5 0.1-0.8 0.1q-1.3 0-2.7 0c-0.6 0-1-0.2-1.2-0.9q-0.3-1.1-0.6-2.1c-0.2-0.6-0.3-1.2-0.8-1.7-0.2 0-0.5-0.1-0.9-0.1q-3.8 0-7.7 0-0.3 0-0.5 0c-0.6 0-0.9 0.3-1.1 0.8q-0.3 1-0.5 2-0.3 0.9-0.6 1.7c-1.2 0.5-2.4 0.3-3.5 0.3-0.4 0-0.7-0.1-1-0.2-0.1-0.2-0.1-0.4-0.1-0.5 0.6-1.7 1.1-3.5 1.7-5.3zm8.6-13c-2.7 8.2-3 9.4-3 10.6 0.2 0 0.3 0.1 0.4 0.1q3.4 0.1 6.7 0c0.1 0 0.3 0 0.5-0.1 0-0.2 0-0.5-0.1-0.6q-1.7-5.8-3.5-11.5c0-0.1-0.1-0.1-0.2-0.2-0.7 0.3-0.5 1-0.8 1.7z"/><path fill-rule="evenodd" class="b" d="m1411.5 2056c-0.2-0.6-0.4-0.9-1-0.9q-0.8 0-1.6 0-3.3 0-6.6 0c-1.2 0-1.2 0.1-1.6 1.2-0.3 1.1-0.7 2.3-1 3.3-1.3 0.4-3 0.4-4.4 0.1-0.4-0.5 0-1 0.1-1.5q1.3-4.1 2.6-8.2 2.3-7.3 4.7-14.6c0.2-0.7 0.4-1.3 0.6-1.9 1.3-0.3 3.9-0.3 5.5-0.1 0.1 0.2 0.3 0.5 0.4 0.8q4 12.5 8 25c0 0.1-0.1 0.3-0.1 0.5-0.4 0.3-0.9 0.2-1.4 0.2q-1.1 0-2.3 0-0.8 0-1-0.8c-0.3-1-0.6-2-0.9-3.1zm-6.4-14.2q-1.4 4.4-2.7 8.8c-0.1 0.3-0.1 0.6-0.1 1 1.3 0 2.5 0.1 3.8 0.1 1.2-0.1 2.5 0.2 3.9-0.2-0.1-0.5-0.1-0.8-0.2-1.2q-1.6-5.2-3.2-10.5c-0.1-0.2-0.3-0.4-0.4-0.7-0.8 0.8-0.7 1.7-1.1 2.7z"/><path fill-rule="evenodd" class="b" d="m1366.8 2092.8c-1.6 0-3 0-4.4 0-1.5 0-1.5 0-1.9 1.4q-0.5 1.6-1 3.2c-1.3 0.4-2.6 0.2-3.8 0.2-0.2 0-0.5-0.1-0.8-0.2 0.1-0.5 0.2-0.9 0.3-1.3q1.2-4 2.5-8 2.5-7.7 4.9-15.5 0.2-0.4 0.3-0.9c0.2-0.4 0.5-0.7 1-0.7 1.5 0 3.1-0.1 4.7 0 0.2 0.5 0.5 0.9 0.6 1.4q2.4 7.4 4.7 14.8 1.5 4.5 2.9 9.1c0.2 0.3 0.1 0.7 0.2 1.1-0.3 0.1-0.6 0.2-0.8 0.2q-1.5 0.1-2.9 0c-0.6 0-0.9-0.2-1.1-0.8q-0.3-0.9-0.5-1.8-0.3-1-0.7-2c-1.4-0.3-2.7-0.1-4.2-0.2zm-1.9-13.5q-0.5 1.6-1 3.2c-0.3 1.2-0.7 2.3-1 3.4-0.2 1.1-0.8 2.1-0.8 3.4 1.3 0.2 2.6 0.1 3.9 0.1 1.3 0 2.5 0.2 3.9-0.2-1.1-4-2.4-7.9-3.6-11.7 0-0.2-0.1-0.3-0.2-0.4 0 0-0.1 0-0.2-0.1-0.7 0.5-0.5 1.4-1 2.3z"/><path class="b" d="m1228.6 1997c0-0.4 0-0.7 0.1-1 0.1-0.2 0.4-0.4 0.6-0.4 0.3-0.1 0.6-0.1 1-0.1q7.3 0 14.7 0c0.5 0 0.9 0.1 1.4 0.1 0.4 1.2 0.2 2.4 0.1 3.5-0.5 0.5-1.1 0.3-1.6 0.3q-5 0-9.9 0c-0.6 0-1.1 0.1-1.6 0.1-0.3 1.2-0.3 5.1-0.1 6.9 0.3 0.1 0.7 0.2 1 0.2q3.1 0 6.2 0c0.5 0 1.1 0.1 1.6 0.1 0.4 1.3 0.3 2.4 0.2 3.7-0.5 0-0.9 0.1-1.3 0.1q-3 0-6.1 0c-0.5 0-1-0.1-1.6 0.2 0 0.2-0.1 0.4-0.1 0.6q0 3.2 0 6.4c0 0.1 0.1 0.2 0.2 0.5 0.5 0 1 0.1 1.6 0.1q4.8 0 9.7 0 0.8 0 1.6 0c0.5 1.3 0.3 2.4 0.2 3.7-0.3 0-0.6 0.1-0.8 0.1q-8 0.1-15.9 0c-1 0-1.2-0.2-1.2-1.1q0-0.7 0-1.3c0-7.5 0-15 0-22.7z"/><path class="b" d="m1265.9 2021c-2 1.2-4.1 1.5-6.3 1.4-1.7-0.1-3.3-0.5-4.8-1.3-2.7-1.6-3.9-4.1-4.1-7q-0.2-5.3 0-10.6c0.2-4.1 2.9-7.1 6.8-8 2.4-0.6 4.8-0.4 7 0.5 3.3 1.2 4.9 3.8 5.3 7.2q0.1 1.3-1.2 1.3-1.1 0.1-2.1 0c-0.9 0-1.1-0.2-1.3-1.1-0.1-0.5-0.2-1.1-0.4-1.6-0.7-1.6-2-2.4-3.8-2.5q-0.7-0.1-1.5 0c-2.1 0.1-3.7 1.5-4.1 3.6q-0.1 0.7-0.1 1.5-0.1 4.4 0 8.9c0 0.6 0 1.3 0.2 1.9 0.4 1.6 1.5 2.6 3 3.1 1.1 0.3 2.3 0.2 3.4 0 1.8-0.5 2.8-1.8 3.2-3.5 0.1-0.4 0.2-0.8 0.2-1.1 0.7-0.5 1.4-0.3 2.1-0.3 0.7 0 1.4 0 2.1 0 0.1 0.3 0.3 0.5 0.3 0.7-0.2 1.8-0.7 3.5-1.8 5-0.5 0.7-1.2 1.3-2.1 1.9z"/><path class="b" d="m1392.3 2033.6c0.1 1.1 0.1 2.1 0.1 3.2 0 0.5-0.3 0.9-0.5 1.3q-2.5 3.5-4.9 7-3.3 4.7-6.5 9.4c-0.3 0.3-0.6 0.7-0.5 1.3 0.4 0.3 0.9 0.2 1.4 0.2q4.5 0 8.9 0 0.7 0 1.3 0c0.5 0 0.8 0.3 0.9 0.8 0 0.9 0 1.8-0.2 2.8q-0.4 0.2-0.9 0.3-0.1 0-0.3 0-7.9 0-15.9 0c-0.1 0-0.3-0.1-0.6-0.2 0-0.3-0.1-0.6-0.1-0.9-0.1-0.6 0-1.3 0-1.9-0.1-0.8 0.2-1.5 0.7-2.1q4.2-6.1 8.5-12.2 1.4-2.1 2.9-4.2c0.2-0.3 0.3-0.6 0.4-0.9-0.4-0.5-0.8-0.4-1.2-0.4q-4.7 0-9.4 0c-0.6 0-1.1 0-1.7 0-0.4-1.3-0.3-2.4-0.1-3.7 0.4 0 0.7-0.2 1-0.2q7.8 0 15.7 0c0.3 0 0.6 0.2 1 0.4z"/><path class="b" d="m1311.9 2071c1.6 0 3-0.1 4.4 0 0.7 0 0.9 0.2 1 1q0 0.8 0 1.6c-0.1 1.1-0.2 1.3-1.4 1.3-1.4 0-2.9 0-4.3 0-0.6 0-1.1 0.1-1.5 0.1-0.5 0.5-0.4 1-0.4 1.5q0 3.7 0 7.4 0 6 0 11.9c0 0.6 0.1 1.2-0.3 1.7-1.3 0.3-2.6 0.2-3.9 0.1-0.1-0.3-0.3-0.6-0.3-0.9-0.1-0.5 0-1 0-1.5q0-9 0-18.1v-1.9c-0.5-0.1-0.8-0.3-1.2-0.3-1.4 0-2.9 0-4.3 0q-0.5 0-1 0c-0.5 0-0.8-0.3-0.9-0.8q0-1.2 0-2.4c0.1-0.5 0.3-0.7 0.8-0.7q0.6-0.1 1.3 0c3.9 0 7.9 0 12 0z"/><path class="b" d="m1208.7 2071c4.9 0 9.6 0 14.4 0 1.6 0 1.6 0 1.7 1.6q0 0.6 0 1.1c-0.1 0.9-0.3 1.2-1.2 1.2-1.1 0-2.1 0-3.1 0q-1.1 0-2.3 0c-0.2 0-0.5 0.1-0.8 0.1-0.3 0.7-0.2 1.3-0.2 1.8q0 9.3 0 18.5 0 0.8 0 1.5c0 0.5-0.3 0.8-0.8 0.8-1.2 0-2.3 0.2-3.4-0.1-0.4-0.5-0.3-1-0.3-1.5q0-4.2 0-8.3 0-5.4 0-10.7c0-0.6-0.1-1.2-0.1-1.9-0.4 0-0.8-0.2-1.1-0.2-1.4 0-2.7 0-4.1 0-0.5 0-1 0-1.5 0-0.5-0.4-0.5-0.8-0.6-1.2-0.1-1 0-1.7 0.4-2.6 0.9-0.3 1.9-0.1 3-0.1z"/><path class="b" d="m1217.2 2017.6c-0.1 1.6 0.2 3-0.2 4.4-1.4 0.2-2.7 0.2-4 0.1-0.5-0.7-0.3-1.4-0.3-2q0-8.3 0-16.6 0-1.3 0-2.7c0-0.4-0.1-0.8-0.1-1.2-0.4-0.1-0.8-0.2-1.1-0.2q-2.1 0-4.1 0-0.8 0-1.6 0c-0.7-1.2-0.6-2.4-0.3-3.7 0.4-0.1 0.7-0.2 1-0.2q8.5 0 17 0c0.3 0 0.6 0.1 0.9 0.1q0.7 1.9 0 3.7c-1.1 0.3-2.3 0.1-3.5 0.1-1.1 0-2.3 0-3.3 0-0.5 0.6-0.4 1.2-0.4 1.7q0 5.9 0 11.8c0 1.5 0 3 0 4.7z"/><path class="b" d="m1304.6 2036c0-0.8 0-1.4 0-1.9 0.1-0.6 0.3-0.8 0.8-0.9q0.5 0 1 0 7.9 0 15.7 0c1.9 0 2 0 2 1.9 0 2-0.1 2.1-2.1 2.1q-2.1 0-4.1 0c-0.4 0-0.8 0.1-1.2 0.1-0.4 0.6-0.3 1.2-0.3 1.8q0 9.4 0 18.8c0 0.6 0.1 1.2-0.2 1.8-1.3 0.4-2.6 0.2-3.9 0.2-0.5-0.7-0.3-1.3-0.3-1.8q-0.1-5.1 0-10.1 0-4.5-0.1-9.1c0-0.5 0.2-1-0.2-1.5-0.5-0.3-1.1-0.2-1.6-0.2q-2.2 0-4.4 0c-0.7 0-1.1-0.4-1.1-1.2z"/><path class="b" d="m1080.5 2047.6c-0.9 3.7-1.6 7.2-2.4 10.7-0.4 0.1-0.7 0.2-0.9 0.2q-5.7 0-11.4 0c-0.1 0-0.3-0.1-0.4-0.2 0-0.1-0.1-0.2-0.1-0.3q1.2-5.9 2.4-11.7c0.1-0.4 0.3-0.7 0.5-1.1 1-0.3 2.1-0.1 3.2-0.2 1 0 2 0 3.1 0 1 0 2.1 0 3.2 0 1 0.1 2-0.2 3 0.2 0.1 0.9-0.1 1.6-0.2 2.4z"/><path class="b" d="m1279.2 2052c0 2.2 0 4.1 0 6q0 0.5 0 1c-0.1 0.6-0.3 0.9-0.9 0.9-1.1 0-2.2 0-3.1 0-0.6-0.3-0.7-0.8-0.7-1.2q0-0.5 0-1 0-11.1 0-22.3c0-0.7-0.1-1.4 0.5-2.1 1.3-0.1 2.6-0.2 3.8 0.1 0.5 0.6 0.4 1.3 0.4 2 0 5.5 0 11 0 16.6z"/><path class="b" d="m1321.5 2076.4c0-1.4 0-2.5 0-3.7q0-0.6 0.1-1.1c0.1-0.4 0.4-0.6 0.7-0.6 1.2 0 2.4-0.2 3.6 0.1 0.1 0.4 0.2 0.7 0.2 1q0 1.9 0 3.9 0 9.7 0 19.4 0 0.7 0 1.4-0.1 0.8-0.7 0.8c-1.2 0.1-2.3 0.2-3.6 0-0.1-0.4-0.2-0.8-0.3-1.1 0-0.4 0-0.9 0-1.3 0-6.2 0-12.4 0-18.8z"/><path class="b" d="m2540.7 2061.2c-12.8 0-18.5-5.8-18.5-18.9v-20.8h-14v-11.7h14.5v-9l15.4-8v17h12.1v11.7h-12.1v18.9c0 5.4 1.1 8.8 6.9 8.8 1.3 0 3.3-0.2 5-0.7l0.6-0.2 0.4 11.6-0.3 0.1c-2.8 0.8-6.6 1.2-10 1.2zm-32.5-1.1h-16.4v-38.6h-10.1v-11.7h10.1v-3.1c0-13.9 6.3-20.3 20-20.3 2.1 0 4.5 0.2 6.5 0.5l0.4 0.1v11.2l-0.7-0.3c-1.2-0.5-2.4-0.7-4.1-0.6-4.1 0.1-5.7 3-5.7 9.8z"/><path class="b" d="m2260.6 2060.1h-18.1v-59.3l18.1-8zm-63.5 0h-18.5v-67.3h18.5v26.7c2.1-2.8 23.9-26.7 23.9-26.7h20.9l-27.7 31.4 28.3 33.1v2.8h-20.3c0 0-21.4-25.1-25.1-30.2z"/><path fill-rule="evenodd" class="b" d="m2455.6 2061.8c-15.7 0-26.3-10.6-26.3-26.5 0-16.5 10.1-26.8 26.3-26.8 15.8 0 26.3 10.8 26.3 26.8 0 15.9-10.6 26.5-26.3 26.5zm0-41.7c-6.1 0-10.1 5.9-10.1 15 0 9.1 4 15 10.1 15 6.3 0 10.2-5.7 10.2-15 0-9.4-3.8-15-10.2-15z"/><path class="b" d="m2265.2 2039.9c0.6 6 2.6 10.4 6.7 14.9 4 4.2 11.2 7 21.6 7 5.9 0 10.9-1.4 14.7-3.2 3.9-1.8 6.8-4.7 8.9-8.2 2.2-3.5 3.2-7.3 3.2-11.5 0-3.5-0.8-6.7-2.4-9.5-1.6-2.9-4.1-5.3-7.7-7.2-3.5-1.9-9.5-3.9-17.8-5.8-3.5-0.8-5.7-1.6-6.6-2.6q-1.6-1.4-1.6-3.1 0-2.4 1.9-4.1 1.8-1.6 5.3-1.6c2.8 0 5.1 0.7 6.7 2.1 1.8 1.6 2.8 3.5 3.3 5.9l16.7-1.5c-0.7-6.2-2.9-10.1-7-13.3-4-3-9.9-5.4-17.7-5.4-6.3 0-10.6 0.8-15.1 3.1-3.5 1.8-6.3 4.3-8.1 7.2-1.8 2.9-2.7 6.1-2.7 9.4 0 5 1.8 9.2 5.2 12.4 3.5 3.3 9.5 6 17.8 8 5.2 1.2 8.5 2.5 10 3.9q2.2 2.2 2.2 5 0 2.9-2.3 5.1c-1.6 1.4-3.8 2.2-6.7 2.2-3.8 0-6.7-1.5-8.8-4.2-1.4-2-2.2-4-2.6-6.6z"/><path class="b" d="m2380.5 2046.8c0.9 4.6 3.6 7.9 6.8 10.4 3.3 2.6 8.5 4.6 16.3 4.6 5.7 0 12-1.6 16.5-5.2 4-3.1 5.9-7.3 5.9-12.4 0-2.9-0.7-5.5-2.1-7.9-1.4-2.4-3.4-4.2-6.1-5.5-2.6-1.3-6.7-2.3-12.2-3.1-3.7-0.5-6.1-1.1-7.2-1.7q-1.8-1-1.8-3.1 0-1.8 1.4-3 1.4-1.3 4.3-1.3 2.8 0 4.8 1.6c0.9 0.7 1.9 1.8 2.4 3.5l15-1.7c-2-6-5.9-10.2-11.9-12.1-3-1-6.2-1.4-9.4-1.4-4.8 0-8.9 1-11.8 2.1-2.8 1.2-5.1 3-6.7 5.4-1.9 2.8-2.9 6.9-2.4 10.3 0.5 3.9 2.4 7.6 5.6 9.9 0.9 0.6 1.8 1.2 2.8 1.6 3.7 1.6 7.5 2.2 11.4 3 3.9 0.8 6.3 1.5 7.2 2.1q2 1.2 2 3.5 0 2-1.5 3.3-1.9 1.7-5.4 1.7-3.1 0-5-1.5c-0.9-0.7-2.4-2.3-3.2-4.9z"/><path class="b" d="m2323.2 2039.9c0.5 6 2.5 10.4 6.7 14.9 3.9 4.2 11.2 7 21.5 7 5.9 0 10.9-1.4 14.8-3.2 3.8-1.8 6.7-4.7 8.9-8.2 2.1-3.5 3.2-7.3 3.2-11.5 0-3.5-0.8-6.7-2.4-9.5-1.6-2.9-4.2-5.3-7.7-7.2-3.6-1.9-9.6-3.9-17.9-5.8-3.4-0.8-5.6-1.6-6.6-2.6q-1.5-1.4-1.5-3.1 0-2.4 1.8-4.1 1.8-1.6 5.4-1.6 4.2 0 6.6 2.1c1.8 1.6 2.9 3.5 3.3 5.9l16.8-1.5c-0.8-6.2-2.9-10.1-7-13.3-4.1-3-10-5.4-17.7-5.4-6.4 0-10.6 0.8-15.1 3.1-3.5 1.8-6.4 4.3-8.2 7.2-1.8 2.9-2.7 6.1-2.7 9.4 0 5 1.8 9.2 5.3 12.4 3.5 3.3 9.4 6 17.7 8 5.3 1.2 8.5 2.5 10 3.9q2.3 2.2 2.3 5 0 2.9-2.4 5.1-2.4 2.2-6.6 2.2c-3.8 0-6.8-1.5-8.8-4.2-1.5-2-2.3-4-2.6-6.6z"/><path class="b" d="m2355.9 2087.8c-1.3-0.9-2.7-2.1-4.7-2-4.3 0-6.7 2.9-6.7 6.7 0 3.8 2.3 6.8 6.3 6.8 1 0 1.8-0.3 2.4-0.5v-4.4h-3.9v-2.9h8.6v8.4c-1.7 1.8-5.1 2.6-7.1 2.6-6.1 0-10.6-3.5-10.6-9.7 0-6.4 4.1-9.8 10.6-10 2.6 0 5.3 1.2 6.5 2.2z"/><path fill-rule="evenodd" class="b" d="m2376.6 2100.9c-1.3 0.8-2.8 1.1-4.7 1.1-4.5 0-7.1-2.6-7.1-7.1 0-3.9 2.1-7.2 6.3-7.2 5.1 0 7 3.5 7 8.3h-8.9c0.2 2.2 1 3.1 3.3 3.2 1.7 0.2 2.8-0.4 4.1-1.2zm-2.4-7.4c-0.1-1.7-0.9-3.2-2.9-3.2-2 0-2.2 1.4-2.3 3.2z"/><path fill-rule="evenodd" class="b" d="m2380 2088.7c1.4-0.6 3.2-1.2 4.8-1.2 4.1 0 6.1 1.7 6.1 5.8v1.9c0 1.4 0 2.4 0 3.5 0 1 0.1 2 0.2 3h-3.6c-0.1-0.7-0.1-0.6-0.1-1-0.9 1.5-3.8 1.3-4.1 1.3-2.4 0-4.8-1.4-4.8-4 0-2.1 1-3.3 2.4-4 1.2-0.7 2.6-1.2 4.1-1.2h2.1c0-2.2-0.7-2.7-2.8-2.7-1.5 0-3 0.8-4.2 1.7zm4.2 10.7c1.1 0.1 1.9-0.1 2.4-0.7 0.9-0.9 0.6-2.3 0.6-3.4h-1.3c-1.6 0-3.2 0.3-3.2 2.4 0 1 0.5 1.6 1.5 1.7z"/><path fill-rule="evenodd" class="b" d="m2411.1 2087.3c3.9 0 6.9 3 6.9 7.6 0 4-2.5 7.1-6.9 7.1-4.3 0-7-3.1-7-7.1 0-4.6 3.1-7.6 7-7.6zm-0.1 11.9c2.1 0 2.8-2.4 2.8-4.8 0-2.1-1.1-4.1-2.7-4.1-1.9 0-2.9 2.1-2.9 4.1 0 2.3 0.5 4.9 2.8 4.8z"/><path fill-rule="evenodd" class="b" d="m2463.2 2087.3c3.9 0 6.9 3 6.9 7.6 0 4-2.5 7.1-6.9 7.1-4.3 0-7.1-3.1-7.1-7.1 0-4.6 3.2-7.6 7.1-7.6zm-0.1 11.9c2.1 0 2.8-2.4 2.8-4.8 0-2.1-1.1-4.1-2.7-4.1-1.9 0-2.9 2.1-2.9 4.1 0 2.3 0.5 4.9 2.8 4.8z"/><path class="b" d="m2419.1 2087.6h3.9v1.7l0.1-0.2c1.1-1.5 2.2-1.8 4.1-1.8 3.2 0 4.7 2.3 4.7 5.8v8.6h-4.2v-7.3c0-1.7 0.1-4.5-2.1-4.6-2.8 0-2.4 3.5-2.4 5.2v6.7h-4.1z"/><path fill-rule="evenodd" class="b" d="m2498 2107.2h-3.9v-15.5-2.7l-0.1-1.4h3.7l0.1 1.8q0.7-0.9 1.6-1.4 1.2-0.7 2.6-0.7 2.4 0 3.9 1.6 1.9 1.9 1.9 5.5 0 2.1-0.7 3.8-0.6 1.7-2 2.6-1.4 0.9-3.2 0.9-1.5 0-2.5-0.6-0.9-0.4-1.4-1.1zm3.1-16.7q-1.3 0-2.2 1-0.9 1.1-0.9 3.1 0 2 0.8 3 0.9 1.1 2.1 1.1 1.1 0 2-1.1 0.9-1.1 0.9-3.1 0-2.1-0.9-3.2-0.6-0.8-1.8-0.8z"/><path fill-rule="evenodd" class="b" d="m2510.1 2088.7c1.4-0.6 3.2-1.2 4.8-1.2 4.1 0 6.1 1.7 6.1 5.8v1.9c0 1.4 0 2.4 0 3.5 0.1 1 0.1 2 0.2 3h-3.6c-0.1-0.7-0.1-0.6-0.1-1-0.9 1.5-3.8 1.3-4.1 1.3-2.4 0-4.8-1.4-4.8-4 0-2.1 1-3.3 2.4-4 1.2-0.7 2.6-1.2 4.1-1.2h2.1c0-2.2-0.7-2.7-2.8-2.7-1.5 0-3 0.8-4.2 1.7zm4.2 10.7c1.1 0.1 1.9-0.1 2.4-0.7 0.9-0.9 0.6-2.3 0.6-3.4h-1.3c-1.6 0-3.2 0.3-3.2 2.4 0 1 0.5 1.6 1.5 1.7z"/><path class="b" d="m2523 2087.6h4v1.7l0.1-0.2c1.1-1.5 2.2-1.8 4.1-1.8 3.2 0 4.6 2.3 4.6 5.8v8.6h-4.2v-7.3c0-1.7 0.2-4.5-2.1-4.6-2.7 0-2.3 3.5-2.3 5.2v6.7h-4.2z"/><path class="b" d="m2539.9 2107.2q-0.4 0-1.4-0.1-0.6-0.1-1.2-0.3h-0.1l0.3-3 0.2 0.1q0.8 0.2 1.7 0.2 0.8 0 1.5-0.6 0.6-0.5 0.8-1.5l-5.4-14.7h4.3l3.2 9.9 3.3-9.9h3.9l-5.6 15-0.6 1.5q-0.5 1-1.1 1.7-0.6 0.7-1.6 1.2-1.1 0.5-2.2 0.5z"/><path class="b" d="m2492.4 2101.7h-3.9v-7.8q0-1.4-0.2-2-0.2-0.6-0.7-1c-0.7-0.4-1.5-0.4-2.3 0.2q-0.6 0.4-0.9 1.3-0.3 1-0.3 1.9v7.4h-3.9v-8.5q0-1.3-0.6-2-0.5-0.6-1.4-0.6-0.9 0-1.7 1-0.8 0.9-0.8 3v7.1h-3.9v-10.6-2.3q0-0.5-0.1-1.1v-0.1h3.7l0.1 1.8q0.6-0.9 1.6-1.4 1.2-0.6 2.6-0.6 1.6 0 2.6 0.7 0.8 0.6 1.3 1.5 0.3-0.5 0.6-0.8 0.7-0.7 1.7-1.1 1-0.4 2.1-0.4 1.3 0 2.2 0.6 1 0.5 1.5 1.4 0.3 0.6 0.5 1.8 0.2 0.9 0.2 2.5z"/><path class="b" d="m2450.7 2102.2q-2.6 0-4.8-0.9-2.6-1.1-4-3.3-1.4-2.2-1.4-5.4c0-2.9 0.9-5.3 2.7-7.1 1.8-1.8 4.2-2.7 7.2-2.7q2.5 0 4.8 0.8h0.1l-0.3 3.6-0.2-0.1q-0.9-0.4-2-0.7-1.2-0.2-2.2-0.2-1.7 0-3 0.8-1.3 0.7-2 2.2-0.7 1.4-0.7 3.2 0 2.9 1.7 4.6 1.7 1.7 4.5 1.7 2 0 3.9-0.7l0.2-0.1 0.1 3.6-0.1 0.1q-0.7 0.2-2 0.4-1.3 0.2-2.5 0.2z"/><path class="b" d="m2359.4 2082.8h4v18.9h-4z"/><path fill-rule="evenodd" class="b" d="m2331.1 2101.7h-4.5l-1.5-4.3h-7.5l-1.6 4.3h-4.2l7.4-18.9h4.4zm-12.2-7.5h5l-2.5-7.1z"/><path class="b" d="m2402.9 2091.7c-2-1.4-3.4-1.8-4.3-1.8-0.8 0-2.2 0.4-1.8 1.5 0.5 1.6 6.8 1.5 6.8 6.4 0 3-2.1 4.3-5.9 4.3-2.4 0-4.6-1.1-5.2-1.5v-2.4c1.4 0.6 2.9 1.4 4.7 1.4 1.3 0 2.2-0.6 2.2-1.2 0-2.1-7.2-1.8-7.2-6.5 0-2.7 2.4-4.5 6-4.5 1.8 0 3.7 0.9 5.2 1.8z"/></svg>