<svg height="450" viewBox="0 0 2000 450" width="2000" xmlns="http://www.w3.org/2000/svg"><path d="m.1-125h2000v700h-2000z" fill="none"/><g fill="#fff"><path d="m1007.8 171.1q.1-.2.2-.4 3.6-6.1 7.2-12.2c.2-.3.4-.4.7-.4q3.5 0 6.9 0h.5v13z"/><path d="m1027.7 158.1h3.4q2 0 4 0c.2 0 .4.1.5.3q3.8 6.3 7.5 12.6 0 0 .1.1h-15.5z"/><path d="m1032.8 153.6h-14.7c2.4-4.3 4.8-8.4 7.2-12.7 2.5 4.3 5 8.4 7.5 12.7z"/><path d="m1152.2 148.4v22.7h-4.6c0-.8-.1-1.5-.1-2.3-1.2.7-2.2 1.4-3.3 2-4.9 2.8-10.2 0-12.6-4.1-2.2-3.9-2.4-8-.8-12 1.9-4.9 5.8-7.7 11.3-6.9 1.9.3 3.6 1.7 5.4 2.6 0-.4.1-1.2.1-2zm-4.6 11.3c0-1.1-.4-2.1-.8-3.1-1.6-4.6-7.4-4.7-9.7-2.2-2 2.1-2.4 4.7-1.9 7.3.7 4.2 5.2 6.1 8.1 4.8 2.6-1.2 4.4-4.5 4.3-6.8z" fill-rule="evenodd"/><path d="m1104.1 148.4h4.5v22.6h-4.5c0-.7-.1-1.5-.1-1.9-1.8.8-3.6 1.9-5.6 2.5-3.7 1.1-6.7-.5-9.1-3.1-4.1-4.6-3.9-13.6.7-18 3.6-3.5 10-4 13.4.1.1.1.3.2.6.4 0-.9.1-1.7.2-2.6zm-.3 11.1c-.1-.4-.2-.9-.2-1.5-.5-4.1-5.2-6.6-8.8-4.6-3.3 1.8-4.5 6.5-2.6 10 1.7 3.2 4.5 4.3 7.9 2.9 2.8-1.3 3.7-5.1 3.7-6.8z" fill-rule="evenodd"/><path d="m1059.3 171.1h-5.3v-25h-5.1v-5.1h15.5v5.1h-5.1z"/><path d="m1082.3 148.3h3v4.9c-.9.1-1.9.1-2.9.2v17.6h-5.2v-17.6c-.9-.1-1.7-.1-2.6-.2v-4.8c.8-.1 1.6-.1 2.5-.1v-7.3h5.2z"/><path d="m1112.6 140.9h5.1v1.5c0 9.1-.1 18.1 0 27.2 0 1.2-.3 1.7-1.6 1.6-1.1-.1-2.3 0-3.5 0z"/><path d="m1066.8 148.4h4.7v22.7h-4.7z"/><path d="m1121.8 148.4h4.7v22.7h-4.7z"/><path d="m1066.8 141h4.7v4.8h-4.7z"/><path d="m1121.8 141h4.8v4.7h-4.8z"/><path d="m539.7 139.5h8.8v1.5h-7.3v4.9h7.3v1.5h-7.3v6h7.3v1.5h-8.8z"/><path d="m550.5 154.9 2.2-15.4h.2l6.3 12.7 6.2-12.7h.3l2.2 15.4h-1.5l-1.6-11-5.4 11h-.4l-5.5-11.1-1.5 11.1z"/><path d="m570.2 154.9 2.2-15.4h.3l6.3 12.7 6.2-12.7h.2l2.2 15.4h-1.5l-1.5-11-5.5 11h-.3l-5.6-11.1-1.5 11.1z"/><path d="m590.7 139.5h8.8v1.5h-7.3v4.9h7.3v1.5h-7.3v6h7.3v1.5h-8.8z"/><path d="m602.2 154.9v-15.4h3.2q3.5 0 5 .6 2.3.8 3.5 2.7 1.3 1.9 1.3 4.6 0 2.3-1 4.1-1 1.8-2.6 2.6-1.6.8-4.5.8zm1.5-1.4h1.8q3.2 0 4.4-.4 1.8-.6 2.8-2.1 1-1.4 1-3.6 0-2.2-1.1-3.8-1.1-1.6-3-2.2-1.5-.4-4.8-.4h-1.1z" fill-rule="evenodd"/><path d="m618.2 139.5h1.6v9.3q0 1.7.1 2.1.1.9.5 1.5.4.6 1.3 1 .8.5 1.7.5.8 0 1.5-.4.7-.3 1.2-.9.4-.5.7-1.4.1-.5.1-2.4v-9.3h1.6v9.3q0 2.1-.4 3.4-.4 1.2-1.7 2.2-1.2.9-2.9.9-1.9 0-3.2-.9-1.3-.9-1.8-2.3-.3-.9-.3-3.3z"/><path d="m632.3 139.5h8.8v1.5h-7.3v4.9h7.3v1.5h-7.3v6h7.3v1.5h-8.8z"/><path d="m531.1 162.2h.7v3.9q0 .7 0 .9 0 .3.2.6.2.2.5.4.4.2.8.2.3 0 .6-.1.3-.2.5-.4.2-.3.3-.6 0-.2 0-1v-3.9h.7v3.9q0 .9-.2 1.4-.2.5-.7.9-.5.4-1.2.4-.8 0-1.3-.4-.6-.3-.8-1-.1-.3-.1-1.3z"/><path d="m536.3 162.9v-.7h3.5v.7h-1.4v5.7h-.7v-5.7z"/><path d="m540.7 162.2h3.7v.7h-3v2h3v.6h-3v2.5h3v.6h-3.7z"/><path d="m545.5 168.6v-6.4h.1l4.3 4.9v-4.9h.6v6.4h-.1l-4.2-4.8v4.8z"/><path d="m551.4 167.4.6-.3q.6 1.1 1.3 1.1.3 0 .6-.2.3-.1.4-.4.2-.2.2-.5 0-.3-.2-.6-.3-.5-1.1-1.1-.8-.6-1-.8-.4-.5-.4-1 0-.4.2-.8.2-.3.6-.5.4-.2.8-.2.4 0 .8.2.4.2.9.8l-.5.4q-.4-.5-.7-.6-.2-.2-.5-.2-.4 0-.7.3-.2.2-.2.5 0 .3.1.5.1.1.3.4.1.1.8.6.9.6 1.2 1.1.3.5.3 1 0 .7-.5 1.2-.6.5-1.3.5-.6 0-1.1-.3-.5-.3-.9-1.1z"/><path d="m556.4 162.2h.7v6.4h-.7z"/><path d="m558.5 162.2h.7v5.8h2.4v.6h-3.1z"/><path d="m562.7 162.2h3.6v.7h-3v2h3v.6h-3v2.5h3v.6h-3.6z"/><path d="m567.5 162.2h1.2q1.1 0 1.5.1.6.2.9.6.4.4.4 1 0 .6-.3 1-.2.4-.7.6-.4.2-1.2.2l2.3 2.9h-.8l-2.3-2.9h-.4v2.9h-.6zm.6.7v2.1l1.1.1q.7 0 1-.2.3-.1.4-.4.2-.2.2-.6 0-.3-.2-.5-.1-.3-.4-.4-.3-.1-1-.1z" fill-rule="evenodd"/><path d="m572.8 162.2h.6v6.4h-.6z"/><path d="m577.5 162.2 3 6.4h-.7l-1-2.1h-2.8l-1 2.1h-.7l3-6.4zm-.1 1.4-1.1 2.3h2.2z" fill-rule="evenodd"/><path d="m583.1 165.9h4.6v.5h-4.6z"/><path d="m593.5 162.2 3 6.4h-.7l-1-2.1h-2.8l-1 2.1h-.7l3-6.4zm-.1 1.4-1.1 2.3h2.2z" fill-rule="evenodd"/><path d="m596.8 162.9v-.7h3.5v.7h-1.4v5.7h-.7v-5.7z"/><path d="m600.6 162.9v-.7h3.5v.7h-1.4v5.7h-.7v-5.7z"/><path d="m605.1 162.2h1.2q1.1 0 1.5.1.6.2.9.6.4.4.4 1 0 .6-.3 1-.2.4-.7.6-.4.2-1.2.2l2.3 2.9h-.8l-2.3-2.9h-.4v2.9h-.6zm.6.7v2.1l1.1.1q.6 0 1-.2.3-.1.4-.4.2-.2.2-.6 0-.3-.2-.5-.1-.3-.4-.4-.3-.1-1-.1z" fill-rule="evenodd"/><path d="m610.4 162.2h3.7v.7h-3v2h3v.6h-3v2.5h3v.6h-3.7z"/><path d="m615 162.9v-.7h3.3l-2.6 5.8h2.5v.6h-3.5l2.7-5.7z"/><path d="m619.2 162.9v-.7h3.4l-2.7 5.8h2.6v.6h-3.5l2.7-5.7z"/><path d="m626.4 162.2 3 6.4h-.7l-1-2.1h-2.8l-1 2.1h-.7l3-6.4zm0 1.4-1.2 2.3h2.2z" fill-rule="evenodd"/><path d="m629.7 162.9v-.7h3.5v.7h-1.4v5.7h-.6v-5.7z"/><path d="m634.2 162.2h.6v3.9q0 .7 0 .9.1.3.3.6.1.2.5.4.4.2.7.2.3 0 .6-.1.3-.2.5-.4.2-.3.3-.6.1-.2.1-1v-3.9h.6v3.9q0 .9-.1 1.4-.2.5-.7.9-.5.4-1.2.4-.8 0-1.4-.4-.5-.3-.7-1-.1-.3-.1-1.3z"/><path d="m640 162.2h1.3q1.1 0 1.4.1.6.2 1 .6.3.4.3 1 0 .6-.2 1-.3.4-.7.6-.5.2-1.3.2l2.3 2.9h-.8l-2.3-2.9h-.3v2.9h-.7zm.7.7v2.1l1.1.1q.6 0 .9-.2.3-.1.5-.4.2-.2.2-.6 0-.3-.2-.5-.2-.3-.5-.4-.2-.1-.9-.1z" fill-rule="evenodd"/><path d="m645.4 162.2h3.7v.7h-3.1v2h3v.6h-3v2.5h3v.6h-3.6z"/><path d="m1803.6 182.1 5.3-14.5h2l-4.7 12.8h7.8l-.6 1.7zm17.3.3q-2.2 0-3.4-.9c-.7-.6-1.1-1.5-1.1-2.5q0-1 .4-2.2l3.3-9.2h2.1l-3.5 9.4q-.2.8-.2 1.5c0 1.4.9 2.1 2.8 2.2 2.4 0 4.5-1.5 5.5-3.9l3.3-9.2h2l-3.4 9.4c-1.2 3.1-3.9 5.4-7.8 5.4zm15.6-.3h-6.3l5.2-14.5h5.8c1.9 0 3.5.9 3.6 2.7q0 .5-.3 1.2c-.5 1.4-1.8 2.5-3.2 3 1 .5 1.7 1.3 1.7 2.4q0 .6-.2 1.3c-.7 1.9-2.8 3.9-6.3 3.9zm-3.7-1.7h3.3c2.5 0 4-.6 4.7-2.6q.2-.5.2-.9c-.1-.6-.4-.9-1.1-1.1s-1.7-.3-2.9-.3h-2.4zm2.4-6.6h3c1.7 0 3.6-.7 4.2-2.4q.2-.5.2-.8c0-.5-.3-.7-.8-1-.4-.2-1.1-.2-1.9-.2h-3.1zm18.6 8.3-3.2-8.3h1.5c1.9 0 4.3-.2 5-2.3q.2-.6.2-.9c0-.6-.3-.8-.8-1s-1.2-.2-1.9-.2h-3.5l-4.7 12.7h-2l5.3-14.5h5.2c1.4 0 2.6.1 3.6.8.6.4.9 1.1.9 1.8q.1.7-.2 1.5c-.6 1.6-2.5 3-4.3 3.3-.9.1-1.4.1-1.7.1l2.9 7zm12.8-.9c-.9-.8-1.3-1.9-1.3-3.1 0-1 .3-2.2.7-3.3 1.5-3.9 5.1-7.5 10.2-7.5 1.5 0 2.6.3 3.7.8l.2.1-.6 1.7-.3-.1c-1-.5-1.7-.7-3.4-.7-4.1 0-6.6 3.1-7.6 5.9-.4.9-.6 1.9-.6 2.7 0 1.7.8 2.9 3.5 2.9 1.6 0 3-.2 4.4-.8l.6-.2-.8 2.2h-.1c-1.5.4-3.1.6-4.6.6-1.8 0-3.1-.4-4-1.2zm4.1-37.8 4.7-12.8h2l-4.7 12.8zm4.9 0 4.7-12.8h2l-4.6 12.8zm14.6 38.7-.5-5.5h-5.8l-4.4 5.5h-2.2l11.7-14.5h2l1.3 14.5zm-.6-7.2-.3-5-4 5zm5.8 7.2 4.7-12.7h-5.1l.7-1.8h11.9l-.6 1.8h-4.9l-4.7 12.7zm27.4-14.8q2.6 0 3.9 1.2c.9.8 1.4 1.9 1.4 3.2q0 1.5-.7 3.3c-1.5 4.4-5.2 7.4-9.8 7.4q-2.5 0-3.8-1.2c-.9-.7-1.4-1.8-1.4-3.2q0-1.4.6-3.2c1.6-4.4 5.3-7.5 9.8-7.5zm-7.7 7.7c-.3.9-.5 1.8-.5 2.6.1 1.8.9 3 3.4 3.1 3.8 0 6.3-2.9 7.4-5.9.3-.9.5-1.8.5-2.7-.1-1.8-.9-3-3.5-3-3.7 0-6.2 2.9-7.3 5.9zm22.7 7.1-3.9-11.5-4.2 11.5h-2l5.2-14.5h2l4 11.8 4.3-11.8h2l-5.3 14.5zm-71.7-14.5-5.3 14.5h-2l5.3-14.5zm46.5 0-5.3 14.5h-2.1l5.3-14.5z" fill-rule="evenodd"/><path d="m1842.8 144.8h6.6l-5.7 15.8h11.1l-1.4 3.9h-17.8zm69.5 0h18.4l-1.4 3.8h-11.9l-1.5 4.1h11.3l-1.4 3.8h-11.2l-1.6 4.2h12.2l-1.4 3.8h-18.7zm-5.5 5c-1.3 3.5-5.4 4.2-6.7 4.5 1.4.2 5.4.9 3.9 4.9-.6 1.5-1.9 3.3-4.9 4.5-2.2.8-4.6.8-6.7.8h-11l7.2-19.7h10c3 0 6 0 7.6 1.6.5.6 1.2 1.6.6 3.4zm-12 6.4h-4l-1.7 4.7h4.2c.8 0 3.4 0 4.2-2.3.9-2.4-1.8-2.4-2.7-2.4zm4.9-7.4c-.5-.4-1.2-.4-1.9-.4h-4.1l-1.6 4.3h3.6c1 0 1.7 0 2.4-.2.8-.4 1.6-1.1 1.9-1.9.2-.6.2-1.3-.3-1.8zm-30.9-4-4.3 11.8c-.4 1.1-.7 2.2-.3 3 .5 1.1 1.8 1.7 3.4 1.7 4.2 0 5.8-2.9 6.6-4.9l4.2-11.6h6.4l-4.1 11.5c-.9 2.2-2.1 4.6-4.1 6.1-3.2 2.4-7.6 2.8-10.6 2.8-11.3 0-9.2-5.8-8-9.1l4.1-11.3zm-51.6 0h6.7l-7.2 19.7h-6.6zm5.2 8.7 10.6-8.7h7.1l-10.6 8.7 3.7 11h-7.1zm130.3-3.5c-1.3 3.7-5.8 4.5-7.2 4.7l1.2 9.8h-6l-1.3-11.4h1.8c1.1 0 1.8 0 2.5-.2.9-.4 1.7-1.1 2-2 .3-.7.3-1.6-.2-2-.6-.5-1.4-.5-2.1-.5h-4.3l-5.8 16.1h-6.5l7.2-19.7h10.3c3.1 0 6.2 0 7.9 1.7.5.6 1.2 1.7.5 3.5z" fill-rule="evenodd"/><path d="m1414.7 158.5h-.9v-.3h2.1v.3h-.9v2.5h-.3z"/><path d="m1418.6 159.8c0-.4 0-.9 0-1.3q-.2.5-.4 1.1l-.5 1.4h-.3l-.4-1.3q-.2-.7-.4-1.2v1.3l-.1 1.2h-.3l.2-2.8h.4l.5 1.4q.2.5.3.9.1-.4.3-.9l.5-1.4h.5l.2 2.8h-.4z"/><path d="m1327 145.5-2.7 2.7 10 10 2.7-2.8z"/><path d="m1330.7 141.8-2.7 2.7 10 10 2.7-2.7z"/><path d="m1334.3 138.2-2.7 2.7 10 10 2.7-2.7z"/><path d="m1342.6 144.4 2.8 2.7 10-10-2.8-2.7z"/><path d="m1339 140.7 2.7 2.7 10-10-2.8-2.7z"/><path d="m1335.4 137.1 2.7 2.7 10-9.9-2.7-2.8z"/><path d="m1272.7 170.7h3.4v.3q0 2.4-1.2 3.5-1.2 1.2-3.6 1.2-1.2 0-2.2-.3-1-.4-1.6-1-.6-.7-.8-1.9-.3-1.1-.3-3.7 0-2.8.3-3.9.2-1.1.9-1.8.6-.7 1.6-1.1 1-.3 2.2-.3 1.4 0 2.3.4 1 .3 1.6 1.1.5.6.7 1.5.2.8.2 2.9v1.6h-6q-.1.1-.1.2 0 .8 0 1.1 0 1.4.3 2 .3.5 1 .5.7 0 1-.4.3-.4.3-1.3 0-.1 0-.5 0-.1 0-.1zm-2.4-3.8h2.4v-.1q.1-.5.1-.7 0-1-.3-1.4-.3-.5-1-.5-.7 0-1 .5-.3.4-.3 1.5 0 .3 0 .4 0 .2.1.3z" fill-rule="evenodd"/><path d="m1284.4 175.4-.2-1.3q-.7.8-1.6 1.1-.8.4-1.8.4-1.5 0-2.4-1-1-1-1-2.7 0-1.5.8-2.5.8-1 2.6-1.7.4-.2 1.1-.4 2.1-.8 2.1-1.7 0-.6-.3-.9-.3-.3-.9-.3-.6 0-1 .4-.3.4-.3 1.2v.1h-3.7q0-2.2 1.2-3.3 1.3-1.1 3.8-1.1 1.2 0 2.1.2.9.2 1.5.6.8.5 1.1 1.3.3.7.3 2.7v5.1q0 1.6.1 2.4.1.8.4 1.4zm-.5-6.4q-1.4.4-2.1 1-.6.5-.6 1.4 0 .7.3 1.1.3.3.9.3.8 0 1.1-.5.4-.6.4-1.9z" fill-rule="evenodd"/><path d="m1289 171.1h3.3q.1 1.1.4 1.6.3.4 1 .4.6 0 .9-.3.4-.3.4-.8 0-.5-.2-.8-.3-.3-1.1-.7-.2-.1-.6-.3-2-.9-2.8-1.7-.6-.5-.9-1.3-.3-.7-.3-1.5 0-1.8 1.3-2.9 1.2-1.1 3.3-1.1 2.2 0 3.4 1 1.1 1.1 1.1 3v.3h-3.2q0-1-.3-1.5-.3-.4-.9-.4-.6 0-.9.3-.4.3-.4.8 0 .9 1.7 1.6.2.1.4.2 2.2 1 3 2 .8.9.8 2.5 0 2-1.3 3.1-1.2 1.1-3.5 1.1-2.2 0-3.4-1.1-1.2-1.1-1.2-3.1z"/><path d="m1298.6 162.1h3.7l1.3 8.5 1.3-8.5h3.6l-2.6 12.2q-.8 3.5-1.7 4.5-.9 1-3 1-.3 0-.7 0-.4 0-.8-.1v-2.8q0 0 0 0 .4 0 .6 0 .6 0 .9-.2.3-.2.3-.7 0-.3-.2-1.4-.1-.4-.1-.5z"/><path d="m1315.2 170.1h3.6q0 .1.1.3 0 .2 0 .2 0 2.6-1.2 3.8-1.2 1.3-3.6 1.3-2.7 0-3.8-1.5-1.2-1.6-1.2-5.5 0-3.9 1.2-5.4 1.1-1.6 3.8-1.6 2.4 0 3.6 1.2 1.1 1.3 1.1 3.9v.3h-3.6v-.4q0-1.2-.2-1.7-.3-.5-.9-.5-.7 0-.9.7-.3.6-.3 3.5 0 2.8.3 3.5.2.8.9.8.6 0 .8-.6.3-.5.3-1.7 0 0 0-.3 0-.2 0-.3z"/><path d="m1320.3 168.7q0-3.9 1.1-5.4 1.1-1.6 3.8-1.6 2.8 0 3.9 1.6 1.1 1.5 1.1 5.4 0 3.9-1.1 5.5-1.1 1.5-3.9 1.5-2.7 0-3.8-1.5-1.1-1.6-1.1-5.5zm3.8 0q0 2.8.2 3.5.3.7.9.7.7 0 1-.7.2-.6.2-3.5 0-2.9-.2-3.5-.3-.7-1-.7-.6 0-.9.7-.2.7-.2 3.5z" fill-rule="evenodd"/><path d="m1331.9 175.4v-13.3h3.3v1.5q.6-.9 1.3-1.4.7-.4 1.7-.4.9 0 1.6.5.7.4 1 1.3.6-.9 1.4-1.4.7-.4 1.7-.4 1.5 0 2.2 1 .6 1 .6 3.3v9.3h-3.5v-8.5q0-1.4-.2-1.8-.2-.3-.7-.3-.6 0-.9.6-.4.6-.4 1.6v8.4h-3.5v-8.5q0-1.4-.1-1.8-.2-.3-.7-.3-.6 0-1 .6-.3.6-.3 1.6v8.4z"/><path d="m1348.7 179.8v-17.7h3.4v1.5q.6-.9 1.3-1.4.8-.5 1.7-.5.8 0 1.4.3.7.3 1.1.8.5.6.7 1.7.2 1 .2 3.9 0 4.5-.7 5.9-.8 1.4-2.7 1.4-.9 0-1.5-.4-.7-.3-1.2-1.1v5.6zm4.8-7.2q.8 0 1-.9.3-.8.3-3.8 0-1.8-.3-2.5-.2-.6-.9-.6-.7 0-1 .8-.3.7-.3 4 0 1.7.3 2.3.3.7.9.7z" fill-rule="evenodd"/><path d="m1359.9 168.7q0-3.9 1.1-5.4 1.1-1.6 3.8-1.6 2.7 0 3.8 1.6 1.1 1.5 1.1 5.4 0 3.9-1.1 5.5-1.1 1.5-3.8 1.5-2.7 0-3.8-1.5-1.1-1.6-1.1-5.5zm3.7 0q0 2.8.3 3.5.2.7.9.7.7 0 .9-.7.3-.6.3-3.5 0-2.9-.3-3.5-.2-.7-.9-.7-.7 0-.9.7-.3.7-.3 3.5z" fill-rule="evenodd"/><path d="m1370.6 171.1h3.4q0 1.1.4 1.6.3.4 1 .4.5 0 .9-.3.4-.3.4-.8 0-.5-.3-.8-.2-.3-1.1-.7-.2-.1-.6-.3-2-.9-2.8-1.7-.5-.5-.8-1.3-.3-.7-.3-1.5 0-1.8 1.2-2.9 1.2-1.1 3.3-1.1 2.2 0 3.4 1 1.2 1.1 1.2 3v.3h-3.3q0-1-.3-1.5-.3-.4-.9-.4-.5 0-.9.3-.3.3-.3.8 0 .9 1.7 1.6.2.1.3.2 2.3 1 3.1 2 .7.9.7 2.5 0 2-1.2 3.1-1.3 1.1-3.6 1.1-2.1 0-3.4-1.1-1.2-1.1-1.2-3.1z"/><path d="m1381.3 162.1h3.7v13.3h-3.7zm0-4.6h3.7v3.2h-3.7z"/><path d="m1393 175.3q-.7.1-1.2.2-.5.1-.8.1-1.1 0-1.9-.4-.8-.4-1.1-1-.3-.5-.4-1.2-.1-.7-.1-2.1v-6.1h-1.4v-2.7h1.4v-3.7h3.7v3.7h1.8v2.7h-1.8v5.4q0 1.8.3 2.2.3.4 1 .4.1 0 .4-.1.1 0 .1 0z"/><path d="m1400.3 170.7h3.4v.3q0 2.4-1.2 3.5-1.2 1.2-3.6 1.2-1.2 0-2.2-.3-1-.4-1.5-1-.7-.7-.9-1.9-.3-1.1-.3-3.7 0-2.8.3-3.9.2-1.1.9-1.8.6-.7 1.6-1.1 1-.3 2.3-.3 1.3 0 2.2.4 1 .3 1.6 1.1.5.6.7 1.5.2.8.2 2.9v1.6h-6q0 .1 0 .2-.1.8-.1 1.1 0 1.4.3 2 .3.5 1 .5.7 0 1-.4.3-.4.3-1.3 0-.1 0-.5 0-.1 0-.1zm-2.4-3.8h2.5v-.1q0-.5 0-.7 0-1-.3-1.4-.3-.5-1-.5-.7 0-1 .5-.3.4-.3 1.5 0 .3 0 .4.1.2.1.3z" fill-rule="evenodd"/><path d="m1404.8 171.1h3.3q.1 1.1.4 1.6.3.4 1 .4.6 0 .9-.3.4-.3.4-.8 0-.5-.2-.8-.3-.3-1.1-.7-.2-.1-.6-.3-2-.9-2.8-1.7-.6-.5-.9-1.3-.3-.7-.3-1.5 0-1.8 1.3-2.9 1.2-1.1 3.3-1.1 2.2 0 3.4 1 1.1 1.1 1.1 3v.3h-3.2q0-1-.3-1.5-.3-.4-.9-.4-.6 0-.9.3-.4.3-.4.8 0 .9 1.7 1.6.2.1.4.2 2.2 1 3 2 .8.9.8 2.5 0 2-1.3 3.1-1.2 1.1-3.5 1.1-2.2 0-3.4-1.1-1.2-1.1-1.2-3.1z"/><path d="m1356.9 181.7h.6q0 0 0 0 0 .1 0 .1 0 .4.2.5.2.2.6.2.3 0 .5-.2.2-.1.2-.5 0-.5-.8-.8 0 0 0 0-.8-.2-1-.5-.2-.3-.2-.8 0-.6.3-.9.3-.3.9-.3.7 0 1 .3.3.3.3.9v.1h-.6q0-.4-.1-.6-.2-.2-.5-.2-.4 0-.6.2-.2.1-.2.5 0 .1.1.2 0 .2.1.2.2.2.7.3.3.1.4.2.4.1.6.4.2.3.2.7 0 .7-.3 1-.4.4-1.1.4-.7 0-1-.4-.3-.3-.3-1z"/><path d="m1360.3 183v-5.9h.6v2q.2-.3.4-.4.3-.2.7-.2.5 0 .7.3.3.2.3.7v3.5h-.6v-3.2q0-.4-.1-.6-.2-.1-.5-.1-.4 0-.7.2-.2.3-.2.7v3z"/><path d="m1366.6 183q-.1 0-.2 0-.1 0-.1 0-.3 0-.4-.1-.2-.2-.2-.5-.1.3-.4.5-.3.2-.6.2-.5 0-.8-.3-.2-.4-.2-.9 0-.6.2-.9.2-.3 1.1-.6.6-.2.6-.5v-.4q0-.3-.1-.4-.2-.1-.5-.1-.3 0-.5.2-.2.1-.2.5v.1h-.5q0-.7.3-1 .3-.3 1-.3.6 0 .9.3.3.2.3.9v2.5q0 .2 0 .3.1 0 .2 0 0 0 .1 0 0 0 0 0zm-1-2.3q-.1.1-.6.3 0 0 0 0-.5.2-.6.3-.1.2-.1.6 0 .3.1.5.2.2.4.2.4 0 .6-.3.2-.3.2-.8z" fill-rule="evenodd"/><path d="m1367.1 183v-4.4h.6v.7q.1-.4.4-.6.2-.2.6-.2.1 0 .1 0 .1 0 .1 0v.7q0-.1-.1-.1 0 0-.1 0-.5 0-.7.3-.3.3-.3.9v2.7z"/><path d="m1371.2 181.5h.6q0 .8-.4 1.2-.3.4-1 .4-.7 0-1-.6-.3-.5-.3-1.7 0-1.2.3-1.7.3-.6 1.1-.6.6 0 1 .5.3.4.3 1.4 0 .2 0 .3 0 0 0 .1h-2.1v.2q0 .8.2 1.2.2.4.6.4.3 0 .5-.3.2-.3.2-.8zm-1.5-1.2h1.5v-.1q0-.6-.2-.9-.2-.3-.5-.3-.4 0-.6.3-.2.4-.2 1z" fill-rule="evenodd"/><path d="m1374.9 182.1q0 .2.1.3.1.1.5.1 0 0 .1 0 0 0 0 0v.5q0 0-.1 0-.3.1-.3.1-.5 0-.7-.2-.2-.2-.2-.5v-3.3h-.6v-.5h.6v-1.2h.6v1.2h.7v.5h-.7z"/><path d="m1376 183v-5.9h.6v2q.2-.3.4-.4.3-.2.6-.2.5 0 .8.3.3.2.3.7v3.5h-.6v-3.2q0-.4-.2-.6-.1-.1-.4-.1-.4 0-.7.2-.2.3-.2.7v3z"/><path d="m1381.5 181.5h.6q-.1.8-.4 1.2-.3.4-1 .4-.7 0-1-.6-.4-.5-.4-1.7 0-1.2.4-1.7.3-.6 1-.6.7 0 1 .5.4.4.4 1.4 0 .2 0 .3 0 0 0 .1h-2.1v.2q0 .8.2 1.2.1.4.6.4.3 0 .5-.3.2-.3.2-.8zm-1.5-1.2h1.4v-.1q0-.6-.1-.9-.2-.3-.6-.3-.3 0-.5.3-.2.4-.2 1z" fill-rule="evenodd"/><path d="m1384.5 183v-5.9h.6v3.5l1.5-2h.7l-1.3 1.7 1.4 2.7h-.8l-1-2.2-.5.6v1.6z"/><path d="m1387.6 183v-4.4h.6v.6q.2-.4.4-.5.3-.2.7-.2.6 0 .8.3.3.3.3 1v3.2h-.7v-3.2q0-.4-.1-.6-.2-.1-.5-.1-.4 0-.6.2-.3.3-.3.7v3z"/><path d="m1391 180.8q0-1.2.4-1.7.3-.6 1.1-.6.8 0 1.2.5.4.6.4 1.8 0 1.2-.4 1.7-.4.6-1.2.6-.8 0-1.1-.6-.4-.5-.4-1.7zm.6 0q0 1 .2 1.4.2.4.7.4.5 0 .7-.4.2-.4.2-1.4 0-1-.2-1.4-.2-.4-.7-.4-.4 0-.7.4-.2.4-.2 1.4z" fill-rule="evenodd"/><path d="m1395.5 183-1.1-4.4h.6l.8 3.5.7-3.5h.6l.8 3.5.7-3.5h.6l-1 4.4h-.6l-.8-3.4-.6 3.4z"/><path d="m1399.7 177.1h.6v5.9h-.6z"/><path d="m1403.1 181.5h.6q0 .8-.4 1.2-.3.4-1 .4-.7 0-1-.6-.3-.5-.3-1.7 0-1.2.3-1.7.3-.6 1-.6.7 0 1.1.5.3.4.3 1.4 0 .2 0 .3 0 0 0 .1h-2.1v.2q0 .8.2 1.2.2.4.6.4.3 0 .5-.3.2-.3.2-.8zm-1.5-1.2h1.5v-.1q0-.6-.2-.9-.2-.3-.5-.3-.4 0-.6.3-.2.4-.2 1z" fill-rule="evenodd"/><path d="m1407.1 183h-.6v-.6q0 .3-.3.5-.3.2-.6.2-.7 0-1-.7-.4-.6-.4-1.7 0-1.1.4-1.6.3-.6 1-.6.3 0 .6.2.2.1.3.4v-2h.6zm-.6-2.2q0-.9-.1-1.3-.2-.4-.7-.4-.4 0-.6.4-.2.4-.2 1.3 0 .9.2 1.4.2.4.6.4.4 0 .6-.4.2-.4.2-1.4z" fill-rule="evenodd"/><path d="m1407.9 183.4h.6q0 .2.2.4.2.1.5.1.5 0 .7-.3.2-.3.2-.9-.1 0-.1-.1 0-.1 0-.2-.1.3-.3.5-.3.1-.6.1-.7 0-1-.6-.3-.5-.3-1.7 0-1.1.3-1.7.3-.5 1-.5.4 0 .6.2.3.1.4.4v-.5h.5v4.2q0 .8-.3 1.2-.4.4-1.1.4-.6 0-1-.3-.3-.2-.3-.7zm.5-2.6q0 .9.2 1.3.2.4.6.4.5 0 .7-.4.1-.4.2-1.3 0-.9-.3-1.3-.2-.4-.6-.4-.4 0-.6.4-.2.4-.2 1.3z" fill-rule="evenodd"/><path d="m1413.4 181.5h.6q0 .8-.4 1.2-.3.4-.9.4-.8 0-1.1-.6-.3-.5-.3-1.7 0-1.2.3-1.7.3-.6 1.1-.6.6 0 1 .5.3.4.3 1.4 0 .2 0 .3 0 0 0 .1h-2.1v.2q0 .8.2 1.2.2.4.6.4.3 0 .5-.3.2-.3.2-.8zm-1.5-1.2h1.5v-.1q0-.6-.2-.9-.2-.3-.5-.3-.4 0-.6.3-.2.4-.2 1z" fill-rule="evenodd"/><path d="m1586.5 161.4c0-.6 0-1.1 0-1.5s-.3-.3-.5-.3q-3.2 0-6.4 0h-.6v-5q.3 0 .6 0 6.2 0 12.4 0c.5 0 .6.1.6.6q0 5.4 0 10.9c0 .4-.1.5-.6.5q-6.1 0-12.3 0c-2.7 0-5.3-.6-7.6-2.3-2.2-1.6-3.6-3.7-4-6.4-.5-4.6 1.4-8.1 5.7-10.1 1.9-.9 3.9-1.2 6-1.2h12.1c.5 0 .6.1.6.6q0 2 0 4.1c0 .4-.1.5-.5.5q-6.3 0-12.6 0c-1.7 0-3.2.6-4.3 1.9-2.1 2.4-1.1 6.2 2.1 7.2.8.3 1.6.4 2.4.4 2.1.1 4.2.1 6.2.1z"/><path d="m1557.8 166.6h-.6q-6.1 0-12.1 0c-2.6 0-5.1-.5-7.3-2-2.2-1.4-3.8-3.4-4.3-6-.8-4.2.4-8 4.7-10.4 1.8-1.1 3.8-1.5 5.9-1.5 4.4-.1 8.7-.1 13.1-.1.4 0 .6.1.6.5q-.1 2.1 0 4.2c0 .4-.2.5-.6.5q-6.3 0-12.6 0c-1.8 0-3.4.7-4.5 2.2-1.8 2.5-.6 6 2.3 6.9.8.3 1.7.4 2.5.4 2.1.1 4.1.1 6.2.1h.6c0-.6 0-1.1 0-1.6 0-.1-.3-.2-.5-.2q-2.9 0-5.9 0h-1v-3.7q0-1.3 1.3-1.3 5.8 0 11.6 0c.4 0 .6.1.6.6q0 5.4 0 10.8z"/><path d="m1626.6 166.6c-.3 0-.4 0-.6 0q-3.2 0-6.4 0c-.4 0-.6-.1-.8-.4q-.6-.9-1.3-1.8c-.1-.2-.4-.3-.6-.3q-6.4-.1-12.8 0c-.2 0-.4.1-.6.3-.4.6-.9 1.2-1.3 1.9-.1.1-.4.3-.5.3q-3.6 0-7.1 0s-.1 0-.2-.1q.4-.6.8-1.1 6.1-8.4 12.2-16.9.4-.5.9-1c1.6-1.6 3.4-1.6 4.8.1 1.1 1.4 2.1 2.9 3.2 4.4q5 7 10 14.1c.1.1.1.3.3.5zm-16.1-12.3c-1.1 1.6-2.1 3.1-3.2 4.6h6.4c-1.1-1.5-2.1-3-3.2-4.6z" fill-rule="evenodd"/><path d="m1670 166.6c-.3 0-.4 0-.6 0q-3.2 0-6.4 0c-.4 0-.6-.1-.8-.4q-.7-1-1.4-2c-.1-.2-.4-.3-.6-.3q-6.3 0-12.6 0c-.2 0-.4.1-.6.3-.5.7-.9 1.4-1.4 2-.1.2-.4.4-.6.4q-3.4 0-6.9 0s-.1 0-.3 0q.2-.3.3-.5 6.3-8.8 12.7-17.6c.5-.7 1.2-1.3 1.9-1.7 1-.7 2.2-.6 3.1.2.8.8 1.6 1.8 2.3 2.7q5.9 8.3 11.7 16.6c0 .1.1.1.1.3zm-12.9-7.8c-1-1.5-2-3-3.1-4.5-1 1.5-2 3-3.1 4.5z" fill-rule="evenodd"/><path d="m1616.5 146.4h.6q3.2 0 6.3 0c.4 0 .6.1.8.3q4 5.8 7.9 11.5c.1.1.2.2.4.4q.5-.7.9-1.4 3.7-5.2 7.4-10.4c.1-.2.4-.4.5-.4q3.5 0 6.9 0h.3c-.4.6-.7 1-1 1.5q-6 8.3-12 16.6c-.6.8-1.3 1.5-2.2 1.9-1.2.4-2.5 0-3.4-1.2-1.1-1.3-2.1-2.7-3.1-4.2q-5-7-10-14.1c-.1-.1-.1-.3-.3-.5z"/><path d="m1683.5 166.6c-1.7 0-3.4.1-5-.1-4.1-.2-7.4-1.9-9.4-5.6-2.2-3.9-1.5-9.5 3.3-12.4 2-1.2 4.2-1.8 6.5-1.8 3.2-.1 6.5-.1 9.8-.1.5 0 .6.1.6.6q0 2 0 4.1c0 .4-.1.5-.5.5q-4.7 0-9.5 0c-1.6 0-3.1.6-4.2 1.9-2.1 2.4-1 6.3 2.1 7.2.8.3 1.7.4 2.5.4 3.1.1 6.1.1 9.1.1.4 0 .6.1.6.5q-.1 2.1 0 4.2c0 .4-.2.5-.5.5q-2.7 0-5.4 0z"/><path d="m1566.2 166.6q-.3 0-.5 0-2.5 0-5.1 0c-.3 0-.5-.1-.5-.5q0-9.5 0-19c0-.4.2-.5.6-.5q2.5 0 5 0c.4 0 .5.1.5.5q0 9.5 0 19 0 .2 0 .5z"/><path d="m87.1 141.7h17.8v10.4h-17.8zm15.2 1.4h-12.6v7.4h12.6z" fill-rule="evenodd"/><path d="m87.1 153.4h17.8v10.4h-17.8zm15.2 1.4h-12.6v7.4h12.6z" fill-rule="evenodd"/><path d="m67.3 153.4h17.7v10.4h-17.7zm15.2 1.4h-12.7v7.4h12.7z" fill-rule="evenodd"/><path d="m47.5 153.4h17.7v10.4h-17.7zm15.2 1.4h-12.7v7.4h12.7z" fill-rule="evenodd"/><path d="m119.3 162.6-.4 3.7h-9.6v-.2h.4q.5 0 .8-.2.2-.1.3-.4.1-.2.1-1v-7.1q0-.8-.1-1-.1-.3-.4-.4-.2-.2-.7-.2h-.4v-.3h5.8v.3h-.5q-.4 0-.7.2-.2.1-.3.4-.1.2-.1 1v6.9q0 .8.1 1 .1.3.3.4.2 0 1 0h.9q.9 0 1.4-.3.6-.3 1-.9.4-.7.8-1.9z"/><path d="m127.4 163.3h-3.8l-.5 1q-.2.5-.2.9 0 .4.3.7.3.1 1.1.2v.2h-3.6v-.2q.6-.1 1-.5.3-.4.9-1.7l3.9-8.6h.1l3.9 8.9q.6 1.2.9 1.6.3.2.8.3v.2h-5.2v-.2h.2q.6 0 .9-.2.1-.2.1-.4 0-.1 0-.3 0-.1-.3-.6zm-.2-.6-1.6-3.7-1.7 3.7z" fill-rule="evenodd"/><path d="m147.4 155.5v.3q-.3.1-.5.2-.2.1-.4.4 0 .1-.5 1.3l-3.4 8.9h-.3l-2.7-7-2.9 7h-.3l-3.6-8.8q-.5-1.4-.7-1.6-.2-.3-.7-.4v-.3h4.6v.3q-.5 0-.7.2-.2.2-.2.4 0 .3.4 1.3l2.1 5.2 1.7-4.1-.4-1.1q-.4-1-.6-1.3-.2-.3-.5-.4-.2-.2-.7-.2v-.3h5.2v.3q-.5 0-.8.1-.1.1-.2.2-.1.1-.1.3 0 .2.3 1.1l2 5.1 1.8-4.6q.2-.7.3-1 .1-.2.1-.4 0-.4-.3-.6-.2-.2-.8-.2v-.3z"/><path d="m157.5 159.9h3.3v.3q-.6.1-.9.3-.3.3-.8 1.2-.5.9-1.4 2 .8.8 1.3 1.1.3.2.7.2.6 0 1-.8l.4.2q-.7 1.2-1.4 1.8-.6.4-1.3.4-.6 0-1.2-.3-.6-.2-1.4-1-1 .7-1.8 1-.9.3-1.9.3-1.5 0-2.4-.8-.9-.9-.9-2 0-1.2.9-2 .8-.9 2.5-1.6-.2-.5-.3-1-.1-.5-.1-.9 0-1.3.9-2.2.9-.8 2.2-.8 1.2 0 1.8.6.7.5.7 1.3 0 .9-.7 1.5-.7.6-2.1 1.2.9 1.6 2.6 3.4 1.2-1.3 1.2-2.3 0-.3-.2-.5-.3-.3-.7-.3zm-5.1.9q-.6.2-.9.5-.4.5-.4 1 0 .8.5 1.5.4.8 1 1.2.6.4 1.2.4.3 0 .7-.2.4-.1.8-.4-1.9-1.9-2.9-4zm1.9-1.4q.8-.3 1.1-.7.3-.3.3-.8 0-.9-.5-1.5-.3-.4-.7-.4-.4 0-.7.3-.2.3-.2.8 0 .4.1.8.1.5.6 1.5z" fill-rule="evenodd"/><path d="m172.7 155.5v3h-.3q-.2-1-.5-1.5-.3-.4-.9-.7-.3-.1-1-.1h-.8v8.3q0 .8.1 1 0 .2.3.4.3.2.7.2h.4v.2h-5.7v-.2h.4q.5 0 .8-.2.2-.1.3-.4.1-.2.1-1v-8.3h-.8q-1.1 0-1.6.4-.7.7-.9 1.9h-.3v-3z"/><path d="m179.6 163.3h-3.9l-.4 1q-.2.5-.2.9 0 .4.3.7.2.1 1.1.2v.2h-3.6v-.2q.6-.1 1-.5.3-.4.9-1.7l3.8-8.6h.2l3.9 8.9q.5 1.2.9 1.6.3.2.8.3v.2h-5.3v-.2h.3q.6 0 .8-.2.2-.2.2-.4 0-.1 0-.3 0-.1-.3-.6zm-.2-.6-1.6-3.7-1.7 3.7z" fill-rule="evenodd"/><path d="m192.1 160 3 4.4q.7 1.1 1 1.4.4.2.8.3v.2h-5.3v-.2q.6-.1.8-.2.2-.2.2-.4 0-.1 0-.2-.2-.3-.6-.9l-1.6-2.4-1.6 2q-.8 1-.8 1.3 0 .2.2.4.2.2.6.3.2.1.7.1v.2h-4.2v-.2q.7-.2 1.1-.4.6-.4 1.5-1.6l2.2-2.6-2.8-4q-.7-1-.8-1.1-.2-.3-.4-.4-.2-.1-.5-.2v-.3h5.3v.3h-.3q-.4 0-.6.2-.2.1-.2.4 0 .1.1.3l.5.8 1.4 2 1.1-1.4q.9-1 .9-1.5 0-.2-.1-.4-.2-.2-.4-.3-.2-.1-.7-.1v-.3h4v.3q-.5 0-.8.1-.3.2-.6.5-.2.1-1.1 1.1z"/><path d="m213.3 155.3v3.7h-.3q-.4-1.4-1.3-2.2-1-.8-2.2-.8-1 0-1.9.6-.8.6-1.2 1.5-.5 1.2-.5 2.7 0 1.4.4 2.6.3 1.2 1.1 1.8.8.6 2 .6 1.1 0 1.9-.4.9-.4 1.8-1.5v.9q-.9.9-1.9 1.4-1 .4-2.3.4-1.7 0-3.1-.7-1.3-.7-2-2-.8-1.3-.8-2.8 0-1.5.8-2.9.8-1.4 2.2-2.1 1.4-.8 2.9-.8 1.2 0 2.4.5.8.3 1 .3.2 0 .4-.2.2-.2.3-.6z"/><path d="m220.5 155.4q2.6-.1 4.2 1.5 1.6 1.6 1.6 4 0 2.1-1.2 3.6-1.6 2.1-4.5 2.1-2.9 0-4.5-2-1.3-1.5-1.3-3.7 0-2.4 1.6-4 1.7-1.6 4.1-1.5zm.1.5q-1.5 0-2.3 1.5-.6 1.3-.6 3.6 0 2.7 1 4.1.6.9 1.9.9.8 0 1.3-.4.7-.5 1.1-1.6.4-1.2.4-3 0-2.1-.4-3.2-.4-1-1-1.5-.6-.4-1.4-.4z" fill-rule="evenodd"/><path d="m230.9 155.5 5.4 6.7v-4.6q0-1-.3-1.3-.4-.5-1.3-.5v-.3h3.6v.3q-.7.1-1 .3-.2.1-.3.4-.1.3-.1 1.1v9h-.3l-7.3-9v6.9q0 .9.4 1.2.4.4 1 .4h.2v.2h-3.8v-.2q.9-.1 1.2-.4.4-.4.4-1.2v-7.7l-.2-.2q-.4-.5-.6-.6-.3-.2-.8-.2v-.3z"/><path d="m246.3 155.3.1 3.6h-.3q-.2-1.4-1.2-2.2-.9-.8-1.9-.8-.8 0-1.3.4-.5.5-.5 1 0 .4.2.7.2.3.7.7.4.3 1.8.9 1.9 1 2.5 1.8.7.8.7 1.9 0 1.3-1.1 2.3-1 1-2.7 1-.5 0-.9-.1-.5-.1-1.2-.4-.3-.2-.6-.2-.2 0-.4.2-.3.2-.4.5h-.3v-4.1h.3q.3 1.7 1.3 2.6 1 .9 2.2.9.9 0 1.4-.4.6-.5.6-1.2 0-.4-.3-.7-.2-.4-.6-.7-.4-.3-1.4-.8-1.5-.8-2.2-1.3-.6-.5-.9-1.1-.4-.6-.4-1.4 0-1.3 1-2.2.9-.9 2.3-.9.6 0 1.1.1.3.1.9.4.5.2.7.2.2 0 .4-.1.1-.1.2-.6z"/><path d="m248.1 155.5h5.6v.3h-.3q-.6 0-.9.2-.2.1-.3.3-.1.3-.1 1.2v5.3q0 1.4.2 1.9.3.5.8.8.5.3 1.2.3.9 0 1.5-.4.6-.4.9-1.1.3-.7.3-2.4v-4.4q0-.7-.1-1.1-.2-.3-.4-.4-.3-.2-1-.2v-.3h3.7v.3h-.2q-.4 0-.7.2-.3.2-.5.6-.1.2-.1.9v4.1q0 1.9-.2 2.7-.3.9-1.3 1.6-.9.7-2.6.7-1.4 0-2.2-.4-1-.5-1.5-1.3-.4-.8-.4-2.1v-5.3q0-1-.1-1.2-.1-.2-.3-.3-.3-.2-1-.2z"/><path d="m269.8 162.6-.4 3.7h-9.6v-.2h.4q.5 0 .7-.2.2-.1.4-.4 0-.2 0-1v-7.1q0-.8 0-1-.1-.3-.4-.4-.3-.2-.7-.2h-.4v-.3h5.8v.3h-.5q-.5 0-.7.2-.2.1-.4.4-.1.2-.1 1v6.9q0 .8.1 1 .1.3.4.4.2 0 1 0h.9q.8 0 1.4-.3.6-.3 1-.9.4-.7.8-1.9z"/><path d="m279.2 155.5v3h-.3q-.2-1-.5-1.5-.4-.4-.9-.7-.3-.1-1.1-.1h-.8v8.3q0 .8.1 1 .1.2.4.4.3.2.7.2h.4v.2h-5.7v-.2h.4q.4 0 .7-.2.2-.1.4-.4 0-.2 0-1v-8.3h-.7q-1.1 0-1.6.4-.7.7-.9 1.9h-.3v-3z"/><path d="m285.8 166.1v.2h-5.7v-.2h.4q.5 0 .7-.2.2-.1.4-.4 0-.2 0-1v-7.1q0-.8 0-1-.1-.3-.4-.4-.3-.2-.7-.2h-.4v-.3h5.7v.3h-.4q-.5 0-.7.2-.3.1-.4.4-.1.2-.1 1v7.1q0 .8.1 1 .1.2.4.4.3.2.7.2z"/><path d="m290.2 155.5 5.3 6.7v-4.6q0-1-.2-1.3-.4-.5-1.3-.5v-.3h3.6v.3q-.7.1-1 .3-.2.1-.3.4-.2.3-.2 1.1v9h-.2l-7.3-9v6.9q0 .9.4 1.2.4.4 1 .4h.2v.2h-3.8v-.2q.9-.1 1.2-.4.4-.4.4-1.2v-7.7l-.3-.2q-.3-.5-.6-.6-.2-.2-.7-.2v-.3z"/><path d="m309.2 155.3v3.8h-.3q-.5-1.6-1.6-2.4-1.1-.8-2.3-.8-1.2 0-2.1.7-.8.7-1.1 1.9-.3 1.2-.3 2.5 0 1.6.3 2.7.4 1.2 1.2 1.7.8.6 2 .6.4 0 .8-.1.4-.1.8-.2v-2.3q0-.6-.1-.8-.1-.2-.3-.3-.3-.2-.7-.2h-.3v-.3h5.3v.3q-.6 0-.9.2-.2.1-.3.4-.1.1-.1.7v2.3q-1 .4-2.2.7-1.1.2-2.3.2-1.5 0-2.5-.4-1.1-.4-1.8-1.1-.8-.7-1.2-1.6-.6-1.1-.6-2.4 0-2.5 1.7-4.1 1.7-1.7 4.3-1.7.8 0 1.5.1.3.1 1.1.4.8.3.9.3.3 0 .5-.2.1-.2.3-.6z"/><path d="m322.4 155.3.1 3.6h-.3q-.3-1.4-1.2-2.2-.9-.8-1.9-.8-.8 0-1.3.4-.5.5-.5 1 0 .4.2.7.2.3.7.7.4.3 1.8.9 1.9 1 2.5 1.8.7.8.7 1.9 0 1.3-1.1 2.3-1 1-2.7 1-.5 0-.9-.1-.5-.1-1.2-.4-.4-.2-.6-.2-.2 0-.4.2-.3.2-.4.5h-.3v-4.1h.3q.3 1.7 1.3 2.6 1 .9 2.2.9.9 0 1.4-.4.5-.5.5-1.2 0-.4-.2-.7-.2-.4-.6-.7-.4-.3-1.4-.8-1.5-.8-2.2-1.3-.6-.5-1-1.1-.3-.6-.3-1.4 0-1.3.9-2.2 1-.9 2.4-.9.6 0 1.1.1.3.1.9.4.5.2.7.2.2 0 .3-.1.2-.1.3-.6z"/><path d="m325.9 163.9q.6 0 .9.4.4.4.4.9 0 .6-.4 1-.4.3-.9.3-.6 0-.9-.3-.4-.4-.4-1 0-.5.4-.9.3-.4.9-.4z"/><path d="m332.3 161.4v3q0 .9.1 1.2.1.2.4.3.3.2 1 .2v.2h-5.5v-.2q.7 0 1-.2.3-.1.4-.4.1-.2.1-1.1v-7q0-.8-.1-1.1-.1-.2-.4-.3-.3-.2-1-.2v-.3h5q2 0 2.9.3.9.3 1.4 1 .6.7.6 1.7 0 1.2-.8 2-.6.5-1.6.7l2.6 3.7q.5.7.7.9.4.2.8.3v.2h-3.4l-3.5-4.9zm0-5.3v4.8h.5q1.1 0 1.6-.2.6-.3.9-.8.3-.5.3-1.4 0-1.2-.6-1.8-.6-.6-1.8-.6z" fill-rule="evenodd"/><path d="m341.8 163.9q.6 0 1 .4.4.4.4.9 0 .6-.4 1-.4.3-1 .3-.5 0-.9-.3-.4-.4-.4-1 0-.5.4-.9.4-.4.9-.4z"/><path d="m354.2 162.6-.4 3.7h-9.6v-.2h.4q.4 0 .7-.2.2-.1.3-.4.1-.2.1-1v-7.1q0-.8-.1-1 0-.3-.3-.4-.3-.2-.7-.2h-.4v-.3h5.8v.3h-.5q-.5 0-.8.2-.2.1-.3.4-.1.2-.1 1v6.9q0 .8.1 1 .1.3.4.4.2 0 1 0h.9q.8 0 1.4-.3.6-.3 1-.9.4-.7.8-1.9z"/><path d="m356.9 163.9q.5 0 .9.4.4.4.4.9 0 .6-.4 1-.4.3-.9.3-.6 0-1-.3-.4-.4-.4-1 0-.5.4-.9.4-.4 1-.4z"/><path d="m1522.9 316.7c-.3-.1-.6-.1-.9-.1q-.3-.1-.6-.2c-.3-.3-.9 0-1 .4q-.2.7-.3 1.4-.2.7.5.8c.1 0 .3 0 .4.1q.2.1.3.3c0 .1 0 .3.1.4.2.4 0 .7-.5.7q-.9 0-1.9 0-1.3-.1-2.5-.2-.9 0-.6-.9.1-.3.1-.6.2-.4.5-.1c.2.2.4.1.6-.1.4-.3.6-.6.6-1 .2-.8.4-1.5.5-2.2q.2-.7.3-1.5.3-1 .5-2.1.2-.7.3-1.5c.1-.4 0-.5-.4-.5-.3-.1-.4-.2-.3-.5q0-.4.1-.7c.1-.3.3-.4.5-.3.7.1 1.3-.2 1.9-.4.2 0 .4-.1.6-.1.4-.1.5 0 .5.5 0 .1-.1.2-.1.3.1.1.1.2.2.2h.2c.5-.3 1-.6 1.5-.8 1.4-.6 3-.2 3.8 1.2q.6.8.6 1.9c0 .4 0 .9-.1 1.3q-.2.8-.5 1.4c-.2.4-.4.8-.7 1.2s-.8.7-1.2 1q-.8.4-1.6.6c-.5.1-1 0-1.4.1zm2.8-5.5q-.1-.5-.1-.8c-.2-.7-.7-.9-1.2-.9-.7 0-1 .1-1.9 1.3-1 1.2-1.2 2.2-1.4 2.7s-.1 1.1.3 1.4c.6.3 1.2.4 1.9.1 1.6-.9 2.2-2.2 2.4-3.8z" fill-rule="evenodd"/><path d="m1494.8 315.7q-.5.4-1.1.8-.1.1-.2.1c-1.3.2-2.5 0-3.4-1-.8-.7-1-1.7-1-2.8 0-.7.1-1.4.5-2.1.6-1.2 1.4-2.2 2.7-2.7.8-.3 1.6-.4 2.5-.2.5.1.9.4 1.4.6q.3.2.6 0c.6-.6 1.3-.4 1.9-.4.2 0 .3.2.3.4q-.3 1.3-.5 2.6-.3 1.5-.7 3c-.1.8-.4 1.5-.5 2.3-.1.6-.4 1.1-.6 1.7-.4 1-1.2 1.5-2.1 1.9-.7.2-1.4.5-2.1.6-1.2.2-2.4-.1-3.4-.8-.6-.3-1-.9-.9-1.6q.1-.7.8-.6.8.1 1.3.8c.8.9 1.8.9 2.7.3.7-.4 1.2-1.2 1.6-1.9q0-.2.1-.4c.2-.2.2-.4.1-.6zm-3.1-2.3q0 .3.1.6c.1.8 1 1.1 1.6.6q.4-.2.7-.4c1-.9 1.6-2 1.8-3.4q.1-.3.2-.6.1-.3-.2-.6c-.6-.6-1.5-.6-2.2-.1-.4.4-.7.8-1 1.2-.6.8-1 1.7-1 2.7z" fill-rule="evenodd"/><path d="m1512.9 315.9c-.3.2-.5.4-.8.5-.1.1-.2.2-.4.2-.8.1-1.6.1-2.3-.4-.6-.3-1-.9-1-1.6 0-.6.1-1.2.2-1.8.2-.9.4-1.7.5-2.5.1-.5 0-.6-.5-.6q-.4 0-.8 0c-.3 0-.4-.1-.4-.4q.2-.5.4-1s.2-.1.2-.1c.4.3.9.1 1.2 0 .6-.1 1.1-.3 1.7-.4q.4-.1.8-.1.3 0 .3.4 0 .1 0 .2-.3 1.4-.6 2.8-.3 1.2-.6 2.4 0 .3-.1.6c0 .2 0 .5.2.6.3.2.6.2.8 0 1-.8 1.8-1.6 2.2-2.9q.5-1.7 1-3.4c0-.1.1-.3.2-.5.1-.1.2-.2.4 0 .1 0 .3.1.4.1h1c.3 0 .4.1.3.5q-.3 1.4-.6 2.9-.2 1.1-.5 2.1-.2 1-.5 2 0 0 0 .1c-.1.6-.2 1.2-.4 1.8-.3.9-.8 1.6-1.7 2.1q-1.1.6-2.3.9-1.4.3-2.8-.1c-.6-.2-1.2-.4-1.7-1-.3-.3-.5-.6-.5-1.1 0-.6.3-.8.8-.7.6 0 1 .2 1.3.6.2.2.4.5.7.6.9.6 1.8.2 2.5-.4q.8-.6 1.1-1.4c0-.3.2-.5.3-.7 0-.1 0-.2 0-.3z"/><path d="m1537 314.4q.2-1.1.4-2.3.2-1 .3-2c0-.4-.3-.6-.7-.5-.9.2-1.5.5-2.1 1.3-.3.3-1 1.9-1.1 2.1-.2.3-.2.6-.4 1q-.2.6-.4 1.3c-.1.2-.1.3.1.5 0 .1.1.3.1.4-.1.1-.2.2-.4.2s-.5 0-.8 0q-.6-.1-1.2-.1c-.4-.1-.5-.2-.4-.6q.2-1.1.5-2.1.2-1.1.5-2.2.2-.9.4-1.8.3-1.5.6-2.9.1-.1.1-.3c0-.5 0-.6-.5-.6q-.1 0-.2 0c-.4-.1-.5-.2-.4-.5q.1-.3.1-.6c.1-.3.2-.4.5-.4q.5.1 1 0c.6-.1 1.1-.3 1.7-.5.6-.1.7.1.6.7q-.2 1-.4 2-.3.9-.4 1.9-.1.2-.1.3c0 .1.1.2.1.3q.1-.1.2-.2c.2-.2.4-.5.9-.7.3-.1.7-.2 1.1-.3 1-.2 2.1-.2 3 .7.3.3.6.8.5 1.3 0 .5-.1 1-.2 1.5q0 .2-.1.4-.2 1.3-.5 2.5-.2.5.2.7c.2.1.5 0 .7-.3.1-.2.3-.2.5-.1q.5.4.8.8c.1.1 0 .4-.1.5-.6.5-1.2.9-2 .8-.7-.1-1.4-.2-1.9-.7-.4-.4-.6-.9-.6-1.5z"/><path d="m1485.7 316.7q-.5-.1-.9-.1-1-.1-1.4-1c-.3-.4-.4-.4-.8-.1q-.6.5-1.2 1-.1.1-.2.1-1.1.2-2.3-.2c-1.5-.6-2.2-2.5-2-4.2.1-1 .5-1.7 1-2.5q1.2-1.6 3.2-1.9c.9-.2 1.9-.1 2.7.5.4.2.7.2 1.1-.1.2-.1.4-.2.7-.2.3-.1.7 0 1 0s.4.1.4.4q-.3 1.1-.6 2.2-.1.7-.3 1.3-.3 1.2-.6 2.5c0 .2 0 .4.2.5.3.1.5 0 .7-.2.4-.3.6-.3.9.1q.1.2.3.4c.3.2.3.4.1.7-.7.5-1.1.8-2 .8zm-3.3-7.6c-.2.1-.7.2-1 .4-.9.8-1.6 1.7-1.8 3q-.1.3-.1.6c0 .3 0 .7.1 1 .1.6.9.9 1.4.6q1.8-1 2.4-2.9c.2-.6.3-1.2.5-1.8 0-.1-.1-.2-.1-.3-.3-.4-.8-.5-1.4-.6z" fill-rule="evenodd"/><path d="m1463.2 315.8c-.6.6-1.2.8-2.5.8-.9 0-1.5-.4-1.9-1.1-.2-.3-.3-.3-.6-.1q-.6.5-1.2 1.1-.1 0-.2.1c-1.3.2-2.7-.1-3.6-1.2-.7-.9-.9-2-.7-3.1 0-.7.2-1.3.5-1.9q.7-1.2 1.7-1.9c.9-.6 1.9-.8 2.9-.8q.9.1 1.7.6c.7.3.5.3 1.1-.1.2-.1.4-.2.7-.2.3-.1.6 0 .9 0 .5 0 .6.1.5.6q-.3 1-.5 1.9-.3 1-.6 2 0 .1 0 .1-.1.7-.3 1.3-.1.2-.1.4c0 .2 0 .5.2.6q.4.1.7-.2c.4-.4.5-.4.8 0q.3.3.6.5c.1.2.1.5-.1.6zm-5.1-6.7q0 0-.1 0-.2 0-.4.1c-.7.2-1.2.7-1.7 1.3-.4.6-.7 1.3-.8 2-.2.6-.3 1.2.1 1.8.3.5.9.7 1.4.4.8-.6 1.5-1.2 1.9-2.1.4-.8.7-1.6.8-2.5.1-.2 0-.5-.2-.6-.3-.2-.7-.3-1-.4z" fill-rule="evenodd"/><path d="m1471.4 314.4q.2-.8.3-1.5.1-.4.1-.7c.1-.7.3-1.3.3-1.9.1-.2 0-.5-.1-.6-.2-.2-.5-.2-.7-.1-.8.3-1.5 1.1-1.8 1.4-.6.7-.9 1.5-1.1 1.8-.2.5-.4 1.1-.6 1.7-.1.4-.3.9 0 1.4.1.3-.1.5-.4.5q-1 0-2.1-.1c-.2 0-.3-.2-.3-.5q.5-2.1 1-4.3.2-.6.3-1.3c0-.3-.1-.4-.4-.5q0 0-.1 0c-.6 0-.7-.1-.5-.7q.1-.3.2-.6c0-.2.1-.2.3-.1.2 0 .4.1.6 0 .5-.1 1-.3 1.5-.4q.4-.1.8-.2c.2 0 .3.2.3.4v.6q0 .4.3.1c.7-.5 1.4-.9 2.3-1 1-.2 1.9 0 2.6.8q.8 1 .4 2.2 0 .1 0 .2-.3 1-.5 2.1c-.1.4-.2.8-.3 1.2 0 .2 0 .5.2.6.3.1.6 0 .7-.3.2-.2.4-.2.6 0q.4.3.7.7c.1.1 0 .3-.1.5-.5.5-1.1 1-2 .8-.5-.1-.9-.1-1.4-.3-.7-.5-1.1-1-1.1-1.9z"/><path d="m1501.6 314.4q.2-.7.3-1.5.2-.7.4-1.5.3-1.8.7-3.6.2-.7.3-1.4c.1-.5 0-.6-.5-.6q-.4 0-.8 0-.4 0-.3-.4.1-.3.2-.7c.1-.2.2-.4.6-.3.3.1.7 0 1.1-.1.6-.1 1.1-.3 1.7-.4.9-.2 1-.1.8.8q-.1.8-.3 1.5-.2 1-.4 1.9-.1.1-.1.3-.2 1-.4 2.1c-.2.6-.4 1.3-.5 1.9q-.2.9-.4 1.9c-.1.2-.1.5.2.6.2.1.5 0 .7-.3.1-.2.4-.2.6 0s.3.4.5.6c.3.2.3.4.1.5-.5.6-1.1 1.1-1.9.9-.5 0-1.1 0-1.5-.3-.7-.5-1.1-1-1.1-1.9z"/><path d="m1441.7 276.3q-2.6-1.3-4.7-2.8c-1.2-2.3-1.8-4.4-1.4-6.2q.3-1 .8-1.9c-1.4-2-1.9-4.1-1.5-6 1.3-5.3 9.8-8.1 20.5-7.2-7.2.2-12.9 3.3-14 8.1-1.5 6.5 5.7 13.7 16.1 16.1q2.5.6 4.9.7l.2.8c-1.7-.1-3.5-.4-5.1-.7-9-2.1-16.4-6.2-20.1-10.6q-.4.7-.6 1.4c-.6 2.7 1.3 5.7 4.9 8.3z" fill-rule="evenodd"/><path d="m1464.7 246.6c1.5.4 2.9.9 3.9 1.5.5.3 1 .7 1.3 1 .3.4.6 1 .5 1.6q-.1.3-.3.5v.1q0 0-.1 0l-2.9 3.7c2.1 1.3 3.6 3.1 4 5.2 4.7 2.6 8.2 6.4 7.8 10.4 2 2.2 3.3 4.7 2.7 7.3-1.6 6.8-18.1 12.1-26.8 11.6-4.3-1.8-9.9-6.1-13.9-10.7-14-5.8-22.9-13.9-21.4-20.6 1.4-5.9 10.8-9.3 23.6-9.3-8.5 1.2-14.7 4.7-15.9 9.9-2 9 11 19.6 29.2 23.8 11.9 2.8 22.7.6 24-4.7.5-2-.4-5-2.6-6.5q0-.1.1-.2c.7-3.3-2.2-7.3-7.5-10.3-.2-1.9-1.8-3.8-4.1-4.9l-3.2 4s-.2.2-.4.3c-.3.2-.7.4-1.3.3-.5-.2-.8-.5-1-.8-.1-.3-.2-.5-.2-.5l-1.1-4.9c-3 .3-5.4 1.9-6 4.2-.7 3.1 2.4 6.6 7 7.6.6.2 1.3.3 1.9.4v.5s-.4 0-.9-.1c-.6-.1-1.1-.2-1.1-.2-5.3-1.2-8.8-5.2-8-8.9q.1-.5.3-.9c-5.1.5-8.8 2.4-10 5q0-.7.2-1.4.1-.4.2-.8c2.1-2.4 6-3.6 10.2-3.8 1.4-1.7 3.5-2.6 5.9-2.9l-1-4.6q0 0-.1-.1 0-.3.1-.6c.1-.7.6-1 1.1-1.2.4-.2 1-.3 1.5-.4q.4 0 .7 0c1.1 0 2.3.1 3.6.4zm-6 1.4c-.3 1 2 2.3 5 3 2.9.7 5.6.5 5.8-.5s-2-2.3-5-3c-1.2-.3-2.4-.4-3.4-.4-1.3 0-2.3.3-2.4.9z" fill-rule="evenodd"/><path d="m1489.8 286.7q-.2-.4-.7-.4c-.4 0-.8.2-.8.7 0 .4.3.6.6.7l.2.1c.2.1.5.2.5.5s-.2.6-.5.6-.6-.3-.6-.6l-.3.1c0 .5.4.8.8.8.5 0 .9-.4.9-.9s-.3-.7-.7-.8l-.2-.1c-.1-.1-.4-.2-.4-.4 0-.3.3-.4.5-.4q.3 0 .5.3z" fill-rule="evenodd"/><path d="m1491.5 286.3h-.3v2.8h.3z"/><path d="m1494.2 289.2.9-1.9.3 1.8h.4l-.6-2.9-1 2.2-.9-2.2-.6 2.9h.4l.3-1.8z" fill-rule="evenodd"/><path d="m1496.9 286.3v1.8c0 .6.4 1.1 1.1 1.1.6 0 1-.5 1-1.1v-1.8h-.4v1.7c0 .4-.1.9-.6.9-.6 0-.7-.5-.7-.9v-1.7z" fill-rule="evenodd"/><path d="m1500.7 286.3h-.3v2.8h1.2v-.3h-.9z" fill-rule="evenodd"/><path d="m1503.1 288.4-.4.7h-.3l1.3-2.9 1.4 2.9h-.4l-.3-.7zm.6-1.4-.5 1.1h1z" fill-rule="evenodd"/><path d="m1506.9 286.6h.7v-.3h-1.7v.3h.7v2.5h.3z" fill-rule="evenodd"/><path d="m1508.7 289.1h1.6v-.3h-1.2v-1h1.1v-.4h-1.1v-.8h1.2v-.3h-1.6z" fill-rule="evenodd"/><path d="m1514.8 289.2.9-1.9.3 1.8h.4l-.6-2.9-1 2.2-.9-2.2-.6 2.9h.3l.4-1.8z" fill-rule="evenodd"/><path d="m1520.3 287.7c0 .9-.6 1.5-1.5 1.5-.8 0-1.4-.6-1.4-1.5 0-.8.6-1.4 1.4-1.4.9 0 1.5.6 1.5 1.4zm-.3 0c0-.6-.5-1.1-1.2-1.1-.6 0-1.1.5-1.1 1.1 0 .7.5 1.2 1.1 1.2.7 0 1.2-.5 1.2-1.2z" fill-rule="evenodd"/><path d="m1523.3 289.1h-.4l-.9-1.2h-.1v1.2h-.4v-2.8h.5c.2 0 .5 0 .7.1.2.2.4.5.4.7 0 .4-.3.8-.7.8zm-1.4-1.5h.1c.4 0 .8 0 .8-.5 0-.4-.5-.5-.8-.5h-.1z" fill-rule="evenodd"/><path d="m1524.4 289.1h1.6v-.3h-1.2v-1h1.1v-.4h-1.1v-.8h1.2v-.3h-1.6z" fill-rule="evenodd"/><path d="m1527.6 288.7-.4 1 .2.1.5-1z" fill-rule="evenodd"/><path d="m1531.5 286.3h-.4v2.8h.4z"/><path d="m1532.8 289.1h.4v-2.1l2.1 2.3v-3h-.3v2.1l-2.2-2.2z" fill-rule="evenodd"/><path d="m1536.7 289.1h.3v-2.1l2.1 2.3v-3h-.3v2.1l-2.1-2.2z" fill-rule="evenodd"/><path d="m1543.3 287.7c0 .9-.7 1.5-1.5 1.5s-1.5-.6-1.5-1.5c0-.8.7-1.4 1.5-1.4s1.5.6 1.5 1.4zm-.4 0c0-.6-.5-1.1-1.1-1.1-.7 0-1.1.5-1.1 1.1 0 .7.5 1.2 1.1 1.2s1.1-.5 1.1-1.2z" fill-rule="evenodd"/><path d="m1544.6 286.3h-.4l1.2 3 1.2-3h-.4l-.8 2.1z" fill-rule="evenodd"/><path d="m1548.1 288.4-.3.7h-.4l1.4-2.9 1.3 2.9h-.3l-.4-.7zm.7-1.4-.5 1.1h1z" fill-rule="evenodd"/><path d="m1552 286.6h.7v-.3h-1.7v.3h.6v2.5h.4z" fill-rule="evenodd"/><path d="m1553.8 289.1h1.5v-.3h-1.1v-1h1.1v-.4h-1.1v-.8h1.1v-.3h-1.5z" fill-rule="evenodd"/><path d="m1559.9 286.6v-.3h-1.3v2.8h.3v-1.3h1v-.4h-1v-.8z" fill-rule="evenodd"/><path d="m1561.6 288.4-.3.7h-.4l1.4-2.9 1.3 2.9h-.4l-.3-.7zm.7-1.4-.5 1.1h1z" fill-rule="evenodd"/><path d="m1566.3 286.7q-.3-.4-.8-.4c-.4 0-.8.2-.8.7 0 .4.3.6.6.7l.2.1c.3.1.5.2.5.5s-.2.6-.5.6-.6-.3-.6-.6l-.3.1c0 .5.4.8.8.8.5 0 .9-.4.9-.9s-.3-.7-.7-.8l-.2-.1c-.1-.1-.4-.2-.4-.4 0-.3.3-.4.5-.4q.3 0 .5.3z" fill-rule="evenodd"/><path d="m1568.4 286.6h.6v-.3h-1.7v.3h.7v2.5h.4z" fill-rule="evenodd"/><path d="m1570.2 289.1h1.5v-.3h-1.2v-1h1.2v-.4h-1.2v-.8h1.2v-.3h-1.5z" fill-rule="evenodd"/><path d="m1574.8 289.1h-.5l-.8-1.2h-.2v1.2h-.3v-2.8h.4c.3 0 .5 0 .8.1.2.2.3.5.3.7 0 .4-.2.8-.6.8zm-1.4-1.5h.1c.3 0 .7 0 .7-.5 0-.4-.4-.5-.8-.5z" fill-rule="evenodd"/><path d="m1497.4 265.6c-.7-.1-1.8-.4-3.5-.4-3.7 0-6 1.8-6 4.6 0 2.5 1.8 3.9 3.7 5.1 1.9 1.1 3.8 2 3.8 3.4 0 1.1-1.2 1.5-2.6 1.5-1.7 0-3.2-.4-4.6-.9v3.1c.6.1 2.6.8 4.8.8 3.6 0 6-2.1 6-5 0-3.2-2.8-4.6-5-5.8-1.4-.8-2.5-1.5-2.5-2.5 0-.9 1.2-1.4 2.6-1.4 1.5 0 2.6.4 3.3.5z" fill-rule="evenodd"/><path d="m1502.2 282.4h-3.4q0-.8.1-1.6c.5-.9.8-1.9.8-3s-.3-2-.8-2.8c0-1.6-.3-3-.7-4.5l3-.2c.2.5.3 1.1.4 1.7.8-.9 1.7-2 3.8-2 2.2 0 3 1.4 3.5 2.3.6-.8 1.6-2.3 4-2.3 3.5 0 4 3.4 4 5.5v2.9c0 .9.1 2.7.3 4h-3.4c0-1.3-.1-2.7-.1-4v-1.6c0-2.5-.2-4.2-2-4.2-2.2 0-2.2 2.7-2.2 4.2v1.6c0 .9.1 2.7.3 4h-3.4c0-1.3-.1-2.7-.1-4v-2.4c0-2-.4-3.4-2.1-3.4s-2.1 1.4-2.1 4.2v1.6c0 .9.1 2.7.1 4z" fill-rule="evenodd"/><path d="m1528.3 282.4h-3c-.1-.6-.2-1.4-.2-2-.7 1-1.9 2.4-4.2 2.4-1.3 0-2.4-.5-3.1-1.3-.1-1.1-.2-2.4-.2-3.1v-1.8c1.1-1.5 3.3-2.4 6-2.4q.7 0 1.3.1c-.1-1.2-.7-2.1-3.1-2.1-1.3 0-2.7.4-3.3.5v-2.3c.7-.1 1.9-.4 3.8-.4 5.4 0 5.6 2.9 5.6 5.9v2.4c0 1.4.2 2.9.4 4.1zm-3.4-5.6v-.4c-.4-.1-.8-.2-1.3-.2-2.1 0-3.5 1.1-3.5 2.5 0 .9.8 1.5 1.9 1.5 1.9 0 2.9-1.9 2.9-3.4z" fill-rule="evenodd"/><path d="m1532.2 282.4c-.1-1.3-.1-3.1-.1-4v-1.6c0-2.4 0-4.2 2.6-4.2.4 0 .7.1 1 .1l-.1-2.7q-.3 0-.5 0c-1.4 0-2.9 1-3.4 2.1q-.2-1-.4-1.8l-3.1.2c.3 1.7.7 3.3.7 5v2.9c0 1.3-.1 2.7-.1 4z" fill-rule="evenodd"/><path d="m1541.9 280.1q-.4.1-.7.1c-1.8 0-1.8-1.1-1.8-2.8v-4.8h2.4l.2-2.3c-1.1.1-1.9.1-2.6.1v-.4c0-.5.1-2.1.2-3.2l-3.4 1.2v10.6c0 3.6 2.5 4.2 4.1 4.2.5 0 1-.1 1.4-.1z" fill-rule="evenodd"/><path d="m1549 282.5c-4.4-1-6.8-4.8-6.8-9.3 0-4.8 3.2-8 8.6-8q1.4 0 2.8.3v2.9c-.9-.1-1.8-.3-2.7-.3-3.1 0-5.1 2-5.1 5.4 0 3 1.5 5.5 4.3 6.2q-.5 1.2-1 2.4z" fill-rule="evenodd"/><path d="m1568.4 268.2v11.6h1.3c2.1 0 3.7-.2 4.8-.4l-.2 3h-12.6c-.5-1.5-1.3-3.8-1.6-4.7h-4.4l.6-2.3h3.2c-.4-1.5-1.3-4.6-1.8-7h-.1c-.4 1.8-1 3.8-1.5 5.5l-.1.2c-.2.5-1 3.6-1 3.6-.4 1.2-1 3.5-1.3 4.7h-3.9c.7-1.8 1.5-3.6 2.2-5.7l1.2-3.1c.7-2.3 1.8-5 2-7.6l4.6-.8c.3 1.7 1.3 5 2.3 7.7l1.1 3.2c.5 1.5 1 2.9 1.6 4.2 0-.7.1-1.4.1-2.2v-7.8c0-1.8-.2-3.3-.5-4.7h9.7l.1 2.7c-1.2-.1-2.8-.1-4.5-.1zm1.2 6.7h-.5v-2.6h.5c1.5 0 2.9 0 4.4-.2l-.1 2.9c-1.3-.1-2.3-.1-4.3-.1z" fill-rule="evenodd"/><path d="m983.6 260.4c0 5.1-4.1 9.2-9.2 9.2s-9.2-4.1-9.2-9.2c0-2.2.9-4.3 2.2-5.9 1.2.2 2.6.3 4.1.4-1.1.1-1.9 1.6-1.9 3.5 0 1.5.6 2.8 1.4 3.3-.2-.4-.3-.8-.3-1.3 0-1.1.4-2 .9-2s.9.9.9 2c0 .5-.1 1-.3 1.3.9-.4 1.5-1.7 1.5-3.3 0-1.8-.7-3.2-1.7-3.5q.5 0 .9 0c.7.1 1.7.1 2.8.1q.6 0 1.3 0c-1.1.2-1.9 1.7-1.9 3.5 0 1.5.6 2.8 1.5 3.3-.2-.4-.3-.8-.3-1.3 0-1.1.4-2 .9-2s.9.9.9 2c0 .5-.1.9-.3 1.3.9-.5 1.5-1.8 1.5-3.3 0-1.9-.8-3.4-1.9-3.5 1.4-.1 2.9-.2 4.1-.4 1.3 1.6 2.1 3.6 2.1 5.8zm-8.3 2.3c0-.6-.4-1-1-1-.5 0-.9.4-.9 1 0 .5.4.9.9.9.6 0 1-.4 1-.9z" fill-rule="evenodd"/><path d="m949.4 320.5q-.3-.4-.3-.7 0-.3.2-.5.3-.2.6-.2.2 0 .5.1l-1-1.9q-2.5.1-3.2 1.4-.2.4-.2.6 0 .6.3 1 .1.1.5.5.3.3.3.5 0 .1-.2.2-.1.1-.2.1-.3 0-.7-.2l.2 2.1q.7.5 1.6.5.9 0 1.6-.4.8-.5.8-1.3 0-.7-.4-1.2z"/><path d="m953.4 321.1q0-2.1 0-2.6-.6 0-.8 0h-1.8q.1 1.7.1 3 0 1.1 0 2.5l2.5-.1v-.2q0-1 0-2.6z"/><path d="m957.4 321.2q-.2.2-.4.2-.2 0-.4-.2-.1-.2-.1-.4 0-.2.2-.3.1-.2.3-.2.4 0 .5.3l2.2-.9q-.4-.6-.9-.9-.7-.4-1.4-.4-.6 0-1.3.3-.9.3-1.5 1.1-.5.8-.5 1.7 0 1.1.8 1.9.8.7 2.1.7 1 0 1.8-.4.7-.5 1.1-1.3z"/><path d="m965.3 318.4-2.1.2q.1 1 .1 1.7 0 .1-.1.2-.1.1-.3.1-.1 0-.2-.1-.1-.1-.1-.2 0-.7.1-1.7l-2-.4q-.5 1.5-.5 2.9 0 1 .7 1.7.7.7 2 .7 1.3 0 2.1-.7.8-.8.8-1.9 0-1.3-.5-2.5z"/><path d="m970.2 323.8-1.5-1.8.2 1.5h-2.4l-.1-5.8q1-.1 1.8-.1 2.5 0 3.2 1.3.2.4.2.7 0 .4-.3.9-.3.5-.7.7l1.3 1.4q-1.1.5-1.7 1.2zm-1.1-4q0-.2-.1-.4-.2-.1-.4-.1-.1 0-.1 0v.9q.1 0 .1 0 .2 0 .4-.1.1-.2.1-.3z" fill-rule="evenodd"/><path d="m977.5 321.9-2.2.2-.1-.3 1.4-.2-.1-1.3-1.4.1v-.3l2.2-.2-.1-1.6q-2.1.1-3.8.1h-1q.1 1.3.2 2.5.1 1.2.1 3l4.9-.1z"/><path d="m983.4 321.9-2.2.2q-.1-.8-.1-1.2-.1-1.7-.3-2.5-.5 0-1.5 0h-1q.2 1.3.3 2.5 0 1.1.1 3l4.9-.2z"/><path d="m989.1 321.9-2.2.2q0-.8 0-1.2-.2-1.7-.3-2.5-.5 0-1.5 0h-1.1q.2 1.3.3 2.5.1 1.1.1 3l4.9-.2z"/><path d="m995.5 320.8q0 1.3-.8 2.1-.9.8-2.3.8-1.3 0-2.1-.8-.7-.7-.7-1.8 0-1 .5-1.7.5-.8 1.4-1.2.7-.2 1.3-.2 1.3 0 2.1.9.6.8.6 1.9zm-2.6-.4q0-.2-.1-.3-.1-.1-.3-.1-.2 0-.3.1-.1.1-.1.3 0 .1.1.3.1.1.3.1.2 0 .3-.1.1-.2.1-.3z" fill-rule="evenodd"/><path d="m997.9 318.7q-.2-.2-.5-.2-.2 0-.5.2-.3.3-.3.7 0 .4.3.6.3.2.5.2.3 0 .5-.2.4-.2.4-.6 0-.4-.4-.7z"/><path d="m1001.1 317.9q-.2-.3-.2-.4 0-.2.2-.3.1-.2.4-.2.1 0 .3.1l-.7-1.2q-1.5.1-2 .9-.1.2-.1.4 0 .3.2.6.1.1.3.3.2.2.2.3 0 .1-.1.1-.1.1-.2.1-.1 0-.4-.1l.1 1.3q.5.3 1 .3.6 0 1-.3.5-.3.5-.8 0-.4-.2-.7z"/><path d="m1003.8 318.2q0-1.3 0-1.6-.4 0-.5 0h-1.1q0 1 0 1.9 0 .7 0 1.5h1.6v-.2q0-.6 0-1.6z"/><path d="m979.1 250.8q0 0-.1 0c-.1 0-.3-.1-.3-.2-1.2-4.5-2.5-5.4-2.6-5.4l.3-.7c.2.1 1.6.9 3 5.9 0 .2-.1.4-.3.4zm-3-.4q0 0-.1 0c-.1 0-.3-.1-.3-.2l-.5-1.7c-.1-.2.1-.4.2-.4.2-.1.4 0 .5.2l.4 1.7c.1.2 0 .4-.2.4zm-2.1-4.4-.6 1.9c-.1.1-.2.2-.4.2q0 0-.1 0c-.1 0-.2-.2-.2-.4l.6-1.9c.1-.2.3-.3.4-.2.2 0 .3.2.3.4zm-2.2-.4c-.1 0-2 1-2.7 4.8 0 .1-.1.3-.3.3q0 0-.1 0c-.2-.1-.3-.3-.3-.5.8-4.1 3-5.2 3-5.3.2-.1.4 0 .5.2.1.1 0 .4-.1.5z" fill-rule="evenodd"/><path d="m984.1 253.1c0 .6-.7 1.1-1.1 1.2q-.7.2-1.5.3c-1.2.2-2.7.3-4.1.4q-.1 0-.2 0-.1-.1-.2 0-.7 0-1.3 0c-1.1 0-2.1 0-2.8-.1q-.4 0-.9 0-.2-.1-.3-.1-.1 0-.2.1c-1.5-.1-2.9-.2-4.1-.4-1.1-.1-2-.3-2.4-.5-.7-.5-.8-1-.8-1.3.1-.6.7-1.1 1-1.2q.3-.1 1.1 0c0-.8.3-2.6 1.2-4.3 1.5-3.1 3.9-4.6 6.9-4.5 3.1.1 5.4 1.8 6.8 4.8.8 1.8 1 3.5 1.1 4.2q.6 0 .9.1c.8.4 1 .9.9 1.3zm-.7-.1c.1-.2-.3-.4-.5-.5-.1-.1-.3-.1-.9-.1-.7.1-1.4.2-1.4.2-.2.1-.4-.1-.5-.3 0-.1.1-.3.3-.4 0 0 .6-.1 1.2-.1-.1-.7-.3-2.4-1.1-4-1.2-2.8-3.3-4.3-6.1-4.4s-4.9 1.2-6.3 4.1c-.8 1.6-1 3.3-1.1 4q0 0 0 0l4.1.4 1.3.1c.2 0 .4.1.3.3 0 .2-.1.4-.3.4l-2.5-.2-2.9-.3q0 0 0 0s-.2 0-.5 0c-.6-.1-1-.1-1.1 0-.1 0-.4.3-.5.6q0 .3.5.6c.3.1 1.2.3 2.6.5 3.4.4 9.3.6 13 .1q1-.1 1.8-.3c.2-.1.6-.4.6-.7z" fill-rule="evenodd"/><path d="m971.8 245.6s-2 1.1-2.6 4.8c-.1.2-.2.3-.4.3q0 0-.1 0c-.1-.1-.3-.2-.2-.4.7-4.1 2.9-5.3 3-5.3.1-.1.3-.1.4.1s.1.4-.1.5z"/><path d="m979.2 250.8q-.1.1-.1.1c-.2 0-.3-.2-.4-.3-1.2-4.6-2.5-5.4-2.6-5.4l.3-.6c.2 0 1.7.9 3 5.8.1.2-.1.4-.2.4z"/><path d="m974 246-.6 1.9c0 .2-.2.3-.3.3q-.1 0-.1-.1c-.2 0-.3-.2-.3-.4l.6-1.9c.1-.2.3-.3.5-.2.2 0 .3.2.2.4z"/><path d="m976.1 250.4q-.1 0-.1 0c-.2 0-.3-.1-.3-.2l-.5-1.7c-.1-.2 0-.4.2-.4.2-.1.4 0 .5.2l.4 1.7c.1.2 0 .4-.2.4z"/><path d="m958.4 304.8c0-.5-.4-.9-.9-.9s-.8.4-.8.9c0 .4.3.8.8.8s.9-.4.9-.8z"/><path d="m1000.2 272c-.8.5-4.1 1.8-3.8 1.9.2.1 2.2-.8 2.8-.9 1.1-.2.7.8 0 1.1-.5.2-3.8 1.8-6 2.5-1.4.5-2.9 1.4-3.7 2 2.1 2.9 3.3 6.3 3.3 9.9 0 3.8-1.3 7.4-3.7 10.3l2.1 4.3s-2.5-.6-1.5 2.3c0 .1-2.7-.9-5.8-2.1-2.8 1.6-6 2.4-9.3 2.4-3.4 0-6.6-.9-9.4-2.5-3.2 1.3-6.1 2.3-6 2.2.9-2.9-1.5-2.3-1.5-2.3l2.2-4.6c-2.2-2.9-3.4-6.3-3.4-10q0-2 .4-3.9-.1.1-.2.2c-1.7 1.5-4.8 3.4-5.2 3.8-.6.4-1.7.3-.9-.6.4-.5 2.2-1.7 2.2-2 0-.2-2.7 1.9-3.6 2.4-.6.2-1.2-.3-.3-1 .8-.7 3.1-2.1 3.1-2.5 0-.5-2.9 1.8-3.8 2.5-.6.3-1.4 0-.5-.9.7-.7 3.6-2.4 3.6-2.5 0-.2-2.1.8-4 1.3-.2.1-1-.1-.2-.8s5.3-2.3 5.6-2.4c-.2 0-2.4.6-3 .4-.7-.2-1-.8.1-1.3s4.8-1.2 5.2-1.3c1.5-.3 4.1-1.8 4.1-1.8s.4.1.8.4q.8-1.1 1.9-2.1c3-2.9 6.9-4.6 11-5l.3-.6q.1.4.3.6.2 0 .5 0-.3-.3-.3-.7c0-.4.3-.8.8-.8s.9.4.9.8q0 .4-.3.7.2 0 .5 0 .1-.3.2-.6l.3.6c3.8.3 7.4 1.6 10.3 4q0-.2 0-.2s2.7-1.5 3.7-2.6c.3-.3 2.8-3.1 3.8-3.8 1-.6 1.3-.1 1.2.6-.2.6-1.9 2.3-2 2.4.2-.2 4-3.2 5-3.5 1-.4.8.4.6.6-1.4 1.3-3.4 2.6-3.3 2.7.2 0 3.1-1.6 4.1-1.8 1.3-.3 1.1.6.5.8-1 .5-4.5 1.8-4.1 2s2.8-1 3.7-1.3c1.1-.4 1.2.4.7.7zm-14.6 25.7-10.4-21.6-.5-.3v-2.6q-.1 0-.1 0-.2 0-.4 0v2.6l-.5.3-10.4 21.6s-.4.8-.4 1.4q.5.5 1 1 .3 0 .5 0l9.7-3.7v3.2s-3.2 1.3-6.6 2.7c2.2 1 4.6 1.5 7.1 1.5s4.8-.5 6.9-1.4c-3.5-1.4-6.7-2.7-6.7-2.8v-3.2l9.6 3.7q.7 0 1.1-.2.1-.1.3-.3c.4-.6-.2-1.9-.2-1.9zm-24.8-1.1 11.1-23.2c-4.6.8-8.5 3.3-10.9 6.7.2.6.3 1.3.2 2.1 0 0-.8.4-1.8.9-.7 1.7-1.1 3.5-1.1 5.4 0 3 .9 5.7 2.5 8.1zm16.2-23.2 11.2 23.5c1.7-2.4 2.7-5.3 2.7-8.4 0-7.7-6.1-14-13.9-15.1z" fill-rule="evenodd"/><path d="m990.3 305.3c0 .4.4.8.8.8.5 0 .9-.4.9-.8 0-.5-.4-.9-.9-.9-.4 0-.8.4-.8.9z"/><path d="m1004.2 310.3v.3c-.8.4-1.8.9-3 1.1-.8.2-1.9.2-3 .2s-2.3.2-3.2 0c-.3 0-.5-.2-.7-.3-.3-.1-.8-.1-1.1 0s-.3.3-.6.3c-.2.1-.5 0-.8 0-1.9-.1-3.9.2-4.6-.9 0-.3.2-.4.2-.6.1-.5-.1-1 0-1.5.1-.3.4-.5.5-.8s.1-.8.2-1.1c.2-.4.4-.7.5-1 .4-.1.5-.4 1-.4.4.4.4 1.1.9 1.3.9.4 1.8-.3 2.6-.6 0-.1 0-.3.1-.4.3 0 0 .2.1.2.3-.6.9-.9 1.3-1.5h.3q.3.4.6.7c.4 0 .4.2.6.2 0 .2-.1.1.1.1-.1.1-.1.3 0 .4.2.1.4.2.7.2.1.3.3.5.4.7h.7c.2.3.4.5.9.5-.2.2.1 0 .1.3 0-.3.2 0 .3-.2.2.3.6.4 1 .4.7.1 1.6-.2 2.3 0 .7.1.7.6 1 1 .1.1.2.1.3.3.1.4.2.8.3 1.1zm-6.3-2.8v-.1c-.1.1 0 .2 0 .1zm-1.1.3c0-.1-.3-.3-.4-.1.1 0 .3.1.4.1zm-.7.5c-.1 0-.1.1-.2.1 0-.2-.5-.5-.6-.2.1 0 .1-.1.2-.1 0 .3.6.6.6.2zm-.8-1c.2 0 .3 0 .2-.2 0-.1-.2-.1-.3-.2-.1.1-.1.3.1.3 0-.2.3 0 0 .1zm-.1.8q0-.2-.1-.2 0 .1.1.2zm-.7-2h-.1v.1h.1zm-.2.4c-.1 0-.2-.1-.3-.2-.3.3.3.6.3.2zm3.9 1.8s-.3-.2-.3 0c.1-.1.2.2.3 0z" fill-rule="evenodd"/><path d="m961.6 311c-.6 1.1-2.7.8-4.6.9-.3 0-.5.1-.7 0-.3 0-.4-.2-.6-.3-.4-.1-.9-.1-1.2 0-.2.1-.4.3-.7.3-.9.2-2.1 0-3.1 0-1.1 0-2.2 0-3.1-.2-1.2-.2-2.2-.8-3-1.2v-.2c.2-.3.2-.7.4-1.1 0-.2.2-.2.3-.3.3-.4.3-.9 1-1 .6-.2 1.5.1 2.2 0 .5 0 .8-.1 1-.4.1.2.3-.1.3.1.1-.2.3 0 .2-.2.5 0 .6-.2.9-.5h.6c.2-.2.3-.4.4-.7.4 0 .6-.1.7-.2s.1-.3 0-.4c.2 0 .1.1.1-.1.2 0 .2-.2.6-.2q.3-.4.7-.7h.2c.4.5 1 .9 1.3 1.5.2 0-.1-.2.1-.2s.1.3.2.4c.7.3 1.6 1 2.5.6.5-.2.5-.9 1-1.3.4 0 .6.3 1 .4 0 .3.3.6.4 1 .1.3.1.8.3 1.1.1.3.3.5.4.8.2.5 0 1 0 1.5.1.2.3.3.2.6zm-7.2-4.9h-.1v.1h.1zm-.7 1.8q-.1 0-.1.2.1-.1.1-.2zm-.1-.7c.1 0 .1-.2 0-.3-.1.1-.3.1-.3.2 0 .2.1.2.2.2-.2-.1 0-.3.1-.1zm-.1 1c-.1-.3-.6 0-.6.2 0 0 0-.1-.1-.1 0 .4.5.1.5-.2.1 0 .1.1.2.1zm-1.1-.5c-.1-.2-.4 0-.4.1.1 0 .3-.1.4-.1zm-1.4-.3c0-.1-.1.1-.1.1 0 .1.1 0 .1-.1zm0 .9c-.1-.2-.3 0-.4 0 .1.2.2-.1.4 0zm3.9-2c-.2.1-.3.2-.4.2.1.4.6.1.4-.2z" fill-rule="evenodd"/><path d="m1003.2 303.5q0 1.1-.8 1.9-.8.9-2 .9-1.1 0-2-.9-.8-.8-.8-1.9 0-1.2.8-2 .9-.9 2-.9 1.2 0 2 .9.8.8.8 2zm-.6 0q0-1-.6-1.6-.6-.7-1.6-.7-.7 0-1.2.4 0 .1 0 .1.2 0 .6 0 .3 0 .5 0 .7 0 1.2.2.6.3.6.8 0 .7-.5 1 0 0 0 .1l.5 1q.5-.6.5-1.3zm-.8 1.6q0-.1-.3-.1-.1 0-.3 0-.3 0-.4 0-.1 0-.1 0-.4-1-.5-1 0 0 0 .1 0 .1.1.5 0 .3 0 .4 0 .1 0 .1-.2 0-.4-.1-.3 0-.4 0-.3 0-.5 0 .6.6 1.4.6.8 0 1.3-.4.1-.1.1-.1zm-2.9-1.7q0-.7-.1-1.4-.5.6-.5 1.5 0 .7.5 1.3.1-1.1.1-1.4zm1.3-.4q0 .1 0 .2 0 0 .1 0 .4 0 .4-.3 0-.2-.4-.2-.1 0-.1.1 0 .1 0 .2z" fill-rule="evenodd"/><path d="m752.5 268.6h22.2l-2.6 7.6h-6.6l-7.4 21.7h-8.9l7.4-21.7h-6.7z" fill-rule="evenodd"/><path d="m777.9 268.6h8.7l-10.2 29.3h-8.7z" fill-rule="evenodd"/><path d="m814.1 268.6h16.6l-2.8 8.1h-7.8l-1.6 4.6h7.9l-1.5 4.2h-7.8l-1.6 4.5h7.8l-2.8 7.9h-16.6z" fill-rule="evenodd"/><path d="m789.7 268.6h22.1l-2.6 7.6h-6.6l-7.5 21.7h-8.8l7.4-21.7h-6.7z" fill-rule="evenodd"/><path d="m745.2 275.2.8-2.4-1-.2-.8 2.1z" fill-rule="evenodd"/><path d="m739.8 295.6.8-2.5-1-.2-.8 2.2z" fill-rule="evenodd"/><path d="m683.7 268.5h11.7l-6.7 19.9h8.5l-3.4 9.5h-20c.6-1.9 8.7-26 9.9-29.4zm-3.3 25.2h11l.3-1h-9.6s4.5-13.2 6.6-19.5h-1.2z" fill-rule="evenodd"/><path d="m712.3 267.4c16.7-1.5 18.4 26.7.6 31.3-2.1.6-4.2.4-6.3-.3-14.6-5.3-8.8-29.6 5.7-31zm-9.8 15.4c-.8 6.2 2.4 11.7 7.6 11.7 4.8 0 9.6-4.5 10.5-10.8 1-6.1-2.7-11.9-7.9-11.9-5.1 0-9.5 4.8-10.2 11zm17.1.8c-.9 5.8-5.3 9.8-9.5 9.8s-7.3-4.6-6.6-10.5c.7-5.8 4.8-10 9.2-10 4.3 0 7.7 4.9 6.9 10.7zm-9.6 5.2c4 0 6.5-11.1 2.5-11.1-3.9 0-6.4 11.1-2.5 11.1z" fill-rule="evenodd"/><path d="m744.2 267.4c2.6.4 4.7 1.2 6 3l-3.7 9.9c-1-1.2-2.7-1.6-4-1.6-2.9 0-5.3 2.4-5.3 5.5 0 3 2.3 5.1 5.1 5.1.6 0 1.5-.1 2.2-.2q.2-.1.6-.2h.1c-1.2 3-2.3 6.4-3.4 9.5-.7.3-1.2.5-2 .7-.6.1-1.1.2-1.8.3-.8.1-1.2.1-2 0-1-.1-1.5-.3-2.4-.7-3.8-1.3-6.5-5.3-7.2-10.2-.1-.6-.2-.9-.2-1.6 0-.8 0-1.2 0-2 0-.7 0-.8.2-1.7 0-.5.1-.9.2-1.4.5-2.1 1-3.7 1.9-5.3 1.1-2 2.5-3.9 4.4-5.5 1.4-1.2 4.6-3.2 7.9-3.6 1.4-.1 2.1-.2 3.4 0zm.8 5.8c-.2-.2-1.7-.5-3-.5-1.8.1-3.6.7-5.4 2-4.8 3.7-6.9 10.8-3.8 16.3 1.2 2.2 4.2 3.9 6.7 3.6l-.2-1.1c-2 .3-4.6-1.3-5.6-3.1-2.8-5-.8-11.5 3.6-14.7 2.2-1.8 4.4-2.3 7.1-1.6h.2z" fill-rule="evenodd"/><path d="m478.6 282.1h79.7v2.9h-79.7z"/><path d="m491.9 292.6c0 1.7-.5 3.6-2.8 4.4-1.7.7-3.7.5-5.6.5v6.2h-5v-15.9h6c1.9 0 4.7.2 6 1.4 1 .7 1.3 1.6 1.4 2.6q0 .4 0 .8zm-4.9.1c0-.3-.1-.6-.1-.9-.2-.4-.4-.8-.9-1-.5-.1-1.1-.1-1.9-.1h-.6v4c1 0 2 0 2.8-.4.5-.4.7-1.1.7-1.6z" fill-rule="evenodd"/><path d="m558.1 297.9c-.2-1-.8-1.8-1.7-2.3-1.1-.8-2.7-1.4-4.6-2.3-.9-.4-1.5-.8-1.5-1.5q0-.2 0-.4c.1-.7.7-1.1 1.7-1.1 1.2.1 1.5.8 1.6 1.5q0 .4.1.8h4.5q.1-.4 0-.8c-.2-2.6-2.4-4.3-6.3-4.3-3.7 0-6.1 1.4-6.2 4.3q0 .1 0 .2c0 1.4.5 2.3 1.4 3.1s2.2 1.5 3.8 2.1c.5.2 1 .5 1.5.7.7.4 1.3.9 1.3 1.7s-.6 1.6-1.7 1.6c-1.6 0-2-.8-2-1.7v-1.1h-4.6v1.7c0 2.1 1.9 4 6.5 4 4.1 0 6.4-1.7 6.4-4.8q0-.8-.2-1.4z" fill-rule="evenodd"/><path d="m544.3 292.6c0 1.7-.6 3.6-2.8 4.4-1.8.7-3.8.5-5.7.5v6.2h-4.9v-15.9h5.9c1.9 0 4.7.2 6.1 1.4.9.7 1.2 1.6 1.3 2.6q.1.4.1.8zm-5 .1c0-.3 0-.6-.1-.9-.1-.4-.4-.8-.9-1-.4-.1-1.1-.1-1.9-.1h-.6v4c1 0 2.1 0 2.8-.4.6-.4.7-1.1.7-1.6z" fill-rule="evenodd"/><path d="m502.1 287.8v11.9c0 .7-.4 1.5-1.7 1.5-1.4 0-1.7-.6-1.7-1.4v-12h-5v11.5c0 3.3 2.5 4.8 6.7 4.8 5.1 0 6.7-2.1 6.7-4.8v-11.5z" fill-rule="evenodd"/><path d="m528.5 287.8h-7l-2.7 9.4-2.6-9.4h-7v15.9h4.7l-.4-12.4 3.4 12.4h3.8l3.5-12.4-.5 12.4h4.8z" fill-rule="evenodd"/><path d="m545 279.3h-8.6c-.4 0-1.6.1-2.3-.5-.8-.7-.5-3.4-.6-5.4q0-.9-.3-1.6c-.6-1.1-1.8-1.9-3.2-1.9h-4.1v9.4h-14c3.2-1.1 5.5-4.2 5.5-8q0-.7-.1-1.4c-.6-3.7-2.7-5.3-4.2-7.2-.7-.9-1.3-1.8-1.6-2.9 1.5.1 2.8.6 3.9 1.5q.3-.2.7-.5c-1.3-1.1-3-1.9-4.8-2q0-.1 0-.2 0-.6.2-1.2c2.3.2 4.5 1.1 6.2 2.7q.4-.2.9-.3c-1.7-1.9-4.1-3.1-6.8-3.4q.4-.7.9-1.2c3.3.5 6 2.1 8 4.3q.4 0 .9 0c-1.7-2.4-4.2-4.2-7.2-5h21.8c4 0 7.3 2.8 7.3 6.4 0 2.8-2 5.1-4.8 6.1 2 .5 4.2 2.3 4.6 4.2q.1.3.1.6c.6 3.5-.5 6.7 1.6 7.5zm-21.3-15.1q-.1-.7-.4-1.3-.3-.1-.7-.2.3.7.5 1.3.3.1.6.2zm-1.5-2.4q.4 0 .8.1-.4-.8-.8-1.4-.4-.1-.8-.1.4.7.8 1.4zm-1.3 2q-.2-.6-.4-1.1-.4 0-.7.1.3.5.5 1.1.3-.1.6-.1zm-1.6-1.9q.3 0 .7-.1-.3-.6-.8-1.2-.4.1-.8.2.5.5.9 1.1zm-.8 2.3q-.2-.5-.5-.9-.3.1-.5.2.3.4.5.9.2-.1.5-.2zm-.9-1.7q-.4-.5-.8-1-.4.2-.6.4.4.4.8.9.2-.2.6-.3zm16.1-.5c0-2.2-1.8-4.1-4-4.1h-3.8v8.2h3.7c2.3 0 4.1-1.8 4.1-4.1z" fill-rule="evenodd"/><path d="m507 273.5c1.4 1.1 3.1 1.8 5 1.8q0 .7-.2 1.3c-2.4-.1-4.7-1-6.4-2.4q-.4.1-.9.2c1.7 1.7 4.1 2.9 6.8 3.1q-.4.6-.9 1.1c-3.3-.5-6-1.9-8-3.9q-.4 0-.9 0c1.7 2.2 4.3 3.9 7.3 4.6h-21c-2.1 0-4.1-.9-5.7-2.5-2.3-2.3-3.8-5.9-3.8-9.9 0-6.9 4.3-12.4 9.5-12.4h23.1c-3 1.2-5.1 4.2-5.1 7.8v.1h-8.4c-.8-3.3-2.4-5.5-4.2-5.5-2.7 0-4.8 4.5-4.8 10 0 5.3 2 9.7 4.6 9.9q.1 0 .2 0 .1 0 .2 0c2-.2 3.8-3.1 4.4-7h-4.8v-3.7h13.6q.4.8.8 1.4c1.2 2 4.1 4.2 4.5 6.9-1.5 0-3-.5-4.2-1.3q-.3.2-.7.4zm-1.5-2.5q-.3-.5-.5-1-.2.1-.5.2.2.5.5 1 .3-.1.5-.2zm-.9 2.4q-.4-.4-.8-.9-.3.1-.7.1.3.5.7 1 .4-.1.8-.2zm-1.3-1.7q-.3-.6-.6-1.1-.3 0-.6 0 .2.6.5 1.1.3 0 .7 0zm-1.6 2.1q-.4-.6-.8-1.2-.4 0-.8 0 .3.6.7 1.2.5 0 .9 0zm-2-2.2q.4 0 .7.1-.2-.6-.4-1.1-.3-.1-.6-.1.1.5.3 1.1zm7.2.9q-.4-.4-.8-.8-.3.1-.6.3.3.4.7.8.4-.1.7-.3z" fill-rule="evenodd"/><path d="m511.4 264c-1.4 0-2.5 1.1-2.5 2.6 0 1.4 1.1 2.6 2.5 2.6 1.5 0 2.6-1.2 2.6-2.6 0-1.5-1.1-2.6-2.6-2.6z"/><path d="m558.6 255.3q.1 0 .2.1 0 .1.1.2 0 0 0 .1 0 .2-.1.3 0 .1-.2.2.2 0 .2.1.1.1.1.3v.1q0 .2 0 .2 0 .1 0 .1v.1h-.4q0-.1 0-.1 0-.1 0-.2v-.2q0-.1-.1-.2 0-.1-.2-.1h-.4v.8h-.3v-1.9h.8q.2 0 .3.1zm-.8.2v.5h.4q.2 0 .2 0 .1 0 .1-.2 0-.2-.1-.2 0-.1-.2-.1z" fill-rule="evenodd"/><path d="m558.1 254.5c1 0 1.8.7 1.8 1.7 0 .9-.8 1.7-1.8 1.7-.9 0-1.7-.8-1.7-1.7 0-1 .8-1.7 1.7-1.7zm0 3.1c.8 0 1.4-.6 1.4-1.4s-.6-1.4-1.4-1.4c-.7 0-1.3.6-1.3 1.4s.6 1.4 1.3 1.4z" fill-rule="evenodd"/><path d="m555.9 273.6v-15.1c0-4-3.4-4-4.7-4h-8.1c2.2.7 2.3 1.6 2.3 5.7v15.1c0 4 3.4 4 4.7 4h8.1c-2.2-.8-2.3-1.7-2.3-5.7z" fill-rule="evenodd"/><path d="m478.7 312.1 1.2-5h1.3l1.2 5h-1l-.2-1h-1.3l-.3 1zm1.4-1.9h.9l-.4-2h-.1z" fill-rule="evenodd"/><path d="m487.2 311.7c-.2.3-.5.5-.9.5-.9 0-1.6-.5-1.6-1.7v-1.8c0-1.2.7-1.7 1.6-1.7q1.5 0 1.6 1.7h-1c0-.6-.2-.8-.6-.8s-.6.1-.6.7v2c0 .6.2.7.6.7s.6-.2.6-.7v-.3h-.7v-.8h1.7v2.6h-.5z"/><path d="m488.6 308.7c0-1.2.7-1.7 1.6-1.7s1.6.5 1.6 1.7v1.8c0 1.2-.7 1.7-1.6 1.7s-1.6-.5-1.6-1.7zm1 1.9c0 .6.2.7.6.7s.6-.1.6-.7v-2c0-.6-.2-.7-.6-.7s-.6.1-.6.7z" fill-rule="evenodd"/><path d="m494.8 312.1-.8-2h-.5v2h-.9v-5h1.3c1.2 0 1.8.6 1.8 1.5 0 .6-.3 1.1-.8 1.3l.9 2.2zm-1.3-2.8h.5c.5 0 .7-.2.7-.7s-.2-.7-.7-.7h-.5z" fill-rule="evenodd"/><path d="m496.5 312.1v-5h1.3l.9 3.3.9-3.3h1.3v5h-.8v-3.9l-1 3.9h-.8l-1-3.9v3.9z"/><path d="m501.5 312.1 1.2-5h1.3l1.2 5h-.9l-.3-1h-1.3l-.3 1zm1.4-1.9h.9l-.4-2z" fill-rule="evenodd"/><path d="m505.8 312.1v-5h1l1.3 3h.1v-3h.8v5h-.9l-1.5-3.2v3.2z"/><path d="m509.8 309.8h1.7v.8h-1.7z"/><path d="m514.5 312.1-.8-2h-.5v2h-.9v-5h1.4c1.1 0 1.7.6 1.7 1.5 0 .6-.3 1.1-.8 1.3l1 2.2zm-1.3-2.8h.5c.4 0 .6-.2.6-.7s-.2-.7-.6-.7h-.5z" fill-rule="evenodd"/><path d="m517.1 307.1v3.5q0 .7.7.7.7 0 .7-.7v-3.5h1v3.5c0 1.1-.7 1.6-1.7 1.6s-1.6-.5-1.6-1.6v-3.5z"/><path d="m520.4 312.1v-5h1.4c1.2 0 1.8.6 1.8 1.5s-.6 1.5-1.8 1.5h-.4v2zm1-2.8h.5q.7 0 .7-.7 0-.7-.7-.7h-.5z" fill-rule="evenodd"/><path d="m524.3 312.1v-5h1.4c1.2 0 1.8.6 1.8 1.5s-.6 1.5-1.8 1.5h-.4v2zm.9-2.8h.5q.7 0 .8-.7-.1-.7-.8-.7h-.5z" fill-rule="evenodd"/><path d="m530.9 310.6c0 .6.3.7.7.7.3 0 .6-.1.6-.7v-.3h.9v.2c0 1.2-.6 1.7-1.5 1.7-1 0-1.6-.5-1.6-1.7v-1.8c0-1.2.6-1.7 1.6-1.7.9 0 1.5.5 1.5 1.7h-.9v-.1c0-.6-.3-.7-.6-.7-.4 0-.7.1-.7.7z"/><path d="m533.8 308.7c0-1.2.7-1.7 1.6-1.7 1 0 1.6.5 1.6 1.7v1.8c0 1.2-.6 1.7-1.6 1.7-.9 0-1.6-.5-1.6-1.7zm1 1.9c0 .6.2.7.6.7s.6-.1.6-.7v-2c0-.6-.2-.7-.6-.7s-.6.1-.6.7z" fill-rule="evenodd"/><path d="m537.8 312.1v-5h1.4l.9 3.3.8-3.3h1.4v5h-.8v-3.9h-.1l-1 3.9h-.7l-1-3.9v3.9z"/><path d="m543.3 312.1v-5h1.3c1.2 0 1.8.6 1.8 1.5s-.6 1.5-1.8 1.5h-.4v2zm1-2.8h.5q.7 0 .7-.7 0-.7-.7-.7h-.5z" fill-rule="evenodd"/><path d="m546.5 312.1 1.2-5h1.2l1.3 5h-1l-.2-1h-1.3l-.3 1zm1.4-1.9h.9l-.4-2h-.1z" fill-rule="evenodd"/><path d="m550.7 312.1v-5h1.1l1.3 3v-3h.9v5h-.9l-1.5-3.2v3.2z"/><path d="m556.4 309.1.9-2h1l-1.4 3v2h-.9v-2l-1.4-3h1z"/><path d="m190.9 287.4v3.7c0 2.2-1.8 4-4 4h-3.1l-16.5-15.3v-4.1c0-2.2 1.8-4 4-4h3.1z" stroke="#fff"/><path d="m203.8 271.7v23.4h-6.5c-2.2 0-4.1-1.8-4.1-4v-15.4c0-2.2 1.9-4 4.1-4z" stroke="#fff"/><path d="m216.9 275.7v5.7h-11v-9.7h7c2.2 0 4 1.8 4 4z" stroke="#fff"/><path d="m216.9 285.3v5.8c0 2.2-1.8 4-4 4h-7v-9.8z" stroke="#fff"/><path d="m273.6 295.1h-14.4v-23.4h7c2.2 0 4 1.8 4 4v5.6c0 3-2.4 2.7-2.4 2.7h-5.6l8 7.7z" stroke="#fff"/><path d="m284.7 271.7v23.4h-6.4c-2.2 0-4-1.8-4-4v-15.4c0-2.2 1.8-4 4-4z" stroke="#fff"/><path d="m298 275.7v15.4c0 2.2-1.8 4-4.1 4h-6.8v-23.4h6.8c2.3 0 4.1 1.8 4.1 4z" stroke="#fff"/><path d="m244.2 271.7v23.4h-11.6v-10.4h-2.4v10.4h-11.1v-23.4h11.1v10.6h2.4v-10.6z" stroke="#fff"/><path d="m180.2 295.1h-8.9c-2.2 0-4-1.8-4-4v-7.7z" stroke="#fff"/><path d="m190.9 275.7v7.7l-12.5-11.7h8.5c2.2 0 4 1.8 4 4z" stroke="#fff"/><path d="m257.5 271.7h-11v23.4h11z" stroke="#fff"/><path d="m353.6 271.7v23.4h-11.6v-10.4h-2.4v10.4h-11.1v-23.4h11.1v10.6h2.4v-10.6z" stroke="#fff"/><path d="m325.6 271.7v14.3l-.8-1.2-5.7-9.7v20h-12v-20l-5.9 10-.6.9v-14.3z" stroke="#fff"/><path d="m361.2 275.8 1.2 2.2h-1.1l-1.2-2h-.9v2h-1v-4.9h2.2q1.7 0 1.7 1.4 0 1.1-.9 1.3zm-2-.8h1.4q.6 0 .6-.5 0-.5-.6-.5h-1.4z" fill-rule="evenodd"/><path d="m364.3 275.7c0 2.3-1.8 4.1-4.1 4.1-2.2 0-4.1-1.8-4.1-4.1 0-2.2 1.9-4.1 4.1-4.1 2.3 0 4.1 1.9 4.1 4.1zm-1 0q0-.6-.2-1.1c-.5-1.2-1.6-2-2.9-2-1.7 0-3.1 1.4-3.1 3.1s1.4 3.1 3.1 3.1 3.1-1.4 3.1-3.1z" fill-rule="evenodd"/><path d="m1118.4 282.2-.3-4.1h10.3l.1 2.9c1.3-1.4 3.4-3.3 9.1-3.3 10 0 10 5.3 10 7.9v11.6h-10.2v-11c0-1.3 0-4-4.2-4-4.6 0-4.6 3.4-4.6 4v11h-10.2"/><path d="m1162.1 277c8.1 0 14.4 3.1 14.4 9.8 0 2.8-1.1 5.6-3.7 7.6-2.1 1.5-5.1 2.7-10.3 2.7-5.5 0-9-1-11.5-2.8-2.8-2.1-3.5-5-3.5-7.3 0-5.8 4.7-10 14.6-10zm-3.7 14.6c1.1 1.4 2.7 1.5 3.6 1.5 4.1 0 4.9-3.4 4.9-6 0-3.3-1.1-6.1-4.8-6.1-4.1 0-4.9 3.2-4.9 6.1 0 1.2.1 3.1 1.2 4.5z" fill-rule="evenodd"/><path d="m1176 282.1-.3-4h9.7l.2 3.9c2.3-4.2 7.1-4.1 9.4-4.1v6.1c-1.2 0-1.5-.1-2.2-.1-6 0-6.9 3.1-6.9 5.2v8h-9.9"/><path d="m1201.6 288.8c0 1 0 4.6 5.3 4.6 2.7 0 4.4-1 4.7-2.8h9.6c-.7 4.8-7.3 6.6-14.4 6.6-9.6 0-14.8-3.3-14.8-9.6s4.5-10.5 14.7-10.5c7.7 0 11.3 2.2 13.2 4.9 1.2 1.6 1.5 3.4 1.5 6.8m-9.8-3.9c-.1-1.1-.4-4-4.9-4s-4.9 3-5 4z" fill-rule="evenodd"/><path d="m1221.2 269.5h10.3v27.4h-10.3z"/><path d="m1240.6 288.5c0 1.1 0 4.7 5.3 4.7 2.8 0 4.5-1 4.8-2.8h9.6c-.8 4.8-7.3 6.6-14.5 6.6-9.6 0-14.8-3.3-14.8-9.6s4.5-10.5 14.7-10.5c7.7 0 11.3 2.2 13.2 4.8 1.2 1.7 1.5 3.5 1.5 6.8m-9.7-3.8c-.1-1.1-.5-4-5-4s-4.9 3.1-5 4z" fill-rule="evenodd"/><path d="m1260.1 282.3c0-.5-.2-3.8-.2-4.4h9.6l.1 3.2c1.9-2.5 4.9-3.6 8.8-3.6 1.5 0 6.5.2 8.2 3.5 2.5-2.9 6.5-3.5 9.2-3.5 4.9 0 7.2 1.8 8.2 2.9 1.4 1.6 1.4 4 1.4 6.2v10.4h-9.7v-10.8c0-1.9 0-4.2-3.9-4.2-1.3 0-2.8.3-3.7 1.6-.3.4-.5 1-.5 2.6v10.7h-9.7v-10.8c0-1.7 0-4.1-3.9-4.1-3.3 0-4.2 2-4.2 4.1v10.8h-9.7"/></g></svg>