<svg fill="none" height="50" viewBox="0 0 72 50" width="72" xmlns="http://www.w3.org/2000/svg"><g fill="#525252"><path d="m20.4605 17.2484c.0148-.2295-.0623-.4557-.2141-.6284l-6.8713-7.8174c-.1518-.17272-.3661-.27805-.5958-.29289-.2307-.01471-.4557.06225-.6284.21406-3.1574 2.77543-5.77817 6.04853-7.78994 9.72833-.11024.2019-.13605.4393-.07135.6599.06469.2208.2144.4068.41632.517l9.13277 4.9921c.1321.0723.2747.1065.4154.1065.3068 0 .6042-.1632.7617-.4514 1.3297-2.4323 3.0631-4.5964 5.1517-6.4323.173-.1515.2784-.3658.293-.5955z"/><path d="m23.5268 14.3529c.1558.2937.4563.4611.767.4611.1371 0 .2762-.0326.4056-.1013 2.4479-1.2982 5.0813-2.1454 7.8272-2.5179.4746-.0643.8073-.5013.7429-.976l-1.3989-10.313563c-.0643-.474594-.5026-.8068323-.976-.742954-4.17.565565-8.1687 1.851777-11.885 3.822907-.4231.22445-.5841.74926-.3599 1.17259z"/><path d="m12.3536 28.3108-10.0451-2.7254c-.22199-.06-.45882-.0298-.6584.0847-.19958.1144-.34544.3034-.40581.5254-.825517 3.0437-1.24429 6.1984-1.24429 9.3764 0 .5439.0129626 1.0895.0399387 1.6681.0216043.4649.4049923.8272.8658063.8272.013546 0 .027326-.0003.040873-.001l10.396982-.4803c.2298-.0105.4461-.1121.6009-.282.1549-.1699.2361-.3947.2254-.6244-.0181-.3902-.0269-.7525-.0269-1.1076 0-2.1043.2762-4.1892.8209-6.197.125-.4622-.1481-.9386-.6103-1.0641z"/><path d="m51.2348 3.36593c-3.785-1.82468-7.829-2.955463-12.0196-3.36162392-.2303-.02312238-.4576.04764582-.6352.19373792-.1776.146208-.2897.356879-.3119.586002l-1.0035 10.359754c-.0462.4767.3029.9007.7797.9469 2.7621.2675 5.426 1.0123 7.9177 2.2134.1186.0572.2474.0862.3766.0862.0965 0 .1932-.0162.2862-.0486.217-.0758.3953-.2349.4951-.4421l4.5194-9.37591c.2082-.43139.0271-.94989-.4045-1.15776z"/><path d="m66.5229 17.9162c.056-.2232.0214-.4592-.0967-.6568-2.1525-3.6009-4.897-6.7712-8.1569-9.42249-.1785-.14504-.4064-.21301-.6361-.19-.2287.02371-.4388.1371-.5839.31554l-6.5673 8.07465c-.1451.1785-.2135.4073-.1898.6361.0235.2287.137.4388.3155.5841 2.157 1.7539 3.9723 3.8508 5.3959 6.2324.1625.2717.4501.4225.7454.4225.1514 0 .3048-.0397.4441-.123l8.9338-5.3402c.1972-.118.3397-.3097.396-.5328z"/><path d="m69.8395 24.8759c-.1434-.4572-.6302-.7119-1.0869-.5684l-9.9319 3.112c-.4572.1432-.7116.6298-.5684 1.0867.7128 2.2756 1.0743 4.6524 1.0743 7.0645 0 .3552-.0089.7175-.0269 1.1076-.0107.2297.0703.4545.2254.6244.1549.17.3711.2715.6008.282l10.397.4803c.0138.0006.0274.001.0409.001.4606 0 .8441-.3624.8658-.8272.0268-.5786.04-1.1242.04-1.6681-.0003-3.6451-.5484-7.2434-1.6301-10.6948z"/><path d="m35.704 33.73c-.1496 0-.2984.0049-.4466.0128l-14.0895-8.3129c-.3448-.2038-.7826-.1528-1.0716.1243-.2891.2769-.3585.7123-.17 1.0652l7.6859 14.4054c-.0283.2774-.0433.5576-.0433.8402 0 2.173.8461 4.2159 2.3826 5.7523 1.5366 1.5366 3.5796 2.3828 5.7526 2.3828s4.2159-.8464 5.7523-2.3828c1.5366-1.5364 2.3827-3.5793 2.3827-5.7523 0-2.1731-.8462-4.2159-2.3827-5.7524-1.5364-1.5364-3.5795-2.3826-5.7524-2.3826z"/></g></svg>