<svg fill="none" height="50" viewBox="0 0 50 50" width="50" xmlns="http://www.w3.org/2000/svg"><g fill="#525252"><path d="m25.0001 0c-13.7851 0-25.0001 11.2149-25.0001 24.9999 0 13.7851 11.215 24.9999 25.0001 24.9999 13.7849 0 24.9999-11.2148 24.9999-24.9999 0-13.785-11.2152-24.9999-24.9999-24.9999zm0 42.756c-9.8066 0-17.75625-7.9495-17.75625-17.7561s7.94965-17.75605 17.75625-17.75605c9.8062 0 17.756 7.94945 17.756 17.75605s-7.95 17.7561-17.756 17.7561z"/><path d="m25.0001 9.5426c-8.5234 0-15.4575 6.9341-15.4575 15.4573 0 8.5233 6.9343 15.4574 15.4575 15.4574 8.5233 0 15.4574-6.9341 15.4574-15.4574 0-8.5232-6.9343-15.4573-15.4574-15.4573zm13.4778 14.4718h-7.5c-.1532-.9478-.5276-1.822-1.0676-2.5692l5.2948-5.2948c1.8587 2.1404 3.0554 4.8677 3.2728 7.864zm-12.508-12.4937c2.9945.2136 5.7209 1.4057 7.8625 3.2591l-5.2936 5.2939c-.7473-.5399-1.6212-.9141-2.5689-1.0673zm-1.9398 0v7.4855c-.9476.1532-1.8218.5274-2.569 1.0675l-5.2938-5.2937c2.1416-1.8534 4.8683-3.0457 7.8628-3.2593zm-9.2357 4.6299 5.295 5.2948c-.54.747-.9143 1.6212-1.0675 2.5688h-7.5c.2175-2.9961 1.4142-5.7232 3.2725-7.8636zm-3.2746 9.8034h7.5023c.153.9476.5275 1.8218 1.0675 2.569l-5.3096 5.3096c-1.8567-2.1455-3.0499-4.878-3.2602-7.8786zm12.5103 12.5251c-3.0025-.2141-5.7354-1.412-7.8797-3.2738l5.3107-5.3107c.7472.54 1.6214.9142 2.569 1.0674zm0-9.5125v.0142c-.4186-.1018-.8115-.2672-1.1694-.486l.0093-.0093c-.5599-.3414-1.0302-.8117-1.3716-1.3717l-.009.009c-.2188-.3579-.3842-.7506-.486-1.1692h.0139c-.0756-.3113-.12-.635-.12-.9698 0-.3347.0446-.6584.12-.9698h-.0139c.1018-.4184.267-.8111.486-1.169l.009.009c.3414-.5598.8119-1.0303 1.3716-1.3715l-.0093-.0092c.3579-.2189.7508-.3845 1.1694-.486v.0141c.3116-.0756.6351-.1202.97-.1202.335 0 .6585.0446.97.1202v-.0141c.4186.1017.8113.2669 1.169.4858l-.0092.0092c.5601.3412 1.0303.8117 1.3717 1.3715l.0091-.009c.219.3579.3844.7508.4862 1.1694h-.014c.0756.3114.12.6351.12.9698s-.0446.6585-.12.9698h.014c-.1018.4186-.267.8115-.4862 1.1694l-.0091-.009c-.3414.5598-.8118 1.0301-1.3717 1.3715l.0092.0091c-.3577.2188-.7504.3842-1.169.486v-.0142c-.3115.0756-.635.1202-.97.1202-.3349 0-.6584-.0444-.97-.1202zm1.9398 9.5125v-7.5171c.9477-.1532 1.8216-.5274 2.5689-1.0672l5.3105 5.3105c-2.1441 1.8618-4.877 3.0597-7.8794 3.2738zm9.2499-4.6465-5.3093-5.3094c.54-.7472.9142-1.6214 1.0676-2.5692h7.5022c-.2106 3.0006-1.4035 5.7331-3.2605 7.8786z"/></g></svg>