<svg fill="none" height="52" viewBox="0 0 50 52" width="50" xmlns="http://www.w3.org/2000/svg" xmlns:xlink="http://www.w3.org/1999/xlink"><clipPath id="a"><path d="m0 0h50v51.5771h-50z"/></clipPath><g clip-path="url(#a)" fill="#525252"><path d="m7 38h-6v13h6z"/><path d="m17.9076 34h-6.585v17.183h6.585z"/><path d="m28.2895 25h-6.5849v26.2026h6.5849z"/><path d="m38.7925 30h-6.585v20.937h6.585z"/><path d="m49.2344 16h-6.585v35.1631h6.585z"/><path clip-rule="evenodd" d="m45.9419 5.02165c1.1417 0 2.0673-.92558 2.0673-2.06734 0-1.14177-.9256-2.067347-2.0673-2.067347-1.1418 0-2.0674.925577-2.0674 2.067347 0 .46522.1537.89455.413 1.24l-8.2085 11.85429c-.1837-.0534-.378-.0821-.5789-.0821-.5312 0-1.0156.2003-1.3818.5296l-7.0927-4.031c.0254-.1295.0388-.2634.0388-.4004 0-1.1418-.9256-2.06739-2.0674-2.06739-1.1417 0-2.0673.92559-2.0673 2.06739 0 .1717.0209.3386.0604.4982l-17.62619 11.179c-.35601-.2904-.81059-.4646-1.30584-.4646-1.14177 0-2.06735.9256-2.06735 2.0674 0 1.1417.92558 2.0673 2.06735 2.0673 1.14176 0 2.06734-.9256 2.06734-2.0673 0-.1718-.02095-.3387-.06044-.4982l17.62623-11.1791c.356.2904.8106.4646 1.3058.4646.5313 0 1.0157-.2004 1.3819-.5297l7.0926 4.031c-.0254.1296-.0388.2635-.0388.4005 0 1.1418.9256 2.0674 2.0674 2.0674 1.1417 0 2.0673-.9256 2.0673-2.0674 0-.4652-.1537-.8946-.4131-1.2401l8.2085-11.85423c.1838.05349.3781.08218.5791.08218z" fill-rule="evenodd"/></g></svg>