<svg fill="none" height="50" viewBox="0 0 50 50" width="50" xmlns="http://www.w3.org/2000/svg" xmlns:xlink="http://www.w3.org/1999/xlink"><clipPath id="a"><path d="m0 0h50v50h-50z"/></clipPath><g clip-path="url(#a)"><path clip-rule="evenodd" d="m30.7821 45.1159h-30.7821v-45.1159h45.2554v30.8926c-.4141-.2594-.8447-.4882-1.2882-.6855 1.0483.5031 2.0054 1.1795 2.83 2.0016.9616.9585 1.7243 2.0965 2.2446 3.3489.5204 1.2524.7882 2.5947.7882 3.9503 0 2.0416-.6072 4.0374-1.745 5.735-1.1378 1.6975-2.755 3.0206-4.647 3.8019-1.8921.7813-3.974.9857-5.9826.5874s-3.8536-1.3814-5.3017-2.825c-.5183-.5167-.9774-1.084-1.3716-1.6913zm-1.6612-35.82304c0 .13338-.0532.26131-.1478.35563s-.2229.14731-.3567.14731h-11.9774c-.1338 0-.2621-.05299-.3567-.14731s-.1478-.22224-.1478-.35563v-3.30955c0-.13339.0532-.26132.1478-.35564s.2229-.14731.3567-.14731h11.9774c.0662 0 .1318.01301.193.03828.0612.02528.1169.06233.1637.10903s.084.10215.1094.16317c.0253.06102.0384.12642.0384.19247zm7.0004 27.98464c.023-.7096.2865-1.3905.7475-1.9317.461-.5411 1.0923-.9106 1.791-1.0481l-.0164-.6738c-.0033-.1054.0144-.2105.052-.3091s.0944-.1888.1671-.2654c.0728-.0766.16-.1381.2567-.181s.2009-.0662.3067-.0687c.1058-.0026.211.0158.3096.054.0987.0383.1887.0955.2651.1686.0763.0731.1373.1605.1796.2572s.065.2008.0667.3063l.0177.732c.8426.1766 1.5996.6347 2.1454 1.2986.116.1772.1568.393.1135.6002-.0434.2071-.1673.3887-.3447.5048-.1774.1162-.3938.1575-.6017.115-.2079-.0426-.3904-.1656-.5075-.3421-.4407-.3987-1.0012-.6412-1.5943-.6898-.215-.0366-.4355-.0259-.6459.0312-.2105.0572-.4059.1595-.5726.2997-.1668.1402-.3008.3151-.3927.5123s-.1395.4121-.1395.6295c0 .2175.0476.4323.1395.6296.0919.1972.2259.372.3927.5123.1667.1402.3621.2425.5726.2996.2104.0572.4309.0678.6459.0313.8528-.0337 1.6843.2705 2.3128.8462.6286.5756 1.003 1.3758 1.0415 2.2258-.0227.7093-.2859 1.3901-.7466 1.9312-.4607.541-1.0917.9105-1.7901 1.0481l.0143.5909c.0051.2119-.0744.4172-.2211.5707-.1467.1534-.3486.2425-.5611.2477h-.0194c-.2093-.0001-.4102-.0818-.56-.2276-.1498-.1457-.2364-.3441-.2416-.5527l-.0151-.6143c-.729-.1795-1.3893-.5679-1.8995-1.1172-.0766-.072-.1382-.1584-.1813-.2541-.0432-.0958-.0669-.1991-.07-.3041-.0031-.1049.0146-.2094.052-.3076.0375-.0981.0939-.1879.1662-.2643.0722-.0764.1589-.1378.255-.1808.096-.043.1997-.0667.3049-.0698.1053-.0031.2102.0146.3086.0519s.1885.0936.2651.1656c.1896.2377.4307.4293.7052.5607s.5754.199.8799.1978c.215.0366.4354.026.6459-.0311.2105-.0572.4059-.1594.5727-.2997.1667-.1402.3007-.315.3926-.5122s.1396-.4121.1396-.6296c0-.2174-.0477-.4323-.1396-.6295s-.2259-.372-.3926-.5123c-.1668-.1402-.3622-.2424-.5727-.2996-.2105-.0571-.4309-.0677-.6459-.0311-.8527.0336-1.684-.2706-2.3123-.8462-.6284-.5755-1.0029-1.3755-1.0414-2.2253zm-1.4747 9.435c1.4293.9522 3.1098 1.4603 4.8288 1.4604 1.1414 0 2.2717-.2242 3.3262-.6596 1.0545-.4355 2.0127-1.0737 2.8198-1.8783.8071-.8047 1.4473-1.7599 1.8841-2.8112.4368-1.0512.6617-2.178.6617-3.3159-.0001-1.7137-.5098-3.389-1.4649-4.814-.955-1.4249-2.3125-2.5355-3.9007-3.1913-1.5882-.6559-3.3358-.8275-5.0218-.4931-1.6861.3343-3.2348 1.1596-4.4503 2.3714-1.2156 1.2118-2.0434 2.7557-2.3788 4.4366-.3354 1.6808-.1632 3.423.4946 5.0063.6579 1.5834 1.7719 2.9366 3.2013 3.8887z" fill="#525252" fill-rule="evenodd"/></g></svg>