<svg fill="none" height="28" viewBox="0 0 50 28" width="50" xmlns="http://www.w3.org/2000/svg"><path d="m45.4969 24.7909v-3.9h1.4392c1.6897 0 3.0639-1.3747 3.0639-3.0639l-.0004-7.7992c0-1.68935-1.3739-3.0643-3.0639-3.0643h-1.4392l.0004-3.89958c0-1.6886-1.375-3.06392-3.065-3.06392h-39.36798c-1.68973 0-3.06392 1.37504-3.06392 3.06392v21.72728c0 1.6886 1.37391 3.064 3.06392 3.064h39.36798c1.6897 0 3.065-1.3751 3.065-3.064zm-42.43364.2781c-.15347 0-.27891-.1247-.27891-.2781l.00037-21.72735c0-.15274.12544-.27818.27891-.27818h39.36797c.1538 0 .2789.12544.2789.27818v21.72735c0 .1534-.1247.2781-.2789.2781zm1.32338-20.42676v18.66256h36.49016v-18.66256z" fill="#525252"/></svg>