<svg width="447" height="372" viewBox="0 0 447 372" fill="none" xmlns="http://www.w3.org/2000/svg">
<mask id="mask0_690_249" style="mask-type:luminance" maskUnits="userSpaceOnUse" x="0" y="0" width="447" height="372">
<path d="M1.91153 370.088V1.91153H444.488V370.088H1.91153Z" fill="white" stroke="white" stroke-width="3.82306"/>
</mask>
<g mask="url(#mask0_690_249)">
<mask id="path-2-inside-1_690_249" fill="white">
<path d="M254.897 371.922C213.902 371.922 172.907 371.739 131.914 371.996C111.109 371.978 90.6196 366.842 72.1939 357.031C50.5782 345.868 32.6636 328.508 20.6708 307.102C12.2564 292.453 6.20886 276.529 2.75825 259.935C0.876359 250.962 -0.0477634 241.81 0.00189989 232.635C0.0552986 184.249 -0.0130386 135.861 0.0467155 87.4751C-0.151663 67.9224 4.46126 48.6289 13.4668 31.3459C18.6596 20.5179 27.2178 11.7272 37.82 6.33106C47.3597 1.81455 57.8154 -0.348415 68.3345 0.0184926C78.3281 0.125931 88.175 2.47306 97.1719 6.89227C106.337 11.6902 113.997 18.998 119.285 27.9885C126.378 39.541 131.202 52.3787 133.491 65.7933C134.794 73.2618 135.402 80.8383 135.306 88.4225C135.267 113.233 135.209 138.045 135.32 162.854C135.336 178.928 139.483 194.72 147.349 208.667C148.401 210.493 149.6 212.228 150.932 213.855C152.234 215.767 154.173 217.138 156.39 217.716C158.608 218.295 160.957 218.042 163.006 217.004C166.23 215.788 169.073 213.715 171.237 211C182.8 196.888 192.6 181.375 200.411 164.817C204.668 154.582 210.08 144.883 216.538 135.914C220.889 130.277 225.536 124.882 230.46 119.754C236.889 113.187 245.236 108.908 254.256 107.555C270.616 104.458 287.522 107.858 301.486 117.052C308.7 122.011 314.922 128.318 319.82 135.635C329.495 148.634 336.228 163.64 339.538 179.584C343.413 198.298 353.008 215.291 366.955 228.14C370.593 231.495 374.527 234.505 378.707 237.13C386.394 242.262 394.422 246.878 402.011 252.148C419.876 264.002 433.849 281.003 442.143 300.973C445.666 309.09 447.013 318.009 446.047 326.827C444.634 337.61 439.37 347.49 431.252 354.589C421.127 363.71 408.476 369.433 395.027 370.976C390.321 371.601 385.578 371.903 380.831 371.883C338.854 371.95 296.875 371.963 254.897 371.922ZM254.972 332.395C296.605 332.395 338.239 332.394 379.874 332.393C381.67 332.393 383.469 332.454 385.258 332.343C391.484 332.207 397.564 330.4 402.88 327.104C407.639 323.95 408.436 321.797 406.41 316.47C402.026 305.243 394.618 295.499 385.035 288.349C378.978 283.66 372.271 279.844 365.916 275.546C358.937 270.827 351.693 266.43 345.158 261.137C332.811 250.848 322.509 238.265 314.802 224.06C308.959 214.088 304.797 203.193 302.488 191.829C300.104 179.318 294.957 167.519 287.436 157.319C284.765 153.368 281.082 150.232 276.786 148.25C272.489 146.268 267.74 145.515 263.053 146.072C260.489 146.206 258.067 147.308 256.263 149.164C251.255 154.155 246.944 159.819 243.45 165.999C240.167 171.922 237.505 178.198 234.522 184.294C226.12 201.069 216.148 216.985 204.745 231.82C199.085 239.832 191.694 246.421 183.139 251.085C175.857 255.249 167.652 257.465 159.295 257.522C150.938 257.581 142.704 255.479 135.367 251.416C126.892 246.547 119.897 239.409 115.144 230.781C102.876 210.392 96.4103 186.95 96.4656 163.056C96.3746 137.303 96.4924 111.549 96.4255 85.7964C96.6085 72.7191 93.09 59.8635 86.288 48.7584C84.4321 45.3901 81.4779 42.7844 77.9342 41.3898C73.2839 39.6924 68.3164 39.0829 63.4019 39.6068C60.4596 39.5556 57.5579 40.3074 54.9994 41.7838C52.4409 43.2602 50.3195 45.4071 48.8567 48.0003C48.3069 49.0996 47.6315 50.1349 47.0943 51.2401C41.5718 62.6875 38.7591 75.287 38.8804 88.034C38.9041 135.013 39.0542 181.994 38.7934 228.971C38.7493 243.633 41.5039 258.164 46.9049 271.762C51.9676 285.14 59.7542 297.284 69.7553 307.398C77.5336 314.916 86.6344 320.883 96.5835 324.987C107.623 329.943 119.562 332.492 131.632 332.469C172.745 332.274 213.858 332.395 254.972 332.395ZM222.105 173.956C221.81 173.653 221.481 173.388 221.123 173.167C219.602 172.454 218.038 171.833 216.526 171.104C215.502 170.611 214.951 170.906 214.497 171.914C213.683 173.86 212.762 175.758 211.739 177.599C206.745 186.053 201.701 194.475 196.604 202.866C195.907 204.012 195.814 204.643 197.056 205.361C198.353 206.134 199.598 206.993 200.783 207.933C201.668 208.617 202.258 208.586 202.903 207.613C209.951 197.35 216.186 186.537 221.549 175.272C221.718 174.902 221.867 174.521 222.105 173.956ZM157.836 241.693C162.586 241.682 167.296 240.795 171.735 239.075C172.839 238.624 173.207 238.153 172.621 236.993C171.964 235.684 171.39 234.333 170.905 232.95C170.427 231.597 169.806 231.409 168.424 231.884C163.608 233.96 158.268 234.433 153.17 233.235C148.073 232.037 143.481 229.229 140.054 225.214C139.255 224.328 138.667 224.436 137.884 225.14C136.757 226.151 135.616 227.156 134.408 228.064C133.282 228.91 133.366 229.591 134.264 230.607C137.19 234.052 140.806 236.824 144.871 238.735C148.936 240.647 153.357 241.655 157.836 241.693ZM16.3896 73.7043C16.2942 75.339 16.3748 75.4554 17.7615 75.6397C19.139 75.8227 20.5368 75.8846 21.8984 76.1466C23.4326 76.4418 24.0057 75.9602 24.2308 74.33C25.5917 63.5246 28.7759 53.0382 33.6437 43.3312C35.2682 40.1673 35.313 40.1189 32.3589 38.3126C28.2531 35.802 29.0659 35.3391 26.7173 39.8083C21.3483 50.4062 17.8527 61.879 16.3896 73.7043ZM266.168 122.138C263.717 122.358 261.643 122.511 259.575 122.734C255.305 123.167 251.162 124.459 247.389 126.536C243.615 128.613 240.288 131.434 237.599 134.831C237.468 135.098 237.407 135.394 237.419 135.691C237.432 135.988 237.518 136.278 237.672 136.532C238.807 137.774 240.153 138.816 241.337 140.018C242.154 140.848 242.768 140.78 243.479 139.928C244 139.304 244.62 138.766 245.172 138.165C248.608 134.374 253.177 131.839 258.173 130.952C262.959 130.041 267.863 129.988 272.666 130.796C273.955 131.012 274.61 130.76 274.787 129.345C274.977 127.836 275.326 126.345 275.656 124.859C275.901 123.758 275.56 123.208 274.419 123.088C271.549 122.787 268.683 122.431 266.168 122.138ZM425.612 301.998C425.378 301.406 425.106 300.829 424.8 300.273C421.897 295.277 418.722 290.452 415.289 285.817C411.071 280.645 406.101 276.107 401.458 271.293C400.505 270.305 399.738 270.407 398.953 271.57C398.17 272.732 397.303 273.835 396.36 274.869C395.373 275.946 395.529 276.643 396.631 277.561C401.692 281.676 406.204 286.442 410.055 291.737C412.918 295.773 415.422 300.07 418.069 304.262C418.506 304.953 418.766 305.819 419.877 305.256C421.531 304.417 423.214 303.639 424.862 302.789C425.173 302.63 425.376 302.255 425.612 301.998ZM366.58 248.341C366.164 247.948 365.784 247.559 365.373 247.21C361.684 244.388 358.152 241.358 354.797 238.135C350.101 233.139 345.862 227.697 341.504 222.381C340.656 221.346 340.058 220.877 338.87 221.85C337.683 222.788 336.44 223.65 335.149 224.432C334.166 225.052 334.166 225.655 334.807 226.566C341.566 236.479 349.841 245.235 359.318 252.5C362.406 254.802 362.445 254.748 364.559 251.474C365.192 250.496 365.823 249.514 366.58 248.341ZM324.882 185.382C324.797 184.724 324.786 184.488 324.735 184.259C321.963 171.692 317.002 159.73 310.088 148.934C309.55 148.087 308.991 148.062 308.231 148.608C306.91 149.555 305.588 150.507 304.21 151.364C303.175 152.008 303.142 152.63 303.762 153.646C305.344 156.237 306.916 158.844 308.312 161.539C312.33 169.15 315.268 177.299 317.038 185.746C317.299 187.031 317.811 187.553 319.17 187.175C320.67 186.757 322.235 186.585 323.744 186.193C324.172 186.001 324.559 185.726 324.882 185.382ZM68.9243 15.8282C68.14 15.8282 67.4979 15.8821 66.8676 15.8176C65.341 15.6615 64.7439 16.2962 64.9319 17.8546C65.0652 18.9591 65.0302 20.0849 65.0802 21.2007C65.1893 23.6337 65.1938 23.586 67.6438 23.6897C73.0152 23.4435 78.3731 24.4152 83.3285 26.5344C88.284 28.6535 92.7123 31.8668 96.2924 35.941C96.5469 36.0874 96.8335 36.1673 97.1263 36.1735C97.4183 36.1797 97.7084 36.112 97.9682 35.9764C99.3583 35.0293 100.606 33.8718 101.952 32.8545C102.803 32.2119 102.895 31.5895 102.141 30.8404C100.153 28.6341 98.0334 26.5532 95.7943 24.6094C87.9368 18.952 78.5559 15.8864 68.9243 15.8282ZM104.118 352.918C104.742 350.573 105.159 348.69 105.757 346.867C106.186 345.554 105.853 345.043 104.554 344.614C100.221 343.355 95.9666 341.826 91.8168 340.039C85.4421 337.012 79.2802 333.517 73.0828 330.118C71.9061 329.472 71.2705 329.462 70.5973 330.67C69.9563 331.855 69.2152 332.981 68.3822 334.035C67.3173 335.347 67.6567 336.058 68.9891 336.909C75.6266 341.203 82.6451 344.856 89.9527 347.823C94.5122 349.641 99.1878 351.157 104.118 352.918ZM119.811 92.8935L120.173 92.8696C119.745 86.0235 119.289 79.1787 118.908 72.3294C118.823 70.8034 118.206 70.4078 116.81 70.7192C115.511 71.0093 114.194 71.2139 112.869 71.3317C111.369 71.4643 111.01 72.1626 111.137 73.6569C111.529 78.2709 111.916 82.8964 112.008 87.5234C112.149 94.7429 112.072 101.969 112.024 109.191C112.015 110.539 112.403 111.128 113.791 111.038C115.177 110.949 116.566 110.949 117.953 111.038C119.396 111.131 119.854 110.548 119.836 109.099C119.772 103.698 119.811 98.2955 119.811 92.8935ZM385.669 356.42C390.442 355.582 395.267 354.968 399.977 353.852C406.874 352.205 413.331 349.037 418.887 344.571C419.998 343.688 420.22 343.005 419.136 341.926C418.024 340.821 417.123 339.493 415.995 338.406C415.753 338.236 415.473 338.13 415.18 338.099C414.887 338.067 414.592 338.111 414.32 338.227C405.615 344.806 395.026 348.305 384.175 348.19C380.832 348.287 381.006 347.737 381.005 351.441C381.005 356.148 381.005 356.148 385.669 356.42ZM28.3447 267.133C26.3983 267.729 24.8692 268.307 23.2907 268.651C21.5595 269.028 21.3668 269.918 21.9677 271.417C24.2782 277.181 26.2736 283.095 28.8997 288.705C31.5009 294.262 34.735 299.513 37.6562 304.918C38.33 306.164 39.0321 306.259 40.1087 305.399C41.1951 304.519 42.3481 303.726 43.5572 303.03C44.8854 302.278 44.7133 301.547 44.0459 300.357C41.0995 295.104 38.0115 289.908 35.4651 284.456C33.0677 279.321 31.2934 273.888 29.2184 268.597C28.9711 268.083 28.6787 267.594 28.3447 267.133ZM119.841 162.964C119.841 158.9 119.802 155.845 119.861 152.789C119.885 151.521 119.478 150.947 118.171 151.012C116.727 151.097 115.278 151.095 113.833 151.005C112.416 150.905 112.053 151.525 112.072 152.858C112.14 157.735 112.037 162.615 112.159 167.49C112.44 175.067 113.487 182.596 115.284 189.956C115.612 191.375 116.241 191.64 117.479 191.255C118.683 190.834 119.918 190.51 121.172 190.285C122.901 190.037 123.142 189.214 122.751 187.615C120.702 179.567 119.723 171.277 119.841 162.964ZM15.6293 215.878C15.6293 221.926 15.6652 227.974 15.6031 234.021C15.5881 235.478 16.0623 236.045 17.4986 235.944C18.7679 235.849 20.0426 235.85 21.3119 235.947C22.9033 236.078 23.4368 235.468 23.4198 233.837C23.3493 227.086 23.3908 220.334 23.3908 213.582C23.3908 208.357 23.3469 203.13 23.4165 197.906C23.4371 196.352 22.8884 195.787 21.3914 195.896C20.1221 195.994 18.8473 195.993 17.5781 195.894C16.0437 195.767 15.5817 196.38 15.5998 197.913C15.6711 203.9 15.6292 209.889 15.6293 215.878ZM321.716 356.078C327.671 356.078 333.628 356.051 339.583 356.099C340.974 356.111 341.62 355.688 341.506 354.185C341.404 352.897 341.405 351.602 341.509 350.313C341.643 348.719 341.096 348.155 339.472 348.176C333.401 348.257 327.329 348.209 321.257 348.209C315.474 348.209 309.691 348.24 303.909 348.186C302.527 348.173 301.85 348.557 301.982 350.075C302.077 351.182 301.999 352.305 302 353.42C302.002 356.072 302.003 356.077 304.541 356.078C310.265 356.082 315.991 356.082 321.716 356.078ZM242.863 356.08C248.648 356.08 254.433 356.079 260.219 356.078C262.669 356.077 262.67 356.071 262.674 353.51C262.676 352.335 262.604 351.155 262.69 349.986C262.795 348.561 262.172 348.08 260.853 348.199C260.165 348.261 259.466 348.209 258.771 348.209C247.548 348.209 236.325 348.23 225.101 348.183C223.704 348.177 223.081 348.539 223.201 350.049C223.31 351.396 223.31 352.751 223.2 354.099C223.074 355.645 223.628 356.131 225.16 356.111C231.06 356.032 236.961 356.079 242.863 356.08ZM23.389 135.926C23.389 129.87 23.3636 123.814 23.4086 117.759C23.4186 116.394 22.9491 115.834 21.5867 115.904C20.0851 115.982 18.576 115.952 17.0714 115.917C16.0438 115.893 15.622 116.325 15.6233 117.38C15.6391 129.727 15.6379 142.074 15.6196 154.421C15.6179 155.474 16.0062 155.924 17.044 155.899C18.4331 155.864 19.8293 155.81 21.2111 155.916C22.8403 156.041 23.4518 155.482 23.4257 153.74C23.3348 147.803 23.3907 141.865 23.389 135.926ZM163.959 356.078C169.913 356.078 175.867 356.047 181.82 356.101C183.208 356.115 183.859 355.716 183.748 354.212C183.643 352.924 183.644 351.629 183.753 350.341C183.915 348.62 183.24 348.163 181.591 348.174C171.072 348.241 160.551 348.196 150.031 348.219C148.258 348.223 145.743 347.698 144.907 348.64C143.953 349.715 144.546 352.163 144.369 354.006C144.212 355.645 144.863 356.13 146.445 356.11C152.282 356.033 158.121 356.079 163.959 356.078Z"/>
</mask>
<path d="M254.897 371.922C213.902 371.922 172.907 371.739 131.914 371.996C111.109 371.978 90.6196 366.842 72.1939 357.031C50.5782 345.868 32.6636 328.508 20.6708 307.102C12.2564 292.453 6.20886 276.529 2.75825 259.935C0.876359 250.962 -0.0477634 241.81 0.00189989 232.635C0.0552986 184.249 -0.0130386 135.861 0.0467155 87.4751C-0.151663 67.9224 4.46126 48.6289 13.4668 31.3459C18.6596 20.5179 27.2178 11.7272 37.82 6.33106C47.3597 1.81455 57.8154 -0.348415 68.3345 0.0184926C78.3281 0.125931 88.175 2.47306 97.1719 6.89227C106.337 11.6902 113.997 18.998 119.285 27.9885C126.378 39.541 131.202 52.3787 133.491 65.7933C134.794 73.2618 135.402 80.8383 135.306 88.4225C135.267 113.233 135.209 138.045 135.32 162.854C135.336 178.928 139.483 194.72 147.349 208.667C148.401 210.493 149.6 212.228 150.932 213.855C152.234 215.767 154.173 217.138 156.39 217.716C158.608 218.295 160.957 218.042 163.006 217.004C166.23 215.788 169.073 213.715 171.237 211C182.8 196.888 192.6 181.375 200.411 164.817C204.668 154.582 210.08 144.883 216.538 135.914C220.889 130.277 225.536 124.882 230.46 119.754C236.889 113.187 245.236 108.908 254.256 107.555C270.616 104.458 287.522 107.858 301.486 117.052C308.7 122.011 314.922 128.318 319.82 135.635C329.495 148.634 336.228 163.64 339.538 179.584C343.413 198.298 353.008 215.291 366.955 228.14C370.593 231.495 374.527 234.505 378.707 237.13C386.394 242.262 394.422 246.878 402.011 252.148C419.876 264.002 433.849 281.003 442.143 300.973C445.666 309.09 447.013 318.009 446.047 326.827C444.634 337.61 439.37 347.49 431.252 354.589C421.127 363.71 408.476 369.433 395.027 370.976C390.321 371.601 385.578 371.903 380.831 371.883C338.854 371.95 296.875 371.963 254.897 371.922ZM254.972 332.395C296.605 332.395 338.239 332.394 379.874 332.393C381.67 332.393 383.469 332.454 385.258 332.343C391.484 332.207 397.564 330.4 402.88 327.104C407.639 323.95 408.436 321.797 406.41 316.47C402.026 305.243 394.618 295.499 385.035 288.349C378.978 283.66 372.271 279.844 365.916 275.546C358.937 270.827 351.693 266.43 345.158 261.137C332.811 250.848 322.509 238.265 314.802 224.06C308.959 214.088 304.797 203.193 302.488 191.829C300.104 179.318 294.957 167.519 287.436 157.319C284.765 153.368 281.082 150.232 276.786 148.25C272.489 146.268 267.74 145.515 263.053 146.072C260.489 146.206 258.067 147.308 256.263 149.164C251.255 154.155 246.944 159.819 243.45 165.999C240.167 171.922 237.505 178.198 234.522 184.294C226.12 201.069 216.148 216.985 204.745 231.82C199.085 239.832 191.694 246.421 183.139 251.085C175.857 255.249 167.652 257.465 159.295 257.522C150.938 257.581 142.704 255.479 135.367 251.416C126.892 246.547 119.897 239.409 115.144 230.781C102.876 210.392 96.4103 186.95 96.4656 163.056C96.3746 137.303 96.4924 111.549 96.4255 85.7964C96.6085 72.7191 93.09 59.8635 86.288 48.7584C84.4321 45.3901 81.4779 42.7844 77.9342 41.3898C73.2839 39.6924 68.3164 39.0829 63.4019 39.6068C60.4596 39.5556 57.5579 40.3074 54.9994 41.7838C52.4409 43.2602 50.3195 45.4071 48.8567 48.0003C48.3069 49.0996 47.6315 50.1349 47.0943 51.2401C41.5718 62.6875 38.7591 75.287 38.8804 88.034C38.9041 135.013 39.0542 181.994 38.7934 228.971C38.7493 243.633 41.5039 258.164 46.9049 271.762C51.9676 285.14 59.7542 297.284 69.7553 307.398C77.5336 314.916 86.6344 320.883 96.5835 324.987C107.623 329.943 119.562 332.492 131.632 332.469C172.745 332.274 213.858 332.395 254.972 332.395ZM222.105 173.956C221.81 173.653 221.481 173.388 221.123 173.167C219.602 172.454 218.038 171.833 216.526 171.104C215.502 170.611 214.951 170.906 214.497 171.914C213.683 173.86 212.762 175.758 211.739 177.599C206.745 186.053 201.701 194.475 196.604 202.866C195.907 204.012 195.814 204.643 197.056 205.361C198.353 206.134 199.598 206.993 200.783 207.933C201.668 208.617 202.258 208.586 202.903 207.613C209.951 197.35 216.186 186.537 221.549 175.272C221.718 174.902 221.867 174.521 222.105 173.956ZM157.836 241.693C162.586 241.682 167.296 240.795 171.735 239.075C172.839 238.624 173.207 238.153 172.621 236.993C171.964 235.684 171.39 234.333 170.905 232.95C170.427 231.597 169.806 231.409 168.424 231.884C163.608 233.96 158.268 234.433 153.17 233.235C148.073 232.037 143.481 229.229 140.054 225.214C139.255 224.328 138.667 224.436 137.884 225.14C136.757 226.151 135.616 227.156 134.408 228.064C133.282 228.91 133.366 229.591 134.264 230.607C137.19 234.052 140.806 236.824 144.871 238.735C148.936 240.647 153.357 241.655 157.836 241.693ZM16.3896 73.7043C16.2942 75.339 16.3748 75.4554 17.7615 75.6397C19.139 75.8227 20.5368 75.8846 21.8984 76.1466C23.4326 76.4418 24.0057 75.9602 24.2308 74.33C25.5917 63.5246 28.7759 53.0382 33.6437 43.3312C35.2682 40.1673 35.313 40.1189 32.3589 38.3126C28.2531 35.802 29.0659 35.3391 26.7173 39.8083C21.3483 50.4062 17.8527 61.879 16.3896 73.7043ZM266.168 122.138C263.717 122.358 261.643 122.511 259.575 122.734C255.305 123.167 251.162 124.459 247.389 126.536C243.615 128.613 240.288 131.434 237.599 134.831C237.468 135.098 237.407 135.394 237.419 135.691C237.432 135.988 237.518 136.278 237.672 136.532C238.807 137.774 240.153 138.816 241.337 140.018C242.154 140.848 242.768 140.78 243.479 139.928C244 139.304 244.62 138.766 245.172 138.165C248.608 134.374 253.177 131.839 258.173 130.952C262.959 130.041 267.863 129.988 272.666 130.796C273.955 131.012 274.61 130.76 274.787 129.345C274.977 127.836 275.326 126.345 275.656 124.859C275.901 123.758 275.56 123.208 274.419 123.088C271.549 122.787 268.683 122.431 266.168 122.138ZM425.612 301.998C425.378 301.406 425.106 300.829 424.8 300.273C421.897 295.277 418.722 290.452 415.289 285.817C411.071 280.645 406.101 276.107 401.458 271.293C400.505 270.305 399.738 270.407 398.953 271.57C398.17 272.732 397.303 273.835 396.36 274.869C395.373 275.946 395.529 276.643 396.631 277.561C401.692 281.676 406.204 286.442 410.055 291.737C412.918 295.773 415.422 300.07 418.069 304.262C418.506 304.953 418.766 305.819 419.877 305.256C421.531 304.417 423.214 303.639 424.862 302.789C425.173 302.63 425.376 302.255 425.612 301.998ZM366.58 248.341C366.164 247.948 365.784 247.559 365.373 247.21C361.684 244.388 358.152 241.358 354.797 238.135C350.101 233.139 345.862 227.697 341.504 222.381C340.656 221.346 340.058 220.877 338.87 221.85C337.683 222.788 336.44 223.65 335.149 224.432C334.166 225.052 334.166 225.655 334.807 226.566C341.566 236.479 349.841 245.235 359.318 252.5C362.406 254.802 362.445 254.748 364.559 251.474C365.192 250.496 365.823 249.514 366.58 248.341ZM324.882 185.382C324.797 184.724 324.786 184.488 324.735 184.259C321.963 171.692 317.002 159.73 310.088 148.934C309.55 148.087 308.991 148.062 308.231 148.608C306.91 149.555 305.588 150.507 304.21 151.364C303.175 152.008 303.142 152.63 303.762 153.646C305.344 156.237 306.916 158.844 308.312 161.539C312.33 169.15 315.268 177.299 317.038 185.746C317.299 187.031 317.811 187.553 319.17 187.175C320.67 186.757 322.235 186.585 323.744 186.193C324.172 186.001 324.559 185.726 324.882 185.382ZM68.9243 15.8282C68.14 15.8282 67.4979 15.8821 66.8676 15.8176C65.341 15.6615 64.7439 16.2962 64.9319 17.8546C65.0652 18.9591 65.0302 20.0849 65.0802 21.2007C65.1893 23.6337 65.1938 23.586 67.6438 23.6897C73.0152 23.4435 78.3731 24.4152 83.3285 26.5344C88.284 28.6535 92.7123 31.8668 96.2924 35.941C96.5469 36.0874 96.8335 36.1673 97.1263 36.1735C97.4183 36.1797 97.7084 36.112 97.9682 35.9764C99.3583 35.0293 100.606 33.8718 101.952 32.8545C102.803 32.2119 102.895 31.5895 102.141 30.8404C100.153 28.6341 98.0334 26.5532 95.7943 24.6094C87.9368 18.952 78.5559 15.8864 68.9243 15.8282ZM104.118 352.918C104.742 350.573 105.159 348.69 105.757 346.867C106.186 345.554 105.853 345.043 104.554 344.614C100.221 343.355 95.9666 341.826 91.8168 340.039C85.4421 337.012 79.2802 333.517 73.0828 330.118C71.9061 329.472 71.2705 329.462 70.5973 330.67C69.9563 331.855 69.2152 332.981 68.3822 334.035C67.3173 335.347 67.6567 336.058 68.9891 336.909C75.6266 341.203 82.6451 344.856 89.9527 347.823C94.5122 349.641 99.1878 351.157 104.118 352.918ZM119.811 92.8935L120.173 92.8696C119.745 86.0235 119.289 79.1787 118.908 72.3294C118.823 70.8034 118.206 70.4078 116.81 70.7192C115.511 71.0093 114.194 71.2139 112.869 71.3317C111.369 71.4643 111.01 72.1626 111.137 73.6569C111.529 78.2709 111.916 82.8964 112.008 87.5234C112.149 94.7429 112.072 101.969 112.024 109.191C112.015 110.539 112.403 111.128 113.791 111.038C115.177 110.949 116.566 110.949 117.953 111.038C119.396 111.131 119.854 110.548 119.836 109.099C119.772 103.698 119.811 98.2955 119.811 92.8935ZM385.669 356.42C390.442 355.582 395.267 354.968 399.977 353.852C406.874 352.205 413.331 349.037 418.887 344.571C419.998 343.688 420.22 343.005 419.136 341.926C418.024 340.821 417.123 339.493 415.995 338.406C415.753 338.236 415.473 338.13 415.18 338.099C414.887 338.067 414.592 338.111 414.32 338.227C405.615 344.806 395.026 348.305 384.175 348.19C380.832 348.287 381.006 347.737 381.005 351.441C381.005 356.148 381.005 356.148 385.669 356.42ZM28.3447 267.133C26.3983 267.729 24.8692 268.307 23.2907 268.651C21.5595 269.028 21.3668 269.918 21.9677 271.417C24.2782 277.181 26.2736 283.095 28.8997 288.705C31.5009 294.262 34.735 299.513 37.6562 304.918C38.33 306.164 39.0321 306.259 40.1087 305.399C41.1951 304.519 42.3481 303.726 43.5572 303.03C44.8854 302.278 44.7133 301.547 44.0459 300.357C41.0995 295.104 38.0115 289.908 35.4651 284.456C33.0677 279.321 31.2934 273.888 29.2184 268.597C28.9711 268.083 28.6787 267.594 28.3447 267.133ZM119.841 162.964C119.841 158.9 119.802 155.845 119.861 152.789C119.885 151.521 119.478 150.947 118.171 151.012C116.727 151.097 115.278 151.095 113.833 151.005C112.416 150.905 112.053 151.525 112.072 152.858C112.14 157.735 112.037 162.615 112.159 167.49C112.44 175.067 113.487 182.596 115.284 189.956C115.612 191.375 116.241 191.64 117.479 191.255C118.683 190.834 119.918 190.51 121.172 190.285C122.901 190.037 123.142 189.214 122.751 187.615C120.702 179.567 119.723 171.277 119.841 162.964ZM15.6293 215.878C15.6293 221.926 15.6652 227.974 15.6031 234.021C15.5881 235.478 16.0623 236.045 17.4986 235.944C18.7679 235.849 20.0426 235.85 21.3119 235.947C22.9033 236.078 23.4368 235.468 23.4198 233.837C23.3493 227.086 23.3908 220.334 23.3908 213.582C23.3908 208.357 23.3469 203.13 23.4165 197.906C23.4371 196.352 22.8884 195.787 21.3914 195.896C20.1221 195.994 18.8473 195.993 17.5781 195.894C16.0437 195.767 15.5817 196.38 15.5998 197.913C15.6711 203.9 15.6292 209.889 15.6293 215.878ZM321.716 356.078C327.671 356.078 333.628 356.051 339.583 356.099C340.974 356.111 341.62 355.688 341.506 354.185C341.404 352.897 341.405 351.602 341.509 350.313C341.643 348.719 341.096 348.155 339.472 348.176C333.401 348.257 327.329 348.209 321.257 348.209C315.474 348.209 309.691 348.24 303.909 348.186C302.527 348.173 301.85 348.557 301.982 350.075C302.077 351.182 301.999 352.305 302 353.42C302.002 356.072 302.003 356.077 304.541 356.078C310.265 356.082 315.991 356.082 321.716 356.078ZM242.863 356.08C248.648 356.08 254.433 356.079 260.219 356.078C262.669 356.077 262.67 356.071 262.674 353.51C262.676 352.335 262.604 351.155 262.69 349.986C262.795 348.561 262.172 348.08 260.853 348.199C260.165 348.261 259.466 348.209 258.771 348.209C247.548 348.209 236.325 348.23 225.101 348.183C223.704 348.177 223.081 348.539 223.201 350.049C223.31 351.396 223.31 352.751 223.2 354.099C223.074 355.645 223.628 356.131 225.16 356.111C231.06 356.032 236.961 356.079 242.863 356.08ZM23.389 135.926C23.389 129.87 23.3636 123.814 23.4086 117.759C23.4186 116.394 22.9491 115.834 21.5867 115.904C20.0851 115.982 18.576 115.952 17.0714 115.917C16.0438 115.893 15.622 116.325 15.6233 117.38C15.6391 129.727 15.6379 142.074 15.6196 154.421C15.6179 155.474 16.0062 155.924 17.044 155.899C18.4331 155.864 19.8293 155.81 21.2111 155.916C22.8403 156.041 23.4518 155.482 23.4257 153.74C23.3348 147.803 23.3907 141.865 23.389 135.926ZM163.959 356.078C169.913 356.078 175.867 356.047 181.82 356.101C183.208 356.115 183.859 355.716 183.748 354.212C183.643 352.924 183.644 351.629 183.753 350.341C183.915 348.62 183.24 348.163 181.591 348.174C171.072 348.241 160.551 348.196 150.031 348.219C148.258 348.223 145.743 347.698 144.907 348.64C143.953 349.715 144.546 352.163 144.369 354.006C144.212 355.645 144.863 356.13 146.445 356.11C152.282 356.033 158.121 356.079 163.959 356.078Z" fill="#525252" stroke="#525252" stroke-width="7.64611" mask="url(#path-2-inside-1_690_249)"/>
</g>
<path d="M168.76 29.5273C168.76 25.9396 170.274 22.4989 172.969 19.962C175.665 17.4252 179.321 16 183.132 16H262.182C265.994 16 269.65 17.4252 272.346 19.962C275.041 22.4989 276.555 25.9396 276.555 29.5273V32.9091C276.555 33.806 276.934 34.6662 277.608 35.3004C278.281 35.9346 279.195 36.2909 280.148 36.2909C281.101 36.2909 282.015 36.6472 282.689 37.2814C283.363 37.9156 283.742 38.7758 283.742 39.6727V59.9636C283.742 60.8605 283.363 61.7207 282.689 62.3549C282.015 62.9892 281.101 63.3455 280.148 63.3455C279.195 63.3455 278.281 63.7017 277.608 64.336C276.934 64.9702 276.555 65.8304 276.555 66.7273V70.1091C276.555 73.6967 275.041 77.1375 272.346 79.6743C269.65 82.2112 265.994 83.6364 262.182 83.6364H222.657" stroke="#525252" stroke-width="5.73458" stroke-linecap="round" stroke-linejoin="round"/>
<path d="M162 77.842C162 58.6333 178.155 43.0566 198.075 43.0566H216.109V48.8531C216.109 68.0618 199.954 83.6385 180.034 83.6385H162V77.842Z" stroke="#525252" stroke-width="5.73458" stroke-linecap="round" stroke-linejoin="round"/>
<path d="M162 103.926V83.6348" stroke="#525252" stroke-width="5.73458" stroke-linecap="round" stroke-linejoin="round"/>
<path d="M345.886 104H321.986C322.019 101.1 322.719 98.5667 324.086 96.4C325.453 94.2333 327.319 92.35 329.686 90.75C330.819 89.9167 332.003 89.1167 333.236 88.35C334.469 87.55 335.603 86.7 336.636 85.8C337.669 84.9 338.519 83.9333 339.186 82.9C339.853 81.8333 340.203 80.6167 340.236 79.25C340.236 78.6167 340.153 77.95 339.986 77.25C339.853 76.5167 339.569 75.85 339.136 75.25C338.703 74.6167 338.103 74.1 337.336 73.7C336.569 73.2667 335.569 73.05 334.336 73.05C333.203 73.05 332.253 73.2833 331.486 73.75C330.753 74.1833 330.153 74.8 329.686 75.6C329.253 76.3667 328.919 77.2833 328.686 78.35C328.486 79.4167 328.369 80.5667 328.336 81.8H322.636C322.636 79.8667 322.886 78.0833 323.386 76.45C323.919 74.7833 324.703 73.35 325.736 72.15C326.769 70.95 328.019 70.0167 329.486 69.35C330.986 68.65 332.719 68.3 334.686 68.3C336.819 68.3 338.603 68.65 340.036 69.35C341.469 70.05 342.619 70.9333 343.486 72C344.386 73.0667 345.019 74.2333 345.386 75.5C345.753 76.7333 345.936 77.9167 345.936 79.05C345.936 80.45 345.719 81.7167 345.286 82.85C344.853 83.9833 344.269 85.0333 343.536 86C342.803 86.9333 341.969 87.8 341.036 88.6C340.103 89.4 339.136 90.15 338.136 90.85C337.136 91.55 336.136 92.2167 335.136 92.85C334.136 93.4833 333.203 94.1167 332.336 94.75C331.503 95.3833 330.769 96.05 330.136 96.75C329.503 97.4167 329.069 98.1333 328.836 98.9H345.886V104ZM373.669 104H349.769C349.803 101.1 350.503 98.5667 351.869 96.4C353.236 94.2333 355.103 92.35 357.469 90.75C358.603 89.9167 359.786 89.1167 361.019 88.35C362.253 87.55 363.386 86.7 364.419 85.8C365.453 84.9 366.303 83.9333 366.969 82.9C367.636 81.8333 367.986 80.6167 368.019 79.25C368.019 78.6167 367.936 77.95 367.769 77.25C367.636 76.5167 367.353 75.85 366.919 75.25C366.486 74.6167 365.886 74.1 365.119 73.7C364.353 73.2667 363.353 73.05 362.119 73.05C360.986 73.05 360.036 73.2833 359.269 73.75C358.536 74.1833 357.936 74.8 357.469 75.6C357.036 76.3667 356.703 77.2833 356.469 78.35C356.269 79.4167 356.153 80.5667 356.119 81.8H350.419C350.419 79.8667 350.669 78.0833 351.169 76.45C351.703 74.7833 352.486 73.35 353.519 72.15C354.553 70.95 355.803 70.0167 357.269 69.35C358.769 68.65 360.503 68.3 362.469 68.3C364.603 68.3 366.386 68.65 367.819 69.35C369.253 70.05 370.403 70.9333 371.269 72C372.169 73.0667 372.803 74.2333 373.169 75.5C373.536 76.7333 373.719 77.9167 373.719 79.05C373.719 80.45 373.503 81.7167 373.069 82.85C372.636 83.9833 372.053 85.0333 371.319 86C370.586 86.9333 369.753 87.8 368.819 88.6C367.886 89.4 366.919 90.15 365.919 90.85C364.919 91.55 363.919 92.2167 362.919 92.85C361.919 93.4833 360.986 94.1167 360.119 94.75C359.286 95.3833 358.553 96.05 357.919 96.75C357.286 97.4167 356.853 98.1333 356.619 98.9H373.669V104ZM378.753 68.3H384.453V88.6L394.753 78.15H401.753L391.853 87.65L402.703 104H395.753L387.853 91.45L384.453 94.75V104H378.753V68.3ZM405.458 78.15H410.858V81.75H411.008C411.441 81.1167 411.908 80.5333 412.408 80C412.908 79.4667 413.458 79.0167 414.058 78.65C414.691 78.2833 415.408 78 416.208 77.8C417.008 77.5667 417.925 77.45 418.958 77.45C420.525 77.45 421.975 77.8 423.308 78.5C424.675 79.2 425.641 80.2833 426.208 81.75C427.175 80.4167 428.291 79.3667 429.558 78.6C430.825 77.8333 432.408 77.45 434.308 77.45C437.041 77.45 439.158 78.1167 440.658 79.45C442.191 80.7833 442.958 83.0167 442.958 86.15V104H437.258V88.9C437.258 87.8667 437.225 86.9333 437.158 86.1C437.091 85.2333 436.891 84.5 436.558 83.9C436.258 83.2667 435.791 82.7833 435.158 82.45C434.525 82.1167 433.658 81.95 432.558 81.95C430.625 81.95 429.225 82.55 428.358 83.75C427.491 84.95 427.058 86.65 427.058 88.85V104H421.358V87.4C421.358 85.6 421.025 84.25 420.358 83.35C419.725 82.4167 418.541 81.95 416.808 81.95C416.075 81.95 415.358 82.1 414.658 82.4C413.991 82.7 413.391 83.1333 412.858 83.7C412.358 84.2667 411.941 84.9667 411.608 85.8C411.308 86.6333 411.158 87.5833 411.158 88.65V104H405.458V78.15Z" fill="#525252"/>
</svg>
