<svg fill="none" height="49" viewBox="0 0 50 49" width="50" xmlns="http://www.w3.org/2000/svg"><path d="m1.44713 40.3134c-1.981939 1.9615-1.901926 5.099.07935 7.1393 2.06169 1.9601 5.23699 1.9601 7.21893-.0791l24.98779-25.3404c2.1444-2.0402 3.4116-2.6684 5.157-2.1194 1.7457.6281 4.2061.6281 6.5072-.8636 4.9176-3.1372 4.5984-9.0218 4.5984-9.0218l-.3961-.62811s-4.4421 2.82471-4.9975 3.13901c-.7152.5489-3.1726 1.6475-5.3936-1.7265-2.3011-3.374-.3991-5.4914.236-5.88445.5554-.31389 4.9975-3.21566 4.9975-3.21566l-.396-.62847s-5.157-2.58958-9.995.23542c0 .15763-1.1905.86354-1.6659 1.25592-3.0956 2.74593-3.0956 5.80604-2.5402 8.31644.4785 2.2758 0 3.0598-1.8226 5.0216zm1.82535 1.6476c1.0312-1.0206 2.69715-1.0206 3.80695 0 .95119 1.0198.95119 2.7459 0 3.6858-1.11051 1.0211-2.77654 1.1774-3.80695.0791-1.03084-.9409-1.03084-2.7459 0-3.7649z" fill="#525252"/></svg>