<svg fill="none" height="42" viewBox="0 0 50 42" width="50" xmlns="http://www.w3.org/2000/svg" xmlns:xlink="http://www.w3.org/1999/xlink"><clipPath id="a"><path d="m0 0h50v42h-50z"/></clipPath><g clip-path="url(#a)"><path d="m28.55 41.9911c-4.5917 0-9.1834-.0206-13.7749.0084-2.3303-.0021-4.6253-.5819-6.68911-1.6896-2.42111-1.2604-4.42768-3.2204-5.77096-5.6372-.94247-1.6539-1.619837-3.4518-2.00633-5.3253-.2107856-1.0131-.31429398-2.0464-.30873134-3.0822.00598104-5.463-.00167322-10.9261.00501967-16.38906-.02221983-2.20756.49446067-4.38586 1.50314167-6.33716.58163-1.22252 1.54021-2.21502 2.72774-2.82426 1.06851-.509928 2.23962-.754134 3.41784-.71270892 1.11935.01213012 2.22228.27712892 3.22999.77607192 1.0266.541707 1.8845 1.366777 2.4768 2.381837.7945 1.30431 1.3348 2.75373 1.5912 4.26828.146.84322.214 1.69863.2033 2.55491-.0044 2.80119-.0109 5.60249.0016 8.40359.0018 1.8148.4662 3.5977 1.3473 5.1724.1178.2062.2521.4021.4013.5857.1459.2159.363.3707.6114.436s.5115.0368.741-.0804c.3611-.1373.6795-.3714.9219-.6779 1.2952-1.5933 2.3928-3.3448 3.2677-5.2142.4768-1.1556 1.083-2.2506 1.8064-3.2632.4873-.6365 1.0078-1.2456 1.5593-1.8246.7201-.7414 1.6551-1.2245 2.6654-1.3773 1.8324-.3496 3.726.0342 5.29 1.0723.8081.5599 1.505 1.2719 2.0536 2.0981 1.0837 1.4676 1.8378 3.1618 2.2086 4.9619.434 2.1129 1.5087 4.0315 3.0708 5.4822.4075.3788.8482.7186 1.3164 1.015.861.5794 1.7601 1.1005 2.6102 1.6955 2.001 1.3384 3.5661 3.2579 4.495 5.5125.3946.9165.5455 1.9235.4373 2.919-.1582 1.2175-.7479 2.333-1.6571 3.1345-1.1341 1.0298-2.5511 1.6759-4.0575 1.8501-.5271.0706-1.0583.1047-1.59.1024-4.7018.0076-9.4037.009-14.1056.0044zm.0084-4.4627c4.6633 0 9.3266-.0001 13.99-.0002.2011 0 .4026.0068.603-.0057.6974-.0153 1.3784-.2194 1.9738-.5915.5331-.3561.6223-.5991.3954-1.2006-.4911-1.2675-1.3208-2.3677-2.3942-3.1749-.6784-.5294-1.4296-.9603-2.1414-1.4455-.7817-.5328-1.5931-1.0293-2.3251-1.6269-1.3829-1.1616-2.5368-2.5823-3.4001-4.1861-.6544-1.1259-1.1206-2.3559-1.3792-3.639-.2671-1.4125-.8435-2.7446-1.6859-3.8962-.2992-.4461-.7117-.8002-1.1929-1.024-.4813-.2238-1.0132-.3088-1.5382-.2459-.2872.0151-.5585.1396-.7605.3491-.561.5635-1.0439 1.203-1.4352 1.9008-.3677.6687-.6659 1.3772-1 2.0655-.9411 1.894-2.058 3.6909-3.3352 5.3659-.634.9045-1.4618 1.6485-2.4201 2.175-.8156.4702-1.7346.7203-2.6707.7268-.936.0066-1.8583-.2307-2.6801-.6894-.9492-.5497-1.7327-1.3556-2.2651-2.3298-1.3741-2.3019-2.0983-4.9486-2.0921-7.6463-.0102-2.9076.003-5.8153-.0045-8.72289.0205-1.47647-.3736-2.92791-1.13547-4.18171-.20787-.38029-.53876-.67448-.93568-.83194-.52087-.19164-1.07727-.26045-1.62773-.2013-.32955-.00578-.65457.0791-.94114.24579s-.52418.40908-.68802.70186c-.06158.12412-.13723.24101-.19741.36579-.61856 1.29245-.9336 2.71497-.92001 4.15415.00265 5.30405.01947 10.60835-.00974 15.91225-.00494 1.6554.30359 3.296.90854 4.8312.56706 1.5105 1.43921 2.8815 2.55941 4.0234.87122.8489 1.89058 1.5225 3.00495 1.9859 1.2365.5595 2.5738.8473 3.9257.8448 4.6049-.0221 9.2099-.0084 13.8149-.0084zm-3.6813-17.8883c-.033-.0342-.0699-.0641-.11-.0891-.1704-.0805-.3455-.1506-.5149-.2329-.1147-.0557-.1764-.0223-.2272.0915-.0912.2197-.1944.434-.309.6418-.5593.9545-1.1243 1.9054-1.6952 2.8527-.078.1294-.0885.2007.0506.2818.1453.0872.2848.1842.4175.2903.0991.0772.1652.0737.2375-.0361.7894-1.1587 1.4877-2.3796 2.0884-3.6514.019-.0418.0357-.0848.0623-.1486zm-7.1986 7.6477c.5321-.0012 1.0596-.1013 1.5568-.2955.1237-.051.1649-.1041.0993-.2351-.0736-.1478-.1379-.3003-.1923-.4565-.0535-.1527-.1231-.1739-.2779-.1203-.5394.2344-1.1375.2878-1.7085.1525-.5709-.1353-1.0852-.4523-1.4691-.9056-.0895-.1-.1553-.0878-.2431-.0083-.1262.1141-.254.2276-.3893.3301-.1261.0955-.1167.1724-.0161.2871.3277.389.7327.7019 1.188.9177.4554.2159.9505.3297 1.4522.3339zm-15.84299-18.96642c-.01069.18456-.00166.1977.15366.21851.15429.02066.31086.02765.46336.05723.17184.03333.23604-.02104.26125-.2051.15243-1.21996.50908-2.40391 1.05431-3.49986.18196-.35722.18698-.36268-.1439-.56662-.45988-.28346-.36885-.33572-.6319.16887-.60137 1.19654-.9929 2.49185-1.15678 3.82697zm27.97699 5.46832c-.2745.0248-.5069.0421-.7385.0673-.4783.0489-.9423.1948-1.3649.4293-.4227.2345-.7954.5529-1.0965.9365-.0147.0301-.0216.0635-.0202.0971.0014.0335.0111.0662.0283.0949.1272.1402.2779.2579.4105.3936.0915.0937.1603.086.2399-.0101.0584-.0705.1279-.1313.1897-.1991.3848-.428.8966-.7142 1.4562-.8144.536-.1028 1.0853-.1088 1.6233-.0176.1444.0244.2177-.0041.2376-.1638.0213-.1704.0603-.3387.0973-.5065.0274-.1243-.0107-.1864-.1385-.1999-.3215-.034-.6425-.0742-.9242-.1073zm17.8588 20.3068c-.0262-.0669-.0566-.132-.0909-.1948-.3251-.564-.6808-1.1088-1.0653-1.6321-.4724-.584-1.0291-1.0963-1.5492-1.6398-.1067-.1116-.1926-.1-.2805.0312-.0878.1313-.1849.2558-.2905.3725-.1105.1216-.0931.2003.0304.304.5668.4646 1.0722 1.0026 1.5036 1.6005.3206.4556.6011.9408.8976 1.4141.0489.078.078.1758.2025.1122.1852-.0947.3738-.1825.5584-.2785.0348-.018.0575-.0603.0839-.0893zm-6.612-6.0581c-.0466-.0443-.0891-.0883-.1352-.1277-.4132-.3186-.8087-.6607-1.1845-1.0246-.526-.564-1.0008-1.1785-1.4889-1.7787-.095-.1168-.162-.1698-.2951-.0599-.1329.1059-.2721.2032-.4167.2915-.1102.07-.1102.1381-.0384.2409.7571 1.1193 1.684 2.1078 2.7455 2.9281.3458.2599.3502.2538.587-.1158.0709-.1105.1415-.2213.2263-.3538zm-4.6704-7.1082c-.0095-.0743-.0108-.101-.0165-.1268-.3105-1.4189-.8661-2.7695-1.6406-3.9883-.0602-.0957-.1228-.0985-.208-.0369-.1479.107-.296.2145-.4503.3112-.116.0727-.1197.143-.0502.2577.1772.2925.3533.5868.5096.8911.4501.8593.7791 1.7794.9774 2.7331.0292.145.0866.204.2388.1613.168-.0472.3433-.0666.5123-.1109.048-.0217.0913-.0527.1275-.0915zm-28.66913-19.14322c-.08785 0-.15976.00608-.23036-.0012-.17099-.01762-.23787.05404-.21682.22998.01493.12471.01101.25181.01661.37779.01222.2747.01273.26931.28715.28102.60163-.0278 1.20176.08191 1.7568.32117.55505.23926 1.05105.60205 1.45205 1.06204.0285.01653.0606.02555.0934.02625.0327.0007.0652-.00695.0943-.02226.1557-.10693.2955-.23761.4462-.35247.0953-.07255.1056-.14282.0212-.2274-.2227-.24909-.4601-.48403-.7109-.7035-.88009-.63873-1.93082-.98485-3.00963-.99142zm3.94193 38.05852c.0699-.2647.1166-.4774.1836-.6832.0481-.1482.0108-.2059-.1347-.2543-.4854-.1422-.9619-.3148-1.4267-.5166-.71402-.3417-1.40419-.7363-2.09835-1.1201-.1318-.0729-.20299-.0741-.27839.0623-.0718.1338-.15481.2609-.24811.38-.11927.1481-.08126.2284.06798.3244.74345.4848 1.52957.8973 2.34807 1.2323.5107.2052 1.0344.3764 1.5866.5752zm1.7577-29.3576.0406-.0027c-.048-.77295-.099-1.54575-.1417-2.31905-.0095-.1723-.0786-.21696-.235-.1818-.1455.03275-.293.05585-.4414.06915-.168.01497-.2082.09381-.194.26252.0439.52094.0873 1.04317.0975 1.56558.0159.8151.0072 1.6309.0018 2.4463-.001.1522.0425.2187.198.2086.1552-.0101.3108-.0101.4661 0 .1617.0105.213-.0554.211-.2189-.0072-.6098-.0029-1.2198-.0029-1.8297zm29.778 29.753c.5347-.0946 1.0751-.1639 1.6026-.29.7726-.1859 1.4958-.5436 2.1181-1.0478.1244-.0997.1493-.1768.0279-.2986-.1246-.1248-.2255-.2747-.3518-.3974-.0271-.0192-.0585-.0312-.0913-.0347-.0328-.0036-.0659.0014-.0963.0144-.9751.7428-2.1611 1.1379-3.3765 1.1249-.3744.0109-.3549-.0511-.355.3671-.0001.5314-.0001.5314.5223.5621zm-40.02283-10.0808c-.21801.0673-.38929.1325-.56609.1714-.1939.0426-.21549.143-.14818.3123.25879.6508.48229 1.3185.77643 1.9519.29135.6274.65359 1.2202.98079 1.8304.07547.1407.15411.1515.2747.0544.12168-.0994.25083-.1889.38625-.2675.14877-.0849.1295-.1674.05474-.3018-.33001-.5931-.67589-1.1797-.96111-1.7953-.26852-.5797-.46726-1.1931-.69967-1.7905-.0277-.058-.06045-.1133-.09786-.1653zm10.24823-11.761c0-.4588-.0044-.8038.0022-1.1488.0027-.1432-.0428-.208-.1892-.2006-.1618.0096-.3241.0093-.4859-.0008-.1587-.0113-.1994.0587-.1973.2092.0076.5506-.0039 1.1016.0098 1.652.0314.8555.1487 1.7055.35 2.5365.0367.1602.1072.1901.2458.1466.1349-.0475.2732-.0841.4137-.1095.1936-.028.2206-.1209.1769-.3014-.2296-.9087-.3392-1.8447-.326-2.7832zm-11.67245 5.9742c0 .6828.00402 1.3656-.00293 2.0483-.00168.1646.05143.2286.2123.2172.14218-.0108.28495-.0107.42712.0003.17825.0148.23801-.0541.2361-.2382-.0079-.7622-.00325-1.5246-.00325-2.2869 0-.5899-.00491-1.18.00288-1.7698.00231-.1755-.05915-.2393-.22682-.227-.14217.0111-.28496.011-.42712-.0002-.17186-.0144-.22361.0549-.22158.2279.00798.676.00329 1.3522.0033 2.0284zm34.28385 15.829c.6671 0 1.3343-.0031 2.0013.0024.1558.0013.2282-.0464.2154-.2162-.0114-.1454-.0113-.2916.0003-.4371.015-.18-.0462-.2437-.2282-.2413-.6799.0092-1.3601.0037-2.0402.0037-.6477 0-1.2954.0035-1.9431-.0025-.1548-.0015-.2306.0418-.2158.2132.0107.125.0019.2518.002.3777.0002.2994.0003.3.2846.3001.6412.0004 1.2825.0004 1.9237 0zm-8.8321.0002c.648 0 1.296-.0001 1.944-.0002.2745-.0001.2746-.0008.275-.29.0002-.1326-.0078-.2658.0018-.3978.0118-.1609-.058-.2152-.2057-.2018-.0771.007-.1554.0011-.2332.0011-1.2571 0-2.5142.0024-3.7713-.0029-.1565-.0007-.2263.0402-.2128.2107.0122.1521.0122.305-.0001.4572-.0142.1746.0479.2295.2195.2272.6608-.0089 1.3218-.0036 1.9828-.0035zm-24.58261-24.8561c0-.6837-.00284-1.3675.0022-2.0511.00112-.1541-.05147-.2174-.20407-.2094-.16819.0088-.33722.0054-.50575.0014-.11509-.0027-.16234.0461-.16219.1652.00177 1.394.00163 2.788-.00042 4.182-.00019.1189.0433.1698.15955.1669.15558-.0039.31197-.01.46674.002.18248.0141.25098-.0491.24805-.2457-.01018-.6703-.00392-1.3408-.00411-2.0113zm15.74481 24.8559c.6669 0 1.3338-.0035 2.0006.0026.1555.0015.2284-.0435.216-.2133-.0118-.1454-.0117-.2916.0005-.437.0182-.1944-.0574-.2459-.2421-.2447-1.1783.0076-2.3567.0025-3.535.0051-.1986.0004-.4803-.0588-.5739.0475-.1069.1214-.0404.3978-.0603.6058-.0176.1851.0554.2399.2325.2376.6538-.0087 1.3078-.0035 1.9617-.0036z" fill="#525252"/></g></svg>