<svg fill="none" height="50" viewBox="0 0 50 50" width="50" xmlns="http://www.w3.org/2000/svg"><path d="m37.3578 33.8268c2.9042-3.6446 4.4986-8.2573 4.4986-12.9271 0-11.50336-9.3961-20.8997-20.9567-20.8997-11.56031 0-20.8997 9.39654-20.8997 20.8997 0 11.5034 9.39613 20.8998 20.8997 20.8998 4.6127 0 9.2254-1.5946 12.9271-4.4987l12.5854 12.5854 3.5878-3.5878zm-16.4579 3.0182c-8.7129 0-15.83137-7.1184-15.83137-15.8314 0-8.7129 7.11847-15.83138 15.83137-15.83138 8.713 0 15.8314 7.11848 15.8314 15.83138 0 8.713-7.1184 15.8314-15.8314 15.8314z" fill="#525252"/></svg>