<svg height="512" viewBox="0 0 1024 512" width="1024" xmlns="http://www.w3.org/2000/svg"><path d="m177.2 399.3s-7.7-3.2-13.2-10.4c-8.6-11.3-9.2-15.3-9.2-15.3l.1-33.8s1.9 2-6.8-15.1c-5.2-10.5-15.6-12.1-15.6-12.1l-76.6-34.7s-33.3-32.4-28.4-68.5c11.2-84.2 115-96.4 115-96.4h192.1s25.4 2.3 30.2 39.2c5.7 43.7-62.4 62.4-62.4 62.4l-136.4 1.3s-23.4 4.9-25.5 16.7c-3.6 19.2 4.4 26.7 4.4 26.7l84.3 58.2s6.4 5.5 36.3 15.1c29.1 9.4 40.6 8.5 40.6 8.5l73.1 1.2s14.8-2.5 20.9-13.3c8.4-14.8 6.4-18.9 6.4-18.9l-1.6-26.7 2.8-11.7 3.7-7.5 84.3-122.7s8.5-12.6 28.5-14.9c27.3-3 37.3 4.9 37.3 4.9l306.1 181.1s23.3 12.7 32.6-.8c9.9-14.2 8.3-19.1 8.3-19.1 5.4-16-11.1-44.6-11.1-44.6s-1.3-5.3-19.3-18.8c-13-9.9-39-15.9-39-15.9s-38.2-15.2-29.8-45.9c10.8-38.9 42.2-34.7 42.2-34.7l99.2 29.4s6.4.4 16.9 9.8c5 4.6 3 13 3 13l-6.3 65.6s-2.2 9.8 1.2 13.6c8.8 9.7 12.4 6.2 12.4 6.2l12.2.2s4-1.3 6.6 7.1c2.1 6.8 1.1 11.3 1.1 11.3v53.3s2 11.8-16.2 36c-11.4 15.2-43.5 19.4-43.5 19.4z" fill="none" stroke="#f3ff14" stroke-width="7.5"/></svg>