<svg height="512" viewBox="0 0 1024 512" width="1024" xmlns="http://www.w3.org/2000/svg"><path d="m106.4 419.3s-2 16.6 2.9 29.1c5.7 14.7 19 21.4 19 21.4l31.3 6.3s8.5 4.4 37.1-7.1c17.6-7.1 17.3-14.8 17.3-14.8l6.2-55.4s-1-7.8-5.2-13.6c-9.5-13.4-16.2-18.4-16.2-18.4s-9.4-6.2-9.9-16.1c-.2-4.1 0-14.6 0-14.6l14.6-49.2s6.1-13 27-9.4c16.4 2.8 16.9 10.5 16.9 10.5l17.8 123.3s.2 27 7.3 41.8c11.9 24.7 54.4 35.6 54.4 35.6l212.1-3.2s12.2 1.9 28.3-15.7c7.9-8.6 6.2-17.7 6.2-17.7l6.3-54.4s5.9-14.3 18.8-18.8c19.2-6.7 33.5 6.3 33.5 6.3l77.5 76s10.9 9.9 28.3 20.8c16.7 10.3 44.2 8.7 44.2 8.7l117.5-4.1s8.5.1 16.9-18.3c3.9-11.4-18-22-18-22s-196.7-38.9-280.9-119.5c-68.4-65.5-142.3-199.8-142.3-199.8s-8.9-9.4-7-27.4c1.9-18.8 10-26.8 10-26.8l16.8-28.4s5.3-7.3-2-14.8c-10.3-10.4-24.1-7.1-24.1-7.1l-272.8 57.5s-18.8 2.4-30.3 16.7c-13.3 16.5-14.6 29.3-14.6 29.3z" fill="none" opacity=".3" stroke="#fff" stroke-width="30"/></svg>