<svg height="512" viewBox="0 0 1024 512" width="1024" xmlns="http://www.w3.org/2000/svg"><path d="m170.7 289.2 350.6 10 127.4-20s6.9.2 10.8-7.4c4.2-8.1 3.6-9.5 3.6-9.5l2.4-35.7s-1.5-2 5-9.6c5.6-6.5 8.1-5.9 8.1-5.9l296.7-16.5s22.3-2 21.7-29.8c-.3-15-25.4-22.8-25.4-22.8l-380 46.5s-11.3 1.7-16.7 9.5c-4.8 7-4.7 11.9-4.7 11.9l3.5 22.6s2.8 2.2-3.5 14.3c-2.9 5.6-16.2 6.4-16.2 6.4l-137.5-5.2s-14.9-3.1-18.7-7.3c-2-2.2-8.5-9.5-8.5-9.5s-10.5-12.1-12.8-14.2c-7-5.5-16-4.7-16-4.7l-150.1 9.5s-18.5 1.1-29.1-.8c-21.6-3.7-23.9-4.1-23.9-4.1l-83.5-18.7s-8.4-2.6-13.8 1c-9.1 6.1-10 9.6-10 9.6s-5.4 4.6-12.4 34.4c-2.1 9.3-10.7 104.9-10.7 104.9s0 5.8 4.5 15.6c2.1 4.5 12.2 5.8 12.2 5.8l34.9.9s13.9-9.6 18.7-17.6c2.2-22.9-3.2-27.8-3.2-27.8l-25.4-48.3s-3.2-4.5.2-12.4c5.1-11.9 12.5-11.3 12.5-11.3l44.7-4.4s7-1.8 11.2 4.7c4.9 7.3 5.2 8.2 5.2 8.2l11.2 20.6s1.3 3 6 5c6.9 3 11 2.1 11 2.1z" fill="none" opacity=".3" stroke="#fff" stroke-width="30"/></svg>