<svg width="296" height="92" viewBox="0 0 296 92" fill="none" xmlns="http://www.w3.org/2000/svg">
<path d="M200.231 22.7823C200.135 20.0861 199.232 12.41 192.008 13.0345C183.487 13.7714 175.498 21.7268 172.927 24.5306C172.851 24.5274 172.771 24.5266 172.696 24.5242L172.908 24.5852H175.006L175.048 24.5731C176.697 23.1532 183.019 17.9879 189.625 16.3079C196.671 14.5163 196.642 21.5221 196.588 22.7045L196.614 22.7157L200.231 22.7823Z" fill="white"/>
<path d="M108.299 77.1807H104.21L105.268 73.2311H109.357L108.299 77.1807ZM105.124 89.0295H101.035L103.681 79.1555H107.77L105.124 89.0295ZM121.476 89.0295H117.387L120.562 77.1807H110.339L111.398 73.2311H121.62C122.898 73.2311 123.805 73.424 124.34 73.8097C124.791 74.1337 125.014 74.6222 125.009 75.2753C125.006 75.6662 124.886 76.3013 124.651 77.1807L121.476 89.0295ZM111.253 89.0295H107.165L109.81 79.1555H113.899L111.253 89.0295ZM138.886 85.0799C138.646 85.9747 138.429 86.6073 138.234 86.9776C137.895 87.6256 137.41 88.1141 136.779 88.4432C136.03 88.8341 135.016 89.0295 133.739 89.0295H123.516L126.189 79.0552H130.278L128.663 85.0799H134.797L136.913 77.1807H126.691L127.749 73.2311H137.972C139.25 73.2311 140.156 73.424 140.692 73.8097C141.143 74.1337 141.366 74.6222 141.361 75.2753C141.358 75.6662 141.238 76.3013 141.002 77.1807L138.886 85.0799ZM155.238 85.0799C154.998 85.9747 154.78 86.6073 154.585 86.9776C154.247 87.6256 153.762 88.1141 153.13 88.4432C152.381 88.8341 151.368 89.0295 150.09 89.0295H143.957C142.679 89.0295 141.772 88.8367 141.237 88.451C140.786 88.127 140.563 87.6384 140.567 86.9853C140.571 86.5944 140.691 85.9593 140.926 85.0799L142.514 79.1555H146.603L145.015 85.0799H151.149L153.265 77.1807H143.043C143.283 76.2859 143.5 75.6533 143.695 75.2831C144.034 74.6351 144.519 74.1465 145.15 73.8174C145.899 73.4265 146.912 73.2311 148.19 73.2311H154.323C155.601 73.2311 156.508 73.424 157.043 73.8097C157.494 74.1337 157.718 74.6222 157.713 75.2753C157.709 75.6662 157.59 76.3013 157.354 77.1807L155.238 85.0799ZM171.589 85.0799C171.349 85.9747 171.132 86.6073 170.937 86.9776C170.598 87.6256 170.113 88.1141 169.482 88.4432C168.733 88.8341 167.72 89.0295 166.442 89.0295H160.309C159.031 89.0295 158.124 88.8367 157.589 88.451C157.138 88.127 156.915 87.6384 156.919 86.9853C156.923 86.5944 157.042 85.9593 157.278 85.0799L158.865 79.1555H162.954L161.367 85.0799H167.5L169.617 77.1807H159.395C159.634 76.2859 159.852 75.6533 160.047 75.2831C160.385 74.6351 160.87 74.1465 161.502 73.8174C162.251 73.4265 163.264 73.2311 164.542 73.2311H170.675C171.953 73.2311 172.86 73.424 173.395 73.8097C173.846 74.1337 174.069 74.6222 174.065 75.2753C174.061 75.6662 173.941 76.3013 173.706 77.1807L171.589 85.0799ZM189.536 79.1555C189.299 80.0401 189.093 80.6726 188.916 81.0532C188.613 81.7063 188.216 82.1949 187.725 82.5188C187.136 82.9097 186.362 83.1051 185.403 83.1051C185.166 83.136 184.985 83.1771 184.859 83.2285C184.474 83.3931 184.227 83.6811 184.117 84.0925C184.006 84.5039 184.1 84.7919 184.396 84.9565C184.494 85.0079 184.654 85.0491 184.874 85.0799H187.941L186.883 89.0295H182.794C181.516 89.0295 180.609 88.8367 180.074 88.451C179.623 88.127 179.4 87.6384 179.404 86.9853C179.408 86.5944 179.527 85.9593 179.763 85.0799L180.028 84.0925C180.055 83.8714 180.056 83.7068 180.032 83.5988C179.95 83.2697 179.696 83.1051 179.27 83.1051C178.844 83.1051 178.502 83.2697 178.243 83.5988C178.161 83.7068 178.074 83.8714 177.983 84.0925L176.66 89.0295H172.571L175.217 79.1555H184.417C184.654 79.1247 184.836 79.0835 184.961 79.0321C185.346 78.8675 185.594 78.5795 185.704 78.1681C185.814 77.7567 185.721 77.4687 185.424 77.3041C185.326 77.2527 185.167 77.2116 184.946 77.1807H175.746L176.805 73.2311H187.027C188.411 73.2311 189.355 73.6425 189.859 74.4654C190.288 75.1699 190.354 76.075 190.058 77.1807L189.536 79.1555Z" fill="white"/>
<path d="M148.405 5.76538C148.405 5.76538 145.11 10.5068 145.11 12.5384C145.11 12.5384 111.533 14.306 90.946 22.8457C90.946 22.8457 109.245 9.49065 148.405 5.76538Z" fill="white"/>
<path d="M55.7907 36.9513C95.908 17.4491 147.308 15.3558 147.308 15.3558C150.236 3.16453 161.947 -1.57683 171.462 0.454797C180.978 2.48643 177.684 12.9855 177.684 12.9855L163.777 11.9693C163.777 11.9693 164.143 8.58266 164.875 6.55026C165.607 4.51882 175.488 6.21235 175.488 6.21235C172.096 -0.899307 160.483 2.82509 156.823 6.21235C153.164 9.59885 152.943 16.0332 152.943 16.0332L175.488 16.372L171.096 21.4513C121.831 18.9192 81.1921 29.7545 60.2216 36.9513H55.7907Z" fill="white"/>
<path d="M69.8825 36.9512C89.1803 30.6167 114.383 25.4743 146.728 24.11C156.345 23.7046 165.34 23.7183 173.779 24.0314L173.775 24.0866H175.875L175.916 24.0747C175.906 24.0828 175.893 24.0955 175.883 24.1036C207.642 25.4943 230.977 31.3642 246.462 36.9512H243.23L241.053 45.0731C241.005 45.055 240.956 45.0369 240.908 45.0188C241.01 43.2606 240.662 41.751 239.926 40.4851V40.483C238.62 38.2447 236.229 36.9511 232.59 36.9511H210.821C193.387 33.6909 172.032 31.6528 146.728 31.6528C125.815 31.6528 107.39 33.7522 91.4562 36.9512H69.8825ZM254.054 36.9512C242.413 31.5281 222.78 25.5111 190.281 22.3424C190.281 22.3424 192.922 22.1964 197.455 22.2309C197.457 22.2253 197.457 22.2124 197.457 22.2061L197.482 22.218L201.1 22.2839V22.296C215.866 22.684 248.861 26.8781 271.385 36.9512H254.054ZM275.301 38.8186C278.657 40.5281 281.706 42.3886 284.336 44.4083C304.543 59.9266 293.837 77.0768 278.125 84.0931C259.826 92.2631 231.636 91.8143 231.636 91.8143C231.636 91.8143 262.623 86.1582 268.722 71.1859C270.635 66.4873 267.984 60.8447 260.731 55.3132L262.4 49.0838H272.55L275.301 38.8186Z" fill="white"/>
<path d="M29.6568 70.9085H21.3957L24.6029 58.939H12.2112L9.00399 70.9085H0.742853L6.08821 50.9594H26.741L27.8101 46.9696H7.15729C7.64171 45.1617 8.08096 43.8837 8.47503 43.1356C9.15928 41.8265 10.1391 40.8394 11.4144 40.1744C12.9276 39.3848 14.975 38.9899 17.5566 38.9899H29.9483C32.5299 38.9899 34.3617 39.3796 35.4437 40.1588C36.3547 40.8134 36.8055 41.8005 36.7962 43.12C36.789 43.9097 36.5473 45.1929 36.0713 46.9696L29.6568 70.9085ZM69.1077 46.9696H40.1938L42.3319 38.9899H71.2459L69.1077 46.9696ZM57.6394 58.939H45.2477L42.0405 70.9085H33.7793L39.1247 50.9594H59.7775L57.6394 58.939ZM102.144 46.9696H73.2302L75.3684 38.9899H104.282L102.144 46.9696ZM90.6758 58.939H78.2841L75.0769 70.9085H66.8158L72.1611 50.9594H92.814L90.6758 58.939ZM114.528 46.9696H106.267L108.405 38.9899H116.666L114.528 46.9696ZM108.113 70.9085H99.8523L105.198 50.9594H113.459L108.113 70.9085ZM151.679 46.9696H143.418L145.556 38.9899H153.817L151.679 46.9696ZM165.917 70.9085H155.591L148.739 57.9416L145.264 70.9085H137.003L142.349 50.9594H150.61L164.143 38.9899H174.47L156.769 54.9492L165.917 70.9085ZM198.954 70.9085H190.692L193.9 58.939H181.508L178.301 70.9085H170.04L175.385 50.9594H196.038L197.107 46.9696H176.454C176.938 45.1617 177.378 43.8837 177.772 43.1356C178.456 41.8265 179.436 40.8394 180.711 40.1744C182.224 39.3848 184.272 38.9899 186.853 38.9899H199.245C201.827 38.9899 203.658 39.3796 204.74 40.1588C205.651 40.8134 206.102 41.8005 206.093 43.12C206.086 43.9097 205.844 45.1929 205.368 46.9696L198.954 70.9085ZM237.352 50.9594C236.873 52.7465 236.455 54.0245 236.098 54.7934C235.487 56.1129 234.684 57.1 233.691 57.7546C232.501 58.5442 230.938 58.939 229.001 58.939C228.522 59.0014 228.156 59.0845 227.902 59.1884C227.124 59.5209 226.624 60.1027 226.402 60.934C226.179 61.7652 226.367 62.347 226.967 62.6795C227.165 62.7834 227.487 62.8665 227.932 62.9289H234.128L231.99 70.9085H223.729C221.147 70.9085 219.316 70.5189 218.234 69.7396C217.322 69.085 216.872 68.098 216.881 66.7784C216.888 65.9888 217.13 64.7056 217.606 62.9289L218.14 60.934C218.196 60.4872 218.199 60.1547 218.15 59.9365C217.984 59.2715 217.47 58.939 216.61 58.939C215.749 58.939 215.058 59.2715 214.535 59.9365C214.369 60.1547 214.194 60.4872 214.01 60.934L211.337 70.9085H203.076L208.421 50.9594H227.009C227.488 50.8971 227.855 50.8139 228.108 50.71C228.886 50.3776 229.386 49.7957 229.609 48.9645C229.832 48.1333 229.643 47.5514 229.044 47.2189C228.846 47.115 228.524 47.0319 228.078 46.9696H209.491L211.629 38.9899H232.281C235.078 38.9899 236.985 39.8212 238.003 41.4836C238.869 42.907 239.003 44.7357 238.404 46.9696L237.352 50.9594ZM271.441 46.9696H261.115L254.7 70.9085H246.439L252.821 46.9696H242.527L244.665 38.9899H273.579L271.441 46.9696Z" fill="white"/>
<path d="M79.0179 85.1099H83.0827V88.982H79.0179V85.1099Z" fill="white"/>
<path d="M70.8176 85.1099H74.8816V88.982H70.8176V85.1099Z" fill="white"/>
<path d="M86.8586 85.1099H90.9226V88.982H86.8586V85.1099Z" fill="white"/>
<path d="M61.1251 85.1089H65.1931V88.9851H61.1251V85.1089Z" fill="white"/>
<path d="M51.115 88.9851H47.0469L45.0426 85.1089H49.0416L51.115 88.9851Z" fill="white"/>
<path d="M34.9606 88.6088L32.1862 89.2864L31.149 85.5975L33.9341 84.8554L34.9606 88.6088Z" fill="white"/>
<path d="M83.013 81.2937H87.0866V85.1658H83.013V81.2937Z" fill="white"/>
<path d="M74.8849 81.2937H78.9489V85.1658H74.8849V81.2937Z" fill="white"/>
<path d="M90.924 81.2937H94.988V85.1658H90.924V81.2937Z" fill="white"/>
<path d="M66.7452 81.2896H70.8132V85.1657H66.7452V81.2896Z" fill="white"/>
<path d="M58.865 85.1662H54.7978L53.7607 81.29H57.8287L58.865 85.1662Z" fill="white"/>
<path d="M41.6131 86.275L37.5453 85.1649L37.5454 81.2893L41.6132 82.3994L41.6131 86.275Z" fill="white"/>
<path d="M23.7846 85.1662H21.9777L23.2122 81.29H25.0183L23.7846 85.1662Z" fill="white"/>
<path d="M206.894 81.2866H202.826V85.1628H206.894V81.2866Z" fill="white"/>
<path d="M214.97 81.2866H210.903V85.1628H214.97V81.2866Z" fill="white"/>
<path d="M223.108 81.2866H219.04V85.1628H223.108V81.2866Z" fill="white"/>
<path d="M231.313 81.2866H227.245V85.1628H231.313V81.2866Z" fill="white"/>
<path d="M202.887 85.106H198.819V88.9821H202.887V85.106Z" fill="white"/>
<path d="M210.962 85.106H206.894V88.9821H210.962V85.106Z" fill="white"/>
<path d="M219.11 85.106H215.032V88.9821H219.11V85.106Z" fill="white"/>
<path d="M227.247 85.106H223.179V88.9821H227.247V85.106Z" fill="white"/>
</svg>
