<svg width="102" height="49" viewBox="0 0 102 49" fill="none" xmlns="http://www.w3.org/2000/svg">
<path d="M84.0373 0.81543L83.906 1.11358C83.8337 1.27763 83.0807 2.99369 82.2328 4.92712C80.8981 7.97065 80.6866 8.44452 80.6554 8.4567C80.6356 8.46444 79.5976 8.81973 78.349 9.2461C77.1003 9.67245 74.9885 10.3927 73.6566 10.8469C72.3246 11.3011 71.2303 11.6768 71.2245 11.6817C71.2187 11.6867 72.9145 12.0688 74.9933 12.5308C77.0721 12.9927 78.7759 13.373 78.7791 13.3762C78.7825 13.3796 78.3106 14.8443 77.7306 16.6304C77.1506 18.4165 76.6764 19.8821 76.6764 19.8881C76.6766 19.894 76.938 19.8984 77.2571 19.898L77.8371 19.8973L80.1294 17.6555C81.39 16.4225 82.5775 15.2621 82.7687 15.0764C83.1051 14.7499 83.1175 14.7389 83.1578 14.752C83.1806 14.7595 84.0236 14.9936 85.0304 15.2724C86.0373 15.5512 87.3601 15.918 87.9701 16.0873C88.5801 16.2567 89.0829 16.3922 89.0868 16.3883C89.0906 16.3844 88.7905 15.1314 88.4202 13.6034C88.0499 12.0754 87.7431 10.8111 87.7387 10.7944C87.7318 10.7683 88.3282 10.2522 91.844 7.24207C94.1062 5.30523 95.9619 3.71676 95.9677 3.71179C95.9736 3.70682 95.8983 3.67338 95.8002 3.63725L95.6213 3.57123L95.184 3.70398C94.9433 3.77675 92.856 4.40914 90.5463 5.10956C87.3004 6.09386 86.3442 6.37848 86.3352 6.36394C86.3288 6.3536 85.8097 5.10124 85.1809 3.58046L84.0373 0.81543ZM8.16485 14.6697C5.98866 14.6665 5.62969 14.6689 5.52193 14.6874C5.45335 14.6992 5.34273 14.7292 5.27559 14.7534C5.20846 14.7777 5.09856 14.8308 5.0321 14.8713C4.9536 14.919 4.86579 14.9907 4.78151 15.0764C4.69932 15.1601 4.6277 15.2509 4.58558 15.3235C4.54902 15.3865 4.50227 15.4831 4.48123 15.5386C4.46019 15.5941 3.63522 18.9672 2.64829 23.0343C1.66136 27.1014 0.850037 30.4502 0.845166 30.4761L0.835938 30.523L2.4552 30.5194L4.07446 30.5159L4.60829 28.1484L5.14213 25.7802H6.85368C8.0146 25.7802 8.56594 25.785 8.56594 25.7951C8.56594 25.8032 8.72541 26.6224 8.92018 27.6152C9.1439 28.7556 9.28974 29.4677 9.317 29.5497C9.34074 29.621 9.38243 29.7188 9.40929 29.7669C9.43615 29.815 9.48729 29.8939 9.52288 29.9423C9.55846 29.9906 9.62473 30.0676 9.67053 30.1126C9.71634 30.1577 9.794 30.2232 9.84304 30.2582C9.89207 30.2932 9.99322 30.3502 10.0674 30.3852C10.1415 30.4203 10.2538 30.4642 10.3172 30.4825L10.4322 30.5151L11.6625 30.5194C12.8367 30.5235 12.8921 30.5226 12.8849 30.4981C12.8808 30.484 12.7186 29.84 12.5243 29.067C12.33 28.294 11.5958 25.3294 10.893 22.4792C10.1902 19.629 9.61569 17.2844 9.61587 17.2686C9.61606 17.2527 9.85568 16.6623 10.149 15.9567L10.6828 14.6739L8.16485 14.6697ZM14.343 14.6739L13.8639 15.9134L13.3847 17.1529L14.0491 17.16C14.6997 17.167 14.7152 17.1679 14.7732 17.199C14.8059 17.2165 14.8515 17.2469 14.8747 17.2664C14.898 17.286 14.9358 17.3363 14.9592 17.3786L15.0018 17.456L15.0061 22.6701L15.0096 27.885L14.3132 27.8885L13.6175 27.8921L13.9348 29.2075L14.2522 30.523H16.418H18.5839V29.204V27.885H18.2673H17.95L17.9464 21.6976C17.9429 15.8507 17.9412 15.5053 17.9173 15.4236C17.9034 15.376 17.8649 15.2815 17.8314 15.2142C17.7834 15.1174 17.7447 15.0656 17.6476 14.9685C17.5626 14.8836 17.4937 14.8294 17.424 14.7932C17.3685 14.7644 17.274 14.7259 17.2145 14.7073L17.1066 14.6739H15.7252H14.343ZM38.1159 14.7094C36.8786 14.7094 35.8686 14.7148 35.8719 14.7208C35.8752 14.7267 36.2135 15.2967 36.623 15.9872L37.3676 17.2423L37.3577 22.5928L37.3478 27.9425H36.4782H35.6085V29.2643V30.5854L37.0816 30.5762C37.8916 30.5709 38.9615 30.5663 39.4597 30.5663H40.3655V27.4889V24.4108H42.2105H44.0555L44.0562 27.0672C44.0566 29.2306 44.0603 29.7435 44.0761 29.8322C44.0868 29.8922 44.1116 29.981 44.1315 30.0303C44.1514 30.0796 44.1894 30.1568 44.216 30.2014C44.2426 30.246 44.3069 30.326 44.3587 30.3788C44.4104 30.4317 44.4979 30.5015 44.5532 30.5343C44.6084 30.5671 44.6829 30.6049 44.7186 30.6181C44.7542 30.6313 44.8159 30.6504 44.8556 30.6607C44.9111 30.675 45.1737 30.6795 45.9978 30.6805L47.0683 30.6813V27.579C47.0682 25.6022 47.0627 24.4159 47.0534 24.3107C47.0454 24.2199 47.0255 24.0809 47.0094 24.0012C46.9933 23.9215 46.9576 23.7877 46.9299 23.7045C46.9022 23.6212 46.8475 23.4853 46.8078 23.402C46.7681 23.3188 46.6875 23.179 46.6289 23.0918C46.5702 23.0046 46.4745 22.8813 46.4166 22.8171C46.3588 22.7529 46.2715 22.6638 46.2221 22.619C46.1727 22.5743 46.0795 22.4989 46.0155 22.4515C45.9516 22.4041 45.8369 22.3296 45.76 22.2861C45.683 22.2426 45.5546 22.1807 45.4753 22.1491C45.396 22.1174 45.2734 22.0753 45.202 22.0547C45.1307 22.0341 45.0198 22.0064 44.9564 21.9936C44.8616 21.9745 44.7041 21.9694 44.0726 21.9645C43.6499 21.9612 43.3062 21.9536 43.3087 21.9475C43.3112 21.9413 44.0003 20.9036 44.84 19.6417L46.3669 17.3474H47.1428H47.9188V16.0866V14.8251L46.1227 14.8287L44.3267 14.8322L42.3617 18.0523C41.2807 19.8234 40.3888 21.2796 40.3804 21.288C40.3697 21.2987 40.3655 20.3192 40.3655 18.0062V14.7094H38.1159ZM69.5413 17.4915V18.6451V19.7979L68.857 19.8015L68.1734 19.8057L68.857 21.0445L69.5406 22.284L69.5456 25.7802L69.5499 29.2764L69.5804 29.3985C69.5972 29.4659 69.631 29.576 69.6556 29.6434C69.6803 29.7108 69.7304 29.8178 69.7671 29.8812C69.8038 29.9446 69.8612 30.0328 69.8949 30.0764C69.9285 30.12 70.0072 30.2046 70.0695 30.2646C70.1318 30.3245 70.2253 30.403 70.2768 30.4392C70.3283 30.4754 70.418 30.5293 70.4763 30.5584C70.5345 30.5876 70.6384 30.6298 70.707 30.6522C70.7756 30.6745 70.8804 30.7 70.9398 30.7097C70.9993 30.7193 71.0578 30.7295 71.0697 30.7317C71.0816 30.734 71.7189 30.7363 72.486 30.7373L73.8802 30.7395V29.4922V28.2456H73.1376H72.3958V27.8623C72.3958 27.6107 72.4005 27.483 72.41 27.4889C72.4196 27.4948 72.4242 26.6264 72.4242 24.8949V22.2918H73.0659H73.7077V21.0452V19.7979H73.0226H72.3376V18.6451V17.4915H70.9398H69.5413ZM6.97223 17.7094C6.97531 17.7125 7.21528 18.9248 7.50536 20.4035C7.79545 21.8821 8.0321 23.1004 8.0321 23.1103C8.0321 23.1245 7.79253 23.128 6.88563 23.128C5.80012 23.128 5.73863 23.1271 5.74554 23.1032C5.74954 23.0893 6.0233 21.8773 6.35321 20.4106C6.68312 18.9438 6.95572 17.7354 6.95945 17.7243C6.9632 17.7132 6.96932 17.7061 6.97223 17.7094ZM62.2316 19.859L59.2962 19.8632L59.8854 20.987L60.4746 22.11V25.1058V28.1015H60.1282H59.7825V29.4205V30.7395H61.9448H64.1071V29.4205V28.1015H63.7465H63.3859V25.2974V22.4941H64.1284H64.871V23.5753V24.6564H66.3702H67.8695V23.5334C67.8695 22.8542 67.8631 22.3515 67.8539 22.2612C67.8456 22.1791 67.8267 22.0515 67.8113 21.9773C67.796 21.9031 67.7568 21.7636 67.7247 21.6678C67.6927 21.5719 67.6312 21.4225 67.5877 21.3355C67.5442 21.2486 67.4715 21.122 67.4266 21.0544C67.3816 20.9868 67.2985 20.876 67.242 20.8081C67.1855 20.7402 67.0908 20.6404 67.0319 20.5859C66.973 20.5314 66.8895 20.459 66.8459 20.4255C66.8023 20.3919 66.7099 20.3271 66.6407 20.2821C66.5715 20.237 66.4419 20.1653 66.3525 20.1223C66.2631 20.0794 66.1208 20.0221 66.0366 19.9946C65.9524 19.967 65.8143 19.9306 65.7299 19.9143C65.6455 19.8981 65.4843 19.878 65.3714 19.8696C65.2347 19.8594 64.1879 19.8561 62.2316 19.859ZM83.7363 19.8739C81.5501 19.8716 79.7616 19.8749 79.7616 19.881C79.7617 19.8871 80.0054 20.3558 80.3026 20.9224L80.8428 21.9524V25.0554V28.159H80.2948H79.7474V29.478V30.797H81.7941H83.8414V26.669C83.8414 22.661 83.8416 22.5411 83.8676 22.5175C83.8925 22.4951 83.9917 22.4931 85.1902 22.4969L86.4864 22.5012L86.5716 22.5338C86.6186 22.5517 86.687 22.5852 86.7243 22.6091C86.7615 22.633 86.8281 22.6903 86.8719 22.7362C86.9157 22.782 86.9682 22.8534 86.989 22.8945C87.0098 22.9355 87.0369 23.0059 87.0487 23.0513C87.0676 23.1235 87.07 23.6093 87.07 26.9068C87.07 28.9817 87.0737 30.6893 87.0785 30.7018C87.0864 30.7225 87.2317 30.7246 88.5693 30.7246C89.8113 30.7246 90.0533 30.7214 90.0671 30.7047C90.0794 30.6898 90.0822 29.6292 90.0785 26.4993C90.074 22.652 90.0717 22.3026 90.0494 22.1768C90.036 22.1014 90.0114 21.9843 89.9947 21.9169C89.9781 21.8496 89.9418 21.7332 89.9138 21.6578C89.8858 21.5825 89.8382 21.4685 89.808 21.4051C89.7778 21.3417 89.7202 21.2365 89.6802 21.1708C89.6403 21.1052 89.5696 21.0012 89.5226 20.9394C89.4756 20.8777 89.3874 20.7739 89.3267 20.7094C89.2661 20.6449 89.1568 20.5441 89.0839 20.4851C89.011 20.4261 88.8947 20.3411 88.8255 20.2963C88.7563 20.2514 88.6267 20.1794 88.5373 20.1365C88.4479 20.0937 88.3068 20.0365 88.2235 20.0088C88.1403 19.9811 87.9911 19.9399 87.892 19.9179L87.7117 19.8781L83.7363 19.8739ZM97.9611 19.9136C94.6935 19.9136 94.1849 19.9167 94.0368 19.9356C93.9433 19.9476 93.786 19.9772 93.6869 20.0017C93.5878 20.0262 93.4417 20.0706 93.3624 20.1003C93.2832 20.1301 93.1506 20.1887 93.0678 20.2302C92.9851 20.2718 92.8742 20.332 92.8222 20.3644C92.7702 20.3968 92.6661 20.471 92.5908 20.5284C92.5155 20.5858 92.4069 20.6759 92.3494 20.7286C92.2919 20.7813 92.1928 20.8869 92.1286 20.9636C92.0645 21.0402 91.9668 21.1706 91.9114 21.2532C91.8561 21.3358 91.7745 21.4748 91.7304 21.5627C91.6863 21.6506 91.626 21.7873 91.5962 21.8665C91.5664 21.9458 91.5213 22.0919 91.4968 22.191C91.4724 22.2901 91.4428 22.4481 91.4308 22.5416C91.412 22.689 91.4088 23.1341 91.4088 25.871C91.4089 28.6112 91.4121 29.0486 91.4308 29.1642C91.4427 29.2376 91.4719 29.3578 91.4954 29.4311C91.5189 29.5045 91.5673 29.6225 91.6033 29.6931C91.6394 29.7637 91.7053 29.872 91.7503 29.9345C91.7952 29.9969 91.8913 30.105 91.9632 30.1744C92.0351 30.2438 92.1498 30.3378 92.2181 30.3831C92.2864 30.4285 92.3903 30.4875 92.4488 30.5144C92.5073 30.5413 92.6092 30.5803 92.6753 30.601C92.7413 30.6218 92.851 30.6482 92.9188 30.66C93.0244 30.6785 93.3548 30.6813 95.2245 30.6813H97.4067L97.4024 31.2903L97.3982 31.8994L97.3556 31.9839C97.3311 32.0322 97.2809 32.0979 97.237 32.138C97.1949 32.1765 97.1237 32.2224 97.078 32.2409L96.9949 32.2743H95.9067H94.8184L94.7339 32.2352C94.6877 32.2135 94.625 32.1761 94.5948 32.1522C94.5646 32.1282 94.5207 32.0776 94.4968 32.04C94.4729 32.0024 94.4427 31.9368 94.4301 31.8938C94.412 31.8319 94.4074 31.7433 94.4074 31.4721V31.1285H92.9074H91.4074L91.4131 32.0833C91.4181 32.9932 91.4195 33.0448 91.4486 33.1723C91.4653 33.2459 91.4968 33.3591 91.5181 33.4243C91.5395 33.4894 91.5917 33.6146 91.6346 33.7018C91.6774 33.7891 91.7559 33.9214 91.8092 33.9965C91.8625 34.0715 91.9682 34.1949 92.0442 34.2705C92.1201 34.3461 92.2354 34.4459 92.2997 34.492C92.3641 34.538 92.4836 34.6105 92.5652 34.6531C92.6469 34.6957 92.7652 34.7491 92.8286 34.7724C92.892 34.7956 93.0039 34.8291 93.0771 34.8462C93.1502 34.8633 93.2572 34.8827 93.3149 34.8895C93.3725 34.8962 94.568 34.9009 95.9713 34.8994L98.5226 34.8973L98.6888 34.8597C98.7799 34.8391 98.919 34.7978 98.9983 34.7681C99.0775 34.7384 99.1738 34.6986 99.2119 34.6794C99.2501 34.6602 99.325 34.618 99.3781 34.5857C99.4311 34.5533 99.5268 34.4859 99.591 34.4359C99.6553 34.3858 99.7603 34.2888 99.8246 34.2201C99.8889 34.1513 99.9802 34.0379 100.028 33.9688C100.075 33.8996 100.146 33.779 100.185 33.7004C100.224 33.6218 100.276 33.4992 100.3 33.4278C100.324 33.3565 100.353 33.2463 100.366 33.1829C100.379 33.1195 100.396 33.0024 100.404 32.9231C100.412 32.8335 100.418 30.8393 100.418 27.6578L100.419 22.536L101.067 21.2298C101.424 20.5113 101.716 19.9211 101.716 19.9186C101.716 19.9159 100.026 19.9136 97.9611 19.9136ZM78.2134 19.9186L77.1528 19.9243C76.2945 19.929 76.0751 19.9343 75.9992 19.9513C75.9477 19.9628 75.8508 19.9985 75.7841 20.0308C75.6871 20.0777 75.6382 20.1142 75.5378 20.2139C75.4319 20.319 75.4022 20.3603 75.3461 20.4759C75.3067 20.557 75.2704 20.6578 75.2574 20.7236C75.2379 20.822 75.2354 21.3997 75.2354 25.7582V30.6813H76.6914H78.1473V26.3786V22.076L78.7302 22.0724L79.313 22.0682L78.7635 20.9934L78.2134 19.9186ZM53.123 20.2885C52.0661 20.2883 51.2884 20.2944 51.1623 20.3034C51.0473 20.3115 50.8739 20.3342 50.7768 20.3538C50.6796 20.3733 50.5304 20.4123 50.4453 20.4404C50.3601 20.4684 50.1992 20.5362 50.0882 20.5909C49.9772 20.6455 49.8263 20.7301 49.7531 20.779C49.6799 20.8279 49.5503 20.9276 49.4649 21.0012C49.3796 21.0748 49.274 21.1764 49.2299 21.2269C49.1858 21.2774 49.1167 21.3614 49.0766 21.4129C49.0365 21.4645 48.9714 21.5564 48.9318 21.6174C48.8921 21.6783 48.8267 21.7916 48.787 21.8694C48.7472 21.9472 48.6909 22.0755 48.6613 22.1548C48.6317 22.234 48.5883 22.3728 48.5655 22.4629C48.5426 22.5529 48.5149 22.7008 48.503 22.7915C48.4871 22.9129 48.481 23.0994 48.481 23.4965V24.036H50.0151H51.5491L51.5548 23.6938C51.5603 23.3871 51.5644 23.3422 51.5924 23.2657C51.6097 23.2188 51.6431 23.1503 51.667 23.1131C51.6909 23.0759 51.7479 23.0101 51.7933 22.9669C51.8388 22.9236 51.9053 22.871 51.9417 22.8497C51.9781 22.8285 52.0586 22.7981 52.1206 22.7823C52.2288 22.7545 52.2807 22.7532 53.3998 22.7532H54.5655L54.5612 23.4127L54.5569 24.0722L54.5186 24.1758C54.4977 24.233 54.4506 24.3227 54.4136 24.3746C54.3765 24.4265 54.3127 24.4944 54.2716 24.5251C54.2304 24.5558 54.1708 24.5935 54.1388 24.6096C54.1069 24.6256 54.0452 24.649 54.0018 24.6614C53.9524 24.6755 53.3354 24.7357 52.352 24.8218C51.1773 24.9247 50.7376 24.9679 50.6071 24.9943C50.5111 25.0138 50.3648 25.0532 50.282 25.0816C50.1992 25.1101 50.0604 25.1682 49.9732 25.2108C49.886 25.2535 49.7563 25.3261 49.685 25.3727C49.6136 25.4193 49.4951 25.5075 49.4223 25.5686C49.3495 25.6298 49.2501 25.724 49.2008 25.7773C49.1516 25.8307 49.0644 25.9359 49.0077 26.0116C48.9511 26.0873 48.874 26.2033 48.8359 26.2693C48.7979 26.3353 48.7468 26.4318 48.7231 26.4844C48.6993 26.537 48.6616 26.6311 48.6386 26.6931C48.6156 26.7551 48.5799 26.8708 48.5598 26.9501C48.5397 27.0293 48.5138 27.1597 48.5023 27.2404C48.486 27.3549 48.481 27.572 48.481 28.225C48.4808 28.9174 48.4853 29.0854 48.5037 29.1912C48.516 29.2616 48.5447 29.377 48.5683 29.4475C48.5919 29.518 48.644 29.6375 48.6833 29.7137C48.7226 29.7899 48.7964 29.9085 48.848 29.977C48.8996 30.0456 48.9873 30.1439 49.0425 30.195C49.0977 30.2461 49.1917 30.3216 49.2519 30.3632C49.3121 30.4048 49.4178 30.4668 49.4869 30.5009C49.556 30.5351 49.6672 30.5801 49.7339 30.601C49.8007 30.622 49.9046 30.6484 49.9647 30.6593C50.0555 30.6757 50.7885 30.6787 54.3227 30.6798L58.5714 30.6813V29.3694V28.0582H57.995H57.4185L57.4178 25.3443C57.4176 23.0172 57.4149 22.6089 57.3965 22.4792C57.3847 22.396 57.3559 22.2569 57.3326 22.1697C57.3093 22.0824 57.2674 21.9546 57.2396 21.8857C57.2118 21.8168 57.1715 21.7261 57.1502 21.6841C57.1289 21.6421 57.0793 21.5556 57.0401 21.4924C57.001 21.4293 56.9281 21.3254 56.8783 21.2617C56.8285 21.198 56.7203 21.0812 56.6376 21.0019C56.555 20.9226 56.4258 20.8134 56.3508 20.7598C56.2758 20.7062 56.1239 20.618 56.0129 20.5632C55.9019 20.5084 55.7485 20.4438 55.6722 20.4198C55.5959 20.3958 55.4668 20.3626 55.3854 20.346C55.3039 20.3293 55.156 20.31 55.056 20.3027C54.9561 20.2953 54.0863 20.2886 53.123 20.2885ZM24.3284 20.2956C22.4799 20.2956 22.3279 20.2976 22.1738 20.3218C22.0827 20.3362 21.9444 20.3634 21.8672 20.3829C21.7899 20.4024 21.6634 20.4415 21.5861 20.4695C21.5087 20.4975 21.3807 20.5519 21.3014 20.5909C21.2221 20.6298 21.0893 20.7062 21.0061 20.7605C20.9228 20.8149 20.8127 20.8943 20.7612 20.9366C20.7096 20.9788 20.6256 21.0529 20.5752 21.1013C20.5247 21.1497 20.435 21.2479 20.375 21.3192C20.315 21.3906 20.2205 21.5171 20.1656 21.6003C20.1106 21.6836 20.031 21.8226 19.9888 21.9098C19.9466 21.9971 19.8858 22.1464 19.8532 22.2414C19.8206 22.3363 19.778 22.4918 19.7588 22.5871C19.7396 22.6824 19.7173 22.8384 19.7091 22.9335C19.7009 23.0286 19.6943 23.3153 19.6942 23.571V24.036H21.2368H22.7787V23.7137C22.7787 23.4336 22.7825 23.3786 22.8071 23.2991C22.8226 23.2487 22.8585 23.1685 22.8866 23.1209C22.9146 23.0733 22.9752 22.9999 23.0207 22.9576C23.0664 22.9153 23.149 22.8591 23.2046 22.8327C23.2601 22.8064 23.3394 22.7775 23.3814 22.7688C23.4331 22.7581 23.8318 22.7532 24.6173 22.7532H25.7772V23.3992C25.7772 23.9328 25.7735 24.0596 25.7552 24.1297C25.7431 24.1763 25.7157 24.2469 25.6942 24.2866C25.6727 24.3263 25.6224 24.3942 25.5827 24.4378C25.5431 24.4813 25.4737 24.5407 25.4287 24.5698C25.3837 24.5989 25.3025 24.6367 25.2484 24.6536C25.167 24.679 24.8774 24.7083 23.5773 24.8218C22.712 24.8974 21.9662 24.9661 21.9197 24.9744C21.8732 24.9827 21.7697 25.0058 21.6904 25.0263C21.6111 25.0468 21.4907 25.085 21.4228 25.1107C21.3549 25.1365 21.2395 25.188 21.1658 25.225C21.0921 25.2621 20.979 25.3267 20.9145 25.3684C20.85 25.4102 20.7482 25.483 20.6887 25.531C20.6293 25.579 20.5225 25.6797 20.4509 25.7539C20.3794 25.8281 20.2907 25.9278 20.2543 25.9754C20.2179 26.023 20.159 26.1071 20.123 26.1628C20.0869 26.2185 20.0207 26.3369 19.976 26.4262C19.9313 26.5154 19.8692 26.6648 19.8383 26.7577C19.8074 26.8505 19.769 26.9915 19.7531 27.0708C19.7372 27.15 19.7167 27.2992 19.7077 27.4023C19.697 27.5256 19.6935 27.8506 19.6977 28.3535C19.7033 29.0075 19.7078 29.1334 19.729 29.226C19.7426 29.2854 19.7727 29.3905 19.7957 29.4595C19.8187 29.5286 19.861 29.6325 19.8901 29.6903C19.9192 29.748 19.9758 29.8433 20.0158 29.9025C20.0557 29.9617 20.1426 30.0667 20.2089 30.1354C20.2751 30.2041 20.3861 30.3005 20.4552 30.3497C20.5243 30.399 20.6394 30.4672 20.7108 30.5017C20.7821 30.5361 20.8821 30.5782 20.9337 30.5954C20.9852 30.6125 21.0859 30.6385 21.1573 30.6529C21.2802 30.6777 21.4606 30.6795 24.569 30.6805C26.85 30.6814 27.8851 30.6772 27.963 30.6664C28.0247 30.6578 28.1369 30.6341 28.2122 30.6145C28.2875 30.595 28.4104 30.5536 28.4855 30.5222C28.5606 30.4909 28.6732 30.4349 28.7361 30.398C28.7989 30.3612 28.9067 30.2873 28.9753 30.234C29.0439 30.1808 29.1425 30.0926 29.1947 30.0381C29.2469 29.9835 29.3298 29.8853 29.3785 29.8195C29.4273 29.7536 29.4958 29.6466 29.5312 29.5816C29.5665 29.5167 29.6166 29.4114 29.6419 29.3481C29.6672 29.2847 29.706 29.1598 29.7285 29.0705C29.7521 28.9773 29.7761 28.8309 29.7846 28.7262C29.7927 28.626 29.7995 28.4346 29.7995 28.301V28.0582H29.2231H28.6466L28.6417 25.301L28.6374 22.5445L28.6062 22.3833C28.589 22.2948 28.5511 22.1488 28.5224 22.0589C28.4937 21.9691 28.4329 21.8176 28.3868 21.7224C28.3407 21.6273 28.2653 21.4945 28.22 21.4271C28.1746 21.3597 28.0964 21.2548 28.0454 21.1936C27.9943 21.1323 27.9008 21.0346 27.8381 20.9763C27.7754 20.9181 27.6726 20.833 27.6095 20.7875C27.5463 20.742 27.4404 20.6727 27.3745 20.6335C27.3086 20.5942 27.1866 20.533 27.1033 20.4979C27.0201 20.4627 26.882 20.4148 26.7959 20.3907C26.7099 20.3666 26.567 20.3351 26.4786 20.3211C26.3306 20.2978 26.1609 20.2956 24.3284 20.2956ZM96.2183 22.5374H97.406V25.2974V28.0582L96.1339 28.0568C95.047 28.056 94.8515 28.0532 94.7915 28.0348C94.7528 28.0229 94.6965 27.9976 94.6665 27.9787C94.6365 27.9598 94.5875 27.9194 94.5579 27.8893C94.5283 27.8592 94.4839 27.7924 94.4592 27.7409L94.4145 27.6472L94.4109 25.4068C94.4084 23.9355 94.412 23.138 94.4216 23.0854C94.4296 23.0413 94.4567 22.9637 94.4819 22.9122C94.5087 22.8576 94.5615 22.7844 94.6083 22.7376C94.6552 22.6907 94.7275 22.6386 94.7822 22.6119C94.8338 22.5868 94.9106 22.5595 94.9533 22.5516C95.0013 22.5426 95.4838 22.5374 96.2183 22.5374ZM24.5782 26.977H25.7794L25.7744 27.2546C25.7697 27.5037 25.766 27.5406 25.7361 27.6159C25.7177 27.6621 25.6721 27.7392 25.6353 27.7877C25.5974 27.8377 25.5294 27.9027 25.4784 27.9375C25.4288 27.9714 25.3454 28.0123 25.2931 28.0284C25.2006 28.057 25.1646 28.0582 23.9876 28.0582H22.7773L22.7815 27.7664L22.7865 27.474L22.8383 27.3661C22.8688 27.3021 22.9187 27.2278 22.9604 27.185C22.9993 27.1452 23.0675 27.0917 23.1116 27.0665C23.1558 27.0413 23.2338 27.0111 23.2848 26.9991C23.3637 26.9806 23.5558 26.9772 24.5782 26.977ZM53.37 26.977H54.564V27.5173V28.0582H53.0577H51.552V27.809C51.5521 27.6425 51.5584 27.5353 51.5719 27.4846C51.5829 27.443 51.6068 27.3797 51.6244 27.3434C51.642 27.307 51.6917 27.239 51.7351 27.1921C51.7901 27.1328 51.8451 27.091 51.9169 27.0558C51.9735 27.0281 52.0552 26.9992 52.0979 26.9912C52.1456 26.9824 52.6361 26.977 53.37 26.977ZM33.6045 32.4688L29.6078 32.4723C25.8473 32.476 25.6043 32.4781 25.4855 32.5021C25.416 32.5162 25.302 32.5439 25.2328 32.5639C25.1635 32.5839 25.0423 32.626 24.963 32.6576C24.8837 32.6892 24.7573 32.7506 24.6819 32.7932C24.6065 32.8358 24.4867 32.9114 24.4164 32.9614C24.3461 33.0114 24.2279 33.1099 24.153 33.1808C24.0782 33.2516 23.9788 33.3566 23.9322 33.4136C23.8857 33.4706 23.8113 33.5704 23.7676 33.6358C23.7238 33.7013 23.6531 33.824 23.6099 33.9084C23.5668 33.9928 23.5054 34.1371 23.4736 34.2293C23.4419 34.3215 23.4023 34.4581 23.3863 34.5324C23.3704 34.6068 23.3508 34.7302 23.3423 34.8071C23.3316 34.9043 23.3267 37.003 23.3267 41.6654V48.3838L27.5683 48.3796L31.8099 48.3753L31.9398 48.3448C32.0112 48.3281 32.1213 48.2976 32.1847 48.2766C32.2482 48.2556 32.3723 48.2026 32.4602 48.1588C32.548 48.115 32.6879 48.0282 32.7711 47.9657C32.8543 47.9032 32.9707 47.8006 33.0295 47.7378C33.0883 47.6751 33.1742 47.5709 33.2205 47.5064C33.2667 47.4419 33.3385 47.3222 33.3802 47.2402C33.4218 47.1582 33.4764 47.0265 33.5016 46.9477C33.5268 46.8689 33.5586 46.7559 33.5719 46.6964C33.5936 46.5991 33.5966 46.4083 33.601 44.7761L33.6052 42.9631H32.1059H30.6066L30.6059 44.0045C30.6058 44.8547 30.6023 45.064 30.5853 45.1439C30.5739 45.1977 30.5446 45.2828 30.52 45.3327C30.4955 45.3826 30.4469 45.4555 30.4121 45.4953C30.3773 45.5351 30.3062 45.595 30.2545 45.6287C30.2028 45.6624 30.1198 45.7046 30.07 45.7217L29.9791 45.7523L28.1525 45.7565L26.3253 45.7601V40.783C26.3255 36.4504 26.328 35.793 26.3466 35.7052C26.3583 35.6497 26.3888 35.5622 26.414 35.5107C26.4431 35.4512 26.4943 35.3823 26.5546 35.3218C26.6114 35.2647 26.6861 35.2077 26.7399 35.1805C26.7893 35.1556 26.8663 35.1256 26.9117 35.1138C26.9825 35.0953 27.2477 35.0925 28.8007 35.0925H30.6066V36.491V37.8888H32.1052H33.6045V35.1791V32.4688ZM36.6343 33.5251C36.5057 33.5304 36.4107 33.5433 36.312 33.5691C36.2351 33.5892 36.1172 33.631 36.0508 33.6621C35.9844 33.6932 35.8792 33.7539 35.8165 33.7963C35.7538 33.8386 35.6565 33.9185 35.6007 33.9744C35.5449 34.0304 35.4691 34.1194 35.4318 34.1718C35.3945 34.2242 35.3381 34.318 35.3068 34.3805C35.2756 34.4431 35.2339 34.5432 35.2145 34.6027C35.1952 34.6622 35.1711 34.759 35.1606 34.8185C35.1501 34.878 35.1421 35.0076 35.1428 35.1067C35.1438 35.2318 35.1534 35.3282 35.1741 35.4212C35.1905 35.4949 35.226 35.6106 35.2536 35.6782C35.2812 35.7458 35.3331 35.8477 35.3686 35.9046C35.4041 35.9615 35.4711 36.0536 35.5177 36.1091C35.5642 36.1646 35.6569 36.2536 35.7235 36.3071C35.7902 36.3607 35.9069 36.4361 35.9826 36.4747C36.0584 36.5133 36.163 36.559 36.2155 36.5762C36.268 36.5934 36.3555 36.6168 36.41 36.628C36.4799 36.6426 36.5794 36.6466 36.7472 36.6429C36.9338 36.6389 37.0092 36.631 37.0979 36.6067C37.1601 36.5897 37.2671 36.5519 37.3357 36.5222C37.4043 36.4926 37.5074 36.4384 37.5643 36.4016C37.6212 36.3647 37.7168 36.2872 37.7773 36.2298C37.8377 36.1723 37.9201 36.0824 37.9597 36.0303C37.9993 35.9782 38.067 35.8648 38.1102 35.7776C38.1542 35.6887 38.2058 35.5553 38.2273 35.4744C38.2618 35.3451 38.2657 35.3053 38.2657 35.0854C38.2657 34.8664 38.2612 34.8253 38.2273 34.6985C38.2065 34.6205 38.1581 34.4909 38.1194 34.4103C38.0807 34.3297 38.01 34.2118 37.9625 34.1484C37.9151 34.0849 37.8336 33.9931 37.7808 33.9439C37.728 33.8947 37.6469 33.8287 37.6012 33.7977C37.5555 33.7667 37.4666 33.7152 37.4031 33.6834C37.3397 33.6516 37.236 33.609 37.1724 33.589C37.1088 33.5689 37.0027 33.5447 36.9367 33.535C36.8644 33.5243 36.7443 33.5205 36.6343 33.5251ZM71.8478 33.6891C71.6211 33.6891 71.5816 33.6929 71.4559 33.7267C71.379 33.7474 71.2601 33.7902 71.1925 33.8218C71.125 33.8535 71.0202 33.9138 70.959 33.956C70.8977 33.9982 70.8015 34.0787 70.7453 34.1342C70.6891 34.1897 70.6129 34.2771 70.5764 34.3287C70.5398 34.3802 70.4842 34.4743 70.4521 34.5381C70.4201 34.6019 70.3777 34.7026 70.3584 34.7617C70.3392 34.8208 70.3145 34.9181 70.3038 34.9775C70.293 35.037 70.2853 35.1666 70.286 35.2657C70.2871 35.3911 70.2971 35.4869 70.318 35.5802C70.3345 35.654 70.3695 35.7682 70.396 35.8344C70.4226 35.9005 70.4793 36.0112 70.5224 36.0807C70.5679 36.1542 70.6549 36.2631 70.7304 36.3405C70.8076 36.4197 70.9111 36.5062 70.9853 36.5542C71.0537 36.5986 71.163 36.6577 71.228 36.6855C71.2931 36.7134 71.3959 36.7483 71.4566 36.7636C71.5173 36.7788 71.583 36.794 71.6029 36.7977C71.6227 36.8011 71.7274 36.8051 71.8357 36.8062C71.9544 36.8074 72.075 36.8001 72.1395 36.7877C72.1984 36.7765 72.2983 36.7498 72.361 36.7288C72.4238 36.7079 72.5238 36.6649 72.5832 36.633C72.6427 36.6011 72.7333 36.5434 72.7848 36.5052C72.8364 36.467 72.9247 36.388 72.9808 36.3299C73.0368 36.2717 73.1099 36.1831 73.144 36.1325C73.1781 36.082 73.2353 35.9794 73.2704 35.9053C73.3055 35.8313 73.3499 35.7074 73.3698 35.6299C73.3936 35.5367 73.4085 35.4305 73.4138 35.3161C73.4195 35.1929 73.4151 35.1032 73.3989 35.0045C73.3863 34.9283 73.3577 34.8098 73.3343 34.7411C73.3109 34.6725 73.2642 34.566 73.2313 34.5047C73.1984 34.4435 73.1359 34.3469 73.0922 34.2896C73.0486 34.2324 72.9745 34.15 72.9275 34.1065C72.8805 34.063 72.8007 33.9978 72.75 33.9617C72.6994 33.9255 72.5959 33.8663 72.52 33.8303C72.4441 33.7944 72.3186 33.7476 72.2411 33.7267C72.1142 33.6926 72.0748 33.6891 71.8478 33.6891ZM75.7685 35.5681V36.721V37.8746L75.0863 37.8781L74.4041 37.8817L75.0827 39.1141L75.7614 40.3471L75.7692 43.8426C75.7764 46.9906 75.7795 47.3485 75.8004 47.4404C75.8132 47.4965 75.8412 47.5936 75.8622 47.6562C75.8832 47.7188 75.9304 47.8282 75.9673 47.8997C76.0042 47.9711 76.0717 48.0787 76.1171 48.1389C76.1624 48.1991 76.2446 48.2916 76.3002 48.3441C76.3558 48.3965 76.4489 48.4711 76.5068 48.5102C76.5646 48.5492 76.6572 48.6037 76.7127 48.6316C76.7682 48.6594 76.8626 48.6983 76.9221 48.7182C76.9815 48.7381 77.069 48.7628 77.1166 48.7728C77.1642 48.7828 77.2548 48.7956 77.3182 48.8012C77.3816 48.8069 78.0353 48.8122 78.7706 48.8133L80.1074 48.8154V47.5689V46.3216H79.3627H78.618L78.6279 45.7707C78.6332 45.4674 78.6372 44.1281 78.6372 42.7941V40.3684H79.264H79.8915V39.1219V37.8746H79.2136H78.5364V36.7217V35.5681H77.1528H75.7685ZM51.6741 37.651L51.4931 37.6907C51.3935 37.7123 51.2443 37.753 51.1615 37.7816C51.0788 37.8102 50.9456 37.8653 50.8655 37.9044C50.7854 37.9435 50.6519 38.0203 50.5695 38.0748C50.487 38.1293 50.365 38.2223 50.2976 38.2814C50.2302 38.3404 50.1373 38.4287 50.0917 38.478C50.0462 38.5273 49.9708 38.6184 49.9242 38.6796C49.8776 38.7408 49.8128 38.8341 49.7801 38.8876C49.7474 38.9411 49.6889 39.049 49.6495 39.1275C49.6101 39.2061 49.5511 39.347 49.5189 39.4406C49.4866 39.5342 49.444 39.6898 49.4244 39.7863C49.4049 39.8829 49.3825 40.0552 49.3747 40.169C49.3662 40.2935 49.3605 41.5485 49.3605 43.3237C49.3606 45.0885 49.3664 46.3436 49.3747 46.4515C49.3824 46.5506 49.3991 46.6872 49.4117 46.7546C49.4242 46.822 49.4574 46.9485 49.4855 47.0357C49.5136 47.1229 49.5643 47.2526 49.5976 47.3239C49.631 47.3953 49.6946 47.5117 49.7389 47.5831C49.7833 47.6544 49.8711 47.7747 49.9341 47.8507C49.9972 47.9266 50.0995 48.0342 50.162 48.0892C50.2245 48.1443 50.3192 48.2206 50.3729 48.2589C50.4265 48.2971 50.5272 48.3605 50.5965 48.3994C50.6657 48.4384 50.7883 48.4956 50.8691 48.5272C50.9498 48.5589 51.0833 48.6013 51.1651 48.6209C51.2469 48.6406 51.3588 48.6627 51.4143 48.6699C51.4708 48.6772 52.3929 48.6816 53.512 48.6805L55.5082 48.6784L55.6644 48.6458C55.75 48.6276 55.8783 48.5931 55.9498 48.5698C56.0212 48.5465 56.1263 48.5075 56.1833 48.4825C56.2403 48.4575 56.3433 48.4051 56.4126 48.3661C56.482 48.327 56.592 48.2558 56.6568 48.2078C56.7216 48.1597 56.836 48.0608 56.9109 47.9884C56.9859 47.9161 57.0882 47.8051 57.1381 47.7414C57.188 47.6776 57.2626 47.5706 57.3042 47.5036C57.3459 47.4365 57.4081 47.3229 57.4419 47.2515C57.4758 47.1802 57.5265 47.0523 57.5548 46.9676C57.5832 46.8829 57.6191 46.7532 57.6343 46.6794C57.6496 46.6055 57.6685 46.4823 57.6769 46.4053C57.6859 46.323 57.6925 45.9178 57.6925 45.4214V44.5774H56.194H54.6961L54.6904 45.0786C54.6854 45.5316 54.6828 45.5862 54.6578 45.6486C54.6425 45.6865 54.6064 45.7482 54.5782 45.7856C54.5501 45.823 54.4958 45.8742 54.4576 45.8999C54.4193 45.9256 54.3552 45.9568 54.3149 45.9688C54.2528 45.9873 54.0988 45.9901 53.3075 45.9901H52.3726L52.3769 43.3557L52.3804 40.722L52.4209 40.6389C52.4432 40.5934 52.49 40.5272 52.5252 40.492C52.5605 40.4567 52.6267 40.41 52.6722 40.3876L52.7552 40.3471L53.7242 40.3429L54.694 40.3386V41.2111V42.0835H56.194H57.694L57.689 40.8767C57.6844 39.6863 57.6836 39.6672 57.6514 39.5137C57.6334 39.4281 57.5992 39.2983 57.5754 39.2255C57.5516 39.1527 57.5037 39.0335 57.4689 38.96C57.4341 38.8866 57.3686 38.7696 57.3234 38.7002C57.2782 38.6308 57.2041 38.5285 57.1587 38.473C57.1133 38.4175 57.0289 38.3272 56.9713 38.2728C56.9137 38.2185 56.811 38.1331 56.7427 38.0826C56.6744 38.032 56.5435 37.9521 56.4524 37.9051C56.3612 37.8581 56.221 37.7966 56.1407 37.7688C56.0605 37.741 55.9245 37.7035 55.8383 37.685L55.6814 37.651H53.6774H51.6741ZM38.2245 37.6872L37.1511 37.6914C36.1756 37.695 36.0688 37.6975 35.9912 37.7205C35.9442 37.7345 35.8652 37.7655 35.8151 37.7894C35.765 37.8133 35.683 37.8653 35.6334 37.9051C35.5838 37.9449 35.5155 38.011 35.4815 38.0521C35.4474 38.0932 35.3942 38.1789 35.3629 38.2423C35.3316 38.3057 35.2945 38.3964 35.2806 38.4439C35.2566 38.5256 35.2551 38.8046 35.2515 43.4856L35.2479 48.4406H36.7039H38.1599V44.1522V39.8637H38.7448C39.1367 39.8637 39.3281 39.8594 39.3248 39.8495C39.3221 39.8414 39.0737 39.3517 38.7725 38.7612L38.2245 37.6872ZM65.2025 37.7596V41.8933C65.2025 45.0896 65.1988 46.0321 65.1854 46.0454C65.1722 46.0586 64.8837 46.0625 63.9708 46.0618C62.8873 46.061 62.7647 46.0586 62.6788 46.0362C62.6266 46.0226 62.5464 45.9885 62.5006 45.961C62.4548 45.9334 62.3851 45.8759 62.3459 45.8332C62.3066 45.7904 62.2557 45.7177 62.2323 45.6713C62.2089 45.625 62.1795 45.5498 62.1677 45.5045C62.1488 45.4325 62.1464 44.9444 62.1464 41.6498C62.1464 39.5749 62.1427 37.8665 62.1379 37.854C62.13 37.8334 61.9916 37.8313 60.7195 37.8313C59.4475 37.8313 59.309 37.8334 59.3012 37.854C59.2963 37.8665 59.2926 39.7238 59.2926 41.9813C59.2926 44.809 59.2968 46.135 59.3075 46.2435C59.3161 46.3301 59.3391 46.4774 59.3587 46.5708C59.3782 46.6641 59.4173 46.807 59.4453 46.8881C59.4732 46.9691 59.5315 47.1091 59.5745 47.199C59.6174 47.2889 59.6957 47.428 59.7484 47.5085C59.8011 47.5891 59.8845 47.7039 59.9344 47.7634C59.9842 47.8228 60.0698 47.9146 60.1239 47.9671C60.1781 48.0196 60.2609 48.0937 60.3085 48.1318C60.3561 48.1699 60.4537 48.2396 60.525 48.2866C60.5964 48.3335 60.7197 48.4032 60.799 48.4413C60.8783 48.4795 61.0112 48.5334 61.095 48.5613C61.1789 48.5892 61.3186 48.6254 61.4053 48.6415C61.4919 48.6576 61.5855 48.6734 61.6133 48.6763C61.641 48.6792 63.3348 48.683 65.3778 48.6841L69.0927 48.6862L68.9947 48.4804C68.9408 48.3674 68.7075 47.8972 68.4765 47.4354L68.057 46.5956V42.1779V37.7596H66.6294H65.2025ZM42.8253 37.7922C40.3027 37.7883 39.7002 37.791 39.706 37.8057C39.71 37.8158 39.9736 38.3203 40.2917 38.9266L40.8702 40.0291V43.0312V46.0334H40.5167H40.1639V47.3523V48.6713H42.3333H44.5028V47.3523V46.0334H44.1492H43.7957L43.8 43.3322L43.8035 40.6304L43.8468 40.5679C43.8708 40.5337 43.9224 40.4868 43.9611 40.4628L44.0314 40.4188L44.649 40.4146L45.2666 40.4103V41.4993V42.5883H46.7666H48.2666L48.2609 41.3523C48.2561 40.2692 48.2523 40.101 48.2311 39.9936C48.2178 39.9262 48.1907 39.813 48.1708 39.7416C48.1508 39.6702 48.1116 39.5534 48.0842 39.4818C48.0567 39.4102 48.0051 39.2939 47.9692 39.2241C47.9332 39.1543 47.8675 39.0437 47.8236 38.9778C47.7798 38.9119 47.6935 38.7968 47.6313 38.7222C47.569 38.6476 47.4669 38.5408 47.4048 38.4851C47.3427 38.4293 47.2391 38.3451 47.1748 38.2977C47.1105 38.2502 47.0046 38.18 46.9391 38.1422C46.8736 38.1045 46.7766 38.0545 46.724 38.0308C46.6714 38.007 46.5784 37.9685 46.5167 37.9456C46.455 37.9226 46.3511 37.8906 46.286 37.8739C46.2209 37.8572 46.119 37.8326 46.0596 37.8199C45.9629 37.7994 45.6187 37.7966 42.8253 37.7922ZM73.2243 37.8448L72.1864 37.8497C71.2387 37.8542 71.1409 37.8566 71.0619 37.8803C71.0144 37.8945 70.9384 37.9244 70.893 37.947C70.8475 37.9696 70.7812 38.0082 70.7453 38.0329C70.7094 38.0576 70.6456 38.1131 70.604 38.1557C70.5625 38.1983 70.5071 38.2686 70.4805 38.3126C70.4539 38.3566 70.416 38.433 70.396 38.4823C70.3761 38.5316 70.3506 38.6211 70.34 38.681C70.3239 38.771 70.3204 39.6446 70.3201 43.695V48.5996H71.7761H73.2313V44.3183V40.0369H73.7879C74.0938 40.0369 74.342 40.032 74.3395 40.0256C74.3368 40.0191 74.0846 39.5252 73.7794 38.9288L73.2243 37.8448Z" fill="white"/>
</svg>
