<svg width="501" height="138" viewBox="0 0 501 138" fill="none" xmlns="http://www.w3.org/2000/svg">
<g clip-path="url(#clip0_79_8)">
<mask id="mask0_79_8" style="mask-type:luminance" maskUnits="userSpaceOnUse" x="0" y="0" width="501" height="138">
<path d="M501 0H0V138H501V0Z" fill="white"/>
</mask>
<g mask="url(#mask0_79_8)">
<path d="M494 7H10V132H494V7Z" fill="#181818"/>
<path d="M15.093 136.105C8.5187 134.502 4.55734 130.854 1.75014 123.817C1.3972 122.932 1.25684 107.324 1.25684 68.9592C1.25684 20.1134 1.32248 15.1444 1.99389 13.1595C3.55603 8.54135 6.79884 4.93964 11.4437 2.66392L14.3225 1.25342H249.725C476.604 1.25342 485.193 1.28274 486.9 2.05977C490.893 3.87695 491.775 4.45667 494.18 6.84085C495.679 8.32671 497.311 10.5587 498.22 12.3676L499.744 15.402V68.6802V121.958L498.194 125.044C496.336 128.744 492.628 132.673 489.504 134.253C484.122 136.976 503.712 136.775 249.366 136.721C62.1543 136.682 16.9735 136.563 15.093 136.105ZM485.35 130.392C489.298 128.706 492.231 125.956 494.107 122.179L495.315 119.748V68.9012C495.315 20.8497 495.272 17.9474 494.514 16.1006C492.673 11.612 488.723 7.93467 484.413 6.69494C482.877 6.25327 458.854 6.11116 369.42 6.01458L256.369 5.89249V68.6835V131.474L369.863 131.359C480.758 131.246 483.403 131.224 485.35 130.392ZM285.601 110.4C281.912 109.695 276.837 106.908 274.181 104.128C269.291 99.0099 266.999 92.2823 266.999 83.0498C266.999 75.6103 268.108 71.2036 271.227 66.2484C274.043 61.7743 278.264 58.5519 283.678 56.7439C287.05 55.6177 295.182 55.5192 298.583 56.5634C302.666 57.817 306.098 59.8776 308.641 62.6027C309.086 63.0789 309.664 63.3361 309.926 63.1743C310.253 62.973 310.403 57.7967 310.403 46.768V30.6559H314.832H319.261V70.0066V109.357H314.832H310.403V106.262C310.403 104.56 310.241 103.167 310.043 103.167C309.845 103.167 309.102 103.772 308.393 104.512C306.679 106.297 303.474 108.318 300.577 109.44C298.724 110.157 296.998 110.379 292.466 110.481C289.299 110.553 286.21 110.517 285.601 110.4ZM299.842 102.083C302.866 100.888 304.454 99.6492 306.545 96.8533C308.006 94.8991 308.568 93.6587 309.904 89.4295C310.646 87.0825 310.522 79.3854 309.691 76.146C308.444 71.2865 305.136 66.9683 301.159 65.0089C298.83 63.861 294.058 62.8055 292.526 63.099C287.88 63.9885 286.696 64.3808 284.579 65.7322C281.358 67.7894 279.214 70.4362 277.754 74.1586C276.62 77.049 276.522 77.7822 276.527 83.2709C276.532 89.4473 276.894 91.2297 278.933 95.1201C282.687 102.284 291.722 105.292 299.842 102.083ZM342.412 110.247C331.238 107.872 326.149 97.204 331.872 88.1536C334.672 83.7259 341.228 80.8188 350.929 79.7036C352.878 79.4795 355.967 79.0949 357.794 78.8489C359.621 78.6027 362.062 78.4028 363.219 78.4044L365.323 78.4069L365.313 74.317C365.298 68.4142 363.763 65.3351 359.787 63.238C358.317 62.4629 357.223 62.3009 353.365 62.2874C349.342 62.2723 348.45 62.4092 346.762 63.2941C343.71 64.8931 342.06 67.322 341.582 70.9189C341.304 73.0084 341.233 73.1008 339.91 73.0924C338.194 73.0824 332.452 72.2682 332.181 71.9978C331.816 71.6334 333.499 66.2741 334.55 64.454C335.752 62.3728 338.892 59.3584 340.985 58.2783C344.739 56.3403 347.159 55.8575 353.102 55.861C359.188 55.8635 361.92 56.4034 366.209 58.4462C369.812 60.1623 372.763 63.6588 373.804 67.4448C374.132 68.6368 374.423 75.1556 374.586 84.9682L374.845 100.593L375.891 101.438C376.601 102.012 377.631 102.283 379.102 102.283H381.267V105.719V109.156L378.929 109.698C375.925 110.396 375.26 110.382 372.514 109.568C369.798 108.763 367.933 107.03 367.113 104.548C366.781 103.545 366.39 102.725 366.244 102.725C366.098 102.725 365.482 103.174 364.875 103.724C359.43 108.659 355.772 110.206 348.935 110.467C346.378 110.565 343.442 110.466 342.412 110.247ZM357.351 102.146C362.904 99.5137 365.222 95.6606 365.635 88.3745L365.9 83.713L364.836 83.7393C364.252 83.7544 362.777 83.9519 361.559 84.1794C360.341 84.407 358.049 84.7941 356.465 85.0399C344.735 86.8604 339.17 90.3332 339.199 95.8153C339.209 97.7718 340.887 100.489 342.96 101.906C345.157 103.409 345.956 103.56 350.929 103.416C354.151 103.322 355.382 103.079 357.351 102.146ZM434.638 110.505C434.394 110.413 433.06 110.003 431.674 109.593C424.759 107.552 421 102.717 421.008 95.872C421.018 87.6672 425.781 83.0901 437.074 80.4376C439.702 79.8201 444.609 79.2314 453.461 78.4714L456.783 78.1862L456.713 74.2582C456.574 66.4853 453.383 62.8087 446.256 62.2072C442.241 61.8685 438.856 62.5517 436.61 64.1538C434.746 65.4838 433.087 68.3279 433.087 70.1946C433.087 73.1408 432.304 73.4403 426.756 72.6165L423.489 72.1315L423.845 69.8887C424.314 66.9228 426.176 63.3347 428.372 61.1647C430.123 59.4333 434.013 57.285 437.105 56.3409C439.184 55.7063 449.637 55.7189 451.658 56.3584C458.866 58.6395 461.767 60.6407 464.004 64.8743L465.198 67.1326L465.461 82.6075C465.737 98.8083 465.99 100.962 467.718 101.886C468.23 102.159 469.624 102.289 470.816 102.175L472.983 101.967L472.855 105.503L472.727 109.038L470.291 109.672C464.537 111.171 459.284 108.652 458.067 103.811C457.917 103.214 457.707 102.725 457.601 102.725C457.495 102.725 456.21 103.721 454.746 104.937C449.888 108.973 446.497 110.246 439.953 110.491C437.273 110.591 434.881 110.597 434.638 110.505ZM448.621 102.136C451.629 100.711 453.846 98.5664 455.465 95.5177C456.515 93.539 456.715 92.5574 456.902 88.4661C457.149 83.0371 457.468 83.3709 452.797 84.1762C443.117 85.8448 439.119 86.7179 437.646 87.4852C436.966 87.8393 436.188 88.1302 435.918 88.1317C435.648 88.1332 434.506 88.9436 433.38 89.9326C429.197 93.6089 429.645 99.0553 434.377 102.037C436.666 103.48 437.198 103.578 441.946 103.434C445.408 103.329 446.59 103.099 448.621 102.136ZM397.31 109.477C396.138 109.072 394.956 108.222 394.21 107.246L393.005 105.669L392.783 85.0745L392.562 64.4798L388.243 64.3532L383.925 64.2267V60.7056V57.1844H388.354H392.783V49.0048V40.8251H397.212H401.641V48.3054C401.641 52.4195 401.762 56.1004 401.91 56.485C402.133 57.0635 403.013 57.1844 407.004 57.1844H411.828V60.7071V64.2297L406.845 64.3548L401.863 64.4799L401.747 81.4196C401.619 100.037 401.813 101.925 403.97 103.148C404.888 103.667 405.602 103.702 407.692 103.327C409.114 103.073 410.627 102.712 411.053 102.526C411.754 102.221 411.828 102.521 411.828 105.685V109.181L409.255 109.711C405.849 110.413 399.675 110.292 397.31 109.477ZM51.2138 109.423C51.529 109.223 52.9719 105.894 54.4204 102.024C55.8688 98.1539 57.2552 94.6421 57.5012 94.2198C57.7472 93.7976 57.9553 93.2007 57.9636 92.8934C57.9718 92.5861 58.3637 91.5389 58.8343 90.5661C59.305 89.5934 59.6969 88.5885 59.7051 88.3331C59.7134 88.0776 59.9693 87.3309 60.2738 86.6737L60.8274 85.4789L76.0728 85.5907L91.3182 85.7025L92.5058 89.0186C93.159 90.8424 93.922 92.8948 94.2014 93.5794C94.4809 94.2639 94.7095 95.0127 94.7095 95.2434C94.7095 95.474 94.8918 96.0082 95.1146 96.4305C95.3374 96.8528 96.4602 99.7848 97.6096 102.946C98.7591 106.107 99.8967 108.943 100.137 109.247C100.642 109.883 110.485 110.033 111.454 109.419C111.899 109.138 108.621 99.9692 97.2685 69.7438L82.5038 30.4348L76.6487 30.3114L70.7937 30.1881L69.942 32.08C68.6895 34.8623 67.9014 36.7975 67.011 39.2777C66.5745 40.4936 66.0509 41.6774 65.8476 41.9084C65.6443 42.1396 65.4767 42.6369 65.4752 43.0138C65.4737 43.3907 65.2168 44.1965 64.9044 44.8045C64.5919 45.4124 63.97 46.9047 63.5223 48.1205C63.0745 49.3364 62.4454 50.9282 62.1241 51.6577C61.8029 52.3872 60.8186 54.8743 59.9369 57.1845C59.0552 59.4947 58.1508 61.7828 57.9271 62.2691C57.7034 62.7555 56.8161 65.0435 55.9555 67.3538C55.0948 69.6639 54.1979 71.952 53.9624 72.4384C53.7269 72.9248 52.83 75.2128 51.9693 77.523C51.1087 79.8332 50.214 82.1213 49.9811 82.6077C49.7483 83.094 49.1482 84.5862 48.6476 85.9237C48.1469 87.2612 47.5468 88.7534 47.314 89.2398C47.0811 89.7261 46.1864 92.0143 45.3258 94.3244C44.4651 96.6346 43.5682 98.9227 43.3327 99.4091C42.0889 101.978 39.7869 108.713 39.9807 109.217C40.1486 109.654 41.5094 109.798 45.4226 109.793C48.2925 109.79 50.8985 109.622 51.2138 109.423ZM64.6071 75.4228C64.6154 75.2403 65.0072 74.2953 65.4779 73.3226C65.9486 72.3499 66.3404 71.328 66.3487 71.0519C66.357 70.7757 66.6614 69.9799 67.0253 69.2833C67.3892 68.5868 67.6882 67.6804 67.6897 67.2692C67.6912 66.858 67.8764 66.4081 68.1012 66.2694C68.3261 66.1307 68.6504 65.3793 68.8219 64.5997C68.9934 63.8202 69.3111 62.8774 69.5279 62.5046C69.7447 62.1319 71.2806 58.1833 72.9409 53.7301C74.6012 49.2768 76.1384 45.6298 76.357 45.6256C76.5756 45.6206 77.2777 47.0763 77.9172 48.8589C78.5567 50.6413 79.1868 52.3982 79.3174 52.763C79.448 53.1277 80.1744 55.1274 80.9316 57.2066C81.6887 59.2859 82.3082 61.146 82.3082 61.3402C82.3082 61.5345 82.5847 62.3202 82.9227 63.0865C83.2607 63.8528 84.3398 66.6683 85.3208 69.3433C86.3017 72.0183 87.2424 74.5551 87.4111 74.9806C87.6985 75.7056 86.9888 75.7544 76.155 75.7544C69.7954 75.7544 64.5989 75.6052 64.6071 75.4228ZM171.235 104.604L171.361 99.6301H151.858H132.356V65.1972C132.356 36.3034 132.257 30.6819 131.739 30.253C131.331 29.9146 129.421 29.7842 126.092 29.8672L121.062 29.9925L120.948 69.3433C120.885 90.9861 120.929 108.944 121.046 109.25C121.214 109.69 126.479 109.783 146.184 109.692L171.11 109.578L171.235 104.604ZM231.027 104.604L231.153 99.6301H211.65H192.148V64.942V30.2538L190.709 29.9895C189.917 29.8442 187.376 29.7855 185.062 29.8589L180.854 29.9925L180.74 69.3433C180.677 90.9861 180.722 108.944 180.838 109.25C181.006 109.69 186.271 109.783 205.976 109.692L230.902 109.578L231.027 104.604Z" fill="white" stroke="white" stroke-width="3.77953"/>
</g>
</g>
<defs>
<clipPath id="clip0_79_8">
<rect width="501" height="138" fill="white"/>
</clipPath>
</defs>
</svg>
