<svg width="106" height="23" viewBox="0 0 106 23" fill="none" xmlns="http://www.w3.org/2000/svg">
<path d="M19.8112 19.6531L3.99974 16.2578C3.90009 16.2365 3.86071 16.1141 3.92893 16.0377L14.7453 3.9019C14.8133 3.82534 14.9378 3.85206 14.9693 3.94992L19.9646 19.4809C19.996 19.579 19.9107 19.6744 19.8112 19.6531ZM24.7831 16.3753C20.7736 12.1452 17.7557 6.94982 16.0951 1.17127C15.9632 0.711706 15.5532 0.391602 15.0796 0.391602L10.5814 0.391803C10.1078 0.391803 9.69802 0.711907 9.56595 1.17127C7.90528 6.95002 4.88766 12.1452 0.877899 16.3753C0.5501 16.7215 0.481676 17.241 0.719569 17.6555L2.96622 21.5647C3.20352 21.9774 3.68089 22.1754 4.13957 22.062C6.92546 21.3734 9.83467 21.0035 12.8306 21.0035C15.8263 21.0035 18.7356 21.3734 21.5214 22.062C21.9803 22.1754 22.4577 21.9774 22.6948 21.5647L24.9414 17.6555C25.1797 17.241 25.1111 16.7215 24.7831 16.3753Z" fill="white"/>
<path d="M36.6639 12.5369L38.7473 7.62601L40.8479 12.5369H36.6639ZM37.534 4.00781L31.2773 18.4758H34.1872L35.6105 15.1003H41.9016L43.3052 18.4758H46.2948L40.0382 4.00781H37.534Z" fill="white"/>
<path d="M51.2577 4.10742H48.4434V18.4753H58.5335V15.8522H51.2577V4.10742Z" fill="white"/>
<path d="M74.2772 12.5369L76.3606 7.62601L78.4614 12.5369H74.2772ZM75.1474 4.00781L68.8906 18.4758H71.8004L73.2238 15.1003H79.515L80.9187 18.4758H83.9083L77.6517 4.00781H75.1474Z" fill="white"/>
<path d="M89.0758 4.10742H86.2617V18.4753H89.0758V4.10742Z" fill="white"/>
<path d="M95.8591 6.73075H99.2071C100.932 6.73075 101.883 7.49213 101.883 8.87462C101.883 10.2093 100.865 11.0384 99.2267 11.0384H95.8591V6.73075ZM101.554 13.0969C103.581 12.4352 104.736 10.8589 104.736 8.73476C104.736 5.88055 102.693 4.10742 99.4048 4.10742H93.0449V18.4753H95.8591V13.6018H98.6137L102.014 18.4753H105.351L101.554 13.0969Z" fill="white"/>
<path d="M57.6855 4.10742V6.83222H62.0519V18.4755H64.9456V6.83222H69.3121V4.10742H57.6855Z" fill="white"/>
</svg>
