<svg width="142" height="30" viewBox="0 0 142 30" fill="none" xmlns="http://www.w3.org/2000/svg">
<path d="M25.9617 26.0001L4.61865 21.4169C4.48413 21.3881 4.43097 21.2229 4.52306 21.1198L19.1235 4.73835C19.2153 4.63501 19.3834 4.67109 19.4258 4.80318L26.1687 25.7676C26.2111 25.9 26.096 26.0288 25.9617 26.0001ZM32.673 21.5755C27.2607 15.8656 23.1871 8.85258 20.9454 1.05243C20.7674 0.432091 20.2141 0 19.5748 0L13.5028 0.000271244C12.8635 0.000271244 12.3104 0.432362 12.1322 1.05243C9.89051 8.85285 5.8172 15.8656 0.404648 21.5755C-0.0378292 22.0429 -0.130191 22.744 0.190927 23.3036L3.22356 28.5804C3.54387 29.1375 4.18825 29.4047 4.8074 29.2517C8.56791 28.3222 12.4949 27.8228 16.5389 27.8228C20.5827 27.8228 24.5097 28.3222 28.2702 29.2517C28.8896 29.4047 29.534 29.1375 29.8541 28.5804L32.8867 23.3036C33.2083 22.744 33.1157 22.0429 32.673 21.5755Z" fill="white"/>
<path d="M48.7086 16.3953L51.5208 9.76634L54.3563 16.3953H48.7086ZM49.883 4.88232L41.4375 24.4119H45.3653L47.2866 19.8555H55.7785L57.6733 24.4119H61.7087L53.2633 4.88232H49.883Z" fill="white"/>
<path d="M68.4094 5.01733H64.6105V24.4118H78.2306V20.871H68.4094V5.01733Z" fill="white"/>
<path d="M99.4831 16.3957L102.295 9.76682L105.131 16.3957H99.4831ZM100.658 4.88281L92.2121 24.4124H96.1399L98.0612 19.856H106.553L108.448 24.4124H112.484L104.038 4.88281H100.658Z" fill="white"/>
<path d="M119.457 5.01709H115.658V24.4116H119.457V5.01709Z" fill="white"/>
<path d="M128.614 8.55818H133.133C135.462 8.55818 136.745 9.58592 136.745 11.4521C136.745 13.2537 135.371 14.3728 133.16 14.3728H128.614V8.55818ZM136.302 17.1514C139.037 16.2582 140.597 14.1306 140.597 11.2633C140.597 7.41054 137.839 5.01709 133.4 5.01709H124.815V24.4116H128.614V17.8331H132.332L136.923 24.4116H141.427L136.302 17.1514Z" fill="white"/>
<path d="M77.0851 5.01733V8.6954H82.979V24.4121H86.8851V8.6954H92.779V5.01733H77.0851Z" fill="white"/>
</svg>
