<svg width="118" height="28" viewBox="0 0 118 28" fill="none" xmlns="http://www.w3.org/2000/svg">
<path d="M66.1359 7.12722L62.4441 22.0463C61.9688 24.1074 62.2143 25.5208 63.1754 26.2635C64.0752 27.023 65.3621 27.3822 67.0376 27.3611C69.6923 27.3611 71.7524 26.4081 73.2216 24.4919H73.3068L72.7316 26.8803H80.0017L84.8866 7.12722H77.6021L74.3648 20.1598C73.9611 21.7422 73.0543 22.5274 71.6313 22.5122C70.2562 22.5274 69.7772 21.7422 70.197 20.1598L73.4276 7.12722H66.1359ZM55.5359 7.12722L50.6513 26.8731H57.9215L62.8275 7.12722H55.5359ZM101.578 6.57487C98.9088 6.57487 96.8318 7.5582 95.3445 9.5227H95.2593L95.8416 7.11297H88.4862L83.5801 26.866H90.8788L94.1164 13.8335C94.517 12.251 95.422 11.4711 96.8284 11.4952C98.2232 11.4711 98.7096 12.255 98.2909 13.8409L95.0536 26.866H102.331L105.568 13.8335C105.976 12.251 106.9 11.4711 108.345 11.4952C109.752 11.4711 110.236 12.251 109.807 13.8335L106.584 26.866H109.8C112.082 26.866 114.253 25.3409 114.763 23.251L117.567 11.9615C118.056 9.89114 117.84 8.45298 116.921 7.64365C115.972 6.91885 114.637 6.56589 112.916 6.57487C111.758 6.57487 110.625 6.80367 109.509 7.2492C108.353 7.7127 107.331 8.50283 106.435 9.62332C106.255 8.59943 105.794 7.83128 105.05 7.32072C104.292 6.8241 103.134 6.57487 101.578 6.57487ZM18.0418 6.48167L17.4454 17.3482H13.0717L18.0418 6.48167ZM44.0698 1.07365L38.8229 22.0819C38.2639 24.2006 38.4322 25.5666 39.32 26.192C40.1107 26.805 41.6143 27.0951 43.8353 27.0741C45.1148 27.0741 46.4869 27.0115 47.9534 26.8877L49.0466 22.5051H47.8327C46.6202 22.5203 46.1333 22.0023 46.3843 20.9558L48.7058 11.5454H51.7589L52.845 7.1201H49.8134L51.3611 1.07365H44.0698ZM33.3275 0.81543L26.8738 26.8731H34.1513L40.6262 0.81543H33.3275ZM20.0155 0.81543C16.3939 0.948254 13.3494 2.9496 11.6307 5.99403L0.540588 26.8731L8.93278 26.866L10.8994 22.3475H17.1754L16.9342 26.8731H25.3331L24.3607 0.81543H20.0155Z" fill="white"/>
</svg>
