<svg width="102" height="32" viewBox="0 0 102 32" fill="none" xmlns="http://www.w3.org/2000/svg">
<path d="M17.1527 0H10.2748L0 25.3348H6.87835L17.1527 0Z" fill="white"/>
<path d="M18.7271 0.798828L15.2734 9.31377L21.7708 25.3346H29.0623L18.7271 0.798828Z" fill="white"/>
<path d="M41.4924 7.29956C40.2605 7.29956 39.1529 7.55139 38.1717 8.05326C37.1882 8.55513 36.3889 9.28481 35.7732 10.2427V7.73069H30.5508V25.3545H35.9154V15.483C35.9154 14.2875 36.2532 13.3292 36.9288 12.6111C37.6031 11.8934 38.4976 11.5334 39.6114 11.5334C40.5362 11.5334 41.2154 11.8089 41.6549 12.3597C42.0931 12.9105 42.3124 13.7843 42.3124 14.9803V25.3528H47.6771V14.7284C47.6771 12.2395 47.1671 10.3793 46.1484 9.14599C45.1284 7.91622 43.5764 7.29956 41.4924 7.29956Z" fill="white"/>
<path d="M60.5222 14.9811L57.5732 14.2995C56.8628 14.1077 56.3643 13.9053 56.0802 13.6895C55.7975 13.4724 55.6552 13.1743 55.6552 12.7921C55.6552 12.2662 55.8909 11.8595 56.3643 11.5721C56.8373 11.2847 57.4895 11.1414 58.3193 11.1414C60.1188 11.1414 61.9434 11.7865 63.791 13.0795L65.2126 9.49118C64.2644 8.79666 63.199 8.25874 62.0157 7.87567C60.8318 7.49392 59.611 7.30127 58.3563 7.30127C56.8857 7.30127 55.5782 7.54153 54.4296 8.01893C53.281 8.49722 52.3931 9.1566 51.766 9.99261C51.137 10.8308 50.8239 11.8003 50.8239 12.9002C50.8239 14.2888 51.222 15.3833 52.0148 16.1842C52.8071 16.9868 54.0473 17.5781 55.7292 17.9612L58.5716 18.6085C59.4481 18.7999 60.0452 19.017 60.3659 19.2541C60.6856 19.4939 60.8459 19.8285 60.8459 20.2597C60.8459 20.7393 60.6156 21.1157 60.154 21.3902C59.692 21.6656 59.0451 21.8022 58.2175 21.8022C57.0566 21.8022 55.9085 21.6229 54.7709 21.2652C53.6351 20.9043 52.5922 20.4029 51.6435 19.7573L50.2236 23.4898C51.1939 24.1839 52.3491 24.716 53.687 25.0875C55.0246 25.4577 56.5004 25.6437 58.1101 25.6437C60.4553 25.6437 62.2962 25.1592 63.6355 24.1892C64.9735 23.2193 65.642 21.8863 65.642 20.1876C65.642 18.7763 65.2342 17.656 64.4172 16.8315C63.5954 16.0035 62.3002 15.3891 60.5222 14.9811Z" fill="white"/>
<path d="M100.149 16.83C99.3319 16.0038 98.0358 15.3893 96.2596 14.9813L93.3097 14.2997C92.6006 14.1079 92.1021 13.9055 91.8176 13.6897C91.534 13.4726 91.3917 13.1745 91.3917 12.7923C91.3917 12.2664 91.6291 11.8598 92.1021 11.5723C92.5755 11.2849 93.2278 11.1416 94.0571 11.1416C95.8562 11.1416 97.6817 11.7868 99.5296 13.0797L100.949 9.49143C100.002 8.7969 98.936 8.25899 97.7517 7.87591C96.5674 7.49417 95.3479 7.30151 94.0923 7.30151C92.6244 7.30151 91.3146 7.54177 90.1665 8.01918C89.0166 8.49747 88.1287 9.15684 87.5016 9.99285C86.8748 10.8311 86.56 11.8006 86.56 12.9004C86.56 14.289 86.9559 15.3835 87.7508 16.1844C88.5436 16.987 89.7807 17.5783 91.4639 17.9614L94.3064 18.6088C95.1823 18.8001 95.7813 19.0172 96.101 19.2544C96.4221 19.4942 96.5802 19.8288 96.5802 20.2599C96.5802 20.7395 96.3499 21.1159 95.8883 21.3905C95.4268 21.6659 94.7811 21.8024 93.9518 21.8024C92.7909 21.8024 91.6423 21.6231 90.5056 21.2654C89.3685 20.9046 88.3242 20.4032 87.3774 19.7576L85.957 23.49C86.9281 24.1841 88.082 24.7163 89.4213 25.0878C90.7593 25.4579 92.2325 25.6439 93.8448 25.6439C96.1891 25.6439 98.0309 25.1594 99.3702 24.1895C100.708 23.2195 101.377 21.8865 101.377 20.1878C101.374 18.7747 100.966 17.6562 100.149 16.83Z" fill="white"/>
<path d="M80.4366 7.75269L76.2421 18.0936L72.0463 7.75269H66.8631L73.6503 24.4849L70.6766 31.8155H75.859L85.6189 7.75269H80.4366Z" fill="white"/>
</svg>
