<svg width="81" height="26" viewBox="0 0 81 26" fill="none" xmlns="http://www.w3.org/2000/svg">
<path d="M13.9717 0.416992H8.54397L0.435547 20.3575H5.86364L13.9717 0.416992Z" fill="white"/>
<path d="M15.2138 1.04492L12.4883 7.74686L17.6157 20.3565H23.3698L15.2138 1.04492Z" fill="white"/>
<path d="M33.1795 6.16016C32.2074 6.16016 31.3333 6.35836 30.559 6.75338C29.7829 7.14839 29.1521 7.7227 28.6662 8.47666V6.49949H24.5449V20.3709H28.7785V12.6012C28.7785 11.6602 29.045 10.9059 29.5782 10.3407C30.1103 9.77587 30.8162 9.49256 31.6951 9.49256C32.425 9.49256 32.9609 9.70933 33.3078 10.1429C33.6536 10.5764 33.8267 11.2642 33.8267 12.2055V20.3695H38.0602V12.0073C38.0602 10.0483 37.6578 8.58417 36.8539 7.61344C36.0489 6.64552 34.8242 6.16016 33.1795 6.16016Z" fill="white"/>
<path d="M48.1936 12.2058L45.8664 11.6693C45.3058 11.5183 44.9123 11.359 44.6882 11.1892C44.465 11.0183 44.3528 10.7836 44.3528 10.4828C44.3528 10.0689 44.5387 9.74883 44.9123 9.52261C45.2856 9.29638 45.8003 9.18362 46.4551 9.18362C47.8752 9.18362 49.3151 9.6914 50.7731 10.709L51.895 7.88477C51.1468 7.33812 50.306 6.91474 49.3721 6.61323C48.4379 6.31277 47.4745 6.16113 46.4843 6.16113C45.3238 6.16113 44.292 6.35024 43.3855 6.72599C42.4791 7.10244 41.7785 7.62142 41.2835 8.27943C40.7872 8.93919 40.5401 9.70225 40.5401 10.5679C40.5401 11.6609 40.8543 12.5223 41.4799 13.1527C42.1052 13.7844 43.0839 14.2498 44.4112 14.5513L46.6543 15.0609C47.3459 15.2114 47.8172 15.3823 48.0702 15.569C48.3225 15.7577 48.449 16.0211 48.449 16.3604C48.449 16.7379 48.2673 17.0342 47.903 17.2502C47.5385 17.467 47.0279 17.5745 46.3748 17.5745C45.4587 17.5745 44.5526 17.4334 43.6549 17.1518C42.7586 16.8678 41.9355 16.4732 41.1869 15.965L40.0664 18.9028C40.8321 19.4491 41.7437 19.8679 42.7996 20.1603C43.8551 20.4517 45.0197 20.5981 46.29 20.5981C48.1408 20.5981 49.5935 20.2167 50.6505 19.4533C51.7063 18.6899 52.2339 17.6407 52.2339 16.3037C52.2339 15.1929 51.9121 14.3111 51.2674 13.6622C50.6188 13.0105 49.5967 12.5269 48.1936 12.2058Z" fill="white"/>
<path d="M79.4671 13.6608C78.8224 13.0105 77.7996 12.5269 76.3979 12.2058L74.07 11.6693C73.5104 11.5183 73.117 11.359 72.8925 11.1892C72.6686 11.0183 72.5564 10.7836 72.5564 10.4828C72.5564 10.0689 72.7437 9.74883 73.117 9.52261C73.4906 9.29638 74.0053 9.18362 74.6598 9.18362C76.0795 9.18362 77.5201 9.6914 78.9785 10.709L80.0986 7.88477C79.3514 7.33812 78.51 6.91474 77.5754 6.61323C76.6408 6.31277 75.6785 6.16113 74.6876 6.16113C73.5292 6.16113 72.4956 6.35024 71.5895 6.72599C70.682 7.10244 69.9814 7.62142 69.4864 8.27943C68.9919 8.93919 68.7434 9.70225 68.7434 10.5679C68.7434 11.6609 69.0558 12.5223 69.6832 13.1527C70.3088 13.7844 71.285 14.2498 72.6134 14.5513L74.8565 15.0609C75.5478 15.2114 76.0204 15.3823 76.2728 15.569C76.5261 15.7577 76.6509 16.0211 76.6509 16.3604C76.6509 16.7379 76.4691 17.0342 76.1049 17.2502C75.7407 17.467 75.2312 17.5745 74.5767 17.5745C73.6606 17.5745 72.7541 17.4334 71.8571 17.1518C70.9597 16.8678 70.1357 16.4732 69.3884 15.965L68.2676 18.9028C69.0339 19.4491 69.9445 19.8679 71.0014 20.1603C72.0573 20.4517 73.2199 20.5981 74.4923 20.5981C76.3423 20.5981 77.7958 20.2167 78.8527 19.4533C79.9082 18.6899 80.4365 17.6407 80.4365 16.3037C80.4337 15.1915 80.1119 14.3111 79.4671 13.6608Z" fill="white"/>
<path d="M63.9108 6.51855L60.6007 14.6577L57.2896 6.51855H53.1992L58.5554 19.6881L56.2087 25.4579H60.2983L68.0005 6.51855H63.9108Z" fill="white"/>
</svg>
