<svg width="72" height="41" viewBox="0 0 72 41" fill="none" xmlns="http://www.w3.org/2000/svg">
<g clip-path="url(#clip0_72_16)">
<path d="M1.43965 1.62012L36.5396 7.71012L69.7597 1.73012L69.6897 32.8901L37.0396 27.3501L1.13965 33.4401" fill="white"/>
<path d="M7.79998 16.0602C7.75157 16.0116 7.69385 15.9733 7.63027 15.9475C7.56669 15.9217 7.49857 15.9091 7.42998 15.9102H7.28998L4.59998 16.3902C4.47818 16.4116 4.36799 16.4757 4.28919 16.571C4.21038 16.6663 4.16812 16.7866 4.16998 16.9102V23.3402C4.16996 23.4817 4.22547 23.6176 4.32459 23.7186C4.42371 23.8196 4.5585 23.8776 4.69998 23.8802H4.77998L7.51998 23.3902C7.64005 23.3653 7.74805 23.3002 7.8262 23.2057C7.90435 23.1112 7.94801 22.9929 7.94998 22.8702C7.94998 19.5702 7.94998 16.4402 7.94998 16.4402C7.95167 16.2988 7.89782 16.1624 7.79998 16.0602Z" fill="#181818"/>
<path d="M14.7397 21.6998V15.2598C14.739 15.1906 14.7245 15.1222 14.697 15.0587C14.6696 14.9952 14.6297 14.9377 14.5797 14.8898C14.5313 14.8412 14.4736 14.8029 14.41 14.7771C14.3464 14.7513 14.2783 14.7387 14.2097 14.7398H14.1197L11.7197 15.1598V22.0398C11.7197 22.183 11.7766 22.3204 11.8779 22.4217C11.9792 22.5229 12.1165 22.5798 12.2597 22.5798H12.3097L14.3097 22.2398C14.4306 22.2166 14.5397 22.152 14.6182 22.0571C14.6966 21.9622 14.7396 21.8429 14.7397 21.7198" fill="#181818"/>
<path d="M66.5302 5.49023H66.4402L63.3202 6.04023L62.7402 19.9202L66.6402 19.2402C66.7657 19.219 66.8796 19.1542 66.9619 19.0573C67.0442 18.9603 67.0897 18.8374 67.0902 18.7102V6.02023C67.0914 5.95164 67.0787 5.88352 67.0529 5.81995C67.0272 5.75637 66.9888 5.69865 66.9402 5.65023C66.8391 5.54964 66.7029 5.49228 66.5602 5.49023" fill="#181818"/>
<path d="M21.56 20.4899V14.0599C21.558 13.9172 21.5006 13.781 21.4 13.6799C21.3516 13.6313 21.2939 13.5929 21.2303 13.5671C21.1668 13.5414 21.0986 13.5287 21.03 13.5299H20.95L18.54 13.9499V20.8299C18.54 20.9704 18.5959 21.1052 18.6953 21.2046C18.7947 21.304 18.9295 21.3599 19.07 21.3599L21.07 21.0099C21.191 20.9866 21.3 20.922 21.3785 20.8271C21.4569 20.7322 21.4999 20.613 21.5 20.4899" fill="#181818"/>
<path d="M27.1898 12.93C27.1553 12.8168 27.087 12.7168 26.9941 12.6435C26.9011 12.5702 26.788 12.5271 26.6698 12.52H26.5698L24.9898 12.79C24.8687 12.8109 24.7586 12.8731 24.6784 12.9661C24.5981 13.0592 24.5527 13.1772 24.5498 13.3L25.9298 25.8C25.9423 25.9317 26.0036 26.054 26.1017 26.1429C26.1997 26.2317 26.3275 26.2806 26.4598 26.28H26.5698L30.0298 25.67C30.1682 25.6344 30.2877 25.5473 30.3639 25.4264C30.4401 25.3056 30.4673 25.1602 30.4398 25.02" fill="#181818"/>
<path d="M67.9296 18.71C67.9307 19.0448 67.8109 19.3687 67.5923 19.6222C67.3737 19.8757 67.0709 20.0418 66.7396 20.09L62.3196 20.86L61.7796 20.95V20.42L62.4296 5.67V5.32L62.7796 5.26L66.2396 4.65C66.3194 4.64037 66.3999 4.64037 66.4796 4.65C66.6634 4.64733 66.8458 4.68139 67.0162 4.75018C67.1866 4.81896 67.3416 4.92108 67.472 5.05056C67.6024 5.18003 67.7056 5.33425 67.7756 5.50415C67.8456 5.67406 67.881 5.85624 67.8796 6.04L67.9296 18.71ZM42.9296 27.04L67.9296 22.63V31.49L42.9296 27.04ZM42.7396 24.1H39.2596L39.0796 23.49H42.8696L42.7396 24.1ZM42.5596 24.69H39.4396L39.3196 24.3H42.6296L42.5596 24.69ZM42.4196 25.13H39.5696L39.4996 24.9H42.4496L42.4196 25.13ZM42.3196 25.48H39.6696V25.35H42.3596V25.48H42.3196ZM38.8396 22.61H43.1996L42.9697 23.33H39.0196L38.8396 22.61ZM38.5196 21.61H43.5196L43.2696 22.44H38.7396L38.5196 21.61ZM38.2096 20.61L37.9596 21.43H32.7996L32.4896 20.43H35.0996L35.3596 21.27L35.6196 20.43H40.7396L40.9996 21.27L41.2496 20.43H43.8396L43.5296 21.43H38.4196L38.2096 20.61ZM37.6396 22.46H33.1196L32.8596 21.63H37.8596L37.6396 22.46ZM37.3596 23.38H33.3997L33.1796 22.66H37.5396L37.3596 23.38ZM37.1196 24.15H33.6396L33.4596 23.49H37.2596L37.1196 24.15ZM36.9396 24.74H33.8196L33.7396 24.3H37.0596L36.9396 24.74ZM36.7996 25.18H33.9496L33.8796 24.95H36.8796L36.7996 25.18ZM36.7096 25.53H34.0496V25.4H36.7396V25.53H36.7096ZM32.1396 19.13H34.7396L35.0696 20.22H32.4296L32.1396 19.13ZM31.6996 17.69H34.2996L34.6796 18.93H32.0396L31.6996 17.69ZM31.2396 16.2H33.8496L34.1996 17.49H31.5996L31.2396 16.2ZM30.2396 26.59L26.7396 27.15C26.6499 27.1598 26.5594 27.1598 26.4696 27.15C26.1182 27.1513 25.7792 27.0204 25.5198 26.7833C25.2605 26.5461 25.0998 26.2201 25.0696 25.87L23.6796 13.37C23.6758 13.0376 23.792 12.715 24.007 12.4615C24.2219 12.208 24.5211 12.0406 24.8496 11.99L26.4196 11.72C26.5027 11.7105 26.5866 11.7105 26.6696 11.72C26.9705 11.7219 27.2628 11.82 27.5039 12C27.745 12.1799 27.9222 12.4322 28.0096 12.72L31.2696 24.85C31.2849 24.9662 31.2849 25.0838 31.2696 25.2C31.2693 25.5224 31.1576 25.8348 30.9535 26.0844C30.7495 26.334 30.4655 26.5055 30.1497 26.57M22.1496 27.98L20.1396 22.06L18.9496 22.28C18.8359 22.3051 18.7342 22.3684 18.6614 22.4594C18.5886 22.5504 18.5492 22.6635 18.5496 22.78V28.62L17.7296 28.74C17.7296 28.74 17.7296 15.67 17.7296 13.21L20.8496 12.67H21.0696C21.4438 12.6706 21.8028 12.8178 22.0696 13.08C22.2013 13.2109 22.3054 13.3668 22.3758 13.5385C22.4462 13.7103 22.4815 13.8944 22.4796 14.08V20.49C22.4803 20.8157 22.3665 21.1314 22.1581 21.3818C21.9498 21.6321 21.6601 21.8014 21.3396 21.86L21.0596 21.91L23.1496 27.79L22.1496 27.98ZM15.4396 29.14L13.3496 23.27L12.1496 23.48C12.0383 23.513 11.94 23.5799 11.8684 23.6712C11.7967 23.7626 11.7552 23.874 11.7496 23.99V29.8L10.9196 29.95C10.9196 29.95 10.9196 16.87 10.9196 14.42L14.0396 13.87H14.2596C14.6275 13.8726 14.9795 14.0199 15.2396 14.28C15.4997 14.5401 15.647 14.8922 15.6496 15.26V21.7C15.6483 22.0252 15.5338 22.3398 15.3258 22.5898C15.1178 22.8398 14.8292 23.0096 14.5096 23.07L14.2296 23.12L16.3096 28.99L15.4396 29.14ZM7.95965 30.49V24.78C7.94469 24.6483 7.88095 24.5271 7.78099 24.4401C7.68104 24.3531 7.55212 24.3067 7.41965 24.31H7.34965L4.54965 24.81C4.44152 24.8442 4.34723 24.9123 4.28063 25.0041C4.21403 25.0959 4.17864 25.2066 4.17965 25.32V31.12L3.30965 31.27V16.92C3.31051 16.5962 3.42359 16.2827 3.62962 16.0329C3.83566 15.7831 4.12192 15.6125 4.43965 15.55L7.13965 15.07H7.41965C7.60526 15.0681 7.78938 15.1034 7.96113 15.1738C8.13288 15.2442 8.28878 15.3484 8.41965 15.48C8.55318 15.6095 8.65853 15.7651 8.72909 15.9372C8.79964 16.1093 8.83388 16.2941 8.82965 16.48V30.29L7.95965 30.49ZM3.27965 3.49L28.0896 7.86L3.27965 12.19V3.49ZM31.4396 8.49L32.0796 10.59H29.4697L28.6796 8L31.4396 8.49ZM32.7396 12.49H30.0896L29.5396 10.68H32.1396L32.7396 12.49ZM33.2696 14.24H30.6696L30.1896 12.69H32.7396L33.2696 14.24ZM33.7396 15.95H31.1396L30.7396 14.49H33.3396L33.7396 15.95ZM37.3696 9.49L37.7396 10.49H35.0896L34.6196 8.95L37.3696 9.49ZM36.0096 19.1H40.3196L40.6497 20.19H35.6497L36.0096 19.1ZM40.0996 14.3H36.2396L35.7396 12.73H40.5496L40.0996 14.3ZM36.4496 17.66H39.8796L40.2596 18.9H36.0796L36.4496 17.66ZM39.5796 15.97H36.7396L36.2996 14.49H40.0296L39.5796 15.97ZM36.8096 16.17H39.5196V16.33L39.8196 17.49H36.5196L36.8596 16.36L36.8096 16.17ZM38.5796 10.74H41.1896L40.6296 12.49H35.7396L35.1896 10.68H38.6196L38.5796 10.74ZM38.9596 9.49L41.7396 8.98L41.2496 10.49H38.6396L38.9596 9.49ZM44.2296 19.1L43.8997 20.19H41.2996L41.6296 19.1H44.2296ZM44.6796 17.66L44.2996 18.9H41.7396L42.1196 17.66H44.6796ZM42.5296 16.17H45.1296L44.7396 17.49H42.1296L42.5296 16.17ZM43.0396 14.49H45.6497L45.1996 15.96H42.5896L43.0396 14.49ZM43.5796 12.74H46.1896L45.7396 14.28H43.0996L43.5796 12.74ZM44.1896 10.74H46.7996L46.2496 12.49H43.6396L44.1896 10.74ZM44.8997 8.44L47.6596 7.95L46.8596 10.49H44.2496L44.8997 8.44ZM50.4096 7.44H50.6796L55.0596 6.66L54.9196 7.58L51.1096 8.25L49.4096 14.57L52.6196 14L52.4697 14.91L49.1596 15.49L47.2296 22.67L52.4496 21.76L52.2996 22.67L46.7096 23.67L46.0396 23.79L46.2096 23.13L50.3396 7.72L50.4096 7.44ZM58.1096 6.08L55.6796 21.16L60.1196 20.38V21.26L55.2696 22.12L54.6696 22.22L54.7596 21.62L57.2396 6.24L58.1096 6.08ZM70.8196 0.300003L36.4596 6.3L0.389648 0V34.49L34.5496 28.49L70.8296 34.88" fill="#181818"/>
<path d="M2.16 37.6998L2.6 39.2398H1.74L2.16 37.6998ZM1.49 36.5898L0 40.8798H1.26L1.47 40.1698H2.86L3.06 40.8798H4.36L2.85 36.5898H1.49Z" fill="white"/>
<path d="M6.02023 38.3298H6.54023C6.65199 38.321 6.76256 38.3009 6.87024 38.2698C6.91069 38.2629 6.94931 38.2479 6.98371 38.2255C7.01811 38.2032 7.04756 38.174 7.07024 38.1398C7.12172 38.0665 7.14962 37.9793 7.15023 37.8898C7.15443 37.831 7.14588 37.7719 7.12517 37.7167C7.10446 37.6615 7.07208 37.6114 7.03024 37.5698C6.89122 37.4794 6.72494 37.4404 6.56023 37.4598H6.02023V38.3298ZM4.74023 40.8798V36.5898H6.84023C7.1375 36.5805 7.4344 36.6176 7.72023 36.6998C7.92111 36.774 8.09287 36.9107 8.21024 37.0898C8.3349 37.2979 8.39736 37.5373 8.39024 37.7798C8.39464 37.9779 8.34824 38.1738 8.25547 38.3488C8.16269 38.5239 8.02662 38.6722 7.86023 38.7798C7.72229 38.8569 7.57417 38.9141 7.42023 38.9498C7.63493 39.0071 7.82042 39.1426 7.94024 39.3298C8.00505 39.4144 8.06196 39.5048 8.11023 39.5998L8.74023 40.8798H7.31023L6.65023 39.5698C6.59967 39.4462 6.52486 39.334 6.43023 39.2398C6.34245 39.1773 6.23797 39.1424 6.13023 39.1398H6.02023V40.8798" fill="white"/>
<path d="M10.3699 38.33H10.8999L11.2299 38.2701C11.2703 38.2632 11.309 38.2481 11.3434 38.2258C11.3778 38.2034 11.4072 38.1742 11.4299 38.1401C11.4814 38.0668 11.5093 37.9796 11.5099 37.8901C11.515 37.8302 11.5059 37.77 11.4833 37.7144C11.4607 37.6588 11.4253 37.6093 11.3799 37.5701C11.2454 37.4778 11.0815 37.4386 10.9199 37.4601H10.3699V38.33ZM9.12988 40.8801V36.5901H11.1999C11.4939 36.5798 11.7877 36.6169 12.0699 36.7001C12.2746 36.7672 12.4485 36.9056 12.5599 37.0901C12.6925 37.2951 12.7588 37.536 12.7499 37.7801C12.7544 37.995 12.7064 38.2079 12.6099 38.4001C12.5116 38.5697 12.3745 38.7136 12.2099 38.8201C12.0763 38.8989 11.9312 38.9563 11.7799 38.9901C11.8932 39.029 12.0008 39.0828 12.0999 39.1501C12.173 39.2173 12.2399 39.2909 12.2999 39.3701C12.361 39.4571 12.4178 39.5473 12.4699 39.6401L13.0699 40.8801H11.6699L11.0099 39.5701C10.9564 39.4456 10.8781 39.3333 10.7799 39.2401C10.693 39.1758 10.588 39.1408 10.4799 39.1401H10.3699V40.8801" fill="white"/>
<path d="M14.4599 38.7399C14.4347 39.0684 14.5115 39.3967 14.6799 39.6799C14.7569 39.7672 14.8515 39.8371 14.9575 39.8849C15.0636 39.9328 15.1786 39.9576 15.2949 39.9576C15.4112 39.9576 15.5262 39.9328 15.6323 39.8849C15.7383 39.8371 15.833 39.7672 15.9099 39.6799C16.0814 39.3763 16.1548 39.027 16.1199 38.6799C16.147 38.3671 16.0696 38.0541 15.8999 37.7899C15.8248 37.7014 15.7313 37.6303 15.626 37.5816C15.5207 37.5328 15.406 37.5075 15.2899 37.5075C15.1738 37.5075 15.0591 37.5328 14.9538 37.5816C14.8485 37.6303 14.755 37.7014 14.6799 37.7899C14.5129 38.07 14.4361 38.3947 14.4599 38.7199M13.2199 38.7199C13.1828 38.1337 13.3686 37.5551 13.7399 37.0999C14.1631 36.7287 14.7069 36.5239 15.2699 36.5239C15.8329 36.5239 16.3767 36.7287 16.7999 37.0999C17.1814 37.5465 17.375 38.1236 17.3399 38.7099C17.3596 39.1355 17.2809 39.5598 17.1099 39.9499C16.9583 40.2589 16.7226 40.5189 16.4299 40.6999C16.0883 40.8906 15.7009 40.984 15.3099 40.9699C14.9225 40.9835 14.5377 40.9011 14.1899 40.7299C13.8824 40.5639 13.6316 40.3097 13.4699 39.9999C13.2772 39.6122 13.1844 39.1826 13.1999 38.7499" fill="white"/>
<path d="M17.5195 36.5898H18.6995L19.1295 38.9798L19.7495 36.5898H20.9195L21.5395 38.9798L21.9595 36.5898H23.1395L22.2495 40.8798H21.0395L20.3295 38.1798L19.6295 40.8798H18.4095" fill="white"/>
<path d="M23.54 36.5898H26.86V37.5098H24.78V38.1898H26.7V39.0598H24.78V39.9098H26.92V40.8798H23.54" fill="white"/>
<path d="M27.5801 36.5898H28.8301V39.8198H30.7601V40.8798H27.5801" fill="white"/>
<path d="M32.5798 37.5602V39.9101H32.8898C33.0777 39.9234 33.266 39.8925 33.4398 39.8202C33.5785 39.7528 33.686 39.6346 33.7398 39.4902C33.8119 39.2504 33.8424 39.0002 33.8298 38.7502C33.8636 38.4255 33.7898 38.0988 33.6198 37.8202C33.5317 37.7278 33.424 37.6564 33.3045 37.6114C33.1851 37.5664 33.057 37.5489 32.9298 37.5602H32.5798ZM31.3398 36.5602H33.1798C33.4812 36.5506 33.7811 36.6051 34.0598 36.7202C34.2792 36.8242 34.471 36.9784 34.6198 37.1702C34.7661 37.3783 34.8713 37.6125 34.9298 37.8602C34.9993 38.1313 35.033 38.4103 35.0298 38.6901C35.0424 39.0521 34.9951 39.4136 34.8898 39.7601C34.7975 39.9959 34.658 40.2102 34.4798 40.3902C34.3273 40.552 34.1338 40.6695 33.9198 40.7301C33.6801 40.8051 33.431 40.8456 33.1798 40.8502H31.3398" fill="white"/>
<path d="M38.8396 36.5898H37.5996V40.8798H38.8396V36.5898Z" fill="white"/>
<path d="M39.4404 36.5898H43.2104V37.6498H41.9504V40.8798H40.7004V37.6498H39.4404" fill="white"/>
<path d="M45.5902 39.2398L45.1502 37.6998L44.7402 39.2398H45.5902ZM45.8502 40.1698H44.4502L44.2502 40.8798H42.9902L44.4802 36.5898H45.8402L47.3502 40.8798H46.0502" fill="white"/>
<path d="M47.7402 36.5898H48.9802V39.8198H50.9202V40.8798H47.7402" fill="white"/>
<path d="M52.7703 36.5898H51.5303V40.8798H52.7703V36.5898Z" fill="white"/>
<path d="M55.8598 39.2398L55.4198 37.6998L54.9898 39.2398H55.8598ZM56.1198 40.1698H54.7398L54.5398 40.8798H53.2598L54.7398 36.5898H56.0998L57.6098 40.8798H56.3098" fill="white"/>
<path d="M59.6602 39.4901L60.8402 39.4101C60.8501 39.5768 60.9017 39.7384 60.9902 39.8801C61.0524 39.9663 61.1355 40.0354 61.2317 40.0809C61.3279 40.1263 61.434 40.1467 61.5402 40.1401C61.6884 40.1509 61.8352 40.1043 61.9502 40.0101C61.9933 39.9706 62.028 39.9228 62.0521 39.8695C62.0762 39.8162 62.0891 39.7585 62.0902 39.7001C62.0902 39.6438 62.0787 39.5882 62.0564 39.5365C62.034 39.4849 62.0012 39.4385 61.9602 39.4001C61.7699 39.2738 61.5553 39.1886 61.3302 39.1501C60.9024 39.0786 60.4998 38.8997 60.1602 38.6301C60.0455 38.5251 59.9549 38.3965 59.8945 38.2533C59.8341 38.1101 59.8053 37.9555 59.8102 37.8001C59.8097 37.5805 59.8722 37.3653 59.9902 37.1801C60.1205 36.9741 60.3082 36.8107 60.5302 36.7101C60.8486 36.5871 61.1893 36.5326 61.5302 36.5501C61.9421 36.523 62.352 36.6281 62.7002 36.8501C62.8464 36.9732 62.9649 37.1261 63.0476 37.2985C63.1304 37.4709 63.1755 37.6589 63.1802 37.8501L62.0202 37.9301C61.9997 37.7724 61.9297 37.6253 61.8202 37.5101C61.7017 37.4152 61.5516 37.3687 61.4002 37.3801C61.2863 37.3719 61.1731 37.4037 61.0802 37.4701C61.0447 37.499 61.0164 37.5357 60.9973 37.5773C60.9783 37.6189 60.969 37.6643 60.9702 37.7101C60.9711 37.7463 60.9796 37.7819 60.9951 37.8146C61.0106 37.8473 61.0328 37.8764 61.0602 37.9001C61.1879 37.9812 61.3308 38.0357 61.4802 38.0601C61.8817 38.1358 62.2717 38.2635 62.6402 38.4401C62.8538 38.5416 63.0316 38.7055 63.1502 38.9101C63.2603 39.105 63.3156 39.3262 63.3102 39.5501C63.3102 39.8177 63.2376 40.0804 63.1002 40.3101C62.9583 40.5433 62.7491 40.7281 62.5002 40.8401C62.1849 40.9755 61.8429 41.0371 61.5002 41.0201C61.2447 41.0303 60.9897 40.9887 60.7508 40.8976C60.5119 40.8065 60.294 40.6678 60.1102 40.4901C59.8581 40.2128 59.7005 39.8626 59.6602 39.4901Z" fill="white"/>
<path d="M65.1602 38.4198H65.4702C65.6467 38.4338 65.8228 38.388 65.9702 38.2898C66.019 38.248 66.0578 38.1957 66.0838 38.1369C66.1097 38.078 66.1222 38.0141 66.1202 37.9498C66.1221 37.824 66.0755 37.7023 65.9902 37.6098C65.9264 37.5542 65.8515 37.5128 65.7704 37.4887C65.6893 37.4645 65.604 37.4581 65.5202 37.4698H65.1602V38.4198ZM63.9202 36.5898H65.9802C66.161 36.5781 66.3424 36.602 66.514 36.6604C66.6856 36.7187 66.844 36.8103 66.9802 36.9298C67.0994 37.0659 67.19 37.2245 67.2467 37.3963C67.3034 37.5681 67.325 37.7495 67.3102 37.9298C67.3198 38.1121 67.2929 38.2944 67.2311 38.4662C67.1693 38.6379 67.0737 38.7955 66.9502 38.9298C66.6386 39.1923 66.2363 39.3217 65.8302 39.2898H65.1502V40.8898H63.9102" fill="white"/>
<path d="M69.7396 39.2398L69.3096 37.6998L68.8696 39.2398H69.7396ZM70.0096 40.1698H68.6096L68.4096 40.8798H67.1396L68.6296 36.5898H69.9996L71.4996 40.8798H70.2096" fill="white"/>
</g>
<defs>
<clipPath id="clip0_72_16">
<rect width="71.46" height="40.95" fill="white"/>
</clipPath>
</defs>
</svg>
