<svg width="125" height="24" viewBox="0 0 125 24" fill="none" xmlns="http://www.w3.org/2000/svg">
<path d="M0.292244 22.7354C0.541874 21.8869 0.650312 21.7307 0.989336 21.7307C1.32353 21.7307 1.4379 21.8862 1.67176 22.6588C1.85743 23.2722 2.01145 23.529 2.1259 23.4162C2.22115 23.3223 2.49391 23.2135 2.73204 23.1745L3.165 23.1035L2.71237 22.911C2.33565 22.7508 2.03931 22.3804 2.03931 22.0699C2.03931 21.8657 2.89774 21.4766 3.1406 21.5707C3.55667 21.7317 3.50101 22.1549 3.07841 22.0434C2.6318 21.9255 2.62351 22.2839 3.06955 22.4268C3.49684 22.5636 3.69103 23.1543 3.41788 23.4864C3.12488 23.8426 1.42006 23.8359 1.28394 23.478C1.22912 23.3338 1.06491 23.2159 0.919047 23.2159C0.773181 23.2159 0.653837 23.3338 0.653837 23.478C0.653837 23.6221 0.505965 23.7401 0.325234 23.7401C0.00637736 23.7401 0.00539831 23.7103 0.292244 22.7354ZM3.77115 23.4885C3.77115 23.3089 3.93368 23.214 4.2474 23.2104L4.72366 23.2051L4.2474 22.8466C3.98546 22.6494 3.77115 22.3354 3.77115 22.1488C3.77115 21.7697 4.47552 21.4172 4.90266 21.5826C5.24423 21.7149 5.12483 22.0965 4.76205 22.0321C4.29517 21.9491 4.27961 22.2813 4.74045 22.4931C5.08096 22.6497 5.16709 22.8023 5.12469 23.1739C5.07728 23.5894 4.98388 23.6602 4.42059 23.7072C3.92463 23.7486 3.77115 23.6967 3.77115 23.4885ZM5.5994 23.3517C5.21747 22.8016 5.26384 22.3929 5.76565 21.8866C6.45318 21.1929 7.40801 21.6646 7.40801 22.698C7.40801 23.657 6.13158 24.1183 5.5994 23.3517ZM6.78272 22.9411C6.91608 22.5905 6.5832 21.9502 6.31389 22.0393C6.20127 22.0765 6.08471 22.3565 6.05486 22.6615C6.01058 23.1139 6.06289 23.2159 6.33941 23.2159C6.52575 23.2159 6.72524 23.0923 6.78272 22.9411ZM7.85334 23.4655C7.57061 23.1802 7.49263 22.3967 7.71374 22.0626C8.07854 21.5114 9.40635 21.3694 9.20328 21.9033C9.15609 22.0274 8.98069 22.0928 8.8135 22.0487C8.40847 21.9418 8.04404 22.4109 8.1847 22.858C8.25751 23.0895 8.44608 23.2159 8.71856 23.2159C8.97759 23.2159 9.13985 23.3168 9.13985 23.478C9.13985 23.8335 8.20908 23.8244 7.85334 23.4655ZM9.48622 22.6917C9.48622 21.8763 9.54395 21.6433 9.746 21.6433C9.94805 21.6433 10.0058 21.8763 10.0058 22.6917C10.0058 23.5071 9.94804 23.7401 9.746 23.7401C9.54395 23.7401 9.48622 23.5071 9.48622 22.6917ZM10.2501 23.4555C10.3097 23.299 10.4442 22.8272 10.549 22.4071C10.7017 21.7951 10.8153 21.6433 11.1204 21.6433C11.4287 21.6433 11.5566 21.8208 11.7926 22.576C11.9529 23.089 12.084 23.5608 12.084 23.6244C12.084 23.8565 11.5507 23.7326 11.4539 23.478C11.399 23.3338 11.254 23.2159 11.1315 23.2159C11.009 23.2159 10.8639 23.3338 10.8091 23.478C10.7542 23.6221 10.5817 23.7401 10.4256 23.7401C10.2346 23.7401 10.1773 23.6471 10.2501 23.4555ZM12.261 23.5312C12.2631 23.4059 12.4173 23.1067 12.6035 22.8664C13.0306 22.3155 13.0306 22.2296 12.6035 22.1169C11.962 21.9476 12.2402 21.6433 13.0365 21.6433C13.9104 21.6433 14.0026 21.8293 13.4695 22.517C13.0334 23.0795 13.0393 23.1796 13.5128 23.2474C14.2104 23.3474 13.9234 23.6514 13.0798 23.706C12.4903 23.7442 12.2583 23.6946 12.261 23.5312ZM14.1622 22.6917C14.1622 21.8763 14.2199 21.6433 14.422 21.6433C14.624 21.6433 14.6817 21.8763 14.6817 22.6917C14.6817 23.5071 14.624 23.7401 14.422 23.7401C14.2199 23.7401 14.1622 23.5071 14.1622 22.6917ZM15.1245 23.3517C14.7276 22.78 14.7951 22.2404 15.3151 21.8276C16.0564 21.2393 16.9331 21.7109 16.9331 22.698C16.9331 23.657 15.6567 24.1183 15.1245 23.3517ZM16.3078 22.9411C16.4412 22.5905 16.1083 21.9502 15.839 22.0393C15.7264 22.0765 15.6098 22.3565 15.58 22.6615C15.5357 23.1139 15.588 23.2159 15.8645 23.2159C16.0509 23.2159 16.2504 23.0923 16.3078 22.9411ZM17.1063 22.6917C17.1063 21.7778 17.1486 21.6433 17.4357 21.6433C17.6179 21.6433 17.9261 21.897 18.1255 22.2112L18.486 22.7791L18.4889 22.2112C18.4909 21.8242 18.5746 21.6433 18.7516 21.6433C18.9536 21.6433 19.0114 21.8763 19.0114 22.6917C19.0114 23.6194 18.972 23.7401 18.6691 23.7401C18.4501 23.7401 18.2035 23.5043 17.9841 23.0848L17.6412 22.4296L17.6336 23.0848C17.6281 23.5474 17.5495 23.7401 17.3661 23.7401C17.1641 23.7401 17.1063 23.5071 17.1063 22.6917ZM19.1845 22.6917V21.6433H19.8773C20.2583 21.6433 20.57 21.7219 20.57 21.818C20.57 21.9141 20.4141 21.9928 20.2236 21.9928C20.0331 21.9928 19.8773 22.0714 19.8773 22.1675C19.8773 22.2636 20.0331 22.3422 20.2236 22.3422C20.4161 22.3422 20.57 22.4587 20.57 22.6043C20.57 22.7499 20.4161 22.8664 20.2236 22.8664C19.7567 22.8664 19.7809 23.1773 20.2534 23.2474C20.4602 23.2781 20.6615 23.4015 20.7008 23.5217C20.7508 23.6751 20.5359 23.7401 19.9783 23.7401H19.1845L19.1845 22.6917ZM21.5429 22.7714C21.3738 22.2301 21.2772 21.7452 21.3282 21.6937C21.5459 21.4741 21.9324 21.8378 22.0512 22.3741L22.1796 22.9538L22.386 22.3422C22.6242 21.636 23.2912 21.3236 23.0732 22.0204C22.644 23.3918 22.5052 23.6563 22.1895 23.7041C21.9149 23.7456 21.7918 23.5682 21.5429 22.7714ZM23.4374 23.3517C23.0554 22.8016 23.1018 22.3929 23.6036 21.8866C24.2911 21.1929 25.246 21.6646 25.246 22.698C25.246 23.657 23.9695 24.1183 23.4374 23.3517ZM24.646 22.8469C24.7773 22.4293 24.3558 21.8793 24.0503 22.0698C23.9459 22.1349 23.8605 22.4194 23.8605 22.702C23.8605 23.0934 23.9403 23.2159 24.1952 23.2159C24.3837 23.2159 24.5806 23.0547 24.646 22.8469ZM25.4192 22.6917C25.4192 21.7598 25.4576 21.6433 25.7655 21.6433C26.0606 21.6433 26.1119 21.7598 26.1119 22.4296C26.1119 23.0994 26.1632 23.2159 26.4583 23.2159C26.6507 23.2159 26.8046 23.3324 26.8046 23.478C26.8046 23.6673 26.6122 23.7401 26.1119 23.7401H25.4192V22.6917ZM27.0742 23.3517C26.6923 22.8016 26.7387 22.3929 27.2405 21.8866C27.928 21.1929 28.8828 21.6646 28.8828 22.698C28.8828 23.657 27.6064 24.1183 27.0742 23.3517ZM28.2575 22.9411C28.3909 22.5905 28.058 21.9502 27.7887 22.0393C27.6761 22.0765 27.5595 22.3565 27.5297 22.6615C27.4854 23.1139 27.5377 23.2159 27.8142 23.2159C28.0006 23.2159 28.2001 23.0923 28.2575 22.9411ZM29.056 22.6917C29.056 21.7572 29.0939 21.6433 29.4049 21.6433C29.6127 21.6433 29.8926 21.873 30.097 22.2112L30.4402 22.7791L30.4408 22.2112C30.4413 21.8232 30.5238 21.6433 30.7013 21.6433C30.9033 21.6433 30.961 21.8763 30.961 22.6917C30.961 23.5855 30.915 23.7401 30.6487 23.7401C30.4702 23.7401 30.1751 23.4594 29.96 23.0848L29.5835 22.4296L29.5795 23.0848C29.5767 23.549 29.4998 23.7401 29.3158 23.7401C29.1137 23.7401 29.056 23.5071 29.056 22.6917ZM31.6538 22.9538C31.6538 22.3713 31.5864 22.1675 31.394 22.1675C31.2511 22.1675 31.1342 22.0496 31.1342 21.9054C31.1342 21.7112 31.3363 21.6433 31.9136 21.6433C32.4908 21.6433 32.6929 21.7112 32.6929 21.9054C32.6929 22.0496 32.576 22.1675 32.4331 22.1675C32.2407 22.1675 32.1733 22.3713 32.1733 22.9538C32.1733 23.5362 32.106 23.7401 31.9136 23.7401C31.7211 23.7401 31.6538 23.5362 31.6538 22.9538ZM32.5909 23.4555C32.6504 23.299 32.7849 22.8272 32.8898 22.4071C33.046 21.7811 33.1526 21.6433 33.4805 21.6433C33.8156 21.6433 33.9248 21.7967 34.1527 22.5875C34.3023 23.1069 34.4247 23.5786 34.4247 23.6359C34.4247 23.8596 33.8887 23.7252 33.7946 23.478C33.7398 23.3338 33.5947 23.2159 33.4722 23.2159C33.3497 23.2159 33.2046 23.3338 33.1498 23.478C33.095 23.6221 32.9224 23.7401 32.7664 23.7401C32.5754 23.7401 32.518 23.6471 32.5909 23.4555ZM34.5979 22.6917V21.6433H35.2846C36.0198 21.6433 36.4377 22.058 36.1597 22.5118C36.0794 22.6429 36.0849 22.9383 36.1718 23.169C36.3837 23.7312 36.3808 23.7401 35.9834 23.7401C35.7525 23.7401 35.637 23.6236 35.637 23.3906C35.637 23.1984 35.5591 23.0412 35.4638 23.0412C35.3686 23.0412 35.2906 23.1984 35.2906 23.3906C35.2906 23.6236 35.1752 23.7401 34.9443 23.7401C34.6364 23.7401 34.5979 23.6236 34.5979 22.6917ZM35.637 22.2549C35.637 22.1107 35.5591 21.9928 35.4638 21.9928C35.3686 21.9928 35.2906 22.1107 35.2906 22.2549C35.2906 22.399 35.3686 22.517 35.4638 22.517C35.5591 22.517 35.637 22.399 35.637 22.2549ZM36.5029 22.6917C36.5029 21.8763 36.5607 21.6433 36.7627 21.6433C36.9648 21.6433 37.0225 21.8763 37.0225 22.6917C37.0225 23.5071 36.9648 23.7401 36.7627 23.7401C36.5607 23.7401 36.5029 23.5071 36.5029 22.6917ZM37.8884 22.6917V21.6433H39.1007C40.0628 21.6433 40.313 21.6974 40.313 21.9054C40.313 22.0496 40.1961 22.1675 40.0532 22.1675C39.8608 22.1675 39.7934 22.3713 39.7934 22.9538C39.7934 23.5362 39.7261 23.7401 39.5337 23.7401C39.3423 23.7401 39.2739 23.5385 39.2739 22.9742C39.2739 22.3552 39.2074 22.1907 38.9275 22.1169C38.6159 22.0346 38.5811 22.1116 38.5811 22.8828C38.5811 23.6236 38.5341 23.7401 38.2348 23.7401C37.9269 23.7401 37.8884 23.6236 37.8884 22.6917ZM40.211 23.4555C40.2705 23.299 40.405 22.8272 40.5099 22.4071C40.6661 21.7811 40.7727 21.6433 41.1006 21.6433C41.4357 21.6433 41.5449 21.7967 41.7728 22.5875C41.9224 23.1069 42.0448 23.5786 42.0448 23.6359C42.0448 23.8596 41.5088 23.7252 41.4147 23.478C41.3599 23.3338 41.2148 23.2159 41.0923 23.2159C40.9698 23.2159 40.8247 23.3338 40.7699 23.478C40.7151 23.6221 40.5425 23.7401 40.3865 23.7401C40.1955 23.7401 40.1381 23.6471 40.211 23.4555ZM42.218 22.6917C42.218 21.7598 42.2565 21.6433 42.5644 21.6433C42.8594 21.6433 42.9108 21.7598 42.9108 22.4296C42.9108 23.0994 42.9621 23.2159 43.2571 23.2159C43.4495 23.2159 43.6035 23.3324 43.6035 23.478C43.6035 23.6673 43.4111 23.7401 42.9108 23.7401H42.218V22.6917ZM43.7767 22.6917C43.7767 21.7598 43.8152 21.6433 44.123 21.6433C44.4309 21.6433 44.4694 21.7598 44.4694 22.6917C44.4694 23.6236 44.4309 23.7401 44.123 23.7401C43.8152 23.7401 43.7767 23.6236 43.7767 22.6917ZM44.6426 23.5091C44.6426 23.3821 44.7683 22.906 44.9219 22.4511C45.1461 21.7872 45.2709 21.6347 45.5548 21.6774C45.7813 21.7115 45.9834 21.9507 46.1167 22.3422C46.5959 23.7495 46.5952 23.7401 46.2129 23.7401C46.0101 23.7401 45.8549 23.6264 45.8549 23.478C45.8549 23.3338 45.7355 23.2159 45.5897 23.2159C45.4438 23.2159 45.2796 23.3338 45.2248 23.478C45.1017 23.8015 44.6426 23.826 44.6426 23.5091ZM46.7208 22.6917C46.7208 21.7655 46.7605 21.6433 47.0616 21.6433C47.2554 21.6433 47.514 21.8507 47.6608 22.1238L47.9192 22.6043L47.9262 22.1238C47.9306 21.8163 48.0266 21.6433 48.1929 21.6433C48.3949 21.6433 48.4526 21.8763 48.4526 22.6917C48.4526 23.9177 48.1786 24.0733 47.6066 23.1722L47.2462 22.6043L47.2432 23.1722C47.2413 23.5592 47.1576 23.7401 46.9806 23.7401C46.7785 23.7401 46.7208 23.5071 46.7208 22.6917ZM48.799 22.6917C48.799 21.8763 48.8567 21.6433 49.0588 21.6433C49.2608 21.6433 49.3186 21.8763 49.3186 22.6917C49.3186 23.5071 49.2608 23.7401 49.0588 23.7401C48.8567 23.7401 48.799 23.5071 48.799 22.6917ZM50.2231 23.5333C50.2644 23.4068 50.4674 23.2781 50.6743 23.2474C51.0929 23.1853 51.1954 22.8664 50.7967 22.8664C50.5766 22.8664 50.1845 22.3727 50.1845 22.0956C50.1845 21.8715 51.0264 21.4702 51.2858 21.5707C51.7018 21.7317 51.6462 22.1549 51.2236 22.0434C50.7459 21.9173 50.7902 22.1078 51.3535 22.6021C51.7445 22.9452 51.7956 23.0766 51.639 23.3364C51.4073 23.7207 50.1026 23.9022 50.2231 23.5333ZM52.0743 22.7354C52.3232 21.8894 52.4329 21.7307 52.7688 21.7307C53.1032 21.7307 53.2174 21.893 53.4758 22.7354C53.7714 23.6993 53.7713 23.7401 53.4751 23.7401C53.3051 23.7401 53.1211 23.6221 53.0663 23.478C53.0115 23.3338 52.8473 23.2159 52.7014 23.2159C52.5556 23.2159 52.4362 23.3338 52.4362 23.478C52.4362 23.6221 52.2883 23.7401 52.1076 23.7401C51.7888 23.7401 51.7874 23.7103 52.0743 22.7354ZM53.9945 22.6917C53.9945 21.7902 54.0392 21.6433 54.3131 21.6433C54.4883 21.6433 54.7382 21.8595 54.8683 22.1238L55.105 22.6043L55.1674 22.1238C55.2027 21.8523 55.3378 21.6433 55.4781 21.6433C55.6661 21.6433 55.7264 21.8978 55.7264 22.6917C55.7264 23.5887 55.6809 23.7401 55.4114 23.7401C55.229 23.7401 54.9786 23.5011 54.8163 23.1722L54.5362 22.6043L54.5252 23.1722C54.5177 23.5555 54.4297 23.7401 54.2543 23.7401C54.0523 23.7401 53.9945 23.5071 53.9945 22.6917ZM56.1692 23.3517C55.5822 22.5062 56.0706 21.6433 57.1361 21.6433C57.6209 21.6433 57.8092 21.7098 57.7541 21.8617C57.7104 21.9818 57.5789 22.0577 57.4619 22.0304C56.998 21.922 56.5923 22.1978 56.5923 22.6216C56.5923 23.0513 57.0174 23.3778 57.2492 23.1262C57.3165 23.0531 57.2742 22.9582 57.1551 22.9153C56.7784 22.7795 56.9211 22.5169 57.3716 22.5169C57.751 22.5169 57.8046 22.5926 57.8046 23.1285C57.8046 23.724 57.7867 23.7401 57.1217 23.7401C56.6123 23.7401 56.3702 23.6414 56.1692 23.3517ZM58.3588 23.5304C58.0424 23.2112 58.0856 21.6433 58.4107 21.6433C58.6038 21.6433 58.6705 21.8485 58.6705 22.4424C58.6705 23.109 58.7207 23.2319 58.9736 23.1835C59.1947 23.1411 59.2911 22.925 59.3299 22.3844C59.3662 21.8801 59.463 21.6433 59.633 21.6433C59.8159 21.6433 59.8828 21.8678 59.8828 22.482C59.8828 23.4297 59.6692 23.7401 59.0169 23.7401C58.7692 23.7401 58.4731 23.6457 58.3588 23.5304ZM60.2292 22.6917V21.6433H60.9219C61.3029 21.6433 61.6146 21.7219 61.6146 21.818C61.6146 21.9141 61.4198 21.9927 61.1817 21.9927C60.6631 21.9927 60.6 22.2944 61.1019 22.3737C61.5889 22.4507 61.6139 22.7667 61.1384 22.8349C60.6082 22.9108 60.6429 23.2159 61.1817 23.2159C61.4511 23.2159 61.6146 23.3149 61.6146 23.478C61.6146 23.6673 61.4222 23.7401 60.9219 23.7401H60.2291L60.2292 22.6917ZM62.5521 23.3045C62.1948 22.7545 62.3433 22.0915 62.907 21.7188C63.8779 21.077 64.9069 22.5197 64.1111 23.4069C63.6786 23.8891 62.8984 23.8379 62.5521 23.3045ZM63.8311 22.7637C63.8889 22.3558 63.4597 21.9015 63.1809 22.0754C63.0815 22.1374 63.0001 22.4248 63.0001 22.7141C63.0001 23.1597 63.0597 23.2316 63.3898 23.1843C63.6296 23.15 63.7993 22.9882 63.8311 22.7637ZM64.7666 23.5304C64.3013 23.061 64.6419 22.1675 65.2861 22.1675C65.4824 22.1675 65.5979 22.038 65.5979 21.818C65.5979 21.6238 65.7133 21.4685 65.8576 21.4685C66.0619 21.4685 66.1174 21.7112 66.1174 22.6043V23.7401H65.5459C65.2316 23.7401 64.8809 23.6457 64.7666 23.5304ZM65.5649 22.9101C65.4946 22.5418 65.1872 22.565 65.1089 22.9446C65.0763 23.1029 65.1717 23.2159 65.3381 23.2159C65.5165 23.2159 65.6014 23.1013 65.5649 22.9101ZM66.8942 23.5216C66.6329 22.7926 66.2906 21.7643 66.2906 21.7087C66.2906 21.6727 66.4327 21.6433 66.6064 21.6433C66.8241 21.6433 66.978 21.847 67.1015 22.2985L67.2807 22.9538L67.4164 22.3709C67.5425 21.8295 67.9147 21.4764 68.1302 21.6937C68.1812 21.7452 68.0856 22.2267 67.9179 22.7637C67.6922 23.486 67.5295 23.7401 67.2926 23.7401C67.1165 23.7401 66.9372 23.6418 66.8942 23.5216ZM56.4191 19.5361C55.3386 19.3745 52.4428 18.738 52.3466 18.6409C52.2615 18.5551 51.7493 12.8421 51.8202 12.7706C51.8509 12.7397 52.3701 12.8824 52.974 13.0877C54.5416 13.6205 56.6147 13.9545 58.3558 13.9548C59.6695 13.955 59.8724 13.914 59.9616 13.6302C60.2051 12.8561 59.5326 12.5572 57.5477 12.5572C55.3141 12.5572 52.4813 10.7048 51.5354 8.62565C50.9498 7.33839 50.9757 5.15423 51.5925 3.81253C52.2283 2.42955 52.9832 1.64657 54.3421 0.960654C56.0102 0.118647 57.4841 -0.0943346 60.7487 0.0348478C63.0385 0.125456 66.1046 0.579857 66.3561 0.86588C66.4194 0.937937 65.7756 6.31348 65.6931 6.40125C65.6687 6.42714 65.1113 6.32038 64.4544 6.16394C63.7974 6.00749 62.5426 5.86834 61.6658 5.85471C60.3346 5.83404 60.0204 5.88225 59.7608 6.14699C59.4615 6.45216 59.4652 6.47671 59.8587 6.80224C60.1151 7.01431 60.5349 7.14139 60.9844 7.14301C62.0122 7.14697 63.7297 7.58903 64.7583 8.11491C65.8431 8.66953 67.253 9.97311 67.6787 10.815C68.1932 11.8325 68.3994 13.3733 68.1816 14.5731C67.7093 17.175 65.9518 18.8432 63.0228 19.4695C61.7757 19.7363 58.0111 19.7742 56.4191 19.5361ZM5.24321 18.9938C3.91945 18.8115 2.22923 17.9762 1.50878 17.1483C0.207915 15.6534 -0.322297 13.4389 0.19738 11.6709C0.350718 11.1493 1.5522 8.36356 2.86734 5.48046L5.2585 0.238474L8.58465 0.190991C10.414 0.164905 11.9108 0.187684 11.9108 0.242102C11.9108 0.296321 11.6125 0.750153 11.248 1.25059C8.94793 4.408 7.23483 8.02208 7.23483 9.717C7.23483 10.0421 7.39636 10.687 7.59378 11.15C8.20623 12.5864 10.252 13.7375 11.76 13.4942C12.1287 13.4347 12.4304 13.4218 12.4304 13.4655C12.4304 13.7209 10.2819 18.4326 10.1178 18.5371C9.49639 18.9326 6.70041 19.1946 5.24321 18.9938ZM15.0494 18.4544C14.8774 18.0459 14.3614 16.7405 13.9027 15.5535L13.0688 13.3952L13.6203 12.9597C14.6358 12.1579 15.2195 10.4087 14.9519 8.96942C14.8597 8.47349 14.5024 7.99293 13.3965 6.87708C12.223 5.69313 11.9235 5.27941 11.757 4.61222C11.4329 3.31344 11.7496 2.17419 12.815 0.806355L13.3254 0.151106H15.1141H16.9029L17.3474 1.33056C19.0053 5.72955 23.8605 18.9443 23.8605 19.0579C23.8605 19.1344 21.9484 19.197 19.6113 19.197H15.3622L15.0494 18.4544ZM25.2743 18.8947C25.1859 18.7246 23.6517 14.536 21.8649 9.58669C20.0781 4.63738 18.5799 0.489654 18.5355 0.369526C18.4723 0.198513 19.3703 0.151461 22.673 0.152749L26.8912 0.154069L28.7843 4.95758C29.8256 7.59951 30.7381 9.76109 30.8122 9.76109C31.0626 9.76109 31.8324 8.80507 32.2193 8.01376C32.5343 7.36944 32.6039 6.92773 32.605 5.5675C32.6062 4.07418 32.5527 3.79352 32.0727 2.77177C31.7793 2.14709 31.2533 1.33015 30.9038 0.956321C30.5543 0.582491 30.2683 0.248317 30.2683 0.213705C30.2683 0.1791 32.3309 0.150764 34.8519 0.150764H39.4355L40.0151 0.735524C41.1634 1.8941 41.6967 3.7872 41.394 5.63037C40.9168 8.53604 38.3504 12.8013 34.3876 17.2746L32.7623 19.1093L29.0987 19.1564C25.7421 19.1996 25.4215 19.178 25.2743 18.8947ZM43.1453 19.0761C42.9409 19.0357 42.6292 18.8417 42.4526 18.6448C42.1502 18.3079 42.1286 17.7743 42.0834 9.53327C42.0406 1.73586 42.0046 0.745312 41.7535 0.465379C41.4829 0.163737 41.6263 0.151106 45.3218 0.151106H49.172L49.6783 0.661871L50.1845 1.17262V9.81396C50.1845 17.282 50.2198 18.4848 50.4443 18.6728C50.5871 18.7924 50.704 18.9593 50.704 19.0437C50.704 19.193 43.8859 19.2222 43.1453 19.0761ZM83.4571 18.8472C82.1319 18.5315 81.3583 17.4511 81.3579 15.9151C81.3575 14.7409 81.665 14.0044 82.4435 13.3148C83.4891 12.3885 85.311 12.3814 86.1665 13.3002C86.6895 13.8619 87.0727 14.8729 87.0727 15.6912V16.3902L85.0378 16.4394L83.0029 16.4886L83.495 16.9931C83.9717 17.4817 84.0276 17.4945 85.2702 17.3997C86.3922 17.3141 86.5534 17.3385 86.5555 17.5941C86.5568 17.7549 86.6028 18.0553 86.6577 18.2617C86.7462 18.5947 86.657 18.6588 85.8675 18.8296C84.8671 19.0461 84.3093 19.0502 83.4571 18.8472ZM85.1677 14.7538C85.1677 14.0507 84.1492 13.7239 83.5794 14.2442C82.9953 14.7775 83.1845 15.0034 84.2152 15.0034C84.9252 15.0034 85.1677 14.9399 85.1677 14.7538ZM96.5112 18.8571C95.6642 18.5073 95.4754 18.0385 95.4134 16.1314C95.3582 14.4346 95.3318 14.3214 94.9804 14.2709C94.6743 14.2269 94.5965 14.0819 94.5529 13.4745C94.5032 12.7804 94.5287 12.7319 94.9426 12.7319C95.3201 12.7319 95.3855 12.6538 95.3855 12.2034C95.3855 11.6455 95.5826 11.5063 96.7277 11.255L97.2906 11.1315V11.9317V12.7319H97.9932H98.6959L98.6427 13.4745C98.5909 14.1953 98.5704 14.2187 97.94 14.2713L97.2905 14.3256V15.5239C97.2905 17.0421 97.3826 17.2749 97.9828 17.2749C98.4094 17.2749 98.4746 17.3503 98.5493 17.9302C98.6091 18.3947 98.5546 18.649 98.362 18.8038C98.0589 19.0474 97.043 19.0767 96.5112 18.8571ZM101.014 18.7018C99.3877 17.9216 98.7581 16.2232 99.4636 14.5197C99.8634 13.5543 100.375 13.1007 101.405 12.7986C104.393 11.9221 106.573 14.8823 104.974 17.6446C104.306 18.7974 102.319 19.3279 101.014 18.7018ZM103.316 16.7319C103.598 16.2036 103.453 14.8813 103.064 14.4483C102.665 14.0028 101.876 14.039 101.543 14.5181C101.233 14.9647 101.182 16.4262 101.458 16.9468C101.884 17.7491 102.83 17.6395 103.316 16.7319ZM72.6984 15.5359V12.2244L71.616 12.1723L70.5336 12.1203L70.4808 11.2903L70.428 10.4603H73.6414H76.8548V11.334V12.2076H75.7291H74.6034V15.5276V18.8475H73.6509H72.6984L72.6984 15.5359ZM77.028 15.7897V12.7319H77.8939C78.7182 12.7319 78.7599 12.7545 78.7599 13.2014V13.6709L79.253 13.1943C79.5242 12.9321 79.9723 12.7012 80.2488 12.6811C80.7385 12.6455 80.7528 12.6683 80.8038 13.5619C80.8553 14.4648 80.8485 14.4792 80.3661 14.4792C80.0966 14.4792 79.7028 14.6016 79.4911 14.7512C79.1333 15.0041 79.1062 15.1575 79.1062 16.9354V18.8475H78.0671H77.028V15.7897ZM88.0829 16.1392C88.067 14.6496 88.0476 13.2932 88.0397 13.125C88.0282 12.8824 88.1922 12.8084 88.8334 12.7666C89.5294 12.7212 89.6577 12.7653 89.7583 13.0851C89.8651 13.4246 89.9006 13.433 90.1737 13.1837C91.091 12.3461 92.6434 12.4907 93.3419 13.4789C93.7023 13.9886 93.746 14.2715 93.8002 16.445L93.8601 18.8475H92.891H91.9219L91.9193 17.0565C91.9166 15.0287 91.7172 14.4197 91.0303 14.3387C90.1808 14.2384 90.0168 14.6449 90.0168 16.8506V18.8475H89.0643H88.1118L88.0829 16.1392ZM9.87537 12.4991C7.28576 11.5514 7.35436 8.35696 10.0514 4.30105C10.5467 3.55625 11.0017 2.94687 11.0626 2.94687C11.1235 2.94687 11.1068 3.30637 11.0254 3.74577C10.8155 4.87932 11.1389 5.52756 12.7688 7.24045C14.225 8.77089 14.4844 9.3418 14.2635 10.53C13.9506 12.213 11.7687 13.1921 9.87537 12.4991ZM73.7113 9.16948C71.8246 8.65675 70.7934 7.22948 70.7934 5.13103C70.7934 2.28709 73.0878 0.378519 76.0568 0.752785C77.3188 0.911878 77.3919 0.983483 77.1744 1.848L76.9918 2.57401L75.832 2.47591C73.86 2.3091 72.8729 3.16566 72.8729 5.04366C72.8729 6.92353 73.8596 7.77826 75.8368 7.61102L77.0014 7.51251L77.1185 8.21192C77.1829 8.5966 77.1951 8.95223 77.1455 9.00221C76.9863 9.1628 75.7481 9.40389 75.123 9.39603C74.7896 9.39207 74.1544 9.28989 73.7113 9.16948ZM79.7392 9.16617C77.9154 8.48483 77.1976 6.51177 78.1104 4.6888C79.3841 2.14498 83.246 2.53552 83.9303 5.27734C84.5703 7.84201 82.1662 10.0728 79.7392 9.16617ZM81.5701 7.53345C81.9679 7.07635 82.0918 6.50686 81.962 5.73161C81.8189 4.87731 81.4863 4.51932 80.8355 4.51932C80.1516 4.51932 79.799 5.08397 79.799 6.17927C79.799 6.69591 79.9109 7.22375 80.0686 7.45089C80.3973 7.92438 81.1918 7.96807 81.5701 7.53345ZM97.0308 9.29382C95.9056 8.99237 95.5587 8.05391 95.5587 5.31123V3.12145H96.5112H97.4637V4.94477C97.4637 7.19045 97.6122 7.66451 98.3155 7.66451C99.1726 7.66451 99.3688 7.16911 99.3688 5.00464V3.12145H100.321H101.274V6.17927V9.2371H100.408C99.6531 9.2371 99.5419 9.19153 99.5419 8.88241V8.52771L99.06 8.88724C98.5549 9.26397 97.6192 9.45146 97.0308 9.29382ZM110.507 9.15609C109.526 8.72559 109.148 7.4666 109.685 6.41897C109.988 5.82719 111.104 5.2297 111.925 5.21941C112.21 5.21611 112.561 5.13398 112.704 5.03752C112.929 4.88572 112.919 4.82734 112.628 4.60336C112.221 4.29061 111.836 4.27873 110.935 4.55106C110.176 4.78064 109.941 4.61803 109.936 3.85971C109.93 3.06978 112.162 2.68832 113.443 3.26012C114.559 3.75823 114.717 4.17396 114.833 6.92186L114.93 9.23708H114.095C113.533 9.23708 113.23 9.1559 113.166 8.9884C113.087 8.78127 112.962 8.79585 112.418 9.07575C111.652 9.46975 111.26 9.48628 110.507 9.15609ZM112.492 7.74196C112.742 7.56564 112.877 7.28904 112.877 6.95567C112.877 6.53698 112.804 6.44138 112.483 6.44138C111.566 6.44138 110.95 7.43088 111.622 7.82525C112.022 8.06048 112.045 8.05829 112.492 7.74196ZM121.369 9.20668C119.987 8.80648 119.285 7.82022 119.285 6.27831C119.285 5.7852 119.39 5.1275 119.519 4.81675C119.876 3.955 120.873 3.16461 121.776 3.02802C123.656 2.74351 125 4.03818 125 6.13444V6.79085H123.095C121.532 6.79085 121.19 6.83707 121.19 7.04846C121.19 7.5493 122.208 7.89177 123.371 7.78221L124.445 7.68099L124.56 8.30217C124.624 8.64381 124.646 8.95407 124.608 8.99163C124.501 9.09998 122.739 9.41346 122.335 9.39607C122.134 9.38742 121.699 9.30219 121.369 9.20668ZM123.095 5.14336C123.095 4.44022 122.077 4.11345 121.507 4.63376C120.923 5.16705 121.112 5.39297 122.142 5.39297C122.853 5.39297 123.095 5.32945 123.095 5.14336ZM85.1177 9.12847C85.0499 9.06008 84.9945 7.68053 84.9945 6.06279V3.12145H85.8604C86.621 3.12145 86.7263 3.1655 86.7263 3.4836V3.84575L87.1674 3.49568C87.41 3.30315 87.8384 3.09468 88.1193 3.03242C88.7714 2.88792 89.7937 3.22493 90.0247 3.66055C90.1971 3.98543 90.2188 3.98231 90.6602 3.56932C91.2365 3.03023 92.2596 2.83947 92.9023 3.15129C93.1656 3.27903 93.5592 3.65073 93.7771 3.97727C94.1407 4.52218 94.1732 4.76284 94.1732 6.90405V9.2371H93.2207H92.2682V7.30355C92.2682 5.18205 92.1232 4.69405 91.4926 4.69405C90.7438 4.69405 90.5364 5.27112 90.5364 7.35392V9.2371H89.5839H88.6314V7.17526C88.6314 5.0012 88.5332 4.69405 87.8386 4.69405C87.2085 4.69405 87.0868 5.06635 87.0354 7.15094L86.9861 9.14974L86.1135 9.20124C85.6336 9.22957 85.1855 9.19665 85.1177 9.12847ZM102.659 6.17927V3.12145H103.525C104.286 3.12145 104.391 3.1655 104.391 3.4836V3.84575L104.842 3.48819C105.858 2.6817 107.364 2.9374 108.024 4.02828C108.328 4.5314 108.373 4.908 108.374 6.92189L108.374 9.2371H107.422H106.469V7.30355C106.469 5.10202 106.335 4.69405 105.607 4.69405C104.762 4.69405 104.564 5.19751 104.564 7.35392V9.2371H103.612H102.659V6.17927ZM116.208 4.82509L116.254 0.413089H117.207H118.159L118.206 4.82509L118.252 9.2371H117.207H116.162L116.208 4.82509ZM67.3682 2.67471C66.8473 2.30654 66.8704 1.63159 67.4163 1.27068C67.8174 1.00554 67.8811 1.00554 68.2822 1.27068C68.8281 1.63159 68.8512 2.30654 68.3303 2.67471C68.1186 2.82432 67.9021 2.94672 67.8492 2.94672C67.7963 2.94672 67.5799 2.82432 67.3682 2.67471ZM68.0224 2.42252C68.0224 2.32642 67.9881 2.24778 67.9461 2.24778C67.9041 2.24778 67.8215 2.32642 67.7627 2.42252C67.7038 2.51862 67.7382 2.59725 67.839 2.59725C67.9399 2.59725 68.0224 2.51862 68.0224 2.42252ZM67.448 1.86555C67.3927 1.72617 67.3517 1.76757 67.3434 1.97113C67.3358 2.15532 67.3768 2.25852 67.4343 2.20046C67.4919 2.14241 67.498 1.99169 67.448 1.86555Z" fill="white"/>
</svg>
