<svg width="116" height="27" viewBox="0 0 116 27" fill="none" xmlns="http://www.w3.org/2000/svg">
<g clip-path="url(#clip0_391_4830)">
<path d="M40.4933 3.86388C41.5628 3.62599 42.9288 3.4773 44.4434 3.4773C46.2554 3.4773 47.9782 3.77467 49.1954 4.87299C50.1758 5.73438 50.6209 7.01112 50.6209 8.4375C50.6209 10.309 49.6108 12.002 47.6808 12.8337V12.9229C49.9676 13.5464 51.2751 15.4476 51.2751 17.8533C51.2751 19.5167 50.7408 20.8231 49.8199 21.8035C48.6611 23.1109 46.7014 23.7344 43.8199 23.7344C42.335 23.7344 41.2655 23.6452 40.4933 23.5263V3.86388ZM43.6415 11.9128H44.5623C46.1959 11.9128 47.5024 10.6063 47.5024 8.79434C47.5024 7.13103 46.7302 5.88402 44.7695 5.88402C44.2947 5.88402 43.9081 5.91376 43.6405 6.00297V11.9138L43.6415 11.9128ZM43.6415 21.18C43.9091 21.2394 44.2352 21.2692 44.6516 21.2692C46.5825 21.2692 48.0079 20.1104 48.0079 17.8236C48.0079 15.5368 46.3743 14.2888 44.5623 14.2888H43.6415V21.18ZM61.8784 14.4673H57.1264V20.8231H62.5326V23.5857H53.9485V3.56651H62.1758V6.32911H57.1264V11.8236H61.8784V14.4673ZM65.1159 23.5857V3.56651H68.0271L71.4132 12.12C72.1269 13.932 73.136 16.5162 73.7595 18.4462H73.819C73.6406 15.8917 73.4622 12.803 73.4622 9.23847V3.56651H76.2535V23.5857H73.3432L69.9274 15.061C69.1849 13.2193 68.2938 10.8135 67.7288 8.70513H67.6693C67.818 11.0217 67.9072 13.8437 67.9072 18.002V23.5857H65.1149H65.1159ZM79.7595 3.86388C80.6804 3.62599 81.9581 3.4773 83.324 3.4773C85.6406 3.4773 87.3039 4.04133 88.4924 5.14062C90.126 6.59578 91.136 9.20969 91.136 13.2193C91.136 17.5262 90.0665 20.2284 88.5519 21.7143C87.2157 23.0802 85.2559 23.7335 82.6708 23.7335C81.5725 23.7335 80.4732 23.6442 79.7605 23.5253V3.86388H79.7595ZM82.9077 21.061C83.1754 21.1205 83.4718 21.1205 83.6799 21.1205C85.8775 21.1205 87.8679 19.2788 87.8679 13.1905C87.8679 8.64662 86.5902 6.0327 83.8276 6.0327C83.5015 6.0327 83.1744 6.06244 82.9068 6.12191V21.062L82.9077 21.061ZM101.65 14.4673H96.8982V20.8231H102.303V23.5857H93.7193V3.56651H101.947V6.32911H96.8972V11.8236H101.649V14.4673H101.65ZM104.888 3.86388C105.987 3.59625 107.383 3.4773 108.689 3.4773C110.768 3.4773 112.491 3.83414 113.649 4.93246C114.778 6.00201 115.165 7.33822 115.165 9.00153C115.165 11.3181 114.036 13.1301 112.017 14.0509V14.1104C113.442 14.615 114.156 15.9521 114.571 18.3282C114.987 20.7637 115.462 22.9018 115.789 23.5857H112.492C112.255 23.0217 111.809 21.061 111.482 18.7147C111.096 16.1008 110.354 15.2692 108.749 15.2692H108.036V23.5857H104.888V3.86388ZM108.036 12.8337H108.867C110.769 12.8337 111.956 11.3488 111.956 9.2989C111.956 7.24901 111.154 6.00201 109.104 5.97227C108.688 5.97227 108.302 6.00201 108.035 6.09122V12.8337H108.036ZM34.3782 12.2716L20.0568 26.592H31.5129L34.3782 23.7277H28.6515C32.1287 21.1147 34.3782 16.9565 34.3782 12.2716ZM1.48122 20.8644L21.5302 0.81543H2.87211C1.29033 0.81543 0.00783539 2.09793 0.00783539 3.6797V23.7287C0.00783539 25.3104 1.29033 26.5929 2.87211 26.5929H16.0059L18.8702 23.7287H6.71864L9.58291 20.8653H1.48122V20.8644ZM22.2256 12.2716L29.6309 4.86532L25.581 0.81543L8.39634 18.0001H16.4971L13.6328 20.8644H21.7335L30.3264 12.2716H22.2256Z" fill="white"/>
<path d="M40.4932 3.86388C41.5627 3.62599 42.9287 3.4773 44.4433 3.4773C46.2553 3.4773 47.9781 3.77467 49.1954 4.87299C50.1757 5.73438 50.6208 7.01112 50.6208 8.4375C50.6208 10.309 49.6107 12.002 47.6807 12.8337V12.9229C49.9676 13.5464 51.275 15.4476 51.275 17.8533C51.275 19.5167 50.7407 20.8231 49.8198 21.8035C48.6611 23.1109 46.7014 23.7344 43.8198 23.7344C42.3349 23.7344 41.2654 23.6452 40.4932 23.5263V3.86388ZM43.6414 11.9128H44.5623C46.1958 11.9128 47.5023 10.6063 47.5023 8.79434C47.5023 7.13103 46.7301 5.88402 44.7695 5.88402C44.2946 5.88402 43.9081 5.91376 43.6404 6.00297V11.9138L43.6414 11.9128ZM43.6414 21.18C43.909 21.2394 44.2352 21.2692 44.6515 21.2692C46.5824 21.2692 48.0078 20.1104 48.0078 17.8236C48.0078 15.5368 46.3743 14.2888 44.5623 14.2888H43.6414V21.18ZM61.8784 14.4673H57.1263V20.8231H62.5326V23.5857H53.9484V3.56651H62.1757V6.32911H57.1263V11.8236H61.8784V14.4673ZM65.1158 23.5857V3.56651H68.0271L71.4132 12.12C72.1268 13.932 73.1359 16.5162 73.7594 18.4462H73.8189C73.6405 15.8917 73.4621 12.803 73.4621 9.23847V3.56651H76.2534V23.5857H73.3431L69.9273 15.061C69.1848 13.2193 68.2937 10.8135 67.7287 8.70513H67.6693C67.8179 11.0217 67.9072 13.8437 67.9072 18.002V23.5857H65.1148H65.1158ZM79.7594 3.86388C80.6803 3.62599 81.958 3.4773 83.324 3.4773C85.6405 3.4773 87.3038 4.04133 88.4923 5.14062C90.1259 6.59578 91.136 9.20969 91.136 13.2193C91.136 17.5262 90.0664 20.2284 88.5518 21.7143C87.2156 23.0802 85.2559 23.7335 82.6707 23.7335C81.5724 23.7335 80.4731 23.6442 79.7604 23.5253V3.86388H79.7594ZM82.9077 21.061C83.1753 21.1205 83.4717 21.1205 83.6798 21.1205C85.8774 21.1205 87.8679 19.2788 87.8679 13.1905C87.8679 8.64662 86.5902 6.0327 83.8276 6.0327C83.5014 6.0327 83.1743 6.06244 82.9067 6.12191V21.062L82.9077 21.061ZM101.65 14.4673H96.8981V20.8231H102.303V23.5857H93.7192V3.56651H101.947V6.32911H96.8971V11.8236H101.649V14.4673H101.65ZM104.888 3.86388C105.987 3.59625 107.383 3.4773 108.689 3.4773C110.768 3.4773 112.49 3.83414 113.649 4.93246C114.778 6.00201 115.165 7.33822 115.165 9.00153C115.165 11.3181 114.036 13.1301 112.017 14.0509V14.1104C113.442 14.615 114.156 15.9521 114.571 18.3282C114.987 20.7637 115.462 22.9018 115.789 23.5857H112.492C112.254 23.0217 111.809 21.061 111.482 18.7147C111.096 16.1008 110.354 15.2692 108.749 15.2692H108.036V23.5857H104.888V3.86388ZM108.036 12.8337H108.867C110.769 12.8337 111.956 11.3488 111.956 9.2989C111.956 7.24901 111.154 6.00201 109.104 5.97227C108.688 5.97227 108.302 6.00201 108.035 6.09122V12.8337H108.036ZM34.3781 12.2716L20.0567 26.592H31.5128L34.3781 23.7277H28.6514C32.1287 21.1147 34.3781 16.9565 34.3781 12.2716ZM1.48114 20.8644L21.5301 0.81543H2.87203C1.29026 0.81543 0.00775909 2.09793 0.00775909 3.6797V23.7287C0.00775909 25.3104 1.29026 26.5929 2.87203 26.5929H16.0059L18.8701 23.7287H6.71856L9.58283 20.8653H1.48114V20.8644ZM22.2255 12.2716L29.6308 4.86532L25.5809 0.81543L8.39626 18.0001H16.497L13.6327 20.8644H21.7335L30.3263 12.2716H22.2255Z" fill="white"/>
</g>
<defs>
<clipPath id="clip0_391_4830">
<rect width="115.78" height="25.7765" fill="white" transform="translate(0.00799561 0.81543)"/>
</clipPath>
</defs>
</svg>
