<?xml version="1.0" encoding="utf-8"?>
<!-- Generator: Adobe Illustrator 28.0.0, SVG Export Plug-In . SVG Version: 6.00 Build 0)  -->
<svg version="1.1"
	 id="svg1" xmlns:svg="http://www.w3.org/2000/svg" xmlns:inkscape="http://www.inkscape.org/namespaces/inkscape" xmlns:sodipodi="http://sodipodi.sourceforge.net/DTD/sodipodi-0.dtd"
	 xmlns="http://www.w3.org/2000/svg" xmlns:xlink="http://www.w3.org/1999/xlink" x="0px" y="0px" viewBox="0 0 371.2 119.7"
	 style="enable-background:new 0 0 371.2 119.7;" xml:space="preserve">
<style type="text/css">
	.st0{opacity:0.98;}
	.st1{fill:#FFFFFF;}
</style>
<sodipodi:namedview  bordercolor="#000000" borderopacity="0.25" id="namedview1" inkscape:current-layer="layer1" inkscape:cx="240.64474" inkscape:cy="85.839741" inkscape:deskcolor="#d1d1d1" inkscape:document-units="mm" inkscape:pagecheckerboard="0" inkscape:pageopacity="0.0" inkscape:showpageshadow="2" inkscape:window-height="1000" inkscape:window-maximized="1" inkscape:window-width="1920" inkscape:window-x="-11" inkscape:window-y="-11" inkscape:zoom="0.68150253" pagecolor="#ffffff">
	</sodipodi:namedview>
<g id="layer1" transform="translate(-40.902239,-126.08436)" inkscape:groupmode="layer" inkscape:label="Livello 1" class="st0">
	<path id="path1" class="st1" d="M221.9,244.9c0-0.5,0.7-1.4,1.5-1.9c1.9-1.2,1.9-1.6,0.1-5.6c-2.2-4.9-2.6-6.6-1.4-6.6
		c0.6,0,1.5,1.4,2.1,3c0.6,1.7,1.3,3.2,1.6,3.4s1.1-1.2,1.8-3s1.8-3.4,2.3-3.4c1.2,0,1.3,1,0.4,2.8c-0.4,0.7-1.4,3.2-2.4,5.4
		c-1,2.3-2.2,4.7-2.8,5.4C223.8,246.1,221.9,246.3,221.9,244.9L221.9,244.9z M200.9,238v-7.1l2.4-0.1c6-0.3,8.1,1.1,8.1,5.4
		c0,3.6-1.8,5.3-5.9,5.3c-2.8,0-3.1,0.2-3.1,1.9c0,1-0.3,1.9-0.8,1.9C201.2,245.1,200.9,242.3,200.9,238L200.9,238z M208.5,238.6
		c1.7-1.5,1.7-3.1,0.1-4.9c-3-3.3-7.6,0.3-5.5,4.3C204.3,240.2,206.6,240.4,208.5,238.6L208.5,238.6z M79.9,241.4
		c-2-0.4-5.7-1.6-8.2-2.8c-4.6-2.2-27.7-18.6-29.6-21.1c-0.8-1-0.9-10.3-0.8-46.1c0.1-27.4,0.4-45,0.8-45.3c0.4-0.2,2,0.5,3.5,1.6
		c1.5,1.1,5.4,3.9,8.6,6.1l5.8,4.1v19.7c0,22.3-0.2,21.4,6.2,22.8c5.6,1.2,12.6-0.6,15.7-4.1c2-2.2,3.6-6.6,3.6-9.8
		c0-1.6-0.9-4.6-2-6.8s-1.8-4.1-1.5-4.4c0.9-0.9,5.1,1.6,8,4.7c1.7,1.8,3.7,4.9,4.5,6.7c2,4.6,1.9,12.3-0.1,16.7
		c-0.8,1.8-1.5,3.4-1.5,3.5c0,0.2,1.4,1,3.2,1.9c11.6,5.9,17.7,17.3,15.7,29.3C109,234.5,95.6,244.2,79.9,241.4L79.9,241.4z
		 M77,228.2c11.1-3.3,16.9-14.2,13.5-25.3c-1.1-3.8-7-10.3-11.2-12.4c-3.1-1.6-17.7-6.9-18.8-6.9c-0.3,0-0.6,9.6-0.6,21.3v21.3
		l3.2,1.6C66.9,229.7,71.6,229.8,77,228.2L77,228.2z M133.9,239.1c-2.8-3.4-2.6-6.9,0.6-10.1c3-3,6.5-3.4,9.4-1.1
		c2.1,1.6,1,2.9-1.5,1.6c-2.6-1.4-6.6-0.2-7.5,2.1c-1,2.6-0.3,6.1,1.4,7.4c1.6,1.2,5.2,1.4,5.8,0.3c0.5-0.8,3.4-1.1,3.4-0.3
		c0,1.4-2.6,2.6-5.9,2.6C136.3,241.4,135.5,241.1,133.9,239.1L133.9,239.1z M147.4,240.9c-0.3-0.3-0.5-3.5-0.5-7.1
		c0-5.4,0.2-6.6,1.1-6.6c0.9,0,1.1,1.2,1.1,6.4s0.2,6.4,1.1,6.4c0.6,0,1.1,0.3,1.1,0.8C151.4,241.5,148.2,241.7,147.4,240.9
		L147.4,240.9z M152.6,239.8c-2.8-4-0.4-9.2,4.3-9.2c3,0,4.9,1.8,5,4.6c0,1.5-0.3,1.7-3.7,1.7c-4,0-5.2,0.8-3.4,2.3
		c0.7,0.6,2.1,0.7,3.8,0.4c2.1-0.4,2.6-0.3,2.4,0.5c-0.2,0.6-1.8,1.1-3.8,1.2C154.4,241.4,153.6,241.2,152.6,239.8z M159.7,235.1
		c0-2.5-3.3-3.6-5.1-1.8c-1.6,1.6-1,2.1,2.1,2.1C158.3,235.4,159.7,235.2,159.7,235.1L159.7,235.1z M163.9,240.9
		c-0.8-0.8-0.6-3.8,0.4-4.6c0.5-0.4,1.9-1,3-1.3s2.1-1,2.1-1.6c0-1.2-2.4-1.4-3.5-0.2c-1,1-1.9-0.1-1.1-1.4c0.3-0.5,1.4-1.1,2.4-1.3
		c3.2-0.8,5,1.5,5.4,6.5l0.3,4.3h-4.2C166.3,241.4,164.2,241.2,163.9,240.9L163.9,240.9z M169.3,239c1.4-1.4,1.1-2.1-0.9-2.1
		c-1.9,0-3.8,1.7-3,2.5S168.3,240,169.3,239z M174.4,240.9c-0.3-0.3-0.5-2.6-0.5-5.3v-4.7h3c1.7,0,3,0.3,3,0.8s-0.5,0.8-1.1,0.8
		c-1.6,0-2.7,2.4-2.7,6C176.2,241.2,175.6,242,174.4,240.9z M190.5,240.1c-0.4-0.7-0.8-3-0.9-5.1c-0.2-2.9,0-3.7,0.9-3.7
		c0.8,0,1.2,1.2,1.5,4.1c0.3,3.8,0.5,4.1,2.2,4.1c1.8,0,1.9-0.3,2.1-4.3c0.2-3.2,0.5-4.3,1.3-4.3c1.4,0,1.5,8.2,0.2,9.6
		C196.3,241.9,191.3,241.6,190.5,240.1L190.5,240.1z M232.5,239.6c-2.1-2.2-2.1-4.4,0.1-7c3.5-4.1,10.2-1.8,10.2,3.5
		C242.9,241,236,243.3,232.5,239.6L232.5,239.6z M240,238c1.9-4.1-2.6-7.6-5.7-4.4c-1.5,1.5-1.5,2.5,0,4.7
		C235.9,240.5,239,240.4,240,238L240,238z M245.3,240.5c-1.1-1.1-1.2-9.6-0.1-9.6c0.4,0,0.8,1.4,0.8,3c0,3.8,1.1,6,3,6s3-2.2,3-6
		c0-1.7,0.3-3,0.8-3c1.1,0,0.9,8.5-0.1,9.6c-0.5,0.5-2.1,0.9-3.6,0.9C247.4,241.4,245.8,241,245.3,240.5L245.3,240.5z M255.2,240.4
		c-0.2-0.6-0.3-2.8-0.2-5.1l0.2-4l2.8-0.2c2.9-0.2,3.9,0.9,1.3,1.6c-1.2,0.3-1.5,1-1.5,3.4c0,3.4-0.6,5.4-1.6,5.4
		C255.9,241.4,255.4,240.9,255.2,240.4L255.2,240.4z M272.8,235.3c-0.2-5.3-0.4-6.1-1.6-6.3c-3.9-0.6-2-2.6,2.4-2.6
		c5.2,0,7.4,1.8,3.1,2.5c-1.7,0.3-1.8,0.6-1.9,4.3c-0.1,6.6-0.3,8.2-1,8.2C273.3,241.4,272.9,238.6,272.8,235.3L272.8,235.3z
		 M279.7,240.1c-1.5-1.7-1.4-6.6,0.2-8.2c1.8-1.8,7-1.6,8.4,0.3c1.5,2,1.4,6.5-0.3,8C286.2,241.8,281.1,241.7,279.7,240.1
		L279.7,240.1z M286.5,238.6c1.7-1.5,1.7-3.1,0.1-4.9c-2.5-2.7-6.3-1.3-6.3,2.4C280.4,239.7,283.8,241.1,286.5,238.6L286.5,238.6z
		 M291.2,240.4c-0.2-0.6-0.3-2.8-0.2-5.1l0.2-4h7.1h7.1l0.2,5.1c0.1,3.2-0.1,5.1-0.6,5.1c-0.4,0-0.8-1.6-0.8-3.7
		c0-4.2-1.5-6.2-3.4-4.6c-0.7,0.6-1.1,2.3-1.1,4.6c0,2.8-0.3,3.7-1.1,3.7c-0.8,0-1.1-0.9-1.1-3.7c0-3.7-1.6-6.3-3-4.9
		c-0.6,0.6-1.4,4.9-1.5,7.6C293.2,241.7,291.7,241.6,291.2,240.4L291.2,240.4z M309,239.2c-2-2.8-1.9-3.7,0.2-6.4
		c3.4-4.2,10.2-2.3,10.2,2.9c0,3.8-1.8,5.7-5.6,5.7C311,241.4,310.3,241,309,239.2L309,239.2z M316.8,238c1.2-1.8,1.2-2.1,0.1-3.7
		c-1.5-2.3-4.4-2.4-5.9-0.2c-1.1,1.6-0.9,3.1,0.5,5C312.6,240.5,315.4,240,316.8,238L316.8,238z M320.9,236.2v-5.3h3
		c1.6,0,3,0.3,3,0.8s-0.7,0.8-1.5,0.8c-1.6,0-2.1,1.3-2.4,5.9c-0.1,1.4-0.6,2.7-1.1,2.9C321.2,241.4,320.9,240.1,320.9,236.2z
		 M328.4,236.1v-5.2h3c1.7,0,3,0.3,3,0.8s-0.5,0.8-1.1,0.8c-1.7,0-3.4,3.1-3.4,6.2c0,1.6-0.3,2.8-0.8,2.8
		C328.7,241.4,328.4,239.1,328.4,236.1z M335.9,239.9c-3.4-3.4-0.8-9.3,4.1-9.3c4.8,0,7.3,5.1,4.5,9.1
		C342.9,241.9,338.1,242,335.9,239.9L335.9,239.9z M342.5,239c0.5-0.5,0.9-1.8,0.9-2.9c0-3.8-4.2-5.2-6.3-2.2
		C334.7,237.5,339.5,242,342.5,239z M348.1,237c-0.9-2.4-1.7-4.8-1.7-5.3c0-1.8,1.9-0.4,2.6,2c0.4,1.3,0.9,2.4,1.2,2.4
		c0.3,0,1-1.2,1.7-2.7c1.1-2.2,1.5-2.5,2.4-1.8c0.6,0.5,1.1,1.5,1.1,2.2s0.2,1.5,0.5,1.8c0.8,0.8,2.5-1,2.5-2.5s1.1-2.5,2.2-1.9
		c0.8,0.5-2.8,10.2-3.8,10.2c-0.3,0-1.1-1.2-1.7-2.6c-1.4-3.3-2.3-3.3-3.1-0.2C350.9,242.2,349.9,241.8,348.1,237L348.1,237z
		 M193.7,212.2c-5.9-1.4-10.7-6.7-11.8-12.9c-0.7-4.1,0.8-9.8,3.5-13c6.6-8.1,20.4-7.6,26.4,1c2.6,3.7,3.4,10.2,1.9,14.8
		C211.1,209.8,202.4,214.2,193.7,212.2L193.7,212.2z M204,203.3c4.7-4.2,3.6-12.1-2-14.8c-3.5-1.7-7.4-1-10.2,1.8
		c-1.8,1.8-2.1,2.8-2.1,6c0,3.4,0.3,4.2,2.6,6.4c2.2,2.2,3.1,2.6,6,2.6C200.9,205.4,202.1,204.9,204,203.3z M267.1,212.2
		c-11.6-2.9-16-17.4-8-26.3c3.5-3.9,8.1-5.6,13.5-5c7.9,0.8,12.3,5.9,12.3,14.3v4.3H274c-7.3,0-10.9,0.3-10.9,0.8c0,0.4,1,1.8,2.2,3
		c1.9,1.9,2.7,2.2,6.6,2.2c2.4,0,5.8-0.3,7.6-0.7c2.9-0.6,3.2-0.5,3.5,1c0.9,4.2,0.8,4.4-2.1,5.4C277.2,212.4,270.1,213,267.1,212.2
		L267.1,212.2z M278.2,192.2c0-0.6-0.8-2-1.8-3c-2.8-2.8-8-2.6-11,0.4c-1.2,1.2-2.2,2.6-2.2,3c0,0.5,2.6,0.8,7.5,0.8
		C276.9,193.4,278.2,193.2,278.2,192.2L278.2,192.2z M378.9,212.2c-8.4-2-13.6-10.8-11.6-19.4c1.8-7.5,7.9-12.1,16.2-12.1
		c9,0,15.3,5.6,15.9,14.3C400.4,206.8,390.7,215,378.9,212.2z M389.2,203.3c4.6-4.1,3.6-12.2-1.9-14.8c-3-1.4-4.2-1.5-7.4-0.1
		c-3.4,1.4-5,4.1-5,8.2c0,5.6,3.1,8.6,8.9,8.7C386.1,205.4,387.4,204.9,389.2,203.3L389.2,203.3z M134.4,211.6l-3.2-0.3v-21.7v-21.7
		h3.8h3.8v6.8v6.8h6.8c5.6,0,7.4,0.3,9.7,1.6c3.8,2.1,6.1,6.4,6.6,12.4c0.7,8.3-2.8,14.2-9.4,16
		C149.7,212.1,141.2,212.2,134.4,211.6L134.4,211.6z M151.3,204.5c2.1-1.3,3.1-3.9,3.1-7.8c0-7.7-4.5-10.7-13.4-8.9l-2.3,0.5v8.5
		c0,8.2,0.1,8.5,1.7,8.8C143.1,206.2,149.6,205.6,151.3,204.5L151.3,204.5z M228.4,211.1c-3.7-1.4-7-4.5-8-7.8c-0.5-1.4-0.7-5-0.6-8
		c0.2-4.3,0.7-6.1,2.3-8.4c2.9-4.3,5.9-5.5,14-5.5h6.8v-6.8v-6.7h3.8h3.8v21.3c0,14.2-0.3,21.5-0.8,21.8c-0.4,0.3-4.7,0.6-9.6,0.8
		C233.6,212.1,230.5,211.9,228.4,211.1L228.4,211.1z M240.6,205.7l2.3-0.5v-8.4v-8.4l-2.3-0.5c-6-1.2-10.3-0.2-12.3,2.9
		c-1.5,2.3-1.7,9-0.4,11.5C229.5,205.4,234.9,206.8,240.6,205.7L240.6,205.7z M167.9,196.8v-14.6h3.7h3.8v14.6v14.6h-3.7h-3.8V196.8
		z M290.2,197.2c0-16.5-1.2-14.8,11.1-15.6l7.7-0.5v3.4v3.4l-3.5,0.5c-1.9,0.3-4.4,0.5-5.6,0.5h-2.1v11.2v11.2h-3.9h-3.8
		L290.2,197.2z M313.4,196.8v-14.6l4.7-0.5c2.6-0.3,7.6-0.3,11.1-0.1c8.6,0.6,8.4,0.6,17,0c9.2-0.6,12.3,0.5,14.6,5
		c1.3,2.5,1.5,4.4,1.5,13.8v10.9h-3.8h-3.7v-9.8c0-9.4-0.1-9.9-1.9-11.7c-1.7-1.7-2.4-1.9-6.5-1.7l-4.6,0.2l0.1,11.6l0.1,11.4h-4.2
		h-4.2v-10.4c0-10.2,0-10.5-1.8-11.7c-1.3-0.8-3.1-1.1-6.2-1l-4.4,0.2l-0.2,11.4l-0.2,11.4h-3.7h-3.7L313.4,196.8z M404.9,189.6
		v-21.7h3.8h3.7v21.7v21.7h-3.7h-3.8V189.6z M169.6,176.8c-4-1.6-3.5-7.8,0.8-9.2c4.4-1.4,8.2,4.1,5.2,7.5
		C174,177.1,171.8,177.7,169.6,176.8z"/>
</g>
</svg>
