<svg width="115" height="17" viewBox="0 0 115 17" fill="none" xmlns="http://www.w3.org/2000/svg">
<path d="M58.8549 0.441406H64.2006V1.30835C63.625 1.43708 63.0452 1.56665 62.454 1.69882V7.37098H69.8017V1.7083C69.2163 1.57562 68.623 1.4411 68.019 1.30424V0.470406H73.3929V1.3055C72.7976 1.43582 72.1913 1.56849 71.5797 1.70234V15.1034C72.1748 15.2418 72.7798 15.3824 73.4022 15.527V16.3441H68.0157V15.5237C68.5146 15.4084 69.0136 15.2866 69.516 15.1801C69.7186 15.1372 69.8215 15.0698 69.8203 14.8284C69.8098 12.7196 69.8142 10.6108 69.8142 8.46438H62.4655V15.1107C63.0377 15.2463 63.618 15.3839 64.2109 15.5245V16.3465H58.8477V15.5242C59.4399 15.3862 60.0567 15.2423 60.6726 15.0987V1.70695C60.0777 1.5778 59.4808 1.44823 58.8549 1.31229V0.441406Z" fill="white"/>
<path d="M95.2607 11.97C93.0531 8.89008 90.864 5.83341 88.6212 2.70156V15.0664C89.2221 15.2209 89.8239 15.3758 90.4265 15.531V16.341H85.666V15.5241C86.2854 15.3736 86.9064 15.2229 87.5551 15.0654V1.70698C86.9483 1.579 86.3155 1.44557 85.6694 1.30929V0.443693C86.7866 0.443693 87.887 0.433219 88.9874 0.457105C89.1232 0.460039 89.29 0.620957 89.383 0.751032C92.132 4.58212 94.8735 8.41865 97.6166 12.2541C97.832 12.5556 98.0499 12.8552 98.3114 13.2169V1.70203C97.7381 1.57414 97.1582 1.44456 96.5623 1.31164V0.460706H101.23V1.30602C100.629 1.43451 100.007 1.56752 99.3515 1.70773V16.4738C98.7791 16.6417 98.438 16.4488 98.1203 15.982C97.2018 14.6328 96.2304 13.3202 95.2607 11.97Z" fill="white"/>
<path d="M84.6902 13.3008C84.4924 14.3346 84.2988 15.3333 84.1019 16.3516H74.6777V15.527C75.2851 15.3861 75.8921 15.2452 76.5072 15.1024V1.7086C75.9173 1.57937 75.3103 1.44644 74.6851 1.30949V0.461914H83.2302C83.3216 1.57157 83.4121 2.66547 83.5026 3.76306C83.0609 3.89112 82.8967 3.7049 82.8279 3.29808C82.7475 2.81826 82.6159 2.3459 82.4835 1.87673C82.4533 1.77221 82.3293 1.6175 82.2463 1.61641C80.9372 1.59999 79.6289 1.60485 78.2978 1.60485V7.37188H81.7971C81.9253 6.82904 82.0518 6.2913 82.1818 5.74134H82.6678V10.3461C82.5195 10.3385 82.3619 10.3304 82.1843 10.3212C82.0544 9.7082 81.9278 9.11205 81.7979 8.49997H78.3005V14.9776C78.6784 14.9776 79.0506 14.9776 79.4227 14.9776C80.596 14.9776 81.7694 14.9596 82.9419 14.9879C83.3199 14.9969 83.4909 14.8652 83.5973 14.522C83.8043 13.8575 84.044 13.203 84.282 12.5097C84.4329 12.5008 84.6098 12.4903 84.8411 12.4766C84.7883 12.7602 84.7413 13.0129 84.6902 13.3008Z" fill="white"/>
<path d="M35.348 10.9442C36.5179 7.31987 37.6738 3.72631 38.826 0.144315C39.7477 0.0667902 39.7488 0.066369 40.0387 0.903724C41.6204 5.47268 43.2057 10.0404 44.7742 14.6139C44.8926 14.959 45.0636 15.1376 45.4171 15.2095C45.7836 15.284 46.1378 15.4189 46.5078 15.5304V16.3503H41.2199V15.5291C41.8218 15.3787 42.4381 15.2248 43.0877 15.0626C42.556 13.4712 42.0319 11.9024 41.5073 10.3321H36.5867C36.1134 11.8944 35.639 13.4608 35.1541 15.0614C35.8706 15.2225 36.5567 15.3768 37.2345 15.5292V16.3568H32.5273V15.5227C32.9234 15.4027 33.3297 15.3025 33.716 15.1513C33.8705 15.0909 34.0506 14.9416 34.1006 14.793C34.5272 13.5255 34.9266 12.2488 35.348 10.9442ZM39.3438 3.8967C39.222 3.53053 39.1002 3.16436 38.9497 2.71186C38.275 4.93503 37.6277 7.06811 36.9773 9.2114H41.115C40.526 7.44006 39.9471 5.69922 39.3438 3.8967Z" fill="white"/>
<path d="M101.52 16.374C101.34 16.374 101.201 16.374 101.037 16.374V15.5212C101.384 15.4134 101.738 15.2768 102.103 15.1984C102.433 15.1277 102.573 14.9453 102.672 14.6348C104.177 9.92551 105.697 5.22029 107.209 0.51321C107.284 0.282144 107.326 0.0664962 107.663 0.110162C107.976 0.150642 108.261 0.0400114 108.422 0.513962C110.033 5.24568 111.684 9.96365 113.31 14.6907C113.409 14.981 113.553 15.1193 113.838 15.1869C114.23 15.2802 114.613 15.4091 115.001 15.5229V16.3516H109.743V15.5205C110.334 15.3736 110.94 15.2233 111.585 15.0633C111.431 14.5923 111.286 14.1317 111.133 13.673C110.799 12.6685 110.456 11.6667 110.13 10.6598C110.052 10.4195 109.952 10.3087 109.669 10.3123C108.245 10.3305 106.821 10.3152 105.397 10.3301C105.273 10.3313 105.07 10.4403 105.038 10.5415C104.569 12.0277 104.122 13.5212 103.657 15.0589C104.366 15.2187 105.051 15.3728 105.747 15.5295V16.374C104.343 16.374 102.952 16.374 101.52 16.374ZM108.009 4.37547C107.835 3.85735 107.662 3.33915 107.452 2.70956C106.771 4.95435 106.128 7.07435 105.48 9.2112H109.615C109.081 7.59842 108.557 6.01758 108.009 4.37547Z" fill="white"/>
<path d="M52.0662 1.69731V15.0581C52.7573 15.2133 53.4454 15.3678 54.1486 15.5258V16.3461H48.2386V15.522C48.8998 15.375 49.5773 15.2244 50.2821 15.0678V1.65482C49.0521 1.65482 47.8273 1.64375 46.6029 1.66219C46.2777 1.66705 46.0358 1.84356 45.9373 2.19599C45.7466 2.87888 45.5307 3.55481 45.3118 4.27794C45.1437 4.2626 44.9404 4.24416 44.6953 4.22187C44.8359 2.98188 44.9747 1.7579 45.1186 0.489258H57.2611C57.392 1.71089 57.5265 2.96697 57.6672 4.28003C57.4602 4.26185 57.2587 4.24416 57.031 4.22421C56.8609 3.61147 56.6961 2.99513 56.5182 2.38272C56.3433 1.78096 56.2259 1.69815 55.6021 1.69756C54.4435 1.69655 53.2848 1.69731 52.0662 1.69731Z" fill="white"/>
<path d="M26.3308 4.03801V2.54191C25.9403 2.28427 25.3519 2.59068 24.988 2.07675C25.906 1.84418 26.7233 1.63708 27.5671 1.42328V2.98711C27.5911 3.00001 27.615 3.01292 27.6391 3.02583C27.7235 2.89986 27.8062 2.7728 27.8927 2.64826C28.0358 2.44234 28.1728 2.2313 28.3276 2.03434C28.8671 1.34818 29.394 1.25214 30.2127 1.69885C30.1511 1.87569 30.0833 2.05588 30.0259 2.23935C29.9726 2.4099 29.9306 2.58389 29.8752 2.78672C29.7958 2.75436 29.7357 2.73173 29.677 2.70575C28.7766 2.30673 28.1717 2.53696 27.7987 3.45067C27.6896 3.71794 27.6018 4.01396 27.5948 4.29909C27.5701 5.28839 27.5852 6.2787 27.5852 7.31092C28.0422 7.37059 28.4922 7.42942 28.9559 7.48994V7.95861H26.6268V15.4775C26.9836 15.5193 27.3262 15.5593 27.8128 15.6162C27.6634 15.7911 27.5897 15.9644 27.4793 15.9922C26.7919 16.1658 26.0962 16.3068 25.3681 16.4662V15.4646C25.2027 15.5807 25.0954 15.649 24.9958 15.7272C24.4161 16.1824 23.766 16.4355 23.0219 16.3988C21.6572 16.3316 20.6363 15.2476 20.4825 13.7124C20.2997 11.89 21.4377 10.5587 23.3543 10.433C23.9951 10.3909 24.6461 10.5071 25.3475 10.5547C25.3475 9.81108 25.3617 8.96929 25.34 8.12849C25.3323 7.82946 24.7103 7.64532 24.4494 7.82862C23.7566 8.31514 23.0093 8.16621 22.2956 7.92936C21.6619 7.71899 21.5009 7.13701 21.4885 6.54019C21.4645 5.36759 21.4748 4.19424 21.4709 3.02122C21.4705 2.86961 21.4709 2.71791 21.4709 2.54451H20.377C20.4696 2.37303 20.5017 2.20457 20.5931 2.16132C21.4588 1.7519 21.992 1.03473 22.4511 0.236015C22.5109 0.132006 22.6569 0.0774413 22.7629 0C22.7945 0.02925 22.8261 0.058418 22.8577 0.087668C22.809 0.693035 22.7603 1.2984 22.7097 1.92723H24.7952V2.53738H22.7325C22.7325 3.816 22.6937 5.05892 22.7456 6.29798C22.783 7.19115 23.6271 7.58489 24.4198 7.13441C24.5872 7.0392 24.7448 6.91307 24.8768 6.77285C25.0463 6.59308 25.1704 6.59526 25.3087 6.83051C25.2246 6.93561 25.134 7.04867 24.9753 7.24672C25.4836 7.14874 25.8941 7.06963 26.3308 6.9854V4.03801ZM21.6652 12.8263C21.6383 13.4829 21.806 14.0875 22.1098 14.6691C22.6433 15.6902 24.0982 16.0548 25.2413 15.0991C25.3032 15.0473 25.3437 14.9343 25.3438 14.8497C25.3458 13.9581 25.3618 13.0652 25.3226 12.1751C25.3002 11.6678 25.0891 11.2073 24.5706 11.0147C23.275 10.5334 22.2071 10.8092 21.7601 12.3057C21.7165 12.4516 21.6966 12.6047 21.6652 12.8263Z" fill="white"/>
<path d="M13.4465 7.31386V2.49514C13.0899 2.44787 12.7477 2.41217 12.4102 2.35082C12.3281 2.3359 12.2613 2.23684 12.1875 2.17649C12.2439 2.11414 12.2903 2.01256 12.3582 1.9953C13.1127 1.80337 13.8705 1.62443 14.6582 1.4346V2.52213C15.1843 2.22678 15.6493 1.96714 16.1129 1.70514C17.4366 0.956964 19.0734 1.73021 19.222 3.22699C19.3141 4.15402 19.2662 5.09504 19.2774 6.02979C19.2824 6.44658 19.2782 6.86354 19.2782 7.31159C19.7084 7.37202 20.1169 7.42943 20.5408 7.48902V7.9385H16.8626V7.48634C17.2401 7.43094 17.6114 7.37647 18.0295 7.31503C18.0295 6.51891 18.0361 5.72841 18.0273 4.93799C18.0215 4.42297 18.043 3.9004 17.964 3.39494C17.8416 2.61206 17.4277 2.23181 16.6459 2.30875C16.0235 2.37001 15.4196 2.6326 14.8136 2.8252C14.7462 2.84665 14.6803 2.99541 14.6797 3.08551C14.6713 4.48046 14.6738 5.87541 14.6738 7.30942C15.0788 7.37068 15.4716 7.43002 15.8721 7.49053V7.94303H12.2138V7.48944C12.6168 7.43203 13.0135 7.37554 13.4465 7.31386Z" fill="white"/>
<path d="M17.1327 12.0846V10.5093C16.7351 10.4558 16.3538 10.4044 15.9458 10.3495C15.9372 10.2072 15.929 10.0734 15.9192 9.91202H18.387V15.3375C18.8136 15.3828 19.2008 15.4238 19.6064 15.4669C19.7049 15.6827 19.7033 15.8469 19.4079 15.9113C18.6613 16.074 17.9167 16.2459 17.1327 16.423V15.3201C16.5856 15.6221 16.09 15.8964 15.5937 16.1695C14.2128 16.9295 12.5806 16.0663 12.5178 14.5075C12.4683 13.2805 12.4984 12.0503 12.4933 10.8215C12.493 10.726 12.4933 10.6304 12.4933 10.5114C12.0417 10.4532 11.6189 10.3988 11.1953 10.3443V9.89844H13.7619C13.7619 10.4359 13.7614 10.9613 13.762 11.4868C13.7632 12.3946 13.7448 13.3028 13.7724 14.2098C13.8023 15.1924 14.2931 15.6803 15.2626 15.5712C15.855 15.5046 16.427 15.2338 16.9978 15.0259C17.0743 14.9981 17.1254 14.8014 17.1269 14.682C17.1377 13.8303 17.1327 12.9784 17.1327 12.0846Z" fill="white"/>
<path d="M36.5684 3.36634C37.0247 4.67471 36.9457 5.89182 36.1357 7.01187C35.7811 7.50216 35.2968 7.83129 34.7107 7.98039C33.4148 8.3101 32.1695 8.25889 31.0475 7.4217C30.824 8.03 30.5129 8.23224 30.0252 8.09403C29.6831 7.99723 29.4996 7.77781 29.5409 7.41785C29.5862 7.02419 29.9605 6.846 30.6247 6.91213C30.0601 5.98585 29.9499 4.99445 30.1308 3.97791C30.3191 2.91904 30.9111 2.13717 31.9214 1.72516C33.8951 0.920235 35.7048 1.55602 36.5684 3.36634ZM34.9737 7.0899C35.7225 5.67852 35.6452 4.25499 35.016 2.83355C34.6618 2.03333 33.9957 1.79262 33.1676 1.84986C32.3595 1.90577 31.8511 2.3286 31.6128 3.08248C31.1864 4.43166 31.3433 5.73325 32.0545 6.94113C32.6655 7.97888 34.1397 8.05917 34.9737 7.0899Z" fill="white"/>
<path d="M6.06106 5.79644C6.07111 5.7086 6.08964 5.62077 6.08972 5.53285C6.09006 5.04599 6.02728 4.55109 6.09332 4.07379C6.39957 1.85866 8.06062 1.30861 9.61204 1.47213C10.0705 1.5204 10.5392 1.68635 10.9533 1.89663C11.7812 2.31719 12.0542 3.06495 11.7859 4.0028C11.0297 4.0028 10.2654 4.00271 9.50125 4.00271C8.73429 4.00271 7.96734 4.0028 7.19854 4.0028C6.9492 4.9678 7.54845 6.52752 8.37458 6.94959C9.37687 7.46168 10.6968 7.62586 11.9827 6.13838C12.0752 6.20703 12.1696 6.27709 12.2528 6.33878C12.2211 6.80275 10.6044 8.04844 9.94243 8.12026C8.03238 8.3277 6.59091 7.57558 6.16163 6.04418C6.10003 5.97722 6.07572 5.94093 6.08251 5.89844C6.09324 5.86022 6.07287 5.82812 6.05469 5.79476C6.05695 5.7935 6.06106 5.79644 6.06106 5.79644ZM7.46439 3.59698H10.7054C10.6132 2.50208 10.0786 1.91649 9.18193 1.86629C8.15683 1.80896 7.40245 2.38483 7.23827 3.36684C7.22712 3.43339 7.33448 3.51971 7.46439 3.59698Z" fill="white"/>
<path d="M4.26679 11.7613C4.17133 11.5872 4.09515 11.4194 4.04998 11.2436C3.90406 10.6769 3.55516 10.305 2.98558 10.1866C2.39974 10.0649 1.83519 10.1456 1.39166 10.5878C1.04585 10.9326 1.06454 11.4803 1.47262 11.8094C1.74392 12.0282 2.09617 12.1612 2.42999 12.2846C2.93856 12.4726 3.46791 12.6042 3.97865 12.7871C4.6162 13.0154 5.05386 13.4437 5.11999 14.1469C5.18905 14.8812 4.93871 15.5064 4.32119 15.9268C3.50118 16.485 2.56652 16.4991 1.62197 16.4115C1.55283 16.4051 1.48528 16.3836 1.41663 16.3711C0.225346 16.1541 0.226686 16.154 0.114882 14.9631C0.091499 14.7143 0.0537007 14.4668 0.0175781 14.1792C0.175897 14.1688 0.319214 14.1594 0.468565 14.1495C0.517175 14.3404 0.566288 14.499 0.597634 14.6611C0.888374 16.1638 2.75375 16.3336 3.58709 15.772C4.15189 15.3914 4.26495 14.7109 3.77952 14.2318C3.53336 13.9889 3.18982 13.82 2.86162 13.6904C2.30629 13.471 1.71944 13.3318 1.1621 13.1169C0.584475 12.8942 0.232218 12.4531 0.173131 11.8276C0.105914 11.117 0.361873 10.5362 0.974783 10.1482C1.67452 9.70524 2.43913 9.65747 3.23357 9.81328C4.45596 10.053 4.57958 10.1898 4.62266 11.4005C4.62659 11.5108 4.62316 11.6214 4.62316 11.764C4.51244 11.764 4.40634 11.764 4.26679 11.7613Z" fill="white"/>
<path d="M6.05113 5.90397C6.07552 5.94026 6.09982 5.97655 6.13234 6.0332C5.81093 6.58585 5.49035 7.12426 5.14488 7.64606C5.06912 7.76047 4.91516 7.84428 4.77947 7.89431C3.81564 8.25001 2.83069 8.27448 1.86645 7.93965C0.665102 7.52253 0.187212 6.53733 0.0361846 5.36414C-0.0167001 4.95372 -0.0128454 4.52017 0.0558796 4.11243C0.420122 1.94994 2.80589 0.734593 4.80645 1.67294C5.53259 2.01355 5.72326 2.38114 5.55975 3.16042C5.17111 3.24951 4.77184 3.34112 4.34834 3.43817C4.33795 3.34966 4.31884 3.28378 4.32429 3.22009C4.41883 2.11395 3.66118 1.52811 2.61211 1.93384C1.76177 2.26272 1.33601 2.96388 1.23108 3.82965C1.12112 4.73673 1.2905 5.60837 1.80728 6.38873C2.44826 7.35675 4.12264 7.60508 4.99964 6.83729C5.27915 6.59265 5.48834 6.2688 5.74296 5.99348C5.80917 5.9219 5.92525 5.89643 6.03965 5.82276C6.06085 5.79577 6.05675 5.79284 6.03194 5.821C6.02188 5.86743 6.03655 5.8857 6.05113 5.90397Z" fill="white"/>
<path d="M10.5343 15.2339C10.7372 15.1222 10.8569 14.715 11.1524 15.1339C10.8459 15.4812 10.5402 15.837 10.2216 16.1809C10.1515 16.2565 10.0352 16.3346 9.94029 16.3345C9.37431 16.3335 8.80247 16.3547 8.24438 16.2804C7.76699 16.2169 7.45169 15.8757 7.34793 15.3967C7.28055 15.0858 7.23948 14.7633 7.23605 14.4454C7.22331 13.2598 7.23093 12.074 7.23093 10.8552H6.10938C6.21179 10.6717 6.24599 10.5049 6.33759 10.4627C7.22012 10.0558 7.76975 9.3354 8.23884 8.52536C8.2981 8.42311 8.45063 8.37501 8.55992 8.30176C8.58951 8.33101 8.61901 8.36034 8.64851 8.38959C8.59823 8.99663 8.54794 9.60359 8.49598 10.2304H10.623V10.8319H8.51148C8.51148 12.1062 8.44678 13.348 8.53093 14.5796C8.60443 15.6547 9.54453 15.9413 10.5343 15.2339Z" fill="white"/>
<path d="M31.0191 9.74805V15.6209C31.4254 15.6789 31.8081 15.7335 32.2087 15.7906V16.2533H28.5273V15.7948C28.9151 15.7367 29.3198 15.676 29.7311 15.6143V10.7503C29.3596 10.6913 28.9914 10.6328 28.6243 10.5746C28.5503 10.3433 28.5652 10.2103 28.8505 10.1635C29.5643 10.0462 30.2724 9.89363 31.0191 9.74805Z" fill="white"/>
<path d="M6.08352 5.89632C6.03805 5.88433 6.02348 5.86617 6.03131 5.82129C6.07394 5.82645 6.09418 5.85835 6.08352 5.89632Z" fill="white"/>
</svg>
