<svg width="84" height="28" viewBox="0 0 84 28" fill="none" xmlns="http://www.w3.org/2000/svg">
<g clip-path="url(#clip0_2088_2044)">
<path d="M17.6867 -0.000976562V4.01244L3.61947 10.0956L17.6867 16.2098V20.1921L3.61947 14.0146V17.9025L17.5933 24.1116V27.9051L0 20.2855V7.61861L17.6867 -0.000976562ZM19.3256 27.9995V24.0168L33.3947 17.902L19.3256 11.8198V7.80643L33.3947 14.0146V10.0956L19.4189 3.91807V0.0929315L37.0123 7.71252V20.3794L19.3256 27.9995ZM48.314 17.3386V15.2066H52.0912L51.7132 12.3531H48.3145V10.566H52.8472V7.71252H44.5373V20.1916H53.0983V17.3386H48.314ZM62.4143 11.381L62.9496 8.40242C62.9496 8.40242 59.1729 6.36433 55.7419 8.37127C55.206 8.77355 54.8098 9.33273 54.6089 9.9705C54.1679 11.0676 54.1679 12.7924 55.0177 13.7013C55.7737 14.5167 56.9375 14.9867 57.9763 15.3316C58.4715 15.4457 58.9556 15.6031 59.423 15.8021C59.801 16.0215 60.493 16.4297 59.927 17.1503C59.787 17.2856 59.6176 17.3871 59.432 17.4469C59.2464 17.5067 59.0495 17.5232 58.8564 17.4952C58.8564 17.4952 56.4018 17.3697 54.6705 16.333L54.0731 19.2804C55.6154 20.071 57.348 20.4183 59.0772 20.2837C59.0772 20.2837 62.3504 20.4403 63.2305 17.8383C63.2305 17.8383 64.2376 15.486 62.412 13.6683C62.412 13.6683 61.3424 12.6957 58.9185 12.069C58.3833 11.976 57.7519 11.5353 57.8172 10.9393C57.9105 10.156 59.1071 10.3127 59.6106 10.4066C60.5886 10.5903 61.5336 10.9191 62.4143 11.381ZM72.8639 11.381L73.3992 8.40242C73.3992 8.40242 69.622 6.36433 66.1915 8.37127C65.6553 8.77341 65.2588 9.3326 65.0575 9.9705C64.6175 11.0676 64.6175 12.7924 65.4673 13.7013C66.2233 14.5167 67.3871 14.9867 68.4259 15.3316C68.9211 15.4457 69.4052 15.6031 69.8726 15.8021C70.2506 16.0215 70.9427 16.4297 70.3766 17.1503C70.2366 17.2856 70.0672 17.3871 69.8816 17.4469C69.696 17.5067 69.4991 17.5232 69.3061 17.4952C69.3061 17.4952 66.8514 17.3697 65.1201 16.333L64.5227 19.2823C66.0651 20.0729 67.7979 20.4203 69.5273 20.2855C69.5273 20.2855 72.8005 20.4422 73.6806 17.8402C73.6806 17.8402 74.6877 15.4878 72.8621 13.6701C72.8621 13.6701 71.792 12.6976 69.3681 12.0709C68.8329 11.9779 68.2015 11.5372 68.2668 10.9412C68.3601 10.1579 69.5567 10.3145 70.0602 10.4084C71.0353 10.6012 71.9788 10.9283 72.8635 11.3801L72.8639 11.381ZM82.9042 11.381L83.4395 8.40242C83.4395 8.40242 79.6619 6.36433 76.2314 8.37127C75.6955 8.77355 75.2993 9.33273 75.0983 9.9705C74.6578 11.0676 74.6578 12.7924 75.5076 13.7013C76.2636 14.5167 77.4275 14.9867 78.4663 15.3316C78.9615 15.4457 79.4456 15.6031 79.9129 15.8021C80.2909 16.0215 80.983 16.4297 80.4169 17.1503C80.2769 17.2856 80.1076 17.3871 79.922 17.4469C79.7363 17.5067 79.5394 17.5232 79.3464 17.4952C79.3464 17.4952 76.8908 17.3697 75.1604 16.333L74.5621 19.2804C76.1045 20.0711 77.8373 20.4184 79.5667 20.2837C79.5667 20.2837 82.8399 20.4403 83.72 17.8383C83.72 17.8383 84.7271 15.486 82.9015 13.6683C82.9015 13.6683 81.8314 12.6957 79.408 12.069C78.8727 11.976 78.2413 11.5353 78.3067 10.9393C78.4 10.156 79.5965 10.3127 80.1001 10.4066C81.0766 10.5952 82.0208 10.9233 82.9033 11.3805L82.9042 11.381Z" fill="white"/>
</g>
<defs>
<clipPath id="clip0_2088_2044">
<rect width="84" height="28" fill="white" transform="translate(0 -0.000976562)"/>
</clipPath>
</defs>
</svg>
