<svg id="Layer_1" data-name="Layer 1" xmlns="http://www.w3.org/2000/svg" viewBox="0 0 160.79 54"><defs><style>.cls-1{fill:#fff;}</style></defs><title>logo-esss-w</title><polygon class="cls-1" points="71.15 39.07 37.31 54 37.31 46.46 64.24 34.57 37.28 22.74 37.28 15.22 64.24 27.03 64.25 19.5 37.31 7.56 37.31 0 71.14 15.01 71.15 39.07 71.15 39.07"/><polygon class="cls-1" points="0 14.93 33.85 0 33.85 7.54 6.9 19.43 33.82 31.27 33.82 38.8 6.9 26.97 6.9 34.5 33.82 46.44 33.82 54 0.01 38.99 0 14.93 0 14.93"/><polygon class="cls-1" points="101.19 39.02 101.19 33.45 91.94 33.45 91.94 29.5 99.61 29.5 98.7 23.72 91.94 23.72 91.94 20.43 100.87 20.43 100.87 14.86 84.94 14.86 84.94 39.02 101.19 39.02 101.19 39.02"/><path class="cls-1" d="M121.45,31.42c0-4-2.28-5.88-7.77-7.7-2.73-.91-3.29-1.4-3.29-2.35s.7-1.33,2.13-1.33a15.47,15.47,0,0,1,6.83,2.07l1.05-5.81a17,17,0,0,0-8-1.72c-4.76,0-8.64,2.49-8.64,7.46,0,4.24,2.24,5.85,7.17,7.6,3.29,1.15,3.89,1.64,3.89,2.66s-.91,1.54-2.31,1.54a19.87,19.87,0,0,1-8.23-2.31l-1.05,5.84a22.37,22.37,0,0,0,9.17,1.93c4.9,0,9.07-2.17,9.07-7.88Z"/><path class="cls-1" d="M141.12,31.42c0-4-2.28-5.88-7.77-7.7-2.73-.91-3.29-1.4-3.29-2.35s.7-1.33,2.13-1.33A15.47,15.47,0,0,1,139,22.11l1-5.81a17,17,0,0,0-8-1.72c-4.76,0-8.64,2.49-8.64,7.46,0,4.24,2.24,5.85,7.17,7.6,3.29,1.15,3.89,1.64,3.89,2.66s-.91,1.54-2.31,1.54a19.87,19.87,0,0,1-8.23-2.31l-1.05,5.84a22.37,22.37,0,0,0,9.17,1.93c4.9,0,9.07-2.17,9.07-7.88Z"/><path class="cls-1" d="M160.79,31.42c0-4-2.28-5.88-7.77-7.7-2.73-.91-3.29-1.4-3.29-2.35s.7-1.33,2.13-1.33a15.47,15.47,0,0,1,6.83,2.07l1.05-5.81a17,17,0,0,0-8-1.72c-4.76,0-8.64,2.49-8.64,7.46,0,4.24,2.24,5.85,7.17,7.6,3.29,1.15,3.89,1.64,3.89,2.66s-.91,1.54-2.31,1.54a19.87,19.87,0,0,1-8.23-2.31l-1,5.84a22.37,22.37,0,0,0,9.17,1.93c4.9,0,9.07-2.17,9.07-7.88Z"/></svg>