<svg width="158" height="26" viewBox="0 0 158 26" fill="none" xmlns="http://www.w3.org/2000/svg">
<path d="M139.776 18.9577H136.563L140.427 11.0915H140.49L139.776 18.9577ZM69.6629 18.9577H66.4502L70.3136 11.0915H70.3767L69.6629 18.9577ZM150.933 21.9267L154.954 7.91783H149.41L144.842 23.8388L144.739 7.91783H138.062L128.986 23.5099L133.46 7.91783H128.198L125.931 17.6938H125.836L124.318 7.91783H118.598L114.578 21.9267H106.665L107.748 18.1536H114.677L115.677 14.6654H108.749L109.684 11.4061H116.833L117.834 7.91783H105.846H105.142H91.4842L91.0359 9.48124C90.2266 8.25786 88.4832 7.51766 85.7849 7.51766C81.4824 7.51766 78.3234 9.19474 77.3807 12.4784C76.9409 14.0137 77.2313 15.0841 77.9866 15.9682C78.772 16.8527 80.0283 17.5271 81.5285 18.2494C82.8044 18.9008 84.2984 19.459 83.8779 20.9253C83.6238 21.8099 82.8044 22.6708 81.4997 22.6708C79.7468 22.6708 79.5607 21.7843 79.8481 20.781L80.2032 19.544L75.065 19.5523L74.7086 20.7944L74.6255 7.91783H67.9491L64.1205 14.4936L65.1534 10.8967H55.9566L57.141 6.76894H67.1356L68.4779 2.09112H51.1071L44.415 25.4118H51.7908L54.6137 15.5748H63.4917L57.7626 25.415H63.3377L64.968 22.0372H69.3143L69.1325 25.415H74.7387L74.7272 23.7168C75.4227 24.9482 77.2231 25.8154 80.4867 25.8154C85.089 25.8154 88.1447 23.9519 89.1067 20.5996C89.7139 18.4812 89.2924 17.3183 88.2539 16.4338C87.2161 15.5499 85.5939 14.9448 83.7919 13.9671C82.8224 13.4089 82.2462 12.874 82.7037 11.8266C83.0516 11.0583 83.853 10.5931 84.9779 10.6627C86.7953 10.756 86.3316 12.1521 86.1011 13.1758H91.2053C91.4332 12.5493 91.5513 11.9562 91.5614 11.4061H94.8296L90.81 25.415H96.3534L100.373 11.4061H104.141L100.121 25.415H113.576H113.844H118.852L121.144 15.6627L121.221 15.6154L122.764 25.415H127.876H128.439H133.451L135.081 22.0372H139.427L139.245 25.415H144.389H144.852H156.704L157.705 21.9267H150.933Z" fill="white"/>
<path d="M32.2477 16.297C31.9331 17.05 31.4817 17.7298 30.9267 18.3103H36.9987L38.1609 16.297H32.2477Z" fill="white"/>
<path d="M39.0449 12.7455H32.6776C32.7284 13.0749 32.7545 13.4116 32.7545 13.7546C32.7545 14.0957 32.7284 14.4314 32.6785 14.759H39.0475L39.6269 13.7546L39.0449 12.7455Z" fill="white"/>
<path d="M36.994 9.1926H30.9203C31.4766 9.77247 31.9283 10.4525 32.2439 11.2053H38.1561L36.994 9.1926Z" fill="white"/>
<path d="M19.6442 12.7444H13.2776L12.9404 13.3282H7.78845L7.6726 13.5293H0.911908L0.787628 13.7444V13.7519L0.909864 13.9636H7.6726L7.7957 14.1764H12.9391L13.275 14.7581H19.6439C19.5938 14.4302 19.568 14.0946 19.568 13.7535C19.568 13.4105 19.5944 13.074 19.6442 12.7444Z" fill="white"/>
<path d="M15.3284 9.1926L14.6557 10.3577H9.50476L9.26423 10.7743H2.50229L2.2536 11.2053H20.0788C20.3941 10.4525 20.846 9.77247 21.4019 9.1926H15.3284Z" fill="white"/>
<path d="M34.941 5.64032H17.3771L16.7043 6.80573H11.5535L11.3129 7.22211H4.55083L4.30215 7.65308H23.6545C24.427 7.33567 25.2724 7.15939 26.1587 7.15939C27.0455 7.15939 27.8907 7.33567 28.6628 7.65308H36.1031L34.941 5.64032Z" fill="white"/>
<path d="M32.8944 2.0937H19.4283L18.7801 3.2167H13.6273L13.364 3.67268H6.60246L6.35379 4.10352H34.0544L32.8944 2.0937Z" fill="white"/>
<path d="M21.3973 18.3103C20.8419 17.7298 20.3915 17.05 20.0762 16.297H2.25681L2.50562 16.7277H9.26821L9.50835 17.1441H14.6522L15.3253 18.3103H21.3973Z" fill="white"/>
<path d="M28.6766 19.8498C27.9017 20.1697 27.0525 20.3477 26.1616 20.3477C25.2711 20.3477 24.422 20.1697 23.6467 19.8498H4.30856L4.55737 20.2806H11.32L11.5607 20.6979H16.7048L17.3772 21.8625H34.9466L36.1087 19.8498H28.6766Z" fill="white"/>
<path d="M6.36029 23.401L6.60896 23.8321H13.3751L13.638 24.2874H18.7784L19.4295 25.4153H32.8955L34.0582 23.401H6.36029Z" fill="white"/>
<path d="M69.8786 0.559016H74.0993L73.9048 1.65618H70.9848L70.7369 3.063H73.4179L73.2233 4.16017H70.5512L70.2592 5.81491H73.3208L73.1262 6.91211H68.7286L69.8786 0.559016Z" fill="white"/>
<path d="M78.2929 6.91224H77.1419L77.3368 6.06283C76.9388 6.66442 76.3993 7.03613 75.6646 7.03613C74.9923 7.03613 74.3109 6.65549 74.3109 5.76203C74.3109 5.39035 74.3377 5.21342 74.3995 4.86793L74.8948 2.20479H76.1423L75.6469 4.83281C75.6028 5.07164 75.576 5.2575 75.576 5.39035C75.576 5.86804 75.9301 5.99194 76.1514 5.99194C76.9032 5.99194 77.3194 5.4344 77.4607 4.60291L77.8943 2.20479H79.1421L78.2929 6.91224Z" fill="white"/>
<path d="M82.9377 2.0809L82.752 3.37272C82.6461 3.3463 82.5221 3.30183 82.3541 3.30183C81.8407 3.30183 81.3898 3.50558 81.1243 4.77967L80.7525 6.91211H79.4962L80.3457 2.20467H81.4869L81.257 3.16044C81.7966 2.30211 82.1062 2.07194 82.7877 2.07194L82.9377 2.0809Z" fill="white"/>
<path d="M85.3025 6.06278C86.0369 6.06278 86.6654 5.36346 86.6654 4.24877C86.6654 3.46132 86.2494 3.05413 85.6831 3.05413C84.9487 3.05413 84.3202 3.75345 84.3202 4.86788C84.3202 5.65572 84.7365 6.06278 85.3025 6.06278ZM85.7717 2.06333C87.0012 2.06333 87.9393 2.77122 87.9393 4.26629C87.9393 5.25745 87.2938 7.05371 85.2142 7.05371C84.0282 7.05371 83.046 6.29269 83.046 4.85065C83.046 3.85946 83.6924 2.06333 85.7717 2.06333Z" fill="white"/>
<path d="M90.8513 6.00948C91.7803 6.00948 92.1252 4.87677 92.1252 4.04528C92.1252 3.44366 91.7446 3.05409 91.2581 3.05409C90.0989 3.05409 89.9838 4.63794 89.9838 4.93874C89.9838 5.70869 90.3736 6.00948 90.8513 6.00948ZM89.2406 2.20471H90.3556L90.1519 3.09856L90.1698 3.11606C90.5151 2.42605 90.9929 2.06329 91.7534 2.06329C92.3201 2.06329 93.3465 2.4525 93.3465 4.04528C93.3465 5.08944 92.842 7.05368 91.072 7.05368C90.2938 7.05368 89.9047 6.52255 89.7981 6.04486H89.7807L89.2854 8.78784H88.0552L89.2406 2.20471Z" fill="white"/>
<path d="M97.1053 4.12487V3.94797C97.1053 3.51433 96.8575 3.05413 96.2029 3.05413C95.5564 3.05413 95.2294 3.60274 95.1408 4.12487H97.1053ZM95.0525 4.99177C95.0437 5.04517 95.0345 5.1071 95.0345 5.24852C95.0345 5.64676 95.3004 6.06278 95.92 6.06278C96.3088 6.06278 96.6185 5.84118 96.7604 5.57613H98.1314C97.8927 6.31927 97.1403 7.05371 95.8579 7.05371C94.566 7.05371 93.8136 6.18668 93.8136 4.7708C93.8136 3.57616 94.5833 2.06333 96.2908 2.06333C97.362 2.06333 98.3263 2.70925 98.3263 4.26629C98.3263 4.57601 98.2995 4.79738 98.2553 4.99177H95.0525Z" fill="white"/>
</svg>
