<svg width="110" height="27" viewBox="0 0 110 27" fill="none" xmlns="http://www.w3.org/2000/svg">
<g clip-path="url(#clip0_2088_2532)">
<path d="M71.6633 26.8854C70.3344 26.5732 69.8502 25.8771 69.7745 24.1701L69.7208 22.9606L68.8364 22.8063C67.4959 22.5723 66.5334 22.284 66.6219 22.1429C66.6688 22.0681 67.9353 22.0158 69.7261 22.0149C73.262 22.0129 79.758 21.7121 82.6162 21.4178C88.2165 20.8412 91.5376 19.9027 92.3608 18.664C92.8999 17.8527 92.5667 17.1654 90.7043 15.2472C88.554 13.0325 85.3111 9.49733 84.1796 8.13428C82.8534 6.5369 82.2367 5.12656 82.4677 4.21937C82.589 3.74253 83.1736 3.25719 83.9478 2.99045C84.8959 2.66384 88.475 2.6713 90.415 3.00392C93.7169 3.57004 98.5692 4.95851 98.8585 5.41998C98.8932 5.4753 97.3526 5.52055 95.4349 5.52055C91.9343 5.52055 91.3482 5.59043 91.3482 6.00775C91.3482 6.33075 92.5897 7.29695 94.86 8.74087C101.587 13.0194 102.913 13.9821 104.289 15.5879C105.739 17.2807 106.301 18.406 106.321 19.6568C106.331 20.3352 106.271 20.6187 106.035 20.9949C104.921 22.7729 102.422 23.5868 97.2448 23.858C91.3953 24.1644 77.8923 23.8409 71.9179 23.2511L71.0847 23.1688V23.9707C71.0847 24.671 71.134 24.827 71.4737 25.2019L71.8627 25.6311L89.6143 25.6654C105.861 25.6968 107.405 25.6814 107.828 25.4834C108.792 25.0323 108.741 25.657 108.785 13.8671C108.807 8.0475 108.787 3.02343 108.74 2.70247C108.679 2.28616 108.528 1.9942 108.214 1.6838L107.772 1.24869H90.0157C73.5181 1.24869 72.2317 1.26459 71.874 1.47294C71.222 1.85269 71.0847 2.33716 71.0847 4.25885V5.98059H76.2752C81.5334 5.98059 82.0143 6.01988 82.3678 6.47866C82.6471 6.84113 82.5991 8.2571 82.2949 8.62772L82.0402 8.93803L77.2171 9.00375L72.3939 9.06947L72.1392 9.37977C71.8258 9.76174 71.8006 10.6673 72.0921 11.0776C72.2994 11.3694 72.3048 11.3697 76.6748 11.3697C79.0811 11.3697 81.2332 11.4059 81.4572 11.45C82.1771 11.592 82.4163 11.9353 82.4163 12.8266C82.4163 13.4896 82.3639 13.6679 82.0891 13.9388L81.7619 14.2614H77.1505H72.5391L72.2118 14.584C71.7361 15.0531 71.7448 16.0576 72.2284 16.5059L72.5722 16.8245L77.3554 16.8903C82.8804 16.9662 82.5379 16.8744 82.5454 18.2803C82.5489 18.9717 82.5034 19.1217 82.2057 19.3976L81.8617 19.7162L74.9068 19.755C71.0816 19.7764 67.7502 19.7575 67.5037 19.7135C67.2572 19.6692 66.9123 19.4918 66.7372 19.3192L66.4188 19.0053V12.8946V6.7839L66.7403 6.41511C67.0466 6.06384 67.1252 6.04419 68.3947 6.00151L69.7276 5.9567L69.7729 4.01916C69.8172 2.12788 69.8279 2.06627 70.2213 1.43919C70.443 1.08587 70.8831 0.617505 71.1993 0.398387L71.7742 0H89.9363H108.098L108.654 0.362584C108.96 0.56201 109.375 0.971704 109.578 1.27303L109.945 1.82088L109.982 13.2002C110.024 25.9945 110.08 25.2381 109.019 26.2023C108.701 26.4916 108.209 26.7917 107.926 26.8691C107.329 27.0327 72.3571 27.0484 71.6633 26.8854ZM60.347 23.1397C60.0268 22.8241 60.0198 22.7717 60.0198 20.7139V18.6107L59.4532 18.8115C56.7734 19.7612 53.0134 19.7698 50.2213 18.8326C49.7814 18.685 49.3614 18.5201 49.2881 18.4662C49.2148 18.4124 49.0217 18.3281 48.8591 18.279C48.581 18.1949 48.5717 18.2129 48.7022 18.5822C48.8005 18.8602 48.7979 19.0541 48.6933 19.2469C48.5523 19.5066 48.4362 19.5191 46.1686 19.5191C43.4309 19.5191 43.4093 19.5114 42.6952 18.2809C42.0277 17.1305 42.1164 17.1532 38.2818 17.1532C34.4319 17.1532 34.5225 17.1284 33.6932 18.4067C32.9855 19.4974 32.9037 19.5191 29.5075 19.5191H26.5777L26.3014 19.1728C26.0356 18.8397 26.0251 18.674 26.0251 14.8352C26.0251 11.7297 25.9881 10.844 25.8584 10.8442C25.7668 10.8444 25.2555 11.6281 24.7222 12.5858C22.7152 16.1905 21.2078 18.7953 20.9873 19.0397C20.58 19.4912 19.9617 19.6506 18.6173 19.6506C16.7822 19.6506 16.6729 19.581 15.1327 17.4312C11.1773 11.9105 10.3919 10.844 10.282 10.844C10.2121 10.844 10.1609 12.5306 10.1609 14.8352C10.1609 18.674 10.1503 18.8397 9.88459 19.1728C9.62549 19.4976 9.53896 19.5191 8.49448 19.5191C6.69939 19.5191 6.82808 20.0419 6.82808 12.7499C6.82808 6.80138 6.8339 6.66599 7.10438 6.32696L7.38068 5.98062H10.8263C13.8605 5.98062 14.3204 6.008 14.6773 6.21001C15.1228 6.46209 15.3508 6.79889 17.0943 9.78032C17.7457 10.8942 18.3536 11.8512 18.4453 11.9071C18.7798 12.1109 19.0948 11.7248 20.304 9.62931C21.9895 6.70835 22.1079 6.53325 22.597 6.23924C22.9971 5.99872 23.2875 5.98157 26.9684 5.98112C30.9097 5.98062 30.9113 5.98074 31.199 6.28272C31.4789 6.57649 31.4878 6.69315 31.5222 10.5217C31.5448 13.0354 31.6057 14.4586 31.6909 14.4586C31.7642 14.4586 32.3689 13.5122 33.0347 12.3555C33.7005 11.1989 34.7204 9.42608 35.301 8.41603C36.7665 5.86686 36.5441 5.98062 40.0633 5.98062C43.5567 5.98062 43.411 5.90724 44.3481 8.13841C44.6998 8.97583 45.0322 9.66099 45.0867 9.66099C45.1412 9.66099 45.3479 9.43035 45.5461 9.14846C46.4157 7.91117 48.6791 6.45852 50.7545 5.80562C52.5352 5.24546 53.393 5.12732 55.6205 5.13548C58.0392 5.14432 59.4411 5.37737 61.177 6.05913C63.4292 6.94362 65.2169 8.56912 64.5191 9.09784C64.4274 9.16728 63.6888 9.37983 62.8776 9.57018C61.2475 9.95272 60.9387 9.92851 59.8591 9.33353C58.6385 8.66093 57.5599 8.42424 55.6871 8.41804C54.0923 8.41277 53.8951 8.43955 53.2147 8.75419C52.1824 9.23161 51.5672 9.80816 51.0941 10.7417C50.7471 11.4264 50.6883 11.6885 50.6908 12.5408C50.6956 14.1518 51.4045 15.3481 52.7815 16.0685C55.0257 17.2426 57.9276 16.7848 59.6734 14.9812C60.0472 14.595 60.5219 14.2159 60.7283 14.1388C60.9347 14.0617 61.8962 13.9986 62.865 13.9986C65.4585 13.9986 65.219 13.5291 65.219 18.6125V22.8171L64.8917 23.1397C64.5742 23.4528 64.5068 23.4624 62.6194 23.4624C60.7319 23.4624 60.6645 23.4528 60.347 23.1397ZM40.2983 13.8625C40.4434 13.7859 40.5561 13.5883 40.5561 13.4105C40.5561 13.006 39.0451 9.42786 38.7565 9.14892C38.5557 8.95492 38.5124 8.96961 38.2147 9.33237C38.0368 9.54925 37.8909 9.76004 37.8906 9.80078C37.8902 9.84152 37.44 10.6696 36.8901 11.641C36.3403 12.6123 35.8903 13.4781 35.8903 13.5648C35.8902 13.6516 35.9952 13.7829 36.1235 13.8566C36.4308 14.0331 39.9655 14.038 40.2983 13.8625ZM0.349757 19.2425C0.108335 18.9796 0.0939739 18.6454 0.0588405 12.4733L0.0218825 5.9806H2.75842H5.49495V12.4035C5.49495 18.7024 5.48962 18.8331 5.21865 19.1728L4.94235 19.5191H2.77303C0.737221 19.5191 0.588086 19.5021 0.349757 19.2425ZM0.0504307 3.55009C0.0917506 2.74331 0.155261 2.51179 0.401986 2.26853C0.688805 1.98574 0.801648 1.97163 2.77729 1.97163H4.85148L5.17322 2.34043C5.44653 2.65371 5.49495 2.84661 5.49495 3.62199V4.53474H2.74748H0L0.0504307 3.55009Z" fill="white"/>
</g>
<defs>
<clipPath id="clip0_2088_2532">
<rect width="110" height="27" fill="white"/>
</clipPath>
</defs>
</svg>
