<?xml version="1.0" encoding="UTF-8" standalone="no"?>
<!-- Created with Inkscape (http://www.inkscape.org/) -->

<svg
   width="73.289604mm"
   height="14.87971mm"
   viewBox="0 0 73.289605 14.87971"
   version="1.1"
   id="svg1"
   xml:space="preserve"
   inkscape:version="1.3.2 (091e20e, 2023-11-25, custom)"
   sodipodi:docname="kisssoft.svg"
   xmlns:inkscape="http://www.inkscape.org/namespaces/inkscape"
   xmlns:sodipodi="http://sodipodi.sourceforge.net/DTD/sodipodi-0.dtd"
   xmlns="http://www.w3.org/2000/svg"
   xmlns:svg="http://www.w3.org/2000/svg"><sodipodi:namedview
     id="namedview1"
     pagecolor="#ffffff"
     bordercolor="#000000"
     borderopacity="0.25"
     inkscape:showpageshadow="2"
     inkscape:pageopacity="0.0"
     inkscape:pagecheckerboard="0"
     inkscape:deskcolor="#d1d1d1"
     inkscape:document-units="mm"
     inkscape:zoom="1.363005"
     inkscape:cx="103.44789"
     inkscape:cy="-73.000463"
     inkscape:window-width="1920"
     inkscape:window-height="1000"
     inkscape:window-x="-11"
     inkscape:window-y="-11"
     inkscape:window-maximized="1"
     inkscape:current-layer="layer1" /><defs
     id="defs1" /><g
     inkscape:label="Livello 1"
     inkscape:groupmode="layer"
     id="layer1"
     transform="translate(28.183106,-161.78531)"><path
       style="fill:#ffffff;fill-opacity:1"
       d="m -8.7362116,176.13386 c -1.1866292,-0.59139 -2.1545944,-1.84459 -2.4096064,-3.11964 -0.155,-0.77501 -0.111773,-0.85041 0.487522,-0.85041 0.361682,0 1.2100019,-0.0757 1.8851561,-0.16825 1.0403369,-0.1426 1.2275532,-0.10041 1.2275532,0.27661 0,0.24467 0.2922444,0.73711 0.6494318,1.09429 0.7976508,0.79765 1.9962102,0.85138 2.6588326,0.11919 0.8097674,-0.89478 0.1971997,-1.74099 -1.6441984,-2.27132 -3.51236,-1.01157 -4.8390663,-2.16578 -4.8390663,-4.20989 0,-1.98009 1.266445,-3.34366 3.5880301,-3.86321 2.7925506,-0.62494 5.9782948,0.79353 6.36228952,2.83286 0.1428453,0.75862 0.089274,0.83482 -0.69753502,0.99219 -1.6957087,0.33914 -2.3972831,0.20108 -3.1673676,-0.6233 -0.4078105,-0.43656 -0.9686044,-0.79375 -1.2462087,-0.79375 -0.7708194,0 -1.5117112,0.64919 -1.3177479,1.15465 0.1855697,0.48359 0.5219155,0.6363 3.2254149,1.46445 2.1647672,0.66313 2.8996371,1.20719 3.46804452,2.56758 0.9013632,2.15727 -0.460477,4.92706 -2.76147242,5.61646 -1.6471887,0.49351 -4.2489798,0.38956 -5.469072,-0.21851 z m 11.636747,0.17234 c -1.068448,-0.4832 -2.41498328,-2.0554 -2.64075278,-3.08332 -0.1005447,-0.45778 -0.1417129,-0.86868 -0.091485,-0.91312 0.050228,-0.0444 0.89499558,-0.16446 1.87726118,-0.26672 1.5484679,-0.16121 1.7859375,-0.12876 1.7859375,0.24403 0,0.23648 0.2922443,0.72221 0.6494318,1.07939 0.7771016,0.7771 1.9937626,0.85409 2.6168526,0.16558 0.957454,-1.05797 0.337251,-1.79912 -2.1001357,-2.50967 -3.138856,-0.91504 -4.34114858,-2.02781 -4.34114858,-4.01793 0,-1.98009 1.26644448,-3.34366 3.58802958,-3.86321 2.8358067,-0.63462 5.963644,0.75857 6.360001,2.83286 0.14508,0.75926 0.09222,0.83469 -0.6952463,0.99219 -1.695709,0.33914 -2.397283,0.20108 -3.167368,-0.6233 -0.40781,-0.43656 -0.968604,-0.79375 -1.246209,-0.79375 -0.7708189,0 -1.5117106,0.64919 -1.3177474,1.15465 0.1874444,0.48847 0.5408053,0.64681 3.2840454,1.47157 2.2032,0.66239 3.4017583,1.66982 3.6666803,3.08197 0.362503,1.93231 -0.605953,3.97995 -2.2701023,4.79975 -1.212138,0.59712 -4.8519416,0.74926 -5.9580443,0.24903 z M 13.32995,176.13486 c -0.973777,-0.51467 -1.825537,-1.54373 -1.825537,-2.20552 0,-0.25279 0.478713,-0.42602 1.513321,-0.54762 1.317402,-0.15483 1.565741,-0.11024 1.918229,0.34441 0.585121,0.75471 1.682961,0.95829 2.228089,0.41316 0.627111,-0.62711 0.175661,-1.06392 -1.505556,-1.45671 -2.226473,-0.5202 -3.030384,-0.94781 -3.504114,-1.8639 -0.568658,-1.09967 -0.372581,-2.71838 0.433174,-3.57607 1.682512,-1.79095 6.179617,-1.38441 7.233685,0.65394 0.227932,0.44077 0.414422,0.85828 0.414422,0.92779 0,0.0695 -0.660899,0.20897 -1.468665,0.30989 -1.169776,0.14616 -1.533232,0.0999 -1.785937,-0.22725 -0.564984,-0.73143 -2.037065,-0.68518 -2.037065,0.064 0,0.55538 0.151699,0.62142 2.496754,1.08695 2.170253,0.43083 3.059496,1.32748 3.059496,3.08499 0,1.53689 -0.461748,2.28034 -1.859027,2.99318 -1.371107,0.69949 -3.986638,0.69888 -5.311269,-0.001 z m 10.407274,-0.0178 c -1.374202,-0.69782 -2.082379,-1.5562 -2.471462,-2.99564 -0.68851,-2.54719 0.369446,-5.45788 2.320907,-6.38538 4.139418,-1.9674 8.407706,0.8599 7.952763,5.26788 -0.193974,1.87942 -0.765349,2.91739 -2.087636,3.79244 -1.512758,1.00109 -4.089894,1.14572 -5.714572,0.3207 z m 3.23346,-2.00098 c 0.657538,-0.25232 1.202479,-1.53461 1.202479,-2.82953 0,-3.12165 -3.215627,-3.54917 -3.626992,-0.48221 -0.312148,2.32724 0.850729,3.91566 2.424513,3.31174 z m 14.518134,2.36155 c -0.828412,-0.16137 -1.847338,-1.278 -2.038543,-2.23402 -0.09054,-0.45269 -0.164613,-1.87975 -0.164613,-3.17125 v -2.34817 h -1.190625 -1.190625 v 3.83646 3.83645 h -1.852083 -1.852083 v -3.83645 -3.83646 h -0.926042 c -0.921142,0 -0.926042,-0.006 -0.926042,-1.19063 0,-1.17557 0.01127,-1.19062 0.891618,-1.19062 0.876023,0 0.896939,-0.0271 1.195828,-1.54627 0.433771,-2.20482 1.115027,-2.77371 3.481689,-2.90744 l 1.839199,-0.10392 v 1.24879 c 0,1.0269 -0.07392,1.22042 -0.416042,1.08914 -0.765416,-0.29372 -1.436042,0.31476 -1.436042,1.30297 0,0.90816 0.01096,0.91673 1.173862,0.91673 1.13096,0 1.176891,-0.0314 1.25677,-0.8599 0.07293,-0.7564 0.281936,-0.96514 1.736556,-1.73438 l 1.653645,-0.8745 v 1.73439 1.73439 h 1.190625 1.190625 v 1.19062 1.19063 H 43.91587 42.725245 v 2.32833 c 0,2.60249 0.183645,2.96333 1.508125,2.96333 0.855276,0 0.873125,0.0238 0.873125,1.16232 0,0.81581 -0.124768,1.2102 -0.418514,1.32292 -0.449879,0.17263 -2.260617,0.15935 -3.199163,-0.0235 z m -69.671904,-6.8274 v -6.74688 h 1.852083 1.852084 l 0.0084,2.57969 c 0.0068,2.0823 0.07056,2.49876 0.330729,2.15997 0.177273,-0.23085 1.20388,-1.39171 2.281348,-2.57969 l 1.959033,-2.15997 h 2.075863 c 1.141724,0 2.075862,0.0928 2.075862,0.20617 0,0.1134 -1.131093,1.48723 -2.513541,3.05296 -1.382448,1.56573 -2.513542,2.96187 -2.513542,3.10254 0,0.14066 1.131094,1.56416 2.513542,3.16333 l 2.513541,2.90759 v -5.37156 -5.37157 l 1.827497,-0.81199 c 1.8052,-0.80209 1.828797,-0.80513 1.934027,-0.24942 0.09489,0.5011 0.07942,10.77127 -0.01848,12.27039 -0.03849,0.58936 -0.0779,0.59518 -3.941481,0.58169 l -3.902604,-0.0136 -2.248958,-2.7493 -2.248959,-2.7493 -0.0751,2.76293 -0.0751,2.76292 h -1.843132 -1.843132 z"
       id="path1" /></g></svg>
