<svg width="228" height="19" viewBox="0 0 228 19" fill="none" xmlns="http://www.w3.org/2000/svg">
<path d="M40.199 6.50972H30.9038V1.07898H40.199V6.50972ZM29.0624 7.5887H42.0448V0H29.0624V7.5887Z" fill="white"/>
<path d="M40.199 15.0744H30.9038V9.63977H40.199V15.0744ZM29.0624 16.1534H42.0448V8.56079H29.0624V16.1534Z" fill="white"/>
<path d="M25.6679 15.0744H16.3723V9.63977H25.6679V15.0744ZM14.5312 16.1534H27.5137V8.56079H14.5312V16.1534Z" fill="white"/>
<path d="M11.1365 15.0744H1.84096V9.63977H11.1365V15.0744ZM-7.62939e-05 16.1534H12.9823V8.56079H-7.62939e-05V16.1534Z" fill="white"/>
<path d="M52.6673 15.2755L52.3694 18.0563H45.3349V17.8405H45.5979C45.8276 17.8405 46.0128 17.7992 46.1529 17.7175C46.254 17.6632 46.3322 17.5696 46.3869 17.4375C46.4297 17.3438 46.4508 17.0983 46.4508 16.7012V11.4895C46.4508 11.0845 46.4297 10.8314 46.3869 10.7299C46.3441 10.6291 46.2572 10.5402 46.1267 10.4645C45.9962 10.3883 45.82 10.3502 45.5979 10.3502H45.3349V10.134H49.5592V10.3502H49.2145C48.9844 10.3502 48.7996 10.3915 48.6595 10.4732C48.558 10.5275 48.4782 10.6212 48.4199 10.7533C48.3767 10.8469 48.3557 11.0924 48.3557 11.4895V16.5374C48.3557 16.9424 48.3791 17.2006 48.4255 17.3113C48.4723 17.4228 48.5639 17.5053 48.7004 17.5596C48.7976 17.595 49.0332 17.6128 49.4073 17.6128H50.0674C50.4879 17.6128 50.8389 17.5386 51.119 17.3903C51.3995 17.2423 51.6418 17.0086 51.8465 16.6893C52.0508 16.37 52.2448 15.8987 52.4277 15.2755H52.6673Z" fill="white"/>
<path d="M58.354 15.368L57.1739 12.6392L55.9588 15.368H58.354ZM58.5527 15.8H55.7541L55.4209 16.5716C55.3122 16.8282 55.2578 17.0409 55.2578 17.2087C55.2578 17.4304 55.3471 17.5938 55.5264 17.699C55.6315 17.7616 55.8906 17.808 56.3035 17.8394V18.0556H53.6687V17.8394C53.9527 17.7965 54.1864 17.6787 54.3697 17.4859C54.5525 17.2931 54.7786 16.8949 55.0472 16.2907L57.8808 9.96948H57.9918L60.8492 16.4664C61.1213 17.0817 61.3454 17.4693 61.5208 17.6287C61.6533 17.7497 61.8401 17.8199 62.0817 17.8394V18.0556H58.2489V17.8394H58.4068C58.7142 17.8394 58.9308 17.7965 59.0553 17.7105C59.1406 17.6486 59.1839 17.5585 59.1839 17.4423C59.1839 17.3721 59.172 17.3003 59.1486 17.2257C59.1406 17.1908 59.0823 17.0448 58.9736 16.7878L58.5527 15.8Z" fill="white"/>
<path d="M73.2316 10.1333V10.3495C73.0833 10.361 72.9591 10.4023 72.8575 10.4721C72.7564 10.5423 72.6667 10.6498 72.589 10.7938C72.5656 10.8402 72.443 11.1421 72.2209 11.699L69.7376 18.2369H69.5099L67.5467 13.1303L65.3851 18.2369H65.1689L62.5631 11.7692C62.2981 11.1191 62.1132 10.7256 62.0081 10.5887C61.903 10.4526 61.7257 10.3729 61.4766 10.3495V10.1333H64.9119V10.3495C64.635 10.357 64.4513 10.3995 64.3597 10.4752C64.2681 10.551 64.2224 10.6458 64.2224 10.7585C64.2224 10.9064 64.318 11.2198 64.5088 11.699L66.0631 15.5437L67.3071 12.5404L66.9802 11.699C66.8009 11.2397 66.6625 10.9326 66.5653 10.7791C66.4677 10.6252 66.3558 10.5149 66.2293 10.4487C66.1027 10.3828 65.9167 10.3495 65.6715 10.3495V10.1333H69.5099V10.3495C69.2409 10.3531 69.0481 10.3749 68.9315 10.4134C68.8498 10.4411 68.7855 10.4864 68.7387 10.551C68.6919 10.6153 68.6685 10.6883 68.6685 10.77C68.6685 10.8596 68.7562 11.1341 68.9315 11.5935L70.3747 15.3446L71.6659 11.9501C71.802 11.5995 71.8861 11.3599 71.917 11.2317C71.9479 11.1032 71.9638 10.9842 71.9638 10.8755C71.9638 10.7156 71.9091 10.5899 71.8004 10.4983C71.6913 10.407 71.4826 10.357 71.1752 10.3495V10.1333H73.2316Z" fill="white"/>
<path d="M78.2994 12.966C78.7084 12.8141 78.9829 12.6514 79.1233 12.4781C79.2633 12.3051 79.3336 12.0953 79.3336 11.8501C79.3336 11.4142 79.2185 11.046 78.9888 10.7457C78.8369 10.5474 78.6501 10.4478 78.4279 10.4478C78.2447 10.4478 78.088 10.52 77.9575 10.664C77.8269 10.808 77.7619 11.0032 77.7619 11.2483C77.7619 11.4395 77.7928 11.6438 77.8555 11.862C77.9174 12.0798 78.0657 12.4483 78.2994 12.966ZM76.8971 13.9478C76.5857 14.0799 76.3655 14.2199 76.237 14.3679C76.0537 14.5865 75.9625 14.83 75.9625 15.0986C75.9625 15.4647 76.0684 15.8289 76.2807 16.1915C76.4929 16.5533 76.7491 16.8337 77.049 17.0325C77.3489 17.2308 77.6488 17.3304 77.9487 17.3304C78.0967 17.3304 78.2633 17.2986 78.4482 17.234C78.6334 17.1697 78.8349 17.0733 79.0531 16.9448C78.1141 15.9828 77.3957 14.984 76.8971 13.9478ZM80.6248 13.3167H83.0553V13.5444C82.7824 13.5833 82.5682 13.6642 82.4123 13.7872C82.2568 13.9093 82.0541 14.1949 81.8049 14.6428C81.5558 15.0907 81.2047 15.5913 80.7533 16.1443C81.1504 16.5029 81.4737 16.7516 81.7228 16.8924C81.8982 16.9896 82.0699 17.0384 82.2369 17.0384C82.5253 17.0384 82.7863 16.8492 83.02 16.4715L83.2596 16.6001C82.9403 17.2276 82.5995 17.6731 82.2369 17.9377C81.9604 18.1368 81.6451 18.236 81.2904 18.236C80.987 18.236 80.6978 18.1706 80.4229 18.0404C80.1484 17.9099 79.8143 17.6656 79.4212 17.307C78.9341 17.6342 78.4763 17.8707 78.0479 18.0166C77.6199 18.163 77.1736 18.236 76.7103 18.236C75.97 18.236 75.3818 18.0353 74.9458 17.6342C74.5094 17.2328 74.2913 16.7615 74.2913 16.2204C74.2913 15.6365 74.4995 15.128 74.9164 14.6952C75.3334 14.2632 75.9387 13.8895 76.7337 13.5737C76.6325 13.3206 76.5563 13.0735 76.5056 12.8319C76.4548 12.5903 76.4298 12.3567 76.4298 12.131C76.4298 11.5078 76.6488 10.9885 77.0871 10.5736C77.5251 10.159 78.0852 9.95117 78.7667 9.95117C79.3157 9.95117 79.7513 10.0884 80.0726 10.3633C80.3939 10.6382 80.5546 10.9584 80.5546 11.3245C80.5546 11.7644 80.3899 12.1417 80.0607 12.4551C79.7314 12.7685 79.211 13.0557 78.4981 13.3167C78.9381 14.0918 79.5827 14.9276 80.432 15.823C81.0044 15.1803 81.2904 14.6293 81.2904 14.1696C81.2904 14.0061 81.2341 13.8669 81.1214 13.7518C81.0084 13.6372 80.843 13.5682 80.6248 13.5444V13.3167Z" fill="white"/>
<path d="M91.8101 10.1331V12.2772H91.5994C91.4749 11.7825 91.3368 11.4275 91.1845 11.2109C91.0326 10.9947 90.8243 10.8225 90.5593 10.694C90.4114 10.6238 90.1523 10.5885 89.7826 10.5885H89.1923V16.6998C89.1923 17.1049 89.2146 17.3583 89.2594 17.4599C89.3042 17.5607 89.3919 17.6495 89.5224 17.7253C89.6529 17.801 89.831 17.8395 90.0571 17.8395H90.3197V18.0553H86.172V17.8395H86.4346C86.6642 17.8395 86.8495 17.7983 86.9895 17.7166C87.0907 17.6622 87.1708 17.5686 87.2291 17.4361C87.272 17.3429 87.2938 17.0973 87.2938 16.6998V10.5885H86.721C86.187 10.5885 85.7999 10.7019 85.5583 10.9276C85.2195 11.243 85.0053 11.6928 84.9156 12.2772H84.6935V10.1331H91.8101Z" fill="white"/>
<path d="M96.6106 15.368L95.4304 12.6392L94.215 15.368H96.6106ZM96.8089 15.8H94.0107L93.6775 16.5716C93.5684 16.8282 93.514 17.0409 93.514 17.2087C93.514 17.4304 93.6037 17.5938 93.7826 17.699C93.8877 17.7616 94.1471 17.808 94.5601 17.8394V18.0556H91.9249V17.8394C92.2089 17.7965 92.4426 17.6787 92.6258 17.4859C92.8091 17.2931 93.0348 16.8949 93.3034 16.2907L96.1373 9.96948H96.248L99.105 16.4664C99.3779 17.0817 99.6016 17.4693 99.7773 17.6287C99.9094 17.7497 100.097 17.8199 100.338 17.8394V18.0556H96.5051V17.8394H96.6629C96.9708 17.8394 97.1866 17.7965 97.3115 17.7105C97.3972 17.6486 97.4401 17.5585 97.4401 17.4423C97.4401 17.3721 97.4282 17.3003 97.4051 17.2257C97.3972 17.1908 97.3385 17.0448 97.2298 16.7878L96.8089 15.8Z" fill="white"/>
<path d="M106.006 13.4107L108.191 16.6532C108.553 17.1907 108.811 17.5168 108.965 17.6314C109.119 17.7465 109.301 17.8155 109.511 17.8393V18.0551H105.649V17.8393C105.957 17.8155 106.156 17.7691 106.245 17.6985C106.335 17.6286 106.38 17.5434 106.38 17.4418C106.38 17.372 106.366 17.3097 106.339 17.2546C106.284 17.1379 106.148 16.9198 105.93 16.6004L104.773 14.8887L103.564 16.3668C103.201 16.815 103.02 17.1185 103.02 17.2784C103.02 17.391 103.067 17.4961 103.161 17.5937C103.254 17.6913 103.392 17.7611 103.576 17.804C103.657 17.8274 103.825 17.8393 104.078 17.8393V18.0551H101.034V17.8393C101.381 17.7881 101.653 17.6953 101.852 17.5584C102.113 17.3795 102.477 17.0054 102.944 16.4366L104.516 14.5206L102.5 11.5585C102.169 11.0714 101.98 10.8008 101.934 10.7461C101.829 10.618 101.725 10.5263 101.624 10.472C101.523 10.4168 101.382 10.3764 101.203 10.349V10.1328H105.135V10.349H104.937C104.711 10.349 104.553 10.3851 104.463 10.4569C104.374 10.5291 104.329 10.6199 104.329 10.7286C104.329 10.8143 104.342 10.8889 104.37 10.9508L104.773 11.5585L105.754 13.054L106.59 12.0318C107.018 11.5058 107.233 11.1376 107.233 10.9274C107.233 10.8223 107.202 10.7251 107.142 10.6354C107.082 10.5458 106.995 10.4759 106.882 10.4248C106.769 10.3744 106.594 10.349 106.356 10.349V10.1328H109.272V10.349C109.042 10.353 108.857 10.3811 108.717 10.4335C108.577 10.4859 108.427 10.5846 108.267 10.7286C108.166 10.8223 107.912 11.1126 107.507 11.599L106.006 13.4107Z" fill="white"/>
<path d="M121.528 9.9519V12.6982H121.3C121.129 11.9814 120.809 11.4323 120.342 11.0503C119.875 10.6687 119.345 10.4779 118.753 10.4779C118.258 10.4779 117.804 10.6203 117.391 10.9044C116.979 11.1888 116.677 11.5609 116.486 12.0202C116.241 12.6085 116.118 13.2631 116.118 13.9831C116.118 14.6923 116.207 15.3377 116.387 15.9201C116.566 16.5028 116.846 16.9427 117.228 17.2403C117.61 17.5386 118.104 17.6877 118.712 17.6877C119.211 17.6877 119.668 17.5786 120.082 17.3605C120.497 17.1423 120.934 16.7662 121.394 16.2327V16.9162C120.95 17.3799 120.487 17.7155 120.006 17.9242C119.525 18.1324 118.963 18.2367 118.321 18.2367C117.475 18.2367 116.725 18.0674 116.068 17.7282C115.412 17.3894 114.906 16.9027 114.549 16.268C114.193 15.6333 114.015 14.9569 114.015 14.2405C114.015 13.4848 114.212 12.7684 114.608 12.0905C115.003 11.4129 115.537 10.8865 116.208 10.5128C116.88 10.1391 117.594 9.9519 118.35 9.9519C118.907 9.9519 119.495 10.0729 120.114 10.3145C120.473 10.4545 120.701 10.5247 120.798 10.5247C120.923 10.5247 121.03 10.4791 121.122 10.3875C121.213 10.2958 121.273 10.1506 121.3 9.9519H121.528Z" fill="white"/>
<path d="M126.876 10.3971C126.151 10.3971 125.6 10.7668 125.222 11.507C124.915 12.1147 124.761 12.9871 124.761 14.1248C124.761 15.4763 124.998 16.4751 125.474 17.1217C125.804 17.5736 126.268 17.7993 126.864 17.7993C127.265 17.7993 127.6 17.7021 127.869 17.5073C128.212 17.2578 128.479 16.8595 128.669 16.3125C128.86 15.7651 128.956 15.0514 128.956 14.1712C128.956 13.1235 128.858 12.3393 128.663 11.8196C128.469 11.2995 128.22 10.9326 127.919 10.7184C127.616 10.5038 127.269 10.3971 126.876 10.3971ZM126.805 10.023C128.068 9.97619 129.093 10.3443 129.882 11.127C130.67 11.9104 131.065 12.8895 131.065 14.0661C131.065 15.0709 130.771 15.9551 130.182 16.7187C129.403 17.7311 128.303 18.2376 126.882 18.2376C125.456 18.2376 124.354 17.7545 123.574 16.7885C122.959 16.0253 122.651 15.1197 122.651 14.0716C122.651 12.8954 123.052 11.9152 123.852 11.1298C124.653 10.3451 125.637 9.97619 126.805 10.023Z" fill="white"/>
<path d="M134.466 10.1333L138.375 15.0467V11.6407C138.375 11.1655 138.307 10.8442 138.171 10.6768C137.984 10.4507 137.67 10.3416 137.23 10.3495V10.1333H139.848V10.3495C139.513 10.3923 139.287 10.4479 139.173 10.5157C139.058 10.5839 138.968 10.6954 138.904 10.8489C138.839 11.0028 138.808 11.267 138.808 11.6407V18.2369H138.609L133.251 11.6407V16.6767C133.251 17.1329 133.355 17.4403 133.564 17.6002C133.772 17.7596 134.011 17.8398 134.28 17.8398H134.466V18.0556H131.656V17.8398C132.093 17.8358 132.396 17.7462 132.567 17.5708C132.739 17.3955 132.825 17.0976 132.825 16.6767V11.0857L132.655 10.8755C132.488 10.6649 132.34 10.5268 132.212 10.4606C132.083 10.3943 131.898 10.357 131.656 10.3495V10.1333H134.466Z" fill="white"/>
<path d="M145.751 9.95288L145.815 12.594H145.576C145.463 11.9316 145.185 11.3992 144.743 10.9958C144.301 10.5927 143.823 10.3912 143.309 10.3912C142.912 10.3912 142.597 10.4971 142.365 10.7098C142.134 10.922 142.018 11.1664 142.018 11.4428C142.018 11.6182 142.059 11.7737 142.141 11.9105C142.253 12.0934 142.435 12.2747 142.684 12.4536C142.867 12.5821 143.289 12.8098 143.952 13.1371C144.879 13.5929 145.504 14.0233 145.827 14.4283C146.147 14.8337 146.306 15.2971 146.306 15.8187C146.306 16.4812 146.048 17.0508 145.532 17.528C145.016 18.0053 144.361 18.2437 143.566 18.2437C143.317 18.2437 143.081 18.2183 142.859 18.1679C142.637 18.1167 142.359 18.0211 142.023 17.8811C141.837 17.8033 141.683 17.7645 141.562 17.7645C141.46 17.7645 141.354 17.8033 141.241 17.8811C141.128 17.9592 141.036 18.0783 140.966 18.2377H140.75V15.2463H140.966C141.137 16.0877 141.468 16.7295 141.956 17.1714C142.445 17.6137 142.972 17.8347 143.537 17.8347C143.973 17.8347 144.321 17.7157 144.58 17.4781C144.839 17.2404 144.968 16.964 144.968 16.6486C144.968 16.4614 144.919 16.2801 144.819 16.1055C144.72 15.9298 144.569 15.7636 144.367 15.6057C144.164 15.4478 143.806 15.2427 143.291 14.9896C142.571 14.6346 142.053 14.3331 141.737 14.0836C141.422 13.8341 141.18 13.556 141.01 13.2482C140.84 12.9407 140.756 12.6016 140.756 12.2315C140.756 11.6003 140.988 11.0628 141.451 10.6193C141.914 10.175 142.499 9.95288 143.204 9.95288C143.461 9.95288 143.71 9.98422 143.952 10.0465C144.135 10.0929 144.358 10.1798 144.62 10.3067C144.883 10.4329 145.068 10.4963 145.173 10.4963C145.274 10.4963 145.354 10.4654 145.412 10.4031C145.471 10.3404 145.525 10.1905 145.576 9.95288H145.751Z" fill="white"/>
<path d="M147.063 10.1343H151.153V10.3505H150.949C150.641 10.3505 150.43 10.3826 150.315 10.4469C150.2 10.5111 150.118 10.5996 150.07 10.7126C150.021 10.8253 149.997 11.1081 149.997 11.56V15.4392C149.997 16.1481 150.05 16.6174 150.157 16.847C150.264 17.0767 150.441 17.2679 150.686 17.4199C150.932 17.5718 151.241 17.6476 151.615 17.6476C152.043 17.6476 152.408 17.5512 152.71 17.3584C153.012 17.1656 153.238 16.9002 153.388 16.561C153.538 16.2219 153.613 15.6324 153.613 14.7906V11.56C153.613 11.2057 153.576 10.9522 153.502 10.8003C153.428 10.648 153.334 10.5433 153.222 10.4846C153.046 10.3953 152.799 10.3505 152.479 10.3505V10.1343H155.22V10.3505H155.056C154.834 10.3505 154.649 10.3953 154.501 10.4846C154.353 10.5742 154.246 10.7087 154.18 10.8876C154.129 11.0125 154.104 11.2367 154.104 11.56V14.5685C154.104 15.4995 154.042 16.1715 153.92 16.5844C153.797 16.997 153.498 17.3774 153.023 17.7237C152.548 18.0704 151.899 18.2438 151.078 18.2438C150.392 18.2438 149.862 18.1521 149.488 17.9689C148.978 17.7198 148.618 17.4 148.408 17.0109C148.197 16.6213 148.092 16.0977 148.092 15.4392V11.56C148.092 11.1042 148.067 10.8205 148.016 10.7099C147.966 10.5988 147.877 10.5099 147.753 10.4441C147.628 10.3778 147.399 10.3465 147.063 10.3505V10.1343Z" fill="white"/>
<path d="M162.98 15.2753L162.682 18.0561H155.647V17.8403H155.91C156.14 17.8403 156.325 17.799 156.465 17.7173C156.567 17.6629 156.644 17.5693 156.699 17.4372C156.742 17.3436 156.763 17.0981 156.763 16.701V11.4893C156.763 11.0843 156.742 10.8312 156.699 10.7296C156.656 10.6289 156.57 10.54 156.439 10.4642C156.309 10.3881 156.132 10.35 155.91 10.35H155.647V10.1338H159.871V10.35H159.527C159.297 10.35 159.112 10.3912 158.972 10.473C158.87 10.5273 158.791 10.6209 158.732 10.753C158.689 10.8466 158.668 11.0922 158.668 11.4893V16.5371C158.668 16.9422 158.691 17.2004 158.738 17.3111C158.785 17.4225 158.876 17.5051 159.013 17.5594C159.11 17.5947 159.346 17.6126 159.719 17.6126H160.38C160.8 17.6126 161.151 17.5384 161.431 17.39C161.712 17.2421 161.954 17.0084 162.159 16.6891C162.363 16.3697 162.557 15.8985 162.74 15.2753H162.98Z" fill="white"/>
<path d="M169.856 10.1331V12.2772H169.646C169.521 11.7825 169.383 11.4275 169.231 11.2109C169.079 10.9947 168.871 10.8225 168.606 10.694C168.458 10.6238 168.199 10.5885 167.829 10.5885H167.239V16.6998C167.239 17.1049 167.261 17.3583 167.306 17.4599C167.351 17.5607 167.438 17.6495 167.569 17.7253C167.7 17.801 167.878 17.8395 168.103 17.8395H168.367V18.0553H164.218V17.8395H164.481C164.711 17.8395 164.896 17.7983 165.036 17.7166C165.137 17.6622 165.217 17.5686 165.276 17.4361C165.319 17.3429 165.34 17.0973 165.34 16.6998V10.5885H164.768C164.234 10.5885 163.847 10.7019 163.605 10.9276C163.266 11.243 163.052 11.6928 162.962 12.2772H162.74V10.1331H169.856Z" fill="white"/>
<path d="M174.669 17.8403V18.0561H170.526V17.8403H170.79C171.019 17.8403 171.204 17.799 171.345 17.7173C171.445 17.6629 171.523 17.5693 171.578 17.4372C171.621 17.3436 171.642 17.0981 171.642 16.7006V11.4893C171.642 11.0843 171.621 10.8312 171.578 10.7296C171.535 10.6289 171.448 10.54 171.318 10.4642C171.188 10.3881 171.011 10.35 170.79 10.35H170.526V10.1338H174.669V10.35H174.406C174.176 10.35 173.991 10.3912 173.851 10.473C173.749 10.5273 173.67 10.6209 173.611 10.753C173.568 10.8466 173.547 11.0922 173.547 11.4893V16.7006C173.547 17.106 173.57 17.3591 173.614 17.4606C173.659 17.5614 173.747 17.6502 173.877 17.726C174.008 17.8022 174.184 17.8403 174.406 17.8403H174.669Z" fill="white"/>
<path d="M177.924 10.1333L181.833 15.0467V11.6407C181.833 11.1655 181.764 10.8442 181.628 10.6768C181.441 10.4507 181.127 10.3416 180.687 10.3495V10.1333H183.305V10.3495C182.97 10.3923 182.745 10.4479 182.63 10.5157C182.515 10.5839 182.426 10.6954 182.361 10.8489C182.297 11.0028 182.265 11.267 182.265 11.6407V18.2369H182.066L176.709 11.6407V16.6767C176.709 17.1329 176.813 17.4403 177.021 17.6002C177.229 17.7596 177.468 17.8398 177.737 17.8398H177.924V18.0556H175.113V17.8398C175.55 17.8358 175.853 17.7462 176.025 17.5708C176.196 17.3955 176.282 17.0976 176.282 16.6767V11.0857L176.112 10.8755C175.945 10.6649 175.797 10.5268 175.669 10.4606C175.54 10.3943 175.355 10.357 175.113 10.3495V10.1333H177.924Z" fill="white"/>
<path d="M191.84 9.952V12.7451H191.624C191.363 11.9815 190.971 11.4011 190.449 11.0036C189.928 10.6065 189.357 10.4078 188.738 10.4078C188.145 10.4078 187.653 10.574 187.26 10.9072C186.866 11.2404 186.588 11.705 186.424 12.3012C186.26 12.8966 186.179 13.5079 186.179 14.1351C186.179 14.8947 186.268 15.5608 186.447 16.1336C186.627 16.706 186.916 17.1269 187.315 17.3955C187.714 17.6644 188.189 17.7985 188.738 17.7985C188.928 17.7985 189.124 17.7783 189.325 17.7374C189.525 17.6965 189.73 17.637 189.941 17.5589V15.9114C189.941 15.6 189.92 15.3985 189.877 15.3069C189.834 15.2153 189.745 15.1327 189.611 15.0586C189.477 14.9848 189.314 14.9475 189.123 14.9475H188.919V14.7313H192.769V14.9475C192.477 14.9669 192.273 15.007 192.159 15.0673C192.043 15.1276 191.955 15.228 191.892 15.3684C191.858 15.4422 191.84 15.6235 191.84 15.9114V17.5589C191.333 17.7846 190.807 17.9552 190.26 18.0702C189.713 18.1849 189.145 18.2428 188.556 18.2428C187.805 18.2428 187.181 18.1404 186.684 17.9361C186.187 17.7315 185.749 17.4625 185.369 17.1297C184.99 16.7969 184.693 16.422 184.479 16.0051C184.206 15.4676 184.069 14.8654 184.069 14.1997C184.069 13.0081 184.488 12.0009 185.326 11.1793C186.163 10.357 187.217 9.94604 188.486 9.94604C188.88 9.94604 189.234 9.97738 189.55 10.0397C189.721 10.071 189.999 10.1599 190.382 10.3058C190.766 10.4518 190.993 10.5248 191.063 10.5248C191.172 10.5248 191.273 10.4851 191.367 10.4046C191.46 10.3253 191.546 10.1741 191.624 9.952H191.84Z" fill="white"/>
<path d="M201.528 9.95288L201.593 12.594H201.353C201.24 11.9316 200.963 11.3992 200.521 10.9958C200.079 10.5927 199.6 10.3912 199.086 10.3912C198.689 10.3912 198.375 10.4971 198.143 10.7098C197.911 10.922 197.795 11.1664 197.795 11.4428C197.795 11.6182 197.836 11.7737 197.918 11.9105C198.031 12.0934 198.212 12.2747 198.461 12.4536C198.644 12.5821 199.067 12.8098 199.729 13.1371C200.656 13.5929 201.281 14.0233 201.604 14.4283C201.924 14.8337 202.083 15.2971 202.083 15.8187C202.083 16.4812 201.825 17.0508 201.309 17.528C200.793 18.0053 200.138 18.2437 199.343 18.2437C199.094 18.2437 198.859 18.2183 198.637 18.1679C198.414 18.1167 198.136 18.0211 197.801 17.8811C197.614 17.8033 197.46 17.7645 197.339 17.7645C197.238 17.7645 197.131 17.8033 197.018 17.8811C196.905 17.9592 196.814 18.0783 196.743 18.2377H196.527V15.2463H196.743C196.915 16.0877 197.245 16.7295 197.734 17.1714C198.223 17.6137 198.749 17.8347 199.314 17.8347C199.75 17.8347 200.098 17.7157 200.357 17.4781C200.616 17.2404 200.746 16.964 200.746 16.6486C200.746 16.4614 200.696 16.2801 200.597 16.1055C200.497 15.9298 200.346 15.7636 200.144 15.6057C199.941 15.4478 199.583 15.2427 199.069 14.9896C198.348 14.6346 197.831 14.3331 197.515 14.0836C197.199 13.8341 196.957 13.556 196.787 13.2482C196.618 12.9407 196.533 12.6016 196.533 12.2315C196.533 11.6003 196.765 11.0628 197.228 10.6193C197.692 10.175 198.276 9.95288 198.981 9.95288C199.238 9.95288 199.487 9.98422 199.729 10.0465C199.912 10.0929 200.135 10.1798 200.398 10.3067C200.661 10.4329 200.845 10.4963 200.95 10.4963C201.051 10.4963 201.131 10.4654 201.189 10.4031C201.248 10.3404 201.303 10.1905 201.353 9.95288H201.528Z" fill="white"/>
<path d="M204.079 16.2571C204.352 16.2571 204.583 16.3527 204.771 16.5431C204.961 16.7343 205.055 16.964 205.055 17.2325C205.055 17.5015 204.96 17.7304 204.769 17.9192C204.578 18.108 204.348 18.2024 204.079 18.2024C203.811 18.2024 203.581 18.108 203.393 17.9192C203.204 17.7304 203.109 17.5015 203.109 17.2325C203.109 16.964 203.204 16.7343 203.393 16.5431C203.581 16.3527 203.811 16.2571 204.079 16.2571Z" fill="white"/>
<path d="M208.781 10.5606V14.0309H209.114C209.655 14.0309 210.06 13.9809 210.329 13.8821C210.598 13.7825 210.809 13.6032 210.963 13.3442C211.116 13.0855 211.193 12.7476 211.193 12.3307C211.193 11.7269 211.052 11.281 210.77 10.9926C210.487 10.7046 210.033 10.5606 209.406 10.5606H208.781ZM208.781 14.4458V16.6661C208.781 17.0941 208.807 17.3642 208.86 17.4749C208.912 17.586 209.004 17.6748 209.137 17.7407C209.269 17.8069 209.517 17.8403 209.879 17.8403V18.0565H205.824V17.8403C206.19 17.8403 206.439 17.8061 206.57 17.7379C206.7 17.6697 206.791 17.5812 206.844 17.4717C206.896 17.363 206.923 17.0941 206.923 16.6661V11.5242C206.923 11.0962 206.896 10.826 206.844 10.7153C206.791 10.6043 206.699 10.5154 206.566 10.4492C206.434 10.3833 206.187 10.35 205.824 10.35V10.1338H209.505C210.463 10.1338 211.164 10.2 211.608 10.3325C212.053 10.465 212.415 10.7094 212.695 11.0656C212.976 11.4222 213.116 11.8396 213.116 12.3187C213.116 12.9031 212.905 13.3862 212.485 13.7679C212.216 14.0094 211.84 14.1907 211.357 14.3113L213.262 16.9929C213.511 17.3396 213.689 17.5558 213.794 17.6415C213.954 17.7625 214.138 17.8284 214.349 17.8403V18.0565H211.854L209.3 14.4458H208.781Z" fill="white"/>
<path d="M215.764 16.2571C216.037 16.2571 216.267 16.3527 216.456 16.5431C216.645 16.7343 216.74 16.964 216.74 17.2325C216.74 17.5015 216.644 17.7304 216.453 17.9192C216.262 18.108 216.033 18.2024 215.764 18.2024C215.495 18.2024 215.266 18.108 215.078 17.9192C214.888 17.7304 214.794 17.5015 214.794 17.2325C214.794 16.964 214.888 16.7343 215.078 16.5431C215.266 16.3527 215.495 16.2571 215.764 16.2571Z" fill="white"/>
<path d="M224.837 15.2755L224.539 18.0563H217.505V17.8405H217.768C217.998 17.8405 218.183 17.7992 218.323 17.7175C218.424 17.6632 218.502 17.5696 218.557 17.4375C218.599 17.3438 218.621 17.0983 218.621 16.7012V11.4895C218.621 11.0845 218.599 10.8314 218.557 10.7299C218.513 10.6291 218.427 10.5402 218.296 10.4645C218.166 10.3883 217.99 10.3502 217.768 10.3502H217.505V10.134H221.729V10.3502H221.384C221.155 10.3502 220.97 10.3915 220.829 10.4732C220.728 10.5275 220.648 10.6212 220.59 10.7533C220.547 10.8469 220.525 11.0924 220.525 11.4895V16.5374C220.525 16.9424 220.549 17.2006 220.596 17.3113C220.642 17.4228 220.734 17.5053 220.871 17.5596C220.967 17.595 221.203 17.6128 221.577 17.6128H222.238C222.658 17.6128 223.009 17.5386 223.289 17.3903C223.57 17.2423 223.812 17.0086 224.016 16.6893C224.221 16.37 224.415 15.8987 224.598 15.2755H224.837Z" fill="white"/>
<path d="M226.783 16.2571C227.056 16.2571 227.287 16.3527 227.476 16.5431C227.665 16.7343 227.759 16.964 227.759 17.2325C227.759 17.5015 227.664 17.7304 227.473 17.9192C227.282 18.108 227.052 18.2024 226.783 18.2024C226.515 18.2024 226.286 18.108 226.097 17.9192C225.908 17.7304 225.813 17.5015 225.813 17.2325C225.813 16.964 225.908 16.7343 226.097 16.5431C226.286 16.3527 226.515 16.2571 226.783 16.2571Z" fill="white"/>
</svg>
