<svg width="538" height="234" viewBox="0 0 538 234" fill="none" xmlns="http://www.w3.org/2000/svg">
<g clip-path="url(#clip0_1_3)">
<path d="M536.668 210.855C536.668 223.027 526.8 232.893 514.628 232.893H22.7084C10.5354 232.893 0.666672 223.027 0.666672 210.855V22.7026C0.666672 10.5306 10.5354 0.662634 22.7084 0.662634H514.628C526.8 0.662634 536.668 10.5306 536.668 22.7026V210.855Z" stroke="white" stroke-width="1.33333" stroke-miterlimit="10"/>
<path d="M247.551 23.1947L257.064 20.3347L259.191 23.1947H262.457V20.3347H267.972V23.1947H272.981V20.3347H278.591V23.1947H282.88L285.331 21.7653L292.683 23.1947" stroke="white" stroke-width="2" stroke-miterlimit="10"/>
<path d="M250.631 45.344H289.841" stroke="white" stroke-width="2" stroke-miterlimit="10"/>
<path d="M253.593 48.204C253.593 48.204 262.68 37.7893 250.631 21.0427" stroke="white" stroke-width="2" stroke-miterlimit="10"/>
<path d="M288.615 21.0426C288.615 21.0426 279.631 34.7253 286.779 48.2053" stroke="white" stroke-width="2" stroke-miterlimit="10"/>
<path d="M169.535 69.5267L169.337 44.0773L171.063 42.4547V37.5933H168.735V39.888L166.803 39.8787L165.156 38.2307V36.6H164.423V38.1667L162.655 39.9L160.123 39.8813V37.5933H157.611V42.412L159.339 44.0893V87.7573C159.339 89.3973 157.999 90.724 156.357 90.708L150.632 90.652C148.803 90.652 147.319 89.1667 147.319 87.3387V57.9827L146.537 57.9547L146.508 50.432L147.319 50.4467V47.0907L143.184 42.0867V39.5507H140.637V42.0427L136.473 47.0707L136.451 50.4013H137.305V57.9413L136.473 57.9667V66.2907L98.7844 66.304V58.816L92.9265 53.78L90.4459 53.7667L84.6084 58.7627V68.0267L80.4276 69.8013V88.376C80.4276 89.6347 79.4093 90.652 78.1531 90.652H78.1041C76.5151 90.652 75.2255 89.364 75.2255 87.772V68.5H71.3729V72.5107H67.9489V68.5H63.9973V72.5107H60.3276V68.5H57.0797" stroke="white" stroke-width="2" stroke-miterlimit="10"/>
<path d="M316.661 56.5987H317.435V55.8893H318.719V59.2334L321.419 59.2987V58.6547H325.341V59.2334H326.435V53.2547L321.033 48.5613L321.547 48.1093L344.221 67.3213V69.9293L369.104 60.372L369.601 61.416L368.409 61.8133L369.304 63.5533L383.959 38.5334H385.568L378.992 50.08L384.763 54.2453L391.193 54.3174L389.437 43.9427L390.096 43.872L394.188 67.612L401.711 66.5907L400.101 57.9707H400.76L402.339 66.3813L429.847 61.936L426.143 57.7973L437.133 57.9213L440.716 61.564H442.631V62.368L441.763 62.4307L460.907 80.4587H466.648L488.383 66.5027L494.307 66.4413L486.964 72.3707H497.333L496.779 71.0093L503.137 71.0733L509.745 85.0893L508.26 85.028V85.7693H510.867V87.7427L502.781 87.56" stroke="white" stroke-width="2" stroke-miterlimit="10"/>
<path d="M316.661 56.5986V92.396C316.661 94.6466 314.833 96.4693 312.584 96.464L296.875 96.4186C293.541 96.2746 291.101 95.5866 290.145 93.584C281.117 74.6226 281.672 40.648 281.672 40.648" stroke="white" stroke-width="2" stroke-miterlimit="10"/>
<path d="M263.26 42.1347C263.26 45.1053 260.852 47.5107 257.884 47.5107C254.913 47.5107 252.508 45.1053 252.508 42.1347C252.508 39.1667 254.913 36.76 257.884 36.76C260.852 36.76 263.26 39.1667 263.26 42.1347Z" stroke="white" stroke-width="2" stroke-miterlimit="10"/>
<path d="M275.872 42.1347C275.872 45.1053 273.464 47.5107 270.496 47.5107C267.527 47.5107 265.119 45.1053 265.119 42.1347C265.119 39.1667 267.527 36.76 270.496 36.76C273.464 36.76 275.872 39.1667 275.872 42.1347Z" stroke="white" stroke-width="2" stroke-miterlimit="10"/>
<path d="M288.495 42.1347C288.495 45.1053 286.085 47.5107 283.12 47.5107C280.148 47.5107 277.743 45.1053 277.743 42.1347C277.743 39.1667 280.148 36.76 283.12 36.76C286.085 36.76 288.495 39.1667 288.495 42.1347Z" stroke="white" stroke-width="2" stroke-miterlimit="10"/>
<path d="M266.165 67.8093H275.123V56.32C275.123 56.32 274.039 52.3 270.495 52.5187C266.952 52.736 266.165 56.32 266.165 56.32V67.8093Z" stroke="white" stroke-width="2" stroke-miterlimit="10"/>
<path d="M259.273 71.6707L280.961 71.8187" stroke="white" stroke-width="2" stroke-miterlimit="10"/>
<path d="M56.1969 69.496V40.2427H50.4235V43.7293H46.5516V40.2053L40.4708 40.2427V70.0827H38.2005V83.708C38.2005 85.2267 36.9677 86.46 35.4469 86.46V89.28C35.4469 90.7173 34.2833 91.8813 32.8464 91.8813H19.6864" stroke="white" stroke-width="2" stroke-miterlimit="10"/>
<path d="M242.517 96.2747C245.563 96.2253 248.295 94.3933 249.48 91.5867C252.996 83.272 259.669 64.3907 259.821 40.648" stroke="white" stroke-width="2" stroke-miterlimit="10"/>
<path d="M242.517 96.2747L229.093 96.4267C226.757 96.4533 224.849 94.5653 224.849 92.228L224.851 70.7267L224.848 68.5013H216.968V72.5093H212.091V68.5013H204.611V72.5093H200.072V68.5013H192.592V72.5093H187.633V68.5013H180.993V72.5093H176.537V68.5013H170.149" stroke="white" stroke-width="2" stroke-miterlimit="10"/>
<path d="M503.057 86.7893L503.07 93.8867C503.073 95.3373 504.254 96.5133 505.71 96.508L518.409 96.464" stroke="white" stroke-width="2" stroke-miterlimit="10"/>
<path d="M39.0197 111.293C37.9708 109.895 36.2235 108.933 33.776 108.933H27.1355V157.693H33.776C36.2235 157.693 37.9708 156.731 39.0197 155.333C41.2912 152.363 41.5531 147.556 41.5531 133.313C41.5531 119.069 41.2912 114.264 39.0197 111.293ZM44.6989 160.052C42.3401 162.587 39.0197 164.421 34.0385 164.421H19.6203V102.205H34.0385C39.0197 102.205 42.3401 104.04 44.6989 106.574C48.9812 111.206 49.0683 118.021 49.0683 133.313C49.0683 148.604 48.9812 155.421 44.6989 160.052Z" fill="white"/>
<path d="M85.162 161.013C82.4531 163.721 78.7833 165.12 74.7636 165.12C70.7443 165.12 67.1615 163.721 64.4527 161.013C61.9183 158.48 60.4328 154.809 60.4328 150.265V102.205H67.9473V150.703C67.9473 155.596 71.0057 158.391 74.7636 158.391C78.5208 158.391 81.6667 155.596 81.6667 150.703V102.205H89.1817V150.265C89.1817 154.809 87.6959 158.48 85.162 161.013Z" fill="white"/>
<path d="M120.818 110.593C119.769 109.196 118.196 108.235 115.749 108.235C113.303 108.235 111.73 109.196 110.682 110.593C108.497 113.565 108.06 118.546 108.06 133.313C108.06 148.081 108.497 153.062 110.682 156.032C111.73 157.431 113.303 158.391 115.749 158.391C118.196 158.391 119.769 157.431 120.818 156.032C123.002 153.062 123.44 148.081 123.44 133.313C123.44 118.546 123.002 113.565 120.818 110.593ZM126.497 160.664C124.138 163.285 120.731 165.12 115.749 165.12C110.769 165.12 107.448 163.285 105.089 160.664C100.807 155.944 100.545 148.868 100.545 133.313C100.545 117.759 100.807 110.681 105.089 105.963C107.448 103.341 110.769 101.506 115.749 101.506C120.731 101.506 124.138 103.341 126.497 105.963C130.779 110.681 130.954 117.759 130.954 133.313C130.954 148.868 130.779 155.944 126.497 160.664Z" fill="white"/>
<path d="M174.561 164.421V120.119L164.688 149.216H160.056L150.357 120.817V164.421H142.841V102.205H149.92L162.503 136.808L174.997 102.205H182.076V164.421H174.561Z" fill="white"/>
<path d="M214.325 110.593C213.276 109.196 211.703 108.235 209.256 108.235C206.809 108.235 205.237 109.196 204.189 110.593C202.004 113.565 201.567 118.546 201.567 133.313C201.567 148.081 202.004 153.062 204.189 156.032C205.237 157.431 206.809 158.391 209.256 158.391C211.703 158.391 213.276 157.431 214.325 156.032C216.509 153.062 216.947 148.081 216.947 133.313C216.947 118.546 216.509 113.565 214.325 110.593ZM220.004 160.664C217.645 163.285 214.237 165.12 209.256 165.12C204.276 165.12 200.956 163.285 198.596 160.664C194.315 155.944 194.052 148.868 194.052 133.313C194.052 117.759 194.315 110.681 198.596 105.963C200.956 103.341 204.276 101.506 209.256 101.506C214.237 101.506 217.645 103.341 220.004 105.963C224.287 110.681 224.461 117.759 224.461 133.313C224.461 148.868 224.287 155.944 220.004 160.664Z" fill="white"/>
<path d="M340.175 161.046C337.729 163.317 334.757 164.453 330.563 164.453C325.584 164.453 322.263 162.619 319.904 159.997C315.621 155.277 315.36 148.201 315.36 132.646C315.36 117.093 315.621 110.014 319.904 105.296C322.263 102.675 325.584 100.839 330.563 100.839C334.845 100.839 337.991 102.15 340.437 104.509C343.32 107.306 344.807 111.762 344.893 116.917H337.379C337.379 114.209 336.855 111.5 335.457 109.752C334.409 108.442 332.921 107.568 330.563 107.568C328.117 107.568 326.544 108.529 325.495 109.927C323.309 112.898 322.873 117.879 322.873 132.646C322.873 147.415 323.309 152.395 325.495 155.365C326.544 156.764 328.117 157.724 330.563 157.724C332.921 157.724 334.409 156.764 335.457 155.453C336.855 153.705 337.467 151.084 337.467 148.376H344.981C344.893 153.617 343.235 158.25 340.175 161.046Z" fill="white"/>
<path d="M352.849 163.755V101.538H376.879V108.267H360.364V129.152H374.607V135.88H360.364V157.027H376.879V163.755H352.849Z" fill="white"/>
<path d="M408.691 163.755L392.612 121.2V163.755H385.096V101.538H392.085L408.079 144.093L407.989 101.538H415.505V163.755H408.691Z" fill="white"/>
<path d="M440.062 108.267V163.755H432.548V108.267H422.062V101.538H450.461V108.267H440.062Z" fill="white"/>
<path d="M456.93 163.755V101.538H480.961V108.267H464.445V129.152H478.689V135.88H464.445V157.027H480.961V163.755H456.93Z" fill="white"/>
<path d="M503.333 108.267H496.693V130.374H503.333C509.101 130.374 510.412 125.918 510.412 119.277C510.412 112.723 509.101 108.267 503.333 108.267ZM512.072 163.755L503.508 137.016H496.693V163.755H489.177V101.538H503.246C512.684 101.538 517.926 105.646 517.926 119.277C517.926 127.928 515.829 132.995 510.412 135.531L519.936 163.755H512.072Z" fill="white"/>
<path d="M29.2907 203.74C28.4219 204.527 27.2229 204.981 25.6527 204.981C24.0396 204.981 22.6344 204.485 21.7245 203.535C19.988 201.756 19.6579 200.103 19.6579 189.933C19.6579 179.764 19.988 178.109 21.7245 176.331C22.6344 175.38 24.0396 174.885 25.6527 174.885C27.388 174.885 28.6292 175.423 29.5375 176.331C30.7369 177.572 31.2328 179.474 31.2328 181.581H29.5797C29.5797 179.969 29.2484 178.316 28.2568 177.324C27.6776 176.745 26.8099 176.374 25.6527 176.374C24.4531 176.374 23.5027 176.745 22.8823 177.407C21.5593 178.853 21.3115 180.135 21.3115 189.933C21.3115 199.731 21.5593 201.012 22.8823 202.458C23.5027 203.12 24.4531 203.492 25.6527 203.492C26.8099 203.492 27.6776 203.12 28.2568 202.543C29.2484 201.549 29.5797 199.896 29.5797 198.284H31.2328C31.2328 200.516 30.6541 202.543 29.2907 203.74Z" fill="white"/>
<path d="M25.6527 175.551C24.1959 175.551 22.9719 175.992 22.2063 176.792C20.6797 178.356 20.3245 179.755 20.3245 189.933C20.3245 200.111 20.6797 201.509 22.2021 203.068C22.9719 203.875 24.1959 204.315 25.6527 204.315C26.9864 204.315 28.0599 203.955 28.8432 203.245L28.8505 203.239C29.8437 202.367 30.4369 200.858 30.5473 198.951H30.2271C30.1489 200.316 29.8011 201.94 28.7281 203.013C27.9771 203.764 26.914 204.16 25.6527 204.16C24.286 204.16 23.1593 203.729 22.3959 202.915C20.8568 201.232 20.6448 199.656 20.6448 189.933C20.6448 180.211 20.8568 178.633 22.3901 176.956C23.1593 176.136 24.286 175.707 25.6527 175.707C26.914 175.707 27.9771 176.103 28.7281 176.852C29.8011 177.925 30.1489 179.549 30.2271 180.915H30.5479C30.4484 179.121 29.9385 177.705 29.0588 176.795C28.2245 175.96 27.1073 175.551 25.6527 175.551ZM25.6527 205.648C23.8287 205.648 22.2625 205.06 21.2427 203.995C19.3073 202.012 18.9912 200.041 18.9912 189.933C18.9912 179.825 19.3073 177.853 21.2473 175.865C22.2625 174.805 23.8287 174.217 25.6527 174.217C27.4536 174.217 28.9197 174.77 30.0088 175.86C31.2484 177.143 31.8995 179.117 31.8995 181.581V182.248H28.9131V181.581C28.9131 180.368 28.7177 178.727 27.7855 177.795C27.2907 177.301 26.5527 177.04 25.6527 177.04C24.6636 177.04 23.874 177.325 23.3688 177.863C22.2245 179.113 21.9781 180.292 21.9781 189.933C21.9781 199.574 22.2245 200.752 23.3745 202.008C23.874 202.541 24.6636 202.827 25.6527 202.827C26.5527 202.827 27.2907 202.564 27.7855 202.07C28.7177 201.139 28.9131 199.497 28.9131 198.284V197.617H31.8995V198.284C31.8995 200.933 31.1511 202.992 29.7339 204.237C28.6984 205.174 27.3255 205.648 25.6527 205.648Z" fill="white"/>
<path d="M43.136 194.274H40.4901C39.374 194.274 38.5885 194.563 37.8443 195.267C37.0588 196.009 36.6041 197.416 36.6041 199.028C36.6041 201.756 37.5547 203.576 39.7875 203.576C41.8541 203.576 43.136 201.756 43.136 199.44V194.274ZM43.136 204.651V202.708C42.888 203.285 42.3505 203.865 42.0615 204.112C41.3995 204.651 40.6557 204.981 39.4979 204.981C38.3407 204.981 37.2656 204.568 36.4385 203.74C35.6948 202.955 35.0333 201.343 35.0333 199.028C35.0333 197.044 35.612 195.348 36.7281 194.316C37.762 193.364 38.8776 192.951 40.5729 192.951H43.136V188.899C43.136 186.336 42.1031 184.931 39.9531 184.931C39.0849 184.931 38.3812 185.262 37.8855 185.757C37.1005 186.543 36.8521 187.452 36.8521 189.024H35.2812C35.2812 187.495 35.5703 185.964 36.6869 184.848C37.5136 184.021 38.5057 183.565 39.9531 183.565C41.5235 183.565 42.6401 184.021 43.3844 184.765C44.2937 185.675 44.7073 186.915 44.7073 188.857V204.651H43.136Z" fill="white"/>
<path d="M40.4901 194.94C39.5323 194.94 38.9193 195.167 38.3021 195.751C37.6661 196.352 37.2708 197.608 37.2708 199.028C37.2708 201.604 38.1177 202.909 39.7875 202.909C41.6401 202.909 42.4693 201.167 42.4693 199.44V194.94H40.4901ZM43.8027 203.984H44.0407V188.857C44.0407 187.109 43.7031 186.027 42.9131 185.236C42.2464 184.569 41.25 184.232 39.9531 184.232C38.7719 184.232 37.9099 184.568 37.1584 185.32C36.4448 186.033 36.0604 187.008 35.9693 188.357H36.2021C36.2677 187.153 36.5495 186.151 37.414 185.285C38.0729 184.627 38.9745 184.264 39.9531 184.264C41.3907 184.264 43.8027 184.867 43.8027 188.899V199.44C43.8027 199.448 43.8027 199.456 43.8027 199.463V203.984ZM39.5839 193.676C38.6099 193.805 37.888 194.155 37.1797 194.807C36.226 195.688 35.7 197.188 35.7 199.028C35.7 201.213 36.3312 202.658 36.9224 203.281C37.5932 203.952 38.488 204.315 39.4979 204.315C39.9473 204.315 40.3281 204.263 40.6751 204.144C40.3927 204.209 40.0964 204.243 39.7875 204.243C38.3495 204.243 35.9375 203.565 35.9375 199.028C35.9375 197.201 36.4656 195.653 37.386 194.781C38.0312 194.172 38.7312 193.816 39.5839 193.676ZM39.4979 205.648C38.126 205.648 36.9057 205.152 35.9667 204.212C34.9453 203.133 34.3667 201.25 34.3667 199.028C34.3667 196.813 35.0443 194.965 36.2755 193.827C37.4489 192.745 38.7344 192.284 40.5729 192.284H42.4693V188.899C42.4693 185.939 41.0333 185.597 39.9531 185.597C39.1557 185.597 38.6453 185.94 38.3568 186.228C37.738 186.846 37.5188 187.579 37.5188 189.024V189.691H34.6145V189.024C34.6145 186.974 35.138 185.453 36.2156 184.377C37.224 183.369 38.4115 182.899 39.9531 182.899C41.6167 182.899 42.9292 183.368 43.8557 184.293C44.9057 185.344 45.374 186.752 45.374 188.857V205.317H42.4693V204.64C41.5984 205.34 40.6844 205.648 39.4979 205.648Z" fill="white"/>
<path d="M56.0729 184.972C53.4271 184.972 51.8563 186.584 51.8563 189.188V204.651H50.2855V183.896H51.8563V186.088C51.9807 185.716 52.3521 185.137 52.5588 184.931C53.4688 183.937 54.75 183.565 56.238 183.565V184.972H56.0729Z" fill="white"/>
<path d="M55.5713 184.263C55.0317 184.312 54.5573 184.427 54.1437 184.607C54.5787 184.456 55.0563 184.362 55.5713 184.324V184.263ZM50.9521 203.984H51.1896V184.563H50.9521V203.984ZM52.5229 205.317H49.6188V183.229H52.5229V184.044C53.4432 183.277 54.6693 182.899 56.238 182.899H56.9047V185.639H56.0729C53.8172 185.639 52.5229 186.933 52.5229 189.188V205.317Z" fill="white"/>
<path d="M61.8584 203.328C60.9489 202.417 60.4943 201.095 60.4943 199.4V185.179H57.8073V183.896H60.4943V177.531H62.0651V183.896H65.8688V185.179H62.0651V199.483C62.0651 202.169 63.512 203.245 66.0755 203.245V204.651C64.5036 204.651 63.0156 204.485 61.8584 203.328Z" fill="white"/>
<path d="M62.3303 202.856C63.1349 203.662 64.1245 203.915 65.4088 203.97V203.887C62.7469 203.683 61.3984 202.204 61.3984 199.483V178.197H61.1609V199.4C61.1609 200.917 61.5541 202.08 62.3303 202.856ZM66.7421 205.317H66.0755C64.4292 205.317 62.7208 205.133 61.3864 203.799H61.386C60.3521 202.763 59.8276 201.282 59.8276 199.4V185.845H57.1407V183.229H59.8276V176.864H62.7317V183.229H66.5355V185.845H62.7317V199.483C62.7317 201.653 63.7317 202.579 66.0755 202.579H66.7421V205.317Z" fill="white"/>
<path d="M76.4489 185.923C75.9531 185.385 75.2093 184.972 74.2177 184.972C73.2255 184.972 72.4807 185.385 71.9844 185.923C70.9099 187.121 70.786 189.313 70.786 194.274C70.786 199.235 70.9099 201.425 71.9844 202.624C72.4807 203.162 73.2255 203.576 74.2177 203.576C75.2093 203.576 75.9531 203.162 76.4489 202.624C77.5251 201.425 77.6484 199.235 77.6484 194.274C77.6484 189.313 77.5251 187.121 76.4489 185.923ZM77.6484 203.535C76.8636 204.401 75.7469 204.981 74.2177 204.981C72.6875 204.981 71.5713 204.401 70.786 203.535C69.5459 202.169 69.2145 199.689 69.2145 194.274C69.2145 188.857 69.5459 186.379 70.786 185.013C71.5713 184.145 72.6875 183.565 74.2177 183.565C75.7469 183.565 76.8636 184.145 77.6484 185.013C78.8885 186.379 79.2193 188.857 79.2193 194.274C79.2193 199.689 78.8885 202.169 77.6484 203.535Z" fill="white"/>
<path d="M74.2177 185.639C73.3391 185.639 72.7844 186.04 72.474 186.376C71.5541 187.401 71.4527 189.68 71.4527 194.274C71.4527 198.868 71.5541 201.145 72.4812 202.179C72.7844 202.508 73.3391 202.909 74.2177 202.909C75.0953 202.909 75.6489 202.508 75.9588 202.172C76.8803 201.145 76.9817 198.868 76.9817 194.274C76.9817 189.685 76.8803 187.407 75.9563 186.372C75.6453 186.036 75.0917 185.639 74.2177 185.639ZM74.2177 204.243C73.1557 204.243 72.188 203.828 71.4943 203.076C70.2427 201.679 70.1194 199.439 70.1194 194.274C70.1194 189.108 70.2427 186.868 71.4875 185.477C72.8907 183.963 75.549 183.968 76.9391 185.469L76.9454 185.477C78.1918 186.867 78.3151 189.108 78.3151 194.274C78.3151 199.439 78.1918 201.68 76.9454 203.069C76.2454 203.828 75.2787 204.243 74.2177 204.243ZM74.2177 184.232C73.0057 184.232 72.0177 184.645 71.2803 185.462C70.2344 186.611 69.8812 188.835 69.8812 194.274C69.8812 199.713 70.2344 201.937 71.2792 203.087C72.0183 203.901 73.0068 204.315 74.2177 204.315C75.4292 204.315 76.4167 203.901 77.1541 203.087H77.1547C78.2 201.937 78.5527 199.713 78.5527 194.274C78.5527 188.835 78.2 186.611 77.1547 185.462C76.4172 184.645 75.4292 184.232 74.2177 184.232ZM74.2177 205.648C72.6364 205.648 71.2792 205.072 70.2917 203.983C68.8177 202.36 68.5479 199.44 68.5479 194.274C68.5479 189.107 68.8177 186.188 70.2921 184.565C71.2787 183.476 72.636 182.899 74.2177 182.899C75.7995 182.899 77.1568 183.476 78.1432 184.567C79.6167 186.188 79.886 189.107 79.886 194.274C79.886 199.439 79.6167 202.36 78.1427 203.983C77.1563 205.072 75.7989 205.648 74.2177 205.648Z" fill="white"/>
<path d="M85.376 203.328C84.5495 202.5 84.0125 201.343 84.0125 199.4V175.216H85.5833V199.483C85.5833 201.923 86.7412 203.245 89.1797 203.245V204.651C87.7751 204.651 86.4099 204.362 85.376 203.328Z" fill="white"/>
<path d="M84.6792 175.882V199.4C84.6792 200.983 85.0396 202.048 85.8474 202.856C86.4979 203.505 87.3547 203.863 88.5131 203.957V203.88C86.187 203.639 84.9167 202.099 84.9167 199.483V175.882H84.6792ZM89.8464 205.317H89.1798C87.3251 205.317 85.9265 204.821 84.9047 203.799C83.8412 202.735 83.3459 201.337 83.3459 199.4V174.549H86.25V199.483C86.25 201.624 87.1536 202.579 89.1798 202.579H89.8464V205.317Z" fill="white"/>
<path d="M99.3479 185.923C98.8516 185.385 98.1068 184.972 97.1146 184.972C96.1224 184.972 95.3792 185.385 94.8828 185.923C93.8907 186.997 93.7255 188.899 93.6839 192.951H100.546C100.505 188.899 100.34 186.997 99.3479 185.923ZM93.6839 194.274C93.6839 199.235 93.8489 201.425 94.924 202.624C95.4197 203.162 96.2058 203.576 97.1979 203.576C98.0251 203.576 98.8927 203.328 99.4713 202.748C100.216 202.046 100.546 200.931 100.546 199.4H102.075C102.075 201.467 101.621 202.624 100.629 203.658C99.7604 204.527 98.5208 204.981 97.1979 204.981C95.6683 204.981 94.5104 204.401 93.7255 203.535C92.4844 202.169 92.1125 199.689 92.1125 194.274C92.1125 188.857 92.4432 186.379 93.6839 185.013C94.4688 184.145 95.5855 183.565 97.1146 183.565C98.6448 183.565 99.7604 184.145 100.546 185.013C101.786 186.379 102.117 188.857 102.117 194.274H93.6839Z" fill="white"/>
<path d="M94.3588 192.284H99.8708C99.8197 188.908 99.6344 187.216 98.8573 186.375C98.5469 186.039 97.9921 185.639 97.1145 185.639C96.2375 185.639 95.6828 186.04 95.3724 186.376C94.5964 187.216 94.4109 188.908 94.3588 192.284ZM97.1145 184.232C95.9031 184.232 94.9145 184.645 94.1787 185.46C93.1323 186.611 92.7792 188.835 92.7792 194.274C92.7792 199.611 93.1557 201.917 94.2188 203.087C94.9469 203.889 95.9765 204.315 97.1979 204.315C98.3797 204.315 99.4303 203.913 100.158 203.187C100.839 202.477 101.294 201.676 101.39 200.067H101.192C101.095 201.485 100.68 202.525 99.9292 203.232C99.2927 203.869 98.2927 204.243 97.1979 204.243C96.1251 204.243 95.1177 203.817 94.4339 203.076C93.1563 201.651 93.0172 199.183 93.0172 194.274V192.944C93.0593 188.831 93.2088 186.755 94.3927 185.47C95.7839 183.967 98.4484 183.97 99.8369 185.469L99.838 185.47C101.022 186.755 101.171 188.832 101.213 192.944L101.219 193.607H101.448C101.42 188.651 101.054 186.563 100.053 185.462C99.3145 184.645 98.326 184.232 97.1145 184.232ZM97.1979 205.648C95.5891 205.648 94.2177 205.072 93.2312 203.983C91.8964 202.515 91.4459 200.064 91.4459 194.274C91.4459 189.107 91.7156 186.188 93.1901 184.565C94.1751 183.476 95.5323 182.899 97.1145 182.899C98.6959 182.899 100.053 183.476 101.041 184.565C102.514 186.188 102.784 189.107 102.784 194.274V194.94H94.3516C94.3667 199.212 94.5437 201.201 95.4203 202.179C95.6683 202.446 96.2375 202.909 97.1979 202.909C97.9417 202.909 98.5984 202.679 99 202.276C99.5964 201.715 99.8797 200.776 99.8797 199.4V198.733H102.742V199.4C102.742 201.545 102.27 202.912 101.11 204.12C100.121 205.108 98.736 205.648 97.1979 205.648Z" fill="white"/>
<path d="M112.739 184.972C110.093 184.972 108.522 186.584 108.522 189.188V204.651H106.951V183.896H108.522V186.088C108.646 185.716 109.018 185.137 109.225 184.931C110.134 183.937 111.416 183.565 112.904 183.565V184.972H112.739Z" fill="white"/>
<path d="M112.237 184.263C111.697 184.312 111.222 184.428 110.808 184.607C111.243 184.457 111.721 184.362 112.237 184.324V184.263ZM107.618 203.984H107.856V184.563H107.618V203.984ZM109.189 205.317H106.284V183.229H109.189V184.044C110.108 183.279 111.335 182.899 112.904 182.899H113.571V185.639H112.739C110.483 185.639 109.189 186.933 109.189 189.188V205.317Z" fill="white"/>
<path d="M116.581 204.651V183.896H118.153V204.651H116.581ZM116.209 178.316V176H118.525V178.316H116.209Z" fill="white"/>
<path d="M116.876 177.65H117.858V176.667H116.876V177.65ZM119.192 178.983H115.543V175.333H119.192V178.983ZM117.248 203.984H117.486V184.563H117.248V203.984ZM118.819 205.317H115.915V183.229H118.819V205.317Z" fill="white"/>
<path d="M130.967 194.274H128.321C127.204 194.274 126.419 194.563 125.675 195.267C124.89 196.009 124.435 197.416 124.435 199.028C124.435 201.756 125.385 203.576 127.619 203.576C129.685 203.576 130.967 201.756 130.967 199.44V194.274ZM130.967 204.651V202.708C130.719 203.285 130.181 203.865 129.892 204.112C129.231 204.651 128.486 204.981 127.329 204.981C126.171 204.981 125.096 204.568 124.27 203.74C123.525 202.955 122.864 201.343 122.864 199.028C122.864 197.044 123.443 195.348 124.559 194.316C125.592 193.364 126.708 192.951 128.404 192.951H130.967V188.899C130.967 186.336 129.934 184.931 127.784 184.931C126.915 184.931 126.213 185.262 125.716 185.757C124.931 186.543 124.683 187.452 124.683 189.024H123.112C123.112 187.495 123.401 185.964 124.518 184.848C125.344 184.021 126.336 183.565 127.784 183.565C129.354 183.565 130.471 184.021 131.215 184.765C132.125 185.675 132.537 186.915 132.537 188.857V204.651H130.967Z" fill="white"/>
<path d="M128.321 194.94C127.364 194.94 126.75 195.167 126.133 195.751C125.497 196.352 125.102 197.608 125.102 199.028C125.102 201.604 125.948 202.909 127.619 202.909C129.471 202.909 130.3 201.167 130.3 199.44V194.94H128.321ZM131.633 203.984H131.871V188.857C131.871 187.109 131.534 186.027 130.743 185.236C130.077 184.569 129.081 184.232 127.784 184.232C126.603 184.232 125.741 184.568 124.989 185.32C124.275 186.033 123.891 187.008 123.8 188.357H124.032C124.098 187.153 124.38 186.151 125.245 185.285C125.904 184.627 126.805 184.264 127.784 184.264C129.221 184.264 131.633 184.867 131.633 188.899V199.44C131.633 199.448 131.633 199.456 131.633 199.463V203.984ZM127.415 193.676C126.441 193.805 125.719 194.155 125.01 194.807C124.057 195.688 123.531 197.188 123.531 199.028C123.531 201.213 124.162 202.658 124.753 203.281C125.424 203.952 126.319 204.315 127.329 204.315C127.778 204.315 128.159 204.263 128.506 204.144C128.223 204.209 127.927 204.243 127.619 204.243C126.18 204.243 123.768 203.565 123.768 199.028C123.768 197.201 124.296 195.653 125.217 194.781C125.862 194.172 126.562 193.816 127.415 193.676ZM127.329 205.648C125.957 205.648 124.736 205.152 123.797 204.212C122.776 203.133 122.197 201.25 122.197 199.028C122.197 196.813 122.875 194.965 124.106 193.827C125.28 192.745 126.565 192.284 128.404 192.284H130.3V188.899C130.3 185.939 128.864 185.597 127.784 185.597C126.986 185.597 126.476 185.94 126.187 186.228C125.569 186.846 125.349 187.579 125.349 189.024V189.691H122.445V189.024C122.445 186.974 122.969 185.453 124.046 184.377C125.055 183.369 126.242 182.899 127.784 182.899C129.447 182.899 130.76 183.368 131.686 184.293C132.736 185.344 133.204 186.752 133.204 188.857V205.317H130.3V204.64C129.429 205.34 128.515 205.648 127.329 205.648Z" fill="white"/>
<path d="M154.979 194.108V192.62H162.709V194.108H154.979Z" fill="white"/>
<path d="M155.645 193.441H162.043V193.287H155.645V193.441ZM163.376 194.775H154.312V191.953H163.376V194.775Z" fill="white"/>
<path d="M194.66 203.74C193.792 204.527 192.592 204.981 191.023 204.981C189.409 204.981 188.004 204.485 187.095 203.535C185.359 201.756 185.027 200.103 185.027 189.933C185.027 179.764 185.359 178.109 187.095 176.331C188.004 175.38 189.409 174.885 191.023 174.885C192.757 174.885 193.999 175.423 194.908 176.331C196.107 177.572 196.603 179.474 196.603 181.581H194.949C194.949 179.969 194.619 178.316 193.627 177.324C193.048 176.745 192.18 176.374 191.023 176.374C189.823 176.374 188.872 176.745 188.252 177.407C186.929 178.853 186.681 180.135 186.681 189.933C186.681 199.731 186.929 201.012 188.252 202.458C188.872 203.12 189.823 203.492 191.023 203.492C192.18 203.492 193.048 203.12 193.627 202.543C194.619 201.549 194.949 199.896 194.949 198.284H196.603C196.603 200.516 196.024 202.543 194.66 203.74Z" fill="white"/>
<path d="M191.023 175.551C189.565 175.551 188.341 175.992 187.576 176.792C186.049 178.356 185.695 179.755 185.695 189.933C185.695 200.111 186.049 201.509 187.572 203.068C188.341 203.875 189.565 204.315 191.023 204.315C192.356 204.315 193.429 203.955 194.213 203.245L194.22 203.239C195.213 202.367 195.807 200.858 195.917 198.951H195.597C195.519 200.316 195.171 201.94 194.097 203.013C193.347 203.764 192.284 204.16 191.023 204.16C189.656 204.16 188.529 203.729 187.765 202.915C186.227 201.232 186.015 199.656 186.015 189.933C186.015 180.211 186.227 178.633 187.76 176.956C188.529 176.136 189.656 175.707 191.023 175.707C192.284 175.707 193.347 176.103 194.097 176.852C195.171 177.925 195.519 179.549 195.597 180.915H195.917C195.819 179.121 195.308 177.705 194.428 176.795C193.595 175.96 192.477 175.551 191.023 175.551ZM191.023 205.648C189.199 205.648 187.632 205.06 186.612 203.995C184.677 202.012 184.361 200.041 184.361 189.933C184.361 179.825 184.677 177.853 186.617 175.865C187.632 174.805 189.199 174.217 191.023 174.217C192.824 174.217 194.289 174.77 195.379 175.86C196.619 177.143 197.269 179.117 197.269 181.581V182.248H194.283V181.581C194.283 180.368 194.087 178.727 193.155 177.795C192.66 177.301 191.923 177.04 191.023 177.04C190.033 177.04 189.244 177.325 188.739 177.863C187.595 179.113 187.348 180.292 187.348 189.933C187.348 199.574 187.595 200.752 188.744 202.008C189.244 202.541 190.033 202.827 191.023 202.827C191.923 202.827 192.66 202.564 193.155 202.07C194.087 201.139 194.283 199.497 194.283 198.284V197.617H197.269V198.284C197.269 200.933 196.521 202.992 195.104 204.237C194.068 205.174 192.695 205.648 191.023 205.648Z" fill="white"/>
<path d="M207.968 185.923C207.472 185.385 206.728 184.972 205.736 184.972C204.744 184.972 203.999 185.385 203.503 185.923C202.428 187.121 202.304 189.313 202.304 194.274C202.304 199.235 202.428 201.425 203.503 202.624C203.999 203.162 204.744 203.576 205.736 203.576C206.728 203.576 207.472 203.162 207.968 202.624C209.043 201.425 209.167 199.235 209.167 194.274C209.167 189.313 209.043 187.121 207.968 185.923ZM209.167 203.535C208.381 204.401 207.265 204.981 205.736 204.981C204.205 204.981 203.089 204.401 202.304 203.535C201.064 202.169 200.733 199.689 200.733 194.274C200.733 188.857 201.064 186.379 202.304 185.013C203.089 184.145 204.205 183.565 205.736 183.565C207.265 183.565 208.381 184.145 209.167 185.013C210.407 186.379 210.737 188.857 210.737 194.274C210.737 199.689 210.407 202.169 209.167 203.535Z" fill="white"/>
<path d="M205.736 185.639C204.857 185.639 204.303 186.04 203.992 186.376C203.072 187.401 202.971 189.68 202.971 194.274C202.971 198.868 203.072 201.145 204 202.179C204.303 202.508 204.857 202.909 205.736 202.909C206.613 202.909 207.168 202.508 207.477 202.172C208.399 201.145 208.5 198.868 208.5 194.274C208.5 189.685 208.399 187.407 207.475 186.372C207.164 186.036 206.611 185.639 205.736 185.639ZM205.736 204.243C204.673 204.243 203.707 203.828 203.012 203.076C201.761 201.679 201.637 199.439 201.637 194.274C201.637 189.108 201.761 186.868 203.005 185.477C204.409 183.963 207.067 183.968 208.457 185.469L208.464 185.477C209.709 186.867 209.833 189.108 209.833 194.274C209.833 199.439 209.709 201.68 208.464 203.069C207.764 203.828 206.797 204.243 205.736 204.243ZM205.736 184.232C204.524 184.232 203.536 184.645 202.799 185.462C201.752 186.611 201.4 188.835 201.4 194.274C201.4 199.713 201.752 201.937 202.797 203.087C203.536 203.901 204.525 204.315 205.736 204.315C206.947 204.315 207.935 203.901 208.672 203.087H208.673C209.719 201.937 210.071 199.713 210.071 194.274C210.071 188.835 209.719 186.611 208.673 185.462C207.936 184.645 206.947 184.232 205.736 184.232ZM205.736 205.648C204.155 205.648 202.797 205.072 201.809 203.983C200.336 202.36 200.067 199.44 200.067 194.274C200.067 189.107 200.336 186.188 201.811 184.565C202.797 183.476 204.155 182.899 205.736 182.899C207.317 182.899 208.675 183.476 209.661 184.567C211.135 186.188 211.404 189.107 211.404 194.274C211.404 199.439 211.135 202.36 209.661 203.983C208.675 205.072 207.317 205.648 205.736 205.648Z" fill="white"/>
<path d="M222.765 185.923C222.269 185.385 221.525 184.972 220.616 184.972C219.748 184.972 219.004 185.262 218.424 185.799C217.721 186.501 217.349 187.495 217.349 189.024V199.524C217.349 201.053 217.721 202.046 218.424 202.748C219.004 203.285 219.748 203.576 220.616 203.576C221.525 203.576 222.269 203.162 222.765 202.624C223.84 201.425 223.964 199.235 223.964 194.274C223.964 189.313 223.84 187.121 222.765 185.923ZM223.964 203.576C223.261 204.362 222.269 204.981 220.905 204.981C219.871 204.981 219.128 204.774 218.424 204.277C218.052 204.031 217.597 203.492 217.349 203.039V213.331H215.779V183.896H217.349V185.592C217.556 185.137 218.093 184.6 218.424 184.352C219.128 183.815 219.913 183.565 220.905 183.565C222.063 183.565 223.137 184.063 223.964 184.972C225.204 186.336 225.535 188.857 225.535 194.274C225.535 199.689 225.204 202.212 223.964 203.576Z" fill="white"/>
<path d="M220.616 185.639C219.925 185.639 219.341 185.857 218.879 186.287C218.296 186.87 218.016 187.745 218.016 189.024V199.524C218.016 200.803 218.296 201.677 218.895 202.276C219.343 202.691 219.927 202.909 220.616 202.909C221.468 202.909 222.021 202.446 222.276 202.172C223.196 201.145 223.297 198.868 223.297 194.274C223.297 189.685 223.196 187.408 222.272 186.37C222.016 186.096 221.464 185.639 220.616 185.639ZM219.423 204.07C219.844 204.241 220.309 204.315 220.905 204.315C221.903 204.315 222.765 203.916 223.468 203.132L223.471 203.128C224.516 201.979 224.868 199.744 224.868 194.274C224.868 188.804 224.516 186.569 223.471 185.42C222.764 184.644 221.876 184.232 220.905 184.232C220.477 184.232 220.103 184.282 219.76 184.391C220.973 184.139 222.357 184.499 223.255 185.469L223.263 185.477C224.507 186.868 224.631 189.108 224.631 194.274C224.631 199.439 224.507 201.679 223.263 203.069C222.272 204.144 220.703 204.458 219.423 204.07ZM216.445 212.664H216.683V200.425L216.74 200.531C216.701 200.216 216.683 199.881 216.683 199.524V189.024C216.683 188.899 216.685 188.776 216.691 188.657L216.683 188.672V184.563H216.445V212.664ZM218.016 213.997H215.112V183.229H218.016V183.825C218.02 183.823 218.023 183.821 218.025 183.819C218.843 183.192 219.76 182.899 220.905 182.899C222.243 182.899 223.504 183.476 224.457 184.523C225.932 186.146 226.201 189.08 226.201 194.274C226.201 199.467 225.932 202.4 224.459 204.023C223.507 205.087 222.279 205.648 220.905 205.648C219.732 205.648 218.849 205.393 218.04 204.823C218.032 204.817 218.024 204.812 218.016 204.807V213.997Z" fill="white"/>
<path d="M230.576 204.651V183.896H232.147V204.651H230.576ZM230.203 178.316V176H232.519V178.316H230.203Z" fill="white"/>
<path d="M230.869 177.65H231.852V176.667H230.869V177.65ZM233.185 178.983H229.536V175.333H233.185V178.983ZM231.243 203.984H231.48V184.563H231.243V203.984ZM232.813 205.317H229.909V183.229H232.813V205.317Z" fill="white"/>
<path d="M245.457 203.451C244.507 204.401 243.224 204.981 241.695 204.981C240.207 204.981 239.049 204.443 238.181 203.576C236.981 202.377 236.651 200.846 236.651 199.152H238.223C238.223 200.64 238.512 201.756 239.421 202.665C240.041 203.285 240.868 203.576 241.695 203.576C242.769 203.576 243.68 203.204 244.341 202.543C245.003 201.839 245.415 200.846 245.415 199.607C245.415 198.656 245.251 197.828 244.796 197.085C244.341 196.3 243.555 195.72 242.523 195.101L240 193.57C238.719 192.785 237.808 191.833 237.437 191.132C237.024 190.387 236.9 189.56 236.9 188.568C236.9 187.121 237.477 185.799 238.429 184.888C239.297 184.063 240.496 183.565 241.86 183.565C243.349 183.565 244.423 183.98 245.333 184.888C246.367 185.923 246.739 187.328 246.739 189.313H245.168C245.168 187.535 244.879 186.667 244.135 185.88C243.515 185.219 242.688 184.972 241.86 184.972C240.868 184.972 240.083 185.262 239.504 185.84C238.76 186.543 238.469 187.617 238.469 188.568C238.469 189.355 238.595 190.016 238.925 190.595C239.256 191.132 239.959 191.711 240.951 192.331L243.472 193.86C244.753 194.646 245.664 195.432 246.201 196.382C246.78 197.332 246.987 198.491 246.987 199.607C246.987 201.095 246.408 202.5 245.457 203.451Z" fill="white"/>
<path d="M237.337 199.819C237.432 201.27 237.848 202.3 238.652 203.105C239.456 203.907 240.48 204.315 241.695 204.315C242.975 204.315 244.112 203.853 244.985 202.98C245.821 202.144 246.32 200.882 246.32 199.607C246.32 198.464 246.083 197.468 245.632 196.728C245.172 195.917 244.403 195.213 243.124 194.428L240.605 192.901C239.445 192.175 238.733 191.555 238.357 190.943C237.976 190.277 237.804 189.529 237.804 188.568C237.804 187.272 238.256 186.101 239.047 185.356C239.737 184.663 240.689 184.305 241.861 184.305C242.98 184.305 243.935 184.692 244.62 185.425C245.396 186.244 245.745 187.156 245.819 188.646H246.056C245.976 187.108 245.608 186.105 244.861 185.36C244.071 184.569 243.172 184.232 241.861 184.232C240.716 184.232 239.661 184.637 238.889 185.372C238.049 186.175 237.567 187.34 237.567 188.568C237.567 189.565 237.701 190.236 238.02 190.809C238.301 191.339 239.073 192.221 240.348 193.001L242.868 194.531C243.988 195.203 244.844 195.839 245.372 196.752C245.855 197.539 246.083 198.451 246.083 199.607C246.083 200.953 245.648 202.125 244.827 202.999C244.008 203.819 242.931 204.243 241.695 204.243C240.639 204.243 239.664 203.851 238.949 203.137C238.111 202.297 237.676 201.257 237.577 199.819H237.337ZM241.695 205.648C240.113 205.648 238.773 205.109 237.709 204.048C236.164 202.5 235.984 200.512 235.984 199.152V198.485H238.889V199.152C238.889 200.6 239.18 201.481 239.892 202.195C240.355 202.656 240.995 202.909 241.695 202.909C242.569 202.909 243.321 202.619 243.869 202.07C244.44 201.464 244.749 200.607 244.749 199.607C244.749 198.707 244.583 198.015 244.227 197.433C243.833 196.755 243.125 196.24 242.179 195.672L239.655 194.141C238.395 193.369 237.32 192.336 236.848 191.444C236.424 190.681 236.233 189.791 236.233 188.568C236.233 186.979 236.865 185.462 237.968 184.407C238.991 183.435 240.373 182.899 241.861 182.899C243.515 182.899 244.768 183.381 245.805 184.417C246.912 185.524 247.405 187.035 247.405 189.313V189.98H244.501V189.313C244.501 187.569 244.201 186.923 243.649 186.339C243.213 185.874 242.612 185.639 241.861 185.639C241.044 185.639 240.428 185.858 239.975 186.312C239.445 186.812 239.137 187.651 239.137 188.568C239.137 189.287 239.253 189.827 239.504 190.264C239.751 190.663 240.36 191.175 241.304 191.767L243.819 193.289C245.303 194.201 246.216 195.052 246.781 196.053C247.357 196.997 247.653 198.2 247.653 199.607C247.653 201.253 247.025 202.827 245.928 203.923C244.8 205.051 243.336 205.648 241.695 205.648Z" fill="white"/>
<path d="M253.433 203.328C252.524 202.417 252.069 201.095 252.069 199.4V185.179H249.381V183.896H252.069V177.531H253.64V183.896H257.443V185.179H253.64V199.483C253.64 202.169 255.087 203.245 257.649 203.245V204.651C256.08 204.651 254.591 204.485 253.433 203.328Z" fill="white"/>
<path d="M252.736 184.512V199.4C252.736 200.917 253.129 202.08 253.905 202.856C254.709 203.662 255.699 203.915 256.983 203.97V203.887C254.321 203.683 252.973 202.204 252.973 199.483V178.197H252.736V184.512ZM258.316 205.317H257.649C256.004 205.317 254.296 205.133 252.963 203.799C251.927 202.764 251.403 201.284 251.403 199.4V185.845H248.715V183.229H251.403V176.864H254.307V183.229H258.111V185.845H254.307V199.483C254.307 201.653 255.307 202.579 257.649 202.579H258.316V205.317Z" fill="white"/>
<path d="M268.025 185.923C267.528 185.385 266.784 184.972 265.792 184.972C264.8 184.972 264.056 185.385 263.56 185.923C262.568 186.997 262.403 188.899 262.36 192.951H269.223C269.183 188.899 269.017 186.997 268.025 185.923ZM262.36 194.274C262.36 199.235 262.527 201.425 263.601 202.624C264.097 203.162 264.883 203.576 265.875 203.576C266.701 203.576 267.569 203.328 268.148 202.748C268.892 202.046 269.223 200.931 269.223 199.4H270.752C270.752 201.467 270.299 202.624 269.305 203.658C268.437 204.527 267.197 204.981 265.875 204.981C264.345 204.981 263.188 204.401 262.403 203.535C261.161 202.169 260.789 199.689 260.789 194.274C260.789 188.857 261.12 186.379 262.36 185.013C263.145 184.145 264.263 183.565 265.792 183.565C267.321 183.565 268.437 184.145 269.223 185.013C270.464 186.379 270.795 188.857 270.795 194.274H262.36Z" fill="white"/>
<path d="M263.036 192.284H268.548C268.497 188.908 268.311 187.216 267.535 186.375C267.224 186.039 266.669 185.639 265.792 185.639C264.915 185.639 264.36 186.04 264.049 186.376C263.273 187.216 263.088 188.908 263.036 192.284ZM265.792 184.232C264.58 184.232 263.592 184.645 262.856 185.46C261.809 186.611 261.456 188.835 261.456 194.274C261.456 199.611 261.833 201.917 262.896 203.087C263.624 203.889 264.653 204.315 265.875 204.315C267.056 204.315 268.108 203.913 268.835 203.187C269.516 202.477 269.972 201.676 270.067 200.067H269.868C269.772 201.485 269.357 202.525 268.607 203.232C267.971 203.869 266.971 204.243 265.875 204.243C264.803 204.243 263.795 203.817 263.111 203.076C261.833 201.651 261.695 199.183 261.695 194.274V192.944C261.736 188.831 261.887 186.755 263.069 185.47C264.461 183.967 267.125 183.97 268.515 185.469V185.47C269.699 186.755 269.848 188.832 269.889 192.944L269.896 193.607H270.125C270.097 188.651 269.731 186.563 268.729 185.462C267.992 184.645 267.003 184.232 265.792 184.232ZM265.875 205.648C264.267 205.648 262.895 205.072 261.908 203.983C260.573 202.515 260.123 200.064 260.123 194.274C260.123 189.107 260.392 186.188 261.867 184.565C262.852 183.476 264.209 182.899 265.792 182.899C267.373 182.899 268.731 183.476 269.717 184.565C271.192 186.188 271.461 189.107 271.461 194.274V194.94H263.028C263.044 199.212 263.221 201.201 264.097 202.179C264.345 202.446 264.915 202.909 265.875 202.909C266.619 202.909 267.276 202.679 267.677 202.276C268.273 201.715 268.556 200.776 268.556 199.4V198.733H271.419V199.4C271.419 201.545 270.947 202.912 269.787 204.12C268.799 205.108 267.413 205.648 265.875 205.648Z" fill="white"/>
<path d="M281.417 184.972C278.771 184.972 277.199 186.584 277.199 189.188V204.651H275.628V183.896H277.199V186.088C277.323 185.716 277.695 185.137 277.903 184.931C278.811 183.937 280.093 183.565 281.581 183.565V184.972H281.417Z" fill="white"/>
<path d="M280.915 184.263C280.372 184.312 279.897 184.428 279.483 184.608C279.919 184.457 280.397 184.362 280.915 184.324V184.263ZM276.295 203.984H276.532V184.563H276.295V203.984ZM277.865 205.317H274.961V183.229H277.865V184.046C278.784 183.288 280.035 182.899 281.581 182.899H282.248V185.639H281.417C279.16 185.639 277.865 186.933 277.865 189.188V205.317Z" fill="white"/>
<path d="M285.257 204.651V183.896H286.829V204.651H285.257ZM284.887 178.316V176H287.201V178.316H284.887Z" fill="white"/>
<path d="M285.553 177.65H286.535V176.667H285.553V177.65ZM287.868 178.983H284.22V175.333H287.868V178.983ZM285.924 203.984H286.163V184.563H285.924V203.984ZM287.496 205.317H284.591V183.229H287.496V205.317Z" fill="white"/>
<path d="M299.643 194.274H296.997C295.881 194.274 295.096 194.563 294.352 195.267C293.567 196.009 293.112 197.416 293.112 199.028C293.112 201.756 294.063 203.576 296.296 203.576C298.361 203.576 299.643 201.756 299.643 199.44V194.274ZM299.643 204.651V202.708C299.396 203.285 298.859 203.865 298.569 204.112C297.908 204.651 297.164 204.981 296.005 204.981C294.849 204.981 293.773 204.568 292.947 203.74C292.203 202.955 291.541 201.343 291.541 199.028C291.541 197.044 292.12 195.348 293.236 194.316C294.269 193.364 295.385 192.951 297.081 192.951H299.643V188.899C299.643 186.336 298.611 184.931 296.461 184.931C295.592 184.931 294.889 185.262 294.393 185.757C293.608 186.543 293.36 187.452 293.36 189.024H291.789C291.789 187.495 292.079 185.964 293.195 184.848C294.021 184.021 295.013 183.565 296.461 183.565C298.031 183.565 299.148 184.021 299.892 184.765C300.803 185.675 301.215 186.915 301.215 188.857V204.651H299.643Z" fill="white"/>
<path d="M296.997 194.94C296.04 194.94 295.427 195.167 294.808 195.751C294.173 196.352 293.779 197.608 293.779 199.028C293.779 201.604 294.625 202.909 296.296 202.909C298.147 202.909 298.976 201.167 298.976 199.44V194.94H296.997ZM300.309 203.984H300.548V188.857C300.548 187.109 300.211 186.027 299.42 185.236C298.753 184.569 297.759 184.232 296.461 184.232C295.279 184.232 294.417 184.567 293.667 185.32C292.953 186.033 292.569 187.008 292.477 188.357H292.709C292.775 187.155 293.057 186.151 293.921 185.285C294.581 184.627 295.483 184.264 296.461 184.264C297.899 184.264 300.309 184.867 300.309 188.899V199.44C300.309 199.445 300.309 199.449 300.309 199.455V203.984ZM296.091 193.676C295.117 193.805 294.396 194.155 293.688 194.807C292.735 195.688 292.208 197.188 292.208 199.028C292.208 201.213 292.84 202.658 293.431 203.281C294.101 203.952 294.996 204.315 296.005 204.315C296.455 204.315 296.836 204.263 297.183 204.144C296.901 204.209 296.604 204.243 296.296 204.243C294.859 204.243 292.445 203.565 292.445 199.028C292.445 197.201 292.973 195.653 293.893 194.781C294.539 194.172 295.239 193.817 296.091 193.676ZM296.005 205.648C294.635 205.648 293.413 205.152 292.475 204.212C291.453 203.133 290.875 201.248 290.875 199.028C290.875 196.812 291.552 194.965 292.783 193.827C293.957 192.745 295.243 192.284 297.081 192.284H298.976V188.899C298.976 185.939 297.54 185.597 296.461 185.597C295.664 185.597 295.152 185.94 294.864 186.228C294.247 186.848 294.027 187.579 294.027 189.024V189.691H291.123V189.024C291.123 186.974 291.645 185.453 292.724 184.377C293.731 183.369 294.917 182.899 296.461 182.899C298.125 182.899 299.437 183.368 300.363 184.293C301.413 185.343 301.881 186.751 301.881 188.857V205.317H298.976V204.64C298.105 205.34 297.192 205.648 296.005 205.648Z" fill="white"/>
<path d="M323.656 194.108V192.62H331.387V194.108H323.656Z" fill="white"/>
<path d="M324.323 193.441H330.72V193.287H324.323V193.441ZM332.053 194.775H322.989V191.953H332.053V194.775Z" fill="white"/>
<path d="M358.459 178.604L355.357 194.316H361.6L358.459 178.604ZM363.667 204.651L361.889 195.803H355.027L353.291 204.651H351.471L357.797 175.216H359.285L365.485 204.651H363.667Z" fill="white"/>
<path d="M356.168 193.65H360.787L358.463 182.025L356.168 193.65ZM364.212 203.984H364.664L358.745 175.882H358.593L362.415 194.983H354.545L358.099 176.981L352.297 203.984H352.743L354.477 195.136H362.435L364.212 203.984ZM366.307 205.317H363.121L361.344 196.469H355.575L353.839 205.317H350.645L357.257 174.549H359.825L366.307 205.317Z" fill="white"/>
<path d="M374.495 184.972C371.849 184.972 370.279 186.584 370.279 189.188V204.651H368.707V183.896H370.279V186.088C370.403 185.716 370.773 185.137 370.98 184.931C371.891 183.937 373.172 183.565 374.66 183.565V184.972H374.495Z" fill="white"/>
<path d="M373.993 184.263C373.453 184.312 372.977 184.427 372.565 184.607C373 184.457 373.477 184.362 373.993 184.324V184.263ZM369.373 203.984H369.612V184.563H369.373V203.984ZM370.945 205.317H368.04V183.229H370.945V184.043C371.865 183.277 373.091 182.899 374.66 182.899H375.327V185.639H374.495C372.24 185.639 370.945 186.933 370.945 189.188V205.317Z" fill="white"/>
<path d="M380.28 203.328C379.371 202.417 378.917 201.095 378.917 199.4V185.179H376.229V183.896H378.917V177.531H380.487V183.896H384.291V185.179H380.487V199.483C380.487 202.169 381.933 203.245 384.497 203.245V204.651C382.925 204.651 381.437 204.485 380.28 203.328Z" fill="white"/>
<path d="M380.751 202.856C381.556 203.662 382.547 203.915 383.831 203.97V203.887C381.169 203.683 379.82 202.204 379.82 199.483V178.197H379.584V199.4C379.584 200.917 379.976 202.08 380.751 202.856ZM385.164 205.317H384.497C382.851 205.317 381.143 205.133 379.808 203.799C378.775 202.764 378.251 201.282 378.251 199.4V185.845H375.563V183.229H378.251V176.864H381.153V183.229H384.957V185.845H381.153V199.483C381.153 201.653 382.153 202.579 384.497 202.579H385.164V205.317Z" fill="white"/>
<path d="M388.38 204.651V183.896H389.952V204.651H388.38ZM388.009 178.316V176H390.324V178.316H388.009Z" fill="white"/>
<path d="M388.676 177.65H389.657V176.667H388.676V177.65ZM390.991 178.983H387.343V175.333H390.991V178.983ZM389.047 203.984H389.285V184.563H389.047V203.984ZM390.619 205.317H387.713V183.229H390.619V205.317Z" fill="white"/>
<path d="M403.426 203.7C402.56 204.568 401.402 204.981 399.996 204.981C398.59 204.981 397.35 204.401 396.565 203.534C395.325 202.169 394.994 199.689 394.994 194.274C394.994 188.857 395.325 186.379 396.565 185.013C397.35 184.145 398.59 183.565 399.996 183.565C401.484 183.565 402.601 183.937 403.426 184.765C404.626 185.964 404.75 187.534 404.75 189.148H403.221C403.221 187.948 403.18 186.75 402.31 185.84C401.733 185.219 400.988 184.972 400.037 184.972C399.045 184.972 398.26 185.385 397.764 185.922C396.689 187.121 396.565 189.313 396.565 194.274C396.565 199.234 396.689 201.425 397.764 202.624C398.26 203.162 399.045 203.576 400.037 203.576C400.864 203.576 401.649 203.328 402.229 202.748C403.056 201.922 403.221 200.805 403.221 199.4H404.75C404.75 201.385 404.418 202.665 403.426 203.7Z" fill="white"/>
<path d="M399.996 184.232C398.853 184.232 397.754 184.692 397.06 185.46C396.014 186.61 395.661 188.834 395.661 194.274C395.661 199.713 396.014 201.937 397.058 203.086C397.754 203.856 398.853 204.315 399.996 204.315C401.254 204.315 402.221 203.96 402.95 203.233C403.665 202.486 403.997 201.567 404.069 200.067H403.873C403.817 201.216 403.576 202.346 402.7 203.219C402.03 203.888 401.11 204.243 400.037 204.243C398.965 204.243 397.958 203.817 397.274 203.076C396.022 201.68 395.898 199.439 395.898 194.274C395.898 189.108 396.022 186.867 397.268 185.477C397.96 184.729 398.966 184.305 400.037 184.305C401.218 184.305 402.122 184.66 402.8 185.385C403.682 186.31 403.849 187.481 403.88 188.481H404.074C404.034 187.262 403.838 186.119 402.956 185.236C402.272 184.551 401.332 184.232 399.996 184.232ZM399.996 205.648C398.46 205.648 397.029 205.041 396.07 203.983C394.597 202.36 394.328 199.44 394.328 194.274C394.328 189.107 394.597 186.188 396.072 184.565C397.028 183.507 398.46 182.898 399.996 182.898C401.685 182.898 402.962 183.355 403.898 184.293C405.3 185.695 405.417 187.533 405.417 189.148V189.815H402.554V189.148C402.554 187.965 402.501 187.004 401.829 186.301C401.401 185.84 400.85 185.639 400.037 185.639C399.078 185.639 398.508 186.1 398.253 186.376C397.333 187.401 397.232 189.679 397.232 194.274C397.232 198.868 397.333 201.145 398.26 202.179C398.508 202.446 399.078 202.909 400.037 202.909C400.533 202.909 401.234 202.8 401.757 202.276C402.421 201.613 402.554 200.684 402.554 199.4V198.733H405.417V199.4C405.417 201.665 404.978 203.045 403.908 204.162L403.898 204.17C402.92 205.151 401.606 205.648 399.996 205.648Z" fill="white"/>
<path d="M415.95 185.922C415.454 185.385 414.71 184.972 413.718 184.972C412.726 184.972 411.981 185.385 411.485 185.922C410.412 187.121 410.286 189.313 410.286 194.274C410.286 199.234 410.412 201.425 411.485 202.624C411.981 203.162 412.726 203.576 413.718 203.576C414.71 203.576 415.454 203.162 415.95 202.624C417.026 201.425 417.149 199.234 417.149 194.274C417.149 189.313 417.026 187.121 415.95 185.922ZM417.149 203.534C416.364 204.401 415.248 204.981 413.718 204.981C412.189 204.981 411.073 204.401 410.286 203.534C409.046 202.169 408.716 199.689 408.716 194.274C408.716 188.857 409.046 186.379 410.286 185.013C411.073 184.145 412.189 183.565 413.718 183.565C415.248 183.565 416.364 184.145 417.149 185.013C418.39 186.379 418.721 188.857 418.721 194.274C418.721 199.689 418.39 202.169 417.149 203.534Z" fill="white"/>
<path d="M413.718 185.639C412.841 185.639 412.286 186.04 411.974 186.376C411.054 187.403 410.953 189.68 410.953 194.274C410.953 198.867 411.054 201.144 411.981 202.179C412.286 202.508 412.84 202.909 413.718 202.909C414.596 202.909 415.149 202.508 415.461 202.172C416.381 201.145 416.482 198.868 416.482 194.274C416.482 189.685 416.381 187.407 415.458 186.372C415.145 186.036 414.592 185.639 413.718 185.639ZM413.718 204.243C412.656 204.243 411.69 203.828 410.996 203.076C409.744 201.679 409.62 199.439 409.62 194.274C409.62 189.109 409.744 186.868 410.989 185.477C412.39 183.963 415.052 183.968 416.44 185.469L416.446 185.477C417.693 186.867 417.816 189.108 417.816 194.274C417.816 199.439 417.693 201.68 416.446 203.069C415.746 203.828 414.78 204.243 413.718 204.243ZM413.718 184.232C412.508 184.232 411.52 184.646 410.781 185.462C409.736 186.61 409.382 188.834 409.382 194.274C409.382 199.713 409.736 201.937 410.78 203.086C411.52 203.901 412.508 204.315 413.718 204.315C414.929 204.315 415.917 203.901 416.654 203.086H416.656C417.701 201.937 418.054 199.713 418.054 194.274C418.054 188.834 417.701 186.61 416.656 185.462C415.917 184.645 414.93 184.232 413.718 184.232ZM413.718 205.648C412.138 205.648 410.781 205.072 409.793 203.983C408.318 202.36 408.049 199.44 408.049 194.274C408.049 189.107 408.318 186.188 409.793 184.565C410.794 183.46 412.114 182.898 413.718 182.898C415.301 182.898 416.657 183.476 417.644 184.567C419.118 186.186 419.388 189.107 419.388 194.274C419.388 199.439 419.118 202.36 417.644 203.983C416.657 205.072 415.3 205.648 413.718 205.648Z" fill="white"/>
<path d="M424.877 203.328C424.05 202.5 423.513 201.343 423.513 199.4V175.216H425.084V199.483C425.084 201.922 426.242 203.245 428.681 203.245V204.651C427.274 204.651 425.912 204.362 424.877 203.328Z" fill="white"/>
<path d="M424.18 175.882V199.4C424.18 200.981 424.54 202.048 425.349 202.856C425.998 203.505 426.857 203.863 428.014 203.957V203.88C425.688 203.639 424.417 202.1 424.417 199.483V175.882H424.18ZM429.348 205.317H428.681C426.825 205.317 425.428 204.821 424.406 203.798C423.342 202.734 422.846 201.336 422.846 199.4V174.549H425.75V199.483C425.75 201.624 426.653 202.579 428.681 202.579H429.348V205.317Z" fill="white"/>
<path d="M432.36 204.651V183.896H433.929V204.651H432.36ZM431.986 178.316V176H434.302V178.316H431.986Z" fill="white"/>
<path d="M432.653 177.65H433.636V176.667H432.653V177.65ZM434.969 178.983H431.32V175.333H434.969V178.983ZM433.026 203.984H433.262V184.563H433.026V203.984ZM434.596 205.317H431.693V183.229H434.596V205.317Z" fill="white"/>
<path d="M454.101 184.972C451.456 184.972 449.884 186.584 449.884 189.188V204.651H448.312V183.896H449.884V186.088C450.008 185.716 450.38 185.137 450.586 184.931C451.496 183.937 452.778 183.565 454.265 183.565V184.972H454.101Z" fill="white"/>
<path d="M453.598 184.263C453.057 184.312 452.582 184.428 452.168 184.608C452.604 184.457 453.082 184.362 453.598 184.324V184.263ZM448.978 203.984H449.217V184.563H448.978V203.984ZM450.55 205.317H447.645V183.229H450.55V184.046C451.469 183.288 452.72 182.898 454.265 182.898H454.932V185.639H454.101C451.845 185.639 450.55 186.933 450.55 189.188V205.317Z" fill="white"/>
<path d="M464.228 185.922C463.732 185.385 462.988 184.972 461.996 184.972C461.004 184.972 460.258 185.385 459.762 185.922C458.77 186.997 458.605 188.898 458.565 192.951H465.426C465.385 188.898 465.22 186.997 464.228 185.922ZM458.565 194.274C458.565 199.234 458.729 201.425 459.804 202.624C460.301 203.162 461.085 203.576 462.078 203.576C462.905 203.576 463.773 203.328 464.352 202.748C465.096 202.046 465.426 200.931 465.426 199.4H466.957C466.957 201.467 466.502 202.624 465.51 203.658C464.641 204.527 463.401 204.981 462.078 204.981C460.549 204.981 459.39 204.401 458.605 203.534C457.365 202.169 456.993 199.689 456.993 194.274C456.993 188.857 457.324 186.379 458.565 185.013C459.35 184.145 460.466 183.565 461.996 183.565C463.526 183.565 464.641 184.145 465.426 185.013C466.666 186.379 466.997 188.857 466.997 194.274H458.565Z" fill="white"/>
<path d="M459.24 192.284H464.75C464.698 188.908 464.514 187.216 463.738 186.374C463.426 186.039 462.872 185.639 461.996 185.639C461.118 185.639 460.564 186.04 460.252 186.376C459.476 187.216 459.292 188.908 459.24 192.284ZM461.996 184.232C460.784 184.232 459.797 184.645 459.06 185.46C458.013 186.61 457.66 188.834 457.66 194.274C457.66 199.61 458.036 201.917 459.098 203.086C459.826 203.889 460.857 204.315 462.078 204.315C463.26 204.315 464.31 203.913 465.038 203.186C465.72 202.477 466.176 201.676 466.272 200.067H466.072C465.976 201.485 465.56 202.525 464.808 203.233C464.174 203.869 463.173 204.243 462.078 204.243C461.005 204.243 459.998 203.817 459.314 203.076C458.037 201.653 457.898 199.184 457.898 194.274V192.944C457.938 188.832 458.088 186.755 459.273 185.47C460.66 183.969 463.328 183.968 464.717 185.469V185.47C465.902 186.755 466.05 188.831 466.093 192.944L466.1 193.607H466.329C466.3 188.651 465.934 186.563 464.933 185.462C464.194 184.645 463.208 184.232 461.996 184.232ZM462.078 205.648C460.47 205.648 459.097 205.072 458.11 203.983C456.777 202.513 456.326 200.063 456.326 194.274C456.326 189.107 456.596 186.186 458.072 184.565C459.057 183.476 460.414 182.898 461.996 182.898C463.578 182.898 464.934 183.476 465.921 184.567C467.394 186.188 467.664 189.107 467.664 194.274V194.94H459.233C459.248 199.212 459.424 201.203 460.301 202.179C460.548 202.446 461.118 202.909 462.078 202.909C462.821 202.909 463.478 202.679 463.88 202.276C464.476 201.715 464.76 200.777 464.76 199.4V198.733H467.624V199.4C467.624 201.545 467.15 202.912 465.99 204.12C465.002 205.108 463.616 205.648 462.078 205.648Z" fill="white"/>
<path d="M479.273 189.024C479.273 187.495 478.902 186.501 478.198 185.798C477.62 185.262 476.876 184.972 476.008 184.972C475.098 184.972 474.354 185.385 473.858 185.922C472.784 187.121 472.658 189.313 472.658 194.274C472.658 199.234 472.784 201.425 473.858 202.624C474.354 203.162 475.098 203.576 476.008 203.576C476.876 203.576 477.62 203.285 478.198 202.748C478.902 202.046 479.273 201.053 479.273 199.524V189.024ZM479.357 211.885C478.572 212.753 477.372 213.331 475.966 213.331C474.561 213.331 473.361 212.919 472.494 212.049C471.502 211.016 471.172 209.734 471.172 207.751H472.7C472.7 209.157 472.865 210.274 473.693 211.1C474.272 211.677 475.098 211.927 475.925 211.927C476.917 211.927 477.661 211.513 478.157 210.976C479.026 210.024 479.273 208.412 479.273 205.312V203.039C479.109 203.451 478.572 204.031 478.198 204.277C477.496 204.774 476.752 204.981 475.718 204.981C474.561 204.981 473.486 204.485 472.658 203.576C471.418 202.212 471.088 199.689 471.088 194.274C471.088 188.857 471.418 186.336 472.658 184.972C473.361 184.186 474.354 183.565 475.718 183.565C476.71 183.565 477.496 183.815 478.198 184.352C478.529 184.6 479.068 185.137 479.273 185.592V183.896H480.845V205.353C480.845 209.115 480.556 210.562 479.357 211.885Z" fill="white"/>
<path d="M476.008 185.639C475.156 185.639 474.601 186.1 474.348 186.376C473.426 187.403 473.325 189.68 473.325 194.274C473.325 198.867 473.426 201.144 474.354 202.179C474.601 202.446 475.154 202.909 476.008 202.909C476.696 202.909 477.281 202.691 477.746 202.26C478.328 201.677 478.606 200.804 478.606 199.524V189.024C478.606 187.745 478.328 186.87 477.728 186.27C477.281 185.857 476.696 185.639 476.008 185.639ZM475.718 184.232C474.721 184.232 473.86 184.631 473.154 185.417C472.108 186.569 471.754 188.804 471.754 194.274C471.754 199.744 472.108 201.979 473.152 203.128C473.86 203.904 474.748 204.315 475.718 204.315C476.325 204.315 476.8 204.239 477.222 204.063C475.934 204.465 474.356 204.146 473.368 203.076C472.116 201.679 471.992 199.439 471.992 194.274C471.992 189.109 472.116 186.868 473.361 185.477C474.265 184.497 475.641 184.14 476.858 184.389C476.517 184.282 476.144 184.232 475.718 184.232ZM471.853 208.417C471.924 209.92 472.257 210.84 472.974 211.588C473.686 212.298 474.694 212.664 475.966 212.664C477.101 212.664 478.157 212.217 478.861 211.439L478.862 211.437C479.908 210.284 480.178 209.033 480.178 205.353V184.563H479.94V188.68L479.933 188.665C479.937 188.782 479.94 188.901 479.94 189.024V199.524C479.94 199.534 479.94 199.546 479.94 199.556V205.312C479.94 208.288 479.729 210.243 478.649 211.425C477.954 212.179 476.988 212.593 475.925 212.593C474.842 212.593 473.881 212.229 473.221 211.57C472.346 210.697 472.104 209.565 472.048 208.417H471.853ZM475.966 213.997C474.352 213.997 472.988 213.488 472.024 212.521C470.942 211.395 470.505 210.016 470.505 207.751V207.084H473.366V207.751C473.366 209.036 473.5 209.964 474.164 210.628C474.572 211.036 475.197 211.26 475.925 211.26C476.805 211.26 477.358 210.86 477.668 210.524C478.352 209.774 478.606 208.362 478.606 205.312V204.807C478.593 204.816 478.581 204.825 478.568 204.832C477.774 205.393 476.892 205.648 475.718 205.648C474.381 205.648 473.12 205.07 472.166 204.025C470.692 202.401 470.421 199.468 470.421 194.274C470.421 189.08 470.692 186.146 472.165 184.524C473.116 183.462 474.346 182.898 475.718 182.898C476.862 182.898 477.78 183.192 478.604 183.822C478.605 183.824 478.605 183.824 478.606 183.825V183.229H481.512V205.353C481.512 208.983 481.281 210.755 479.85 212.332C478.893 213.391 477.477 213.997 475.966 213.997Z" fill="white"/>
<path d="M493.697 194.274H491.052C489.936 194.274 489.15 194.563 488.406 195.267C487.621 196.009 487.166 197.416 487.166 199.028C487.166 201.756 488.117 203.576 490.349 203.576C492.417 203.576 493.697 201.756 493.697 199.44V194.274ZM493.697 204.651V202.708C493.45 203.285 492.913 203.865 492.622 204.112C491.961 204.651 491.217 204.981 490.06 204.981C488.902 204.981 487.828 204.568 487 203.74C486.256 202.955 485.594 201.343 485.594 199.028C485.594 197.044 486.174 195.348 487.29 194.316C488.322 193.364 489.44 192.951 491.136 192.951H493.697V188.898C493.697 186.336 492.664 184.931 490.514 184.931C489.645 184.931 488.944 185.262 488.448 185.757C487.661 186.543 487.414 187.452 487.414 189.024H485.844C485.844 187.495 486.133 185.964 487.248 184.848C488.076 184.021 489.068 183.565 490.514 183.565C492.085 183.565 493.201 184.021 493.945 184.765C494.856 185.674 495.268 186.915 495.268 188.857V204.651H493.697Z" fill="white"/>
<path d="M491.052 194.94C490.094 194.94 489.481 195.167 488.862 195.751C488.228 196.352 487.833 197.608 487.833 199.028C487.833 201.604 488.68 202.909 490.349 202.909C492.201 202.909 493.03 201.167 493.03 199.44V194.94H491.052ZM494.364 203.984H494.601V188.857C494.601 187.109 494.264 186.027 493.473 185.236C492.806 184.569 491.812 184.232 490.514 184.232C489.333 184.232 488.472 184.568 487.72 185.32C487.008 186.033 486.624 187.008 486.532 188.357H486.764C486.829 187.153 487.112 186.15 487.976 185.285C488.636 184.627 489.536 184.264 490.514 184.264C491.952 184.264 494.364 184.867 494.364 188.898V199.44C494.364 199.445 494.364 199.449 494.364 199.455V203.984ZM490.148 193.676C489.172 193.804 488.45 194.153 487.742 194.805C486.788 195.689 486.261 197.188 486.261 199.028C486.261 201.213 486.893 202.658 487.484 203.281C488.154 203.952 489.05 204.315 490.06 204.315C490.509 204.315 490.889 204.263 491.236 204.144C490.954 204.209 490.657 204.243 490.349 204.243C488.912 204.243 486.5 203.565 486.5 199.028C486.5 197.201 487.028 195.653 487.948 194.781C488.593 194.172 489.296 193.816 490.148 193.676ZM490.06 205.648C488.689 205.648 487.469 205.152 486.528 204.212C485.506 203.133 484.928 201.248 484.928 199.028C484.928 196.813 485.606 194.965 486.837 193.827C488.01 192.745 489.296 192.284 491.136 192.284H493.03V188.898C493.03 185.939 491.594 185.597 490.514 185.597C489.717 185.597 489.206 185.94 488.918 186.228C488.3 186.846 488.081 187.579 488.081 189.024V189.691H485.177V189.024C485.177 186.974 485.7 185.453 486.777 184.377C487.785 183.369 488.972 182.898 490.514 182.898C492.178 182.898 493.49 183.368 494.417 184.293C495.466 185.343 495.934 186.751 495.934 188.857V205.317H493.03V204.639C492.16 205.339 491.246 205.648 490.06 205.648Z" fill="white"/>
<path d="M501.964 203.328C501.136 202.5 500.598 201.343 500.598 199.4V175.216H502.169V199.483C502.169 201.922 503.328 203.245 505.766 203.245V204.651C504.36 204.651 502.997 204.362 501.964 203.328Z" fill="white"/>
<path d="M501.265 175.882V199.4C501.265 200.981 501.626 202.048 502.434 202.856C503.084 203.505 503.942 203.863 505.1 203.957V203.88C502.773 203.639 501.502 202.1 501.502 199.483V175.882H501.265ZM506.433 205.317H505.766C503.912 205.317 502.514 204.821 501.492 203.798C500.428 202.734 499.932 201.336 499.932 199.4V174.549H502.836V199.483C502.836 201.624 503.74 202.579 505.766 202.579H506.433V205.317Z" fill="white"/>
<path d="M515.934 185.922C515.438 185.385 514.694 184.972 513.702 184.972C512.71 184.972 511.966 185.385 511.469 185.922C510.396 187.121 510.27 189.313 510.27 194.274C510.27 199.234 510.396 201.425 511.469 202.624C511.966 203.162 512.71 203.576 513.702 203.576C514.694 203.576 515.438 203.162 515.934 202.624C517.01 201.425 517.134 199.234 517.134 194.274C517.134 189.313 517.01 187.121 515.934 185.922ZM517.134 203.534C516.349 204.401 515.232 204.981 513.702 204.981C512.173 204.981 511.057 204.401 510.27 203.534C509.03 202.169 508.7 199.689 508.7 194.274C508.7 188.857 509.03 186.379 510.27 185.013C511.057 184.145 512.173 183.565 513.702 183.565C515.232 183.565 516.349 184.145 517.134 185.013C518.374 186.379 518.705 188.857 518.705 194.274C518.705 199.689 518.374 202.169 517.134 203.534Z" fill="white"/>
<path d="M513.702 185.639C512.825 185.639 512.27 186.04 511.96 186.376C511.038 187.403 510.937 189.68 510.937 194.274C510.937 198.867 511.038 201.144 511.966 202.179C512.27 202.508 512.824 202.909 513.702 202.909C514.581 202.909 515.134 202.508 515.445 202.172C516.365 201.145 516.468 198.868 516.468 194.274C516.468 189.685 516.365 187.407 515.442 186.372C515.13 186.036 514.577 185.639 513.702 185.639ZM513.702 204.243C512.64 204.243 511.674 203.828 510.98 203.076C509.728 201.679 509.604 199.439 509.604 194.274C509.604 189.109 509.728 186.868 510.973 185.477C512.374 183.963 515.036 183.968 516.424 185.469L516.43 185.477C517.677 186.867 517.801 189.108 517.801 194.274C517.801 199.439 517.677 201.68 516.43 203.069C515.73 203.828 514.764 204.243 513.702 204.243ZM513.702 184.232C512.492 184.232 511.504 184.646 510.765 185.462C509.72 186.61 509.366 188.834 509.366 194.274C509.366 199.713 509.72 201.937 510.764 203.086C511.504 203.901 512.492 204.315 513.702 204.315C514.914 204.315 515.902 203.901 516.638 203.086H516.64C517.686 201.937 518.038 199.713 518.038 194.274C518.038 188.834 517.686 186.61 516.64 185.462C515.902 184.645 514.916 184.232 513.702 184.232ZM513.702 205.648C512.122 205.648 510.765 205.072 509.777 203.983C508.304 202.36 508.033 199.44 508.033 194.274C508.033 189.107 508.304 186.188 509.777 184.565C510.778 183.46 512.098 182.898 513.702 182.898C515.285 182.898 516.641 183.476 517.629 184.567C519.102 186.186 519.372 189.107 519.372 194.274C519.372 199.439 519.102 202.36 517.629 203.983C516.641 205.072 515.284 205.648 513.702 205.648Z" fill="white"/>
</g>
<defs>
<clipPath id="clip0_1_3">
<rect width="537.333" height="233.56" fill="white"/>
</clipPath>
</defs>
</svg>
