<svg width="82" height="38" viewBox="0 0 82 38" fill="none" xmlns="http://www.w3.org/2000/svg">
<path d="M6.9349 37.6077C6.61308 37.4875 6.22259 37.1142 6.04237 36.7581C5.8836 36.4449 5.84499 36.2732 5.84499 35.8828C5.84499 35.1319 6.1711 34.6084 6.86196 34.2351C7.11942 34.0978 7.98191 34.115 8.26941 34.2652C8.49683 34.381 8.49683 34.3896 8.38527 34.5612C8.2737 34.7286 8.26512 34.7329 8.05057 34.6213C7.73732 34.4583 7.07651 34.5269 6.79759 34.75C6.49722 34.9903 6.33845 35.3808 6.33845 35.8785C6.33845 36.7195 6.79759 37.2515 7.52277 37.2515C7.73732 37.2515 7.99908 37.2 8.1321 37.1314C8.26083 37.0627 8.37669 37.0198 8.38956 37.0327C8.39814 37.0456 8.44534 37.1271 8.48825 37.2086C8.5612 37.3502 8.53975 37.376 8.26083 37.5133C7.96046 37.6592 7.20524 37.7149 6.93061 37.612L6.9349 37.6077ZM27.0383 37.509C26.738 37.3588 26.7337 37.3545 26.8581 37.2043C26.9268 37.1228 26.9911 37.0413 26.9954 37.0284C27.004 37.0155 27.0812 37.0542 27.1756 37.1142C27.5532 37.3588 28.1325 37.3202 28.3471 37.0327C28.5874 36.7195 28.36 36.3376 27.7421 36.0244C27.24 35.7712 26.974 35.5095 26.9225 35.2177C26.7766 34.4325 27.5018 33.9391 28.4157 34.2051C28.8105 34.321 28.8706 34.3982 28.7118 34.6084C28.6346 34.7114 28.6003 34.7114 28.4458 34.6299C28.1712 34.4797 27.6391 34.5012 27.4889 34.6685C27.3301 34.8444 27.3258 35.1319 27.4803 35.3035C27.5447 35.3722 27.8236 35.5567 28.1025 35.7069C28.7204 36.0458 28.8963 36.269 28.9006 36.7409C28.9049 37.1228 28.7461 37.3631 28.3642 37.5648C28.0682 37.7192 27.3988 37.6935 27.0383 37.5133V37.509ZM30.5312 37.612C30.278 37.5562 29.8961 37.1486 29.8103 36.8396C29.7674 36.6852 29.7331 36.0201 29.7331 35.3636V34.1708H29.9391H30.145L30.1708 35.4494C30.1922 36.6122 30.2094 36.7452 30.3467 36.9254C30.7157 37.4232 31.6168 37.3674 31.8614 36.8353C31.9129 36.7195 31.943 36.2003 31.943 35.4108V34.1665H32.3721V35.4537C32.3721 36.904 32.3249 37.0928 31.8872 37.4275C31.6812 37.5862 31.5568 37.6205 31.1663 37.6291C30.9088 37.6377 30.6213 37.6291 30.5355 37.6077L30.5312 37.612ZM44.7516 37.4918C43.6017 36.8825 43.5158 35.0847 44.6015 34.3939C45.4125 33.8747 46.4509 34.1279 46.9572 34.9689C47.1203 35.2349 47.1417 35.3507 47.1417 35.8785C47.1417 36.3634 47.1117 36.5436 46.983 36.7796C46.807 37.1099 46.4681 37.4232 46.1291 37.5648C45.76 37.7192 45.1121 37.6892 44.7474 37.4961L44.7516 37.4918ZM45.8373 37.2301C46.0175 37.2301 46.3822 36.8911 46.541 36.5822C46.7384 36.1917 46.7298 35.5052 46.5195 35.1362C46.2921 34.7372 46.039 34.5784 45.597 34.5441C45.1121 34.5097 44.7946 34.6685 44.5199 35.0804C44.138 35.6554 44.2668 36.6423 44.7774 37.0198C45.022 37.2 45.361 37.303 45.5755 37.2601C45.6528 37.243 45.7729 37.2301 45.8373 37.2301ZM62.5594 37.4918C61.4094 36.8825 61.3236 35.0847 62.4092 34.3939C63.2202 33.8747 64.2586 34.1279 64.765 34.9689C64.928 35.2349 64.9495 35.3507 64.9495 35.8785C64.9495 36.3634 64.9194 36.5436 64.7907 36.7796C64.6148 37.1099 64.2758 37.4232 63.9368 37.5648C63.5678 37.7192 62.9198 37.6892 62.5551 37.4961L62.5594 37.4918ZM64.0011 37.037C64.3316 36.8139 64.486 36.4363 64.486 35.857C64.486 35.5309 64.4431 35.3422 64.3273 35.1362C64.0741 34.6942 63.8381 34.5612 63.3146 34.5612C62.7911 34.5612 62.5551 34.6942 62.3019 35.1362C62.1088 35.4752 62.0831 36.1617 62.2504 36.5779C62.5165 37.2472 63.3661 37.4704 64.0054 37.0413L64.0011 37.037ZM75.9216 37.5176C75.4968 37.2944 75.3509 37.1486 75.1363 36.7409C74.9862 36.4577 74.9432 36.2647 74.939 35.9214C74.9261 34.5784 76.2091 33.7503 77.4707 34.2909C77.7667 34.4196 77.7796 34.4411 77.638 34.6342C77.5393 34.7672 77.535 34.7672 77.2947 34.6342C77.1102 34.5355 76.9472 34.5097 76.6167 34.5355C75.8186 34.5913 75.4281 35.0461 75.4367 35.9042C75.4453 36.6165 75.7671 37.0756 76.3722 37.2301C76.6768 37.3073 77.0888 37.273 77.3291 37.1486C77.4278 37.0971 77.4535 36.9898 77.4535 36.6251V36.166H77.0973C76.7669 36.166 76.7412 36.1531 76.7412 35.9901C76.7412 35.8141 76.7498 35.8141 77.3462 35.8141H77.9513V37.3545L77.6852 37.4832C77.5179 37.5648 77.1917 37.6248 76.8141 37.642C76.2992 37.6677 76.1662 37.6506 75.9259 37.5261L75.9216 37.5176ZM1.16348 36.0587V34.5269H0.665727C0.180842 34.5269 0.167969 34.5226 0.167969 34.351V34.1751H2.5881V34.351C2.5881 34.5226 2.57094 34.5269 2.12467 34.5269H1.66124V37.5905H1.16348V36.0587ZM3.37336 35.8828V34.1751H5.15413V34.351C5.15413 34.5269 5.15413 34.5269 4.47615 34.5269H3.79817V35.5953H4.4032C4.99965 35.5953 5.00824 35.5953 5.00824 35.7712C5.00824 35.9471 4.99965 35.9471 4.4032 35.9471H3.79817V37.2301H5.22279V37.5862H3.36907V35.8785L3.37336 35.8828ZM9.28638 35.8828V34.1751H9.78414V35.5996H11.6379V34.1751H12.1356V37.5948H11.6379V36.0287H9.78414V37.5948H9.28638V35.8871V35.8828ZM13.2041 35.8742V34.1579L13.9336 34.1879C14.7403 34.2223 14.9634 34.2995 15.1994 34.617C15.4097 34.9002 15.4225 35.4923 15.2252 35.7626C15.0406 36.0158 14.5 36.2389 14.0623 36.2389H13.7018V37.5905H13.2041V35.8742ZM14.4313 35.8098C14.7446 35.724 14.9162 35.5095 14.9162 35.2006C14.9162 34.8916 14.7188 34.6728 14.3455 34.5999C13.6804 34.4711 13.7061 34.4454 13.7061 35.2091V35.8871H13.9378C14.0666 35.8871 14.2897 35.8528 14.4356 35.8141L14.4313 35.8098ZM15.5556 37.5648C15.5556 37.539 16.6626 34.6428 16.8171 34.2652C16.8386 34.218 16.9544 34.1751 17.0832 34.1751H17.3106L17.8298 35.5481C18.1173 36.3033 18.4091 37.0713 18.4863 37.2601L18.6193 37.6034L18.3576 37.5819C18.1173 37.5605 18.0873 37.5347 17.9542 37.1872L17.8126 36.8139H16.2722L16.1477 37.2043C16.0319 37.5776 16.0104 37.5948 15.7873 37.5948C15.6585 37.5948 15.5513 37.5819 15.5513 37.5648H15.5556ZM17.6152 36.2947C17.6067 36.0845 17.0617 34.72 17.0231 34.8187C17.0016 34.8788 16.8686 35.2306 16.7313 35.6039C16.594 35.9772 16.4781 36.3033 16.4781 36.3333C16.4781 36.3633 16.7356 36.3848 17.0488 36.3848C17.4608 36.3848 17.6195 36.3591 17.6152 36.2947ZM19.1858 35.8871V34.1794H19.8251C20.885 34.1794 21.3356 34.4711 21.3441 35.1619C21.3484 35.5696 21.1768 35.9214 20.8979 36.063L20.6876 36.1703L21.1897 36.8654C21.6917 37.5562 21.6917 37.5605 21.5029 37.5819C21.2111 37.6163 21.1596 37.5776 20.7262 36.9641C20.3014 36.3591 20.1641 36.2432 19.8637 36.2432H19.6792V37.5948H19.1815V35.8871H19.1858ZM20.679 35.6897C20.9751 35.4709 20.9665 34.9131 20.6662 34.72C20.5803 34.6642 20.3229 34.5956 20.0955 34.5698L19.6878 34.5183V35.9085L20.0912 35.8656C20.3186 35.8399 20.576 35.7669 20.679 35.6897ZM22.3912 35.8871V34.1794H22.8846L22.9061 34.9774L22.9275 35.7755L23.5669 34.9817C24.1848 34.2137 24.2191 34.1879 24.4852 34.1837C24.7426 34.1837 24.7555 34.1922 24.6568 34.3081C24.601 34.3767 24.2921 34.7414 23.9745 35.1147L23.3952 35.797L24.0732 36.6465C24.4465 37.1142 24.7684 37.5219 24.7855 37.5476C24.8027 37.5776 24.6954 37.6034 24.541 37.6034C24.2706 37.6034 24.2449 37.5776 23.5755 36.7366L22.8846 35.8699V37.5991H22.3869V35.8914L22.3912 35.8871ZM33.359 35.8871V34.1579L34.1743 34.1965C34.8909 34.2308 35.0325 34.2609 35.3372 34.4325C35.5603 34.5569 35.762 34.7457 35.8907 34.956C36.0752 35.2478 36.0967 35.3464 36.0967 35.857C36.0967 36.3719 36.0752 36.4706 35.8821 36.7753C35.7491 36.9898 35.5345 37.2043 35.3114 37.3374C34.981 37.5433 34.8995 37.5562 34.1528 37.5819L33.3504 37.6077V35.8785L33.359 35.8871ZM35.084 37.0327C35.6289 36.7109 35.822 35.7541 35.4616 35.1362C35.2556 34.7844 34.9467 34.6428 34.2344 34.5741L33.7881 34.5312V37.2644L34.3073 37.2258C34.6549 37.2 34.9123 37.1357 35.0883 37.0327H35.084ZM37.3453 36.0673V34.5355H36.8476C36.3627 34.5355 36.3498 34.5312 36.3498 34.3596V34.1837H38.77V34.3596C38.77 34.5312 38.7571 34.5355 38.2722 34.5355H37.7744V37.5991H37.3453V36.0673ZM39.4823 35.8914V34.1837H39.9114V37.6034H39.4823V35.8957V35.8914ZM41.0485 35.8914V34.1837H41.675C42.1813 34.1837 42.3615 34.2137 42.619 34.3424C43.327 34.6985 43.3742 35.6983 42.7005 36.0845L42.4989 36.2003L42.8593 36.6809C43.0567 36.9469 43.2798 37.2601 43.3485 37.3803L43.4772 37.5991H43.2283C43.0009 37.5991 42.9494 37.5562 42.5804 37.0284C42.1298 36.3934 41.9625 36.2432 41.675 36.2432H41.4776V37.5948H41.0485V35.8871V35.8914ZM42.2114 35.8227C42.5718 35.7412 42.692 35.5739 42.6705 35.1834C42.649 34.7886 42.4517 34.6342 41.8852 34.5655L41.4776 34.5183V35.8871H41.7093C41.838 35.8871 42.0655 35.857 42.2114 35.8184V35.8227ZM48.03 35.8914V34.1837H48.5277V37.2472H49.2057C49.8794 37.2472 49.8837 37.2472 49.8837 37.4232V37.5991H48.03V35.8914ZM51.1624 37.5476C51.1624 37.5176 51.4242 36.7495 51.746 35.8399C52.3253 34.1965 52.3339 34.1837 52.5356 34.1837C52.6686 34.1837 52.7329 34.218 52.7201 34.2738C52.7072 34.3252 52.4411 35.0933 52.1279 35.9815C51.5701 37.5605 51.5529 37.5991 51.3641 37.5991C51.2568 37.5991 51.1667 37.5776 51.1667 37.5476H51.1624ZM53.4281 37.2644C53.501 37.0799 53.7928 36.3076 54.0803 35.5567L54.6038 34.1837H54.8312C54.9814 34.1837 55.0758 34.2266 55.1102 34.3081C55.2947 34.7672 56.3588 37.5562 56.3588 37.5819C56.3588 37.5991 56.243 37.6034 56.0971 37.5905C55.8525 37.5691 55.8268 37.5433 55.7152 37.2129L55.595 36.8568L54.8141 36.8353L54.0331 36.8139L53.9001 37.2086C53.7757 37.5776 53.7542 37.6034 53.5311 37.6034H53.2951L53.4238 37.2644H53.4281ZM55.359 36.3033C55.359 36.2561 55.2346 35.8828 55.0887 35.4795L54.8227 34.7414L54.5523 35.4795C54.4021 35.8828 54.2648 36.2561 54.2477 36.3033C54.2219 36.3719 54.3592 36.3934 54.7926 36.3934C55.226 36.3934 55.3676 36.3676 55.3676 36.3033H55.359ZM57.1441 35.8957V34.1879H57.5732V37.2515H58.2512C58.9249 37.2515 58.9292 37.2515 58.9292 37.4275V37.6034H57.1484V35.8957H57.1441ZM59.9204 36.0716V34.5398H59.457C59.0107 34.5398 58.9935 34.5355 58.9935 34.3639V34.1879H61.4137V34.3639C61.4137 34.5355 61.4008 34.5398 60.9159 34.5398H60.4182V37.6034H59.9204V36.0716ZM66.3312 37.5476C66.3312 37.5176 66.6101 36.7495 66.9491 35.8399L67.567 34.1837H67.7987C67.9489 34.1837 68.0433 34.2266 68.0776 34.3081C68.2407 34.72 69.3263 37.5562 69.3263 37.5776C69.3263 37.5905 69.219 37.6034 69.086 37.6034C68.8629 37.6034 68.8371 37.5776 68.7041 37.2301L68.5625 36.8568H67.0263L66.8847 37.2301C66.7603 37.5605 66.7174 37.6034 66.5371 37.6034C66.4256 37.6034 66.3312 37.5776 66.3312 37.5519V37.5476ZM68.1549 35.7326C67.8674 34.9431 67.7687 34.7028 67.7601 34.7672C67.7601 34.7929 67.6271 35.1705 67.4726 35.6039L67.1894 36.3934H68.3952L68.1549 35.7326ZM70.0386 35.8828V34.1622L70.8539 34.2008C71.5705 34.2351 71.7164 34.2652 72.0382 34.4411C72.2399 34.5527 72.4845 34.7543 72.5746 34.8959C72.9265 35.428 72.9222 36.2346 72.566 36.8439C72.433 37.0713 72.2785 37.2043 71.9481 37.376C71.5405 37.5862 71.4632 37.6034 70.7724 37.6034H70.0343V35.8828H70.0386ZM71.7851 37.0327C72.1798 36.7881 72.3386 36.4577 72.3386 35.8914C72.3386 35.0461 71.961 34.6728 71.017 34.5827L70.5364 34.5355V37.2687L71.0384 37.2258C71.3645 37.2 71.6263 37.1314 71.7808 37.0327H71.7851ZM73.6731 35.8914V34.1837H74.1022V37.6034H73.6731V35.8957V35.8914ZM78.8738 35.8914V34.1837H80.7275V34.3596C80.7275 34.5355 80.7275 34.5355 80.0496 34.5355H79.3716V35.6039H79.9423C80.5044 35.6039 80.513 35.6039 80.513 35.7798C80.513 35.9557 80.5044 35.9557 79.9423 35.9557H79.3716V37.2387H80.0496C80.7233 37.2387 80.7275 37.2387 80.7275 37.4146V37.5905H78.8738V35.8828V35.8914ZM30.3853 33.849C30.2566 33.7975 30.2738 33.4199 30.4111 33.3684C30.4711 33.3427 30.5527 33.3255 30.5827 33.3255C30.6599 33.3255 30.8659 33.5315 30.8659 33.6087C30.8659 33.7031 30.6514 33.8962 30.557 33.8876C30.5098 33.8876 30.4325 33.8661 30.3853 33.8447V33.849ZM31.3336 33.7846C31.2736 33.7245 31.2221 33.6473 31.2221 33.613C31.2221 33.5186 31.4366 33.3298 31.5439 33.3298C31.6512 33.3298 31.8657 33.5186 31.8657 33.613C31.8657 33.7074 31.6512 33.8962 31.5439 33.8962C31.4924 33.8962 31.398 33.8447 31.3336 33.7846ZM0.167969 15.403V0.694336H12.5261L15.2509 3.41896L17.9757 6.14359V0.694336H28.5187V30.1117H15.946L13.2212 27.3871L10.4964 24.6625V30.1117H0.167969V15.403ZM10.1403 27.0181V24.3535L7.27389 19.5093C5.69909 16.8447 4.39891 14.6736 4.39033 14.6822C4.38175 14.6908 3.52784 18.0676 2.48941 22.1867L0.609944 29.6784H10.1403V27.0138V27.0181ZM27.9995 29.5925C27.9781 29.5453 27.1713 27.7089 26.2059 25.5163C25.2361 23.3238 24.4079 21.4401 24.365 21.3328C24.2835 21.1441 24.2363 21.1913 20.7219 25.0272C18.7652 27.164 17.0059 29.0862 16.8171 29.2965L16.4738 29.6784H22.2581C26.8538 29.6784 28.0338 29.6612 28.0038 29.5883L27.9995 29.5925ZM20.2199 25.0186C22.4684 22.5729 24.0646 20.7836 24.0604 20.7064C24.0561 20.5519 18.2417 7.10472 18.1817 7.10472C18.1559 7.10472 16.4481 10.9535 14.3798 15.6605L10.6209 24.2162L13.3156 26.9151L16.0104 29.614L16.1863 29.408C16.285 29.2922 18.0958 27.3184 20.2113 25.0186H20.2199ZM28.1454 9.25867L28.1282 2.73673L26.3603 11.7301C25.3863 16.6774 24.6053 20.7922 24.6225 20.8737C24.6396 20.9553 25.4335 22.8003 26.3904 24.9671L28.1282 28.9103L28.1454 22.3455C28.154 18.7327 28.154 12.8457 28.1454 9.25867ZM2.34351 8.15166C1.36945 4.85636 0.567033 2.14032 0.549869 2.12316C0.536996 2.10599 0.524123 8.00578 0.528414 15.2271L0.536996 28.3611L2.32206 21.2556L4.10712 14.1501L2.34351 8.15166ZM14.1309 15.2614L17.9156 6.6499L15.208 3.94243C13.719 2.45354 12.4875 1.24784 12.4703 1.26501C12.2987 1.46238 4.55768 14.1287 4.57484 14.1802C4.60488 14.2789 10.3119 23.9073 10.3291 23.8901C10.3377 23.8816 12.0455 19.9984 14.1309 15.2614ZM26.2016 10.5845C27.2014 5.46994 28.021 1.24784 28.021 1.20064C28.021 1.13628 26.8324 1.11912 23.1764 1.11912H18.3318V3.7708V6.42249L21.3012 13.2877C23.4596 18.2778 24.2878 20.1143 24.3264 20.0199C24.3564 19.9469 25.1975 15.6991 26.2016 10.5845ZM8.23937 7.38791C10.342 3.98963 12.0627 1.18348 12.0627 1.16203C12.0627 1.14057 9.49664 1.12341 6.35562 1.12341C1.82001 1.12341 0.657145 1.14057 0.682891 1.21352C0.700055 1.26072 1.52822 4.06687 2.52374 7.44369C3.51925 10.8205 4.34742 13.588 4.37317 13.588C4.39891 13.588 6.13248 10.8033 8.23937 7.39649V7.38791ZM40.0229 27.3571C37.9461 25.851 36.1954 24.5466 36.131 24.4608C36.0666 24.375 35.3672 22.2983 34.5734 19.8482L33.1359 15.3944L34.6077 10.872C35.4187 8.38336 36.101 6.32809 36.1267 6.30235C36.1524 6.2766 37.9032 5.00225 40.0101 3.47045L43.8377 0.694336H53.2865L53.5268 0.857384C53.6598 0.94749 55.4062 2.21326 57.4101 3.66783L61.0532 6.31522L61.448 7.50805C62.9627 12.0992 63.9883 15.2915 63.984 15.4073C63.984 15.4803 63.3275 17.557 62.5293 20.0156C61.5295 23.0921 61.0361 24.5209 60.9459 24.5852C60.873 24.6367 59.1308 25.8982 57.0754 27.3914L53.338 30.1031H48.5664H43.7947L40.0187 27.3656L40.0229 27.3571ZM53.0462 29.5153C53.2092 28.8631 54.8012 21.3758 54.784 21.3328C54.7712 21.2942 44.6615 29.3222 44.3697 29.6097C44.3268 29.6483 45.996 29.6741 48.6522 29.6741H53.0033L53.0419 29.5153H53.0462ZM57.1012 26.898C59.1266 25.4176 60.5254 24.3492 60.4782 24.3192C60.431 24.2935 59.2424 23.564 57.835 22.7016C56.4275 21.8392 55.2646 21.1441 55.2518 21.1526C55.2389 21.1612 54.8441 22.9805 54.3721 25.1902C53.9001 27.4 53.4967 29.2836 53.471 29.378C53.4367 29.5153 53.4495 29.5368 53.5354 29.4853C53.5954 29.4509 55.196 28.2839 57.1012 26.8937V26.898ZM42.5375 22.5171C41.9496 18.7155 41.4647 15.6004 41.4519 15.5918C41.439 15.5832 39.6711 15.5832 37.517 15.5918L33.5993 15.609L34.9982 19.9169L36.397 24.2248L39.9843 26.8422C41.9582 28.2796 43.5802 29.451 43.5845 29.4424C43.5931 29.4338 43.1168 26.3187 42.5332 22.5171H42.5375ZM49.446 25.0486C52.3124 22.7617 54.6424 20.8694 54.621 20.848C54.5995 20.8265 51.7417 19.6637 48.266 18.2693C44.1766 16.6216 41.941 15.7592 41.9282 15.8149C41.9153 15.8621 42.3744 18.9172 42.9451 22.6072C43.5158 26.293 43.9793 29.3308 43.9793 29.3566C43.9793 29.4209 43.8377 29.5325 49.4503 25.0529L49.446 25.0486ZM62.2075 19.7667C62.9713 17.4154 63.5892 15.4331 63.5849 15.3601C63.5763 15.2228 60.9116 7.01461 60.8859 7.04465C60.8773 7.05323 59.6372 10.1426 58.131 13.9141L55.3891 20.7665L58.0667 22.4098C59.5385 23.3152 60.7614 24.0532 60.7829 24.0489C60.8043 24.0489 61.4437 22.1223 62.2075 19.771V19.7667ZM52.926 17.2652C47.8111 8.29755 43.9449 1.55249 43.9235 1.57394C43.8934 1.60398 41.9067 15.0083 41.911 15.1885C41.911 15.3129 42.8078 15.6905 48.266 17.8745C51.7632 19.2733 54.6424 20.4189 54.6682 20.4189C54.6939 20.4189 53.9087 19.003 52.9217 17.2695L52.926 17.2652ZM57.9337 13.3735C59.4269 9.63626 60.6413 6.5555 60.6284 6.52118C60.6155 6.48685 58.9506 5.2554 56.9253 3.78797L53.2436 1.11483H48.7165C46.2278 1.11483 44.1895 1.13628 44.1895 1.15774C44.1895 1.17919 46.6483 5.51285 49.652 10.7776C53.1449 16.9048 55.1316 20.3202 55.1659 20.2602C55.196 20.2087 56.4404 17.1065 57.9337 13.3735ZM41.5162 15.0555C41.5892 14.7208 43.5502 1.44522 43.5287 1.42376C43.5158 1.41089 41.911 2.56081 39.9629 3.98105L36.4185 6.55979L35.4616 9.48179C34.9338 11.0865 34.2987 13.0345 34.0498 13.8069L33.595 15.2142H41.4819L41.5162 15.0555ZM68.7642 15.3944V0.694336H81.015V30.1117H68.7642V15.403V15.3944ZM80.4443 29.6397C80.4443 29.5153 75.072 20.1314 75.0291 20.1786C74.9604 20.2516 69.3349 29.6011 69.3349 29.644C69.3349 29.6612 71.8366 29.6741 74.8918 29.6741C77.947 29.6741 80.4486 29.6569 80.4486 29.6397H80.4443ZM71.888 24.6367L74.6 20.1357L74.1923 20.3159C73.9692 20.4146 72.7377 20.951 71.4547 21.5088L69.1203 22.5214V25.8639C69.1203 27.7003 69.1332 29.1935 69.1461 29.1763C69.1632 29.1592 70.3948 27.1211 71.888 24.6453V24.6367ZM79.0068 14.2445C78.1358 12.0048 77.4106 10.1812 77.3977 10.1941C77.3419 10.2498 75.3166 19.5479 75.3337 19.6766C75.3423 19.7581 76.5223 21.8949 77.9513 24.4222L80.5516 29.0219L80.5731 23.6713L80.5945 18.3207L79.0068 14.2488V14.2445ZM73.553 20.1872C74.3339 19.8482 74.9003 19.5608 74.9218 19.4964C75.0505 19.0673 77.1016 9.63197 77.0845 9.55474C77.063 9.46892 69.2104 1.39802 69.1461 1.39802C69.1332 1.39802 69.1203 6.05778 69.1203 11.7559V22.1138L70.6694 21.4401C71.5233 21.0668 72.8192 20.5047 73.553 20.1872ZM80.5688 5.68019L80.5516 1.83139L79.1055 5.51714C78.3117 7.54667 77.6423 9.27155 77.6208 9.35736C77.5951 9.45605 78.0886 10.8248 79.0669 13.3392L80.5516 17.1665L80.5688 13.3478C80.5774 11.2496 80.5774 7.79553 80.5688 5.68019ZM78.8652 5.08377L80.4272 1.11483H69.3864L73.3212 5.10523C75.4882 7.2978 77.269 9.08705 77.2819 9.07417C77.2947 9.0613 78.007 7.26777 78.8652 5.08377Z" fill="white"/>
</svg>
