<?xml version="1.0" encoding="utf-8"?>
<!-- Generator: Adobe Illustrator 28.0.0, SVG Export Plug-In . SVG Version: 6.00 Build 0)  -->
<svg version="1.1"
	 id="svg1" xmlns:svg="http://www.w3.org/2000/svg" xmlns:inkscape="http://www.inkscape.org/namespaces/inkscape" xmlns:sodipodi="http://sodipodi.sourceforge.net/DTD/sodipodi-0.dtd"
	 xmlns="http://www.w3.org/2000/svg" xmlns:xlink="http://www.w3.org/1999/xlink" x="0px" y="0px" viewBox="0 0 459.3 116.2"
	 style="enable-background:new 0 0 459.3 116.2;" xml:space="preserve">
<style type="text/css">
	.st0{fill:#FFFFFF;}
</style>
<sodipodi:namedview  bordercolor="#000000" borderopacity="0.25" id="namedview1" inkscape:current-layer="layer1" inkscape:cx="324.28346" inkscape:cy="66.764243" inkscape:deskcolor="#d1d1d1" inkscape:document-units="mm" inkscape:pagecheckerboard="0" inkscape:pageopacity="0.0" inkscape:showpageshadow="2" inkscape:window-height="1000" inkscape:window-maximized="1" inkscape:window-width="1920" inkscape:window-x="-11" inkscape:window-y="-11" inkscape:zoom="0.68150253" pagecolor="#ffffff">
	</sodipodi:namedview>
<g id="layer1" transform="translate(-23.90179,-130.64068)" inkscape:groupmode="layer" inkscape:label="Livello 1">
	<path id="path1" class="st0" d="M328,245.6c0.3-1,2.3-6.1,4.4-11.5c3.8-9.5,4-9.8,6.3-10c1.8-0.2,2.4,0.1,2.4,1
		c0,1.1,0.1,1.1,1.7,0c1.1-0.8,3.4-1.2,7.1-1.2c6.5,0,8.1,1.1,7.3,4.8c-0.9,4.2-3.3,8.4-5.6,9.7c-2.8,1.7-12.1,2-13.8,0.5
		c-1.5-1.2-1.4-1.3-3.2,3.7c-1.4,3.9-1.7,4.1-4.3,4.4C327.7,247.3,327.6,247.2,328,245.6L328,245.6z M349.4,233.9
		c0.9-1.2,1.5-2.8,1.4-3.9c-0.2-1.8-0.4-1.9-5.1-1.9c-4.8,0-4.9,0-6.3,2.7c-2.2,4.1-1.3,5.2,4,5.2
		C347.3,235.9,348,235.7,349.4,233.9L349.4,233.9z M212.7,239.8c-4.7-0.3-5.5-1.7-3.9-6.7c2.7-8.1,4.5-9.2,15-9.2
		c9.6,0,10.8,0.7,9.4,5.3c-1.2,3.9-4.1,8.7-5.9,9.6C225.8,239.6,217.8,240.2,212.7,239.8z M225.2,234.8c1.4-1.4,2.3-4.4,1.7-5.9
		c-0.3-0.8-1.6-1.1-4.8-1.1c-5.1,0-6.7,1.2-7.4,5.5l-0.4,2.7h4.9C222.6,235.9,224.4,235.6,225.2,234.8L225.2,234.8z M240.5,239.9
		c-1.5-0.2-2.9-0.8-3.2-1.3c-0.2-0.6,0.3-3,1.1-5.3c1.8-5.2,1.8-5.5,0.3-5.5c-0.8,0-1-0.4-0.7-1.2c0.3-0.7,0.5-1.5,0.5-1.9
		s0.8-0.7,1.8-0.7c1.1,0,2.1-0.7,2.6-1.9c0.7-1.5,1.4-1.9,3.5-1.9c2.9,0,3,0.2,1.9,2.3c-0.7,1.4-0.5,1.5,4.1,1.5
		c2.7,0,4.9,0.2,4.9,0.4s-0.3,1.1-0.8,1.9c-0.6,1.2-1.6,1.5-5.5,1.5h-4.9l-1.2,3c-0.7,1.7-1.2,3.5-1.2,4c0,1.8,2.4,2.1,4.6,0.5
		c2.1-1.5,5.1-2.1,5.1-0.9c0,0.3-0.9,1.6-2.1,2.9C249.2,239.7,246.1,240.4,240.5,239.9L240.5,239.9z M261.3,239.9
		c-5.3-0.5-5.8-2.2-2.6-9.7c2.2-5,4.8-6.2,13.8-6.2c7.3,0,10.1,0.8,10.1,2.8s-4.6,10.7-6.1,11.7
		C274.7,239.6,266.5,240.3,261.3,239.9z M274.4,233.9c0.9-1.2,1.5-2.8,1.4-3.9c-0.2-1.8-0.5-1.9-4.8-2.1c-5.3-0.3-6.9,0.9-7.6,5.4
		L263,236h4.9C272.3,235.9,273,235.7,274.4,233.9L274.4,233.9z M308.8,239.9c-2.8-0.3-4.3-2.2-3.2-4c0.6-0.9,5.6-1,5.6-0.1
		c0,1,6,1.4,8.9,0.6c4.4-1.2,2.3-2.4-4.6-2.8c-7.8-0.5-8.8-1.2-7.1-4.8c2.1-4.4,3.8-5,13-4.8c7.9,0.2,8.2,0.3,8.4,2l0.2,1.8l-7-0.5
		c-4.3-0.3-7.4-0.2-8.1,0.3c-2,1.3,0.2,2.2,6.5,2.4c3.4,0.1,6.4,0.5,6.7,0.8c1,1-0.8,6-2.7,7.4C323.5,239.6,314.3,240.5,308.8,239.9
		L308.8,239.9z M363.2,239.9c-4.7-0.4-5.2-1.5-3.3-7.2c2.5-7.4,3.9-8.3,12.9-8.6c9.9-0.3,11.2,0,11.1,3.1c0,3.2-3.2,9.9-5.4,11.3
		C376.7,239.6,368.6,240.3,363.2,239.9L363.2,239.9z M375.9,234.6c0.7-0.7,1.3-2.5,1.4-3.9l0.2-2.6l-4.5-0.2
		c-5.3-0.3-6.9,0.9-7.6,5.4L365,236h4.9C373.5,235.9,375,235.6,375.9,234.6L375.9,234.6z M413.5,239.7c-4.1-0.6-4.2-2-0.7-10.7
		c0.4-0.9,0.2-1.3-0.7-1.3c-0.7,0-1.2-0.3-1.2-0.7c0-1.8,1.1-3.1,2.6-3.1c1.2,0,1.9-0.6,2.2-1.9c0.4-1.6,0.9-1.9,3.2-1.9
		c2.5,0,2.7,0.1,2.2,1.9c-0.5,1.8-0.4,1.9,4,1.9c3.1,0,4.5,0.3,4.5,0.9c0,2.1-1.4,2.7-6,3l-4.8,0.2l-1.3,3.6c-1.2,3.3-1.2,3.6,0,4.2
		c1.4,0.7,4.6-0.2,4.6-1.4c0-0.4,1-0.8,2.2-0.8c2.8,0,2.8,0.9,0.2,3.7C422.4,239.7,419,240.5,413.5,239.7L413.5,239.7z M145.4,239.4
		c0-1.4,11.5-30,12.4-30.6c0.4-0.3,3.7-0.5,7.3-0.5c5.2,0.1,6.6,0.3,7,1.3c0.3,0.7,1.1,5.2,1.9,10.1c0.8,4.9,1.6,9.1,1.8,9.3
		s3.2-2.6,6.6-6.3c3.4-3.7,7.8-8.3,9.7-10.4l3.5-3.8l7.2-0.1c3.9-0.1,7.2,0.1,7.2,0.4c0,0.3-2.6,7.3-5.8,15.7l-5.8,15.2h-4.3
		c-2.4,0-4.3-0.2-4.3-0.4s1.1-2.9,2.4-5.8c2.2-5,6.6-16.8,6.6-17.6c0-0.2-5.3,5.1-11.7,11.7l-11.7,12.1h-3.6h-3.6l-0.8-3.9
		c-0.4-2.2-1.3-7-2-10.7c-1.8-10.3-1.8-10.2-3.9-5.2c-1,2.4-3.1,7.8-4.6,11.9l-2.7,7.5l-4.3,0.2
		C147.3,239.7,145.4,239.6,145.4,239.4L145.4,239.4z M283,238.3c0.2-0.8,1.6-4.2,3-7.7c2.4-6.1,2.6-6.3,5.2-6.5
		c2.4-0.2,2.6-0.1,2.2,1.5l-0.4,1.7l1.8-1.7c1.5-1.4,2.5-1.6,5.9-1.5l4.1,0.2v3c0,2.9-0.1,3-2.7,3.2c-2.2,0.2-2.8-0.1-3.1-1.3
		c-0.5-2.1-3.7-2-6,0.1c-1,0.9-2.6,3.6-3.5,6c-1.6,4.1-1.8,4.3-4.3,4.3C283,239.7,282.6,239.5,283,238.3L283,238.3z M385,238.4
		c0.3-0.7,1.6-4.3,2.8-7.9c2.3-6.5,2.3-6.6,4.8-6.6c1.7,0,2.5,0.3,2.5,1.1c0,1.5,1.1,1.4,2.3,0c0.7-0.8,2.1-1.1,5.1-0.9
		c4.5,0.2,5.2,1,4.3,4.8c-0.4,1.5-0.9,1.8-3,1.8c-1.9,0-2.6-0.4-2.9-1.5c-0.5-1.8-3.2-2-5.5-0.4c-0.9,0.6-2.5,3.3-3.7,6
		c-2,4.7-2.2,4.9-4.7,4.9C384.9,239.7,384.6,239.5,385,238.4L385,238.4z M439.1,239.1c-2.6-0.6-0.9-5.2,5.3-14.4
		c3.2-4.8,6.9-10,8.2-11.6c3.8-4.8,7.3-18.4,4.8-18.4c-0.4,0-1.5,1.1-2.4,2.4c-0.9,1.3-3.7,4.2-6.1,6.4c-4.1,3.6-4.8,4-7.6,3.8
		c-3-0.2-3.1-0.2-3.7-4c-1.1-6.2-0.9-6.1-5.6-1.7c-2.4,2.3-5.7,4.8-7.5,5.7c-7.1,3.6-14.2,0.9-16.8-6.4c-0.5-1.4-1.1-2.5-1.4-2.5
		s-1.4,1.2-2.5,2.6c-1.1,1.4-4.1,4.1-6.7,5.8c-4.1,2.8-5.1,3.2-8.9,3.2c-5.1,0-7.8-1.6-10-6.2c-0.8-1.7-1.7-3.3-2-3.6s-2.5,1-5,2.8
		c-4.2,3.1-4.8,3.3-7.6,2.8c-3.5-0.6-5-1.7-6.5-4.6c-0.6-1.2-1.4-2.1-1.8-2.1s-2.6,1.8-5,4c-5.9,5.4-9.8,8-12.2,8
		c-2.4,0-4.5-2.1-4.5-4.3c0-2.6-1.1-2.5-4.2,0.5c-5.1,4.9-10.3,7.7-14,7.4c-2.9-0.2-3.2-0.5-3.5-2.2c-0.1-1.1,0.3-3,0.8-4.1
		c0.6-1.2,1.3-3.6,1.6-5.4c1.2-7.5,0.4-10-3.6-11.1c-1.6-0.4-2.3-0.1-4,2c-5.2,6.1-9.1,10.1-12.7,12.8c-2.1,1.6-4.1,2.9-4.2,2.9
		c-1.9,0,0.6-7.1,3-8.5c2.3-1.3,0.7-2-5.3-2.2l-6.3-0.2l3.9-4.2c2.1-2.3,11.3-12.9,20.4-23.6c9.1-10.7,18-21.1,19.9-23.3
		c1.9-2.1,5.9-6.8,9-10.4l5.6-6.5h12.1c10.9,0,12.2,0.1,12.6,1.3c0.6,1.8,3.2,20.1,6.1,41.8c1.7,12.7,2.8,17.6,3.9,17.6
		c0.6,0,1-1.1,1-3.2c0-3.9,1.7-13.8,3.4-19.3c2-6.6,9.4-20.9,12.5-24.1c3.1-3.2,4.8-3.6,7.3-1.6c3.5,2.8,1.6,16.1-4.2,29.4
		c-2,4.6-6.5,13-8.8,16.4c-2.4,3.6-2.4,5.5,0.3,9.2c3.3,4.6,7.4,3.5,14.9-4.2c3.3-3.4,5.3-6,5-6.7c-0.7-1.9,1.1-11.9,3.4-19.1
		c4.4-13.6,10.3-24.3,14.8-26.7c2.7-1.4,5.3-0.1,6.2,3c1.4,5-1.7,19.2-6.2,28.5c-2.9,6.1-8.1,15.6-9,16.5c-1.2,1.2-0.8,4.6,1,7.2
		c2.1,3.1,5.5,3.7,8.7,1.7c2.8-1.8,11-9.7,14.2-13.7c2.9-3.6,5.5-4.9,7.6-3.8c2.1,1.1,2.2,2.3,1.1,7.5c-1.9,8.2-1.4,8.6,4.2,3
		c2.7-2.7,6.7-7,9-9.6c4.2-4.8,6.2-5.9,9-5c1.7,0.6,2.1,3.5,0.8,7.5c-1.5,4.7-3,11.2-2.7,11.5c0.2,0.2,2-1.2,4-3
		c7.7-6.6,9.8-7.8,10.9-6c1,1.6-5.9,10.3-12.8,16c-3.2,2.7-8.3,9.6-12.6,17.2c-3.6,6.4-10,15.6-12,17.2
		C444.4,238.6,440.9,239.5,439.1,239.1L439.1,239.1z M330.2,198.4c9.3-8.8,11-10.4,11-11c0-0.9-15.9-1.2-17.1-0.3
		c-0.8,0.5-0.8,1-0.1,2.4c0.9,1.7,0.7,6.1-0.5,12.7c-0.5,2.5-0.4,2.6,0.9,1.5C325.1,203.1,327.8,200.7,330.2,198.4L330.2,198.4z
		 M349.7,195.8c2.5-1.9,3.5-3.2,3.5-4.5c0-1-0.3-1.8-0.6-1.8c-0.8,0-7.6,7.4-7.6,8.3C344.9,199,346.1,198.5,349.7,195.8L349.7,195.8
		z M387.3,175.7c1-2,1.8-4.2,1.8-4.9s0.3-1.6,0.6-2c0.8-0.8,2.6-7.9,2.1-8.3c-1.1-1.1-8.7,14.6-9.2,18.8
		C382.3,183.5,384.1,182.1,387.3,175.7L387.3,175.7z M416.5,176.4c3.1-5.7,6.6-15.9,5.9-17.2c-0.4-0.8-3.2,1.7-3.2,2.8
		c0,0.5-1.4,3.9-3,7.8c-1.6,3.8-3,8-3,9.3C413.2,181.9,413.7,181.5,416.5,176.4L416.5,176.4z M350.9,172.1c0-2.5-3.3-24.6-3.8-25.4
		c-0.7-1.1-0.9-0.8-13.7,14.7c-4.8,5.8-8.7,10.8-8.7,11.1s5.9,0.6,13.1,0.6C347.3,172.9,350.9,172.7,350.9,172.1L350.9,172.1z
		 M25.2,212.3l1.1-3.4h61.4h61.4l-0.6,2.1c-0.3,1.1-0.9,2.7-1.2,3.4c-0.5,1.2-4.2,1.3-61.9,1.3H24L25.2,212.3z M216.6,213.6
		c1-3.5,1.7-4.7,2.4-4.7c0.4,0,11.1,0,23.9,0s23.7,0,24.3,0c0.8,0,0.8,0.6-0.2,3.4l-1.2,3.4h-24.9H216L216.6,213.6z M29.9,198.8
		c0-0.2,0.5-1.7,1.2-3.2s3.5-9.5,6.3-17.8c5.5-16.1,12.6-36.7,14.9-42.8l1.4-3.8h30c33.3,0,34.1,0.1,37.1,5c2.1,3.3,1.6,9-1.4,18.2
		c-3.3,10.1-5.9,15.2-9.7,19.3c-6.7,7.2-10.6,8.1-36.6,8.1H54l-0.9,2.8c-0.5,1.5-1.9,5.4-3.1,8.6l-2.2,5.8h-8.9
		C33.9,199.2,29.9,199,29.9,198.8L29.9,198.8z M95.2,164.3c2.8-1.6,4.6-4.8,6.1-10.4c0.8-3,0.7-3.5-0.5-4.9c-1.3-1.5-2.2-1.5-18-1.5
		H66.1l-1.3,3.6c-0.7,2-2.1,5.7-3.1,8.3c-3,7.6-4.2,7.1,14.5,6.8C91.1,165.8,92.8,165.7,95.2,164.3L95.2,164.3z M111,195.3
		c0.8-2.2,2.1-5.8,2.9-8.1s2.5-7.2,3.8-10.9s5-14.4,8.2-23.8c3.2-9.4,6.3-18,6.9-19.1l1-2.1l8.8-0.2c4.8-0.1,8.8,0.1,8.8,0.4
		c0,0.3-1.2,4-2.7,8.1s-5.9,16.8-9.7,28.1c-3.9,11.3-7.4,21.3-7.8,22.1c-0.4,0.8-1.3,3.3-2,5.4l-1.2,3.9h-9.2h-9.2L111,195.3z
		 M135.7,198.8c0-0.3,1.6-4.9,3.5-10.3s5.6-15.9,8.1-23.4c8-23.2,11.2-32.2,11.9-33.2c0.4-0.7,4.3-0.9,14.8-0.9h14.2l1.4,3.2
		c0.7,1.8,3.1,7.9,5.3,13.7s4.7,12.5,5.7,15s2.9,7.7,4.4,11.6c1.4,3.9,2.9,7.1,3.2,7.1c0.7,0,2.5-4.9,10.4-28.5
		c3-9.1,6.1-17.8,6.7-19.3l1.2-2.8h8.3c7.6,0,8.3,0.1,7.9,1.3c-1.4,4.6-10.4,30.8-11,32.1c-0.4,0.8-2.9,7.9-5.6,15.7
		c-2.7,7.8-5.3,15.3-5.8,16.7l-0.9,2.4h-14.7H190l-3.5-9.9c-2-5.5-3.9-10.8-4.3-11.8c-0.4-1-3-7.9-5.8-15.3
		c-2.7-7.4-5.3-13.4-5.7-13.5s-2.6,5.6-4.9,12.6c-2.3,7-6.1,18.3-8.4,25.1l-4.2,12.4l-8.7,0.2C139.6,199.1,135.7,199,135.7,198.8
		L135.7,198.8z M254.2,198.5c0-0.9,7.4-22.6,8.3-24.5c0.4-0.8,2.6-7.1,4.8-13.9l4-12.4l-13.3-0.4l-13.3-0.4l2.8-7.9l2.8-7.9
		l36.6-0.2c29.2-0.2,36.5,0,36.2,0.8c-0.2,0.5-1.5,4.2-2.8,8.3l-2.5,7.3h-13.9H290l-2.9,8.8c-1.6,4.8-3.7,10.8-4.6,13.3
		c-1,2.5-3.7,10.2-6,17.1l-4.3,12.6h-8.9C258.2,199.2,254.2,198.9,254.2,198.5L254.2,198.5z"/>
</g>
</svg>
