<svg width="96" height="16" viewBox="0 0 96 16" fill="none" xmlns="http://www.w3.org/2000/svg">
<path fill-rule="evenodd" clip-rule="evenodd" d="M94.8578 0.670795V3.53025C93.3913 2.97094 92.0858 2.68832 90.9431 2.68832C90.2664 2.68832 89.7275 2.81491 89.3222 3.05964C88.9169 3.30649 88.7101 3.61049 88.7101 3.96932C88.7101 4.44608 89.1675 4.87033 90.0887 5.25012L92.7501 6.55865C94.9016 7.59472 95.9691 8.97079 95.9691 10.6991C95.9691 12.1362 95.4031 13.2821 94.2604 14.1304C93.126 14.9874 91.599 15.4114 89.6981 15.4114C88.8207 15.4114 88.0332 15.3735 87.3335 15.2933C86.6336 15.2173 85.8295 15.061 84.9374 14.8375V11.8451C86.573 12.4042 88.0625 12.687 89.4035 12.687C91.0037 12.687 91.7995 12.2185 91.7995 11.273C91.7995 10.8024 91.4737 10.4226 90.8115 10.125L87.8557 8.85244C86.7652 8.35452 85.9548 7.75096 85.4242 7.03562C84.902 6.31392 84.6367 5.48659 84.6367 4.54113C84.6367 3.21799 85.1881 2.15229 86.2786 1.34189C87.3773 0.537846 88.8354 0.134766 90.6487 0.134766C91.2377 0.134766 91.9167 0.187479 92.6686 0.284651C93.427 0.387961 94.156 0.514559 94.8578 0.670795Z" fill="white"/>
<path fill-rule="evenodd" clip-rule="evenodd" d="M11.1388 0.670795V3.53025C9.67236 2.97094 8.36893 2.68832 7.22622 2.68832C6.54726 2.68832 6.01059 2.81491 5.6053 3.05964C5.20002 3.30649 4.99319 3.61049 4.99319 3.96932C4.99319 4.44608 5.45694 4.87033 6.37815 5.25012L9.0395 6.55865C11.1826 7.59472 12.2522 8.97079 12.2522 10.6991C12.2522 12.1362 11.6841 13.2821 10.5498 14.1304C9.40707 14.9874 7.88841 15.4114 5.98125 15.4114C5.10384 15.4114 4.31423 15.3735 3.61452 15.2933C2.91461 15.2173 2.11871 15.061 1.22056 14.8375V11.8451C2.86243 12.4042 4.35195 12.687 5.68452 12.687C7.28468 12.687 8.08058 12.2185 8.08058 11.273C8.08058 10.8024 7.75681 10.4226 7.1009 10.125L4.14512 8.85244C3.04621 8.35452 2.23586 7.75096 1.71364 7.03562C1.18284 6.31392 0.923828 5.48659 0.923828 4.54113C0.923828 3.21799 1.47119 2.15229 2.568 1.34189C3.65832 0.537846 5.11851 0.134766 6.93179 0.134766C7.52714 0.134766 8.19772 0.187479 8.95799 0.284651C9.71008 0.387961 10.4391 0.514559 11.1388 0.670795Z" fill="white"/>
<path d="M14.1868 0.401367H18.5215V15.1422H14.1868V0.401367Z" fill="white"/>
<path fill-rule="evenodd" clip-rule="evenodd" d="M32.6185 15.1422H21.875V0.401367H32.4869V3.12597H26.0466V6.39487H31.6325V8.85125H26.0466V12.2827H32.6185V15.1422Z" fill="white"/>
<path fill-rule="evenodd" clip-rule="evenodd" d="M35.0156 15.1422V0.401367H40.3069L43.9186 9.42517L47.6975 0.401367H52.7235V15.1422H48.677V5.41976L44.4785 15.2772H41.9802L37.9423 5.41976V15.1422H35.0156Z" fill="white"/>
<path fill-rule="evenodd" clip-rule="evenodd" d="M66.8136 15.1422H56.0703V0.401367H66.682V3.12597H60.2769V6.39487H65.8629V8.85125H60.2769V12.2827H66.8136V15.1422Z" fill="white"/>
<path fill-rule="evenodd" clip-rule="evenodd" d="M81.8889 15.1422H77.2913L72.1318 5.68778V15.1422H69.207V0.401367H73.9388L78.9646 9.6934V0.401367H81.8889V15.1422Z" fill="white"/>
</svg>
