<svg width="134" height="23" viewBox="0 0 134 23" fill="none" xmlns="http://www.w3.org/2000/svg">
<path fill-rule="evenodd" clip-rule="evenodd" d="M131.765 1.56178V5.54317C129.723 4.7644 127.905 4.37089 126.314 4.37089C125.372 4.37089 124.622 4.54716 124.057 4.88791C123.493 5.23161 123.205 5.65489 123.205 6.15452C123.205 6.81833 123.842 7.40904 125.125 7.93785L128.83 9.7598C131.826 11.2024 133.312 13.1184 133.312 15.5248C133.312 17.5257 132.524 19.1213 130.933 20.3024C129.354 21.4956 127.228 22.086 124.581 22.086C123.359 22.086 122.263 22.0332 121.288 21.9215C120.314 21.8157 119.194 21.5982 117.952 21.2869V17.1204C120.23 17.8989 122.304 18.2927 124.171 18.2927C126.399 18.2927 127.507 17.6404 127.507 16.3239C127.507 15.6687 127.053 15.1399 126.131 14.7254L122.016 12.9536C120.497 12.2603 119.369 11.4199 118.63 10.4239C117.903 9.41905 117.534 8.2671 117.534 6.95068C117.534 5.1084 118.301 3.62455 119.82 2.49618C121.349 1.37666 123.38 0.81543 125.904 0.81543C126.725 0.81543 127.67 0.888826 128.717 1.02412C129.773 1.16797 130.788 1.34424 131.765 1.56178Z" fill="white"/>
<path fill-rule="evenodd" clip-rule="evenodd" d="M15.1996 1.56178V5.54317C13.1578 4.7644 11.3429 4.37089 9.75184 4.37089C8.80649 4.37089 8.05925 4.54716 7.49495 4.88791C6.93065 5.23161 6.64267 5.65489 6.64267 6.15452C6.64267 6.81833 7.28837 7.40904 8.57102 7.93785L12.2766 9.7598C15.2606 11.2024 16.7498 13.1184 16.7498 15.5248C16.7498 17.5257 15.9588 19.1213 14.3794 20.3024C12.7884 21.4956 10.6739 22.086 8.0184 22.086C6.79673 22.086 5.69731 22.0332 4.72307 21.9215C3.74853 21.8157 2.64036 21.5982 1.38981 21.2869V17.1204C3.67588 17.8989 5.74983 18.2927 7.60524 18.2927C9.83325 18.2927 10.9414 17.6404 10.9414 16.3239C10.9414 15.6687 10.4906 15.1399 9.57736 14.7254L5.46185 12.9536C3.93177 12.2603 2.80347 11.4199 2.07636 10.4239C1.33729 9.41905 0.976654 8.2671 0.976654 6.95068C0.976654 5.1084 1.73877 3.62455 3.26593 2.49618C4.78405 1.37666 6.81715 0.81543 9.3419 0.81543C10.1708 0.81543 11.1045 0.888826 12.1631 1.02412C13.2103 1.16797 14.2254 1.34424 15.1996 1.56178Z" fill="white"/>
<path d="M19.4453 1.18823H25.4807V21.7128H19.4453V1.18823Z" fill="white"/>
<path fill-rule="evenodd" clip-rule="evenodd" d="M45.108 21.7128H30.1491V1.18823H44.9247V4.98187H35.9575V9.53334H43.7351V12.9535H35.9575V17.7314H45.108V21.7128Z" fill="white"/>
<path fill-rule="evenodd" clip-rule="evenodd" d="M48.4435 21.7128V1.18823H55.8109L60.8397 13.7526L66.1013 1.18823H73.0993V21.7128H67.4651V8.17565L61.6193 21.9008H58.1407L52.5185 8.17565V21.7128H48.4435Z" fill="white"/>
<path fill-rule="evenodd" clip-rule="evenodd" d="M92.7185 21.7128H77.76V1.18823H92.5353V4.98187H83.6171V9.53334H91.3947V12.9535H83.6171V17.7314H92.7185V21.7128Z" fill="white"/>
<path fill-rule="evenodd" clip-rule="evenodd" d="M113.711 21.7128H107.309L100.125 8.54882V21.7128H96.0528V1.18823H102.641L109.639 14.1261V1.18823H113.711V21.7128Z" fill="white"/>
</svg>
