<svg width="90" height="22" viewBox="0 0 90 22" fill="none" xmlns="http://www.w3.org/2000/svg">
<path d="M3.40086 10.6171C2.98607 10.6171 2.65429 10.2023 2.65429 9.78756V0.746557C2.65429 0.414779 2.98607 0 3.40086 0H23.0597C23.3915 0 23.8063 0.414779 23.8063 0.746557V4.47912C23.8063 4.8939 23.3915 5.30845 23.0597 5.30845H16.6728C16.258 5.30845 15.8432 4.8939 15.8432 4.47912V3.152C15.8432 2.903 15.5944 2.65422 15.3454 2.65422H11.1152C10.8662 2.65422 10.5344 2.903 10.5344 3.152V7.38212C10.5344 7.63112 10.8662 7.9629 11.1152 7.9629H25.6312C26.2118 7.9629 26.4606 8.21168 26.4606 8.70946V20.4049C26.4606 20.8197 26.046 21.1515 25.6312 21.1515H0.746575C0.331786 21.1515 0 20.8197 0 20.4049V14.0179C0 13.6031 0.331786 13.2713 0.746575 13.2713H7.13351C7.5483 13.2713 7.88009 13.6031 7.88009 14.0179V17.9995C7.88009 18.2482 8.21188 18.497 8.46066 18.497H17.9999C18.2487 18.497 18.4975 18.2482 18.4975 17.9995V11.1149C18.4975 10.8659 18.2487 10.6171 17.9999 10.6171H3.40086Z" fill="white"/>
<path d="M31.7725 8.46143V12.6918C31.7725 12.9405 31.5237 13.1066 31.1919 13.2723C30.6941 13.3553 30.4453 13.6041 30.4453 14.0189V20.4059C30.4453 20.8204 30.7771 21.1522 31.1919 21.1522H38.9062C39.3208 21.1522 39.6525 20.8204 39.6525 20.4059V13.3553C39.6525 13.2723 39.8186 13.1893 39.9016 13.2723L47.4499 20.9865C47.6156 21.1522 47.6986 21.1522 47.9474 21.1522H57.4037C57.8185 21.1522 58.2332 20.8204 58.2332 20.4059V14.0189C58.2332 13.6041 57.8185 13.2723 57.4037 13.2723H50.5189C50.3532 13.2723 50.2701 13.2723 50.1871 13.1066L45.0444 8.04665C45.0444 7.96365 44.9613 7.96365 45.0444 7.88088L47.5329 5.39243C47.6156 5.30943 47.6986 5.30943 47.8646 5.30943H54.8324C55.1642 5.30943 55.579 4.89465 55.579 4.48009V0.747307C55.579 0.415529 55.1642 0.000976562 54.8324 0.000976562H47.9474C47.6986 0.000976562 47.6156 0.083751 47.4499 0.249753L39.9843 7.88088C39.8186 7.96365 39.6525 7.96365 39.6525 7.79787V0.747307C39.6525 0.415529 39.3208 0.000976562 38.9062 0.000976562H31.1919C30.7771 0.000976562 30.4453 0.415529 30.4453 0.747307V7.13432C30.4453 7.5491 30.6941 7.79787 31.1089 7.88088C31.6065 8.04665 31.7725 8.21265 31.7725 8.46143Z" fill="white"/>
<path d="M62.2129 20.4059C62.2129 20.8207 62.6277 21.1524 63.0425 21.1524H70.6735C71.0883 21.1524 71.5031 20.8207 71.5031 20.4059V14.1019C71.5031 13.6871 71.2543 13.3553 70.7566 13.2723C70.3418 13.1065 70.176 13.0235 70.176 12.6918V11.1159C70.176 10.8669 70.4248 10.6181 70.6735 10.6181H73.5768C73.9086 10.6181 74.1574 10.8669 74.1574 11.1159C74.1574 11.5307 74.5722 11.9452 74.904 11.9452H81.2912C81.7059 11.9452 82.1205 11.5307 82.1205 11.1159V7.38332C82.1205 6.96854 81.7059 6.63676 81.2912 6.63676H74.904C74.5722 6.63676 74.1574 6.96854 74.1574 7.38332C74.1574 7.6321 73.9086 7.96388 73.5768 7.96388H70.6735C70.4248 7.96388 70.176 7.6321 70.176 7.38332V3.15298C70.176 2.90398 70.4248 2.6552 70.6735 2.6552H78.8856C79.1344 2.6552 79.4662 2.90398 79.4662 3.15298V4.48009C79.4662 4.89487 79.798 5.30942 80.2128 5.30942H89.2542C89.669 5.30942 90.0008 4.89487 90.0008 4.48009V0.747534C90.0008 0.415756 89.669 0.000976562 89.2542 0.000976562H63.0425C62.6277 0.000976562 62.2129 0.415756 62.2129 0.747534V7.13432C62.2129 7.5491 62.5447 7.79787 62.9595 7.88087C63.2913 7.96388 63.54 8.21265 63.54 8.46143V12.6918C63.54 12.9405 63.3743 13.1895 62.9595 13.2723C62.4617 13.3553 62.2129 13.6041 62.2129 14.0189V20.4059Z" fill="white"/>
</svg>
