<svg width="111" height="54" viewBox="0 0 111 54" fill="none" xmlns="http://www.w3.org/2000/svg">
<path d="M74.0708 51.0097C73.8421 50.9921 73.6263 50.9921 73.4149 50.9571C73.2811 50.9352 73.143 50.8782 73.0265 50.8037C72.7675 50.6328 72.336 50.7993 72.2669 51.1061C72.1936 51.4392 72.1159 51.7722 72.0468 52.1053C71.9735 52.4515 72.1029 52.6312 72.4525 52.6707C72.5388 52.6794 72.6381 52.675 72.7028 52.7189C72.7891 52.7758 72.8581 52.8723 72.9099 52.9643C72.9531 53.0344 72.9445 53.1352 72.9833 53.2097C73.1387 53.5033 73.0135 53.7575 72.6812 53.7575C72.2238 53.7575 71.762 53.7268 71.3046 53.7049C70.7047 53.6699 70.1006 53.6217 69.5007 53.5954C69.095 53.5778 68.944 53.3762 69.0692 52.9862C69.1166 52.8416 69.1468 52.6926 69.1857 52.5436C69.2418 52.3376 69.3453 52.2938 69.505 52.434C69.6776 52.5786 69.8071 52.5523 69.9754 52.4121C70.2214 52.2061 70.3509 51.9695 70.3983 51.6408C70.4803 51.1192 70.6357 50.6065 70.7522 50.0893C70.8299 49.7475 70.9032 49.4057 70.9723 49.0638C71.0802 48.5511 71.1837 48.0383 71.2916 47.5256C71.365 47.1837 71.447 46.8463 71.5117 46.5C71.5678 46.2108 71.5031 46.1363 71.2226 46.1012C70.9982 46.0749 70.9378 45.9873 70.9852 45.7638C71.0241 45.5841 71.0629 45.4088 71.1104 45.2335C71.1492 45.0801 71.27 44.9837 71.4168 45.0187C71.9131 45.1327 72.3446 44.896 72.7934 44.7689C72.9315 44.7295 73.0696 44.6725 73.2077 44.6638C73.5098 44.6375 73.5832 44.7207 73.5573 45.0231C73.5529 45.0976 73.5227 45.1678 73.5314 45.2379C73.54 45.3036 73.5659 45.3869 73.6134 45.4176C73.6436 45.4395 73.7342 45.4088 73.786 45.3781C74.1399 45.1853 74.4722 44.9442 74.839 44.804C75.8661 44.4183 76.9622 44.6813 77.5836 45.6717C77.8339 46.0749 77.9634 46.5351 77.9591 47.0216C77.9547 47.3503 77.972 47.6833 77.9116 48.0033C77.8468 48.3363 77.726 48.665 77.5836 48.9762C77.4498 49.2698 77.3031 49.5722 77.0916 49.8001C76.8327 50.0762 76.5134 50.3216 76.1811 50.5013C75.8272 50.6941 75.4345 50.8344 75.0418 50.9308C74.7268 51.0053 74.3858 50.9878 74.0708 51.0097ZM76.043 47.0829C76.0214 46.8813 76.0128 46.706 75.9783 46.5395C75.8704 46.0311 75.4777 45.9053 75.154 45.904C74.6607 45.9023 74.4217 45.95 73.7536 46.8033C73.0614 47.6877 72.9186 48.431 72.7762 48.7641C72.6208 49.1234 72.7028 49.5328 73.0308 49.7256C73.458 49.9754 73.8766 50.0368 74.3556 49.7913C75.4647 49.2085 75.9308 48.2574 76.043 47.0829Z" fill="white"/>
<path d="M54.0849 50.3081C53.8087 50.5009 53.5411 50.685 53.2736 50.8691C53.2218 50.9041 53.1614 50.9436 53.1053 50.9567C52.1947 51.1057 51.3489 50.9699 50.68 50.2731C50.1535 49.7252 49.9852 49.0328 49.9981 48.2834C50.0068 47.7531 50.1017 47.236 50.3304 46.7583C50.749 45.8774 51.3618 45.2025 52.2983 44.8562C52.8722 44.6459 53.4505 44.5714 54.0331 44.7072C54.3827 44.7861 54.715 44.9658 55.0386 45.1367C55.2155 45.2331 55.358 45.22 55.4917 45.0973C55.8931 44.7204 56.3764 44.8256 56.8425 44.8519C56.9978 44.8606 57.0712 44.9833 57.0367 45.1542C56.9159 45.7678 56.808 46.3857 56.6785 46.9993C56.5318 47.7093 56.3764 48.4192 56.2167 49.1248C56.0959 49.6683 55.9319 50.2029 55.837 50.7551C55.7593 51.1802 55.591 51.5615 55.44 51.9603C55.1594 52.6966 54.5553 53.0209 53.9036 53.2839C53.4289 53.4767 52.9327 53.6476 52.4321 53.7353C51.556 53.8887 50.7274 53.6739 49.9809 53.1962C49.5752 52.9376 49.3163 52.5607 49.3637 52.0305C49.394 51.7018 49.5752 51.5615 49.8946 51.5966C50.3088 51.6448 50.6282 51.8376 50.8785 52.1576C51.4179 52.8368 52.117 52.7799 52.7514 52.4161C53.3081 52.0962 53.6145 51.5571 53.8864 51.0006C53.9252 50.9217 53.9727 50.8516 54.0202 50.7771C54.1108 50.6149 54.1626 50.4615 54.0849 50.3081ZM51.8624 48.6822C51.8797 48.8356 51.884 48.989 51.9142 49.138C52.0264 49.6902 52.6478 49.9181 53.0923 49.5719C53.2391 49.4579 53.3987 49.3527 53.5411 49.23C54.2661 48.5902 54.7236 47.8013 54.8617 46.8284C54.8789 46.6925 54.9091 46.5567 54.9523 46.4252C55.0127 46.2455 54.9782 46.1053 54.8401 45.9738C54.4345 45.5662 53.7742 45.5268 53.2865 45.9387C53.0103 46.171 52.7687 46.4602 52.5486 46.7539C52.1213 47.3148 51.8624 47.9503 51.8624 48.6822Z" fill="white"/>
<path d="M66.9374 50.4574C66.7302 50.6108 66.5749 50.7291 66.4066 50.8387C66.3203 50.8956 66.221 50.9658 66.1218 50.9745C65.5392 51.0052 64.9566 51.0271 64.4301 50.694C64.0158 50.4311 63.731 50.0629 63.7439 49.5546C63.7526 49.1163 63.8302 48.6737 63.9079 48.2354C64.0115 47.6394 64.1539 47.0521 64.2532 46.4561C64.3093 46.1406 64.223 46.0617 63.9122 46.0573C63.7051 46.0529 63.4936 46.0617 63.2865 46.0573C63.1139 46.0529 63.0189 45.9521 63.0578 45.79C63.1225 45.5445 63.2088 45.3079 63.3081 45.0756C63.3296 45.023 63.4591 44.966 63.4936 44.9836C63.7785 45.1633 64.0719 45.0668 64.3524 45.0055C64.7451 44.9178 65.1292 44.7864 65.5176 44.6943C65.7032 44.6505 65.9017 44.6461 66.0915 44.6417C66.2512 44.6374 66.3246 44.7338 66.316 44.8959C66.3116 44.9485 66.3073 44.9967 66.2987 45.0493C66.1563 45.7242 66.0139 46.3991 65.8628 47.0741C65.7334 47.6482 65.5953 48.2179 65.4658 48.7876C65.4356 48.9147 65.414 49.0462 65.3925 49.1733C65.3666 49.3574 65.3752 49.537 65.5564 49.6335C65.7377 49.7299 65.9448 49.7343 66.1088 49.6028C66.7907 49.0462 67.4164 48.437 67.6797 47.5517C67.917 46.7497 68.1328 45.9434 68.3572 45.1414C68.3917 45.023 68.4219 44.9003 68.4866 44.7995C68.5686 44.6812 68.6809 44.6111 68.8276 44.7469C68.888 44.7995 69.0002 44.8127 69.0865 44.817C69.3152 44.8258 69.5483 44.8127 69.777 44.8258C70.01 44.839 70.0834 44.9398 70.0359 45.1676C69.8849 45.8557 69.7209 46.5438 69.5698 47.2318C69.4576 47.749 69.3627 48.2705 69.2462 48.7876C69.1426 49.2478 69.0175 49.6992 68.9053 50.155C68.8966 50.1813 68.888 50.212 68.8794 50.2382C68.7844 50.659 68.7326 51.0972 68.5816 51.5004C68.3442 52.1403 67.9904 52.6881 67.3474 53.0299C66.8381 53.3016 66.3116 53.4901 65.7679 53.6347C65.099 53.8188 64.4171 53.8144 63.7482 53.5997C63.2994 53.455 62.8636 53.2885 62.5442 52.916C62.3414 52.6837 62.1774 52.4251 62.1817 52.0964C62.186 51.7064 62.4104 51.5267 62.7859 51.5705C63.1527 51.61 63.4332 51.7765 63.6792 52.0439C63.8302 52.206 63.9856 52.3857 64.1755 52.4865C64.8487 52.8502 65.4442 52.6004 65.988 52.1753C66.3289 51.9124 66.5792 51.5662 66.7173 51.141C66.7734 50.9701 66.864 50.8167 66.9288 50.6502C66.9503 50.6195 66.9374 50.5626 66.9374 50.4574Z" fill="white"/>
<path d="M84.1059 49.4016C84.2009 48.8582 84.3001 48.3148 84.3908 47.767C84.4684 47.2936 84.5504 46.8203 84.6108 46.3426C84.6454 46.0534 84.3994 45.8956 84.1102 45.9701C83.4716 46.141 83.0379 46.3457 82.6055 46.876C82.3957 47.1332 81.9318 48.228 81.8632 48.3726C81.729 48.6443 81.6936 48.8056 81.5857 49.0905C81.4735 49.3929 81.3656 49.704 81.2534 50.0064C81.1973 50.1511 81.1973 50.2606 81.3181 50.3789C81.3786 50.4359 81.4217 50.5762 81.3915 50.6419C81.357 50.7208 81.2405 50.8084 81.1498 50.8128C80.96 50.8303 80.7657 50.7997 80.5715 50.7865C80.2867 50.769 79.9976 50.7515 79.7128 50.7252C79.4452 50.7033 79.3805 50.6025 79.4366 50.3395C79.5445 49.8267 79.6351 49.3096 79.7473 48.7968C79.8595 48.2797 79.9933 47.7626 80.1184 47.2454C80.222 46.8159 80.3299 46.3821 80.4291 45.9482C80.5802 45.2733 80.7226 44.5984 80.865 43.9191C80.8823 43.849 80.8952 43.7745 80.9038 43.7043C80.947 43.3318 80.9039 43.2836 80.5457 43.2661C80.4939 43.2617 80.4464 43.2617 80.3946 43.2529C80.1314 43.2223 80.0925 43.1609 80.1486 42.8979C80.1788 42.7533 80.2134 42.6131 80.2349 42.4685C80.2695 42.2712 80.3774 42.2187 80.5715 42.2274C80.8046 42.2406 81.0419 42.2362 81.2663 42.188C81.672 42.1003 82.069 41.9601 82.4747 41.8768C82.8847 41.7935 83.0012 41.925 82.9149 42.3326C82.8156 42.8103 82.6948 43.2792 82.5912 43.7569C82.492 44.2127 82.397 44.6641 82.3064 45.1199C82.2891 45.1988 82.2805 45.282 82.2891 45.3566C82.2978 45.4135 82.3452 45.4617 82.3754 45.5143C82.4143 45.4793 82.4617 45.4486 82.4963 45.4048C82.6171 45.2514 82.7535 45.0419 83.1104 44.9187C83.3391 44.8399 83.6355 44.7342 83.8772 44.6948C84.6497 44.5677 85.4006 44.5414 86.0134 45.1593C86.2766 45.4267 86.4492 45.751 86.419 46.1366C86.3888 46.4872 86.3112 46.8379 86.2551 47.1841C86.2378 47.2936 86.2205 47.3988 86.199 47.504C86.0695 48.0781 85.9443 48.6522 85.8062 49.222C85.7458 49.4674 85.7804 49.6427 85.94 49.7216C86.117 49.8092 86.3543 49.7347 86.4795 49.5419C86.5787 49.3841 86.7168 49.3622 86.8463 49.463C87.0577 49.6339 87.2649 49.8224 87.4332 50.0327C87.4763 50.0853 87.4116 50.2957 87.3382 50.3702C86.9283 50.7602 86.4924 51.0582 85.8667 50.9662C85.379 50.8961 84.9173 50.7997 84.5548 50.4403C84.2613 50.173 84.093 49.8311 84.1059 49.4016Z" fill="white"/>
<path d="M47.5695 51.0143C47.3624 50.9968 47.1552 50.9881 46.9481 50.9618C46.4907 50.9048 46.1497 50.655 45.9167 50.2562C45.7398 49.9494 45.6664 49.945 45.4032 50.1817C45.114 50.4402 44.8076 50.6725 44.5055 50.9135C44.4796 50.9355 44.4408 50.9486 44.4063 50.953C43.8496 51.0406 43.3145 51.0056 42.775 50.8127C41.6357 50.4052 41.1869 49.0071 41.3207 47.8063C41.3941 47.1446 41.6703 46.588 42.0587 46.0665C42.624 45.3127 43.3619 44.8437 44.2725 44.6772C44.9673 44.5501 45.6491 44.6334 46.2619 45.0366C46.5122 45.2031 46.7323 45.225 46.9869 45.0103C47.1207 44.9007 47.3235 44.8481 47.5005 44.8262C47.7335 44.7955 47.9752 44.8174 48.2125 44.8218C48.4369 44.8306 48.5232 44.9182 48.4758 45.1374C48.3636 45.6633 48.2341 46.1848 48.1046 46.7019C48.0313 47.0043 47.9407 47.3023 47.8673 47.6047C47.7249 48.1876 47.5868 48.7749 47.4487 49.3621C47.4142 49.5155 47.4271 49.6689 47.5868 49.7346C47.7767 49.8179 47.9579 49.7566 48.1003 49.6163C48.3463 49.3753 48.4758 49.384 48.7002 49.6558C48.7822 49.7566 48.8728 49.853 48.9677 49.9406C49.1663 50.1203 49.1835 50.2693 48.9764 50.4359C48.493 50.8347 48.2384 51.0538 47.5695 51.0143ZM45.2392 45.6194C45.0579 45.6896 44.7601 45.7378 44.553 45.9043C43.8668 46.4434 43.4051 47.1446 43.2368 48.0255C43.2066 48.1832 43.1764 48.341 43.1764 48.5032C43.1764 48.7179 43.172 48.9458 43.2238 49.1518C43.336 49.6032 43.8798 49.853 44.2509 49.6338C45.0752 49.1474 45.6535 48.4418 45.9555 47.5171C46.0893 47.1051 46.1756 46.6756 46.2749 46.2549C46.2878 46.1979 46.2576 46.1103 46.2188 46.0621C45.9901 45.7904 45.6793 45.6808 45.2392 45.6194Z" fill="white"/>
<path d="M31.5413 50.4225C31.1141 50.7906 30.6834 50.9922 29.7806 50.9922C29.1548 50.9922 28.706 50.6986 28.3867 50.1639C28.2572 49.9491 28.1925 49.9535 28.0069 50.1157C27.7135 50.3699 27.42 50.6197 27.1265 50.8695C27.0877 50.9002 27.0446 50.9308 26.9971 50.944C26.0477 51.1324 25.0724 50.9177 24.4596 50.142C23.9331 49.4758 23.8079 48.6957 23.9072 47.8718C23.9633 47.4029 24.0755 46.9383 24.3085 46.5176C24.6063 45.9742 25.012 45.5228 25.5298 45.1897C26.1469 44.7953 26.8158 44.5937 27.5538 44.6375C28.0026 44.6638 28.4083 44.804 28.7967 45.0232C29.2455 45.2774 29.1117 45.2817 29.526 45.0056C29.6684 44.9092 29.8496 44.8522 30.0222 44.826C30.2423 44.7953 30.4667 44.8128 30.6911 44.8216C31.0234 44.8303 31.0968 44.9355 31.0191 45.2642C30.9069 45.7156 30.8033 46.167 30.6868 46.6184C30.5617 47.1005 30.4279 47.5826 30.2984 48.0603C30.2941 48.0822 30.2855 48.0997 30.2812 48.1216C30.2035 48.4372 30.1258 48.7527 30.0525 49.0726C30.0309 49.1647 30.0136 49.2611 30.0136 49.3531C30.0093 49.4934 29.9575 49.6643 30.1345 49.7388C30.3243 49.8177 30.5056 49.7695 30.6523 49.6248C30.9199 49.3575 30.963 49.3531 31.222 49.6161C31.3428 49.7388 31.4679 49.8615 31.5888 49.9842C31.7053 50.1069 31.6923 50.2954 31.5413 50.4225ZM27.9077 45.5885C27.899 45.606 27.8904 45.6236 27.8818 45.6367C27.7825 45.6499 27.6789 45.6499 27.584 45.6718C27.0446 45.8164 26.695 46.2108 26.3843 46.6447C26.0779 47.0654 25.8837 47.5431 25.7499 48.0427C25.6377 48.4722 25.6032 48.9017 25.8362 49.3181C26.0477 49.695 26.5094 49.8133 26.8719 49.581C27.4373 49.2129 27.899 48.7615 28.2184 48.1435C28.5161 47.565 28.6888 46.9602 28.7923 46.3248C28.8182 46.1582 28.7794 46.0005 28.6327 45.9216C28.3996 45.7945 28.1493 45.6981 27.9077 45.5885Z" fill="white"/>
<path d="M37.4297 49.4012C37.4944 49.0375 37.5591 48.6737 37.6239 48.3056C37.6541 48.1391 37.6713 47.9725 37.7015 47.8104C37.7749 47.359 37.8655 46.9076 37.9216 46.4562C37.9389 46.3203 37.9173 46.1319 37.8353 46.0398C37.6972 45.8864 37.4987 45.8952 37.2959 45.9741C36.7219 46.1932 36.2856 46.741 36.0453 47.0057C35.6487 47.4427 35.3669 48.0514 35.2892 48.2267C35.1209 48.6255 34.9569 49.0287 34.8533 49.4495C34.7756 49.7738 34.6073 50.1068 34.8102 50.4618C34.9181 50.6547 34.7929 50.83 34.5685 50.8256C34.0722 50.8168 33.5803 50.7949 33.084 50.7598C32.8898 50.7467 32.8121 50.6152 32.8553 50.4224C33.0883 49.4012 33.33 48.3801 33.5587 47.359C33.632 47.0391 33.6881 46.7147 33.7442 46.3948C33.7831 46.1845 33.7184 46.0968 33.5112 46.0617C33.4681 46.053 33.4249 46.0574 33.3817 46.053C32.9718 46.0355 32.907 45.9434 33.0365 45.5534C33.084 45.4087 33.1314 45.2641 33.1832 45.1195C33.2264 45.0012 33.2868 44.9793 33.4163 45.0187C33.5457 45.0625 33.7011 45.0888 33.8349 45.0581C34.1931 44.9749 34.5383 44.8565 34.8922 44.7601C35.0777 44.7119 35.2676 44.6681 35.4575 44.6506C35.6258 44.633 35.7078 44.7382 35.6992 44.9091C35.6905 45.045 35.6603 45.1852 35.6646 45.3211C35.6689 45.5008 35.7509 45.5402 35.8977 45.4394C36.394 45.0844 36.9075 44.7645 37.5203 44.6725C38.2453 44.5629 38.9056 44.6812 39.3932 45.286C39.7514 45.7287 39.8463 46.2502 39.6824 46.8068C39.6694 46.855 39.6478 46.9032 39.6392 46.9514C39.5313 47.4642 39.4277 47.9725 39.3198 48.4853C39.2594 48.7702 39.1774 49.0506 39.1213 49.3355C39.0911 49.4933 39.0696 49.6642 39.2638 49.7518C39.4321 49.8264 39.6478 49.7431 39.7643 49.5634C39.8722 49.3969 40.0535 49.3618 40.2002 49.5064C40.3599 49.6642 40.5066 49.8351 40.649 50.006C40.7526 50.1331 40.7008 50.2646 40.6102 50.361C40.2218 50.7686 39.7946 51.0841 39.1818 50.979C38.8451 50.922 38.4999 50.922 38.1935 50.7204C37.7102 50.4136 37.4297 50.0017 37.4297 49.4012Z" fill="white"/>
<path d="M58.9043 49.41C58.9777 49.055 59.051 48.7001 59.1287 48.3451C59.2064 47.9901 59.2927 47.6351 59.3661 47.2801C59.5473 46.4211 59.7286 45.5578 59.9098 44.6944C59.9789 44.3657 60.0565 44.0414 60.1169 43.7127C60.1774 43.3665 60.1126 43.2964 59.7717 43.2832C59.5689 43.2745 59.3704 43.2657 59.1675 43.2526C59.0165 43.2438 58.9431 43.1605 58.9777 43.0027C59.0165 42.8318 59.051 42.6609 59.1201 42.5031C59.1934 42.3235 59.2582 42.1876 59.543 42.2884C59.7674 42.3673 60.0652 42.2709 60.3198 42.2139C60.7254 42.1219 61.1225 41.9904 61.5281 41.8983C62.1539 41.7581 62.2574 41.872 62.1236 42.5075C62.0503 42.8625 61.9942 43.2219 61.9122 43.5769C61.8086 44.0195 61.6878 44.4577 61.5756 44.9004C61.5583 44.9705 61.5411 45.0406 61.5281 45.1151C61.4289 45.6147 61.3425 46.1143 61.2303 46.6096C61.1311 47.061 61.0016 47.508 60.8937 47.9594C60.7858 48.4108 60.6823 48.8666 60.596 49.3224C60.5658 49.4758 60.514 49.6686 60.7254 49.7606C60.8765 49.8264 61.1225 49.7256 61.2347 49.5678C61.3598 49.3925 61.5411 49.3793 61.6878 49.5371C61.8173 49.673 61.9294 49.8307 62.0719 49.9491C62.2272 50.0806 62.2229 50.2164 62.1107 50.3435C61.7439 50.7511 61.3382 51.071 60.7384 50.9877C60.3716 50.9351 60.0004 50.9483 59.6638 50.7248C59.1934 50.4092 58.9259 50.0017 58.9043 49.41Z" fill="white"/>
<path fill-rule="evenodd" clip-rule="evenodd" d="M16.2129 22.2609C14.9988 21.6234 13.8797 20.9441 12.8637 20.2397C12.0129 18.6378 11.614 17.1153 11.9056 15.8521C12.0198 15.3577 12.2169 14.9058 12.4835 14.4937C11.4994 13.062 11.0926 11.6053 11.4089 10.2338C12.2897 6.41652 18.4033 4.43778 26.0273 5.09308C20.8846 5.23033 16.7991 7.41643 15.9996 10.8805C14.9372 15.4841 20.0898 20.6051 27.5087 22.3185C28.6778 22.5884 29.8334 22.7579 30.9547 22.8333L31.1127 23.3941C29.9252 23.3003 28.6574 23.1384 27.4633 22.8665C21.0676 21.3891 15.8407 18.4924 13.1678 15.3798C12.9855 15.6816 12.8528 16.0025 12.7745 16.3421C12.3351 18.2465 13.6806 20.3694 16.2129 22.2609Z" fill="white"/>
<path fill-rule="evenodd" clip-rule="evenodd" d="M30.0775 0.815701C29.9061 0.817018 29.7431 0.823602 29.5868 0.836767C29.1744 0.870667 28.7804 0.948343 28.4585 1.0925C28.1488 1.23107 27.7838 1.49108 27.6782 1.94824C27.6459 2.0901 27.6446 2.22603 27.6617 2.35275L27.6703 2.3906C27.6755 2.41824 27.6818 2.44754 27.6887 2.4742L28.4269 5.74807C26.7181 5.92745 25.1899 6.60974 24.2519 7.76927C21.2469 7.94502 18.4575 8.82282 16.9455 10.5165C16.879 10.6867 16.8316 10.8651 16.7905 11.0431C16.7118 11.3835 16.6733 11.73 16.671 12.0812C17.5343 10.192 20.1848 8.85178 23.7819 8.52429C23.6973 8.7198 23.6315 8.92353 23.5828 9.13483C22.9749 11.7689 25.5289 14.606 29.287 15.4742C29.287 15.4742 29.6605 15.5687 30.0315 15.623C30.3823 15.6747 30.7049 15.7092 30.7049 15.7092L30.6877 15.3212C30.2737 15.286 29.7984 15.1922 29.3768 15.0944C26.0944 14.3361 23.8556 11.8874 24.3776 9.62524C24.7568 7.98287 26.4729 6.87403 28.6494 6.68939L29.4232 10.1311C29.4232 10.1311 29.4561 10.3167 29.5828 10.5208C29.702 10.7137 29.9281 10.9556 30.3063 11.0431C30.6858 11.1307 30.9965 11.0119 31.189 10.8898C31.3674 10.7769 31.4737 10.6442 31.4974 10.6133L33.7599 7.81995C35.3798 8.57498 36.5272 9.91915 36.6477 11.2716C40.4656 13.3882 42.5309 16.2865 41.9888 18.6346C41.977 18.6862 41.9638 18.7363 41.949 18.7876C43.544 19.8082 44.1654 22.0022 43.7819 23.3866C42.9097 27.1666 35.1699 28.7241 26.6783 26.7628C13.7371 23.7733 4.45495 16.1842 5.92551 9.81219C6.78685 6.07917 11.1495 3.59028 17.2141 2.77009C8.09844 2.73125 1.41773 5.12634 0.435267 9.38234C-0.663046 14.1409 5.68887 19.9386 15.6688 24.0659C18.5276 27.3457 22.4815 30.3809 25.5434 31.6761C31.7749 32.0118 43.5193 28.2179 44.6294 23.4093C45.0553 21.5628 44.1769 19.7372 42.7106 18.1708C43.0055 15.3409 40.5113 12.6309 37.2138 10.7706C36.88 9.30927 35.7988 8.02006 34.3326 7.10705L36.4212 4.47926C36.4354 4.46248 36.4499 4.44438 36.463 4.42693L36.4884 4.39106C36.5614 4.28508 36.619 4.16165 36.6519 4.0198C36.7573 3.56296 36.5443 3.1713 36.3268 2.91029C36.1006 2.64008 35.7807 2.3985 35.4249 2.18686C34.7068 1.75965 33.7082 1.37654 32.5961 1.11982C31.6926 0.911151 30.8197 0.809448 30.0775 0.815701ZM30.0923 1.45948C30.7707 1.45356 31.5892 1.54703 32.4535 1.74649C34.5807 2.23821 36.1783 3.19006 36.0207 3.87301C35.8633 4.55628 34.0103 4.71065 31.8828 4.21925C29.756 3.72786 28.1603 2.77568 28.318 2.09273C28.4118 1.68724 29.101 1.46804 30.0923 1.45948Z" fill="white"/>
<path fill-rule="evenodd" clip-rule="evenodd" d="M50.5331 29.6503C50.4235 29.4551 50.2389 29.3452 50.0144 29.3452C49.7093 29.3452 49.4203 29.5404 49.4203 29.8669C49.4203 30.1476 49.629 30.2786 49.8591 30.3777L49.998 30.4363C50.1721 30.5087 50.3462 30.6022 50.3462 30.8187C50.3462 31.03 50.1908 31.212 49.9743 31.212C49.7577 31.212 49.581 31.0514 49.5836 30.8296L49.3298 30.8829C49.3726 31.2068 49.6264 31.4474 49.9529 31.4474C50.3136 31.4474 50.5973 31.1854 50.5973 30.8187C50.5973 30.482 50.3834 30.3241 50.097 30.2118L49.9529 30.1555C49.8272 30.1075 49.6721 30.0245 49.6721 29.8669C49.6721 29.6901 49.8482 29.5805 50.0088 29.5805C50.1616 29.5805 50.2577 29.6447 50.3327 29.7705L50.5331 29.6503Z" fill="white"/>
<path d="M51.474 29.3901H51.7255V31.4067H51.474V29.3901Z" fill="white"/>
<path fill-rule="evenodd" clip-rule="evenodd" d="M53.6688 31.4487L54.2731 30.074H54.2787L54.514 31.406H54.7733L54.3616 29.3035L53.6688 30.8925L52.9763 29.3035L52.5642 31.406H52.8239L53.0589 30.074H53.0642L53.6688 31.4487Z" fill="white"/>
<path fill-rule="evenodd" clip-rule="evenodd" d="M55.5767 29.3887V30.6644C55.5767 31.1084 55.8525 31.448 56.3149 31.448C56.7777 31.448 57.0532 31.1084 57.0532 30.6644V29.3887H56.8014V30.5788C56.8014 30.9076 56.703 31.2124 56.3149 31.2124C55.9272 31.2124 55.8282 30.9076 55.8282 30.5788V29.3887H55.5767Z" fill="white"/>
<path fill-rule="evenodd" clip-rule="evenodd" d="M58.2649 29.3892H58.0134V31.4057H58.8771V31.1757H58.2649V29.3892Z" fill="white"/>
<path fill-rule="evenodd" clip-rule="evenodd" d="M60.8705 30.8994L61.1006 31.4049H61.3708L60.4077 29.3027L59.445 31.4049H59.7152L59.9453 30.8994H60.8705ZM60.7662 30.6693H60.0493L60.4077 29.8537L60.7662 30.6693Z" fill="white"/>
<path fill-rule="evenodd" clip-rule="evenodd" d="M62.6954 29.6182H63.1739V29.3882H61.9654V29.6182H62.4439V31.4048H62.6954V29.6182Z" fill="white"/>
<path fill-rule="evenodd" clip-rule="evenodd" d="M63.9861 31.4053H65.0689V31.1752H64.2375V30.4129H65.0452V30.1829H64.2375V29.6187H65.0689V29.3887H63.9861V31.4053Z" fill="white"/>
<path fill-rule="evenodd" clip-rule="evenodd" d="M68.326 31.4487L68.9303 30.074H68.9359L69.1712 31.406H69.4306L69.0188 29.3035L68.326 30.8925L67.6332 29.3035L67.2214 31.406H67.4808L67.7161 30.074H67.7217L68.326 31.4487Z" fill="white"/>
<path fill-rule="evenodd" clip-rule="evenodd" d="M71.1842 29.3457C70.6066 29.3457 70.1277 29.819 70.1277 30.3969C70.1277 30.996 70.6013 31.4479 71.1842 31.4479C71.7674 31.4479 72.2407 30.996 72.2407 30.3969C72.2407 29.819 71.7618 29.3457 71.1842 29.3457ZM71.1842 31.2125C70.7484 31.2125 70.3791 30.8571 70.3791 30.3969C70.3791 29.953 70.7109 29.581 71.1842 29.581C71.6578 29.581 71.9893 29.953 71.9893 30.3969C71.9893 30.8571 71.6203 31.2125 71.1842 31.2125Z" fill="white"/>
<path fill-rule="evenodd" clip-rule="evenodd" d="M73.7175 30.5271C74.0091 30.4923 74.2013 30.2517 74.2013 29.963C74.2013 29.7701 74.1052 29.5802 73.9367 29.4812C73.7761 29.3903 73.5838 29.3877 73.4045 29.3877H73.0994V31.4043H73.3512V30.5512H73.4552L74.0489 31.4043H74.354L73.7175 30.5271ZM73.3512 29.6122H73.418C73.6665 29.6122 73.9663 29.6579 73.9663 29.9732C73.9663 30.2945 73.6879 30.3425 73.4315 30.3425H73.3512V29.6122Z" fill="white"/>
<path fill-rule="evenodd" clip-rule="evenodd" d="M75.1677 31.4053H76.2509V31.1752H75.4195V30.4129H76.2269V30.1829H75.4195V29.6187H76.2509V29.3887H75.1677V31.4053Z" fill="white"/>
<path fill-rule="evenodd" clip-rule="evenodd" d="M77.4166 31.0862L77.1224 31.8214L77.2693 31.8831L77.6248 31.1692L77.4166 31.0862Z" fill="white"/>
<path d="M79.9407 29.3901H80.1921V31.4067H79.9407V29.3901Z" fill="white"/>
<path fill-rule="evenodd" clip-rule="evenodd" d="M81.1588 31.4052H81.4105V29.902L82.9242 31.4881V29.3886H82.6724V30.8782L81.1588 29.2925V31.4052Z" fill="white"/>
<path fill-rule="evenodd" clip-rule="evenodd" d="M83.8718 31.4052H84.1236V29.902L85.6373 31.4881V29.3886H85.3855V30.8782L83.8718 29.2925V31.4052Z" fill="white"/>
<path fill-rule="evenodd" clip-rule="evenodd" d="M87.5237 29.3457C86.9461 29.3457 86.4675 29.819 86.4675 30.3969C86.4675 30.996 86.9408 31.4479 87.5237 31.4479C88.1069 31.4479 88.5806 30.996 88.5806 30.3969C88.5806 29.819 88.1013 29.3457 87.5237 29.3457ZM87.5237 31.2125C87.0879 31.2125 86.719 30.8571 86.719 30.3969C86.719 29.953 87.0508 29.581 87.5237 29.581C87.9973 29.581 88.3288 29.953 88.3288 30.3969C88.3288 30.8571 87.9598 31.2125 87.5237 31.2125Z" fill="white"/>
<path fill-rule="evenodd" clip-rule="evenodd" d="M89.502 29.3879H89.2265L90.1036 31.5112L90.9781 29.3879H90.7027L90.1036 30.8802L89.502 29.3879Z" fill="white"/>
<path fill-rule="evenodd" clip-rule="evenodd" d="M92.9741 30.8994L93.2041 31.4049H93.4743L92.5113 29.3027L91.5486 31.4049H91.8188L92.0485 30.8994H92.9741ZM92.8697 30.6693H92.1532L92.5113 29.8537L92.8697 30.6693Z" fill="white"/>
<path fill-rule="evenodd" clip-rule="evenodd" d="M94.8021 29.6182H95.281V29.3882H94.0721V29.6182H94.5506V31.4048H94.8021V29.6182Z" fill="white"/>
<path fill-rule="evenodd" clip-rule="evenodd" d="M96.0896 31.4053H97.1728V31.1752H96.3411V30.4129H97.1487V30.1829H96.3411V29.6187H97.1728V29.3887H96.0896V31.4053Z" fill="white"/>
<path fill-rule="evenodd" clip-rule="evenodd" d="M100.461 29.6182V29.3882H99.485V31.4048H99.7361V30.4151H100.437V30.185H99.7361V29.6182H100.461Z" fill="white"/>
<path fill-rule="evenodd" clip-rule="evenodd" d="M102.582 30.8994L102.813 31.4049H103.082L102.12 29.3027L101.157 31.4049H101.427L101.657 30.8994H102.582ZM102.478 30.6693H101.761L102.12 29.8537L102.478 30.6693Z" fill="white"/>
<path fill-rule="evenodd" clip-rule="evenodd" d="M104.961 29.6503C104.851 29.4551 104.666 29.3452 104.442 29.3452C104.137 29.3452 103.848 29.5404 103.848 29.8669C103.848 30.1476 104.057 30.2786 104.287 30.3777L104.426 30.4363C104.6 30.5087 104.773 30.6022 104.773 30.8187C104.773 31.03 104.618 31.212 104.402 31.212C104.185 31.212 104.009 31.0514 104.011 30.8296L103.757 30.8829C103.8 31.2068 104.054 31.4474 104.38 31.4474C104.741 31.4474 105.025 31.1854 105.025 30.8187C105.025 30.482 104.811 30.3241 104.525 30.2118L104.38 30.1555C104.255 30.1075 104.099 30.0245 104.099 29.8669C104.099 29.6901 104.276 29.5805 104.436 29.5805C104.589 29.5805 104.685 29.6447 104.76 29.7705L104.961 29.6503Z" fill="white"/>
<path fill-rule="evenodd" clip-rule="evenodd" d="M106.455 29.6182H106.934V29.3882H105.725V29.6182H106.204V31.4048H106.455V29.6182Z" fill="white"/>
<path fill-rule="evenodd" clip-rule="evenodd" d="M107.746 31.4053H108.829V31.1752H107.997V30.4129H108.805V30.1829H107.997V29.6187H108.829V29.3887H107.746V31.4053Z" fill="white"/>
<path fill-rule="evenodd" clip-rule="evenodd" d="M110.371 30.5271C110.663 30.4923 110.856 30.2517 110.856 29.963C110.856 29.7701 110.759 29.5802 110.591 29.4812C110.43 29.3903 110.238 29.3877 110.059 29.3877H109.754V31.4043H110.005V30.5512H110.11L110.703 31.4043H111.008L110.371 30.5271ZM110.005 29.6122H110.072C110.321 29.6122 110.621 29.6579 110.621 29.9732C110.621 30.2945 110.342 30.3425 110.085 30.3425H110.005V29.6122Z" fill="white"/>
<path fill-rule="evenodd" clip-rule="evenodd" d="M55.9246 14.6459C55.4194 14.5449 54.6446 14.3257 53.4153 14.3257C50.805 14.3257 49.155 15.6396 49.155 17.6437C49.155 19.4118 50.4515 20.439 51.7818 21.2473C53.1461 22.0725 54.51 22.6787 54.51 23.6556C54.51 24.4304 53.6678 24.7838 52.607 24.7838C51.4451 24.7838 50.3504 24.4304 49.3907 24.1101V26.2827C49.8116 26.4173 51.2263 26.889 52.7923 26.889C55.369 26.889 57.0361 25.4072 57.0361 23.3528C57.0361 21.0452 55.0659 20.0351 53.4828 19.1929C52.4723 18.637 51.6811 18.1485 51.6811 17.4077C51.6811 16.7511 52.5566 16.4311 53.5842 16.4311C54.611 16.4311 55.4362 16.6671 55.9246 16.8017V14.6459Z" fill="white"/>
<path fill-rule="evenodd" clip-rule="evenodd" d="M59.3547 26.6017H56.9129C56.9267 26.216 56.9432 25.8253 56.9583 25.432C57.3368 24.8405 57.5468 24.1372 57.5468 23.3515C57.5468 22.5422 57.3319 21.8701 56.9899 21.3053C56.9481 20.2235 56.7335 19.2176 56.4919 18.1309L58.631 17.9623C58.7653 18.3497 58.8159 18.7371 58.9338 19.2084C59.4893 18.5857 60.1295 17.7603 61.628 17.7603C63.144 17.7603 63.7167 18.7371 64.1041 19.3769C64.5079 18.8046 65.232 17.7603 66.9159 17.7603C69.4423 17.7603 69.8129 20.2192 69.8129 21.6842V23.7218C69.8129 24.3955 69.8804 25.6755 69.9814 26.6017H67.6235C67.5899 25.6416 67.5393 24.6819 67.5393 23.7218V22.6442C67.5393 20.859 67.4046 19.6129 66.0743 19.6129C64.5419 19.6129 64.5419 21.5328 64.5419 22.6442V23.7218C64.5419 24.3955 64.609 25.6755 64.71 26.6017H62.3521C62.3189 25.6416 62.2685 24.6819 62.2685 23.7218V22.0712C62.2685 20.6063 61.9483 19.6129 60.7526 19.6129C59.5739 19.6129 59.2705 20.6063 59.2705 22.6442V23.7218C59.2705 24.3955 59.3215 25.6588 59.3547 26.6017Z" fill="white"/>
<path fill-rule="evenodd" clip-rule="evenodd" d="M77.8913 26.6027H75.7861C75.7355 26.1478 75.6683 25.5923 75.6683 25.1545H75.6344C75.1127 25.8951 74.2705 26.8887 72.6206 26.8887C71.7253 26.8887 70.9482 26.555 70.4427 25.9668C70.3749 25.1598 70.3328 24.251 70.3328 23.7228V22.5004C71.094 21.3932 72.6531 20.7757 74.6075 20.7757C74.9103 20.7757 75.2138 20.7925 75.5166 20.8096C75.4494 19.9503 74.9781 19.3611 73.2601 19.3611C72.3675 19.3611 71.357 19.5968 70.9364 19.6811V18.0815C71.4245 17.9633 72.3171 17.7612 73.681 17.7612C77.5039 17.7612 77.622 19.8328 77.622 21.9379V23.6553C77.622 24.6829 77.7734 25.7772 77.8913 26.6027ZM75.5166 22.6113V22.325C75.197 22.2746 74.9274 22.2071 74.6075 22.2071C73.058 22.2071 72.0982 22.9651 72.0982 23.9588C72.0982 24.5815 72.6706 25.0364 73.4286 25.0364C74.8264 25.0364 75.5166 23.706 75.5166 22.6113Z" fill="white"/>
<path fill-rule="evenodd" clip-rule="evenodd" d="M80.6829 26.602C80.6494 25.659 80.599 24.3958 80.599 23.7221V22.6445C80.599 20.8925 80.599 19.6132 82.5017 19.6132C82.7377 19.6132 82.9566 19.6635 83.2093 19.6971L83.108 17.7773C82.9905 17.7605 82.8723 17.7605 82.7545 17.7605C81.7776 17.7605 80.7165 18.4513 80.3466 19.2594H80.3127C80.2452 18.7877 80.1777 18.35 80.0767 17.9626L77.8201 18.1311C78.0897 19.3433 78.3254 20.4548 78.3254 21.6844V23.7221C78.3254 24.6821 78.275 25.6587 78.2411 26.602H80.6829Z" fill="white"/>
<path fill-rule="evenodd" clip-rule="evenodd" d="M87.6337 24.987C87.4487 25.0209 87.2634 25.0373 87.0784 25.0373C85.832 25.0373 85.832 24.2458 85.832 23.05V19.6488H87.5326L87.6508 17.9646C86.8928 18.0485 86.3204 18.0485 85.832 18.0485V17.7622C85.832 17.4087 85.9159 16.2801 85.9834 15.5225L83.5583 16.3644V23.8752C83.5583 26.4691 85.3603 26.8897 86.4889 26.8897C86.8595 26.8897 87.162 26.8393 87.499 26.8054L87.6337 24.987Z" fill="white"/>
<path fill-rule="evenodd" clip-rule="evenodd" d="M92.656 26.6936C89.5513 25.963 87.8533 23.2588 87.8533 20.0175C87.8533 16.5988 90.0766 14.3252 93.9498 14.3252C94.6232 14.3252 95.2805 14.3927 95.9368 14.5444V16.6492C95.3137 16.5485 94.6739 16.4303 94.0337 16.4303C91.7772 16.4303 90.3797 17.8281 90.3797 20.2532C90.3797 22.4307 91.4619 24.1629 93.4742 24.6478C93.2375 25.2412 93.0025 25.8214 92.7682 26.4122L92.656 26.6936Z" fill="white"/>
<path d="M107.38 21.2315H106.997V19.3788H107.38C108.424 19.3788 109.435 19.3788 110.513 19.2946L110.428 21.3158C109.485 21.2483 108.778 21.2315 107.38 21.2315ZM106.488 16.4657V24.7509H107.38C108.879 24.7509 110.075 24.6163 110.85 24.4985L110.698 26.6036H101.714C101.326 25.526 100.804 23.8922 100.586 23.2356H97.4347L97.8936 21.6354H100.165C99.8446 20.5407 99.1877 18.3684 98.851 16.6003H98.8171C98.5123 17.9083 98.0637 19.3699 97.6885 20.5657L97.6513 20.6838C97.5427 21.0288 96.9081 23.2356 96.9081 23.2356C96.6448 24.0775 96.2071 25.7449 96.0215 26.6036H93.2429C93.7649 25.29 94.2873 24.0268 94.826 22.5619L95.6344 20.3053C96.19 18.7222 96.9141 16.7688 97.0994 14.9333L100.333 14.3267C100.552 15.556 101.259 17.8803 101.967 19.8673L102.758 22.1238C103.12 23.1662 103.528 24.1746 103.941 25.0945C103.955 24.64 103.962 24.1377 103.962 23.5048V18.0149C103.962 16.6678 103.844 15.6067 103.625 14.613H110.513L110.631 16.5496C109.772 16.4989 108.609 16.4657 107.38 16.4657H106.488Z" fill="white"/>
</svg>
