<svg width="115" height="35" viewBox="0 0 115 35" fill="none" xmlns="http://www.w3.org/2000/svg">
<path d="M9.62724 24.3596C5.63055 25.6769 1.96151 23.6491 0.528501 19.3154C-1.68224 12.6164 3.69914 9.52517 4.62489 9.22123C5.14181 9.0462 5.64884 9.33438 5.97797 9.84119L6.91337 11.1713C7.08541 11.4469 7.24216 11.6787 7.30667 11.8623C7.44053 12.2705 7.30426 12.6028 6.72305 12.9594C4.52622 14.3831 3.71892 16.1713 4.34084 18.0578C4.93032 19.8338 6.55515 20.6526 8.33154 20.0633C9.99869 19.5148 10.8014 18.3441 12.2274 14.4678L13.4573 11.105C14.4497 8.39345 15.9744 6.16772 18.8604 5.21448C22.7123 3.94303 26.2929 5.95888 27.6243 9.99494C29.1244 14.5353 26.2359 17.6458 24.759 18.7276C24.6625 18.8309 24.5332 18.9294 24.3683 19.0327C23.6369 19.5044 23.0625 20.0198 22.6374 20.5624L22.4244 20.3974L19.482 18.1137L19.1272 17.8383C20.0723 16.5633 21.2487 15.7841 21.9019 15.4553C21.9264 15.4336 21.9513 15.4121 21.9761 15.3907C23.6808 14.0885 24.2918 12.6998 23.7984 11.2176C23.3105 9.73953 21.8228 8.9581 20.2651 9.46962C18.8226 9.9486 17.896 11.1166 16.9881 13.5932L16.1436 15.8841C14.7909 19.6141 13.847 22.9638 9.62724 24.3596Z" fill="white"/>
<path d="M18.905 25.2144C18.1664 22.9818 18.2737 21.1494 18.7751 19.688L22.518 22.5927C22.4966 23.0388 22.5628 23.4921 22.7166 23.9525C23.3019 25.7295 24.9266 26.548 26.7035 25.9632C28.3703 25.4101 29.1735 24.2441 30.6036 20.3625L31.8336 16.9994C32.8264 14.2926 34.3501 12.0627 37.2364 11.1093C41.084 9.83833 44.6649 11.8588 46.0005 15.8897C47.8107 21.3686 43.2268 24.7704 42.4505 25.0284C41.9685 25.19 41.5246 24.9671 41.2187 24.5352L40.0534 22.8677C39.9674 22.7281 39.8679 22.5577 39.8314 22.4482C39.6835 22.0007 39.8597 21.6582 40.3526 21.2899C42.057 19.9876 42.663 18.5951 42.1749 17.1171C41.6864 15.6339 40.1944 14.8534 38.6418 15.3688C37.1983 15.8437 36.2719 17.0111 35.3641 19.4882L34.5194 21.7786C33.197 25.4228 32.2629 28.7031 28.2914 30.1493C28.1959 30.1889 28.0997 30.2236 27.9988 30.2548C27.9064 30.2847 27.8186 30.3144 27.7259 30.3394C23.8356 31.4837 20.302 29.4431 18.905 25.2144Z" fill="white"/>
<path d="M105.514 32.7767C105.207 32.7767 104.943 32.7188 104.726 32.6039C104.508 32.4881 104.342 32.3185 104.228 32.0954C104.113 31.8722 104.056 31.6032 104.056 31.2872V30.912C104.056 30.583 104.111 30.3017 104.221 30.0688C104.331 29.8359 104.49 29.6588 104.701 29.5373C104.909 29.416 105.162 29.3547 105.456 29.3547C105.734 29.3547 105.971 29.4247 106.168 29.5625C106.364 29.7014 106.514 29.9026 106.618 30.1651C106.721 30.4275 106.773 30.7435 106.773 31.1112V31.3288H104.531V30.8027H106.152C106.132 30.5315 106.062 30.3203 105.942 30.1705C105.821 30.0196 105.66 29.9442 105.456 29.9442C105.209 29.9442 105.016 30.0251 104.881 30.1881C104.745 30.3499 104.677 30.5796 104.677 30.8771V31.2992C104.677 31.5749 104.751 31.787 104.895 31.9335C105.04 32.0812 105.247 32.1556 105.514 32.1556C105.647 32.1556 105.778 32.1282 105.908 32.0746C106.038 32.022 106.155 31.9466 106.258 31.8503L106.686 32.2802C106.522 32.4377 106.338 32.5601 106.132 32.6466C105.928 32.7329 105.721 32.7767 105.514 32.7767ZM102.072 32.7767C101.866 32.7767 101.685 32.7275 101.531 32.6281C101.377 32.5284 101.264 32.3874 101.191 32.2058L101.236 31.5114C101.236 31.6546 101.262 31.7759 101.313 31.8767C101.365 31.9761 101.438 32.0538 101.535 32.1073C101.633 32.1599 101.751 32.1873 101.89 32.1873C102.105 32.1873 102.273 32.1217 102.392 31.9904C102.51 31.8592 102.569 31.6732 102.569 31.4338V30.7131C102.569 30.4702 102.51 30.2809 102.392 30.1465C102.273 30.0119 102.105 29.9442 101.89 29.9442C101.751 29.9442 101.633 29.9705 101.535 30.0207C101.438 30.0722 101.365 30.1476 101.313 30.2471C101.262 30.3467 101.236 30.4659 101.236 30.6049L101.169 29.9638C101.27 29.7693 101.401 29.6194 101.563 29.5133C101.726 29.4071 101.906 29.3547 102.104 29.3547C102.339 29.3547 102.541 29.4071 102.709 29.5133C102.876 29.6194 103.004 29.7735 103.092 29.9759C103.179 30.1794 103.223 30.4243 103.223 30.7096V31.4338C103.223 31.7159 103.178 31.9575 103.088 32.1589C102.999 32.3591 102.867 32.5121 102.694 32.6182C102.521 32.7243 102.314 32.7767 102.072 32.7767ZM100.583 29.4029H101.236V34.0804H100.583V29.4029ZM96.9487 30.7131C96.9487 30.4779 96.8908 30.2963 96.7759 30.1684C96.6599 30.0404 96.4971 29.9759 96.2861 29.9759C96.0717 29.9759 95.9077 30.0327 95.7906 30.1465C95.6747 30.2591 95.6156 30.4188 95.6156 30.6233L95.5489 29.9825C95.6517 29.7823 95.7851 29.6271 95.9514 29.5178C96.1165 29.4093 96.2992 29.3547 96.5004 29.3547C96.7333 29.3547 96.9323 29.4071 97.0964 29.5133C97.2604 29.6194 97.3862 29.7735 97.4726 29.9759C97.559 30.1794 97.6028 30.4243 97.6028 30.7096V32.7286H96.9487V30.7131ZM94.9628 29.4029H95.6156V32.7286H94.9628V29.4029ZM98.9359 30.7131C98.9359 30.4779 98.8746 30.2963 98.7532 30.1684C98.6309 30.0404 98.4602 29.9759 98.2402 29.9759C98.0368 29.9759 97.8805 30.0383 97.7691 30.1618C97.6585 30.2865 97.6028 30.4614 97.6028 30.6878L97.4716 30.047C97.5755 29.8271 97.7142 29.6564 97.8859 29.5362C98.0576 29.4148 98.2479 29.3547 98.4547 29.3547C98.6943 29.3547 98.8988 29.4071 99.0682 29.5133C99.2377 29.6194 99.3679 29.7735 99.4563 29.9759C99.5451 30.1794 99.5888 30.4243 99.5888 30.7096V32.7286H98.9359V30.7131ZM92.5337 32.7767C92.1235 32.7767 91.8173 32.6915 91.615 32.5219C91.4116 32.3524 91.3099 32.0943 91.3099 31.7476C91.3099 31.4194 91.4027 31.1723 91.5888 31.0083C91.7747 30.8433 92.0557 30.7611 92.432 30.7611H93.3769L93.4217 31.2872H92.4352C92.2635 31.2872 92.1368 31.3243 92.0525 31.401C91.9671 31.4765 91.9256 31.5923 91.9256 31.7476C91.9256 31.9172 91.9814 32.0418 92.0941 32.1228C92.2055 32.2036 92.3762 32.2452 92.6047 32.2452C92.854 32.2452 93.0412 32.218 93.1636 32.1644C93.2861 32.1118 93.3484 32.0276 93.3484 31.9148L93.4151 32.383C93.3571 32.4727 93.2861 32.546 93.202 32.6039C93.1177 32.6608 93.0204 32.7045 92.9087 32.733C92.7983 32.7625 92.6724 32.7767 92.5337 32.7767ZM93.3484 30.62C93.3484 30.4025 93.2894 30.2329 93.1735 30.1127C93.0564 29.9924 92.8924 29.9311 92.6781 29.9311C92.5458 29.9311 92.4167 29.9519 92.2888 29.9924C92.1618 30.0327 92.0491 30.0897 91.9507 30.1618L91.4739 29.8348C91.5997 29.6839 91.7659 29.5658 91.9715 29.4815C92.1782 29.3972 92.4069 29.3547 92.6594 29.3547C92.9351 29.3547 93.1703 29.4029 93.367 29.5002C93.5638 29.5975 93.7136 29.7386 93.8155 29.9234C93.9182 30.1082 93.9696 30.3313 93.9696 30.5915V32.7286H93.3484V30.62ZM89.0734 29.4029H90.5728V29.9924H89.0734V29.4029ZM90.1955 32.7451C89.9264 32.7451 89.7296 32.6707 89.6038 32.5219C89.4792 32.3732 89.4168 32.1545 89.4168 31.8637V28.4349H90.0709V31.8701C90.0709 31.9511 90.0861 32.0135 90.1178 32.0572C90.1506 32.1009 90.1976 32.1228 90.2589 32.1228H90.5728V32.7451H90.1955ZM87.1038 32.7767C86.9069 32.7767 86.7233 32.7571 86.5516 32.7188C86.3787 32.6806 86.218 32.6225 86.0693 32.546C85.9194 32.4695 85.7816 32.3732 85.6558 32.2572L86.0428 31.7804C86.2223 31.9173 86.4006 32.0199 86.5788 32.0877C86.7561 32.1567 86.931 32.1905 87.1038 32.1905C87.3619 32.1905 87.5566 32.15 87.6856 32.0703C87.8146 31.9904 87.8791 31.8701 87.8791 31.7093C87.8791 31.6032 87.8442 31.5223 87.773 31.4698C87.7032 31.4162 87.6157 31.3802 87.5107 31.3616C87.4056 31.344 87.259 31.3276 87.0689 31.3122C87.0513 31.3122 87.0337 31.3122 87.0141 31.3112C86.9944 31.3102 86.9769 31.308 86.9595 31.3058C86.9507 31.3058 86.9431 31.3058 86.9342 31.3048C86.9255 31.3037 86.9168 31.3025 86.9081 31.3025C86.6926 31.2861 86.51 31.2544 86.3601 31.2085C86.2114 31.1624 86.0866 31.076 85.9872 30.9504C85.8877 30.8245 85.8384 30.6441 85.8384 30.4089C85.8384 30.1739 85.8866 29.978 85.9828 29.8228C86.078 29.6663 86.2212 29.5493 86.4115 29.4716C86.6017 29.394 86.8401 29.3547 87.1267 29.3547C87.2995 29.3547 87.4648 29.3711 87.6211 29.4029C87.7786 29.4346 87.9285 29.4826 88.0716 29.545C88.2148 29.6084 88.3527 29.6882 88.485 29.7844L88.0903 30.2614C87.924 30.1542 87.76 30.0742 87.5992 30.0207C87.4373 29.9682 87.2798 29.941 87.1267 29.941C86.9036 29.941 86.7374 29.9791 86.626 30.0546C86.5154 30.13 86.4596 30.2439 86.4596 30.3958C86.4596 30.4855 86.4913 30.5533 86.5548 30.5982C86.6171 30.643 86.6969 30.6726 86.7932 30.6878C86.8895 30.7021 87.0262 30.7153 87.2033 30.7262C87.2164 30.7284 87.2296 30.7294 87.2427 30.7294C87.2569 30.7294 87.2711 30.7304 87.2864 30.7326C87.2931 30.7326 87.2995 30.7326 87.3061 30.7326C87.3115 30.7326 87.3182 30.7339 87.3247 30.7361C87.5576 30.7502 87.7556 30.782 87.9196 30.8289C88.0826 30.876 88.2205 30.9688 88.3309 31.1078C88.4423 31.2467 88.497 31.4469 88.497 31.7093C88.497 31.9489 88.4468 32.1468 88.344 32.3043C88.2413 32.4606 88.0869 32.5787 87.8803 32.6585C87.6747 32.7374 87.4155 32.7767 87.1038 32.7767ZM81.2636 30.6813C80.9957 30.6813 80.79 30.747 80.6447 30.8803C80.4991 31.0125 80.4271 31.1998 80.4271 31.4402C80.4271 31.6776 80.5047 31.8612 80.6588 31.9937C80.8142 32.1249 81.0329 32.1905 81.3139 32.1905C81.5819 32.1905 81.8104 32.1183 82.0019 31.9751C82.1932 31.833 82.3376 31.625 82.4371 31.3528C82.5366 31.0805 82.5869 30.7513 82.5869 30.3675H83.2081C83.2081 30.876 83.1283 31.3102 82.9697 31.67C82.81 32.0297 82.5783 32.3043 82.2719 32.4934C81.9669 32.6827 81.5995 32.7767 81.1707 32.7767C80.8798 32.7767 80.6315 32.7243 80.4248 32.6193C80.2192 32.5154 80.0617 32.3623 79.9545 32.1631C79.8463 31.9631 79.7927 31.7223 79.7927 31.4402C79.7927 31.0608 79.8976 30.7557 80.1066 30.527C80.3154 30.2985 80.6119 30.1662 80.9934 30.13L81.2636 30.6813ZM80.952 30.8771C80.8032 30.7207 80.6764 30.5587 80.5713 30.3894C80.4663 30.2209 80.3866 30.046 80.3308 29.8654C80.2751 29.685 80.2477 29.5012 80.2477 29.3131C80.2477 28.9053 80.3559 28.5891 80.5745 28.3659C80.7923 28.1429 81.0996 28.0312 81.4976 28.0312C81.8925 28.0312 82.1986 28.1386 82.4153 28.3529C82.6318 28.5683 82.7401 28.8725 82.7401 29.265V29.3295H82.0871V29.265C82.0871 29.0747 82.0357 28.9283 81.933 28.8243C81.8301 28.7203 81.6847 28.6691 81.4976 28.6691C81.3075 28.6691 81.1597 28.7248 81.0569 28.8373C80.9531 28.949 80.9017 29.1074 80.9017 29.3131C80.9017 29.4367 80.9213 29.5647 80.9617 29.6981C81.0022 29.8306 81.0625 29.9617 81.1411 30.0918C81.221 30.222 81.315 30.3454 81.4267 30.4635L83.557 32.7286H82.7281L80.952 30.8771ZM76.4801 29.4029H77.1328V32.7286H76.4801V29.4029ZM76.4801 28.0697H77.1328V28.7237H76.4801V28.0697ZM72.8459 30.7131C72.8459 30.4779 72.788 30.2963 72.6731 30.1684C72.5571 30.0404 72.3943 29.9759 72.1832 29.9759C71.9689 29.9759 71.8049 30.0327 71.6878 30.1465C71.5719 30.2591 71.5127 30.4188 71.5127 30.6233L71.4461 29.9825C71.5489 29.7823 71.6823 29.6271 71.8486 29.5178C72.0137 29.4093 72.1963 29.3547 72.3976 29.3547C72.6305 29.3547 72.8295 29.4071 72.9935 29.5133C73.1576 29.6194 73.2834 29.7735 73.3698 29.9759C73.4562 30.1794 73.4999 30.4243 73.4999 30.7096V32.7286H72.8459V30.7131ZM70.8599 29.4029H71.5127V32.7286H70.8599V29.4029ZM74.8331 30.7131C74.8331 30.4779 74.7718 30.2963 74.6504 30.1684C74.5281 30.0404 74.3574 29.9759 74.1374 29.9759C73.934 29.9759 73.7777 30.0383 73.6663 30.1618C73.5556 30.2865 73.4999 30.4614 73.4999 30.6878L73.3688 30.047C73.4727 29.8271 73.6114 29.6564 73.7831 29.5362C73.9548 29.4148 74.1451 29.3547 74.3518 29.3547C74.5914 29.3547 74.796 29.4071 74.9653 29.5133C75.1349 29.6194 75.265 29.7735 75.3535 29.9759C75.4423 30.1794 75.486 30.4243 75.486 30.7096V32.7286H74.8331V30.7131ZM68.4309 32.7767C68.0206 32.7767 67.7145 32.6915 67.5122 32.5219C67.3088 32.3524 67.2071 32.0943 67.2071 31.7476C67.2071 31.4194 67.2999 31.1723 67.486 31.0083C67.6718 30.8433 67.9529 30.7611 68.3291 30.7611H69.2741L69.3188 31.2872H68.3324C68.1607 31.2872 68.0339 31.3243 67.9497 31.401C67.8643 31.4765 67.8228 31.5923 67.8228 31.7476C67.8228 31.9172 67.8786 32.0418 67.9913 32.1228C68.1027 32.2036 68.2734 32.2452 68.5019 32.2452C68.7512 32.2452 68.9383 32.218 69.0608 32.1644C69.1831 32.1118 69.2456 32.0276 69.2456 31.9148L69.3123 32.383C69.2543 32.4727 69.1831 32.546 69.0991 32.6039C69.0149 32.6608 68.9176 32.7045 68.8059 32.733C68.6955 32.7625 68.5696 32.7767 68.4309 32.7767ZM69.2456 30.62C69.2456 30.4025 69.1866 30.2329 69.0707 30.1127C68.9536 29.9924 68.7896 29.9311 68.5753 29.9311C68.4429 29.9311 68.3139 29.9519 68.1859 29.9924C68.059 30.0327 67.9463 30.0897 67.8479 30.1618L67.3711 29.8348C67.4969 29.6839 67.6631 29.5658 67.8687 29.4815C68.0754 29.3972 68.3041 29.3547 68.5566 29.3547C68.8323 29.3547 69.0675 29.4029 69.2642 29.5002C69.461 29.5975 69.6108 29.7386 69.7127 29.9234C69.8154 30.1082 69.8668 30.3313 69.8668 30.5915V32.7286H69.2456V30.62ZM65.4419 32.7767C65.1388 32.7767 64.8797 32.7198 64.6654 32.6072C64.451 32.4934 64.287 32.3294 64.1732 32.113C64.0606 31.8975 64.0038 31.6372 64.0038 31.332V30.784C64.0038 30.4823 64.0606 30.2252 64.1732 30.0119C64.287 29.7977 64.451 29.6346 64.6654 29.5232C64.8797 29.4106 65.1388 29.3547 65.4419 29.3547C65.6159 29.3547 65.7777 29.3754 65.9307 29.417C66.0838 29.4585 66.2206 29.5188 66.343 29.5986C66.4643 29.6773 66.5662 29.7735 66.6469 29.8862L66.1758 30.3094C66.0817 30.2022 65.9724 30.1204 65.8454 30.0623C65.7196 30.0055 65.5884 29.9759 65.4516 29.9759C65.2003 29.9759 65.0045 30.047 64.8656 30.1881C64.7267 30.3292 64.6578 30.527 64.6578 30.784V31.332C64.6578 31.5946 64.7267 31.7967 64.8645 31.9401C65.0011 32.0833 65.1981 32.1556 65.4516 32.1556C65.5906 32.1556 65.723 32.1239 65.8486 32.0626C65.9756 32.0002 66.0838 31.9128 66.1758 31.7991L66.6469 32.254C66.564 32.3655 66.4611 32.4596 66.3398 32.5382C66.2174 32.6161 66.0806 32.675 65.9275 32.7156C65.7754 32.7561 65.6136 32.7767 65.4419 32.7767ZM62.453 29.4029H63.1058V32.7286H62.453V29.4029ZM62.453 28.0697H63.1058V28.7237H62.453V28.0697ZM61.482 30.1913C61.4239 30.1204 61.3508 30.0668 61.2631 30.0305C61.1756 29.9946 61.0751 29.9759 60.9591 29.9759C60.7524 29.9759 60.5917 30.0338 60.4768 30.1476C60.3632 30.2625 60.3051 30.421 60.3051 30.6233L60.2384 29.9825C60.3413 29.7844 60.4736 29.6292 60.6354 29.5199C60.7983 29.4093 60.9777 29.3547 61.1734 29.3547C61.3255 29.3547 61.4634 29.3765 61.5857 29.4202C61.7083 29.4642 61.8155 29.5287 61.9073 29.6138L61.482 30.1913ZM59.6523 29.4029H60.3051V32.7286H59.6523V29.4029Z" fill="white" stroke="white" stroke-width="0.377953" stroke-miterlimit="22.9256"/>
<path d="M63.1698 16.0494C62.3469 15.2659 61.3292 14.7187 58.9419 13.5436C56.0051 12.0947 55.7708 11.548 55.7708 10.5304C55.7708 9.5524 56.7093 9.0027 57.9244 9.0027C59.0603 9.0027 59.8806 9.47386 60.5089 10.4909C60.8981 11.1169 61.4081 11.4294 62.1521 11.1563L63.4827 10.6461C64.2267 10.3727 64.4241 9.62842 64.0324 9.0027C62.6993 6.73373 60.7432 5.67676 57.885 5.67676C54.3615 5.67676 51.777 7.86695 51.777 10.8828C51.777 12.2922 52.3267 13.5436 53.3046 14.4849C54.2066 15.3446 55.3791 16.1679 57.5721 17.2645C59.8043 18.3608 60.4696 19.0656 60.4696 20.1227C60.4696 21.216 59.5282 21.7265 58.2373 21.7265C56.9068 21.7265 55.9683 21.3739 55.2242 19.8859C54.8719 19.1413 54.4408 18.8284 53.6175 19.1021L52.2873 19.5334C51.464 19.8067 51.2302 20.2771 51.5827 21.061C52.9128 23.8798 55.0662 25.1707 58.2373 25.1707C62.1127 25.1707 64.658 22.9778 64.658 19.6515C64.658 18.2028 64.148 16.9516 63.1698 16.0494Z" fill="white"/>
<path d="M78.5566 16.0494C77.7362 15.2659 76.719 14.7187 74.3288 13.5436C71.3944 12.0947 71.1577 11.548 71.1577 10.5304C71.1577 9.5524 72.099 9.0027 73.3111 9.0027C74.447 9.0027 75.2698 9.47386 75.8957 10.4909C76.2874 11.1169 76.7948 11.4294 77.5389 11.1563L78.8695 10.6461C79.6136 10.3727 79.8109 9.62842 79.4192 9.0027C78.0885 6.73373 76.1299 5.67676 73.2717 5.67676C69.7482 5.67676 67.1663 7.86695 67.1663 10.8828C67.1663 12.2922 67.7133 13.5436 68.6913 14.4849C69.5933 15.3446 70.766 16.1679 72.9588 17.2645C75.1909 18.3608 75.8564 19.0656 75.8564 20.1227C75.8564 21.216 74.9179 21.7265 73.6242 21.7265C72.2934 21.7265 71.355 21.3739 70.6108 19.8859C70.2586 19.1413 69.8275 18.8284 69.0042 19.1021L67.6736 19.5334C66.8507 19.8067 66.617 20.2771 66.9693 21.061C68.2996 23.8798 70.4531 25.1707 73.6242 25.1707C77.4994 25.1707 80.0446 22.9778 80.0446 19.6515C80.0446 18.2028 79.5348 16.9516 78.5566 16.0494Z" fill="white"/>
<path d="M85.9528 3.63867H84.3096C83.6836 3.63867 83.1738 4.14904 83.1738 4.77442V6.53623C83.1738 7.12515 83.6443 7.71154 84.2698 7.71154H85.9528C86.463 7.71154 87.0885 7.04603 87.0885 6.53623V4.73509C87.0885 4.06992 86.5787 3.63867 85.9528 3.63867ZM85.9528 10.3782H84.3096C83.7205 10.3782 83.1738 10.7699 83.1738 11.221V23.9077C83.1738 24.3587 83.6836 24.7782 84.2698 24.7782H85.9528C86.463 24.7782 87.0885 24.2993 87.0885 23.9077V11.221C87.0885 10.6796 86.5388 10.3782 85.9528 10.3782Z" fill="white"/>
<path d="M96.1946 12.9574L96.3634 13.0901V10.3335C96.3634 9.66812 96.7946 9.2371 97.4599 9.2371H98.4412C99.0272 9.2371 99.5739 8.80838 99.5739 8.18002V6.84934C99.5739 6.22385 99.0666 5.75304 98.4412 5.75304H97.4997C96.6764 5.75304 96.3634 5.32477 96.3634 4.58014V1.09366C96.3634 0.586511 95.8167 0 95.3064 0H93.5451C92.9984 0 92.4512 0.468061 92.4512 1.05721V4.62005C92.4512 5.32477 92.0595 5.75304 91.3548 5.75304H90.7657C89.9848 5.75304 89.6328 6.10528 89.6328 6.88878V8.14321C89.6328 8.76905 90.1403 9.2371 90.7657 9.2371H91.3548C91.8452 9.2371 92.2065 9.53564 92.3609 9.94125L92.5922 10.1223L96.1946 12.9574Z" fill="white"/>
<path d="M106.153 12.3314C106.153 9.94133 106.897 8.88425 108.622 8.88425C110.344 8.88425 111.088 9.90488 111.088 12.3314V18.5552C111.088 20.9423 110.344 21.9601 108.622 21.9601C106.897 21.9601 106.153 20.9423 106.153 18.5158V12.3314ZM113.357 7.20155C112.261 6.22347 110.617 5.67676 108.622 5.67676C106.663 5.67676 105.059 6.18402 103.883 7.20155C102.63 8.29808 102.24 9.58898 102.24 12.5258V18.3214C102.24 21.2553 102.593 22.47 103.883 23.6456C104.98 24.6236 106.663 25.1703 108.622 25.1703C110.578 25.1703 112.181 24.6632 113.357 23.6456C114.608 22.5492 115 21.2947 115 18.2815V12.5258C115 9.55252 114.648 8.37686 113.357 7.20155Z" fill="white"/>
<path d="M98.7934 21.6552H98.1649C96.7949 21.6552 96.3638 21.3027 96.3638 19.4622V15.2426L96.1945 15.11L92.6206 12.2941L92.4512 12.1621V20.2457C92.4512 23.8479 93.7031 25.1393 97.3446 25.1393H98.7541C99.3401 25.1393 99.8898 24.6315 99.8898 24.0425V22.7516C99.8898 22.205 99.2609 21.6552 98.7934 21.6552Z" fill="white"/>
</svg>
