<svg width="130" height="23" viewBox="0 0 130 23" fill="none" xmlns="http://www.w3.org/2000/svg">
<path d="M127.293 22.9332C126.963 22.7925 126.592 22.2858 126.592 21.9761C126.592 21.5901 127.08 21.6183 127.273 22.0083C127.583 22.6477 128.626 22.5472 128.626 21.8796C128.626 21.5057 128.292 21.2805 127.728 21.2764C127.486 21.2764 127.277 21.1719 127.047 20.9427C126.459 20.3556 126.459 19.4146 127.047 18.92C127.466 18.5661 127.841 18.4736 128.288 18.6144C128.578 18.7028 128.667 18.6908 128.755 18.546C128.852 18.3932 128.892 18.3892 129.053 18.5259C129.166 18.6184 129.219 18.7712 129.186 18.8999C129.154 19.0205 129.186 19.3261 129.251 19.5795C129.36 19.9816 129.343 20.0982 129.138 20.5164C128.912 20.9668 128.912 21.003 129.094 21.2C129.21 21.3327 129.283 21.5901 129.283 21.8877C129.283 22.5793 128.896 22.9453 128.111 22.9935C127.788 23.0136 127.422 22.9855 127.293 22.9292V22.9332ZM128.425 20.4923C128.928 20.0218 128.647 19.1934 127.986 19.1934C127.535 19.1934 127.253 19.4749 127.253 19.9253C127.253 20.6371 127.925 20.9628 128.425 20.4923ZM42.9694 22.4064C42.9694 22.3622 43.0742 22.0767 43.2031 21.767L43.4367 21.2081L42.9735 20.0661C42.7197 19.4387 42.4861 18.8597 42.4538 18.7833C42.4176 18.6908 42.5062 18.6465 42.7197 18.6465C43.0178 18.6465 43.0661 18.7109 43.4045 19.5272C43.6059 20.0138 43.7832 20.3958 43.7993 20.3757C43.8154 20.3556 43.9886 19.9615 44.186 19.495C44.5163 18.7069 44.5646 18.6465 44.8668 18.6465C45.2494 18.6465 45.3058 18.4334 44.3149 20.7577C43.618 22.3944 43.5616 22.4868 43.2756 22.4868C43.1064 22.4868 42.9694 22.4507 42.9694 22.4064ZM9.9498 21.8153C9.82895 21.755 9.15221 20.7095 8.44726 19.491L7.16627 17.2753L5.12395 17.2472C4.00006 17.2311 3.08162 17.1788 3.08162 17.1305C3.08162 17.0823 3.34346 16.6038 3.66169 16.0649C3.97992 15.5261 4.42706 14.754 4.64861 14.3518L5.05547 13.624L2.88021 9.85609C0.181272 5.18742 0 4.86974 0 4.78529C0 4.7491 1.94968 4.71693 4.33441 4.71693H8.66882L9.01927 5.37239C9.21263 5.73431 9.41001 6.00373 9.45835 5.97156C9.50669 5.93939 9.70811 5.63377 9.90146 5.28795C11.404 2.63794 12.6971 0.45038 12.8864 0.245296L13.112 0H20.7294L20.951 0.245296C21.0718 0.382019 21.6116 1.25865 22.1433 2.19158C22.6791 3.12853 23.231 4.07755 23.372 4.30274L23.6298 4.71291H25.6076C27.1545 4.71291 27.5855 4.74508 27.5855 4.85365C27.5855 4.93408 27.5412 5.04265 27.4888 5.09895C27.3076 5.29599 25.7164 8.11891 25.7164 8.24759C25.7164 8.31997 26.1192 9.06792 26.6147 9.91641C27.1062 10.7649 27.9561 12.2206 28.4959 13.1575C29.0357 14.0945 29.7729 15.3531 30.1274 15.9604C30.4818 16.5676 30.7719 17.0984 30.7719 17.1386C30.7719 17.1788 28.8061 17.211 26.4052 17.211H22.0386L21.6761 16.5515C21.4787 16.1896 21.2934 15.896 21.2692 15.896C21.2209 15.896 20.532 17.0582 19.0255 19.68C18.4696 20.6451 17.8935 21.5459 17.7405 21.6826C17.4665 21.9279 17.4464 21.9279 13.8169 21.9239C11.69 21.9198 10.0787 21.8716 9.9498 21.8113V21.8153ZM15.8713 11.7059L17.2853 8.93522L16.818 8.13499C16.5602 7.69266 16.3386 7.35085 16.3185 7.36693C16.2983 7.38302 15.6417 8.65776 14.8562 10.1979L13.4222 12.9967L13.8653 13.7366C14.111 14.1427 14.3406 14.4765 14.3809 14.4765C14.4212 14.4765 15.0899 13.2299 15.8673 11.7059H15.8713ZM34.2885 19.5272V17.5447H35.2835C36.7377 17.5447 37.2574 17.8865 37.2574 18.8396C37.2574 19.7926 36.637 20.2872 35.5011 20.2872H34.9613L34.929 20.8623C34.8968 21.4011 34.8767 21.4413 34.5947 21.4735L34.2926 21.5097V19.5272H34.2885ZM36.4276 19.4629C36.7176 19.2457 36.7216 18.5661 36.4356 18.357C36.3148 18.2686 35.9603 18.2042 35.5897 18.2042H34.9532V19.6318H35.5856C35.9683 19.6277 36.3027 19.5594 36.4316 19.4629H36.4276ZM38.4779 21.3006C37.0358 20.5808 37.8254 18.2887 39.4165 18.5862C39.6622 18.6305 39.9724 18.8074 40.1899 19.0286C40.5162 19.3543 40.5565 19.4588 40.5565 19.9937C40.5565 20.436 40.4961 20.6692 40.3269 20.8864C39.8516 21.4896 39.1627 21.6464 38.4779 21.3046V21.3006ZM39.7791 20.5486C39.9039 20.3877 40.0087 20.1505 40.0087 20.0138C40.0087 19.5915 39.6018 19.1894 39.1748 19.1894C38.6794 19.1894 38.3571 19.5111 38.3571 20.0138C38.3571 20.7979 39.2997 21.1558 39.7791 20.5486ZM41.2937 21.4293C41.2494 21.385 41.2172 20.4963 41.2172 19.4508V17.5487H41.8818L41.8536 19.495C41.8254 21.3609 41.8133 21.4453 41.5998 21.4735C41.475 21.4896 41.342 21.4735 41.2977 21.4293H41.2937ZM46.3048 21.2845C45.7852 20.9708 45.7087 20.7376 45.7449 19.6076C45.7731 18.6787 45.7933 18.5943 45.9947 18.5943C46.1961 18.5943 46.2203 18.6868 46.2686 19.5393C46.333 20.617 46.4579 20.8462 46.9897 20.8462C47.5214 20.8462 47.6986 20.5406 47.6986 19.5111C47.6986 18.6305 47.7711 18.4817 48.1377 18.5983C48.3391 18.6626 48.3552 18.7672 48.3552 20.0339C48.3552 21.196 48.327 21.4132 48.174 21.4695C48.0773 21.5057 47.9121 21.4856 47.8074 21.4212C47.6946 21.3488 47.5576 21.3408 47.465 21.4011C47.2072 21.566 46.6714 21.5137 46.3008 21.2885L46.3048 21.2845ZM49.0964 21.4293C49.0521 21.385 49.0199 20.7416 49.0199 19.9977V18.6425L49.4952 18.6586C49.7571 18.6667 50.031 18.6425 50.1035 18.5983C50.2767 18.4897 50.9978 18.735 50.9978 18.9039C50.9978 19.1492 50.7561 19.2819 50.4096 19.2337C49.8296 19.1492 49.741 19.294 49.6805 20.4199C49.6322 21.3408 49.604 21.4413 49.4026 21.4695C49.2777 21.4856 49.1448 21.4695 49.1005 21.4252L49.0964 21.4293ZM52.1499 21.3488C50.8648 20.7617 51.0985 18.8396 52.4882 18.5822C53.314 18.4294 54.0512 18.9843 54.0995 19.7966L54.1277 20.2349L53.0562 20.2671C52.4681 20.2832 51.9847 20.3395 51.9847 20.3877C51.9847 20.5767 52.4036 20.8381 52.7057 20.8381C52.883 20.8381 53.165 20.7657 53.3342 20.6773C53.9384 20.3636 54.1761 20.7818 53.6242 21.192C53.2536 21.4654 52.5688 21.5418 52.1499 21.3488ZM53.5235 19.6398C53.5235 19.4066 53.1529 19.1934 52.7541 19.1934C52.3553 19.1934 51.9847 19.4066 51.9847 19.6398C51.9847 19.6961 52.3311 19.7403 52.7541 19.7403C53.1771 19.7403 53.5235 19.6961 53.5235 19.6398ZM55.3322 21.2282C55.0905 20.9869 55.0623 20.8663 55.0623 20.0781C55.0623 19.2095 55.0583 19.1975 54.7884 19.1975C54.5668 19.1975 54.5144 19.1412 54.5144 18.924C54.5144 18.7069 54.5708 18.6506 54.7884 18.6506C55.026 18.6506 55.0623 18.6023 55.0623 18.2806C55.0623 17.9589 55.1106 17.9026 55.3362 17.8584C55.6826 17.794 55.7229 17.8383 55.7229 18.2887C55.7229 18.6345 55.7431 18.6546 56.1056 18.6546C56.444 18.6546 56.4883 18.6868 56.4883 18.928C56.4883 19.1693 56.4399 19.2015 56.1056 19.2015H55.7229V20.8743L56.1016 20.814C56.4198 20.7617 56.4923 20.7899 56.5527 20.9829C56.7179 21.5057 55.7914 21.6947 55.3322 21.2362V21.2282ZM57.2255 21.4252C57.1852 21.385 57.153 20.4963 57.153 19.4508V17.5487H57.4269C57.6887 17.5487 57.7008 17.5809 57.7008 18.164C57.7008 18.7069 57.725 18.7712 57.8942 18.7028C58.3453 18.5299 58.6797 18.5219 58.9979 18.6868C59.582 18.9884 59.6787 19.2337 59.6787 20.4239C59.6787 21.137 59.5874 21.4949 59.4047 21.4976C59.1389 21.4976 59.1308 21.4735 59.1308 20.7416C59.1308 19.6438 59.0422 19.3101 58.732 19.2337C57.9908 19.0487 57.7008 19.4749 57.7008 20.7456C57.7008 21.4011 57.6766 21.4976 57.4994 21.4976C57.3866 21.4976 57.2657 21.4654 57.2255 21.4252ZM61.0322 21.2845C60.5327 20.9829 60.303 20.5767 60.303 20.0057C60.303 19.1492 61.0845 18.4495 61.8781 18.5983C62.0916 18.6385 62.4743 18.6626 62.7281 18.6546L63.1953 18.6385V20.0178C63.1953 21.192 63.1671 21.4051 63.0141 21.4654C62.9174 21.5016 62.7401 21.4775 62.6274 21.4051C62.4823 21.3126 62.3575 21.3086 62.2084 21.389C61.8821 21.562 61.4148 21.5217 61.0281 21.2885L61.0322 21.2845ZM62.3172 20.621C62.4541 20.4843 62.5387 20.255 62.5387 20.0178C62.5387 19.2216 61.5961 18.8798 61.1087 19.495C60.8308 19.8489 60.871 20.44 61.1893 20.6813C61.4833 20.9065 62.0674 20.8743 62.3212 20.617L62.3172 20.621ZM63.9325 21.4293C63.8882 21.385 63.856 20.7376 63.856 19.9896V18.6264L64.2145 18.6506C64.4119 18.6626 64.7583 18.6385 64.9839 18.5902C65.4834 18.4897 65.9708 18.6626 66.277 19.0567C66.4582 19.2859 66.4945 19.5031 66.4945 20.4119C66.4945 21.133 66.4032 21.4936 66.2206 21.4936C65.9507 21.4936 65.9466 21.4815 65.9466 20.5848C65.9466 19.491 65.7936 19.1894 65.2377 19.1894C64.6818 19.1894 64.577 19.4186 64.5166 20.4963C64.4683 21.3408 64.4401 21.4413 64.2387 21.4735C64.1138 21.4896 63.9809 21.4735 63.9365 21.4293H63.9325ZM68.7463 21.3448C68.565 21.2644 68.3475 21.1196 68.2629 21.0191C68.13 20.8623 68.138 20.806 68.3032 20.621C68.4965 20.4079 68.5006 20.4079 68.7745 20.621C69.0685 20.8542 69.8339 20.9186 69.9588 20.7215C70.0756 20.5325 69.7856 20.2872 69.4351 20.2872C68.2266 20.2872 67.7835 19.0286 68.8631 18.6546C69.3868 18.4736 69.987 18.5541 70.3576 18.8597C70.5993 19.0567 70.6033 19.0768 70.422 19.2618C70.2609 19.4267 70.1924 19.4347 69.9749 19.3141C69.6325 19.1291 68.9638 19.1934 68.9638 19.4106C68.9638 19.5151 69.1249 19.6076 69.4029 19.6679C70.0273 19.7966 70.3697 19.9856 70.5147 20.2752C70.9175 21.0834 69.7574 21.7871 68.7423 21.3448H68.7463ZM73.1613 21.4252C73.121 21.385 73.0887 20.4963 73.0887 19.4508V17.5487H75.836V18.2082H73.7494V19.1975H75.8521L75.8159 19.4991L75.7796 19.8006L74.7645 19.8328L73.7494 19.865V20.8422H75.9488V21.5016H74.5953C73.8501 21.5016 73.2056 21.4695 73.1653 21.4293L73.1613 21.4252ZM76.6054 19.5232V17.5487H77.1533V21.4976H76.6054V19.5232ZM78.6276 21.3408C78.1764 21.1437 77.8139 20.5446 77.8139 19.9937C77.8139 19.0849 78.7082 18.3892 79.5702 18.6305C79.7837 18.6908 80.114 18.7109 80.3114 18.6787L80.6699 18.6224V21.4976H80.4041C80.2591 21.4976 80.1221 21.4453 80.0979 21.381C80.0697 21.3006 79.969 21.3006 79.7515 21.381C79.3487 21.5338 79.0425 21.5217 78.6236 21.3408H78.6276ZM79.8925 20.5486C80.1946 20.1666 80.1785 19.7886 79.8522 19.4629C79.542 19.1532 79.0788 19.113 78.7162 19.3664C78.5269 19.4991 78.4705 19.6438 78.4705 20.0178C78.4705 20.3918 78.5269 20.5365 78.7162 20.6692C79.1029 20.9387 79.6266 20.8864 79.8925 20.5526V20.5486ZM81.9348 21.3408C81.7535 21.2604 81.5199 21.0995 81.4111 20.9789C81.2258 20.7698 81.2258 20.7537 81.4313 20.5687C81.6367 20.3837 81.6569 20.3837 81.8905 20.6049C82.1926 20.8864 82.9459 20.9266 83.0466 20.6652C83.1352 20.432 83.0627 20.3837 82.4665 20.2711C81.677 20.1223 81.4393 19.9213 81.4393 19.4106C81.4393 18.8999 81.681 18.6868 82.2933 18.5701C82.7163 18.4897 83.6388 18.7953 83.6388 19.0165C83.6388 19.2819 83.3447 19.4307 83.0909 19.298C82.962 19.2296 82.676 19.1894 82.4504 19.2095C81.8824 19.2578 81.9026 19.5433 82.4826 19.6639C83.1997 19.8127 83.6871 20.0902 83.7274 20.3797C83.7918 20.8422 83.6468 21.1317 83.2641 21.3167C82.813 21.5298 82.3819 21.5378 81.9348 21.3408ZM85.0245 21.2684C84.7546 21.0553 84.7344 20.9829 84.7344 20.1183C84.7344 19.2055 84.7344 19.1934 84.4605 19.1934C84.239 19.1934 84.1866 19.1371 84.1866 18.92C84.1866 18.7028 84.243 18.6465 84.4605 18.6465C84.7022 18.6465 84.7344 18.5983 84.7344 18.2645C84.7344 17.9308 84.7707 17.8825 85.0003 17.8825C85.2299 17.8825 85.2742 17.9428 85.3024 18.2404C85.3347 18.5661 85.3709 18.5983 85.7496 18.6305C86.1041 18.6586 86.1604 18.7028 86.1604 18.9321C86.1604 19.1613 86.1121 19.2015 85.7173 19.2015H85.2742L85.3065 19.9977L85.3387 20.7939L85.7053 20.8019C86.0235 20.806 86.2652 20.9749 86.2732 21.188C86.2732 21.2845 85.7455 21.5057 85.5159 21.5057C85.4072 21.5057 85.1856 21.4051 85.0285 21.2764L85.0245 21.2684ZM87.526 21.3408C86.9661 21.0955 86.7123 20.6773 86.7123 19.9896C86.7123 19.4588 86.7526 19.3503 87.0789 19.0245C88.0215 18.0836 89.5724 18.6908 89.5724 20.0017C89.5724 21.0915 88.5331 21.7751 87.5301 21.3368L87.526 21.3408ZM88.5734 20.7336C88.6821 20.6773 88.8312 20.4843 88.9037 20.3073C89.2582 19.4548 88.0618 18.7591 87.4898 19.483C87.3649 19.6438 87.2602 19.8811 87.2602 20.0178C87.2602 20.4119 87.667 20.8422 88.0457 20.8422C88.2269 20.8422 88.4646 20.7939 88.5734 20.7376V20.7336ZM90.229 20.0661V18.6385L90.5875 18.6465C90.7849 18.6465 91.1031 18.6224 91.3005 18.5822C91.5543 18.5299 91.7638 18.5742 92.0337 18.735C92.3559 18.924 92.4324 18.9361 92.5412 18.8034C92.7547 18.546 93.3952 18.4857 93.8101 18.6787C94.3741 18.9481 94.5312 19.3583 94.4949 20.4843C94.4627 21.4252 94.4587 21.4413 94.1888 21.4413C93.9189 21.4413 93.9148 21.4252 93.8826 20.4601C93.8665 19.9213 93.798 19.4146 93.7336 19.3342C93.5684 19.1371 93.0367 19.1532 92.8272 19.3623C92.6943 19.495 92.654 19.7725 92.654 20.5205V21.5057L92.3519 21.4695C92.1505 21.4453 92.039 21.1062 92.0175 20.4521C92.0014 19.9132 91.9329 19.4066 91.8685 19.3261C91.804 19.2457 91.6107 19.1814 91.4415 19.1814C90.9501 19.1814 90.7889 19.5232 90.7889 20.5767C90.7889 21.4735 90.7889 21.4856 90.515 21.4856H90.2411V20.058L90.229 20.0661ZM95.8887 21.3006C95.4577 21.0271 95.2965 20.8261 95.1717 20.3877C94.8615 19.302 95.9773 18.2726 97.077 18.6345C97.5604 18.7953 97.8061 19.0688 97.923 19.5795C98.076 20.251 98.0196 20.2872 96.8676 20.2872C96.2996 20.2872 95.8363 20.3274 95.8363 20.3797C95.8363 20.5727 96.2512 20.8341 96.5574 20.8341C96.7346 20.8341 97.0166 20.7617 97.1858 20.6733C97.7941 20.3556 98.0277 20.7778 97.4678 21.192C97.0488 21.5057 96.2996 21.5539 95.8887 21.2966V21.3006ZM97.3711 19.6679C97.3711 19.2497 96.3479 19.0245 96.0055 19.3664C95.6994 19.672 95.8162 19.7443 96.6017 19.7443C97.0247 19.7443 97.3711 19.7122 97.3711 19.672V19.6679ZM98.7649 21.4252C98.7246 21.385 98.6924 20.7416 98.6924 19.9977V18.6425L99.0509 18.6626C99.2483 18.6747 99.5182 18.6465 99.6551 18.6023C99.8847 18.5259 100.67 18.7028 100.67 18.8275C100.67 18.8557 100.618 18.9803 100.553 19.0969C100.473 19.2497 100.372 19.294 100.215 19.2457C99.8646 19.1331 99.5101 19.2779 99.3691 19.5835C99.2966 19.7403 99.2402 20.2349 99.2402 20.6813C99.2402 21.4011 99.216 21.4976 99.0388 21.4976C98.926 21.4976 98.8052 21.4654 98.7649 21.4252ZM101.424 21.2764C100.936 21.0191 100.839 20.806 101.105 20.5647C101.295 20.3918 101.323 20.3958 101.536 20.6089C101.81 20.8824 102.547 20.9226 102.753 20.6773C102.862 20.5446 102.841 20.4963 102.628 20.4119C102.487 20.3556 102.177 20.2752 101.947 20.239C101.464 20.1585 100.997 19.7564 100.997 19.4146C100.997 18.8355 101.947 18.3972 102.684 18.6425C103.216 18.8154 103.393 19.0447 103.172 19.2658C103.035 19.4025 102.954 19.4106 102.765 19.3101C102.636 19.2417 102.346 19.1975 102.12 19.2176C101.552 19.2658 101.573 19.5513 102.153 19.672C102.898 19.8288 103.297 20.0459 103.369 20.3355C103.478 20.7657 103.385 20.9789 102.986 21.2483C102.531 21.5539 101.967 21.566 101.424 21.2805V21.2764ZM105.883 21.3569C105.855 21.2805 105.843 20.4038 105.859 19.4106L105.891 17.605L106.189 17.5689C106.451 17.5367 106.556 17.6412 107.115 18.4817C107.837 19.5634 107.716 19.5835 108.533 18.2565C108.892 17.6734 109.017 17.5568 109.267 17.5528H109.569V19.5312V21.5137L109.267 21.4775L108.964 21.4413L108.932 20.1384L108.9 18.8355L108.4 19.6157C108.127 20.0459 107.837 20.3958 107.76 20.3958C107.683 20.3958 107.365 20.0138 107.055 19.5473L106.491 18.6988V20.0982V21.4976H106.213C106.06 21.4976 105.911 21.4333 105.879 21.3569H105.883ZM111.031 21.2845C110.535 20.9829 110.302 20.5727 110.302 20.0178C110.302 18.9602 111.353 18.2685 112.34 18.6827C112.868 18.9039 113.122 19.3141 113.134 19.9575C113.142 20.625 112.924 21.0271 112.409 21.2885C111.885 21.5539 111.478 21.5539 111.035 21.2845H111.031ZM112.316 20.621C112.453 20.4843 112.537 20.255 112.537 20.0178C112.537 19.5151 112.219 19.1934 111.72 19.1934C110.954 19.1934 110.616 20.1103 111.172 20.6652C111.418 20.9105 112.05 20.8824 112.316 20.617V20.621ZM114.423 21.2764C113.935 20.9789 113.742 20.4722 113.742 19.4789C113.742 18.7591 113.766 18.6506 113.959 18.5902C114.33 18.4736 114.399 18.6264 114.399 19.5674C114.399 20.5928 114.54 20.8381 115.136 20.8381C115.635 20.8381 115.76 20.5969 115.825 19.5352C115.877 18.6827 115.901 18.5902 116.103 18.5902C116.304 18.5902 116.324 18.6747 116.352 20.0419L116.384 21.4936H116.107C115.953 21.4936 115.829 21.4453 115.829 21.385C115.829 21.3167 115.728 21.3167 115.547 21.385C115.124 21.5459 114.826 21.5137 114.423 21.2684V21.2764ZM117.15 19.5232V17.5487H117.698V21.4976H117.15V19.5232ZM119.156 21.3368C118.419 21.0191 118.129 19.9535 118.58 19.2176C118.942 18.6264 119.728 18.4133 120.473 18.7069C120.642 18.7752 120.667 18.7069 120.667 18.168C120.667 17.5849 120.683 17.5528 120.94 17.5528H121.214V21.5016H120.949C120.803 21.5016 120.667 21.4494 120.642 21.385C120.614 21.3046 120.513 21.3046 120.296 21.385C119.893 21.5378 119.587 21.5258 119.152 21.3408L119.156 21.3368ZM120.437 20.5526C120.562 20.3918 120.667 20.1545 120.667 20.0178C120.667 19.6076 120.26 19.1934 119.857 19.1934C119.285 19.1934 119.015 19.4548 119.015 20.0178C119.015 20.3918 119.071 20.5365 119.261 20.6692C119.647 20.9387 120.171 20.8864 120.437 20.5526ZM122.032 21.3649C122 21.2805 121.988 20.625 122.004 19.9052L122.036 18.5943H122.584V20.0218C122.584 21.4172 122.58 21.4494 122.338 21.4815C122.201 21.5016 122.064 21.4494 122.032 21.3649ZM123.482 21.4293C123.442 21.389 123.41 20.7456 123.41 20.0017V18.6465H123.821C124.046 18.6425 124.457 18.6305 124.735 18.6184C125.73 18.5822 126.085 19.1452 126.024 20.6532C125.992 21.4172 125.984 21.4453 125.718 21.4453C125.452 21.4453 125.444 21.4252 125.388 20.428C125.327 19.3382 125.255 19.2015 124.727 19.2015C124.151 19.2015 123.958 19.5714 123.958 20.6733C123.958 21.4051 123.933 21.5016 123.756 21.5016C123.643 21.5016 123.523 21.4695 123.482 21.4293ZM67.2115 18.4575C67.3525 17.6855 67.4411 17.5528 67.8158 17.5528C68.1018 17.5528 68.1461 17.5849 68.0816 17.7458C68.0373 17.8503 67.9285 18.1479 67.8399 18.4053C67.707 18.7833 67.6264 18.8717 67.4089 18.8717C67.1591 18.8717 67.143 18.8436 67.2155 18.4616L67.2115 18.4575ZM122.052 18.2484C121.927 18.1238 121.972 17.8061 122.129 17.6734C122.439 17.416 122.882 17.8624 122.624 18.168C122.491 18.3248 122.173 18.3691 122.048 18.2444L122.052 18.2484ZM33.6279 14.6454C33.6279 14.5006 39.054 14.4805 81.814 14.4805C124.574 14.4805 130 14.5006 130 14.6454C130 14.7902 124.574 14.8103 81.814 14.8103C39.054 14.8103 33.6279 14.7902 33.6279 14.6454ZM76.4282 10.8091C74.8209 10.415 73.6285 9.23682 73.1089 7.54387C72.8471 6.69136 72.8793 5.05874 73.1774 4.23036C73.5077 3.30547 73.8581 2.75456 74.4986 2.15137C75.2036 1.49188 76.0616 1.0978 77.1009 0.944994C79.3205 0.627315 81.391 1.61654 82.2853 3.42611C82.7082 4.28666 82.8492 4.88984 82.8532 5.88711C82.8653 8.99152 80.8875 10.9941 77.8582 10.9539C77.3748 10.9458 76.7303 10.8815 76.4282 10.8051V10.8091ZM79.0264 9.04782C80.1181 8.67786 80.827 7.68059 80.9519 6.33749C81.1654 4.06147 79.7515 2.48916 77.6366 2.65805C75.9166 2.79477 74.837 4.05342 74.837 5.9233C74.837 7.38704 75.5903 8.62961 76.7222 9.02771C77.3466 9.24888 78.4101 9.25692 79.0264 9.04782ZM36.7176 6.66322C35.7911 4.41533 34.9653 2.42884 34.8847 2.24788C34.8042 2.06692 34.6672 1.73316 34.5746 1.50797L34.4094 1.0978H36.5685L37.1285 2.54947C38.1678 5.25578 39.0902 7.62027 39.2594 8.00631C39.4085 8.34812 39.4367 8.36823 39.5092 8.17118C39.6945 7.69266 40.5686 5.44075 41.2413 3.7277C41.6321 2.73043 42.0147 1.73316 42.0953 1.50797L42.2403 1.0978H43.328C44.1538 1.0978 44.4035 1.12997 44.3632 1.23452C44.335 1.31093 43.5817 3.12451 42.6915 5.26784C40.7458 9.94456 40.4397 10.6885 40.4397 10.7247C40.4397 10.7408 39.9805 10.7528 39.4206 10.7528H38.4014L36.7136 6.66724L36.7176 6.66322ZM44.5082 10.6282C44.5082 10.5317 46.3814 6.30532 48.1015 2.52133C48.2505 2.18756 48.4519 1.73316 48.5405 1.50797L48.7057 1.0978H50.8528L50.9978 1.45569C51.0783 1.65273 51.3563 2.27201 51.6141 2.839C51.8759 3.40198 52.0894 3.88051 52.0894 3.90061C52.0894 3.92072 52.2546 4.29872 52.46 4.74106C52.6655 5.18339 53.2375 6.45813 53.737 7.57202C54.2365 8.68993 54.7602 9.86011 54.9012 10.1778L55.159 10.7528H53.0643L52.6695 9.8762L52.2747 8.99956H47.2837L46.8889 9.8762L46.4942 10.7528H45.4992C44.8466 10.7528 44.5042 10.7126 44.5042 10.6322L44.5082 10.6282ZM51.4127 7.03317C51.0904 6.20479 49.8417 3.39796 49.7933 3.39796C49.7571 3.39796 49.6684 3.53468 49.5919 3.69955C49.1166 4.77725 48.1337 7.06132 48.1337 7.08947C48.1337 7.10957 48.8789 7.12566 49.7893 7.12566C50.6997 7.12566 51.4288 7.08143 51.4087 7.02915L51.4127 7.03317ZM56.0452 5.91928V1.0978H57.9143V8.99554H62.861V10.7488H56.0492V5.9233L56.0452 5.91928ZM64.0654 5.93537V1.12997L66.2045 1.04955C67.3807 1.00531 68.6295 1.00531 68.9799 1.04955C71.0142 1.29484 72.2871 2.75858 72.1743 4.71693C72.1018 5.99569 71.4815 6.98089 70.3979 7.54387C69.8661 7.82134 69.7453 7.83742 67.8883 7.87763L65.9386 7.91785V10.7488H64.0695V5.93939L64.0654 5.93537ZM69.4472 5.97558C70.5187 5.42467 70.559 3.73976 69.5197 3.10843C69.2337 2.93551 68.9074 2.8953 67.5579 2.86313L65.9386 2.82694V6.13643H67.5378C68.7382 6.13643 69.2136 6.09622 69.4512 5.97156L69.4472 5.97558ZM84.1141 10.6081C84.0859 10.5317 84.0738 8.37225 84.0899 5.81071L84.1181 1.15008L85.0809 1.11791L86.0436 1.08574V8.99152H90.9903V10.7448H87.5784C84.952 10.7448 84.1544 10.7126 84.1141 10.6081ZM93.6248 8.78242V6.82004L91.7557 4.01723C90.7285 2.47709 89.8866 1.18627 89.8866 1.1541C89.8866 1.12193 90.3982 1.09378 91.0266 1.09378H92.1666L93.3428 3.01192C93.9914 4.06951 94.5352 4.93006 94.5553 4.93006C94.5755 4.93006 94.7366 4.69682 94.9139 4.40729C95.0911 4.12178 95.647 3.25721 96.1465 2.48916L97.0609 1.08976H98.1969C98.8213 1.08976 99.3329 1.12193 99.3329 1.15812C99.3329 1.21442 97.3147 4.17808 95.8524 6.27315L95.4899 6.7919V10.7448H93.6208V8.78242H93.6248ZM99.9975 5.91928V1.0978H101.125H102.253L103.724 3.12049L105.194 5.14318L105.706 4.46359C105.988 4.08961 106.656 3.17679 107.196 2.43688L108.175 1.09378H110.33V10.7448H108.465L108.437 7.35085L108.409 3.95691L106.886 5.9796C105.923 7.25836 105.295 8.00229 105.17 8.00229C105.045 8.00229 104.445 7.27847 103.506 5.99971L102.036 3.99712L102.008 7.37096L101.979 10.7448H100.006V5.91928H99.9975ZM111.865 5.91928V1.0978H119.236L119.204 2.00258L119.172 2.90737L116.505 2.93551L113.839 2.96366V5.04265H119.003V6.79592H113.839V8.87893H119.224V10.7448H111.861V5.91928H111.865ZM120.546 5.91928C120.546 2.06692 120.574 1.0777 120.687 1.03346C120.763 1.00531 122.064 1.01738 123.571 1.06965C126.085 1.15008 126.354 1.17823 126.822 1.40342C127.49 1.72914 128.103 2.33233 128.389 2.9516C128.723 3.67542 128.711 5.1271 128.365 5.78658C127.986 6.50639 127.478 6.94068 126.665 7.23423C126.383 7.33879 126.371 7.36291 126.512 7.568C126.596 7.68863 126.834 7.97414 127.039 8.19933C128.638 9.96064 129.114 10.5156 129.114 10.6241C129.114 10.7086 128.755 10.7488 127.986 10.7448H126.858L125.492 9.15237L124.127 7.568H122.411V10.7488H120.542V5.91928H120.546ZM125.927 5.64986C126.467 5.37239 126.701 4.97429 126.701 4.32687C126.701 3.86442 126.644 3.67945 126.419 3.41002C126.02 2.93551 125.541 2.83498 123.901 2.87117L122.471 2.90334L122.439 4.35502L122.407 5.80669H124.01C125.21 5.80669 125.69 5.76648 125.927 5.64584V5.64986Z" fill="white"/>
</svg>
