<svg width="135" height="44" viewBox="0 0 135 44" fill="none" xmlns="http://www.w3.org/2000/svg">
<path d="M68.6462 11.7104V14.5113H60.6469V17.7577H67.9884V20.3462H60.6469V24.0594H68.816V26.8604H57.3156V11.7104H68.6462Z" fill="white"/>
<mask id="mask0_391_7764" style="mask-type:luminance" maskUnits="userSpaceOnUse" x="0" y="0" width="135" height="44">
<path d="M0.371277 0.37809H134.844V43.8154H0.371277V0.37809Z" fill="white"/>
</mask>
<g mask="url(#mask0_391_7764)">
<path d="M80.0414 26.7435C79.32 27.0475 78.5913 27.1997 77.8559 27.1997C76.6958 27.1997 75.6525 26.9982 74.7262 26.5949C73.7995 26.1919 73.0182 25.6369 72.3815 24.9293C71.745 24.2221 71.257 23.391 70.9176 22.4361C70.578 21.4813 70.4083 20.4523 70.4083 19.3489C70.4083 18.2174 70.578 17.167 70.9176 16.198C71.257 15.2293 71.745 14.3838 72.3815 13.6624C73.0182 12.941 73.7995 12.3753 74.7262 11.9649C75.6525 11.5549 76.6958 11.3496 77.8559 11.3496C78.6337 11.3496 79.387 11.4663 80.1156 11.6997C80.844 11.9331 81.5017 12.2763 82.089 12.7288C82.6757 13.1817 83.1604 13.7404 83.5424 14.4051C83.9244 15.0701 84.1577 15.834 84.2426 16.6966H81.0598C80.8615 15.8479 80.4797 15.2114 79.9141 14.787C79.3481 14.3625 78.6622 14.1504 77.8559 14.1504C77.1059 14.1504 76.4694 14.2957 75.9462 14.5853C75.4228 14.8755 74.9984 15.2644 74.6732 15.7524C74.3476 16.2405 74.1109 16.7958 73.9624 17.418C73.8138 18.0406 73.7396 18.6842 73.7396 19.3489C73.7396 19.9854 73.8138 20.6044 73.9624 21.2055C74.1109 21.8068 74.3476 22.348 74.6732 22.8287C74.9984 23.3098 75.4228 23.6953 75.9462 23.9851C76.4694 24.2752 77.1059 24.4201 77.8559 24.4201C78.9592 24.4201 79.8113 24.1409 80.4127 23.582C81.0138 23.0233 81.3638 22.2133 81.4629 21.1525H78.1106V18.6699H84.476V26.8601H82.3541L82.0147 25.1415C81.4205 25.9054 80.7628 26.4395 80.0414 26.7435Z" fill="white"/>
<path d="M90.5013 11.7104V17.5242H96.6334V11.7104H99.9647V26.8604H96.6334V20.3251H90.5013V26.8604H87.17V11.7104H90.5013Z" fill="white"/>
<path d="M114.224 11.7104V14.5113H106.225V17.7577H113.566V20.3462H106.225V24.0594H114.394V26.8604H102.894V11.7104H114.224Z" fill="white"/>
<path d="M123.624 18.564C124.387 18.564 124.96 18.3942 125.342 18.0547C125.724 17.7153 125.915 17.1635 125.915 16.3997C125.915 15.6643 125.724 15.1303 125.342 14.7978C124.96 14.4656 124.387 14.2991 123.624 14.2991H119.974V18.564H123.624ZM124.812 11.7104C125.491 11.7104 126.102 11.8203 126.647 12.0394C127.192 12.2588 127.658 12.5593 128.048 12.9412C128.436 13.323 128.733 13.7653 128.939 14.2672C129.144 14.7696 129.246 15.3107 129.246 15.8905C129.246 16.7817 129.059 17.5527 128.684 18.2033C128.309 18.8541 127.697 19.349 126.849 19.6886V19.731C127.259 19.8444 127.598 20.0174 127.867 20.2509C128.136 20.4843 128.355 20.7601 128.525 21.0784C128.695 21.3966 128.818 21.7467 128.896 22.1287C128.974 22.5106 129.027 22.8926 129.055 23.2744C129.069 23.5151 129.084 23.798 129.098 24.1232C129.112 24.4487 129.137 24.781 129.172 25.1205C129.207 25.4599 129.264 25.7818 129.342 26.0859C129.419 26.3903 129.536 26.6482 129.692 26.8604H126.361C126.177 26.3796 126.064 25.8068 126.021 25.1417C125.979 24.4769 125.915 23.8404 125.83 23.232C125.717 22.4399 125.477 21.8601 125.109 21.4921C124.741 21.1245 124.14 20.9404 123.305 20.9404H119.974V26.8604H116.643V11.7104H124.812Z" fill="white"/>
<path d="M48.4046 26.8601L45.8371 16.548H45.7948L43.2698 26.8601H39.8961L35.8858 11.7102H39.217L41.6147 22.0224H41.6572L44.2883 11.7102H47.4074L49.996 22.1497H50.0385L52.5209 11.7102H55.7885L51.7148 26.8601H48.4046Z" fill="white"/>
<path d="M34.6555 10.9518H39.9712L40.6267 13.6649L45.7388 4.18552H35.7521L28.7789 15.8546L24.7021 9.36154L20.3035 15.8291L12.9122 4.18552H3.37019L20.3121 32.4995L23.598 27.4951L24.5323 26.0858L25.4974 27.5188L28.8701 32.4734L36.8683 19.1956L34.6555 10.9518Z" fill="white"/>
<path d="M24.5555 28.0237L20.9708 33.6972L24.5555 40.0078L28.2202 33.5638L24.5555 28.0237Z" fill="white"/>
<path d="M36.4905 36.7949H35.8859V32.2507H36.4905V36.7949Z" fill="white"/>
<path d="M38.1137 32.2507V36.2858H40.5191V36.7949H37.5091V32.2507H38.1137Z" fill="white"/>
<path d="M45.5541 36.741C45.291 36.8446 45.0258 36.897 44.7585 36.897C44.4191 36.897 44.1156 36.8343 43.8483 36.709C43.581 36.5841 43.3541 36.4153 43.1675 36.2029C42.9806 35.9911 42.8387 35.7472 42.7411 35.4711C42.6434 35.1956 42.5948 34.9091 42.5948 34.6119C42.5948 34.281 42.6404 33.9661 42.7314 33.6667C42.8226 33.3679 42.9582 33.1058 43.1388 32.881C43.3191 32.6563 43.5438 32.4772 43.8134 32.3435C44.0827 32.2093 44.3978 32.1426 44.7585 32.1426C45.0045 32.1426 45.2368 32.1716 45.4555 32.2284C45.6738 32.2859 45.869 32.3762 46.0409 32.4994C46.2126 32.6222 46.3568 32.7779 46.4736 32.9671C46.5901 33.1556 46.6697 33.384 46.712 33.6513H46.1078C46.078 33.4771 46.0227 33.3275 45.9421 33.2021C45.8614 33.0774 45.7617 32.9743 45.6431 32.8935C45.5242 32.8132 45.3894 32.7526 45.2389 32.7122C45.0881 32.6718 44.9282 32.6521 44.7585 32.6521C44.4826 32.6521 44.2461 32.7071 44.0487 32.8174C43.8517 32.9276 43.6904 33.0732 43.5653 33.2535C43.4399 33.4336 43.3478 33.6393 43.2885 33.8709C43.2289 34.1017 43.1991 34.3385 43.1991 34.5803C43.1991 34.818 43.2331 35.0459 43.3012 35.2645C43.369 35.483 43.4688 35.6757 43.6002 35.8435C43.7315 36.0112 43.8939 36.145 44.0871 36.2444C44.2801 36.3442 44.504 36.394 44.7585 36.394C44.996 36.394 45.2061 36.3557 45.3886 36.2796C45.5708 36.2029 45.7247 36.0978 45.8498 35.9642C45.9748 35.8305 46.0694 35.6736 46.133 35.4935C46.1968 35.3132 46.2242 35.1189 46.216 34.9112H44.7648V34.4022H46.7567V36.7948H46.3749L46.216 36.2282C46.0375 36.466 45.817 36.637 45.5541 36.741Z" fill="white"/>
<path d="M49.9131 34.3129C50.0406 34.2917 50.1519 34.2502 50.2473 34.1885C50.3428 34.127 50.4192 34.0447 50.4764 33.9406C50.5335 33.8364 50.5624 33.7019 50.5624 33.5366C50.5624 33.3072 50.4986 33.1208 50.3713 32.9763C50.244 32.8322 50.0382 32.7597 49.7541 32.7597H48.2522V34.3445H49.5123C49.6522 34.3445 49.7857 34.3342 49.9131 34.3129ZM49.7857 32.2507C50.2188 32.2507 50.5569 32.3568 50.8008 32.5692C51.0447 32.781 51.1667 33.072 51.1667 33.4407C51.1667 33.7168 51.1043 33.9587 50.979 34.1663C50.854 34.3746 50.6536 34.5164 50.3778 34.5926V34.6055C50.5092 34.6309 50.6165 34.6735 50.699 34.7329C50.782 34.7925 50.8474 34.8634 50.8963 34.9457C50.945 35.0287 50.9814 35.1208 51.0046 35.2228C51.028 35.3245 51.046 35.4306 51.0587 35.5408C51.0671 35.6512 51.0736 35.7636 51.0776 35.8785C51.0821 35.993 51.0927 36.1053 51.1095 36.2157C51.1266 36.326 51.1509 36.4312 51.1828 36.5306C51.2147 36.6305 51.2624 36.7186 51.326 36.7947H50.6515C50.6089 36.7481 50.5803 36.6845 50.5654 36.6036C50.5505 36.5234 50.5411 36.4332 50.5368 36.3333C50.5326 36.2339 50.5282 36.1266 50.524 36.0122C50.5199 35.8972 50.5071 35.7847 50.486 35.6745C50.4688 35.5642 50.4477 35.4596 50.4222 35.3596C50.3969 35.2602 50.3565 35.1732 50.3012 35.0986C50.2461 35.0245 50.1741 34.9649 50.085 34.9204C49.9958 34.8758 49.8772 34.8536 49.7285 34.8536H48.2522V36.7947H47.6476V32.2507H49.7857Z" fill="white"/>
<path d="M55.1698 36.4609C54.8602 36.7513 54.419 36.897 53.8461 36.897C53.2606 36.897 52.8036 36.7576 52.4746 36.48C52.1458 36.202 51.9817 35.7596 51.9817 35.1532V32.2508H52.5859V35.1532C52.5859 35.5602 52.6942 35.8688 52.9107 36.0792C53.1269 36.289 53.439 36.394 53.8461 36.394C54.2322 36.394 54.5261 36.289 54.7276 36.0792C54.929 35.8688 55.03 35.5602 55.03 35.1532V32.2508H55.6345V35.1532C55.6345 35.7343 55.4795 36.1702 55.1698 36.4609Z" fill="white"/>
<path d="M58.3901 34.4275C58.7337 34.4317 58.9852 34.3618 59.1442 34.2173C59.3032 34.0733 59.383 33.8651 59.383 33.5937C59.383 33.3224 59.3032 33.1157 59.1442 32.9733C58.9852 32.8314 58.7337 32.7598 58.3901 32.7598H57.2065V34.4275H58.3901ZM58.5936 32.2507C59.0521 32.2507 59.3988 32.3688 59.6341 32.604C59.8698 32.8396 59.9873 33.1695 59.9873 33.5937C59.9873 34.0179 59.8698 34.3488 59.6341 34.5865C59.3988 34.8243 59.0521 34.9408 58.5936 34.9366H57.2065V36.7949H56.6017V32.2507H58.5936Z" fill="white"/>
<path d="M62.5133 34.4275C62.8569 34.4317 63.1084 34.3618 63.2674 34.2173C63.4264 34.0733 63.5061 33.8651 63.5061 33.5937C63.5061 33.3224 63.4264 33.1157 63.2674 32.9733C63.1084 32.8314 62.8569 32.7598 62.5133 32.7598H61.3296V34.4275H62.5133ZM62.7167 32.2507C63.1752 32.2507 63.5219 32.3688 63.7573 32.604C63.993 32.8396 64.1104 33.1695 64.1104 33.5937C64.1104 34.0179 63.993 34.3488 63.7573 34.5865C63.5219 34.8243 63.1752 34.9408 62.7167 34.9366H61.3296V36.7949H60.7249V32.2507H62.7167Z" fill="white"/>
<path d="M65.2876 35.2009C65.3469 35.4235 65.4401 35.624 65.5676 35.8021C65.6948 35.9803 65.858 36.1238 66.0575 36.2321C66.2568 36.3397 66.4945 36.3942 66.7703 36.3942C67.0462 36.3942 67.2836 36.3397 67.4831 36.2321C67.6823 36.1238 67.8457 35.9803 67.9731 35.8021C68.1004 35.624 68.1935 35.4235 68.2531 35.2009C68.3124 34.9783 68.3422 34.7524 68.3422 34.523C68.3422 34.2941 68.3124 34.0682 68.2531 33.8456C68.1935 33.6223 68.1004 33.4219 67.9731 33.2437C67.8457 33.0655 67.6823 32.9226 67.4831 32.8144C67.2836 32.7061 67.0462 32.6523 66.7703 32.6523C66.4945 32.6523 66.2568 32.7061 66.0575 32.8144C65.858 32.9226 65.6948 33.0655 65.5676 33.2437C65.4401 33.4219 65.3469 33.6223 65.2876 33.8456C65.228 34.0682 65.1985 34.2941 65.1985 34.523C65.1985 34.7524 65.228 34.9783 65.2876 35.2009ZM64.7305 33.629C64.8217 33.3426 64.9588 33.0889 65.141 32.8683C65.3235 32.6476 65.5505 32.4715 65.8221 32.3399C66.0934 32.2089 66.4096 32.1427 66.7703 32.1427C67.1307 32.1427 67.447 32.2089 67.7186 32.3399C67.99 32.4715 68.2172 32.6476 68.3994 32.8683C68.5819 33.0889 68.7187 33.3426 68.8099 33.629C68.9012 33.9155 68.9468 34.2132 68.9468 34.523C68.9468 34.8326 68.9012 35.131 68.8099 35.4174C68.7187 35.7039 68.5819 35.9571 68.3994 36.1777C68.2172 36.3984 67.99 36.5733 67.7186 36.7028C67.447 36.8324 67.1307 36.897 66.7703 36.897C66.4096 36.897 66.0934 36.8324 65.8221 36.7028C65.5505 36.5733 65.3235 36.3984 65.141 36.1777C64.9588 35.9571 64.8217 35.7039 64.7305 35.4174C64.6395 35.131 64.5939 34.8326 64.5939 34.523C64.5939 34.2132 64.6395 33.9155 64.7305 33.629Z" fill="white"/>
<path d="M73.2426 34.4275C73.5862 34.4317 73.8377 34.3618 73.9967 34.2173C74.1557 34.0733 74.2355 33.8651 74.2355 33.5937C74.2355 33.3224 74.1557 33.1157 73.9967 32.9733C73.8377 32.8314 73.5862 32.7598 73.2426 32.7598H72.059V34.4275H73.2426ZM73.4461 32.2507C73.9044 32.2507 74.2513 32.3688 74.4866 32.604C74.7223 32.8396 74.8398 33.1695 74.8398 33.5937C74.8398 34.0179 74.7223 34.3488 74.4866 34.5865C74.2513 34.8243 73.9044 34.9408 73.4461 34.9366H72.059V36.7949H71.4542V32.2507H73.4461Z" fill="white"/>
<path d="M78.7149 32.2507V32.7598H76.1821V34.2047H78.543V34.714H76.1821V36.2858H78.7341V36.7949H75.5775V32.2507H78.7149Z" fill="white"/>
<path d="M81.7324 34.3129C81.8598 34.2917 81.9711 34.2502 82.0665 34.1885C82.162 34.127 82.2384 34.0447 82.2956 33.9406C82.3528 33.8364 82.3816 33.7019 82.3816 33.5366C82.3816 33.3072 82.3178 33.1208 82.1905 32.9763C82.0633 32.8322 81.8574 32.7597 81.5734 32.7597H80.0714V34.3445H81.3315C81.4714 34.3445 81.6049 34.3342 81.7324 34.3129ZM81.6049 32.2507C82.038 32.2507 82.3761 32.3568 82.62 32.5692C82.8639 32.781 82.9859 33.072 82.9859 33.4407C82.9859 33.7168 82.9235 33.9587 82.7982 34.1663C82.6732 34.3746 82.4728 34.5164 82.197 34.5926V34.6055C82.3284 34.6309 82.4357 34.6735 82.5182 34.7329C82.6012 34.7925 82.6666 34.8634 82.7156 34.9457C82.7642 35.0287 82.8006 35.1208 82.8238 35.2228C82.8472 35.3245 82.8652 35.4306 82.8779 35.5408C82.8863 35.6512 82.8928 35.7636 82.8968 35.8785C82.9013 35.993 82.9119 36.1053 82.9287 36.2157C82.9458 36.326 82.9701 36.4312 83.002 36.5306C83.0339 36.6305 83.0816 36.7186 83.1452 36.7947H82.4707C82.4282 36.7481 82.3995 36.6845 82.3847 36.6036C82.3697 36.5234 82.3603 36.4332 82.356 36.3333C82.3518 36.2339 82.3474 36.1266 82.3433 36.0122C82.3391 35.8972 82.3263 35.7847 82.3052 35.6745C82.288 35.5642 82.2669 35.4596 82.2414 35.3596C82.2161 35.2602 82.1757 35.1732 82.1205 35.0986C82.0654 35.0245 81.9933 34.9649 81.9043 34.9204C81.815 34.8758 81.6964 34.8536 81.5477 34.8536H80.0714V36.7947H79.4668V32.2507H81.6049Z" fill="white"/>
<path d="M86.2004 32.2507V36.2858H88.6058V36.7949H85.5958V32.2507H86.2004Z" fill="white"/>
<path d="M91.4561 34.9175L90.699 32.7982H90.6861L89.9162 34.9175H91.4561ZM91.0361 32.2507L92.8118 36.7949H92.1434L91.647 35.4265H89.7251L89.2159 36.7949H88.5988L90.3681 32.2507H91.0361Z" fill="white"/>
<path d="M97.3022 32.8712C97.1005 32.7251 96.8427 32.6521 96.5289 32.6521C96.4015 32.6521 96.2764 32.6645 96.1535 32.69C96.0301 32.7153 95.9212 32.7578 95.8257 32.8174C95.7303 32.8769 95.6539 32.9561 95.5964 33.0562C95.5392 33.1556 95.5107 33.2798 95.5107 33.4285C95.5107 33.5683 95.552 33.6817 95.6348 33.7687C95.7174 33.8557 95.8276 33.9268 95.9657 33.9822C96.1034 34.0371 96.2594 34.0825 96.4334 34.1188C96.6073 34.155 96.7846 34.194 96.9648 34.2364C97.1453 34.2789 97.3222 34.3285 97.4961 34.3861C97.6701 34.4436 97.8261 34.5207 97.9641 34.6187C98.1019 34.716 98.2121 34.8392 98.295 34.9874C98.3777 35.136 98.4191 35.3225 98.4191 35.5478C98.4191 35.7891 98.365 35.9963 98.2567 36.1682C98.1484 36.3397 98.0096 36.48 97.8401 36.5883C97.6701 36.6966 97.4804 36.7747 97.2703 36.8233C97.0604 36.872 96.8513 36.897 96.6434 36.897C96.3889 36.897 96.148 36.8648 95.9212 36.8011C95.6941 36.7373 95.4946 36.6411 95.323 36.5116C95.151 36.3821 95.0153 36.217 94.9156 36.0154C94.8159 35.8139 94.766 35.5751 94.766 35.2992H95.3388C95.3388 35.4902 95.3759 35.655 95.4502 35.7928C95.5244 35.9305 95.6221 36.0439 95.743 36.133C95.8639 36.2221 96.0048 36.2878 96.1661 36.3304C96.3272 36.3727 96.4926 36.394 96.6626 36.394C96.7982 36.394 96.9352 36.3811 97.0729 36.3557C97.2108 36.3304 97.335 36.2869 97.4454 36.2252C97.5557 36.1641 97.6448 36.0802 97.7127 35.974C97.7805 35.8679 97.8143 35.7322 97.8143 35.5664C97.8143 35.4095 97.7729 35.2826 97.6903 35.1848C97.6075 35.0873 97.4971 35.0076 97.3594 34.9459C97.2213 34.8848 97.0655 34.8346 96.8917 34.7969C96.7177 34.7585 96.5406 34.719 96.3604 34.6788C96.1799 34.6383 96.0027 34.5918 95.8289 34.5389C95.6549 34.4861 95.4988 34.4157 95.3611 34.3285C95.2233 34.2422 95.113 34.1293 95.0302 33.9915C94.9475 33.8536 94.9061 33.6808 94.9061 33.4731C94.9061 33.2435 94.9527 33.0452 95.0461 32.878C95.1394 32.7101 95.2634 32.5724 95.4183 32.4641C95.5731 32.3559 95.7492 32.2756 95.9465 32.2223C96.1439 32.1695 96.3464 32.1426 96.5543 32.1426C96.7876 32.1426 97.0041 32.1704 97.2036 32.2254C97.4029 32.2808 97.578 32.3678 97.7284 32.4863C97.8791 32.6051 97.998 32.7547 98.085 32.9349C98.1718 33.1156 98.2196 33.3307 98.2282 33.5812H97.6553C97.6212 33.2545 97.5037 33.0178 97.3022 32.8712Z" fill="white"/>
<path d="M99.7803 36.7949H99.1757V32.2507H99.7803V36.7949Z" fill="white"/>
<path d="M103.546 32.8934C103.315 32.7323 103.04 32.652 102.722 32.652C102.45 32.652 102.218 32.7028 102.025 32.8043C101.832 32.9063 101.673 33.043 101.548 33.2149C101.423 33.387 101.33 33.5832 101.271 33.8039C101.212 34.0245 101.182 34.2534 101.182 34.4912C101.182 34.7501 101.212 34.9951 101.271 35.2259C101.33 35.4575 101.423 35.659 101.548 35.8304C101.673 36.0023 101.833 36.1391 102.028 36.241C102.224 36.3432 102.457 36.3939 102.728 36.3939C102.928 36.3939 103.105 36.3607 103.26 36.295C103.414 36.2293 103.548 36.1381 103.661 36.0215C103.773 35.905 103.861 35.7663 103.925 35.6045C103.989 35.4436 104.027 35.2696 104.039 35.0831H104.644C104.585 35.6554 104.387 36.1012 104.052 36.4192C103.717 36.7372 103.259 36.8967 102.678 36.8967C102.325 36.8967 102.018 36.8362 101.755 36.715C101.492 36.5943 101.273 36.4281 101.099 36.2158C100.925 36.0034 100.795 35.7532 100.708 35.4647C100.621 35.1763 100.577 34.8665 100.577 34.5356C100.577 34.2047 100.624 33.894 100.717 33.6035C100.811 33.3129 100.948 33.0591 101.128 32.8426C101.308 32.6261 101.533 32.4557 101.802 32.3305C102.072 32.2051 102.381 32.1425 102.728 32.1425C102.966 32.1425 103.191 32.1745 103.403 32.2382C103.615 32.302 103.804 32.3951 103.969 32.5178C104.135 32.6411 104.273 32.7949 104.383 32.9794C104.493 33.1642 104.565 33.3772 104.6 33.619H103.995C103.927 33.2968 103.777 33.055 103.546 32.8934Z" fill="white"/>
<path d="M108.556 36.4609C108.247 36.7513 107.806 36.897 107.233 36.897C106.647 36.897 106.19 36.7576 105.861 36.48C105.532 36.202 105.368 35.7596 105.368 35.1532V32.2508H105.973V35.1532C105.973 35.5602 106.081 35.8688 106.297 36.0792C106.514 36.289 106.826 36.394 107.233 36.394C107.619 36.394 107.913 36.289 108.114 36.0792C108.316 35.8688 108.417 35.5602 108.417 35.1532V32.2508H109.021V35.1532C109.021 35.7343 108.866 36.1702 108.556 36.4609Z" fill="white"/>
<path d="M112.254 34.3129C112.381 34.2917 112.493 34.2502 112.588 34.1885C112.684 34.127 112.76 34.0447 112.817 33.9406C112.874 33.8364 112.903 33.7019 112.903 33.5366C112.903 33.3072 112.839 33.1208 112.712 32.9763C112.585 32.8322 112.379 32.7597 112.095 32.7597H110.593V34.3445H111.853C111.993 34.3445 112.126 34.3342 112.254 34.3129ZM112.126 32.2507C112.559 32.2507 112.898 32.3568 113.142 32.5692C113.385 32.781 113.507 33.072 113.507 33.4407C113.507 33.7168 113.445 33.9587 113.32 34.1663C113.195 34.3746 112.994 34.5164 112.718 34.5926V34.6055C112.85 34.6309 112.957 34.6735 113.04 34.7329C113.123 34.7925 113.188 34.8634 113.237 34.9457C113.286 35.0287 113.322 35.1208 113.345 35.2228C113.369 35.3245 113.387 35.4306 113.399 35.5408C113.408 35.6512 113.414 35.7636 113.418 35.8785C113.423 35.993 113.433 36.1053 113.45 36.2157C113.467 36.326 113.492 36.4312 113.524 36.5306C113.555 36.6305 113.603 36.7186 113.667 36.7947H112.992C112.95 36.7481 112.921 36.6845 112.906 36.6036C112.891 36.5234 112.882 36.4332 112.877 36.3333C112.873 36.2339 112.869 36.1266 112.865 36.0122C112.861 35.8972 112.848 35.7847 112.827 35.6745C112.81 35.5642 112.788 35.4596 112.763 35.3596C112.738 35.2602 112.697 35.1732 112.642 35.0986C112.587 35.0245 112.515 34.9649 112.426 34.9204C112.337 34.8758 112.218 34.8536 112.069 34.8536H110.593V36.7947H109.988V32.2507H112.126Z" fill="white"/>
<path d="M117.485 32.2507V32.7598H114.952V34.2047H117.313V34.714H114.952V36.2858H117.504V36.7949H114.348V32.2507H117.485Z" fill="white"/>
<path d="M120.705 32.7598H118.096V32.2507H121.418V32.7598L118.599 36.2857H121.495V36.7949H117.88V36.2857L120.705 32.7598Z" fill="white"/>
<path d="M124.593 32.7598H121.984V32.2507H125.306V32.7598L122.487 36.2857H125.382V36.7949H121.768V36.2857L124.593 32.7598Z" fill="white"/>
<path d="M128.336 34.9175L127.579 32.7982H127.566L126.796 34.9175H128.336ZM127.916 32.2507L129.692 36.7949H129.023L128.527 35.4265H126.605L126.096 36.7949H125.479L127.248 32.2507H127.916Z" fill="white"/>
</g>
</svg>
